<svg width="16" height="16" viewBox="0 0 16 16" fill="none" xmlns="http://www.w3.org/2000/svg">
<path fill-rule="evenodd" clip-rule="evenodd" d="M11.1464 2.85365L12.6445 4.35173C10.9086 4.2494 9.72357 4.5346 8.90904 5.12698C7.88 5.87537 7.573 7.02265 7.38356 8.03295C7.34527 8.23716 7.31265 8.43046 7.28109 8.61744L7.28108 8.61749L7.28108 8.61751C7.22974 8.92166 7.18122 9.20909 7.11575 9.49953C7.01349 9.95322 6.8849 10.3323 6.68936 10.6351C6.50105 10.9266 6.24228 11.1608 5.84675 11.3159C5.60805 11.4095 5.31095 11.4775 4.93844 11.5058C4.7184 10.6403 3.93396 10.0001 3 10.0001C1.89543 10.0001 1 10.8955 1 12.0001C1 13.1047 1.89543 14.0001 3 14.0001C3.92894 14.0001 4.70996 13.3668 4.93484 12.5084C5.42312 12.4782 5.84582 12.3904 6.21184 12.2468C6.81241 12.0113 7.23332 11.636 7.52939 11.1776C7.81823 10.7304 7.9787 10.2189 8.09128 9.71942C8.16151 9.40784 8.21931 9.06711 8.27476 8.74024L8.27477 8.74023L8.27477 8.74022C8.30547 8.55921 8.33546 8.38245 8.36644 8.21724C8.552 7.22754 8.8075 6.43732 9.49721 5.93572C10.0926 5.5027 11.1061 5.21882 12.9188 5.37415L11.1464 7.14655L11.8536 7.85365L14.3536 5.35365L14.7071 5.0001L14.3536 4.64655L11.8536 2.14655L11.1464 2.85365ZM4 12.0001C4 11.4478 3.55228 11.0001 3 11.0001C2.44772 11.0001 2 11.4478 2 12.0001C2 12.5524 2.44772 13.0001 3 13.0001C3.50341 13.0001 3.91994 12.6281 3.98972 12.144L4 12.0001Z" fill="black"/>
</svg>
