<svg width="16" height="16" viewBox="0 0 16 16" fill="none" xmlns="http://www.w3.org/2000/svg">
<path fill-rule="evenodd" clip-rule="evenodd" d="M8.35357 2.6464L8.00001 2.29285L7.64646 2.6464L5.64646 4.6464L6.35357 5.35351L7.50001 4.20706V7.49995L4.20712 7.49995L5.35357 6.35351L4.64646 5.6464L2.64646 7.6464L2.29291 7.99995L2.64646 8.35351L4.64646 10.3535L5.35357 9.6464L4.20712 8.49995L7.50001 8.49995V11.7928L6.35357 10.6464L5.64646 11.3535L7.64646 13.3535L8.00001 13.7071L8.35357 13.3535L10.3536 11.3535L9.64646 10.6464L8.50001 11.7928V8.49995L11.7929 8.49995L10.6465 9.6464L11.3536 10.3535L13.3536 8.35351L13.7071 7.99995L13.3536 7.6464L11.3536 5.6464L10.6465 6.35351L11.7929 7.49995L8.50001 7.49995V4.20706L9.64646 5.35351L10.3536 4.6464L8.35357 2.6464Z" fill="black"/>
</svg>
