<svg width="16" height="16" viewBox="0 0 16 16" fill="none" xmlns="http://www.w3.org/2000/svg">
<path fill-rule="evenodd" clip-rule="evenodd" d="M10 5.5L8.53851 1.84629L7.99999 0.5L7.46148 1.84629L6 5.5H2.54796H1L2.18159 6.5L5 8.88525L3.93641 12.5599L3.5 14.0676L4.79695 13.1835L8 11L11.195 13.13L12.5 14L12.0493 12.4977L11 9L13.8571 6.5L15 5.5H13.4814H10ZM12.3386 6.5H10H9.32297L9.07152 5.87139L7.99999 3.19258L6.92848 5.87139L6.67703 6.5H6H3.72955L5.64601 8.12193L6.14079 8.54066L5.96057 9.16329L5.23336 11.6758L7.43673 10.1737L7.99377 9.794L8.5547 10.1679L10.7443 11.6277L10.0422 9.28735L9.8573 8.6711L10.3415 8.24742L12.3386 6.5Z" fill="black"/>
</svg>
