<svg width="16" height="16" viewBox="0 0 16 16" fill="none" xmlns="http://www.w3.org/2000/svg">
<path fill-rule="evenodd" clip-rule="evenodd" d="M8.5 3.02469V1.5H7.5V3.02469C5.13779 3.25922 3.25922 5.13779 3.02469 7.5H1.5V8.5H3.02469C3.25922 10.8622 5.13779 12.7408 7.5 12.9753V14.5H8.5V12.9753C10.8622 12.7408 12.7408 10.8622 12.9753 8.5H14.5V7.5H12.9753C12.7408 5.13779 10.8622 3.25922 8.5 3.02469ZM7.5 4.03095V6.5H8.5V4.03095C10.3094 4.25657 11.7434 5.69064 11.9691 7.5H9.5V8.5H11.9691C11.7434 10.3094 10.3094 11.7434 8.5 11.9691V9.5H7.5V11.9691C5.69064 11.7434 4.25657 10.3094 4.03095 8.5H6.5V7.5H4.03095C4.25657 5.69064 5.69064 4.25657 7.5 4.03095Z" fill="black"/>
</svg>
