<svg width="16" height="16" viewBox="0 0 16 16" fill="none" xmlns="http://www.w3.org/2000/svg">
<path fill-rule="evenodd" clip-rule="evenodd" d="M8.00007 11C5.70021 11 3.67791 9.80581 2.5217 8C3.67791 6.19419 5.70021 5 8.00007 5C10.2999 5 12.3222 6.19419 13.4784 8C12.3222 9.80581 10.2999 11 8.00007 11ZM8.00007 4C10.8781 4 13.3775 5.6211 14.635 8C13.3775 10.3789 10.8781 12 8.00007 12C5.12202 12 2.62261 10.3789 1.36511 8C2.62261 5.6211 5.12202 4 8.00007 4ZM8.00037 10C9.10494 10 10.0004 9.10457 10.0004 8C10.0004 6.89543 9.10494 6 8.00037 6C6.8958 6 6.00037 6.89543 6.00037 8C6.00037 9.10457 6.8958 10 8.00037 10Z" fill="black"/>
</svg>
