<svg width="32" height="32" viewBox="0 0 32 32" fill="none" xmlns="http://www.w3.org/2000/svg">
<path fill-rule="evenodd" clip-rule="evenodd" d="M12 15.95V23H13V15.95C14.1411 15.7184 15 14.7095 15 13.5C15 12.2905 14.1411 11.2816 13 11.05V9H12V11.05C10.8589 11.2816 10 12.2905 10 13.5C10 14.7095 10.8589 15.7184 12 15.95ZM14 13.5C14 12.6716 13.3284 12 12.5 12C11.6716 12 11 12.6716 11 13.5C11 14.3284 11.6716 15 12.5 15C13.3284 15 14 14.3284 14 13.5ZM19 9H20V16.05C21.1411 16.2816 22 17.2905 22 18.5C22 19.7095 21.1411 20.7184 20 20.95V23H19V20.95C17.8589 20.7184 17 19.7095 17 18.5C17 17.2905 17.8589 16.2816 19 16.05V9ZM21 18.5C21 19.3284 20.3284 20 19.5 20C18.6716 20 18 19.3284 18 18.5C18 17.6716 18.6716 17 19.5 17C20.3284 17 21 17.6716 21 18.5Z" fill="black"/>
</svg>
