<svg width="32" height="32" viewBox="0 0 32 32" fill="none" xmlns="http://www.w3.org/2000/svg">
<path fill-rule="evenodd" clip-rule="evenodd" d="M23 16C23 19.866 19.866 23 16 23C12.134 23 9 19.866 9 16C9 12.134 12.134 9 16 9C19.866 9 23 12.134 23 16ZM24 16C24 20.4183 20.4183 24 16 24C11.5817 24 8 20.4183 8 16C8 11.5817 11.5817 8 16 8C20.4183 8 24 11.5817 24 16ZM15.6465 12.2536L16 11.9L16.3536 12.2536L19.3536 15.2536L18.6465 15.9607L16.5 13.8142V20.1071H15.5V13.8142L13.3536 15.9607L12.6465 15.2536L15.6465 12.2536Z" fill="black"/>
</svg>
