<svg width="32" height="32" viewBox="0 0 32 32" fill="none" xmlns="http://www.w3.org/2000/svg">
<path fill-rule="evenodd" clip-rule="evenodd" d="M20 14V17C20 17.7684 20.2889 18.4692 20.7639 19H11.2361C11.7111 18.4692 12 17.7684 12 17V14C12 11.7909 13.7909 10 16 10C18.2091 10 20 11.7909 20 14ZM21 14V17C21 18.1046 21.8954 19 23 19V20H22H10H9V19C10.1046 19 11 18.1046 11 17V14C11 11.2386 13.2386 9 16 9C18.7614 9 21 11.2386 21 14ZM16 23C14.8954 23 14 22.1046 14 21H13C13 22.6569 14.3431 24 16 24C17.6569 24 19 22.6569 19 21H18C18 22.1046 17.1046 23 16 23Z" fill="black"/>
</svg>
