<svg width="32" height="32" viewBox="0 0 32 32" fill="none" xmlns="http://www.w3.org/2000/svg">
<path fill-rule="evenodd" clip-rule="evenodd" d="M16.6948 11.7201C16.4748 11.4911 16.2437 11.252 16.0016 11.0016C16.0011 11.0011 16.0006 11.0005 16.0001 11L15.9996 11.0005C15.9993 11.0008 15.9989 11.0012 15.9986 11.0015C15.7565 11.252 15.5254 11.4911 15.3053 11.72C13.1018 14.0124 12 15.2939 12 16.8519C11.9975 17.9143 12.3881 18.9775 13.1717 19.788C14.7337 21.404 17.2664 21.404 18.8284 19.788C19.612 18.9775 20.0025 17.9143 20 16.8519C20 15.2939 18.8983 14.0124 16.6948 11.7201ZM16.0001 12.4404C15.0235 13.457 14.3067 14.2309 13.8048 14.9112C13.205 15.7245 13 16.2912 13 16.8519V16.8542C12.9981 17.672 13.2984 18.4804 13.8907 19.093C15.0596 20.3023 16.9405 20.3023 18.1095 19.093C18.7016 18.4804 19.0019 17.6721 19 16.8543L19 16.8519C19 16.2912 18.795 15.7245 18.1952 14.9112C17.6934 14.2309 16.9765 13.457 16.0001 12.4404Z" fill="black"/>
</svg>
