<svg width="32" height="32" viewBox="0 0 32 32" fill="none" xmlns="http://www.w3.org/2000/svg">
<path fill-rule="evenodd" clip-rule="evenodd" d="M16.0016 11.0016C16.2437 11.252 16.4748 11.4911 16.6948 11.7201C18.8983 14.0124 20 15.2939 20 16.8519C20.0025 17.9143 19.612 18.9775 18.8284 19.788C17.2664 21.404 14.7337 21.404 13.1717 19.788C12.3881 18.9775 11.9975 17.9143 12 16.8519C12 15.2939 13.1018 14.0124 15.3053 11.72C15.5254 11.4911 15.7565 11.252 15.9986 11.0015L15.9996 11.0005L16.0001 11L16.0016 11.0016ZM13.8048 14.9112C14.3067 14.2309 15.0235 13.457 16.0001 12.4404C16.9765 13.457 17.6934 14.2309 18.1952 14.9112C18.795 15.7245 19 16.2912 19 16.8519L19 16.8543C19.0001 16.9029 18.9992 16.9515 18.9971 17H13.0029C13.0009 16.9515 12.9999 16.9029 13 16.8542V16.8519C13 16.2912 13.205 15.7245 13.8048 14.9112Z" fill="black"/>
</svg>
