<svg width="32" height="32" viewBox="0 0 32 32" fill="none" xmlns="http://www.w3.org/2000/svg">
<path fill-rule="evenodd" clip-rule="evenodd" d="M9 16C9 19.866 12.134 23 16 23C19.866 23 23 19.866 23 16C23 12.134 19.866 9 16 9C12.134 9 9 12.134 9 16ZM16 8C11.5817 8 8 11.5817 8 16C8 20.4183 11.5817 24 16 24C20.4183 24 24 20.4183 24 16C24 11.5817 20.4183 8 16 8ZM15.5 12.5V13V16V16.5H16.5V16V13V12.5H15.5ZM16.75 18.9999C16.75 18.5857 16.4142 18.2499 16 18.2499C15.5858 18.2499 15.25 18.5857 15.25 18.9999V19.0685C15.25 19.4827 15.5858 19.8185 16 19.8185C16.4142 19.8185 16.75 19.4827 16.75 19.0685V18.9999Z" fill="black"/>
</svg>
