<svg width="32" height="32" viewBox="0 0 32 32" fill="none" xmlns="http://www.w3.org/2000/svg">
<path fill-rule="evenodd" clip-rule="evenodd" d="M16.5 9V8.5H15.5V9V11V11.5H16.5V11V9ZM11.4039 10.6967L11.0503 10.3431L10.3432 11.0503L10.6968 11.4038L12.111 12.818L12.4645 13.1716L13.1716 12.4645L12.8181 12.1109L11.4039 10.6967ZM21.3034 11.4038L21.657 11.0503L20.9499 10.3432L20.5963 10.6967L19.1821 12.1109L18.8285 12.4645L19.5356 13.1716L19.8892 12.818L21.3034 11.4038ZM9 15.5H8.5V16.5H9H11H11.5V15.5H11H9ZM21 15.5H20.5V16.5H21H23H23.5V15.5H23H21ZM12.8181 19.8891L13.1716 19.5355L12.4645 18.8284L12.111 19.182L10.6967 20.5962L10.3432 20.9498L11.0503 21.6569L11.4038 21.3033L12.8181 19.8891ZM19.889 19.182L19.5354 18.8284L18.8283 19.5355L19.1819 19.8891L20.5961 21.3033L20.9496 21.6569L21.6567 20.9498L21.3032 20.5962L19.889 19.182ZM16.5 21V20.5H15.5V21V23V23.5H16.5V23V21ZM17.4978 15.9979C17.4978 16.8264 16.8262 17.4979 15.9978 17.4979C15.1694 17.4979 14.4978 16.8264 14.4978 15.9979C14.4978 15.1695 15.1694 14.4979 15.9978 14.4979C16.8262 14.4979 17.4978 15.1695 17.4978 15.9979ZM18.4978 15.9979C18.4978 17.3786 17.3785 18.4979 15.9978 18.4979C14.6171 18.4979 13.4978 17.3786 13.4978 15.9979C13.4978 14.6172 14.6171 13.4979 15.9978 13.4979C17.3785 13.4979 18.4978 14.6172 18.4978 15.9979Z" fill="black"/>
</svg>
