<svg width="32" height="32" viewBox="0 0 32 32" fill="none" xmlns="http://www.w3.org/2000/svg">
<path d="M22.4473 22.4C21.6473 23.2 20.4473 23.2 19.6473 22.4L16.8472 19.6L16.0472 20.3C15.6472 20.7 15.0472 20.7 14.6472 20.3C14.2472 19.9 14.2472 19.3 14.6472 18.9L15.3472 18.2L9.54725 12.4C9.14725 12 8.54725 10.5 9.54725 9.5C10.5472 8.5 12.0472 9.1 12.4472 9.5L18.2472 15.3L18.9473 14.6C19.3473 14.2 19.9473 14.2 20.3473 14.6C20.7473 15 20.7473 15.6 20.3473 16L19.6473 16.7L22.4473 19.5C23.2473 20.4 23.2473 21.6 22.4473 22.4ZM11.5472 10.5H10.5472V11.5L16.3472 17.3L17.3472 16.3C17.2472 16.3 11.5472 10.5 11.5472 10.5Z" fill="black"/>
</svg>
