<svg width="32" height="32" viewBox="0 0 32 32" fill="none" xmlns="http://www.w3.org/2000/svg">
<path fill-rule="evenodd" clip-rule="evenodd" d="M20.1797 17.6992H19.0625C19.0391 16.2383 19.4688 15.75 20.2266 15.2852C20.7031 14.9922 21.0547 14.5859 21.0547 14.0078C21.0547 13.3164 20.5156 12.875 19.8516 12.875C19.2539 12.875 18.6641 13.2383 18.6172 14.0664H17.4297C17.4805 12.6602 18.5352 11.8906 19.8516 11.8906C21.2852 11.8906 22.2461 12.75 22.2461 14.0195C22.2461 14.875 21.8398 15.4727 21.1406 15.8984C20.4297 16.3359 20.1797 16.7266 20.1797 17.6992ZM20.4336 19.293C20.4336 19.7266 20.0781 20.0742 19.6523 20.0742C19.2227 20.0742 18.8711 19.7266 18.8711 19.293C18.8711 18.8672 19.2227 18.5156 19.6523 18.5156C20.0781 18.5156 20.4336 18.8672 20.4336 19.293ZM9 20L12.1111 12H13.1962L16.3073 20H15.2344L14.4566 18L10.8507 18L10.073 20H9ZM12.6537 13.3639L14.0677 17L11.2396 17L12.6537 13.3639Z" fill="black"/>
</svg>
