<svg width="32" height="32" viewBox="0 0 32 32" fill="none" xmlns="http://www.w3.org/2000/svg">
<path fill-rule="evenodd" clip-rule="evenodd" d="M20.7729 9.14867C21.1634 8.75814 21.7966 8.75814 22.1871 9.14867L23.6013 10.5629C23.9918 10.9534 23.9918 11.5866 23.6013 11.9771L22.1871 13.3913L19.3587 10.563L18.6516 11.2701L21.4799 14.0984L13.2088 22.3696L9.67325 23.0767L10.3804 19.5412L20.7729 9.14867ZM9.46079 24.139L13.7018 23.2908L24.3084 12.6842C25.0894 11.9032 25.0894 10.6368 24.3084 9.85577L22.8942 8.44156C22.1131 7.66051 20.8468 7.66051 20.0658 8.44156L9.45916 19.0482L8.61096 23.2892L8.3985 24.3515L9.46079 24.139Z" fill="black"/>
</svg>
