<svg width="32" height="32" viewBox="0 0 32 32" fill="none" xmlns="http://www.w3.org/2000/svg">
<path fill-rule="evenodd" clip-rule="evenodd" d="M16 8C14.7733 8 14 8.71059 14 9.5C14 9.9208 14.1997 10.3505 14.5583 10.6856C14.8159 10.9263 14.8114 11.2642 14.7502 11.4682C14.6903 11.668 14.488 12 14.0761 12H11V22H21V19.4933C20.5675 19.8084 20.0493 20 19.5 20C17.9422 20 17 18.5347 17 17C17 15.4653 17.9422 14 19.5 14C20.0493 14 20.5675 14.1916 21 14.5067V12H17.9239C17.512 12 17.3097 11.668 17.2498 11.4682C17.1886 11.2642 17.1841 10.9263 17.4417 10.6856C17.8003 10.3505 18 9.9208 18 9.5C18 8.71059 17.2267 8 16 8ZM13 9.5C13 7.9422 14.4653 7 16 7C17.5347 7 19 7.9422 19 9.5C19 10.0493 18.8084 10.5675 18.4933 11H21C21.5523 11 22 11.4477 22 12V15.0761C22 15.488 21.668 15.6903 21.4682 15.7502C21.2642 15.8114 20.9263 15.8159 20.6856 15.5583C20.3505 15.1997 19.9208 15 19.5 15C18.7106 15 18 15.7733 18 17C18 18.2267 18.7106 19 19.5 19C19.9208 19 20.3505 18.8003 20.6856 18.4417C20.9263 18.1841 21.2642 18.1886 21.4682 18.2498C21.668 18.3097 22 18.512 22 18.9239V22C22 22.5523 21.5523 23 21 23H11C10.4477 23 10 22.5523 10 22V12C10 11.4477 10.4477 11 11 11H13.5067C13.1916 10.5675 13 10.0493 13 9.5Z" fill="black"/>
</svg>
