<svg width="32" height="32" viewBox="0 0 32 32" fill="none" xmlns="http://www.w3.org/2000/svg">
<path fill-rule="evenodd" clip-rule="evenodd" d="M6.79291 15.5L7.14646 15.1465L15.1465 7.14646L15.5 6.79291L15.8536 7.14646L23.8536 15.1465L24.2071 15.5L23.5 16.2071L23.1465 15.8536L15.5 8.20712L8.20712 15.5L15.5 22.7929L19.1465 19.1465L19.5 18.7929L20.2071 19.5L19.8536 19.8536L15.8536 23.8536L15.5 24.2071L15.1465 23.8536L7.14646 15.8536L6.79291 15.5ZM14.7071 15H17C20.3137 15 23 17.6863 23 21C23 22.6569 22.3284 24.1569 21.2426 25.2427L20.5355 24.5355C21.4404 23.6307 22 22.3807 22 21C22 18.2386 19.7614 16 17 16H14.7071L16.3536 17.6465L15.6464 18.3536L13.1464 15.8536L12.7929 15.5L13.1464 15.1465L15.6464 12.6465L16.3536 13.3536L14.7071 15Z" fill="black"/>
</svg>
