<svg width="32" height="32" viewBox="0 0 32 32" fill="none" xmlns="http://www.w3.org/2000/svg">
<path fill-rule="evenodd" clip-rule="evenodd" d="M20 15C20 17.7614 17.7614 20 15 20C12.2386 20 10 17.7614 10 15C10 12.2386 12.2386 10 15 10C17.7614 10 20 12.2386 20 15ZM18.8744 19.5815C17.8291 20.4664 16.4769 21 15 21C11.6863 21 9 18.3137 9 15C9 11.6863 11.6863 9 15 9C18.3137 9 21 11.6863 21 15C21 16.4769 20.4664 17.8291 19.5815 18.8744L23.8536 23.1464L23.1464 23.8536L18.8744 19.5815Z" fill="black"/>
</svg>
