<svg width="32" height="32" viewBox="0 0 32 32" fill="none" xmlns="http://www.w3.org/2000/svg">
<path fill-rule="evenodd" clip-rule="evenodd" d="M23 16C23 19.866 19.866 23 16 23C12.134 23 9 19.866 9 16C9 12.134 12.134 9 16 9C19.866 9 23 12.134 23 16ZM24 16C24 20.4183 20.4183 24 16 24C11.5817 24 8 20.4183 8 16C8 11.5817 11.5817 8 16 8C20.4183 8 24 11.5817 24 16ZM15.9999 20C14.1361 20 12.57 18.7252 12.126 17H13.1706C13.5825 18.1652 14.6937 19 15.9999 19C17.3062 19 18.4174 18.1652 18.8292 17H19.8739C19.4299 18.7252 17.8638 20 15.9999 20ZM19.5 14.125C19.5 14.6082 19.1082 15 18.625 15C18.1418 15 17.75 14.6082 17.75 14.125C17.75 13.6418 18.1418 13.25 18.625 13.25C19.1082 13.25 19.5 13.6418 19.5 14.125ZM13.125 15C13.6082 15 14 14.6082 14 14.125C14 13.6418 13.6082 13.25 13.125 13.25C12.6418 13.25 12.25 13.6418 12.25 14.125C12.25 14.6082 12.6418 15 13.125 15Z" fill="black"/>
</svg>
