<svg width="32" height="32" viewBox="0 0 32 32" fill="none" xmlns="http://www.w3.org/2000/svg">
<path fill-rule="evenodd" clip-rule="evenodd" d="M18.5001 13.5L16.5271 8.39217L15.9894 7.00012L15.4557 8.3937L13.5001 13.5H8.22664H6.50006L7.90757 14.5L12.3754 17.6742L10.644 22.9635L10.1115 24.5902L11.4941 23.5811L15.9894 20.3L20.4847 23.5811L21.8672 24.5902L21.3348 22.9635L19.6034 17.6742L24.0874 14.5L25.5001 13.5H23.7693H18.5001ZM22.3567 14.5H18.5001H17.8143L17.5672 13.8603L15.9934 9.78575L14.4339 13.8576L14.1879 14.5H13.5001H9.63415L12.9546 16.859L13.5548 17.2855L13.3257 17.9853L12.0265 21.9544L15.3998 19.4923L15.9894 19.0619L16.5789 19.4923L19.9522 21.9544L18.653 17.9853L18.4235 17.2843L19.0256 16.8581L22.3567 14.5Z" fill="black"/>
</svg>
