<svg width="32" height="32" viewBox="0 0 32 32" fill="none" xmlns="http://www.w3.org/2000/svg">
<path fill-rule="evenodd" clip-rule="evenodd" d="M19 8H13V7H19V8ZM23 17C23 20.866 19.866 24 16 24C12.134 24 9 20.866 9 17C9 13.134 12.134 10 16 10C17.7683 10 19.3835 10.6557 20.6157 11.7372L20.7069 11.8284L21.2628 12.3843C22.3443 13.6165 23 15.2317 23 17ZM22.7146 12.6492L22.8282 12.5355L23.5353 11.8284L24.2424 11.1213L23.5353 10.4142L22.8282 9.70711L22.1211 9L21.414 9.70711L20.7069 10.4142L20.6393 10.4818C19.3308 9.54882 17.7295 9 16 9C11.5817 9 8 12.5817 8 17C8 21.4183 11.5817 25 16 25C20.4183 25 24 21.4183 24 17C24 15.3956 23.5277 13.9015 22.7146 12.6492ZM21.9923 11.6996L22.1211 11.8284L22.8282 11.1213L22.1211 10.4142L21.4198 11.1155C21.6203 11.3004 21.8114 11.4953 21.9923 11.6996ZM16.5 17V12H15.5V17C15.5 17.2761 15.7239 17.5 16 17.5C16.2761 17.5 16.5 17.2761 16.5 17Z" fill="black"/>
</svg>
