<svg width="32" height="32" viewBox="0 0 32 32" fill="none" xmlns="http://www.w3.org/2000/svg">
<path fill-rule="evenodd" clip-rule="evenodd" d="M16.0001 19C13.7002 19 11.6779 17.8058 10.5217 16C11.6779 14.1942 13.7002 13 16.0001 13C18.2999 13 20.3222 14.1942 21.4784 16C20.3222 17.8058 18.2999 19 16.0001 19ZM16.0001 12C18.8781 12 21.3775 13.6211 22.635 16C21.3775 18.3789 18.8781 20 16.0001 20C13.122 20 10.6226 18.3789 9.36511 16C10.6226 13.6211 13.122 12 16.0001 12ZM16.0004 18C17.1049 18 18.0004 17.1046 18.0004 16C18.0004 14.8954 17.1049 14 16.0004 14C14.8958 14 14.0004 14.8954 14.0004 16C14.0004 17.1046 14.8958 18 16.0004 18Z" fill="black"/>
</svg>
