<svg width="32" height="32" viewBox="0 0 32 32" fill="none" xmlns="http://www.w3.org/2000/svg">
<path fill-rule="evenodd" clip-rule="evenodd" d="M15.3463 8.16209C15.6331 7.65235 16.367 7.65235 16.6537 8.16209L24.3713 21.8823C24.6525 22.3822 24.2913 23 23.7176 23H8.2824C7.70878 23 7.3475 22.3822 7.62872 21.8823L15.3463 8.16209ZM16 12.3817C16.4971 12.3817 16.9 12.7847 16.9 13.2817V16.3695C16.9 16.8666 16.4971 17.2695 16 17.2695C15.503 17.2695 15.1 16.8666 15.1 16.3695V13.2817C15.1 12.7847 15.503 12.3817 16 12.3817ZM17.1 20C17.1 19.3925 16.6075 18.9 16 18.9C15.3925 18.9 14.9 19.3925 14.9 20V20.0685C14.9 20.6761 15.3925 21.1685 16 21.1685C16.6075 21.1685 17.1 20.6761 17.1 20.0685V20Z" fill="black"/>
</svg>
