<svg width="32" height="32" viewBox="0 0 32 32" fill="none" xmlns="http://www.w3.org/2000/svg">
<path fill-rule="evenodd" clip-rule="evenodd" d="M9 16C9 12.134 12.134 9 16 9C19.866 9 23 12.134 23 16C23 19.866 19.866 23 16 23C12.134 23 9 19.866 9 16ZM8 16C8 11.5817 11.5817 8 16 8C20.4183 8 24 11.5817 24 16C24 20.4183 20.4183 24 16 24C11.5817 24 8 20.4183 8 16ZM16.3535 19.7464L15.9999 20.1L15.6464 19.7464L12.6464 16.7464L13.3535 16.0393L15.4999 18.1858V11.8929H16.4999V18.1858L18.6464 16.0393L19.3535 16.7464L16.3535 19.7464Z" fill="black"/>
</svg>
