<svg width="32" height="32" viewBox="0 0 32 32" fill="none" xmlns="http://www.w3.org/2000/svg">
<path fill-rule="evenodd" clip-rule="evenodd" d="M16 23C12.134 23 9 19.866 9 16C9 12.134 12.134 9 16 9C19.866 9 23 12.134 23 16C23 19.866 19.866 23 16 23ZM16 24C11.5817 24 8 20.4183 8 16C8 11.5817 11.5817 8 16 8C20.4183 8 24 11.5817 24 16C24 20.4183 20.4183 24 16 24ZM19.7464 15.6465L20.1 16.0001L19.7464 16.3536L16.7464 19.3536L16.0393 18.6465L18.1858 16.5001H11.8929V15.5001H18.1858L16.0393 13.3536L16.7464 12.6465L19.7464 15.6465Z" fill="black"/>
</svg>
