<svg width="32" height="32" viewBox="0 0 32 32" fill="none" xmlns="http://www.w3.org/2000/svg">
<path fill-rule="evenodd" clip-rule="evenodd" d="M16 9C19.866 9 23 12.134 23 16C23 19.866 19.866 23 16 23C12.134 23 9 19.866 9 16C9 12.134 12.134 9 16 9ZM16 8C20.4183 8 24 11.5817 24 16C24 20.4183 20.4183 24 16 24C11.5817 24 8 20.4183 8 16C8 11.5817 11.5817 8 16 8ZM12.2536 16.3535L11.9 15.9999L12.2536 15.6464L15.2536 12.6464L15.9607 13.3535L13.8142 15.4999H20.1071V16.4999H13.8142L15.9607 18.6464L15.2536 19.3535L12.2536 16.3535Z" fill="black"/>
</svg>
