<svg width="32" height="32" viewBox="0 0 32 32" fill="none" xmlns="http://www.w3.org/2000/svg">
<path fill-rule="evenodd" clip-rule="evenodd" d="M23 15.9999C23 19.8659 19.866 22.9999 16 22.9999C12.134 22.9999 9 19.8659 9 15.9999C9 12.1339 12.134 8.99988 16 8.99988C19.866 8.99988 23 12.1339 23 15.9999ZM24 15.9999C24 20.4182 20.4183 23.9999 16 23.9999C11.5817 23.9999 8 20.4182 8 15.9999C8 11.5816 11.5817 7.99988 16 7.99988C20.4183 7.99988 24 11.5816 24 15.9999ZM15.9111 18.8653L19.9111 14.3654L19.0889 13.6346L15.4764 17.6985L12.8889 15.1111L12.1111 15.8889L15.1111 18.8888L15.5236 19.3012L15.9111 18.8653Z" fill="black"/>
</svg>
