<svg width="32" height="32" viewBox="0 0 32 32" fill="none" xmlns="http://www.w3.org/2000/svg">
<path fill-rule="evenodd" clip-rule="evenodd" d="M15.5 9H9V8H16H16.5V8.5V13.708C17.383 14.0938 18 14.9748 18 16C18 17.0252 17.383 17.9062 16.5 18.292V23.5V24H16H9V23H15.5V18.5C14.1193 18.5 13 17.3807 13 16C13 14.6193 14.1193 13.5 15.5 13.5V9ZM22.5 16.7071L25.1464 19.3536L25.8536 18.6464L23.2071 16L25.8536 13.3536L25.1464 12.6464L22.5 15.2929L19.8536 12.6464L19.1464 13.3536L21.7929 16L19.1464 18.6464L19.8536 19.3536L22.5 16.7071ZM15.5 17.5C16.3284 17.5 17 16.8284 17 16C17 15.1716 16.3284 14.5 15.5 14.5C14.6716 14.5 14 15.1716 14 16C14 16.8284 14.6716 17.5 15.5 17.5Z" fill="black"/>
</svg>
