<svg width="32" height="32" viewBox="0 0 32 32" fill="none" xmlns="http://www.w3.org/2000/svg">
<path fill-rule="evenodd" clip-rule="evenodd" d="M15.5 9H9V8H16H16.5V8.5V13.708C17.2355 14.0294 17.7865 14.6943 17.95 15.5H23.2929L21.1464 13.3536L21.8536 12.6464L24.8536 15.6464L25.2071 16L24.8536 16.3536L21.8536 19.3536L21.1464 18.6464L23.2929 16.5H17.95C17.7865 17.3057 17.2355 17.9706 16.5 18.292V23.5V24H16H9V23H15.5V18.5C14.1193 18.5 13 17.3807 13 16C13 14.6193 14.1193 13.5 15.5 13.5V9ZM15.5 17.5C16.3284 17.5 17 16.8284 17 16C17 15.1716 16.3284 14.5 15.5 14.5C14.6716 14.5 14 15.1716 14 16C14 16.8284 14.6716 17.5 15.5 17.5Z" fill="black"/>
</svg>
