<svg width="32" height="32" viewBox="0 0 32 32" fill="none" xmlns="http://www.w3.org/2000/svg">
<path fill-rule="evenodd" clip-rule="evenodd" d="M13.0002 9V12H14.0002V9H13.0002ZM22.1033 9.89644C20.9415 8.73468 19.0579 8.73468 17.8961 9.89646L15.1462 12.6464L15.8533 13.3535L18.6032 10.6036C19.3745 9.83232 20.6249 9.83231 21.3962 10.6036C22.1674 11.3748 22.1674 12.6252 21.3962 13.3964L18.6462 16.1464L19.3533 16.8535L22.1033 14.1035C23.265 12.9418 23.265 11.0582 22.1033 9.89644ZM9.89632 22.1035C8.73456 20.9418 8.73456 19.0582 9.89632 17.8964L12.6463 15.1464L13.3534 15.8535L10.6034 18.6035C9.83219 19.3748 9.83219 20.6252 10.6034 21.3964C11.3747 22.1677 12.6251 22.1677 13.3963 21.3964L16.1463 18.6464L16.8534 19.3535L14.1034 22.1035C12.9417 23.2653 11.0581 23.2653 9.89632 22.1035ZM22.9997 19H19.9997V18H22.9997V19ZM19.0003 20V23H18.0003V20H19.0003ZM11.9997 13H8.99969V14H11.9997V13Z" fill="black"/>
</svg>
