<svg width="32" height="32" viewBox="0 0 32 32" fill="none" xmlns="http://www.w3.org/2000/svg">
<path fill-rule="evenodd" clip-rule="evenodd" d="M13.5251 21.6569L16.1768 19.0052L16.8839 19.7123L14.2322 22.364C12.963 23.6332 10.9052 23.6332 9.63603 22.364C8.36683 21.0948 8.36683 19.037 9.63603 17.7678L12.2877 15.1161L12.9948 15.8232L10.3431 18.4749C9.46446 19.3536 9.46446 20.7782 10.3431 21.6569C11.2218 22.5355 12.6464 22.5355 13.5251 21.6569ZM19.7123 16.8839L19.0052 16.1768L21.6568 13.5251C22.5355 12.6465 22.5355 11.2218 21.6568 10.3432C20.7782 9.46448 19.3535 9.46448 18.4749 10.3432L15.8232 12.9948L15.1161 12.2877L17.7678 9.63605C19.037 8.36685 21.0948 8.36684 22.364 9.63605C23.6332 10.9053 23.6332 12.963 22.364 14.2322L19.7123 16.8839ZM14.2617 18.5043L18.5043 14.2617L17.7383 13.4957L13.4957 17.7383L14.2617 18.5043Z" fill="black"/>
</svg>
