<svg width="32" height="32" viewBox="0 0 32 32" fill="none" xmlns="http://www.w3.org/2000/svg">
<path fill-rule="evenodd" clip-rule="evenodd" d="M9 16C9 12.134 12.134 9 16 9C19.866 9 23 12.134 23 16C23 19.866 19.866 23 16 23C12.134 23 9 19.866 9 16ZM16 24C11.5817 24 8 20.4183 8 16C8 11.5817 11.5817 8 16 8C20.4183 8 24 11.5817 24 16C24 20.4183 20.4183 24 16 24ZM15.5 19.5V19V16V15.5H16.5V16V19V19.5H15.5ZM16.75 13.0001C16.75 13.4143 16.4142 13.7501 16 13.7501C15.5858 13.7501 15.25 13.4143 15.25 13.0001V12.9315C15.25 12.5173 15.5858 12.1815 16 12.1815C16.4142 12.1815 16.75 12.5173 16.75 12.9315V13.0001Z" fill="black"/>
</svg>
