<svg width="32" height="32" viewBox="0 0 32 32" fill="none" xmlns="http://www.w3.org/2000/svg">
<path fill-rule="evenodd" clip-rule="evenodd" d="M15.3732 23H16.6311C16.9113 22.6798 17.2468 22.4026 17.6261 22.1813C19.1045 21.319 21.631 21.2723 23.0125 22.2898H23.5H24.5V21.2898V13.0898C24.5 13.0898 23.7031 10.8398 20.08 10.8398C18.2054 10.8398 17.1784 11.4422 16.6237 12.0236C16.2354 12.4307 16.0786 12.8275 16.0246 13H15.9755C15.9214 12.8275 15.7647 12.4307 15.3763 12.0236C14.8217 11.4422 13.7947 10.8398 11.92 10.8398C8.29688 10.8398 7.5 13.0898 7.5 13.0898V21.2798V22.2798H8.5H8.9875C10.3702 21.2614 12.8989 21.31 14.3762 22.1754C14.7568 22.3983 15.0929 22.6775 15.3732 23ZM16.5 13.2888V21.7456C16.6952 21.5885 16.9032 21.4454 17.1222 21.3176C18.0494 20.7767 19.2368 20.5218 20.3634 20.5306C21.3691 20.5385 22.4441 20.758 23.3152 21.2898H23.5V13.3168C23.491 13.3013 23.481 13.2846 23.47 13.2668C23.3839 13.1286 23.2344 12.9281 22.9955 12.7221C22.535 12.3248 21.6653 11.8398 20.08 11.8398C18.4938 11.8398 17.7397 12.3235 17.3855 12.6748C17.1974 12.8615 17.0904 13.0419 17.0325 13.1647C17.0035 13.2262 16.9872 13.2725 16.9797 13.2963C16.9759 13.3081 16.9744 13.3141 16.9746 13.3132L16.9762 13.3066L16.9778 13.2992L16.9789 13.2944L16.9794 13.2917L16.9797 13.2903C16.9797 13.2902 16.9798 13.29 16.9745 13.2888H16.5ZM15.5 13.2888H15.0255C15.0202 13.29 15.0203 13.2902 15.0203 13.2903L15.0206 13.2917L15.0211 13.2944L15.0222 13.2992L15.0238 13.3066L15.0254 13.3132C15.0256 13.3141 15.0241 13.3081 15.0203 13.2963C15.0128 13.2725 14.9965 13.2262 14.9675 13.1647C14.9096 13.0419 14.8026 12.8615 14.6145 12.6748C14.2603 12.3235 13.5062 11.8398 11.92 11.8398C10.3347 11.8398 9.46506 12.3248 9.00449 12.7221C8.76559 12.9281 8.61608 13.1286 8.53006 13.2668C8.51898 13.2846 8.50898 13.3013 8.5 13.3168V21.2798H8.68483C9.55673 20.7475 10.6328 20.5283 11.6393 20.5212C12.7667 20.5133 13.9547 20.7696 14.8817 21.3126C15.0993 21.4401 15.306 21.5828 15.5 21.7392V13.2888Z" fill="black"/>
</svg>
