<svg width="32" height="32" viewBox="0 0 32 32" fill="none" xmlns="http://www.w3.org/2000/svg">
<path fill-rule="evenodd" clip-rule="evenodd" d="M9.5 12H12L12 17H9.5C8.11929 17 7 15.8807 7 14.5C7 13.1192 8.11929 12 9.5 12ZM13 17L13 11.9963C15.2393 11.9428 17.4287 11.3115 19.3548 10.1613L20 9.77606V18.5332L18.5314 17.9416C16.9874 17.3196 15.3383 17 13.6738 17H13ZM12.6897 11H9.5C7.567 11 6 12.567 6 14.5C6 16.375 7.47447 17.9057 9.32719 17.9958L9.33333 18.0142L10.5442 21.6467C10.8164 22.4633 11.5807 23.0142 12.4415 23.0142H13.6126C14.2951 23.0142 14.7771 22.3455 14.5613 21.698L13.3286 18H13.6738C15.2103 18 16.7325 18.295 18.1577 18.8692L20.3132 19.7375C20.6418 19.8699 21 19.628 21 19.2737V8.89512C21 8.50694 20.5769 8.26681 20.2437 8.46583L18.8421 9.30277C16.9821 10.4135 14.8561 11 12.6897 11ZM11.4928 21.3304L10.3874 18.0142H12.2792L13.6126 22.0142H12.4415C12.0111 22.0142 11.6289 21.7388 11.4928 21.3304ZM23 12.5C23.8284 12.5 24.5 13.1716 24.5 14C24.5 14.8284 23.8284 15.5 23 15.5V16.5C24.3807 16.5 25.5 15.3807 25.5 14C25.5 12.6193 24.3807 11.5 23 11.5V12.5Z" fill="black"/>
</svg>
