<svg width="32" height="32" viewBox="0 0 32 32" fill="none" xmlns="http://www.w3.org/2000/svg">
<path fill-rule="evenodd" clip-rule="evenodd" d="M8.64642 9.35353L12.2929 13H9.99998V14H13.5H14V13.5V9.99998H13V12.2929L9.35353 8.64642L8.64642 9.35353ZM19.7071 13L23.3535 9.35353L22.6464 8.64642L19 12.2929V9.99998H18V13.5V14H18.5H22V13H19.7071ZM19.7071 19L23.3535 22.6464L22.6464 23.3535L19 19.7071V22H18V18.5V18H18.5H22V19H19.7071ZM12.2929 19L8.64642 22.6464L9.35353 23.3535L13 19.7071V22H14V18.5V18H13.5H9.99998V19H12.2929Z" fill="black"/>
</svg>
