<svg width="32" height="32" viewBox="0 0 32 32" fill="none" xmlns="http://www.w3.org/2000/svg">
<path fill-rule="evenodd" clip-rule="evenodd" d="M11.5 13C11.5 13.8284 12.1716 14.5 13 14.5C13.8284 14.5 14.5 13.8284 14.5 13C14.5 12.1716 13.8284 11.5 13 11.5C12.1716 11.5 11.5 12.1716 11.5 13ZM17.5 13C17.5 13.8284 18.1716 14.5 19 14.5C19.8284 14.5 20.5 13.8284 20.5 13C20.5 12.1716 19.8284 11.5 19 11.5C18.1716 11.5 17.5 12.1716 17.5 13ZM19 20.5C18.1716 20.5 17.5 19.8284 17.5 19C17.5 18.1716 18.1716 17.5 19 17.5C19.8284 17.5 20.5 18.1716 20.5 19C20.5 19.8284 19.8284 20.5 19 20.5ZM11.5 19C11.5 19.8284 12.1716 20.5 13 20.5C13.8284 20.5 14.5 19.8284 14.5 19C14.5 18.1716 13.8284 17.5 13 17.5C12.1716 17.5 11.5 18.1716 11.5 19Z" fill="black"/>
</svg>
