<svg width="32" height="32" viewBox="0 0 32 32" fill="none" xmlns="http://www.w3.org/2000/svg">
<path fill-rule="evenodd" clip-rule="evenodd" d="M23 13.1877L21.8253 14.656C21.8172 14.6039 21.8084 14.5519 21.7988 14.5C21.6473 13.6806 21.3107 12.9019 20.8094 12.2254C20.1073 11.278 19.1193 10.5813 17.9911 10.2381C16.863 9.89489 15.6544 9.92337 14.5436 10.3193C13.7505 10.6021 13.0373 11.0614 12.4552 11.6576C12.222 11.8964 12.0099 12.1571 11.8222 12.4372L11.8223 12.4373L12.6528 12.9941L12.6529 12.9942C13.1902 12.1928 13.9707 11.5854 14.8795 11.2614C15.7882 10.9375 16.777 10.9142 17.7 11.195C18.6231 11.4757 19.4314 12.0457 20.0058 12.8209C20.4905 13.475 20.787 14.246 20.8678 15.0506L18.6678 13.584L18.1131 14.416L21.1131 16.416L21.4945 16.6703L21.7809 16.3123L23.7809 13.8123L23 13.1877ZM11 14.6877L9 17.1877L9.78087 17.8123L10.9556 16.344C10.9637 16.3961 10.9725 16.4481 10.9821 16.5C11.1336 17.3194 11.4702 18.0981 11.9715 18.7746C12.6736 19.722 13.6616 20.4187 14.7897 20.7619C15.9179 21.1051 17.1265 21.0766 18.2372 20.6807C19.0303 20.3979 19.7436 19.9386 20.3257 19.3424C20.5583 19.1041 20.7701 18.844 20.9575 18.5646L20.9587 18.5628L20.9586 18.5627L20.1281 18.0059L20.128 18.0058L20.1269 18.0074C19.5897 18.808 18.8095 19.4148 17.9014 19.7386C16.9926 20.0625 16.0038 20.0858 15.0808 19.805C14.1578 19.5243 13.3495 18.9543 12.7751 18.1791C12.2903 17.525 11.9938 16.754 11.9131 15.9494L14.1131 17.416L14.6678 16.584L11.6678 14.584L11.2864 14.3297L11 14.6877Z" fill="black"/>
</svg>
