<svg width="32" height="32" viewBox="0 0 32 32" fill="none" xmlns="http://www.w3.org/2000/svg">
<path fill-rule="evenodd" clip-rule="evenodd" d="M11.5858 16L10.5 14.9142L9.41421 16L10.5 17.0858L11.5858 16ZM11.2071 14.2071L10.5 13.5L9.79289 14.2071L8.70711 15.2929L8 16L8.70711 16.7071L9.79289 17.7929L10.5 18.5L11.2071 17.7929L12.2929 16.7071L12.5 16.5H14.5854C14.7913 17.0826 15.3469 17.5 16 17.5C16.6531 17.5 17.2087 17.0826 17.4146 16.5H19.5L19.7071 16.7071L20.7929 17.7929L21.5 18.5L22.2071 17.7929L23.2929 16.7071L24 16L23.2929 15.2929L22.2071 14.2071L21.5 13.5L20.7929 14.2071L19.7071 15.2929L19.5 15.5H17.4146C17.2087 14.9174 16.6531 14.5 16 14.5C15.3469 14.5 14.7913 14.9174 14.5854 15.5H12.5L12.2929 15.2929L11.2071 14.2071ZM22.5858 16L21.5 14.9142L20.4142 16L21.5 17.0858L22.5858 16Z" fill="black"/>
</svg>
