<svg width="32" height="32" viewBox="0 0 32 32" fill="none" xmlns="http://www.w3.org/2000/svg">
<path fill-rule="evenodd" clip-rule="evenodd" d="M21.5085 15.8012C22.0639 15.2736 22.5436 14.6672 22.9295 14H21.7453C20.4798 15.8142 18.378 17 15.9999 17C13.6217 17 11.5199 15.8142 10.2545 14H9.07022C9.45619 14.6673 9.93589 15.2737 10.4913 15.8013L8.89648 17.3962L9.6036 18.1033L11.2609 16.4459C11.9717 16.9693 12.7721 17.378 13.6351 17.6447L13.018 19.866L13.9816 20.1336L14.6078 17.8793C15.0598 17.9586 15.525 18 15.9999 18C16.4747 18 16.9398 17.9586 17.3919 17.8793L18.018 20.1336L18.9816 19.866L18.3646 17.6447C19.2276 17.3781 20.0281 16.9693 20.7389 16.4458L22.3965 18.1033L23.1036 17.3962L21.5085 15.8012Z" fill="black"/>
</svg>
