<svg width="32" height="32" viewBox="0 0 32 32" fill="none" xmlns="http://www.w3.org/2000/svg">
<path fill-rule="evenodd" clip-rule="evenodd" d="M23.2901 22L16 9.03973L8.70983 22L23.2901 22ZM16.8716 8.54947C16.4893 7.86982 15.5107 7.86982 15.1284 8.54947L7.83825 21.5097C7.46329 22.1763 7.945 23 8.70983 23H23.2901C24.055 23 24.5367 22.1763 24.1617 21.5097L16.8716 8.54947ZM15.9999 12.9733C16.4141 12.9733 16.7499 13.3091 16.7499 13.7233V16.2527C16.7499 16.6669 16.4141 17.0027 15.9999 17.0027C15.5857 17.0027 15.2499 16.6669 15.2499 16.2527V13.7233C15.2499 13.3091 15.5857 12.9733 15.9999 12.9733ZM16.9999 19.5002C16.9999 18.9479 16.5522 18.5002 15.9999 18.5002C15.4476 18.5002 14.9999 18.9479 14.9999 19.5002V19.5687C14.9999 20.121 15.4476 20.5687 15.9999 20.5687C16.5522 20.5687 16.9999 20.121 16.9999 19.5687V19.5002Z" fill="black"/>
</svg>
