<svg width="16" height="16" viewBox="0 0 16 16" fill="none" xmlns="http://www.w3.org/2000/svg">
<path fill-rule="evenodd" clip-rule="evenodd" d="M5 3.5C5 3.22386 5.22386 3 5.5 3C5.77614 3 6 3.22386 6 3.5V8.08535C6.5826 8.29127 7 8.84689 7 9.5C7 10.1531 6.5826 10.7087 6 10.9146V12.5C6 12.7761 5.77614 13 5.5 13C5.22386 13 5 12.7761 5 12.5V10.9146C4.4174 10.7087 4 10.1531 4 9.5C4 8.84689 4.4174 8.29127 5 8.08535V3.5ZM5 9.5C5 9.22386 5.22386 9 5.5 9C5.77614 9 6 9.22386 6 9.5C6 9.77614 5.77614 10 5.5 10C5.22386 10 5 9.77614 5 9.5ZM10 12.5C10 12.7761 10.2239 13 10.5 13C10.7761 13 11 12.7761 11 12.5V7.91465C11.5826 7.70873 12 7.15311 12 6.5C12 5.84689 11.5826 5.29127 11 5.08535V3.5C11 3.22386 10.7761 3 10.5 3C10.2239 3 10 3.22386 10 3.5V5.08535C9.4174 5.29127 9 5.84689 9 6.5C9 7.15311 9.4174 7.70873 10 7.91465V12.5ZM10 6.5C10 6.77614 10.2239 7 10.5 7C10.7761 7 11 6.77614 11 6.5C11 6.22386 10.7761 6 10.5 6C10.2239 6 10 6.22386 10 6.5Z" fill="currentColor" />
</svg>
