<svg width="16" height="16" viewBox="0 0 16 16" fill="none" xmlns="http://www.w3.org/2000/svg">
<path fill-rule="evenodd" clip-rule="evenodd" d="M4.25795 1.97019L4.00049 3.00005L2.97063 3.25751C2.71814 3.32063 2.71814 3.67946 2.97063 3.74258L4.00049 4.00005L4.25795 5.0299C4.32107 5.28239 4.6799 5.28239 4.74302 5.02991L5.00049 4.00005L6.03035 3.74258C6.28283 3.67946 6.28284 3.32063 6.03035 3.25751L5.00049 3.00005L4.74302 1.97019C4.6799 1.7177 4.32107 1.7177 4.25795 1.97019ZM7.50061 3.00028C7.22447 3.00028 7.00061 3.22413 7.00061 3.50028C7.00061 3.77642 7.22447 4.00028 7.50061 4.00028H12.5006C12.7768 4.00028 13.0006 3.77642 13.0006 3.50028C13.0006 3.22413 12.7768 3.00028 12.5006 3.00028H7.50061ZM7.50061 7.00028C7.22447 7.00028 7.00061 7.22413 7.00061 7.50028C7.00061 7.77642 7.22447 8.00028 7.50061 8.00028H12.5006C12.7768 8.00028 13.0006 7.77642 13.0006 7.50028C13.0006 7.22413 12.7768 7.00028 12.5006 7.00028H7.50061ZM7.50061 11.0003C7.22447 11.0003 7.00061 11.2241 7.00061 11.5003C7.00061 11.7764 7.22447 12.0003 7.50061 12.0003H12.5006C12.7768 12.0003 13.0006 11.7764 13.0006 11.5003C13.0006 11.2241 12.7768 11.0003 12.5006 11.0003H7.50061ZM4.25794 5.97017L4.00047 7.00003L2.97062 7.2575C2.71813 7.32062 2.71813 7.67945 2.97062 7.74257L4.00047 8.00003L4.25794 9.02989C4.32106 9.28238 4.67989 9.28238 4.74301 9.02989L5.00047 8.00003L6.03033 7.74257C6.28282 7.67945 6.28282 7.32062 6.03033 7.2575L5.00047 7.00003L4.74301 5.97017C4.67989 5.71769 4.32106 5.71769 4.25794 5.97017ZM4.00049 11.0001L4.25795 9.9702C4.32107 9.71772 4.6799 9.71772 4.74302 9.9702L5.00049 11.0001L6.03035 11.2575C6.28284 11.3206 6.28283 11.6795 6.03035 11.7426L5.00049 12.0001L4.74302 13.0299C4.6799 13.2824 4.32107 13.2824 4.25795 13.0299L4.00049 12.0001L2.97063 11.7426C2.71814 11.6795 2.71814 11.3206 2.97063 11.2575L4.00049 11.0001Z" fill="currentColor" />
</svg>
