<svg width="16" height="16" viewBox="0 0 16 16" fill="none" xmlns="http://www.w3.org/2000/svg">
<path fill-rule="evenodd" clip-rule="evenodd" d="M4 4H6V6H4V4ZM3 4C3 3.44772 3.44772 3 4 3H6C6.55228 3 7 3.44772 7 4V6C7 6.55228 6.55228 7 6 7H4C3.44772 7 3 6.55228 3 6V4ZM10.5149 8.94029L10.2 10.2L8.94029 10.5149C8.43531 10.6412 8.43531 11.3588 8.94029 11.4851L10.2 11.8L10.5149 13.0597C10.6412 13.5647 11.3588 13.5647 11.4851 13.0597L11.8 11.8L13.0597 11.4851C13.5647 11.3588 13.5647 10.6412 13.0597 10.5149L11.8 10.2L11.4851 8.94029C11.3588 8.43531 10.6412 8.43531 10.5149 8.94029ZM6 10H4V12H6V10ZM4 9C3.44772 9 3 9.44772 3 10V12C3 12.5523 3.44772 13 4 13H6C6.55228 13 7 12.5523 7 12V10C7 9.44772 6.55228 9 6 9H4ZM10 4H12V6H10V4ZM9 4C9 3.44772 9.44772 3 10 3H12C12.5523 3 13 3.44772 13 4V6C13 6.55228 12.5523 7 12 7H10C9.44772 7 9 6.55228 9 6V4Z" fill="currentColor" />
</svg>
