<svg width="16" height="16" viewBox="0 0 16 16" fill="none" xmlns="http://www.w3.org/2000/svg">
<path fill-rule="evenodd" clip-rule="evenodd" d="M2.9995 2.99992L3.25696 1.97007C3.32008 1.71758 3.67891 1.71758 3.74203 1.97007L3.9995 2.99992L5.02936 3.25739C5.28184 3.32051 5.28184 3.67934 5.02936 3.74246L3.9995 3.99992L3.74203 5.02978C3.67891 5.28227 3.32008 5.28227 3.25696 5.02978L2.9995 3.99992L1.96964 3.74246C1.71715 3.67934 1.71715 3.32051 1.96964 3.25739L2.9995 2.99992ZM5.06107 7.48456L6.99952 6.99995L7.48413 5.0615L7.54235 4.82864L7.64768 4.4073L7.68908 4.24173C7.76987 3.91855 8.22917 3.91855 8.30997 4.24173L8.35136 4.4073L8.4567 4.82864L8.51491 5.0615L8.99952 6.99995L10.938 7.48456L11.1708 7.54278L11.5922 7.64811L11.7577 7.6895C12.0809 7.7703 12.0809 8.2296 11.7577 8.3104L11.5922 8.35179L11.1708 8.45712L10.938 8.51534L8.99952 8.99995L8.51491 10.9384L8.45669 11.1713L8.35136 11.5926L8.30997 11.7582C8.22917 12.0814 7.76987 12.0814 7.68908 11.7582L7.64768 11.5926L7.54235 11.1713L7.48413 10.9384L6.99952 8.99995L5.06107 8.51534L4.82821 8.45712L4.40688 8.35179L4.2413 8.31039C3.91812 8.2296 3.91812 7.7703 4.2413 7.6895L4.40688 7.64811L4.82821 7.54278L5.06107 7.48456ZM6.1749 9.82457L3.99877 9.28054C2.66562 8.94725 2.66564 7.05264 3.99877 6.71936L6.1749 6.17533L6.71893 3.9992C7.05222 2.66606 8.94683 2.66606 9.28011 3.9992L9.82414 6.17533L12.0003 6.71936C13.3334 7.05265 13.3334 8.94725 12.0003 9.28054L9.82414 9.82457L9.28011 12.0007C8.94682 13.3338 7.05222 13.3338 6.71893 12.0007L6.1749 9.82457ZM12.257 10.9701L11.9995 11.9999L10.9697 12.2574C10.7172 12.3205 10.7172 12.6794 10.9697 12.7425L11.9995 12.9999L12.257 14.0298C12.3201 14.2823 12.6789 14.2823 12.7421 14.0298L12.9995 12.9999L14.0294 12.7425C14.2819 12.6794 14.2819 12.3205 14.0294 12.2574L12.9995 11.9999L12.7421 10.9701C12.6789 10.7176 12.3201 10.7176 12.257 10.9701Z" fill="currentColor" />
</svg>
