<svg width="16" height="16" viewBox="0 0 16 16" fill="none" xmlns="http://www.w3.org/2000/svg">
<path fill-rule="evenodd" clip-rule="evenodd" d="M2.4855 5.14245C2.1843 5.32318 2 5.64868 2 5.99995C2 6.35121 2.1843 6.67672 2.4855 6.85744L4.38968 7.99995L2.4855 9.14245C2.1843 9.32318 2 9.64868 2 9.99995C2 10.3512 2.1843 10.6767 2.4855 10.8574L6.97101 13.5487C7.60437 13.9288 8.39563 13.9288 9.02899 13.5487L13.5145 10.8574C13.8157 10.6767 14 10.3512 14 9.99995C14 9.64868 13.8157 9.32318 13.5145 9.14245L11.6103 7.99995L13.5145 6.85744C13.8157 6.67672 14 6.35121 14 5.99995C14 5.64868 13.8157 5.32318 13.5145 5.14245L9.02899 2.45115C8.39563 2.07113 7.60437 2.07113 6.97101 2.45115L2.4855 5.14245ZM9.66667 7.99995L10.6385 7.41685L12.0282 6.58304L13 5.99995L12.0282 5.41685L8.5145 3.30864C8.19781 3.11864 7.80219 3.11864 7.4855 3.30864L3.97183 5.41685L3 5.99995L3.97183 6.58304L5.36151 7.41685L6.33333 7.99995L7.4855 8.69125C7.80219 8.88126 8.19781 8.88126 8.5145 8.69125L9.66667 7.99995ZM5.36151 8.58304L6.97101 9.54874C7.60437 9.92876 8.39563 9.92876 9.02899 9.54874L10.6385 8.58304L12.0282 9.41685L13 9.99995L12.0282 10.583L8.5145 12.6912C8.19781 12.8813 7.80219 12.8813 7.4855 12.6912L3.97183 10.583L3 9.99995L3.97183 9.41685L5.36151 8.58304Z" fill="currentColor" />
</svg>
