<svg width="16" height="16" viewBox="0 0 16 16" fill="none" xmlns="http://www.w3.org/2000/svg">
<path fill-rule="evenodd" clip-rule="evenodd" d="M4.5 4H11.5C11.7761 4 12 4.22386 12 4.5V11.5C12 11.7761 11.7761 12 11.5 12H4.5C4.22386 12 4 11.7761 4 11.5V4.5C4 4.22386 4.22386 4 4.5 4ZM3 4.5C3 3.67157 3.67157 3 4.5 3H11.5C12.3284 3 13 3.67157 13 4.5V11.5C13 12.3284 12.3284 13 11.5 13H4.5C3.67157 13 3 12.3284 3 11.5V4.5ZM10.0145 8.85749C10.3157 8.67677 10.5 8.35126 10.5 8C10.5 7.64874 10.3157 7.32323 10.0145 7.14251L7.5145 5.64251C7.20557 5.45715 6.82081 5.45229 6.5073 5.6298C6.19379 5.80731 6 6.13973 6 6.5L6 9.5C6 9.86027 6.19379 10.1927 6.5073 10.3702C6.82081 10.5477 7.20556 10.5429 7.5145 10.3575L10.0145 8.85749ZM9.5 8L8.52817 8.58309L8 8.9L7 9.5V8.33381V7.66619V6.5L8 7.1L8.52817 7.4169L9.5 8Z" fill="currentColor" />
</svg>
