<svg width="16" height="16" viewBox="0 0 16 16" fill="none" xmlns="http://www.w3.org/2000/svg">
<path fill-rule="evenodd" clip-rule="evenodd" d="M13 8C13 10.7614 10.7614 13 8 13C5.23857 13 3 10.7614 3 8C3 5.23857 5.23857 3 8 3C10.7614 3 13 5.23857 13 8ZM14 8C14 11.3137 11.3137 14 8 14C4.68629 14 2 11.3137 2 8C2 4.68629 4.68629 2 8 2C11.3137 2 14 4.68629 14 8ZM10.4472 6.2236C10.5707 5.97662 10.4706 5.67628 10.2236 5.55278C9.97662 5.42929 9.67628 5.5294 9.55278 5.7764L7.86302 9.15591L6.35355 7.64645C6.15829 7.45119 5.84171 7.45119 5.64645 7.64645C5.45119 7.84171 5.45119 8.15829 5.64645 8.35355L7.64645 10.3535C7.7601 10.4672 7.92145 10.5193 8.08009 10.4935C8.23874 10.4678 8.37534 10.3674 8.44722 10.2236L10.4472 6.2236Z" fill="currentColor" />
</svg>
