<svg width="16" height="16" viewBox="0 0 16 16" fill="none" xmlns="http://www.w3.org/2000/svg">
<path fill-rule="evenodd" clip-rule="evenodd" d="M10 3C10.5523 3 11 3.44772 11 4C11 4.55228 10.5523 5 10 5L6 5C5.44772 5 5 4.55228 5 4C5 3.44772 5.44772 3 6 3H10ZM12 7C12.5523 7 13 7.44772 13 8C13 8.55228 12.5523 9 12 9L4 9C3.44772 9 3 8.55228 3 8C3 7.44771 3.44772 7 4 7L12 7ZM10 12C10 11.4477 9.55228 11 9 11H7C6.44772 11 6 11.4477 6 12C6 12.5523 6.44772 13 7 13H9C9.55228 13 10 12.5523 10 12Z" fill="currentColor" />
</svg>
