<svg width="16" height="16" viewBox="0 0 16 16" fill="none" xmlns="http://www.w3.org/2000/svg">
<path fill-rule="evenodd" clip-rule="evenodd" d="M4 4L4 6L12 6L12 4L4 4ZM4 3C3.44772 3 3 3.44772 3 4L3 6C3 6.55228 3.44772 7 4 7L12 7C12.5523 7 13 6.55229 13 6L13 4C13 3.44772 12.5523 3 12 3L4 3ZM4 10L4 12L8 12L8 10L4 10ZM4 9C3.44772 9 3 9.44772 3 10L3 12C3 12.5523 3.44771 13 4 13L8 13C8.55228 13 9 12.5523 9 12L9 10C9 9.44772 8.55228 9 8 9L4 9Z" fill="currentColor" />
<path fill-rule="evenodd" clip-rule="evenodd" d="M4 4L4 6L12 6L12 4L4 4ZM4 3C3.44772 3 3 3.44772 3 4L3 6C3 6.55228 3.44772 7 4 7L12 7C12.5523 7 13 6.55229 13 6L13 4C13 3.44772 12.5523 3 12 3L4 3ZM4 10L4 12L8 12L8 10L4 10ZM4 9C3.44772 9 3 9.44772 3 10L3 12C3 12.5523 3.44771 13 4 13L8 13C8.55228 13 9 12.5523 9 12L9 10C9 9.44772 8.55228 9 8 9L4 9Z" fill="currentColor" />
</svg>
