<svg width="16" height="16" viewBox="0 0 16 16" fill="none" xmlns="http://www.w3.org/2000/svg">
<path fill-rule="evenodd" clip-rule="evenodd" d="M1 0C0.447715 0 0 0.447715 0 1V3.5C0 3.77614 0.223858 4 0.5 4C0.776142 4 1 3.77614 1 3.5V1H3.5C3.77614 1 4 0.776142 4 0.5C4 0.223858 3.77614 0 3.5 0H1ZM15 0C15.5523 0 16 0.447715 16 1V3.5C16 3.77614 15.7761 4 15.5 4C15.2239 4 15 3.77614 15 3.5V1H12.5C12.2239 1 12 0.776142 12 0.5C12 0.223858 12.2239 0 12.5 0H15ZM0 15C0 15.5523 0.447715 16 1 16H3.5C3.77614 16 4 15.7761 4 15.5C4 15.2239 3.77614 15 3.5 15H1V12.5C1 12.2239 0.776142 12 0.5 12C0.223858 12 0 12.2239 0 12.5V15ZM15 16C15.5523 16 16 15.5523 16 15V12.5C16 12.2239 15.7761 12 15.5 12C15.2239 12 15 12.2239 15 12.5V15H12.5C12.2239 15 12 15.2239 12 15.5C12 15.7761 12.2239 16 12.5 16H15Z" fill="currentColor" />
</svg>
