<svg width="16" height="16" viewBox="0 0 16 16" fill="none" xmlns="http://www.w3.org/2000/svg">
<path fill-rule="evenodd" clip-rule="evenodd" d="M7 4C7 3.44772 7.44772 3 8 3C8.55228 3 9 3.44772 9 4V12C9 12.5523 8.55228 13 8 13C7.44772 13 7 12.5523 7 12V4ZM3 6C3 5.44772 3.44772 5 4 5C4.55228 5 5 5.44772 5 6V10C5 10.5523 4.55228 11 4 11C3.44772 11 3 10.5523 3 10V6ZM12 6C11.4477 6 11 6.44772 11 7V9C11 9.55228 11.4477 10 12 10C12.5523 10 13 9.55228 13 9V7C13 6.44772 12.5523 6 12 6Z" fill="currentColor" />
</svg>
