<svg width="16" height="16" viewBox="0 0 16 16" fill="none" xmlns="http://www.w3.org/2000/svg">
<path fill-rule="evenodd" clip-rule="evenodd" d="M6 4H4V6H6V4ZM4 3C3.44771 3 3 3.44771 3 4V6C3 6.55229 3.44771 7 4 7H6C6.55229 7 7 6.55229 7 6V4C7 3.44771 6.55229 3 6 3H4ZM12 4H10V6H12V4ZM10 3C9.44771 3 9 3.44771 9 4V6C9 6.55229 9.44771 7 10 7H12C12.5523 7 13 6.55229 13 6V4C13 3.44771 12.5523 3 12 3H10ZM4 10H6V12H4V10ZM3 10C3 9.44771 3.44771 9 4 9H6C6.55229 9 7 9.44771 7 10V12C7 12.5523 6.55229 13 6 13H4C3.44771 13 3 12.5523 3 12V10Z" fill="currentColor" />
</svg>
