<svg width="16" height="16" viewBox="0 0 16 16" fill="none" xmlns="http://www.w3.org/2000/svg">
<path fill-rule="evenodd" clip-rule="evenodd" d="M4 7C3.44772 7 3 7.44772 3 8C3 8.55228 3.44772 9 4 9L12 9C12.5523 9 13 8.55229 13 8C13 7.44772 12.5523 7 12 7L4 7ZM7 3C6.44772 3 6 3.44772 6 4C6 4.55228 6.44772 5 7 5L12 5C12.5523 5 13 4.55229 13 4C13 3.44772 12.5523 3 12 3L7 3ZM8 12C8 11.4477 8.44771 11 9 11L12 11C12.5523 11 13 11.4477 13 12C13 12.5523 12.5523 13 12 13L9 13C8.44771 13 8 12.5523 8 12Z" fill="currentColor" />
</svg>
