<svg width="16" height="16" viewBox="0 0 16 16" fill="none" xmlns="http://www.w3.org/2000/svg">
<path fill-rule="evenodd" clip-rule="evenodd" d="M4 3C3.44772 3 3 3.44772 3 4V6C3 6.55228 3.44772 7 4 7C4.55228 7 5 6.55228 5 6V4C5 3.44772 4.55228 3 4 3ZM7 4C7 3.44772 7.44772 3 8 3C8.55228 3 9 3.44772 9 4V6C9 6.55228 8.55228 7 8 7C7.44772 7 7 6.55228 7 6V4ZM11 4C11 3.44772 11.4477 3 12 3C12.5523 3 13 3.44772 13 4V6C13 6.55228 12.5523 7 12 7C11.4477 7 11 6.55228 11 6V4ZM3 10C3 9.44772 3.44772 9 4 9C4.55228 9 5 9.44772 5 10V12C5 12.5523 4.55228 13 4 13C3.44772 13 3 12.5523 3 12V10ZM8 9C7.44772 9 7 9.44772 7 10V12C7 12.5523 7.44772 13 8 13C8.55228 13 9 12.5523 9 12V10C9 9.44772 8.55228 9 8 9Z" fill="currentColor" />
</svg>
