<svg width="16" height="16" viewBox="0 0 16 16" fill="none" xmlns="http://www.w3.org/2000/svg">
<path fill-rule="evenodd" clip-rule="evenodd" d="M6 4H4V6H6V4ZM4 3C3.44771 3 3 3.44771 3 4V6C3 6.55229 3.44771 7 4 7H6C6.55229 7 7 6.55229 7 6V4C7 3.44771 6.55229 3 6 3H4ZM12 4H10V6H12V4ZM10 3C9.44771 3 9 3.44771 9 4V6C9 6.55229 9.44771 7 10 7H12C12.5523 7 13 6.55229 13 6V4C13 3.44771 12.5523 3 12 3H10ZM7 10H9V12H7V10ZM6 10C6 9.44771 6.44771 9 7 9H9C9.55229 9 10 9.44771 10 10V12C10 12.5523 9.55229 13 9 13H7C6.44771 13 6 12.5523 6 12V10Z" fill="currentColor" />
</svg>
