<svg width="16" height="16" viewBox="0 0 16 16" fill="none" xmlns="http://www.w3.org/2000/svg">
<path fill-rule="evenodd" clip-rule="evenodd" d="M4 3C3.44772 3 3 3.44772 3 4V6C3 6.55228 3.44772 7 4 7C4.55228 7 5 6.55228 5 6V4C5 3.44772 4.55228 3 4 3ZM7 4C7 3.44772 7.44772 3 8 3C8.55228 3 9 3.44772 9 4V6C9 6.55228 8.55228 7 8 7C7.44772 7 7 6.55228 7 6V4ZM11 4C11 3.44772 11.4477 3 12 3C12.5523 3 13 3.44772 13 4V6C13 6.55228 12.5523 7 12 7C11.4477 7 11 6.55228 11 6V4ZM5 10C5 9.44772 5.44772 9 6 9C6.55228 9 7 9.44772 7 10V12C7 12.5523 6.55228 13 6 13C5.44772 13 5 12.5523 5 12V10ZM10 9C9.44772 9 9 9.44772 9 10V12C9 12.5523 9.44772 13 10 13C10.5523 13 11 12.5523 11 12V10C11 9.44772 10.5523 9 10 9Z" fill="currentColor" />
</svg>
