<svg width="16" height="16" viewBox="0 0 16 16" fill="none" xmlns="http://www.w3.org/2000/svg">
<path fill-rule="evenodd" clip-rule="evenodd" d="M10 4H12V6H10V4ZM12 3C12.5523 3 13 3.44771 13 4V6C13 6.55229 12.5523 7 12 7H10C9.44771 7 9 6.55229 9 6V4C9 3.44771 9.44771 3 10 3H12ZM4 4H6V6H4V4ZM6 3C6.55229 3 7 3.44771 7 4V6C7 6.55229 6.55229 7 6 7H4C3.44771 7 3 6.55229 3 6V4C3 3.44771 3.44771 3 4 3H6ZM12 10H10V12H12V10ZM13 10C13 9.44771 12.5523 9 12 9H10C9.44771 9 9 9.44771 9 10V12C9 12.5523 9.44771 13 10 13H12C12.5523 13 13 12.5523 13 12V10Z" fill="currentColor" />
</svg>
