<svg width="16" height="16" viewBox="0 0 16 16" fill="none" xmlns="http://www.w3.org/2000/svg">
<path fill-rule="evenodd" clip-rule="evenodd" d="M4 3C3.44772 3 3 3.44772 3 4C3 4.55228 3.44772 5 4 5L9 5C9.55228 5 10 4.55229 10 4C10 3.44772 9.55228 3 9 3L4 3ZM4 7C3.44772 7 3 7.44772 3 8C3 8.55228 3.44772 9 4 9L12 9C12.5523 9 13 8.55229 13 8C13 7.44772 12.5523 7 12 7L4 7ZM3 12C3 11.4477 3.44771 11 4 11L7 11C7.55228 11 8 11.4477 8 12C8 12.5523 7.55228 13 7 13L4 13C3.44771 13 3 12.5523 3 12Z" fill="currentColor" />
</svg>
