<svg width="16" height="16" viewBox="0 0 16 16" fill="none" xmlns="http://www.w3.org/2000/svg">
<path fill-rule="evenodd" clip-rule="evenodd" d="M3 4C3 3.44772 3.44772 3 4 3C4.55228 3 5 3.44772 5 4V9C5 9.55228 4.55228 10 4 10C3.44772 10 3 9.55228 3 9V4ZM7 4C7 3.44772 7.44772 3 8 3C8.55228 3 9 3.44772 9 4V12C9 12.5523 8.55228 13 8 13C7.44772 13 7 12.5523 7 12V4ZM12 3C11.4477 3 11 3.44772 11 4V7C11 7.55228 11.4477 8 12 8C12.5523 8 13 7.55228 13 7V4C13 3.44772 12.5523 3 12 3Z" fill="currentColor" />
</svg>
