<svg width="16" height="16" viewBox="0 0 16 16" fill="none" xmlns="http://www.w3.org/2000/svg">
<path fill-rule="evenodd" clip-rule="evenodd" d="M4 3C3.44772 3 3 3.44772 3 4V6C3 6.55228 3.44772 7 4 7C4.55228 7 5 6.55228 5 6V4C5 3.44772 4.55228 3 4 3ZM7 4C7 3.44772 7.44772 3 8 3C8.55228 3 9 3.44772 9 4V6C9 6.55228 8.55228 7 8 7C7.44772 7 7 6.55228 7 6V4ZM11 4C11 3.44772 11.4477 3 12 3C12.5523 3 13 3.44772 13 4V6C13 6.55228 12.5523 7 12 7C11.4477 7 11 6.55228 11 6V4ZM7 10C7 9.44772 7.44772 9 8 9C8.55228 9 9 9.44772 9 10V12C9 12.5523 8.55228 13 8 13C7.44772 13 7 12.5523 7 12V10ZM12 9C11.4477 9 11 9.44772 11 10V12C11 12.5523 11.4477 13 12 13C12.5523 13 13 12.5523 13 12V10C13 9.44772 12.5523 9 12 9Z" fill="currentColor" />
</svg>
