<svg width="16" height="16" viewBox="0 0 16 16" fill="none" xmlns="http://www.w3.org/2000/svg">
<path fill-rule="evenodd" clip-rule="evenodd" d="M7 4C7 3.44772 7.44772 3 8 3C8.55228 3 9 3.44772 9 4V12C9 12.5523 8.55228 13 8 13C7.44772 13 7 12.5523 7 12V4ZM3 7C3 6.44772 3.44772 6 4 6C4.55228 6 5 6.44772 5 7V12C5 12.5523 4.55228 13 4 13C3.44772 13 3 12.5523 3 12V7ZM12 8C11.4477 8 11 8.44772 11 9V12C11 12.5523 11.4477 13 12 13C12.5523 13 13 12.5523 13 12V9C13 8.44772 12.5523 8 12 8Z" fill="currentColor" />
</svg>
