<svg width="16" height="16" viewBox="0 0 16 16" fill="none" xmlns="http://www.w3.org/2000/svg">
<path fill-rule="evenodd" clip-rule="evenodd" d="M10 5H6C4.34315 5 3 6.34315 3 8C3 9.65685 4.34315 11 6 11L10 11C11.6569 11 13 9.65685 13 8C13 6.34314 11.6569 5 10 5ZM10 12C12.2091 12 14 10.2091 14 8C14 5.79086 12.2091 4 10 4H6C3.79086 4 2 5.79086 2 8C2 10.2091 3.79086 12 6 12H10ZM11 8C11 8.55228 10.5523 9 10 9C9.44772 9 9 8.55228 9 8C9 7.44771 9.44772 7 10 7C10.5523 7 11 7.44771 11 8ZM12 8C12 9.10457 11.1046 10 10 10C8.89543 10 8 9.10457 8 8C8 6.89543 8.89543 6 10 6C11.1046 6 12 6.89543 12 8Z" fill="currentColor" />
</svg>
