<svg width="16" height="16" viewBox="0 0 16 16" fill="none" xmlns="http://www.w3.org/2000/svg">
<path fill-rule="evenodd" clip-rule="evenodd" d="M9 7V9H7V7H9Z" fill="currentColor" fill-opacity="0.3" />
<path fill-rule="evenodd" clip-rule="evenodd" d="M7 12H12V7H10V7.5V9C10 9.55229 9.55229 10 9 10H7.5H7V12ZM7.5 9H7V8.5V7H8.5H9V7.5V9H7.5ZM6 9H4V4H9V6H8.5H7C6.44771 6 6 6.44771 6 7V8.5V9ZM5 10H4C3.44771 10 3 9.55229 3 9V4C3 3.44771 3.44771 3 4 3H9C9.55229 3 10 3.44771 10 4V5V6H11H12C12.5523 6 13 6.44771 13 7V12C13 12.5523 12.5523 13 12 13H7C6.44771 13 6 12.5523 6 12V11V10H5Z" fill="currentColor" />
</svg>
