<svg width="16" height="16" viewBox="0 0 16 16" fill="none" xmlns="http://www.w3.org/2000/svg">
<path fill-rule="evenodd" clip-rule="evenodd" d="M3 4.5C3 4.22386 3.22386 4 3.5 4H4.5C5.88071 4 7 5.11929 7 6.5V8.5C7 9.32843 7.67157 10 8.5 10H11.2929L10.1464 8.85355C9.95118 8.65829 9.95118 8.34171 10.1464 8.14645C10.3417 7.95118 10.6583 7.95118 10.8536 8.14645L12.8536 10.1464C13.0488 10.3417 13.0488 10.6583 12.8536 10.8536L10.8536 12.8536C10.6583 13.0488 10.3417 13.0488 10.1464 12.8536C9.95118 12.6583 9.95118 12.3417 10.1464 12.1464L11.2929 11H8.5C7.11929 11 6 9.88071 6 8.5V6.5C6 5.67157 5.32843 5 4.5 5H3.5C3.22386 5 3 4.77614 3 4.5ZM8.5 4.5C8.5 4.22386 8.72386 4 9 4H12.5C12.7761 4 13 4.22386 13 4.5C13 4.77614 12.7761 5 12.5 5H9C8.72386 5 8.5 4.77614 8.5 4.5Z" fill="currentColor" />
</svg>
