<svg width="16" height="16" viewBox="0 0 16 16" fill="none" xmlns="http://www.w3.org/2000/svg">
<path fill-rule="evenodd" clip-rule="evenodd" d="M11 4.5C11 4.77614 11.2239 5 11.5 5C11.7761 5 12 4.77614 12 4.5C12 4.22386 11.7761 4 11.5 4C11.2239 4 11 4.22386 11 4.5ZM11 5.91465C10.4174 5.70873 10 5.15311 10 4.5C10 3.67157 10.6716 3 11.5 3C12.3284 3 13 3.67157 13 4.5C13 5.15311 12.5826 5.70873 12 5.91465V10.5L12.8232 11.3232C12.9209 11.4209 12.9209 11.5791 12.8232 11.6768L11.6768 12.8232C11.5791 12.9209 11.4209 12.9209 11.3232 12.8232L10.1768 11.6768C10.0791 11.5791 10.0791 11.4209 10.1768 11.3232L11 10.5V8.50548C10.7449 8.79813 10.4481 8.99103 10.1086 9.07808C9.66487 9.19185 9.22898 9.10318 8.85105 8.96615C8.48114 8.83203 8.10939 8.62923 7.77806 8.44848L7.76057 8.43895C7.40878 8.24706 7.09962 8.07967 6.80809 7.97396C6.51804 7.8688 6.3055 7.8481 6.13981 7.89058C5.9896 7.9291 5.8003 8.03964 5.59415 8.3701C5.38611 8.70361 5.17925 9.23436 5 10.0535V10.0854C5.5826 10.2913 6 10.8469 6 11.5C6 12.3284 5.32843 13 4.5 13C3.67157 13 3 12.3284 3 11.5C3 10.8469 3.4174 10.2913 4 10.0854V5.5H4.00002L3.17678 4.67675C3.07915 4.57912 3.07915 4.42083 3.17678 4.3232L4.32322 3.17675C4.42085 3.07912 4.57915 3.07912 4.67678 3.17675L5.82322 4.3232C5.92085 4.42083 5.92085 4.57912 5.82322 4.67675L4.99998 5.5H5V7.49452C5.25515 7.20187 5.55193 7.00897 5.89144 6.92192C6.33513 6.80815 6.77102 6.89682 7.14895 7.03385C7.51886 7.16797 7.89061 7.37077 8.22194 7.55152L8.23943 7.56105C8.59122 7.75294 8.90038 7.92033 9.19191 8.02604C9.48196 8.1312 9.6945 8.1519 9.86019 8.10942C10.0104 8.0709 10.1997 7.96036 10.4059 7.6299C10.6139 7.29639 10.8207 6.76564 11 5.94649V5.91465ZM4 11.5C4 11.7761 4.22386 12 4.5 12C4.77614 12 5 11.7761 5 11.5C5 11.2239 4.77614 11 4.5 11C4.22386 11 4 11.2239 4 11.5Z" fill="currentColor" />
</svg>
