<svg width="16" height="16" viewBox="0 0 16 16" fill="none" xmlns="http://www.w3.org/2000/svg">
<path fill-rule="evenodd" clip-rule="evenodd" d="M8 5.83824L6.66041 4.5L8 3.16176L9.33959 4.5L8 5.83824ZM7.56946 2.17837L5.6796 4.06632C5.44013 4.30554 5.44013 4.69446 5.6796 4.93368L7.56946 6.82163C7.80753 7.05946 8.19247 7.05946 8.43054 6.82163L10.3204 4.93368C10.5599 4.69446 10.5599 4.30554 10.3204 4.06632L8.43054 2.17837C8.19247 1.94054 7.80753 1.94054 7.56946 2.17837ZM10.1618 8L11.5 6.66041L12.8382 8L11.5 9.33959L10.1618 8ZM9.17837 8.43054L11.0663 10.3204C11.3055 10.5599 11.6945 10.5599 11.9337 10.3204L13.8216 8.43054C14.0595 8.19247 14.0595 7.80753 13.8216 7.56946L11.9337 5.6796C11.6945 5.44013 11.3055 5.44013 11.0663 5.6796L9.17837 7.56946C8.94054 7.80753 8.94054 8.19247 9.17837 8.43054ZM6.66041 11.5L8 12.8382L9.33959 11.5L8 10.1618L6.66041 11.5ZM5.6796 11.0663L7.56946 9.17837C7.80753 8.94054 8.19247 8.94054 8.43054 9.17837L10.3204 11.0663C10.5599 11.3055 10.5599 11.6945 10.3204 11.9337L8.43054 13.8216C8.19247 14.0595 7.80753 14.0595 7.56946 13.8216L5.6796 11.9337C5.44013 11.6945 5.44013 11.3055 5.6796 11.0663ZM3.16176 8L4.5 6.66041L5.83824 8L4.5 9.33959L3.16176 8ZM2.17837 8.43054L4.06632 10.3204C4.30554 10.5599 4.69446 10.5599 4.93368 10.3204L6.82163 8.43054C7.05946 8.19247 7.05946 7.80753 6.82163 7.56946L4.93368 5.6796C4.69446 5.44013 4.30554 5.44013 4.06632 5.6796L2.17837 7.56946C1.94054 7.80753 1.94054 8.19247 2.17837 8.43054Z" fill="currentColor" />
</svg>
