<svg width="16" height="16" viewBox="0 0 16 16" fill="none" xmlns="http://www.w3.org/2000/svg">
<path fill-rule="evenodd" clip-rule="evenodd" d="M3.00001 0.5C3.00001 0.776142 2.77615 1 2.50001 1H2C1.44772 1 1 1.44772 1 2V2.5C1 2.77614 0.776142 3 0.5 3C0.223858 3 0 2.77614 0 2.5V2C0 0.895431 0.89543 0 2 0H2.50001C2.77615 0 3.00001 0.223858 3.00001 0.5ZM6.75001 1C7.02615 1 7.25001 0.776142 7.25001 0.5C7.25001 0.223858 7.02615 0 6.75001 0H5.00001C4.72387 0 4.50001 0.223858 4.50001 0.5C4.50001 0.776142 4.72387 1 5.00001 1H6.75001ZM11 1C11.2761 1 11.5 0.776142 11.5 0.5C11.5 0.223858 11.2761 0 11 0H9.25001C8.97387 0 8.75001 0.223858 8.75001 0.5C8.75001 0.776142 8.97387 1 9.25001 1H11ZM15 2.5C15 2.77614 15.2239 3 15.5 3C15.7761 3 16 2.77614 16 2.5V2C16 0.89543 15.1046 0 14 0H13.5C13.2239 0 13 0.223858 13 0.5C13 0.776142 13.2239 1 13.5 1H14C14.5523 1 15 1.44772 15 2V2.5ZM15 6.75C15 7.02614 15.2239 7.25 15.5 7.25C15.7761 7.25 16 7.02614 16 6.75V5C16 4.72386 15.7761 4.5 15.5 4.5C15.2239 4.5 15 4.72386 15 5V6.75ZM15 11C15 11.2761 15.2239 11.5 15.5 11.5C15.7761 11.5 16 11.2761 16 11V9.25C16 8.97386 15.7761 8.75 15.5 8.75C15.2239 8.75 15 8.97386 15 9.25V11ZM13.5 15C13.2239 15 13 15.2239 13 15.5C13 15.7761 13.2239 16 13.5 16H14C15.1046 16 16 15.1046 16 14V13.5C16 13.2239 15.7761 13 15.5 13C15.2239 13 15 13.2239 15 13.5V14C15 14.5523 14.5523 15 14 15H13.5ZM9.25001 15C8.97387 15 8.75001 15.2239 8.75001 15.5C8.75001 15.7761 8.97387 16 9.25001 16H11C11.2761 16 11.5 15.7761 11.5 15.5C11.5 15.2239 11.2761 15 11 15H9.25001ZM5.00001 15C4.72387 15 4.50001 15.2239 4.50001 15.5C4.50001 15.7761 4.72387 16 5.00001 16H6.75001C7.02615 16 7.25001 15.7761 7.25001 15.5C7.25001 15.2239 7.02615 15 6.75001 15H5.00001ZM1 13.5C1 13.2239 0.776142 13 0.5 13C0.223858 13 0 13.2239 0 13.5V14C0 15.1046 0.895431 16 2 16H2.50001C2.77615 16 3.00001 15.7761 3.00001 15.5C3.00001 15.2239 2.77615 15 2.50001 15H2C1.44772 15 1 14.5523 1 14V13.5ZM1 9.25C1 8.97386 0.776142 8.75 0.5 8.75C0.223858 8.75 0 8.97386 0 9.25V11C0 11.2761 0.223858 11.5 0.5 11.5C0.776142 11.5 1 11.2761 1 11V9.25ZM1 5C1 4.72386 0.776142 4.5 0.5 4.5C0.223858 4.5 0 4.72386 0 5V6.75C0 7.02614 0.223858 7.25 0.5 7.25C0.776142 7.25 1 7.02614 1 6.75V5ZM5.14645 8.73223L4.41421 8L5.14645 7.26777L5.87868 8L5.14645 8.73223ZM7.64645 6.93934L6.20711 5.5C6.01184 5.30474 6.01184 4.98816 6.20711 4.79289L7.64645 3.35355C7.84171 3.15829 8.15829 3.15829 8.35355 3.35355L9.79289 4.79289C9.98816 4.98816 9.98816 5.30474 9.79289 5.5L8.35355 6.93934C8.15829 7.1346 7.84171 7.1346 7.64645 6.93934ZM6.20711 10.5L7.64645 9.06066C7.84171 8.8654 8.15829 8.8654 8.35355 9.06066L9.79289 10.5C9.98816 10.6953 9.98816 11.0118 9.79289 11.2071L8.35355 12.6464C8.15829 12.8417 7.84171 12.8417 7.64645 12.6464L6.20711 11.2071C6.01184 11.0118 6.01184 10.6953 6.20711 10.5ZM5.5 6.20711L6.93934 7.64645C7.1346 7.84171 7.1346 8.15829 6.93934 8.35355L5.5 9.79289C5.30474 9.98816 4.98816 9.98816 4.79289 9.79289L3.35355 8.35355C3.15829 8.15829 3.15829 7.84171 3.35355 7.64645L4.79289 6.20711C4.98816 6.01184 5.30474 6.01184 5.5 6.20711ZM8.73223 5.14645L8 5.87868L7.26777 5.14645L8 4.41421L8.73223 5.14645ZM9.06066 7.64645L10.5 6.20711C10.6953 6.01184 11.0118 6.01184 11.2071 6.20711L12.6464 7.64645C12.8417 7.84171 12.8417 8.15829 12.6464 8.35355L11.2071 9.79289C11.0118 9.98816 10.6953 9.98816 10.5 9.79289L9.06066 8.35355C8.8654 8.15829 8.8654 7.84171 9.06066 7.64645ZM10.8536 8.73223L10.1213 8L10.8536 7.26777L11.5858 8L10.8536 8.73223ZM7.26777 10.8536L8 10.1213L8.73223 10.8536L8 11.5858L7.26777 10.8536Z" fill="currentColor" />
</svg>
