<svg width="16" height="16" viewBox="0 0 16 16" fill="none" xmlns="http://www.w3.org/2000/svg">
<path fill-rule="evenodd" clip-rule="evenodd" d="M5.39383 10.6009C5.19857 10.4056 4.88198 10.4056 4.68672 10.6009C4.49146 10.7961 4.49146 11.1127 4.68672 11.308L6.93591 13.5572C7.5217 14.143 8.47144 14.143 9.05723 13.5572L13.5556 9.05879C14.1414 8.473 14.1414 7.52326 13.5556 6.93747L9.05723 2.4391C8.47144 1.85331 7.5217 1.85331 6.93591 2.4391L4.68672 4.68828C4.49146 4.88355 4.49146 5.20013 4.68672 5.39539C4.88198 5.59065 5.19857 5.59065 5.39383 5.39539L7.64302 3.1462C7.83828 2.95094 8.15486 2.95094 8.35012 3.1462L12.8485 7.64458C13.0438 7.83984 13.0438 8.15642 12.8485 8.35168L8.35012 12.8501C8.15486 13.0453 7.83828 13.0453 7.64302 12.8501L5.39383 10.6009ZM8 9.00002C8.55228 9.00002 9 8.55231 9 8.00002C9 7.44774 8.55228 7.00002 8 7.00002C7.44772 7.00002 7 7.44774 7 8.00002V8.00025C7.00012 8.55243 7.44779 9.00002 8 9.00002ZM8 6.00002C7.06815 6.00002 6.28515 6.63731 6.06306 7.49983L2.49997 7.50002C2.22383 7.50004 1.99999 7.72391 2 8.00005C2.00002 8.27619 2.22388 8.50004 2.50003 8.50002L6.06296 8.49983C6.28491 9.36254 7.06801 10 8 10C9.10457 10 10 9.10459 10 8.00002C10 6.89545 9.10457 6.00002 8 6.00002Z" fill="currentColor" />
</svg>
