<svg width="16" height="16" viewBox="0 0 16 16" fill="none" xmlns="http://www.w3.org/2000/svg">
<path fill-rule="evenodd" clip-rule="evenodd" d="M10.6464 2.64645C10.8417 2.45118 11.1583 2.45118 11.3536 2.64645L12.8536 4.14645C13.0488 4.34171 13.0488 4.65829 12.8536 4.85355L11.3536 6.35355C11.1583 6.54882 10.8417 6.54882 10.6464 6.35355C10.4512 6.15829 10.4512 5.84171 10.6464 5.64645L11.2929 5H10.5C9.67157 5 9 5.67157 9 6.5V9.5C9 10.8807 7.88071 12 6.5 12H6C5.97174 12 5.94403 11.9977 5.91705 11.9932C5.71308 12.5793 5.15567 13 4.5 13C3.67157 13 3 12.3284 3 11.5C3 10.6716 3.67157 10 4.5 10C5.15567 10 5.71308 10.4207 5.91705 11.0068C5.94403 11.0023 5.97174 11 6 11H6.5C7.32843 11 8 10.3284 8 9.5V6.5C8 5.11929 9.11929 4 10.5 4H11.2929L10.6464 3.35355C10.4512 3.15829 10.4512 2.84171 10.6464 2.64645ZM4.5 12C4.77614 12 5 11.7761 5 11.5C5 11.2239 4.77614 11 4.5 11C4.22386 11 4 11.2239 4 11.5C4 11.7761 4.22386 12 4.5 12Z" fill="currentColor" />
</svg>
