<svg width="16" height="16" viewBox="0 0 16 16" fill="none" xmlns="http://www.w3.org/2000/svg">
<path fill-rule="evenodd" clip-rule="evenodd" d="M11.1649 11.8711C10.3029 12.5767 9.20086 13 8 13C5.23858 13 3 10.7614 3 8C3 6.79914 3.42334 5.69715 4.12893 4.83514C4.13458 4.84139 4.14042 4.84753 4.14645 4.85355L11.1464 11.8536C11.1525 11.8596 11.1586 11.8654 11.1649 11.8711ZM11.8711 11.1649C11.8654 11.1586 11.8596 11.1525 11.8536 11.1464L4.85355 4.14645C4.84753 4.14042 4.84139 4.13458 4.83514 4.12893C5.69715 3.42334 6.79914 3 8 3C10.7614 3 13 5.23858 13 8C13 9.20086 12.5767 10.3029 11.8711 11.1649ZM14 8C14 11.3137 11.3137 14 8 14C4.68629 14 2 11.3137 2 8C2 4.68629 4.68629 2 8 2C11.3137 2 14 4.68629 14 8ZM10.5 5C10.5 4.72386 10.2761 4.5 10 4.5C9.72386 4.5 9.5 4.72386 9.5 5V5.5H9C8.72386 5.5 8.5 5.72386 8.5 6C8.5 6.27614 8.72386 6.5 9 6.5H9.5V7C9.5 7.27614 9.72386 7.5 10 7.5C10.2761 7.5 10.5 7.27614 10.5 7V6.5H11C11.2761 6.5 11.5 6.27614 11.5 6C11.5 5.72386 11.2761 5.5 11 5.5H10.5V5ZM4.5 10C4.5 9.72386 4.72386 9.5 5 9.5H7C7.27614 9.5 7.5 9.72386 7.5 10C7.5 10.2761 7.27614 10.5 7 10.5H5C4.72386 10.5 4.5 10.2761 4.5 10Z" fill="currentColor" />
</svg>
