<svg width="16" height="16" viewBox="0 0 16 16" fill="none" xmlns="http://www.w3.org/2000/svg">
<path fill-rule="evenodd" clip-rule="evenodd" d="M11.0613 8.9571L11.1199 8.47607C11.2504 7.40539 10.9233 6.33793 10.2925 5.70706C10.1211 5.53564 9.74163 5.3135 9.11861 5.0868C8.52367 4.87032 7.81126 4.68608 7.0791 4.5335C6.29101 4.36926 5.50767 4.24728 4.8682 4.16139L7.74099 7.03376C7.82351 7.01172 7.91023 6.99997 7.9997 6.99997C8.55199 6.99997 8.9997 7.44769 8.9997 7.99997C8.9997 8.55226 8.55199 8.99997 7.9997 8.99997C7.44742 8.99997 6.9997 8.55226 6.9997 7.99997C6.9997 7.91028 7.01151 7.82335 7.03366 7.74064L4.16112 4.86853C4.24702 5.50798 4.36901 6.29129 4.53326 7.07934C4.68585 7.81149 4.8701 8.5239 5.08658 9.11883C5.31329 9.74185 5.53542 10.1214 5.70686 10.2928C6.33181 10.9178 7.38557 11.245 8.44795 11.1235L8.93002 11.0683L9.27167 11.4129L10.4671 12.6184L12.5884 10.4971L11.4025 9.30119L11.0613 8.9571ZM12.1126 8.59707C12.2727 7.28352 11.8888 5.88918 10.9997 4.99999C9.67466 3.67484 4.83783 3.13018 3.72779 3.02117C3.58143 3.0068 3.4397 3.05997 3.3357 3.16396L3.16366 3.33601C3.05966 3.44001 3.00649 3.58174 3.02087 3.72811C3.12991 4.83815 3.67467 9.67484 4.99975 10.9999C5.88095 11.8811 7.25838 12.2661 8.56159 12.117L9.75701 13.3225C10.147 13.7159 10.7825 13.7172 11.1742 13.3255L13.2955 11.2042C13.6849 10.8148 13.6862 10.184 13.2985 9.79297L12.1126 8.59707Z" fill="currentColor" />
</svg>
