<svg width="16" height="16" viewBox="0 0 16 16" fill="none" xmlns="http://www.w3.org/2000/svg">
<path fill-rule="evenodd" clip-rule="evenodd" d="M12.3536 3.64643C13.3772 4.67005 13.3773 6.32965 12.3538 7.35338L11.3537 8.35361C11.1585 8.54889 10.8419 8.54892 10.6466 8.35368C10.4513 8.15844 10.4513 7.84185 10.6465 7.64657L11.6466 6.64634C12.2797 6.01315 12.2796 4.98666 11.6465 4.35353C11.0133 3.72036 9.98673 3.72036 9.35356 4.35354L8.35357 5.35352C8.15831 5.54879 7.84172 5.54879 7.64646 5.35352C7.4512 5.15826 7.4512 4.84168 7.64646 4.64642L8.64645 3.64643C9.67015 2.62273 11.3299 2.62273 12.3536 3.64643ZM3.64645 12.3535C2.62276 11.3298 2.62276 9.67009 3.64645 8.6464L4.64645 7.6464C4.84171 7.45114 5.15829 7.45114 5.35355 7.6464C5.54882 7.84166 5.54882 8.15825 5.35355 8.35351L4.35355 9.35351C3.72039 9.98667 3.72039 11.0132 4.35355 11.6464C4.98672 12.2796 6.01328 12.2796 6.64645 11.6464L7.64645 10.6464C7.84171 10.4511 8.15829 10.4511 8.35355 10.6464C8.54882 10.8417 8.54882 11.1582 8.35355 11.3535L7.35355 12.3535C6.32987 13.3772 4.67014 13.3772 3.64645 12.3535ZM2.00007 5.49997C2.00007 5.22383 2.22393 4.99997 2.50007 4.99997L4.00007 4.99997C4.27622 4.99997 4.50007 5.22383 4.50007 5.49997C4.50007 5.77611 4.27622 5.99997 4.00007 5.99997L2.50007 5.99997C2.22393 5.99997 2.00007 5.77611 2.00007 5.49997ZM6.00006 2.4999C6.00006 2.22376 5.7762 1.9999 5.50006 1.9999C5.22391 1.9999 5.00006 2.22376 5.00006 2.4999L5.00006 3.9999C5.00006 4.27604 5.22391 4.4999 5.50006 4.4999C5.7762 4.4999 6.00006 4.27604 6.00006 3.9999L6.00006 2.4999ZM10.5001 11.5C10.7762 11.5 11.0001 11.7238 11.0001 12L11.0001 13.5C11.0001 13.7761 10.7762 14 10.5001 14C10.2239 14 10.0001 13.7761 10.0001 13.5L10.0001 12C10.0001 11.7238 10.2239 11.5 10.5001 11.5ZM12.0001 9.99996C11.7239 9.99996 11.5001 10.2238 11.5001 10.5C11.5001 10.7761 11.7239 11 12.0001 11L13.5001 11C13.7762 11 14.0001 10.7761 14.0001 10.5C14.0001 10.2238 13.7762 9.99996 13.5001 9.99996H12.0001Z" fill="currentColor" />
</svg>
