<svg width="16" height="16" viewBox="0 0 16 16" fill="none" xmlns="http://www.w3.org/2000/svg">
<path fill-rule="evenodd" clip-rule="evenodd" d="M5 4.5C5 4.22386 5.22386 4 5.5 4H10.5C10.7761 4 11 4.22386 11 4.5C11 4.77614 10.7761 5 10.5 5L5.5 5C5.22386 5 5 4.77614 5 4.5ZM5 8C5 7.72386 5.22386 7.5 5.5 7.5L10.5 7.5C10.7761 7.5 11 7.72386 11 8C11 8.27614 10.7761 8.5 10.5 8.5L5.5 8.5C5.22386 8.5 5 8.27614 5 8ZM11 11.5C11 11.2239 10.7761 11 10.5 11L5.5 11C5.22386 11 5 11.2239 5 11.5C5 11.7761 5.22386 12 5.5 12L10.5 12C10.7761 12 11 11.7761 11 11.5Z" fill="currentColor" />
</svg>
