<svg width="16" height="16" viewBox="0 0 16 16" fill="none" xmlns="http://www.w3.org/2000/svg">
<path fill-rule="evenodd" clip-rule="evenodd" d="M8.49946 2.25C8.49946 1.97386 8.27561 1.75 7.99946 1.75C7.72332 1.75 7.49946 1.97386 7.49946 2.25V3.52752C6.6321 3.62351 5.83905 3.96602 5.19194 4.48342L4.28834 3.57982C4.09308 3.38456 3.7765 3.38456 3.58124 3.57982C3.38598 3.77508 3.38598 4.09167 3.58124 4.28693L4.48468 5.19037C3.96676 5.83753 3.62383 6.63083 3.52763 7.49854H2.25C1.97386 7.49854 1.75 7.72239 1.75 7.99854C1.75 8.27468 1.97386 8.49854 2.25 8.49854H3.5273C3.623 9.36678 3.9657 10.1606 4.48359 10.8083L3.58124 11.7106C3.38598 11.9059 3.38598 12.2225 3.58124 12.4177C3.7765 12.613 4.09308 12.613 4.28834 12.4177L5.19059 11.5155C5.83794 12.0335 6.63149 12.3764 7.49946 12.4725V13.7475C7.49946 14.0237 7.72332 14.2475 7.99946 14.2475C8.27561 14.2475 8.49946 14.0237 8.49946 13.7475V12.4726C9.36747 12.3767 10.1611 12.034 10.8085 11.5162L11.7094 12.417C11.9046 12.6123 12.2212 12.6123 12.4165 12.417C12.6118 12.2218 12.6118 11.9052 12.4165 11.7099L11.5157 10.8091C12.034 10.1613 12.377 9.36717 12.4727 8.49854H13.7475C14.0237 8.49854 14.2475 8.27468 14.2475 7.99854C14.2475 7.72239 14.0237 7.49854 13.7475 7.49854H12.4724C12.3761 6.63032 12.0328 5.8366 11.5144 5.18923L12.4165 4.28715C12.6118 4.09189 12.6118 3.7753 12.4165 3.58004C12.2212 3.38478 11.9046 3.38478 11.7094 3.58004L10.8069 4.48251C10.1598 3.9654 9.36674 3.62317 8.49946 3.52741V2.25ZM7.5 4.53544C5.80385 4.77806 4.5 6.23676 4.5 8C4.5 9.76324 5.80385 11.2219 7.5 11.4646V4.53544ZM8.5 11.4646C10.1961 11.2219 11.5 9.76324 11.5 8C11.5 6.23676 10.1961 4.77806 8.5 4.53544V11.4646Z" fill="currentColor" />
</svg>
