<svg width="16" height="16" viewBox="0 0 16 16" fill="none" xmlns="http://www.w3.org/2000/svg">
<path fill-rule="evenodd" clip-rule="evenodd" d="M7.29289 2.29289C7.68342 1.90237 8.31658 1.90237 8.70711 2.29289L12.7071 6.29289C13.0976 6.68342 13.0976 7.31658 12.7071 7.70711L11.5607 8.85355C11.3654 9.04882 11.0488 9.04882 10.8536 8.85355C10.6583 8.65829 10.6583 8.34171 10.8536 8.14645L12 7L8 3L4 7L5.14645 8.14645C5.34171 8.34171 5.34171 8.65829 5.14645 8.85355C4.95118 9.04882 4.6346 9.04882 4.43934 8.85355L3.29289 7.70711C2.90237 7.31658 2.90237 6.68342 3.29289 6.29289L7.29289 2.29289ZM5.14645 10.6464C4.95118 10.8417 4.95118 11.1583 5.14645 11.3536C5.34171 11.5488 5.65829 11.5488 5.85355 11.3536L7.5 9.70711V13.5C7.5 13.7761 7.72386 14 8 14C8.27614 14 8.5 13.7761 8.5 13.5V9.70711L10.1464 11.3536C10.3417 11.5488 10.6583 11.5488 10.8536 11.3536C11.0488 11.1583 11.0488 10.8417 10.8536 10.6464L8.35355 8.14645C8.15829 7.95118 7.84171 7.95118 7.64645 8.14645L5.14645 10.6464Z" fill="currentColor" />
</svg>
