<svg width="16" height="16" viewBox="0 0 16 16" fill="none" xmlns="http://www.w3.org/2000/svg">
<path fill-rule="evenodd" clip-rule="evenodd" d="M5.5 5C5.22386 5 5 5.22385 5 5.5V10.5C5 10.7761 5.22386 11 5.5 11H10.5C10.7761 11 11 10.7761 11 10.5V9.5C11 9.22386 11.2239 9 11.5 9C11.7761 9 12 9.22386 12 9.5V10.5C12 11.3284 11.3284 12 10.5 12H5.5C4.67157 12 4 11.3284 4 10.5V5.5C4 4.67157 4.67157 4 5.5 4H6.5C6.77614 4 7 4.22385 7 4.5C7 4.77615 6.77614 5 6.5 5H5.5ZM10.2929 5H8.5C8.22386 5 8 4.77615 8 4.5C8 4.22385 8.22386 4 8.5 4H11.5H12V4.5V7.5C12 7.77614 11.7761 8 11.5 8C11.2239 8 11 7.77614 11 7.5V5.7071L8.85355 7.85355C8.65829 8.04881 8.34171 8.04881 8.14645 7.85355C7.95119 7.65829 7.95119 7.34171 8.14645 7.14645L10.2929 5Z" fill="currentColor" />
</svg>
