<svg width="16" height="16" viewBox="0 0 16 16" fill="none" xmlns="http://www.w3.org/2000/svg">
<path fill-rule="evenodd" clip-rule="evenodd" d="M2.51944 3.69613C2.45386 3.36827 2.55649 3.02933 2.79291 2.79291C3.02933 2.55649 3.36827 2.45386 3.69613 2.51944L6.19613 3.01944C6.38972 3.05815 6.56752 3.15331 6.70712 3.29291L12.8536 9.43936C13.4394 10.0251 13.4394 10.9749 12.8536 11.5607L11.5607 12.8536C10.9749 13.4394 10.0251 13.4394 9.43936 12.8536L3.29291 6.70712C3.15331 6.56752 3.05815 6.38972 3.01944 6.19613L2.51944 3.69613ZM10.8536 12.1465L12.1465 10.8536C12.3417 10.6583 12.3417 10.3417 12.1465 10.1465L7.35355 5.35355L5.35355 7.35355L10.1465 12.1465C10.3417 12.3417 10.6583 12.3417 10.8536 12.1465ZM4.64645 6.64645L6.64645 4.64645L6.00002 4.00002L4.56231 3.71248L3.50002 3.50002L3.71248 4.56231L4.00002 6.00002L4.64645 6.64645Z" fill="currentColor" />
</svg>
