<svg width="16" height="16" viewBox="0 0 16 16" fill="none" xmlns="http://www.w3.org/2000/svg">
<path fill-rule="evenodd" clip-rule="evenodd" d="M7.02662 2.31604C7.12823 2.57281 7.00244 2.86333 6.74567 2.96494C5.71456 3.37295 4.81009 3.99654 4.04759 4.87263C2.27898 6.90468 2.95732 9.59982 4.57383 11.1337C5.44767 11.9629 6.61034 12.1553 7.78272 11.8874C7.96678 11.8453 8.14984 11.7921 8.33053 11.7286L7.06398 8.35114C6.92629 7.98396 7.01592 7.57019 7.29321 7.29291C7.57049 7.01562 7.98426 6.92599 8.35144 7.06368L11.7681 8.34493C11.9461 7.83528 12.0265 7.28938 11.9932 6.66979C11.9254 5.5663 11.6142 4.8846 11.2216 4.4754C10.8325 4.0697 10.3079 3.87392 9.69139 3.85124C8.425 3.80467 6.89862 4.5005 5.94713 5.35307C5.74147 5.53735 5.42537 5.52002 5.24109 5.31436C5.05681 5.1087 5.07414 4.79259 5.2798 4.60831C6.36933 3.63205 8.13769 2.79342 9.72815 2.85192C10.5401 2.88178 11.3344 3.14842 11.9433 3.78316C12.5486 4.41418 12.9144 5.35043 12.9915 6.61052L12.9917 6.61413C13.0335 7.38908 12.9263 8.07107 12.7046 8.69613L13.3514 8.93868C13.7613 9.09239 14.0236 9.49483 13.9987 9.93188C13.9738 10.3689 13.6675 10.739 13.2428 10.8452L11.3249 11.3246L10.8455 13.2425C10.7393 13.6672 10.3692 13.9735 9.93218 13.9984C9.49513 14.0233 9.09269 13.761 8.93898 13.3511L8.68172 12.6651C8.45923 12.7441 8.23328 12.8102 8.00553 12.8623C6.59177 13.1854 5.05922 12.9728 3.88551 11.8591L4.22595 11.5003L3.88551 11.8591C2.00452 10.0743 1.07074 6.76972 3.29328 4.21611C4.16372 3.216 5.20193 2.50035 6.37772 2.03509C6.63449 1.93348 6.92502 2.05927 7.02662 2.31604ZM9.59703 12.2579L9.87531 13L10.1429 11.9298L10.3025 11.2912L10.5003 10.5L11.2915 10.3022L11.948 10.1381L13.0003 9.87501L12.2844 9.60653L11.3511 9.25655L11.334 9.25014L9.24308 8.46605L8.00031 8.00001L8.46635 9.24278L9.24208 11.3114L9.25685 11.3508L9.59703 12.2579Z" fill="currentColor" />
</svg>
