<svg width="16" height="16" viewBox="0 0 16 16" fill="none" xmlns="http://www.w3.org/2000/svg">
<path fill-rule="evenodd" clip-rule="evenodd" d="M8.5 2.5C8.5 2.22386 8.27614 2 8 2C7.72386 2 7.5 2.22386 7.5 2.5V5.29289L6.35355 4.14645C6.15829 3.95118 5.84171 3.95118 5.64645 4.14645C5.45118 4.34171 5.45118 4.65829 5.64645 4.85355L7.64645 6.85355C7.84171 7.04882 8.15829 7.04882 8.35355 6.85355L10.3536 4.85355C10.5488 4.65829 10.5488 4.34171 10.3536 4.14645C10.1583 3.95118 9.84171 3.95118 9.64645 4.14645L8.5 5.29289V2.5ZM2 9.5C2 9.22386 2.22386 9 2.5 9H13.5C13.7761 9 14 9.22386 14 9.5C14 9.77614 13.7761 10 13.5 10H2.5C2.22386 10 2 9.77614 2 9.5ZM3 12.5C3 12.2239 3.22386 12 3.5 12H12.5C12.7761 12 13 12.2239 13 12.5C13 12.7761 12.7761 13 12.5 13H3.5C3.22386 13 3 12.7761 3 12.5Z" fill="currentColor" />
</svg>
