<svg width="16" height="16" viewBox="0 0 16 16" fill="none" xmlns="http://www.w3.org/2000/svg">
<path fill-rule="evenodd" clip-rule="evenodd" d="M3 4C3 3.44772 3.44772 3 4 3C4.27614 3 4.5 3.22386 4.5 3.5C4.5 3.77614 4.27614 4 4 4C4 4.27614 3.77614 4.5 3.5 4.5C3.22386 4.5 3 4.27614 3 4ZM5.5 3.5C5.5 3.22386 5.72386 3 6 3H7C7.27614 3 7.5 3.22386 7.5 3.5C7.5 3.77614 7.27614 4 7 4H6C5.72386 4 5.5 3.77614 5.5 3.5ZM8.5 3.5C8.5 3.22386 8.72386 3 9 3H10C10.2761 3 10.5 3.22386 10.5 3.5C10.5 3.77614 10.2761 4 10 4H9C8.72386 4 8.5 3.77614 8.5 3.5ZM11.5 3.5C11.5 3.22386 11.7239 3 12 3C12.5523 3 13 3.44772 13 4C13 4.27614 12.7761 4.5 12.5 4.5C12.2239 4.5 12 4.27614 12 4C11.7239 4 11.5 3.77614 11.5 3.5ZM3.5 5.5C3.77614 5.5 4 5.72386 4 6V7C4 7.27614 3.77614 7.5 3.5 7.5C3.22386 7.5 3 7.27614 3 7V6C3 5.72386 3.22386 5.5 3.5 5.5ZM12.5 5.5C12.7761 5.5 13 5.72386 13 6V7C13 7.27614 12.7761 7.5 12.5 7.5C12.2239 7.5 12 7.27614 12 7V6C12 5.72386 12.2239 5.5 12.5 5.5ZM3.5 8.5C3.77614 8.5 4 8.72386 4 9V10C4 10.2761 3.77614 10.5 3.5 10.5C3.22386 10.5 3 10.2761 3 10V9C3 8.72386 3.22386 8.5 3.5 8.5ZM12.5 8.5C12.7761 8.5 13 8.72386 13 9V10C13 10.2761 12.7761 10.5 12.5 10.5C12.2239 10.5 12 10.2761 12 10V9C12 8.72386 12.2239 8.5 12.5 8.5ZM3.5 11.5C3.77614 11.5 4 11.7239 4 12C4.27614 12 4.5 12.2239 4.5 12.5C4.5 12.7761 4.27614 13 4 13C3.44772 13 3 12.5523 3 12C3 11.7239 3.22386 11.5 3.5 11.5ZM12.5 11.5C12.7761 11.5 13 11.7239 13 12C13 12.5523 12.5523 13 12 13C11.7239 13 11.5 12.7761 11.5 12.5C11.5 12.2239 11.7239 12 12 12C12 11.7239 12.2239 11.5 12.5 11.5ZM5.5 12.5C5.5 12.2239 5.72386 12 6 12H7C7.27614 12 7.5 12.2239 7.5 12.5C7.5 12.7761 7.27614 13 7 13H6C5.72386 13 5.5 12.7761 5.5 12.5ZM8.5 12.5C8.5 12.2239 8.72386 12 9 12H10C10.2761 12 10.5 12.2239 10.5 12.5C10.5 12.7761 10.2761 13 10 13H9C8.72386 13 8.5 12.7761 8.5 12.5Z" fill="currentColor" />
</svg>
