<svg width="16" height="16" viewBox="0 0 16 16" fill="none" xmlns="http://www.w3.org/2000/svg">
<path fill-rule="evenodd" clip-rule="evenodd" d="M3.73223 8.26783C2.75592 7.29152 2.75592 5.7086 3.73223 4.73229C4.70854 3.75598 6.29146 3.75598 7.26777 4.73229L8 5.46453L8.73223 4.73229C9.70854 3.75598 11.2915 3.75598 12.2678 4.73229C13.2441 5.7086 13.2441 7.29152 12.2678 8.26783L8 12.5356L3.73223 8.26783ZM8 4.05031L8.02513 4.02519C9.39196 2.65835 11.608 2.65835 12.9749 4.02519C14.3417 5.39202 14.3417 7.6081 12.9749 8.97493L8.70711 13.2427C8.31658 13.6332 7.68342 13.6332 7.29289 13.2427L3.02513 8.97493C1.65829 7.6081 1.65829 5.39202 3.02513 4.02519C4.39196 2.65835 6.60804 2.65835 7.97487 4.02519L8 4.05031Z" fill="currentColor" />
</svg>
