<svg width="16" height="16" viewBox="0 0 16 16" fill="none" xmlns="http://www.w3.org/2000/svg">
<path fill-rule="evenodd" clip-rule="evenodd" d="M13 8C13 10.7614 10.7614 13 8 13C5.23858 13 3 10.7614 3 8C3 5.23858 5.23858 3 8 3C10.7614 3 13 5.23858 13 8ZM14 8C14 11.3137 11.3137 14 8 14C4.68629 14 2 11.3137 2 8C2 4.68629 4.68629 2 8 2C11.3137 2 14 4.68629 14 8ZM7.37077 9.13353V9.2074H8.31679V9.13353C8.31869 8.93278 8.34236 8.76422 8.38782 8.62785C8.43517 8.48959 8.50714 8.36933 8.60373 8.26706C8.70221 8.16478 8.82816 8.0663 8.98157 7.9716C9.15581 7.86744 9.30638 7.74906 9.43327 7.61649C9.56017 7.48391 9.6577 7.3324 9.72589 7.16194C9.79596 6.99149 9.831 6.79831 9.831 6.5824C9.831 6.26232 9.75335 5.98581 9.59804 5.75285C9.44464 5.518 9.22967 5.33713 8.95316 5.21024C8.67854 5.08334 8.36036 5.0199 7.99861 5.0199C7.66717 5.0199 7.36414 5.0805 7.08952 5.20172C6.81679 5.32293 6.5971 5.50475 6.43043 5.74717C6.26566 5.98959 6.17854 6.29073 6.16907 6.65058H7.18043C7.1899 6.47255 7.23346 6.32577 7.31111 6.21024C7.39066 6.09281 7.49009 6.00569 7.60941 5.94887C7.73062 5.89016 7.85846 5.86081 7.99293 5.86081C8.13876 5.86081 8.27039 5.89111 8.38782 5.95172C8.50714 6.01232 8.60183 6.09755 8.67191 6.2074C8.74198 6.31725 8.77702 6.44698 8.77702 6.5966C8.77702 6.72918 8.75051 6.84944 8.69748 6.9574C8.64445 7.06346 8.57153 7.16005 8.47873 7.24717C8.38782 7.3324 8.2846 7.411 8.16907 7.48297C8.00051 7.58713 7.85751 7.70172 7.74009 7.82672C7.62267 7.94982 7.53176 8.1127 7.46736 8.31535C7.40486 8.518 7.37267 8.79073 7.37077 9.13353ZM7.42475 10.7983C7.54786 10.9195 7.69464 10.9801 7.86509 10.9801C7.97873 10.9801 8.08195 10.9527 8.17475 10.8977C8.26945 10.8409 8.3452 10.7652 8.40202 10.6705C8.46073 10.5758 8.49009 10.4707 8.49009 10.3551C8.49009 10.1847 8.42759 10.0388 8.30259 9.91762C8.17948 9.79641 8.03365 9.73581 7.86509 9.73581C7.69464 9.73581 7.54786 9.79641 7.42475 9.91762C7.30164 10.0388 7.24009 10.1847 7.24009 10.3551C7.24009 10.5294 7.30164 10.6771 7.42475 10.7983Z" fill="currentColor" />
</svg>
