<svg width="16" height="16" viewBox="0 0 16 16" fill="none" xmlns="http://www.w3.org/2000/svg">
<path fill-rule="evenodd" clip-rule="evenodd" d="M2.15925 6.05823C2.02008 5.76616 2.26259 5.5 2.58613 5.5C2.96702 5.5 3.01656 5.57971 3.15783 5.80704C3.1893 5.85767 3.22531 5.91562 3.27055 5.98165C3.50226 6.31982 3.85863 6.72023 4.32351 7.10307C5.25733 7.8721 6.54003 8.5 8.00031 8.5C9.46058 8.5 10.7433 7.8721 11.6771 7.10307C12.142 6.72023 12.4983 6.31982 12.7301 5.98165C12.7734 5.91844 12.8085 5.86272 12.8394 5.81377C12.9878 5.5788 13.0375 5.5 13.4145 5.5C13.738 5.5 13.9805 5.76615 13.8414 6.05823C13.6074 6.54912 13.1235 7.17839 12.4442 7.7643L13.4164 9.22265C13.5696 9.45241 13.5075 9.76285 13.2777 9.91603C13.048 10.0692 12.7375 10.0071 12.5843 9.77735L11.6441 8.36705C11.1703 8.67738 10.6365 8.95083 10.0536 9.15131L10.4854 10.8787C10.5524 11.1466 10.3895 11.4181 10.1216 11.4851C9.85374 11.552 9.58227 11.3892 9.5153 11.1213L9.08583 9.40341C8.73662 9.46577 8.37417 9.5 8.00031 9.5C7.62649 9.5 7.26407 9.46578 6.9149 9.40343L6.48544 11.1213C6.41846 11.3892 6.147 11.552 5.8791 11.4851C5.6112 11.4181 5.44832 11.1466 5.5153 10.8787L5.94714 9.15135C5.36423 8.95088 4.83042 8.67743 4.35655 8.36711L3.41639 9.77735C3.26322 10.0071 2.95278 10.0692 2.72302 9.91603C2.49325 9.76285 2.43116 9.45241 2.58434 9.22265L3.55653 7.76437C2.87711 7.17844 2.39317 6.54914 2.15925 6.05823Z" fill="currentColor" />
</svg>
