<svg width="16" height="16" viewBox="0 0 16 16" fill="none" xmlns="http://www.w3.org/2000/svg">
<path fill-rule="evenodd" clip-rule="evenodd" d="M7.5 2C7.22386 2 7 2.22386 7 2.5V3.10002C4.71776 3.56329 3 5.58104 3 8C3 10.419 4.71776 12.4367 7 12.9V13.5C7 13.7761 7.22386 14 7.5 14H8C11.3137 14 14 11.3137 14 8C14 4.68629 11.3137 2 8 2H7.5ZM8 12V12.5V13C10.7614 13 13 10.7614 13 8C13 5.23857 10.7614 3 8 3V3.5V4V12ZM7 4.12602V11.874C5.27478 11.4299 4 9.86383 4 8C4 6.13617 5.27478 4.57007 7 4.12602Z" fill="currentColor" />
</svg>
