<svg width="16" height="16" viewBox="0 0 16 16" fill="none" xmlns="http://www.w3.org/2000/svg">
<path d="M7.66782 2.79524L7.33564 2.42154V2.42154L7.66782 2.79524ZM8.33218 2.79524L8.66436 2.42154V2.42154L8.33218 2.79524ZM3.66782 6.3508L4 6.7245L4 6.7245L3.66782 6.3508ZM12.3322 6.3508L12.6644 5.97709L12.6644 5.97709L12.3322 6.3508ZM8 3.16895L8.66436 2.42154C8.28548 2.08475 7.71452 2.08475 7.33564 2.42154L8 3.16895ZM4 6.7245L8 3.16895L7.33564 2.42154L3.33564 5.97709L4 6.7245ZM4 6.7245H4L3.33564 5.97709C3.12215 6.16686 3 6.43886 3 6.7245H4ZM4 12V6.7245H3V12H4ZM4 12H4H3C3 12.5523 3.44772 13 4 13V12ZM6 12H4V13H6V12ZM7 12V8.99997H6V12H7ZM7 8.99997V7.99997C6.44772 7.99997 6 8.44769 6 8.99997H7ZM7 8.99997H9V7.99997H7V8.99997ZM9 8.99997H10C10 8.44769 9.55228 7.99997 9 7.99997V8.99997ZM9 8.99997V12H10V8.99997H9ZM12 12H10V13H12V12ZM12 12V13C12.5523 13 13 12.5523 13 12H12ZM12 6.7245V12H13V6.7245H12ZM12 6.7245L12 6.7245H13C13 6.43886 12.8779 6.16686 12.6644 5.97709L12 6.7245ZM8 3.16895L12 6.7245L12.6644 5.97709L8.66436 2.42154L8 3.16895ZM9 12C9 12.5523 9.44771 13 10 13V12H9ZM6 13C6.55228 13 7 12.5523 7 12H6V13Z" fill="currentColor" />
</svg>
