<svg width="16" height="16" viewBox="0 0 16 16" fill="none" xmlns="http://www.w3.org/2000/svg">
<path fill-rule="evenodd" clip-rule="evenodd" d="M11.5 4H4.5C4.22386 4 4 4.22386 4 4.5V9.79289L6.14645 7.64645C6.34171 7.45118 6.65829 7.45118 6.85355 7.64645L11.2071 12H11.5C11.7761 12 12 11.7761 12 11.5V4.5C12 4.22386 11.7761 4 11.5 4ZM3 10.9999V11.0001V11.5C3 12.3284 3.67157 13 4.5 13H10.9995H11.0005H11.5C12.3284 13 13 12.3284 13 11.5V4.5C13 3.67157 12.3284 3 11.5 3H4.5C3.67157 3 3 3.67157 3 4.5V10.9999ZM4.5 12H9.79289L6.5 8.70711L4 11.2071V11.5C4 11.7761 4.22386 12 4.5 12ZM9.5 7.5C10.0523 7.5 10.5 7.05228 10.5 6.5C10.5 5.94772 10.0523 5.5 9.5 5.5C8.94772 5.5 8.5 5.94772 8.5 6.5C8.5 7.05228 8.94772 7.5 9.5 7.5Z" fill="currentColor" />
</svg>
