<svg width="16" height="16" viewBox="0 0 16 16" fill="none" xmlns="http://www.w3.org/2000/svg">
<path fill-rule="evenodd" clip-rule="evenodd" d="M13 8C13 10.7614 10.7614 13 8 13C5.23858 13 3 10.7614 3 8C3 5.23858 5.23858 3 8 3C10.7614 3 13 5.23858 13 8ZM14 8C14 11.3137 11.3137 14 8 14C4.68629 14 2 11.3137 2 8C2 4.68629 4.68629 2 8 2C11.3137 2 14 4.68629 14 8ZM7.48297 10.5355C7.48297 10.8195 7.71318 11.0497 7.99717 11.0497C8.28116 11.0497 8.51137 10.8195 8.51137 10.5355V7.20027C8.51137 6.91629 8.28116 6.68607 7.99717 6.68607C7.71318 6.68607 7.48297 6.91629 7.48297 7.20027V10.5355ZM7.57956 5.90482C7.69698 6.01277 7.83713 6.06675 8.00001 6.06675C8.16478 6.06675 8.30493 6.01277 8.42047 5.90482C8.53789 5.79497 8.5966 5.66334 8.5966 5.50993C8.5966 5.35463 8.53789 5.223 8.42047 5.11505C8.30493 5.0052 8.16478 4.95027 8.00001 4.95027C7.83713 4.95027 7.69698 5.0052 7.57956 5.11505C7.46213 5.223 7.40342 5.35463 7.40342 5.50993C7.40342 5.66334 7.46213 5.79497 7.57956 5.90482Z" fill="currentColor" />
</svg>
