<svg width="16" height="16" viewBox="0 0 16 16" fill="none" xmlns="http://www.w3.org/2000/svg">
<path fill-rule="evenodd" clip-rule="evenodd" d="M7.29289 2.29289C7.68342 1.90237 8.31658 1.90237 8.70711 2.29289L13.7071 7.29289C14.0976 7.68342 14.0976 8.31658 13.7071 8.70711L8.70711 13.7071C8.31658 14.0976 7.68342 14.0976 7.29289 13.7071L2.29289 8.70711C1.90237 8.31658 1.90237 7.68342 2.29289 7.29289L7.29289 2.29289ZM3.70711 8.70711L3 8L3.70711 7.29289L7.29289 3.70711L8 3L8.70711 3.70711L12.2929 7.29289L13 8L12.2929 8.70711L8.70711 12.2929L8 13L7.29289 12.2929L3.70711 8.70711Z" fill="currentColor" />
</svg>
