<svg width="16" height="16" viewBox="0 0 16 16" fill="none" xmlns="http://www.w3.org/2000/svg">
<path fill-rule="evenodd" clip-rule="evenodd" d="M7.41091 5.14527C6.46369 4.3033 5.03631 4.3033 4.08909 5.14527L4 5.22446V10.9822C5.08026 10.3577 6.41974 10.3577 7.5 10.9822V5.22446L7.41091 5.14527ZM8.5 5.22446V10.9822C9.58026 10.3577 10.9197 10.3577 12 10.9822V5.22446L11.9109 5.14527C10.9637 4.3033 9.53631 4.3033 8.58909 5.14527L8.5 5.22446ZM8 4.33282C6.67449 3.21952 4.72597 3.2412 3.42473 4.39786L3.16782 4.62622C3.06107 4.72111 3 4.85711 3 4.99993V11.9999C3 12.1968 3.11556 12.3754 3.29517 12.456C3.47479 12.5367 3.68502 12.5044 3.83218 12.3736L4.08909 12.1453C5.03631 11.3033 6.46369 11.3033 7.41091 12.1453L7.66782 12.3736C7.85726 12.542 8.14274 12.542 8.33218 12.3736L8.58909 12.1453C9.53631 11.3033 10.9637 11.3033 11.9109 12.1453L12.1678 12.3736C12.315 12.5044 12.5252 12.5367 12.7048 12.456C12.8844 12.3754 13 12.1968 13 11.9999V4.99993C13 4.85711 12.9389 4.72111 12.8322 4.62622L12.5753 4.39786C11.274 3.2412 9.32551 3.21952 8 4.33282Z" fill="currentColor" />
</svg>
