<svg width="16" height="16" viewBox="0 0 16 16" fill="none" xmlns="http://www.w3.org/2000/svg">
<path fill-rule="evenodd" clip-rule="evenodd" d="M10.4746 8.35362C10.2794 8.54888 10.2794 8.86547 10.4746 9.06073C10.6699 9.25599 10.9865 9.25599 11.1818 9.06073L12.2424 8.00007C13.414 6.8285 13.414 4.929 12.2424 3.75743C11.0708 2.58586 9.17135 2.58586 7.99977 3.75743L6.93911 4.81809C6.74385 5.01335 6.74385 5.32993 6.93911 5.5252C7.13438 5.72046 7.45096 5.72046 7.64622 5.5252L8.70688 4.46454C9.48793 3.68349 10.7543 3.68349 11.5353 4.46454C12.3164 5.24558 12.3164 6.51191 11.5353 7.29296L10.4746 8.35362ZM9.76769 6.23229C9.96295 6.42755 9.96295 6.74413 9.76769 6.93939L6.93926 9.76782C6.744 9.96308 6.42742 9.96308 6.23216 9.76782C6.0369 9.57256 6.03689 9.25597 6.23216 9.06071L9.06058 6.23229C9.25585 6.03702 9.57243 6.03702 9.76769 6.23229ZM5.52502 6.93932C5.72028 7.13458 5.72028 7.45116 5.52502 7.64642L4.46436 8.70708C3.68331 9.48813 3.68331 10.7545 4.46436 11.5355C5.2454 12.3166 6.51173 12.3166 7.29278 11.5355L8.35344 10.4748C8.54871 10.2796 8.86529 10.2796 9.06055 10.4748C9.25581 10.6701 9.25581 10.9867 9.06055 11.182L7.99989 12.2426C6.82832 13.4142 4.92882 13.4142 3.75725 12.2426C2.58568 11.071 2.58568 9.17155 3.75725 7.99998L4.81791 6.93932C5.01317 6.74405 5.32975 6.74405 5.52502 6.93932Z" fill="currentColor" />
</svg>
