<svg width="16" height="16" viewBox="0 0 16 16" fill="none" xmlns="http://www.w3.org/2000/svg">
<path fill-rule="evenodd" clip-rule="evenodd" d="M11.5 4H4.5C4.22386 4 4 4.22386 4 4.5V11.5C4 11.7761 4.22386 12 4.5 12H6.5C6.77614 12 7 12.2239 7 12.5C7 12.7761 6.77614 13 6.5 13H4.5C3.67157 13 3 12.3284 3 11.5V4.5C3 3.67157 3.67157 3 4.5 3H11.5C12.3284 3 13 3.67157 13 4.5V6.5C13 6.77614 12.7761 7 12.5 7C12.2239 7 12 6.77614 12 6.5V4.5C12 4.22386 11.7761 4 11.5 4ZM11.4394 9.43934C12.0252 8.85355 12.9749 8.85355 13.5607 9.43934C14.1465 10.0251 14.1465 10.9749 13.5607 11.5607C13.3654 11.7559 13.3654 12.0725 13.5607 12.2678C13.756 12.463 14.0725 12.463 14.2678 12.2678C15.2441 11.2915 15.2441 9.70854 14.2678 8.73223C13.2915 7.75592 11.7086 7.75592 10.7323 8.73223C10.537 8.9275 10.537 9.24408 10.7323 9.43934C10.9275 9.6346 11.2441 9.6346 11.4394 9.43934ZM9.43934 11.4394C9.6346 11.2441 9.6346 10.9275 9.43934 10.7323C9.24408 10.537 8.9275 10.537 8.73223 10.7323C7.75592 11.7086 7.75592 13.2915 8.73223 14.2678C9.70854 15.2441 11.2915 15.2441 12.2678 14.2678C12.463 14.0725 12.463 13.756 12.2678 13.5607C12.0725 13.3654 11.7559 13.3654 11.5607 13.5607C10.9749 14.1465 10.0251 14.1465 9.43934 13.5607C8.85355 12.9749 8.85355 12.0252 9.43934 11.4394ZM12.8536 10.1464C13.0488 10.3417 13.0488 10.6583 12.8536 10.8536L10.8536 12.8536C10.6583 13.0488 10.3417 13.0488 10.1464 12.8536C9.95118 12.6583 9.95118 12.3417 10.1464 12.1464L12.1464 10.1464C12.3417 9.95118 12.6583 9.95118 12.8536 10.1464Z" fill="currentColor" />
</svg>
