<svg width="16" height="16" viewBox="0 0 16 16" fill="none" xmlns="http://www.w3.org/2000/svg">
<path fill-rule="evenodd" clip-rule="evenodd" d="M5 5C5 3.34315 6.34315 2 8 2C9.65685 2 11 3.34315 11 5V7.025C11.5706 7.14082 12 7.64526 12 8.25V11.75C12 12.4404 11.4404 13 10.75 13H5.25C4.55964 13 4 12.4404 4 11.75V8.25C4 7.55964 4.55964 7 5.25 7H10V5C10 3.89543 9.10457 3 8 3C6.89543 3 6 3.89543 6 5C6 5.27614 5.77614 5.5 5.5 5.5C5.22386 5.5 5 5.27614 5 5ZM5.25 8C5.11193 8 5 8.11193 5 8.25V11.75C5 11.8881 5.11193 12 5.25 12H10.75C10.8881 12 11 11.8881 11 11.75V8.25C11 8.11193 10.8881 8 10.75 8H5.25Z" fill="currentColor" />
</svg>
