<svg width="16" height="16" viewBox="0 0 16 16" fill="none" xmlns="http://www.w3.org/2000/svg">
<rect x="5" y="8" width="6" height="4" rx="0.25" fill="currentColor" fill-opacity="0.3" />
<path fill-rule="evenodd" clip-rule="evenodd" d="M10.7763 8H10H6H5.22365L5.19893 8.00502C5.08524 8.0281 5 8.13021 5 8.25V11.75C5 11.8881 5.11193 12 5.25 12H10.75C10.8881 12 11 11.8881 11 11.75V8.25C11 8.13022 10.9148 8.0281 10.8011 8.00502L10.7763 8ZM7 7H6V6C6 4.89543 6.89543 4 8 4C9.10457 4 10 4.89543 10 6V7H9H7ZM5 6C5 4.34315 6.34315 3 8 3C9.65685 3 11 4.34315 11 6V7V7.025C11.5706 7.14082 12 7.64526 12 8.25V11.75C12 12.4404 11.4404 13 10.75 13H5.25C4.55964 13 4 12.4404 4 11.75V8.25C4 7.64526 4.42944 7.14082 5 7.025V7V6Z" fill="currentColor" />
</svg>
