<svg width="16" height="16" viewBox="0 0 16 16" fill="none" xmlns="http://www.w3.org/2000/svg">
<path fill-rule="evenodd" clip-rule="evenodd" d="M9 9.48878V7.5C9 7.22386 8.77614 7 8.5 7H6.51122C6.6301 8.31929 7.68071 9.3699 9 9.48878ZM6.60352 6C6.92998 4.84575 7.99123 4 9.25 4C10.7688 4 12 5.23122 12 6.75C12 8.00877 11.1543 9.07002 10 9.39648V7.5C10 6.67157 9.32843 6 8.5 6H6.60352ZM13 6.75C13 8.82108 11.3211 10.5 9.25 10.5C7.17892 10.5 5.5 8.82108 5.5 6.75C5.5 4.67892 7.17892 3 9.25 3C11.3211 3 13 4.67892 13 6.75ZM4 7.5C4 7.22386 4.22386 7 4.5 7C4.77614 7 5 6.77614 5 6.5C5 6.22386 4.77614 6 4.5 6C3.67157 6 3 6.67157 3 7.5C3 7.77614 3.22386 8 3.5 8C3.77614 8 4 7.77614 4 7.5ZM4 9C4 8.72386 3.77614 8.5 3.5 8.5C3.22386 8.5 3 8.72386 3 9V10C3 10.2761 3.22386 10.5 3.5 10.5C3.77614 10.5 4 10.2761 4 10V9ZM4 11.5C4 11.2239 3.77614 11 3.5 11C3.22386 11 3 11.2239 3 11.5C3 12.3284 3.67157 13 4.5 13C4.77614 13 5 12.7761 5 12.5C5 12.2239 4.77614 12 4.5 12C4.22386 12 4 11.7761 4 11.5ZM10 11.5C10 11.2239 9.77614 11 9.5 11C9.22386 11 9 11.2239 9 11.5C9 11.7761 8.77614 12 8.5 12C8.22386 12 8 12.2239 8 12.5C8 12.7761 8.22386 13 8.5 13C9.32843 13 10 12.3284 10 11.5ZM6 12C5.72386 12 5.5 12.2239 5.5 12.5C5.5 12.7761 5.72386 13 6 13H7C7.27614 13 7.5 12.7761 7.5 12.5C7.5 12.2239 7.27614 12 7 12H6Z" fill="currentColor" />
</svg>
