<svg width="16" height="16" viewBox="0 0 16 16" fill="none" xmlns="http://www.w3.org/2000/svg">
<path fill-rule="evenodd" clip-rule="evenodd" d="M10.5 3.5C10.5 3.22386 10.7239 3 11 3H12.5C12.7761 3.00002 13 3.22386 13 3.5V5C13 5.27615 12.7761 5.5 12.5 5.5C12.2239 5.5 12 5.27615 12 5V4H11C10.7239 4 10.5 3.77614 10.5 3.5ZM3 3.5C3 3.22386 3.22386 3 3.5 3H5C5.27614 3 5.5 3.22386 5.5 3.5C5.5 3.77615 5.27614 4 5 4H4V5C4 5.27615 3.77614 5.5 3.5 5.5C3.22386 5.5 3 5.27615 3 5V3.5ZM3.5 10.5C3.77614 10.5 4 10.7239 4 11V12H5C5.27614 12 5.5 12.2239 5.5 12.5C5.5 12.7762 5.27614 13 5 13H3.5C3.22386 13 3 12.7762 3 12.5V11C3 10.7239 3.22386 10.5 3.5 10.5ZM12.5 10.5C12.7761 10.5 13 10.7239 13 11V12.5C13 12.6326 12.9473 12.7598 12.8535 12.8536C12.7598 12.9473 12.6326 13 12.5 13H11C10.7239 13 10.5 12.7761 10.5 12.5C10.5 12.2239 10.7239 12 11 12H12V11C12 10.7239 12.2239 10.5 12.5 10.5ZM6.5 6H5.5V10H6.5V6ZM5.5 5C4.94771 5 4.5 5.44771 4.5 6V10C4.5 10.5523 4.94771 11 5.5 11H6.5C7.05229 11 7.5 10.5523 7.5 10V6C7.5 5.44771 7.05229 5 6.5 5H5.5ZM9.5 6H10.5V10H9.5V6ZM8.5 6C8.5 5.44771 8.94771 5 9.5 5H10.5C11.0523 5 11.5 5.44771 11.5 6V10C11.5 10.5523 11.0523 11 10.5 11H9.5C8.94771 11 8.5 10.5523 8.5 10V6Z" fill="currentColor" />
</svg>
