<svg width="16" height="16" viewBox="0 0 16 16" fill="none" xmlns="http://www.w3.org/2000/svg">
<path fill-rule="evenodd" clip-rule="evenodd" d="M5.5 5H8.5C8.77614 5 9 5.22386 9 5.5V6H7.5C6.67157 6 6 6.67157 6 7.5V8H5.5C5.22386 8 5 7.77614 5 7.5V5.5C5 5.22386 5.22386 5 5.5 5ZM10 5.5V6H10.5C11.3284 6 12 6.67157 12 7.5V9.5C12 10.3284 11.3284 11 10.5 11H7.5C6.67157 11 6 10.3284 6 9.5V9H5.5C4.67157 9 4 8.32843 4 7.5V5.5C4 4.67157 4.67157 4 5.5 4H8.5C9.32843 4 10 4.67157 10 5.5ZM9 7H10H10.5C10.7761 7 11 7.22386 11 7.5V9.5C11 9.77614 10.7761 10 10.5 10H7.5C7.22386 10 7 9.77614 7 9.5V9V8V7.5C7 7.22386 7.22386 7 7.5 7H9ZM8.5 8C8.22386 8 8 8.22386 8 8.5C8 8.77614 8.22386 9 8.5 9H9.5C9.77614 9 10 8.77614 10 8.5C10 8.22386 9.77614 8 9.5 8H8.5Z" fill="currentColor" />
</svg>
