<svg width="16" height="16" viewBox="0 0 16 16" fill="none" xmlns="http://www.w3.org/2000/svg">
<path fill-rule="evenodd" clip-rule="evenodd" d="M4.5 3C3.67157 3 3 3.67157 3 4.5V11.5C3 12.3284 3.67157 13 4.5 13H11.5C12.3284 13 13 12.3284 13 11.5V4.5C13 3.67157 12.3284 3 11.5 3H4.5ZM4 4.5C4 4.22385 4.22386 4 4.5 4H11.5C11.7761 4 12 4.22385 12 4.5V11.5C12 11.7761 11.7761 12 11.5 12H4.5C4.22386 12 4 11.7761 4 11.5V4.5ZM7.49751 5.54975C7.52499 5.27498 7.32452 5.02996 7.04976 5.00248C6.77498 4.97501 6.52995 5.17548 6.50249 5.45025L6.44751 6H5.5C5.22386 6 5 6.22385 5 6.5C5 6.77615 5.22386 7 5.5 7H6.3475L6.14751 9H5.5C5.22386 9 5 9.22386 5 9.5C5 9.77614 5.22386 10 5.5 10H6.0475L6.00249 10.4502C5.97501 10.725 6.17548 10.97 6.45024 10.9975C6.72502 11.025 6.97005 10.8245 6.99751 10.5498L7.05249 10H8.5475L8.50249 10.4502C8.47501 10.725 8.67548 10.97 8.95024 10.9975C9.22502 11.025 9.47005 10.8245 9.49751 10.5498L9.55249 10H10.5C10.7761 10 11 9.77614 11 9.5C11 9.22386 10.7761 9 10.5 9H9.6525L9.85249 7H10.5C10.7761 7 11 6.77615 11 6.5C11 6.22385 10.7761 6 10.5 6H9.9525L9.99751 5.54975C10.025 5.27498 9.82452 5.02996 9.54976 5.00248C9.27498 4.97501 9.02995 5.17548 9.00249 5.45025L8.94751 6H7.4525L7.49751 5.54975ZM7.1525 9L7.35249 7H8.8475L8.64751 9H7.1525Z" fill="currentColor" />
</svg>
