<svg width="16" height="16" viewBox="0 0 16 16" fill="none" xmlns="http://www.w3.org/2000/svg">
<path fill-rule="evenodd" clip-rule="evenodd" d="M3.5 3.5C3.5 2.94772 3.94772 2.5 4.5 2.5H8C8.13261 2.5 8.25979 2.55268 8.35355 2.64645L12.3536 6.64645C12.4473 6.74021 12.5 6.86739 12.5 7V12.5C12.5 13.0523 12.0523 13.5 11.5 13.5H4.5C3.94772 13.5 3.5 13.0523 3.5 12.5V3.5ZM7.5 3.5H4.5V12.5H11.5V7.5H8.5C7.94772 7.5 7.5 7.05228 7.5 6.5V3.5ZM8.5 4.20711L10.7929 6.5H8.5V4.20711Z" fill="currentColor" />
</svg>
