<svg width="16" height="16" viewBox="0 0 16 16" fill="none" xmlns="http://www.w3.org/2000/svg">
<path fill-rule="evenodd" clip-rule="evenodd" d="M4 6H12C12.5523 6 13 6.44772 13 7V9C13 9.55228 12.5523 10 12 10H4C3.44772 10 3 9.55228 3 9V7C3 6.44772 3.44772 6 4 6ZM2 7C2 5.89543 2.89543 5 4 5H12C13.1046 5 14 5.89543 14 7V9C14 10.1046 13.1046 11 12 11H4C2.89543 11 2 10.1046 2 9V7ZM8 9C8.55228 9 9 8.55228 9 8C9 7.44772 8.55228 7 8 7C7.44772 7 7 7.44772 7 8C7 8.55228 7.44772 9 8 9ZM12 8C12 8.55228 11.5523 9 11 9C10.4477 9 10 8.55228 10 8C10 7.44772 10.4477 7 11 7C11.5523 7 12 7.44772 12 8ZM5 9C5.55228 9 6 8.55228 6 8C6 7.44772 5.55228 7 5 7C4.44772 7 4 7.44772 4 8C4 8.55228 4.44772 9 5 9Z" fill="currentColor" />
</svg>
