<svg width="16" height="16" viewBox="0 0 16 16" fill="none" xmlns="http://www.w3.org/2000/svg">
<path fill-rule="evenodd" clip-rule="evenodd" d="M11.0613 8.95704L11.1199 8.47601C11.2504 7.40533 10.9233 6.33787 10.2925 5.707C10.1211 5.53558 9.74163 5.31344 9.11861 5.08674C8.52367 4.87026 7.81126 4.68602 7.0791 4.53343C6.29101 4.3692 5.50767 4.24721 4.8682 4.16133L7.74099 7.0337C7.82351 7.01166 7.91023 6.99991 7.9997 6.99991C8.55199 6.99991 8.9997 7.44763 8.9997 7.99991C8.9997 8.5522 8.55199 8.99991 7.9997 8.99991C7.44742 8.99991 6.9997 8.5522 6.9997 7.99991C6.9997 7.91022 7.01151 7.82329 7.03366 7.74058L4.16112 4.86847C4.24702 5.50792 4.36901 6.29123 4.53326 7.07928C4.68585 7.81143 4.8701 8.52383 5.08658 9.11877C5.31329 9.74179 5.53542 10.1213 5.70686 10.2927C6.33181 10.9177 7.38557 11.2449 8.44795 11.1234L8.93002 11.0683L9.27167 11.4128L10.4671 12.6183L12.5884 10.497L11.4025 9.30113L11.0613 8.95704ZM12.1126 8.59701C12.2727 7.28346 11.8888 5.88911 10.9997 4.99993C9.67466 3.67478 4.83783 3.13012 3.72779 3.02111C3.58143 3.00674 3.4397 3.0599 3.3357 3.1639L3.16366 3.33595C3.05966 3.43995 3.00649 3.58168 3.02087 3.72805C3.12991 4.83809 3.67467 9.67478 4.99975 10.9999C5.88095 11.8811 7.25838 12.266 8.56159 12.1169L9.75701 13.3225C10.147 13.7158 10.7825 13.7171 11.1742 13.3254L13.2955 11.2041C13.6849 10.8148 13.6862 10.1839 13.2985 9.79291L12.1126 8.59701Z" fill="currentColor" />
</svg>
