<svg width="16" height="16" viewBox="0 0 16 16" fill="none" xmlns="http://www.w3.org/2000/svg">
<path fill-rule="evenodd" clip-rule="evenodd" d="M8.0001 8C6.89553 8 6.0001 7.10457 6.0001 6C6.0001 4.89543 6.89553 4 8.0001 4C9.10467 4 10.0001 4.89543 10.0001 6C10.0001 7.10457 9.10467 8 8.0001 8ZM5.0001 6C5.0001 4.34315 6.34324 3 8.0001 3C9.65695 3 11.0001 4.34315 11.0001 6C11.0001 7.65685 9.65695 9 8.0001 9C6.34324 9 5.0001 7.65685 5.0001 6ZM3.40204 13.4903C3.67127 13.5441 3.93321 13.3708 3.98943 13.1027L3.99138 13.0947C3.99383 13.085 3.99861 13.0672 4.00639 13.0425C4.02197 12.9929 4.04938 12.916 4.09381 12.8208C4.18266 12.6304 4.33872 12.3685 4.60365 12.1036C5.12226 11.5849 6.11372 11 8.0001 11C9.88647 11 10.8779 11.5849 11.3965 12.1036C11.6615 12.3685 11.8175 12.6304 11.9064 12.8208C11.9508 12.916 11.9782 12.9929 11.9938 13.0425C12.0016 13.0672 12.0064 13.085 12.0088 13.0947L12.0108 13.1027C12.067 13.3708 12.3289 13.5441 12.5982 13.4903C12.8689 13.4361 13.0445 13.1727 12.9904 12.9019L12.5001 13C12.9904 12.9019 12.9903 12.9016 12.9902 12.9012L12.9901 12.9004L12.9897 12.8985L12.9888 12.8942L12.9863 12.8827C12.9843 12.8738 12.9816 12.8626 12.9782 12.8491C12.9714 12.8222 12.9615 12.7863 12.9478 12.7427C12.9204 12.6555 12.8775 12.5371 12.8126 12.3979C12.6827 12.1196 12.4637 11.7565 12.1037 11.3964C11.3723 10.6651 10.1137 10 8.0001 10C5.88647 10 4.62793 10.6651 3.89654 11.3964C3.53647 11.7565 3.31753 12.1196 3.18763 12.3979C3.12269 12.5371 3.07979 12.6555 3.0524 12.7427C3.03869 12.7863 3.02882 12.8222 3.022 12.8491C3.01859 12.8626 3.01593 12.8738 3.01393 12.8827L3.01141 12.8942L3.0105 12.8985L3.01013 12.9004L3.00996 12.9012C3.00988 12.9016 3.00981 12.9019 3.5001 13L3.00981 12.9019C2.95565 13.1727 3.13126 13.4361 3.40204 13.4903Z" fill="currentColor" />
</svg>
