<svg width="16" height="16" viewBox="0 0 16 16" fill="none" xmlns="http://www.w3.org/2000/svg">
<path fill-rule="evenodd" clip-rule="evenodd" d="M8.4997 2.56811C8.4997 2.27329 8.75218 2.03947 9.04257 2.09037C9.39005 2.15126 9.72724 2.24206 10.0514 2.36001C10.3286 2.46087 10.4305 2.78977 10.283 3.04523C10.1534 3.26964 9.87563 3.35659 9.63067 3.2721C9.41079 3.19626 9.18397 3.13533 8.95141 3.09052C8.69692 3.04148 8.4997 2.82729 8.4997 2.56811ZM3.54626 11.1485C3.77039 11.0191 4.05409 11.0824 4.22382 11.2778C4.37799 11.4552 4.54447 11.6217 4.72193 11.7759C4.91728 11.9456 4.98055 12.2293 4.85115 12.4534C4.70354 12.7091 4.36737 12.7851 4.14137 12.5951C3.87502 12.3713 3.62842 12.1247 3.40455 11.8583C3.21459 11.6323 3.29059 11.2962 3.54626 11.1485ZM6.36868 12.728C6.12371 12.6435 5.84592 12.7304 5.71636 12.9549C5.56887 13.2103 5.67075 13.5392 5.94795 13.6401C6.27212 13.758 6.60933 13.8488 6.95683 13.9097C7.24722 13.9606 7.4997 13.7268 7.4997 13.432C7.4997 13.1728 7.30248 12.9586 7.04799 12.9096C6.81541 12.8648 6.58857 12.8038 6.36868 12.728ZM11.858 3.40491C11.632 3.21496 11.2958 3.29095 11.1482 3.54663C11.0188 3.77075 11.0821 4.05445 11.2774 4.22418C11.4549 4.37835 11.6214 4.54482 11.7755 4.72227C11.9453 4.91762 12.229 4.98089 12.4531 4.85149C12.7088 4.70388 12.7847 4.3677 12.5948 4.14171C12.3709 3.87537 12.1243 3.62878 11.858 3.40491ZM12.9545 10.2833C13.21 10.4308 13.5389 10.3289 13.6398 10.0517C13.7577 9.72756 13.8485 9.39034 13.9094 9.04283C13.9603 8.75244 13.7265 8.49997 13.4317 8.49997C13.1725 8.49997 12.9583 8.69719 12.9093 8.95169C12.8644 9.18427 12.8035 9.41111 12.7277 9.63101C12.6432 9.87598 12.7301 10.1538 12.9545 10.2833ZM12.5949 11.8583C12.7848 11.6323 12.7088 11.2962 12.4531 11.1485C12.229 11.0191 11.9453 11.0824 11.7756 11.2778C11.6214 11.4552 11.4549 11.6217 11.2775 11.7759C11.0821 11.9456 11.0189 12.2293 11.1483 12.4534C11.2959 12.7091 11.632 12.7851 11.858 12.5951C12.1244 12.3713 12.371 12.1247 12.5949 11.8583ZM10.0515 13.6401C10.3287 13.5392 10.4305 13.2103 10.283 12.9549C10.1535 12.7304 9.87569 12.6435 9.63072 12.728C9.41083 12.8038 9.18399 12.8648 8.95141 12.9096C8.69692 12.9586 8.4997 13.1728 8.4997 13.432C8.4997 13.7268 8.75218 13.9606 9.04257 13.9097C9.39008 13.8488 9.72729 13.758 10.0515 13.6401ZM5.71642 3.04523C5.84599 3.26964 6.12377 3.35659 6.36874 3.2721C6.58861 3.19626 6.81543 3.13534 7.04799 3.09052C7.30248 3.04148 7.4997 2.82729 7.4997 2.56811C7.4997 2.2733 7.24722 2.03947 6.95683 2.09037C6.60935 2.15126 6.27216 2.24206 5.94801 2.36C5.67081 2.46087 5.56893 2.78977 5.71642 3.04523ZM4.14142 3.40491C4.36742 3.21496 4.70359 3.29095 4.8512 3.54663C4.9806 3.77075 4.91733 4.05445 4.72197 4.22418C4.54452 4.37835 4.37805 4.54482 4.22387 4.72227C4.05414 4.91763 3.77045 4.98089 3.54633 4.85149C3.29065 4.70388 3.21466 4.36771 3.40462 4.14171C3.62849 3.87537 3.87508 3.62878 4.14142 3.40491ZM3.0449 5.7167C2.78944 5.56921 2.46055 5.67109 2.35968 5.94828C2.24173 6.27243 2.15093 6.60962 2.09003 6.95709C2.03913 7.24749 2.27296 7.49997 2.56778 7.49997C2.82695 7.49997 3.04114 7.30275 3.09018 7.04826C3.135 6.81571 3.19593 6.5889 3.27177 6.36902C3.35626 6.12405 3.26932 5.84626 3.0449 5.7167ZM2.56775 8.49997C2.27293 8.49997 2.03911 8.75244 2.09 9.04283C2.1509 9.39034 2.2417 9.72755 2.35965 10.0517C2.46051 10.3289 2.78941 10.4308 3.04487 10.2833C3.26928 10.1538 3.35623 9.87597 3.27174 9.631C3.1959 9.41111 3.13497 9.18427 3.09015 8.95169C3.04111 8.69719 2.82692 8.49997 2.56775 8.49997ZM13.4316 7.49997C13.1725 7.49997 12.9583 7.30276 12.9092 7.04827C12.8644 6.81571 12.8035 6.58889 12.7276 6.36902C12.6431 6.12405 12.7301 5.84626 12.9545 5.7167C13.21 5.56921 13.5389 5.67108 13.6397 5.94828C13.7577 6.27243 13.8485 6.60962 13.9094 6.95709C13.9603 7.24749 13.7265 7.49997 13.4316 7.49997Z" fill="currentColor" />
</svg>
