<svg width="16" height="16" viewBox="0 0 16 16" fill="none" xmlns="http://www.w3.org/2000/svg">
<path fill-rule="evenodd" clip-rule="evenodd" d="M7.99995 3C8.36123 3 8.69441 3.19486 8.87153 3.50974L13.3716 11.5097C13.5457 11.8194 13.5426 12.1982 13.3632 12.5048C13.1839 12.8115 12.8553 13 12.5 13H3.5C3.14474 13 2.81615 12.8115 2.63679 12.5048C2.45744 12.1982 2.45425 11.8194 2.62842 11.5097L7.12838 3.50974C7.3055 3.19486 7.63868 3 7.99995 3ZM7.99996 4L7.42629 5.01987L4.06249 11L3.5 12H4.64734H11.3526H12.5L11.9375 11L8.57363 5.01986L7.99996 4Z" fill="currentColor" />
</svg>
