<svg width="16" height="16" viewBox="0 0 16 16" fill="none" xmlns="http://www.w3.org/2000/svg">
<path fill-rule="evenodd" clip-rule="evenodd" d="M7.30081 5.16357C6.19242 4.49854 4.80773 4.49854 3.69934 5.16357L3.50012 5.2831V11.1337C4.75944 10.5086 6.24081 10.5086 7.50012 11.1337V5.28316L7.30081 5.16357ZM8.50012 5.2831V11.1337C9.75942 10.5086 11.2408 10.5086 12.5001 11.1336V5.28312L12.3008 5.16357C11.1924 4.49854 9.80773 4.49854 8.69934 5.16357L8.50012 5.2831ZM8.21382 12.4522C8.22863 12.4452 8.24317 12.4374 8.2574 12.4289L8.69917 12.1637C9.80767 11.4985 11.1926 11.4985 12.3011 12.1637L12.7428 12.4289C12.9796 12.5709 13.2868 12.4942 13.4289 12.2574C13.4793 12.1733 13.5022 12.0804 13.5001 11.9892V5.00968C13.5004 4.99052 13.4997 4.9714 13.4978 4.95242C13.4909 4.87855 13.4678 4.80936 13.4322 4.74839C13.4003 4.69342 13.3575 4.64395 13.3047 4.60351C13.2869 4.58975 13.268 4.57717 13.2483 4.56589L12.8153 4.30608C11.3902 3.45103 9.60992 3.45103 8.18484 4.30608L8.00008 4.41694L7.81531 4.30608C6.39024 3.45103 4.60992 3.45103 3.18484 4.30608L2.75096 4.56641C2.73482 4.5757 2.71925 4.58587 2.7043 4.59686C2.64178 4.64261 2.59263 4.70079 2.55821 4.76587C2.51831 4.84134 2.49823 4.9261 2.50012 5.01156V11.9919C2.49909 12.0514 2.50867 12.1116 2.52961 12.1696C2.54192 12.2037 2.55784 12.2361 2.57691 12.2664C2.63685 12.3617 2.72399 12.4301 2.82215 12.4674C2.83997 12.4742 2.85828 12.48 2.87702 12.4847C3.00166 12.5164 3.1384 12.5003 3.25739 12.4289L3.69928 12.1637C4.80772 11.4986 6.19252 11.4986 7.30097 12.1637L7.74286 12.4289C7.75709 12.4374 7.77163 12.4452 7.78644 12.4522C7.80892 12.4628 7.83232 12.4718 7.85649 12.4791C7.95013 12.5071 8.05012 12.5071 8.14377 12.4791C8.16794 12.4718 8.19134 12.4628 8.21382 12.4522Z" fill="currentColor" />
</svg>
