<svg width="16" height="16" viewBox="0 0 16 16" fill="none" xmlns="http://www.w3.org/2000/svg">
<path fill-rule="evenodd" clip-rule="evenodd" d="M7.29781 2.44866C7.54114 1.79979 8.45897 1.79979 8.7023 2.44866L9.84655 5.50001H13.2399C13.9637 5.50001 14.2676 6.42399 13.685 6.85361L10.8633 8.93461L11.7971 12.0209C12.003 12.7015 11.2345 13.2599 10.6508 12.8537L8.00005 11.0091L5.34929 12.8537C4.76561 13.2599 3.99712 12.7015 4.20303 12.0209L5.13676 8.93461L2.31508 6.85361C1.73254 6.42399 2.03642 5.50001 2.76024 5.50001H6.15355L7.29781 2.44866ZM8.00005 3.42401L7.02905 6.01335C6.91928 6.30608 6.63944 6.50001 6.3268 6.50001H3.52042L5.8723 8.23452C6.12769 8.42288 6.2369 8.75157 6.14501 9.05531L5.36846 11.6221L7.57167 10.089C7.82916 9.90978 8.17095 9.90978 8.42844 10.089L10.6317 11.6221L9.8551 9.05531C9.76321 8.75157 9.87242 8.42288 10.1278 8.23452L12.4797 6.50001H9.6733C9.36067 6.50001 9.08083 6.30608 8.97106 6.01335L8.00005 3.42401Z" fill="currentColor" />
</svg>
