<svg width="16" height="16" viewBox="0 0 16 16" fill="none" xmlns="http://www.w3.org/2000/svg">
<path fill-rule="evenodd" clip-rule="evenodd" d="M3.52735 7.5008C3.77571 5.25044 5.68343 3.5 7.99998 3.5C9.33273 3.5 10.5302 4.07938 11.3541 5H10C9.72386 5 9.5 5.22386 9.5 5.5C9.5 5.77614 9.72386 6 10 6H12.5C12.7761 6 13 5.77614 13 5.5V3C13 2.72386 12.7761 2.5 12.5 2.5C12.2239 2.5 12 2.72386 12 3V4.22509C10.9972 3.1629 9.57602 2.5 7.99998 2.5C5.13083 2.5 2.7748 4.69694 2.52237 7.50037C2.4976 7.7754 2.72384 8 2.99998 8C3.27612 8 3.49706 7.77528 3.52735 7.5008ZM4.64582 11H6C6.27614 11 6.5 10.7761 6.5 10.5C6.5 10.2239 6.27614 10 6 10H3.5C3.22386 10 3 10.2239 3 10.5V13C3 13.2761 3.22386 13.5 3.5 13.5C3.77614 13.5 4 13.2761 4 13V11.775C5.00277 12.8371 6.42396 13.5 7.99998 13.5C10.8691 13.5 13.2252 11.3031 13.4776 8.49963C13.5024 8.2246 13.2761 8 13 8C12.7238 8 12.5029 8.22472 12.4726 8.4992C12.2242 10.7496 10.3165 12.5 7.99998 12.5C6.66723 12.5 5.4698 11.9206 4.64582 11Z" fill="currentColor" />
</svg>
