<svg width="16" height="16" viewBox="0 0 16 16" fill="none" xmlns="http://www.w3.org/2000/svg">
<path fill-rule="evenodd" clip-rule="evenodd" d="M6.35355 2.14645C6.54882 2.34171 6.54882 2.65829 6.35355 2.85355L5.20711 4H8.5C11.2614 4 13.5 6.23858 13.5 9C13.5 11.7614 11.2614 14 8.5 14C5.73858 14 3.5 11.7614 3.5 9C3.5 8.72386 3.72386 8.5 4 8.5C4.27614 8.5 4.5 8.72386 4.5 9C4.5 11.2091 6.29086 13 8.5 13C10.7091 13 12.5 11.2091 12.5 9C12.5 6.79086 10.7091 5 8.5 5H5.20711L6.35355 6.14645C6.54882 6.34171 6.54882 6.65829 6.35355 6.85355C6.15829 7.04882 5.84171 7.04882 5.64645 6.85355L3.64645 4.85355C3.45118 4.65829 3.45118 4.34171 3.64645 4.14645L5.64645 2.14645C5.84171 1.95118 6.15829 1.95118 6.35355 2.14645Z" fill="currentColor" />
</svg>
