<svg width="16" height="16" viewBox="0 0 16 16" fill="none" xmlns="http://www.w3.org/2000/svg">
<path fill-rule="evenodd" clip-rule="evenodd" d="M8.00045 9.29155C8.441 9.29155 8.85856 9.19319 9.23238 9.01723C9.07617 8.25847 8.62312 7.60807 7.99995 7.19277C7.3769 7.60799 6.92391 8.25823 6.76762 9.0168C7.14167 9.19303 7.55955 9.29155 8.00045 9.29155ZM5.90087 8.39023C6.10708 7.76085 6.4693 7.20212 6.94179 6.75975C6.76502 6.72603 6.58255 6.70839 6.39595 6.70839C5.95541 6.70839 5.53784 6.80675 5.16402 6.98271C5.27499 7.5217 5.53575 8.00602 5.90087 8.39023ZM7.99995 6.05283C7.51078 5.83156 6.96775 5.70839 6.39595 5.70839C5.95816 5.70839 5.53724 5.78059 5.14445 5.91374C5.37398 4.54391 6.56527 3.5 8.00045 3.5C9.43576 3.5 10.6271 4.5441 10.8565 5.9141C10.4634 5.78072 10.0421 5.70839 9.60396 5.70839C9.03215 5.70839 8.48912 5.83156 7.99995 6.05283ZM11.896 6.45356C11.8963 6.43433 11.8964 6.41507 11.8964 6.39578C11.8964 4.2442 10.1521 2.5 8.00045 2.5C5.84878 2.5 4.1045 4.2442 4.1045 6.39578C4.1045 6.41483 4.10464 6.43385 4.10491 6.45284C3.13221 7.16116 2.5 8.30883 2.5 9.60416C2.5 11.7557 4.24428 13.4999 6.39595 13.4999C6.96775 13.4999 7.51078 13.3768 7.99995 13.1555C8.48912 13.3768 9.03215 13.4999 9.60396 13.4999C11.7556 13.4999 13.4999 11.7557 13.4999 9.60416C13.4999 8.30927 12.8681 7.16194 11.896 6.45356ZM10.8368 6.98314C10.4627 6.80691 10.0449 6.70839 9.60396 6.70839C9.41736 6.70839 9.23489 6.72603 9.05811 6.75975C9.53081 7.2023 9.89312 7.76131 10.0993 8.39101C10.4647 8.00678 10.7257 7.52233 10.8368 6.98314ZM11.7035 7.60972C12.1971 8.12903 12.4999 8.83124 12.4999 9.60416C12.4999 11.2034 11.2034 12.4999 9.60396 12.4999C9.41736 12.4999 9.23489 12.4823 9.05811 12.4486C9.81741 11.7377 10.2919 10.7263 10.2919 9.60416C10.2919 9.58511 10.2918 9.56609 10.2915 9.5471C10.9459 9.07056 11.4462 8.39516 11.7035 7.60972ZM7.99995 12.0155C8.65166 11.5812 9.1173 10.8898 9.25196 10.0862C8.85916 10.2193 8.43824 10.2916 8.00045 10.2916C7.56227 10.2916 7.14099 10.2192 6.74789 10.0858C6.88247 10.8896 7.34816 11.5812 7.99995 12.0155ZM6.94179 12.4486C6.1825 11.7377 5.70801 10.7263 5.70801 9.60416C5.70801 9.58487 5.70815 9.5656 5.70843 9.54638C5.05428 9.06972 4.55425 8.39431 4.29711 7.60893C3.80315 8.12832 3.5 8.83085 3.5 9.60416C3.5 11.2034 4.79652 12.4999 6.39595 12.4999C6.58255 12.4999 6.76502 12.4823 6.94179 12.4486Z" fill="currentColor" />
</svg>
