<svg width="16" height="16" viewBox="0 0 16 16" fill="none" xmlns="http://www.w3.org/2000/svg">
<path fill-rule="evenodd" clip-rule="evenodd" d="M8.5 2C8.77614 2 9 2.22386 9 2.5V3.10002C11.2822 3.56329 13 5.58104 13 8C13 10.419 11.2822 12.4367 9 12.9V13.5C9 13.7761 8.77614 14 8.5 14H8C4.68629 14 2 11.3137 2 8C2 4.68629 4.68629 2 8 2H8.5ZM8 12V12.5V13C5.23857 13 3 10.7614 3 8C3 5.23857 5.23857 3 8 3V3.5V4V12ZM9 4.12602V11.874C10.7252 11.4299 12 9.86383 12 8C12 6.13617 10.7252 4.57007 9 4.12602Z" fill="currentColor" />
</svg>
