<svg width="16" height="16" viewBox="0 0 16 16" fill="none" xmlns="http://www.w3.org/2000/svg">
<path fill-rule="evenodd" clip-rule="evenodd" d="M4.5 4H11.5C11.7761 4 12 4.22386 12 4.5V11.5C12 11.7761 11.7761 12 11.5 12H4.5C4.22386 12 4 11.7761 4 11.5V4.5C4 4.22386 4.22386 4 4.5 4ZM3 4.5C3 3.67157 3.67157 3 4.5 3H11.5C12.3284 3 13 3.67157 13 4.5V11.5C13 12.3284 12.3284 13 11.5 13H4.5C3.67157 13 3 12.3284 3 11.5V4.5ZM6 5.5C5.72386 5.5 5.5 5.72386 5.5 6V6.5C5.5 6.77614 5.72386 7 6 7C6.27614 7 6.5 6.77614 6.5 6.5H7.5V9.5C7.22386 9.5 7 9.72386 7 10C7 10.2761 7.22386 10.5 7.5 10.5H8H8.5C8.77614 10.5 9 10.2761 9 10C9 9.72386 8.77614 9.5 8.5 9.5V6.5H9.5C9.5 6.77614 9.72386 7 10 7C10.2761 7 10.5 6.77614 10.5 6.5V6C10.5 5.72386 10.2761 5.5 10 5.5H8H6Z" fill="currentColor" />
</svg>
