<svg width="16" height="16" viewBox="0 0 16 16" fill="none" xmlns="http://www.w3.org/2000/svg">
<path fill-rule="evenodd" clip-rule="evenodd" d="M4 4H12C12.5523 4 13 4.44772 13 5V10C13 10.5523 12.5523 11 12 11H11.2618H10.2165H5.78352H4.73824H4C3.44772 11 3 10.5523 3 10V5C3 4.44772 3.44772 4 4 4ZM4.43389 12H4C2.89543 12 2 11.1046 2 10V5C2 3.89543 2.89543 3 4 3H12C13.1046 3 14 3.89543 14 5V10C14 11.1046 13.1046 12 12 12H11.5661L11.9783 13.3544C12.0587 13.6186 11.9098 13.8979 11.6456 13.9783C11.3814 14.0587 11.1021 13.9098 11.0217 13.6456L10.5208 12H5.47918L4.97835 13.6456C4.89795 13.9098 4.61861 14.0587 4.35443 13.9783C4.09025 13.8979 3.94127 13.6186 4.02167 13.3544L4.43389 12ZM5 5C4.44772 5 4 5.44772 4 6C4 6.55228 4.44772 7 5 7C5.55228 7 6 6.55228 6 6C6 5.44772 5.55228 5 5 5ZM5 8C4.44772 8 4 8.44772 4 9C4 9.55228 4.44772 10 5 10C5.55228 10 6 9.55228 6 9C6 8.44772 5.55228 8 5 8Z" fill="currentColor" />
</svg>
