<svg width="16" height="16" viewBox="0 0 16 16" fill="none" xmlns="http://www.w3.org/2000/svg">
<path fill-rule="evenodd" clip-rule="evenodd" d="M5.5 5H10.5C10.7761 5 11 5.22386 11 5.5V9.5C11 9.77614 10.7761 10 10.5 10H9.62863H6.37087H5.5C5.22386 10 5 9.77614 5 9.5V5.5C5 5.22386 5.22386 5 5.5 5ZM5.11659 10.9506C4.4739 10.7811 4 10.1959 4 9.5V5.5C4 4.67157 4.67157 4 5.5 4H10.5C11.3284 4 12 4.67157 12 5.5V9.5C12 10.1961 11.5259 10.7814 10.8829 10.9507L10.9862 11.3842C11.0501 11.6528 10.8842 11.9224 10.6156 11.9864C10.3469 12.0504 10.0773 11.8844 10.0133 11.6158L9.86672 11H6.13277L5.98615 11.6158C5.92219 11.8844 5.65257 12.0504 5.38394 11.9864C5.1153 11.9224 4.94938 11.6528 5.01334 11.3842L5.11659 10.9506ZM6.5 6C6.22386 6 6 6.22386 6 6.5C6 6.77614 6.22386 7 6.5 7C6.77614 7 7 6.77614 7 6.5C7 6.22386 6.77614 6 6.5 6ZM6.5 8C6.22386 8 6 8.22386 6 8.5C6 8.77614 6.22386 9 6.5 9C6.77614 9 7 8.77614 7 8.5C7 8.22386 6.77614 8 6.5 8Z" fill="currentColor" />
</svg>
