<svg width="16" height="16" viewBox="0 0 16 16" fill="none" xmlns="http://www.w3.org/2000/svg">
<path fill-rule="evenodd" clip-rule="evenodd" d="M9 6.78909L9.33308 6.49097C9.74385 6.12332 10 5.59224 10 5C10 3.89543 9.10457 3 8 3C6.89543 3 6 3.89543 6 5C6 5.59224 6.25615 6.12332 6.66692 6.49097L7 6.78909V7.2361V8.5H9V7.2361V6.78909ZM10 8.57645V8.5V7.2361C10.6138 6.68678 11 5.8885 11 5C11 3.34314 9.65686 2 8 2C6.34314 2 5 3.34314 5 5C5 5.8885 5.38625 6.68678 6 7.2361V8.5V8.57645L3.4178 9.00681C3.17671 9.04698 3 9.25558 3 9.5V11.5C3 11.7761 3.22386 12 3.5 12H12.5C12.7761 12 13 11.7761 13 11.5V9.5C13 9.25558 12.8233 9.04698 12.5822 9.00681L10 8.57645ZM9.45862 9.5H9H7H6.54138L4 9.92357V11H12V9.92357L9.45862 9.5ZM5 13.5C5 13.2239 5.22386 13 5.5 13H10.5C10.7761 13 11 13.2239 11 13.5C11 13.7761 10.7761 14 10.5 14H5.5C5.22386 14 5 13.7761 5 13.5Z" fill="currentColor" />
</svg>
