<svg width="16" height="16" viewBox="0 0 16 16" fill="none" xmlns="http://www.w3.org/2000/svg">
<path fill-rule="evenodd" clip-rule="evenodd" d="M8.00047 2C8.43509 2 8.81995 2.28073 8.95269 2.69459L9.85248 5.5H12.7558C13.1908 5.5 13.576 5.78133 13.7084 6.1958C13.8407 6.61027 13.6899 7.06275 13.3353 7.31492L11.0074 8.97053L11.9453 11.672C12.0873 12.0813 11.9497 12.5356 11.6043 12.7972C11.2589 13.0587 10.7844 13.0682 10.4289 12.8205L8.00049 11.1286L5.57223 12.8205C5.21675 13.0682 4.74221 13.0588 4.39683 12.7972C4.05144 12.5356 3.91378 12.0814 4.05585 11.6721L4.99355 8.97056L2.66561 7.31492C2.31105 7.06275 2.16022 6.61027 2.29258 6.1958C2.42494 5.78133 2.8101 5.5 3.24519 5.5H6.14846L7.04825 2.69459C7.18099 2.28073 7.56585 2 8.00047 2ZM6.8779 6.5H4.9706H3.24519L4.65126 7.5L6.18411 8.59017L5.55855 10.3924L5.00056 12L6.39674 11.0272L8.00047 9.90983L9.60432 11.0272L11.0006 12L10.4425 10.3924L9.81683 8.59017L11.3497 7.5L12.7558 6.5H11.0303H9.12304L8.52556 4.63714L8.00047 3L7.47538 4.63714L6.8779 6.5Z" fill="currentColor" />
</svg>
