<svg width="16" height="16" viewBox="0 0 16 16" fill="none" xmlns="http://www.w3.org/2000/svg">
<path fill-rule="evenodd" clip-rule="evenodd" d="M4.5 4H11.5C11.7761 4 12 4.22386 12 4.5V8H8.5C8.22386 8 8 8.22386 8 8.5V12H4.5C4.22386 12 4 11.7761 4 11.5V4.5C4 4.22386 4.22386 4 4.5 4ZM9 11.9445C9.1412 11.8954 9.27097 11.8148 9.37868 11.7071L11.7071 9.37868C11.8148 9.27097 11.8954 9.1412 11.9445 9H9V11.9445ZM11.5 3H4.5C3.67157 3 3 3.67157 3 4.5V11.5C3 12.3284 3.67157 13 4.5 13H8.67157C9.20201 13 9.71071 12.7893 10.0858 12.4142L12.4142 10.0858C12.7893 9.71071 13 9.20201 13 8.67157V4.5C13 3.67157 12.3284 3 11.5 3Z" fill="currentColor" />
</svg>
