<svg width="16" height="16" viewBox="0 0 16 16" fill="none" xmlns="http://www.w3.org/2000/svg">
<path fill-rule="evenodd" clip-rule="evenodd" d="M8 2.5C7.44771 2.5 7 2.94771 7 3.5V6H9V3.5C9 2.94771 8.55229 2.5 8 2.5ZM7 9.49982V7H9V9.49982V9.74959L9.19971 9.8996C9.68661 10.2653 10 10.846 10 11.5C10 12.6046 9.10457 13.5 8 13.5C6.89543 13.5 6 12.6046 6 11.5C6 10.846 6.31339 10.2653 6.80029 9.8996L7 9.74959V9.49982ZM6 3.5C6 2.39543 6.89543 1.5 8 1.5C9.10457 1.5 10 2.39543 10 3.5V9.26392C10.6131 9.81265 11 10.6112 11 11.5C11 13.1569 9.65686 14.5 8 14.5C6.34314 14.5 5 13.1569 5 11.5C5 10.6112 5.38695 9.81265 6 9.26392V3.5ZM11.5 4C11.2239 4 11 4.22386 11 4.5C11 4.77614 11.2239 5 11.5 5H12.5C12.7761 5 13 4.77614 13 4.5C13 4.22386 12.7761 4 12.5 4H11.5ZM11 6.5C11 6.22386 11.2239 6 11.5 6H12.5C12.7761 6 13 6.22386 13 6.5C13 6.77614 12.7761 7 12.5 7H11.5C11.2239 7 11 6.77614 11 6.5ZM11.5 8C11.2239 8 11 8.22386 11 8.5C11 8.77614 11.2239 9 11.5 9H12.5C12.7761 9 13 8.77614 13 8.5C13 8.22386 12.7761 8 12.5 8H11.5Z" fill="currentColor" />
</svg>
