<svg width="16" height="16" viewBox="0 0 16 16" fill="none" xmlns="http://www.w3.org/2000/svg">
<path fill-rule="evenodd" clip-rule="evenodd" d="M7.99965 3L8.73352 2.32071C8.54425 2.11624 8.27827 2 7.99965 2C7.72102 2 7.45504 2.11624 7.26577 2.32071L7.99965 3ZM11.6036 9C11.3471 7.22211 9.62672 4.93198 8.65858 3.76197C8.26785 3.28976 7.99965 3 7.99965 3C8.73352 2.32071 8.73364 2.32084 8.73377 2.32099L8.73411 2.32135L8.73503 2.32235L8.73786 2.32541L8.7474 2.3358L8.78142 2.37315C8.81051 2.40525 8.85217 2.45157 8.90461 2.5108C9.00943 2.62918 9.1576 2.79948 9.33472 3.01112C9.68803 3.43331 10.1611 4.02543 10.6362 4.70212C11.1092 5.37568 11.5978 6.15207 11.9716 6.94142C12.3375 7.71397 12.636 8.58637 12.636 9.42857C12.636 11.9702 10.5432 14 7.99965 14C5.45612 14 3.36328 11.9702 3.36328 9.42857C3.36328 8.58637 3.66183 7.71397 4.02769 6.94142C4.4015 6.15207 4.89011 5.37568 5.36308 4.70212C5.83824 4.02543 6.31126 3.43331 6.66457 3.01112C6.84169 2.79948 6.98986 2.62918 7.09468 2.5108C7.14712 2.45157 7.18878 2.40525 7.21787 2.37315L7.25189 2.3358L7.26143 2.32541L7.26426 2.32235L7.26518 2.32135L7.26552 2.32099C7.26565 2.32084 7.26577 2.32071 7.99965 3C7.99965 3 7.73144 3.28976 7.34071 3.76197C6.37257 4.93198 4.6522 7.22211 4.39565 9H11.6036ZM11.5897 10H4.40958C4.68806 11.7008 6.18937 13 7.99965 13C9.80992 13 11.3112 11.7008 11.5897 10Z" fill="currentColor" />
</svg>
