<svg width="16" height="16" viewBox="0 0 16 16" fill="none" xmlns="http://www.w3.org/2000/svg">
<path fill-rule="evenodd" clip-rule="evenodd" d="M10.5 3H12.5C12.7761 3 13 3.22386 13 3.5V5.5C13 5.77614 12.7761 6 12.5 6H10.5C10.2239 6 10 5.77614 10 5.5V3.5C10 3.22386 10.2239 3 10.5 3ZM9 3.5C9 2.67157 9.67157 2 10.5 2H12.5C13.3284 2 14 2.67157 14 3.5V5.5C14 6.32843 13.3284 7 12.5 7H10.5C9.67157 7 9 6.32843 9 5.5V3.5ZM4.5 5H6.5C6.77614 5 7 5.22386 7 5.5V7.5C7 7.77614 6.77614 8 6.5 8H4.5C4.22386 8 4 7.77614 4 7.5V5.5C4 5.22386 4.22386 5 4.5 5ZM3.38194 8.5C3.14442 8.23462 3 7.88419 3 7.5V5.5C3 4.67157 3.67157 4 4.5 4H6.5C7.32843 4 8 4.67157 8 5.5V7.5C8 7.73119 7.94771 7.95016 7.85429 8.14572C8.04985 8.05231 8.26883 8 8.5 8H10.5C11.3284 8 12 8.67157 12 9.5V11.5C12 12.3284 11.3284 13 10.5 13H8.5C8.11581 13 7.76538 12.8556 7.5 12.6181C7.23462 12.8556 6.88419 13 6.5 13H4.5C3.67157 13 3 12.3284 3 11.5V9.5C3 9.11581 3.14442 8.76538 3.38194 8.5ZM6.5 9C6.77614 9 7 9.22386 7 9.5V11.5C7 11.7761 6.77614 12 6.5 12H4.5C4.22386 12 4 11.7761 4 11.5V9.5C4 9.22386 4.22386 9 4.5 9H6.5ZM8.5 12C8.22386 12 8 11.7761 8 11.5V9.5C8 9.22386 8.22386 9 8.5 9H10.5C10.7761 9 11 9.22386 11 9.5V11.5C11 11.7761 10.7761 12 10.5 12H8.5Z" fill="currentColor" />
</svg>
