<svg width="16" height="16" viewBox="0 0 16 16" fill="none" xmlns="http://www.w3.org/2000/svg">
<path fill-rule="evenodd" clip-rule="evenodd" d="M12.5 4.2534L9 2.23267C8.3812 1.87541 7.6188 1.87541 7 2.23267L3.5 4.2534C2.8812 4.61066 2.5 5.27092 2.5 5.98545V10.0269C2.5 10.7414 2.8812 11.4017 3.5 11.7589L7 13.7797C7.6188 14.1369 8.3812 14.1369 9 13.7797L12.5 11.7589C13.1188 11.4017 13.5 10.7414 13.5 10.0269V5.98545C13.5 5.27092 13.1188 4.61066 12.5 4.2534ZM7.5 3.0987C7.8094 2.92006 8.1906 2.92006 8.5 3.0987L12 5.11942C12.3094 5.29805 12.5 5.62818 12.5 5.98545V10.0269C12.5 10.3842 12.3094 10.7143 12 10.8929L8.5 12.9136C8.1906 13.0923 7.8094 13.0923 7.5 12.9136L4 10.8929C3.6906 10.7143 3.5 10.3842 3.5 10.0269V5.98545C3.5 5.62818 3.6906 5.29805 4 5.11942L7.5 3.0987ZM9 7.00002H7V9.00002H9V7.00002Z" fill="currentColor" />
</svg>
