<svg width="16" height="16" viewBox="0 0 16 16" fill="none" xmlns="http://www.w3.org/2000/svg">
<path fill-rule="evenodd" clip-rule="evenodd" d="M8 2C11.3137 2 14 4.68629 14 8C14 9.26533 12.8948 10 11.8933 10H10.5C10.2239 10 10 10.2239 10 10.5V11.8933C10 12.8948 9.26533 14 8 14C4.68629 14 2 11.3137 2 8C2 4.68629 4.68629 2 8 2ZM13 8C13 8.58572 12.479 9 11.8933 9H10.5C9.67157 9 9 9.67157 9 10.5V11.8933C9 12.479 8.58572 13 8 13C5.23858 13 3 10.7614 3 8C3 5.23858 5.23858 3 8 3C10.7614 3 13 5.23858 13 8ZM9 5C9 5.55228 8.55228 6 8 6C7.44772 6 7 5.55228 7 5C7 4.44772 7.44772 4 8 4C8.55228 4 9 4.44772 9 5ZM9.73205 7C10.0082 7.47829 10.6198 7.64217 11.0981 7.36603C11.5764 7.08988 11.7402 6.47829 11.4641 6C11.188 5.52171 10.5764 5.35783 10.0981 5.63397C9.61978 5.91012 9.45591 6.52171 9.73205 7ZM6.00017 10.3662C5.52187 10.6423 4.91028 10.4785 4.63414 10.0002C4.358 9.52187 4.52187 8.91028 5.00017 8.63414C5.47846 8.358 6.09005 8.52187 6.36619 9.00017C6.64233 9.47846 6.47846 10.09 6.00017 10.3662ZM5.50006 7.49994C6.05234 7.49994 6.50006 7.05223 6.50006 6.49994C6.50006 5.94766 6.05234 5.49994 5.50006 5.49994C4.94777 5.49994 4.50006 5.94766 4.50006 6.49994C4.50006 7.05223 4.94777 7.49994 5.50006 7.49994Z" fill="currentColor" />
</svg>
