<svg width="16" height="16" viewBox="0 0 16 16" fill="none" xmlns="http://www.w3.org/2000/svg">
<path fill-rule="evenodd" clip-rule="evenodd" d="M7.50743 3.26842L10.039 4.76324C10.6482 5.12299 11.0221 5.77787 11.0221 6.48542V9.51432C11.0221 10.2219 10.6482 10.8767 10.039 11.2365L7.50743 12.7313C6.88009 13.1017 6.10095 13.1017 5.47361 12.7313L2.94208 11.2365C2.33282 10.8767 1.95898 10.2219 1.95898 9.51432V6.48542C1.95898 5.77788 2.33282 5.12299 2.94208 4.76324L5.47361 3.26842C6.10095 2.89799 6.88009 2.89799 7.50743 3.26842ZM6.99897 4.12951C6.6853 3.9443 6.29573 3.9443 5.98206 4.12951L3.45053 5.62433C3.1459 5.8042 2.95898 6.13165 2.95898 6.48542V9.51432C2.95898 9.86809 3.1459 10.1955 3.45053 10.3754L5.98206 11.8702C6.29573 12.0554 6.6853 12.0554 6.99897 11.8702L9.53051 10.3754C9.83513 10.1955 10.0221 9.86809 10.0221 9.51432V6.48542C10.0221 6.13165 9.83513 5.8042 9.53051 5.62433L6.99897 4.12951ZM10.5074 12.7315C9.88296 13.1002 9.10807 13.1019 8.48223 12.7366L9.79327 11.9624C9.86424 11.9399 9.93327 11.9092 9.99897 11.8704L12.5305 10.3756C12.8351 10.1957 13.0221 9.86827 13.0221 9.5145V6.4856C13.0221 6.13183 12.8351 5.80439 12.5305 5.62451L9.99897 4.1297C9.93327 4.0909 9.86424 4.06023 9.79327 4.03769L8.48223 3.26355C9.10807 2.89819 9.88296 2.89988 10.5074 3.26861L13.039 4.76342C13.6482 5.12318 14.0221 5.77806 14.0221 6.4856V9.5145C14.0221 10.222 13.6482 10.8769 13.039 11.2367L10.5074 12.7315ZM7.99036 4.71528L7.99052 4.71518L7.00715 4.13452L7.00699 4.13462L7.99036 4.71528ZM6.50024 8.99988C7.05253 8.99988 7.50024 8.55216 7.50024 7.99988C7.50024 7.44759 7.05253 6.99988 6.50024 6.99988C5.94796 6.99988 5.50024 7.44759 5.50024 7.99988C5.50024 8.55216 5.94796 8.99988 6.50024 8.99988Z" fill="currentColor" />
</svg>
