<svg width="16" height="16" viewBox="0 0 16 16" fill="none" xmlns="http://www.w3.org/2000/svg">
<path fill-rule="evenodd" clip-rule="evenodd" d="M3.03523 8.06934C3.02276 8.03988 3.01436 8.01688 3.00876 8C3.01436 7.98312 3.02276 7.96012 3.03523 7.93066C3.07867 7.82796 3.15426 7.68763 3.27024 7.51836C3.50196 7.18018 3.85832 6.77978 4.32321 6.39693C5.25703 5.6279 6.53973 5 8 5C9.46027 5 10.743 5.6279 11.6768 6.39693C12.1417 6.77978 12.498 7.18018 12.7298 7.51836C12.8457 7.68763 12.9213 7.82796 12.9648 7.93066C12.9772 7.96012 12.9856 7.98312 12.9912 8C12.9856 8.01688 12.9772 8.03988 12.9648 8.06934C12.9213 8.17204 12.8457 8.31237 12.7298 8.48164C12.498 8.81982 12.1417 9.22022 11.6768 9.60307C10.743 10.3721 9.46027 11 8 11C6.53973 11 5.25702 10.3721 4.32321 9.60307C3.85832 9.22022 3.50196 8.81982 3.27024 8.48164C3.15426 8.31237 3.07867 8.17204 3.03523 8.06934ZM2 8C2 7 4.5 4 8 4C11.5 4 14 7 14 8C14 9 11.5 12 8 12C4.5 12 2 9 2 8ZM8 9C8.55228 9 9 8.55228 9 8C9 7.44772 8.55228 7 8 7C7.44772 7 7 7.44772 7 8C7 8.55228 7.44772 9 8 9Z" fill="currentColor" />
</svg>
