<svg width="16" height="16" viewBox="0 0 16 16" fill="none" xmlns="http://www.w3.org/2000/svg">
<path fill-rule="evenodd" clip-rule="evenodd" d="M6.5 3C6.22386 3 6 3.22386 6 3.5V6H3.5C3.22386 6 3 6.22386 3 6.5C3 6.77614 3.22386 7 3.5 7H6V9.5C6 9.77614 6.22386 10 6.5 10C6.77614 10 7 9.77614 7 9.5V7H9.5C9.77614 7 10 6.77614 10 6.5C10 6.22386 9.77614 6 9.5 6H7V3.5C7 3.22386 6.77614 3 6.5 3ZM10 3.75C10 4.16421 9.66421 4.5 9.25 4.5C8.83579 4.5 8.5 4.16421 8.5 3.75C8.5 3.33579 8.83579 3 9.25 3C9.66421 3 10 3.33579 10 3.75ZM3.75 4.5C4.16421 4.5 4.5 4.16421 4.5 3.75C4.5 3.33579 4.16421 3 3.75 3C3.33579 3 3 3.33579 3 3.75C3 4.16421 3.33579 4.5 3.75 4.5ZM4.5 9.25C4.5 9.66421 4.16421 10 3.75 10C3.33579 10 3 9.66421 3 9.25C3 8.83579 3.33579 8.5 3.75 8.5C4.16421 8.5 4.5 8.83579 4.5 9.25ZM9.35355 8.64645C9.15829 8.45118 8.84171 8.45118 8.64645 8.64645C8.45118 8.84171 8.45118 9.15829 8.64645 9.35355L12.1464 12.8536C12.3417 13.0488 12.6583 13.0488 12.8536 12.8536C13.0488 12.6583 13.0488 12.3417 12.8536 12.1464L9.35355 8.64645Z" fill="currentColor" />
</svg>
