<svg width="16" height="16" viewBox="0 0 16 16" fill="none" xmlns="http://www.w3.org/2000/svg">
<path fill-rule="evenodd" clip-rule="evenodd" d="M6.28463 2.91461L2.0508 9.97096C1.25097 11.304 2.2112 13 3.76578 13H12.2334C13.788 13 14.7482 11.304 13.9484 9.97097L9.7146 2.91462C8.9378 1.61994 7.06144 1.61993 6.28463 2.91461ZM2.90829 10.4855L7.14212 3.42911C7.53053 2.78177 8.46871 2.78177 8.85711 3.42911L13.0909 10.4855C13.4908 11.152 13.0107 12 12.2334 12H3.76578C2.98849 12 2.50838 11.152 2.90829 10.4855ZM8.5381 5.54976C8.54498 5.24819 8.3024 5 8.00074 5C7.69923 5 7.4567 5.24796 7.46337 5.54939L7.532 8.65052C7.53763 8.90478 7.74535 9.10795 7.99967 9.10795C8.25386 9.10795 8.46153 8.90497 8.46733 8.65085L8.5381 5.54976ZM7.55633 10.6989C7.67944 10.8201 7.82716 10.8807 7.99951 10.8807C8.11315 10.8807 8.21637 10.8532 8.30917 10.7983C8.40387 10.7415 8.47963 10.6657 8.53644 10.571C8.59516 10.4763 8.62451 10.3712 8.62451 10.2557C8.62451 10.0852 8.56201 9.93939 8.43701 9.81818C8.31391 9.69697 8.16807 9.63636 7.99951 9.63636C7.82716 9.63636 7.67944 9.69697 7.55633 9.81818C7.43512 9.93939 7.37451 10.0852 7.37451 10.2557C7.37451 10.4299 7.43512 10.5777 7.55633 10.6989Z" fill="currentColor" />
</svg>
