<svg width="16" height="16" viewBox="0 0 16 16" fill="none" xmlns="http://www.w3.org/2000/svg">
<path fill-rule="evenodd" clip-rule="evenodd" d="M5.92948 4.00002H6.3437L6.63659 3.70712L7.64698 2.69674C7.84224 2.50148 8.15882 2.50148 8.35408 2.69674L9.36447 3.70712L9.65736 4.00002H10.0716H11.5005C11.7767 4.00002 12.0005 4.22387 12.0005 4.50002V5.92897V6.34319L12.2934 6.63608L13.3038 7.64649C13.4991 7.84175 13.4991 8.15833 13.3038 8.35359L12.2934 9.364L12.0005 9.6569V10.0711V11.5C12.0005 11.7762 11.7767 12 11.5005 12H10.0716H9.65741L9.36451 12.2929L8.35408 13.3033C8.15882 13.4986 7.84224 13.4986 7.64698 13.3033L6.63654 12.2929L6.34365 12H5.92944H4.50053C4.22439 12 4.00053 11.7762 4.00053 11.5V10.0711V9.65689L3.70764 9.364L2.69723 8.35359C2.50197 8.15833 2.50197 7.84175 2.69723 7.64649L3.70764 6.63608L4.00053 6.34319V5.92897V4.50002C4.00053 4.22388 4.22439 4.00002 4.50053 4.00002H5.92948ZM9.06119 1.98963C8.4754 1.40385 7.52566 1.40385 6.93987 1.98963L5.92948 3.00002H4.50053C3.6721 3.00002 3.00053 3.67159 3.00053 4.50002V5.92897L1.99012 6.93938C1.40433 7.52517 1.40433 8.47491 1.99012 9.0607L3.00053 10.0711V11.5C3.00053 12.3284 3.6721 13 4.50053 13H5.92944L6.93987 14.0104C7.52565 14.5962 8.4754 14.5962 9.06119 14.0104L10.0716 13H11.5005C12.329 13 13.0005 12.3284 13.0005 11.5V10.0711L14.0109 9.0607C14.5967 8.47491 14.5967 7.52517 14.0109 6.93938L13.0005 5.92897V4.50002C13.0005 3.67159 12.329 3.00002 11.5005 3.00002H10.0716L9.06119 1.98963ZM8.47483 5.15811C8.56215 4.89614 8.42057 4.61298 8.1586 4.52566C7.89663 4.43833 7.61347 4.57991 7.52615 4.84189L6.52615 7.84189C6.47532 7.99436 6.50089 8.16197 6.59487 8.29236C6.68884 8.42274 6.83977 8.5 7.00049 8.5H8.30678L7.52615 10.8419C7.43882 11.1039 7.5804 11.387 7.84237 11.4743C8.10435 11.5617 8.38751 11.4201 8.47483 11.1581L9.47483 8.15811C9.52565 8.00564 9.50008 7.83803 9.40611 7.70764C9.31213 7.57726 9.16121 7.5 9.00049 7.5H7.6942L8.47483 5.15811Z" fill="currentColor" />
</svg>
