<svg width="16" height="16" viewBox="0 0 16 16" fill="none" xmlns="http://www.w3.org/2000/svg">
<path fill-rule="evenodd" clip-rule="evenodd" d="M5.52512 13.6568L8.17677 11.0052L8.88388 11.7123L6.23223 14.364C4.96302 15.6332 2.90524 15.6332 1.63603 14.364C0.366828 13.0948 0.366828 11.037 1.63603 9.76776L4.28768 7.11611L4.99479 7.82322L2.34314 10.4749C1.46446 11.3535 1.46446 12.7782 2.34314 13.6568C3.22182 14.5355 4.64644 14.5355 5.52512 13.6568ZM11.7123 8.88388L11.0052 8.17677L13.6568 5.52512C14.5355 4.64644 14.5355 3.22182 13.6568 2.34314C12.7782 1.46446 11.3535 1.46446 10.4749 2.34314L7.82322 4.99479L7.11611 4.28768L9.76776 1.63603C11.037 0.36683 13.0948 0.36683 14.364 1.63603C15.6332 2.90524 15.6332 4.96302 14.364 6.23223L11.7123 8.88388ZM6.26169 10.5043L10.5043 6.26169L9.7383 5.49566L5.49566 9.7383L6.26169 10.5043Z" fill="black"/>
</svg>
