<svg width="16" height="16" viewBox="0 0 16 16" fill="none" xmlns="http://www.w3.org/2000/svg">
<path fill-rule="evenodd" clip-rule="evenodd" d="M4.315 6.336L3.836 6.193L3.686 6.696L4.165 6.839L4.315 6.336ZM4.615 5.33L4.136 5.187L3.986 5.69L4.465 5.833L4.615 5.33ZM4.287 4.684L4.766 4.827L4.916 4.324L4.437 4.181L4.287 4.684ZM5.217 3.319L4.738 3.176L4.588 3.679L5.067 3.822L5.217 3.319ZM10.783 12.712L11.262 12.855L11.412 12.352L10.933 12.209L10.783 12.712ZM11.713 11.347L11.234 11.204L11.084 11.707L11.563 11.85L11.713 11.347ZM11.385 10.701L11.864 10.844L12.014 10.341L11.535 10.198L11.385 10.701ZM11.685 9.695L12.164 9.838L12.314 9.335L11.835 9.192L11.685 9.695ZM5.5 3.25C6.19 3.25 6.75 2.69 6.75 2C6.75 1.31 6.19 0.75 5.5 0.75C4.81 0.75 4.25 1.31 4.25 2C4.25 2.69 4.81 3.25 5.5 3.25ZM5.5 1.25C5.914 1.25 6.25 1.586 6.25 2C6.25 2.414 5.914 2.75 5.5 2.75C5.086 2.75 4.75 2.414 4.75 2C4.75 1.586 5.086 1.25 5.5 1.25ZM10.5 12.75C9.81 12.75 9.25 13.31 9.25 14C9.25 14.69 9.81 15.25 10.5 15.25C11.19 15.25 11.75 14.69 11.75 14C11.75 13.31 11.19 12.75 10.5 12.75ZM10.5 14.75C10.086 14.75 9.75 14.414 9.75 14C9.75 13.586 10.086 13.25 10.5 13.25C10.914 13.25 11.25 13.586 11.25 14C11.25 14.414 10.914 14.75 10.5 14.75ZM13.5 3C12.672 3 12 3.672 12 4.5C12 4.955 12.206 5.357 12.526 5.632C12.515 5.623 12.501 5.619 12.49 5.609C12.242 6.165 11.922 6.84 11.56 7.513C10.068 10.285 9.223 10.5 9 10.5C8.907 10.5 8.734 10.5 8.613 9.954C8.5 9.445 8.5 8.711 8.5 8C8.5 7.236 8.5 6.445 8.363 5.829C8.119 4.731 7.487 4.5 7 4.5C6.066 4.5 5.065 5.43 3.951 7.323L3.535 7.198L3.385 7.701L3.686 7.791C3.644 7.867 3.603 7.934 3.56 8.013C3.514 8.098 3.477 8.178 3.433 8.263L3.235 8.204L3.085 8.707L3.191 8.739C3.11 8.902 3.029 9.06 2.955 9.216L2.935 9.21L2.894 9.349C2.788 9.574 2.678 9.805 2.589 10.004C2.605 10.005 2.619 10.013 2.634 10.015C2.588 10.009 2.546 10 2.5 10C1.672 10 1 10.672 1 11.5C1 12.328 1.672 13 2.5 13C3.328 13 4 12.328 4 11.5C4 11.045 3.793 10.643 3.474 10.368C3.485 10.377 3.5 10.382 3.51 10.391C3.758 9.835 4.078 9.16 4.44 8.487C5.932 5.715 6.777 5.5 7 5.5C7.093 5.5 7.266 5.5 7.387 6.046C7.5 6.555 7.5 7.29 7.5 8C7.5 8.764 7.5 9.555 7.637 10.171C7.881 11.269 8.513 11.5 9 11.5C9.93 11.5 10.926 10.579 12.034 8.704L12.466 8.833L12.616 8.33L12.3 8.235C12.347 8.15 12.393 8.075 12.441 7.986C12.482 7.91 12.515 7.839 12.555 7.763L12.767 7.826L12.917 7.323L12.797 7.287C12.878 7.125 12.96 6.966 13.034 6.81L13.067 6.82L13.135 6.594C13.231 6.389 13.332 6.177 13.414 5.995C13.398 5.994 13.385 5.986 13.369 5.984C13.412 5.991 13.455 6 13.5 6C14.328 6 15 5.328 15 4.5C15 3.672 14.328 3 13.5 3ZM3.5 11.5C3.5 12.051 3.051 12.5 2.5 12.5C1.949 12.5 1.5 12.051 1.5 11.5C1.5 10.949 1.949 10.5 2.5 10.5C3.051 10.5 3.5 10.949 3.5 11.5ZM13.5 5.5C12.949 5.5 12.5 5.051 12.5 4.5C12.5 3.949 12.949 3.5 13.5 3.5C14.051 3.5 14.5 3.949 14.5 4.5C14.5 5.051 14.051 5.5 13.5 5.5Z" fill="black"/>
</svg>
