<svg width="16" height="16" viewBox="0 0 16 16" fill="none" xmlns="http://www.w3.org/2000/svg">
<path fill-rule="evenodd" clip-rule="evenodd" d="M14.6096 5.68765L13.4349 7.15603C13.4268 7.10387 13.4179 7.05185 13.4083 7C13.2568 6.18064 12.9202 5.40189 12.4189 4.72539C11.7168 3.77797 10.7289 3.08128 9.60069 2.73808C8.47253 2.39489 7.26394 2.42337 6.1532 2.81933C5.36009 3.10206 4.64685 3.56145 4.06473 4.15764C3.8316 4.3964 3.6195 4.6571 3.43172 4.93718L3.43186 4.93728L4.26231 5.49406L4.26245 5.49416C4.79971 4.69282 5.58029 4.08538 6.48904 3.76143C7.39779 3.43748 8.3866 3.41418 9.3096 3.69496C10.2326 3.97574 11.0409 4.54574 11.6153 5.32088C12.1001 5.97502 12.3966 6.74603 12.4773 7.55063L10.2773 6.08398L9.72264 6.91603L12.7226 8.91603L13.1041 9.1703L13.3904 8.81235L15.3904 6.31235L14.6096 5.68765ZM2.60956 7.18765L0.609558 9.68765L1.39043 10.3123L2.56513 8.84397C2.57323 8.89614 2.58207 8.94815 2.59166 9C2.74317 9.81936 3.07975 10.5981 3.58106 11.2746C4.28314 12.222 5.27113 12.9187 6.39929 13.2619C7.52745 13.6051 8.73604 13.5766 9.84678 13.1807C10.6399 12.8979 11.3531 12.4386 11.9353 11.8424C12.1679 11.6041 12.3796 11.344 12.5671 11.0646L12.5683 11.0628L12.5681 11.0627L11.7377 10.5059L11.7375 10.5058L11.7365 10.5074C11.1993 11.308 10.4191 11.9148 9.51095 12.2386C8.60219 12.5625 7.61338 12.5858 6.69038 12.305C5.76737 12.0243 4.95905 11.4543 4.38464 10.6791C3.89989 10.025 3.6034 9.25397 3.52265 8.44937L5.72264 9.91603L6.27734 9.08398L3.27734 7.08398L2.89592 6.8297L2.60956 7.18765Z" fill="black"/>
</svg>
