<svg width="16" height="16" viewBox="0 0 16 16" fill="none" xmlns="http://www.w3.org/2000/svg">
<path fill-rule="evenodd" clip-rule="evenodd" d="M8 0L16 14.5H0L8 0ZM8 4.38174C8.49706 4.38174 8.9 4.78468 8.9 5.28174V8.36954C8.9 8.8666 8.49706 9.26954 8 9.26954C7.50294 9.26954 7.1 8.8666 7.1 8.36954V5.28174C7.1 4.78468 7.50294 4.38174 8 4.38174ZM9.10007 11.7568C9.10007 11.1493 8.60759 10.6568 8.00007 10.6568C7.39256 10.6568 6.90007 11.1493 6.90007 11.7568V11.8254C6.90007 12.4329 7.39256 12.9254 8.00007 12.9254C8.60759 12.9254 9.10007 12.4329 9.10007 11.8254V11.7568Z" fill="black"/>
</svg>
