<svg width="24" height="24" viewBox="0 0 24 24" fill="none" xmlns="http://www.w3.org/2000/svg">
<path fill-rule="evenodd" clip-rule="evenodd" d="M8 7H15C15.5523 7 16 7.44772 16 8V11.126C15.6804 11.0438 15.3453 11 15 11C12.7909 11 11 12.7909 11 15C11 15.3453 11.0438 15.6804 11.126 16H8C7.44772 16 7 15.5523 7 15V8C7 7.44772 7.44772 7 8 7ZM17 8V11.5351C18.1956 12.2267 19 13.5194 19 15C19 17.2091 17.2091 19 15 19C13.5194 19 12.2267 18.1956 11.5351 17H8C6.89543 17 6 16.1046 6 15V8C6 6.89543 6.89543 6 8 6H15C16.1046 6 17 6.89543 17 8ZM16 12.1707C16.3726 12.3024 16.7115 12.5056 17 12.7639C17.6137 13.3132 18 14.1115 18 15C18 16.6569 16.6569 18 15 18C14.1115 18 13.3132 17.6137 12.7639 17C12.5056 16.7115 12.3024 16.3726 12.1707 16C12.0602 15.6872 12 15.3506 12 15C12 13.3431 13.3431 12 15 12C15.3506 12 15.6872 12.0602 16 12.1707ZM15.5 13.5C15.5 13.2239 15.2761 13 15 13C14.7239 13 14.5 13.2239 14.5 13.5V14.5H13.5C13.2239 14.5 13 14.7239 13 15C13 15.2761 13.2239 15.5 13.5 15.5H14.5V16.5C14.5 16.7761 14.7239 17 15 17C15.2761 17 15.5 16.7761 15.5 16.5V15.5H16.5C16.7761 15.5 17 15.2761 17 15C17 14.7239 16.7761 14.5 16.5 14.5H15.5V13.5Z" fill="currentColor" />
</svg>
