<svg width="24" height="24" viewBox="0 0 24 24" fill="none" xmlns="http://www.w3.org/2000/svg">
<path fill-rule="evenodd" clip-rule="evenodd" d="M15.8619 8.82383C14.1079 6.69098 10.957 6.38385 8.82416 8.13783C7.75763 9.0149 7.14782 10.2403 7.0236 11.5146C6.99681 11.7894 6.75229 11.9905 6.47745 11.9637C6.20261 11.9369 6.00153 11.6924 6.02832 11.4176C6.17721 9.89007 6.90939 8.41775 8.18899 7.36546C10.7484 5.26068 14.5295 5.62924 16.6342 8.18865C16.7657 8.34855 16.8876 8.51333 17 8.68226V6.49987C17 6.22372 17.2239 5.99987 17.5 5.99987C17.7761 5.99987 18 6.22372 18 6.49987V9.49987C18 9.77601 17.7761 9.99987 17.5 9.99987H14.5C14.2239 9.99987 14 9.77601 14 9.49987C14 9.22372 14.2239 8.99987 14.5 8.99987H16.0003C15.9557 8.94049 15.9095 8.88179 15.8619 8.82383ZM17.5226 12.0356C17.7974 12.0624 17.9985 12.3069 17.9717 12.5818C17.8228 14.1093 17.0906 15.5816 15.811 16.6339C13.2516 18.7387 9.47056 18.3701 7.36579 15.8107C7.23428 15.6508 7.11237 15.486 7 15.3171V17.4999C7 17.776 6.77614 17.9999 6.5 17.9999C6.22386 17.9999 6 17.776 6 17.4999V14.4999C6 14.2237 6.22386 13.9999 6.5 13.9999H9.5C9.77614 13.9999 10 14.2237 10 14.4999C10 14.776 9.77614 14.9999 9.5 14.9999H8.00003C8.04455 15.0591 8.09059 15.1177 8.13816 15.1755C9.89214 17.3084 13.043 17.6155 15.1759 15.8615C16.2424 14.9845 16.8522 13.7591 16.9764 12.4848C17.0032 12.2099 17.2477 12.0088 17.5226 12.0356Z" fill="currentColor" />
</svg>
