<svg width="24" height="24" viewBox="0 0 24 24" fill="none" xmlns="http://www.w3.org/2000/svg">
<path fill-rule="evenodd" clip-rule="evenodd" d="M8 7H16C16.5523 7 17 7.44772 17 8V16C17 16.5523 16.5523 17 16 17H8C7.44772 17 7 16.5523 7 16V8C7 7.44772 7.44772 7 8 7ZM6 8C6 6.89543 6.89543 6 8 6H16C17.1046 6 18 6.89543 18 8V16C18 17.1046 17.1046 18 16 18H8C6.89543 18 6 17.1046 6 16V8ZM14.1213 10.5858C14.3166 10.3905 14.3166 10.074 14.1213 9.87869C13.9261 9.68343 13.6095 9.68343 13.4142 9.87869L12 11.2929L10.5858 9.87869C10.3905 9.68343 10.0739 9.68343 9.87868 9.87869C9.68342 10.074 9.68342 10.3905 9.87868 10.5858L11.2929 12L9.87868 13.4142C9.68342 13.6095 9.68342 13.9261 9.87868 14.1213C10.0739 14.3166 10.3905 14.3166 10.5858 14.1213L12 12.7071L13.4142 14.1213C13.6095 14.3166 13.9261 14.3166 14.1213 14.1213C14.3166 13.9261 14.3166 13.6095 14.1213 13.4142L12.7071 12L14.1213 10.5858Z" fill="currentColor" />
</svg>
