<svg width="24" height="24" viewBox="0 0 24 24" fill="none" xmlns="http://www.w3.org/2000/svg">
<path fill-rule="evenodd" clip-rule="evenodd" d="M12.5 7H11.5V17H12.5V7ZM11.5 6C10.9477 6 10.5 6.44771 10.5 7V17C10.5 17.5523 10.9477 18 11.5 18H12.5C13.0523 18 13.5 17.5523 13.5 17V7C13.5 6.44771 13.0523 6 12.5 6H11.5ZM5 12C5 11.6852 5.14819 11.3889 5.39999 11.2L7.39999 9.7C7.70302 9.47273 8.10843 9.43619 8.44722 9.60558C8.786 9.77496 9 10.1212 9 10.5V13.5C9 13.8788 8.786 14.225 8.44722 14.3944C8.10843 14.5638 7.70302 14.5273 7.39999 14.3L5.39999 12.8C5.14819 12.6111 5 12.3148 5 12ZM6.83333 11.375L6 12L6.83333 12.625L7 12.75L8 13.5V12.25V11.75V10.5L7 11.25L6.83333 11.375ZM18.6 11.2C18.8518 11.3889 19 11.6852 19 12C19 12.3148 18.8518 12.6111 18.6 12.8L16.6 14.3C16.297 14.5273 15.8916 14.5638 15.5528 14.3944C15.214 14.225 15 13.8788 15 13.5V10.5C15 10.1212 15.214 9.77496 15.5528 9.60558C15.8916 9.43619 16.297 9.47273 16.6 9.7L18.6 11.2ZM18 12L17.1667 11.375L17 11.25L16 10.5V11.75V12.25V13.5L17 12.75L17.1667 12.625L18 12Z" fill="currentColor" />
</svg>
