<svg width="24" height="24" viewBox="0 0 24 24" fill="none" xmlns="http://www.w3.org/2000/svg">
<path fill-rule="evenodd" clip-rule="evenodd" d="M8.20711 3.79289C7.81658 3.40237 7.18342 3.40237 6.79289 3.79289L3.79289 6.79289C3.40237 7.18342 3.40237 7.81658 3.79289 8.20711L6.79289 11.2071C7.18342 11.5976 7.81658 11.5976 8.20711 11.2071L11.2071 8.20711C11.5976 7.81658 11.5976 7.18342 11.2071 6.79289L8.20711 3.79289ZM4.5 7.5L5.20711 8.20711L6.79289 9.79289L7.5 10.5L8.20711 9.79289L9.79289 8.20711L10.5 7.5L9.79289 6.79289L8.20711 5.20711L7.5 4.5L6.79289 5.20711L5.20711 6.79289L4.5 7.5ZM16.5 11C18.433 11 20 9.433 20 7.5C20 5.567 18.433 4 16.5 4C14.567 4 13 5.567 13 7.5C13 9.433 14.567 11 16.5 11ZM19 7.5C19 8.88071 17.8807 10 16.5 10C15.1193 10 14 8.88071 14 7.5C14 6.11929 15.1193 5 16.5 5C17.8807 5 19 6.11929 19 7.5ZM16.5 13C16.7762 13 17 13.2239 17 13.5V16H19.5C19.7762 16 20 16.2239 20 16.5C20 16.7761 19.7762 17 19.5 17H17V19.5C17 19.7761 16.7762 20 16.5 20C16.2239 20 16 19.7761 16 19.5V17H13.5C13.2239 17 13 16.7761 13 16.5C13 16.2239 13.2239 16 13.5 16H16V13.5C16 13.2239 16.2239 13 16.5 13ZM11 15C11 13.8954 10.1046 13 9 13H6C4.89543 13 4 13.8954 4 15V18C4 19.1046 4.89543 20 6 20H9C10.1046 20 11 19.1046 11 18V15ZM5 15C5 14.4477 5.44772 14 6 14H9C9.55228 14 10 14.4477 10 15V18C10 18.5523 9.55228 19 9 19H6C5.44772 19 5 18.5523 5 18V15Z" fill="currentColor" />
</svg>
