<svg width="24" height="24" viewBox="0 0 24 24" fill="none" xmlns="http://www.w3.org/2000/svg">
<path fill-rule="evenodd" clip-rule="evenodd" d="M14.0001 7C14.0001 7.93329 13.3608 8.71727 12.4962 8.93797C12.4988 8.95829 12.5001 8.97899 12.5001 9V10H13.5C13.7761 10 14 10.2239 14 10.5C14 10.7761 13.7761 11 13.5 11H12.5001V16.9753C14.2286 16.8037 15.6988 15.7518 16.4551 14.2724C16.5808 14.0265 16.882 13.9291 17.1279 14.0548C17.3738 14.1805 17.4712 14.4817 17.3455 14.7276C16.4247 16.5289 14.6188 17.8046 12.5001 17.9795V18.5C12.5001 18.7761 12.2762 19 12.0001 19C11.7239 19 11.5001 18.7761 11.5001 18.5V17.9795C9.38128 17.8047 7.57535 16.5289 6.65451 14.7276C6.52882 14.4817 6.62625 14.1805 6.87213 14.0548C7.11801 13.9291 7.41923 14.0265 7.54492 14.2724C8.3012 15.7519 9.77148 16.8037 11.5001 16.9753V11H10.5C10.2239 11 10 10.7761 10 10.5C10 10.2239 10.2239 10 10.5 10H11.5001V9C11.5001 8.97899 11.5014 8.95829 11.5039 8.93797C10.6393 8.71727 10.0001 7.93329 10.0001 7C10.0001 5.89543 10.8955 5 12.0001 5C13.1046 5 14.0001 5.89543 14.0001 7ZM12.0001 8C12.5523 8 13.0001 7.55228 13.0001 7C13.0001 6.44772 12.5523 6 12.0001 6C11.4478 6 11.0001 6.44772 11.0001 7C11.0001 7.55228 11.4478 8 12.0001 8Z" fill="currentColor" />
</svg>
