<svg width="24" height="24" viewBox="0 0 24 24" fill="none" xmlns="http://www.w3.org/2000/svg">
<path fill-rule="evenodd" clip-rule="evenodd" d="M8.85355 7.14645C9.04881 7.34171 9.04882 7.65829 8.85355 7.85355L6.7071 10L15.5 10C17.433 10 19 11.567 19 13.5C19 15.433 17.433 17 15.5 17H14.5C14.2239 17 14 16.7762 14 16.5C14 16.2239 14.2239 16 14.5 16H15.5C16.8807 16 18 14.8807 18 13.5C18 12.1193 16.8807 11 15.5 11L6.70711 11L8.85355 13.1464C9.04881 13.3417 9.04882 13.6583 8.85355 13.8536C8.65829 14.0488 8.34171 14.0488 8.14645 13.8536L5.14645 10.8536C5.05268 10.7598 5 10.6326 5 10.5C5 10.3674 5.05268 10.2402 5.14645 10.1465L8.14645 7.14645C8.34171 6.95119 8.65829 6.95118 8.85355 7.14645Z" fill="currentColor" />
</svg>
