<svg width="24" height="24" viewBox="0 0 24 24" fill="none" xmlns="http://www.w3.org/2000/svg">
<path fill-rule="evenodd" clip-rule="evenodd" d="M12 5C12.2761 5 12.5 5.22386 12.5 5.5V8H15C15.8284 8 16.5 8.67157 16.5 9.5V11.5C16.5 11.7761 16.2761 12 16 12C15.7239 12 15.5 11.7761 15.5 11.5V9.5C15.5 9.22386 15.2761 9 15 9H12H9C8.72386 9 8.5 9.22386 8.5 9.5V11.5C8.5 11.7761 8.27614 12 8 12C7.72386 12 7.5 11.7761 7.5 11.5V9.5C7.5 8.67157 8.17157 8 9 8H11.5V5.5C11.5 5.22386 11.7239 5 12 5ZM6.14645 14.1464C6.34171 13.9512 6.65829 13.9512 6.85355 14.1464L8 15.2929L9.14645 14.1464C9.34171 13.9512 9.65829 13.9512 9.85355 14.1464C10.0488 14.3417 10.0488 14.6583 9.85355 14.8536L8.70711 16L9.85355 17.1464C10.0488 17.3417 10.0488 17.6583 9.85355 17.8536C9.65829 18.0488 9.34171 18.0488 9.14645 17.8536L8 16.7071L6.85355 17.8536C6.65829 18.0488 6.34171 18.0488 6.14645 17.8536C5.95118 17.6583 5.95118 17.3417 6.14645 17.1464L7.29289 16L6.14645 14.8536C5.95118 14.6583 5.95118 14.3417 6.14645 14.1464ZM17 16C17 16.5523 16.5523 17 16 17C15.4477 17 15 16.5523 15 16C15 15.4477 15.4477 15 16 15C16.5523 15 17 15.4477 17 16ZM18 16C18 17.1046 17.1046 18 16 18C14.8954 18 14 17.1046 14 16C14 14.8954 14.8954 14 16 14C17.1046 14 18 14.8954 18 16Z" fill="currentColor" />
</svg>
