<svg width="24" height="24" viewBox="0 0 24 24" fill="none" xmlns="http://www.w3.org/2000/svg">
<path fill-rule="evenodd" clip-rule="evenodd" d="M13.6464 5.14645C13.8417 4.95118 14.1583 4.95118 14.3536 5.14645L15 5.79289L15.6464 5.14645C15.8417 4.95118 16.1583 4.95118 16.3536 5.14645C16.5488 5.34171 16.5488 5.65829 16.3536 5.85355L15.3536 6.85355C15.1583 7.04882 14.8417 7.04882 14.6464 6.85355L13.6464 5.85355C13.4512 5.65829 13.4512 5.34171 13.6464 5.14645ZM9 7H10V8V9V15V16V17H9L9 16V15V9V8L9 7ZM8 8V7C8 6.44772 8.44772 6 9 6H10C10.5523 6 11 6.44772 11 7V8H18C18.5523 8 19 8.44772 19 9V15C19 15.5523 18.5523 16 18 16H11V17C11 17.5523 10.5523 18 10 18H9C8.44772 18 8 17.5523 8 17V16H6C5.44772 16 5 15.5523 5 15V9C5 8.44772 5.44772 8 6 8H8ZM8 9H6V15H8V9ZM11 15H18V9H11V15ZM14.3536 18.8536C14.1583 19.0488 13.8417 19.0488 13.6464 18.8536C13.4512 18.6583 13.4512 18.3417 13.6464 18.1464L14.6464 17.1464C14.8417 16.9512 15.1583 16.9512 15.3536 17.1464L16.3536 18.1464C16.5488 18.3417 16.5488 18.6583 16.3536 18.8536C16.1583 19.0488 15.8417 19.0488 15.6464 18.8536L15 18.2071L14.3536 18.8536Z" fill="currentColor" />
</svg>
