<svg width="24" height="24" viewBox="0 0 24 24" fill="none" xmlns="http://www.w3.org/2000/svg">
<path fill-rule="evenodd" clip-rule="evenodd" d="M9.20711 5.79289C8.81658 5.40237 8.18342 5.40237 7.79289 5.79289L5.79289 7.79289C5.40237 8.18342 5.40237 8.81658 5.79289 9.20711L7.79289 11.2071C8.18342 11.5976 8.81658 11.5976 9.20711 11.2071L11.2071 9.20711C11.5976 8.81658 11.5976 8.18342 11.2071 7.79289L9.20711 5.79289ZM6.5 8.5L7.20711 9.20711L7.79289 9.79289L8.5 10.5L9.20711 9.79289L9.79289 9.20711L10.5 8.5L9.79289 7.79289L9.20711 7.20711L8.5 6.5L7.79289 7.20711L7.20711 7.79289L6.5 8.5ZM15.5 11C16.8807 11 18 9.88071 18 8.5C18 7.11929 16.8807 6 15.5 6C14.1193 6 13 7.11929 13 8.5C13 9.88071 14.1193 11 15.5 11ZM17 8.5C17 9.32843 16.3284 10 15.5 10C14.6716 10 14 9.32843 14 8.5C14 7.67157 14.6716 7 15.5 7C16.3284 7 17 7.67157 17 8.5ZM15.5 13C15.7762 13 16 13.2239 16 13.5V15H17.5C17.7762 15 18 15.2239 18 15.5C18 15.7761 17.7762 16 17.5 16H16V17.5C16 17.7761 15.7762 18 15.5 18C15.2239 18 15 17.7761 15 17.5V16H13.5C13.2239 16 13 15.7761 13 15.5C13 15.2239 13.2239 15 13.5 15H15V13.5C15 13.2239 15.2239 13 15.5 13ZM9.5 13H7.5C6.67157 13 6 13.6716 6 14.5V16.5C6 17.3284 6.67157 18 7.5 18H9.5C10.3284 18 11 17.3284 11 16.5V14.5C11 13.6716 10.3284 13 9.5 13ZM7 14.5C7 14.2239 7.22386 14 7.5 14H9.5C9.77614 14 10 14.2239 10 14.5V16.5C10 16.7761 9.77614 17 9.5 17H7.5C7.22386 17 7 16.7761 7 16.5V14.5Z" fill="currentColor" />
</svg>
