<svg width="24" height="24" viewBox="0 0 24 24" fill="none" xmlns="http://www.w3.org/2000/svg">
<path fill-rule="evenodd" clip-rule="evenodd" d="M16 7H17V17H16V7ZM15 7C15 6.44772 15.4477 6 16 6H17C17.5523 6 18 6.44772 18 7V17C18 17.5523 17.5523 18 17 18H16C15.4477 18 15 17.5523 15 17V7ZM5.5 8C5.22386 8 5 8.22386 5 8.5C5 8.77614 5.22386 9 5.5 9H13V15H5.5C5.22386 15 5 15.2239 5 15.5C5 15.7761 5.22386 16 5.5 16H13.5C13.7761 16 14 15.7761 14 15.5V8.5C14 8.22386 13.7761 8 13.5 8H5.5Z" fill="currentColor" />
</svg>
