<svg width="24" height="24" viewBox="0 0 24 24" fill="none" xmlns="http://www.w3.org/2000/svg">
<path fill-rule="evenodd" clip-rule="evenodd" d="M15.1464 7.14742C14.9512 7.34268 14.9512 7.65927 15.1464 7.85453L17.2929 10.001L8.5 10.001C6.567 10.001 5 11.568 5 13.501C5 15.434 6.567 17.001 8.5 17.001H9.5C9.77614 17.001 10 16.7771 10 16.501C10 16.2249 9.77614 16.001 9.5 16.001H8.5C7.11929 16.001 6 14.8817 6 13.501C6 12.1203 7.11929 11.001 8.5 11.001L17.2929 11.001L15.1464 13.1474C14.9512 13.3427 14.9512 13.6593 15.1464 13.8545C15.3417 14.0498 15.6583 14.0498 15.8536 13.8545L18.8536 10.8546C18.9473 10.7608 19 10.6336 19 10.501C19 10.3684 18.9473 10.2412 18.8536 10.1475L15.8536 7.14742C15.6583 6.95216 15.3417 6.95216 15.1464 7.14742Z" fill="currentColor" />
</svg>
