<svg width="24" height="24" viewBox="0 0 24 24" fill="none" xmlns="http://www.w3.org/2000/svg">
<path fill-rule="evenodd" clip-rule="evenodd" d="M6 6.5C6 6.22386 6.22386 6 6.5 6H9C10.1046 6 11 6.89543 11 8V9.5C11 9.77614 10.7761 10 10.5 10C10.2239 10 10 9.77614 10 9.5V8C10 7.44771 9.55229 7 9 7H6.5C6.22386 7 6 6.77614 6 6.5ZM10.5 14C10.7761 14 11 14.2239 11 14.5V16C11 17.1046 10.1046 18 9 18H6.5C6.22386 18 6 17.7761 6 17.5C6 17.2239 6.22386 17 6.5 17H9C9.55229 17 10 16.5523 10 16V14.5C10 14.2239 10.2239 14 10.5 14ZM18 6.5C18 6.22386 17.7761 6 17.5 6H15C13.8954 6 13 6.89543 13 8V9.5C13 9.77614 13.2239 10 13.5 10C13.7761 10 14 9.77614 14 9.5V8C14 7.44771 14.4477 7 15 7H17.5C17.7761 7 18 6.77614 18 6.5ZM13.5 14C13.2239 14 13 14.2239 13 14.5V16C13 17.1046 13.8954 18 15 18H17.5C17.7761 18 18 17.7761 18 17.5C18 17.2239 17.7761 17 17.5 17H15C14.4477 17 14 16.5523 14 16V14.5C14 14.2239 13.7761 14 13.5 14ZM8.35355 10.8535C8.54881 10.6583 8.54881 10.3417 8.35355 10.1465C8.15829 9.95119 7.84171 9.95119 7.64645 10.1465L6.14645 11.6465C5.95119 11.8417 5.95119 12.1583 6.14645 12.3535L7.64645 13.8535C7.84171 14.0488 8.15829 14.0488 8.35355 13.8535C8.54881 13.6583 8.54881 13.3417 8.35355 13.1465L7.70711 12.5H16.2929L15.6465 13.1465C15.4512 13.3417 15.4512 13.6583 15.6465 13.8535C15.8417 14.0488 16.1583 14.0488 16.3535 13.8535L17.8535 12.3535C18.0488 12.1583 18.0488 11.8417 17.8535 11.6465L16.3535 10.1465C16.1583 9.95119 15.8417 9.95119 15.6465 10.1465C15.4512 10.3417 15.4512 10.6583 15.6465 10.8535L16.2929 11.5H7.70711L8.35355 10.8535Z" fill="currentColor" />
</svg>
