<svg width="24" height="24" viewBox="0 0 24 24" fill="none" xmlns="http://www.w3.org/2000/svg">
<path fill-rule="evenodd" clip-rule="evenodd" d="M6.5 7H17.5C17.7761 7 18 7.22386 18 7.5V16.5C18 16.7761 17.7761 17 17.5 17H6.5C6.22386 17 6 16.7761 6 16.5V7.5C6 7.22386 6.22386 7 6.5 7ZM5 7.5C5 6.67157 5.67157 6 6.5 6H17.5C18.3284 6 19 6.67157 19 7.5V16.5C19 17.3284 18.3284 18 17.5 18H6.5C5.67157 18 5 17.3284 5 16.5V7.5ZM9.5 9.5C9.5 9.32671 9.41027 9.16578 9.26287 9.07467C9.11546 8.98357 8.93139 8.97529 8.77639 9.05279L7.77639 9.55279C7.5294 9.67628 7.42929 9.97662 7.55279 10.2236C7.67628 10.4706 7.97662 10.5707 8.22361 10.4472L8.5 10.309V14H8C7.72386 14 7.5 14.2239 7.5 14.5C7.5 14.7761 7.72386 15 8 15H9H10C10.2761 15 10.5 14.7761 10.5 14.5C10.5 14.2239 10.2761 14 10 14H9.5V9.5ZM15.5 9.5C15.5 9.32671 15.4103 9.16578 15.2629 9.07467C15.1155 8.98357 14.9314 8.97529 14.7764 9.05279L13.7764 9.55279C13.5294 9.67628 13.4293 9.97662 13.5528 10.2236C13.6763 10.4706 13.9766 10.5707 14.2236 10.4472L14.5 10.309V14H14C13.7239 14 13.5 14.2239 13.5 14.5C13.5 14.7761 13.7239 15 14 15H15H16C16.2761 15 16.5 14.7761 16.5 14.5C16.5 14.2239 16.2761 14 16 14H15.5V9.5ZM12.5 10.5C12.5 10.2239 12.2761 10 12 10C11.7239 10 11.5 10.2239 11.5 10.5C11.5 10.7761 11.7239 11 12 11C12.2761 11 12.5 10.7761 12.5 10.5ZM12 13C12.2761 13 12.5 13.2239 12.5 13.5C12.5 13.7761 12.2761 14 12 14C11.7239 14 11.5 13.7761 11.5 13.5C11.5 13.2239 11.7239 13 12 13Z" fill="currentColor" />
</svg>
