<svg width="24" height="24" viewBox="0 0 24 24" fill="none" xmlns="http://www.w3.org/2000/svg">
<path fill-rule="evenodd" clip-rule="evenodd" d="M7 4.5C7 4.22386 7.22386 4 7.5 4C7.77614 4 8 4.22386 8 4.5V12C8 12.0167 7.99918 12.0332 7.99758 12.0495C9.1399 12.2802 10 13.2897 10 14.5C10 15.7103 9.1399 16.7198 7.99758 16.9505C7.99918 16.9668 8 16.9833 8 17V19.5C8 19.7761 7.77614 20 7.5 20C7.22386 20 7 19.7761 7 19.5V17C7 16.9833 7.00082 16.9668 7.00242 16.9505C5.86009 16.7198 5 15.7103 5 14.5C5 13.2897 5.86009 12.2802 7.00242 12.0495C7.00082 12.0332 7 12.0167 7 12V4.5ZM9 14.5C9 15.3284 8.32843 16 7.5 16C6.67157 16 6 15.3284 6 14.5C6 13.6716 6.67157 13 7.5 13C8.32843 13 9 13.6716 9 14.5ZM16 19.5C16 19.7761 16.2239 20 16.5 20C16.7761 20 17 19.7761 17 19.5V12C17 11.9833 16.9992 11.9668 16.9976 11.9505C18.1399 11.7198 19 10.7103 19 9.5C19 8.28967 18.1399 7.28022 16.9976 7.04952C16.9992 7.03323 17 7.01671 17 7V4.5C17 4.22386 16.7761 4 16.5 4C16.2239 4 16 4.22386 16 4.5V7C16 7.01671 16.0008 7.03323 16.0024 7.04952C14.8601 7.28022 14 8.28967 14 9.5C14 10.7103 14.8601 11.7198 16.0024 11.9505C16.0008 11.9668 16 11.9833 16 12V19.5ZM18 9.5C18 8.67157 17.3284 8 16.5 8C15.6716 8 15 8.67157 15 9.5C15 10.3284 15.6716 11 16.5 11C17.3284 11 18 10.3284 18 9.5Z" fill="currentColor" />
</svg>
