<svg width="24" height="24" viewBox="0 0 24 24" fill="none" xmlns="http://www.w3.org/2000/svg">
<path fill-rule="evenodd" clip-rule="evenodd" d="M8 5.5C8 5.22386 8.22386 5 8.5 5C8.77614 5 9 5.22386 9 5.5V12.05C10.1411 12.2816 11 13.2905 11 14.5C11 15.7095 10.1411 16.7184 9 16.95V18.5C9 18.7761 8.77614 19 8.5 19C8.22386 19 8 18.7761 8 18.5V16.95C6.85888 16.7184 6 15.7095 6 14.5C6 13.2905 6.85888 12.2816 8 12.05V5.5ZM7 14.5C7 13.6716 7.67157 13 8.5 13C9.32843 13 10 13.6716 10 14.5C10 15.3284 9.32843 16 8.5 16C7.67157 16 7 15.3284 7 14.5ZM15 18.5C15 18.7761 15.2239 19 15.5 19C15.7761 19 16 18.7761 16 18.5V11.95C17.1411 11.7184 18 10.7095 18 9.5C18 8.29052 17.1411 7.28164 16 7.05001V5.5C16 5.22386 15.7761 5 15.5 5C15.2239 5 15 5.22386 15 5.5V7.05001C13.8589 7.28164 13 8.29052 13 9.5C13 10.7095 13.8589 11.7184 15 11.95V18.5ZM14 9.5C14 10.3284 14.6716 11 15.5 11C16.3284 11 17 10.3284 17 9.5C17 8.67157 16.3284 8 15.5 8C14.6716 8 14 8.67157 14 9.5Z" fill="currentColor" />
</svg>
