<svg width="24" height="24" viewBox="0 0 24 24" fill="none" xmlns="http://www.w3.org/2000/svg">
<path fill-rule="evenodd" clip-rule="evenodd" d="M17 7H7C6.44772 7 6 7.44772 6 8V14C6 14.5523 6.44772 15 7 15H8.96078H9.99924H14.0008H15.0392H17C17.5523 15 18 14.5523 18 14V8C18 7.44772 17.5523 7 17 7ZM7 16H8.68078L8.01852 18.3652C7.94407 18.6311 8.09928 18.907 8.36519 18.9815C8.63111 19.0559 8.90703 18.9007 8.98149 18.6348L9.71924 16H14.2808L15.0185 18.6348C15.093 18.9007 15.3689 19.0559 15.6348 18.9815C15.9007 18.907 16.0559 18.6311 15.9815 18.3652L15.3192 16H17C18.1046 16 19 15.1046 19 14V8C19 6.89543 18.1046 6 17 6H7C5.89543 6 5 6.89543 5 8V14C5 15.1046 5.89543 16 7 16ZM8.51493 9.44028L8.3 10.3L7.44028 10.5149C6.93531 10.6412 6.93531 11.3588 7.44028 11.4851L8.3 11.7L8.51493 12.5597C8.64117 13.0647 9.35883 13.0647 9.48507 12.5597L9.7 11.7L10.5597 11.4851C11.0647 11.3588 11.0647 10.6412 10.5597 10.5149L9.7 10.3L9.48507 9.44028C9.35883 8.93531 8.64117 8.93531 8.51493 9.44028ZM12 9.49772C12.0013 9.22158 12.2261 8.99875 12.5023 9.00001L15.5023 9.01368C15.7784 9.01494 16.0013 9.23981 16 9.51595C15.9987 9.79209 15.7739 10.0149 15.4977 10.0137L12.4977 9.99999C12.2216 9.99874 11.9987 9.77386 12 9.49772ZM12.5 12C12.2239 12 12 12.2239 12 12.5C12 12.7761 12.2239 13 12.5 13H15C15.2761 13 15.5 12.7761 15.5 12.5C15.5 12.2239 15.2761 12 15 12H12.5Z" fill="currentColor" />
</svg>
