<svg width="24" height="24" viewBox="0 0 24 24" fill="none" xmlns="http://www.w3.org/2000/svg">
<path fill-rule="evenodd" clip-rule="evenodd" d="M5 6H19C19.5523 6 20 6.44772 20 7V15C20 15.5523 19.5523 16 19 16H5C4.44772 16 4 15.5523 4 15V7C4 6.44772 4.44772 6 5 6ZM3 7C3 5.89543 3.89543 5 5 5H19C20.1046 5 21 5.89543 21 7V15C21 16.1046 20.1046 17 19 17H17.0177L17.9628 19.3107C18.0673 19.5663 17.9449 19.8582 17.6893 19.9628C17.4337 20.0673 17.1418 19.9449 17.0372 19.6893L15.9373 17H8.06281L6.9628 19.6895C6.85826 19.9451 6.56632 20.0676 6.31073 19.963C6.05514 19.8585 5.93268 19.5666 6.03722 19.311L6.9824 17H5C3.89543 17 3 16.1046 3 15V7ZM7.7 10.2L8.01493 8.94028C8.14117 8.43531 8.85883 8.43531 8.98507 8.94028L9.3 10.2L10.5597 10.5149C11.0647 10.6412 11.0647 11.3588 10.5597 11.4851L9.3 11.8L8.98507 13.0597C8.85883 13.5647 8.14117 13.5647 8.01493 13.0597L7.7 11.8L6.44028 11.4851C5.93531 11.3588 5.93531 10.6412 6.44028 10.5149L7.7 10.2ZM12.5 9C12.2239 9 12 9.22386 12 9.5C12 9.77614 12.2239 10 12.5 10H17.5C17.7761 10 18 9.77614 18 9.5C18 9.22386 17.7761 9 17.5 9H12.5ZM12.5 12C12.2239 12 12 12.2239 12 12.5C12 12.7761 12.2239 13 12.5 13H16.5C16.7761 13 17 12.7761 17 12.5C17 12.2239 16.7761 12 16.5 12H12.5Z" fill="currentColor" />
</svg>
