<svg width="24" height="24" viewBox="0 0 24 24" fill="none" xmlns="http://www.w3.org/2000/svg">
<path fill-rule="evenodd" clip-rule="evenodd" d="M6.90012 6.89939L7.18967 5.74117C7.27047 5.41798 7.72977 5.41798 7.81056 5.74117L8.10012 6.89939L9.25834 7.18894C9.58152 7.26974 9.58152 7.72904 9.25834 7.80983L8.10012 8.09939L7.81056 9.2576C7.72977 9.58079 7.27047 9.58079 7.18967 9.2576L6.90012 8.09939L5.7419 7.80983C5.41872 7.72904 5.41872 7.26974 5.7419 7.18894L6.90012 6.89939ZM15.9001 15.9001L16.1897 14.7419C16.2705 14.4187 16.7298 14.4187 16.8106 14.7419L17.1001 15.9001L18.2584 16.1897C18.5815 16.2705 18.5815 16.7298 18.2584 16.8106L17.1001 17.1001L16.8106 18.2584C16.7298 18.5815 16.2705 18.5815 16.1897 18.2584L15.9001 17.1001L14.7419 16.8106C14.4187 16.7298 14.4187 16.2705 14.7419 16.1897L15.9001 15.9001ZM10.36 7.21306L9.68571 9.68554L7.21323 10.3599C5.54297 10.8154 5.54296 13.1845 7.21323 13.6401L9.68571 14.3144L10.36 16.7868C10.8156 18.4571 13.1847 18.4571 13.6402 16.7868L14.3145 14.3144L16.787 13.6401C18.4573 13.1845 18.4573 10.8154 16.787 10.3599L14.3145 9.68554L13.6402 7.21307C13.1847 5.5428 10.8156 5.54279 10.36 7.21306ZM11.3248 7.47618L10.5001 10.5L7.47635 11.3246C6.78859 11.5122 6.78859 12.4877 7.47635 12.6753L10.5001 13.5L11.3248 16.5237C11.5124 17.2115 12.4879 17.2115 12.6755 16.5237L13.5001 13.5L16.5239 12.6753C17.2117 12.4877 17.2117 11.5122 16.5239 11.3246L13.5001 10.5L12.6755 7.47618C12.4879 6.78842 11.5124 6.78842 11.3248 7.47618Z" fill="currentColor" />
</svg>
