<svg width="24" height="24" viewBox="0 0 24 24" fill="none" xmlns="http://www.w3.org/2000/svg">
<path fill-rule="evenodd" clip-rule="evenodd" d="M10.5 16C13.5376 16 16 13.5376 16 10.5C16 7.46243 13.5376 5 10.5 5C7.46243 5 5 7.46243 5 10.5C5 13.5376 7.46243 16 10.5 16ZM10.5 17C12.1149 17 13.5923 16.411 14.7291 15.4362L19.1464 19.8536C19.3417 20.0488 19.6583 20.0488 19.8536 19.8536C20.0488 19.6583 20.0488 19.3417 19.8536 19.1464L15.4362 14.7291C16.411 13.5923 17 12.1149 17 10.5C17 6.91015 14.0899 4 10.5 4C6.91015 4 4 6.91015 4 10.5C4 14.0899 6.91015 17 10.5 17ZM10.0149 7.44026L9.50001 9.49998L7.44029 10.0149C6.93532 10.1411 6.93531 10.8588 7.44029 10.985L9.50001 11.5L10.0149 13.5597C10.1412 14.0647 10.8588 14.0647 10.9851 13.5597L11.5 11.5L13.5597 10.985C14.0647 10.8588 14.0647 10.1411 13.5597 10.0149L11.5 9.49998L10.9851 7.44026C10.8588 6.93528 10.1412 6.93528 10.0149 7.44026Z" fill="currentColor" />
</svg>
