<svg width="24" height="24" viewBox="0 0 24 24" fill="none" xmlns="http://www.w3.org/2000/svg">
<path fill-rule="evenodd" clip-rule="evenodd" d="M6.17999 4.78121L5.90014 5.90063L4.78072 6.18048C4.44744 6.2638 4.44744 6.73745 4.78073 6.82077L5.90014 7.10063L6.17999 8.22004C6.26331 8.55332 6.73696 8.55332 6.82028 8.22004L7.10014 7.10063L8.21955 6.82077C8.55283 6.73745 8.55283 6.2638 8.21955 6.18048L7.10014 5.90063L6.82028 4.78121C6.73696 4.44793 6.26331 4.44793 6.17999 4.78121ZM10.5002 6.0002C10.2241 6.0002 10.0002 6.22405 10.0002 6.5002C10.0002 6.77634 10.2241 7.0002 10.5002 7.0002H18.5002C18.7763 7.0002 19.0002 6.77634 19.0002 6.5002C19.0002 6.22405 18.7763 6.0002 18.5002 6.0002H10.5002ZM10.5002 11.0002C10.2241 11.0002 10.0002 11.2241 10.0002 11.5002C10.0002 11.7763 10.2241 12.0002 10.5002 12.0002H18.5002C18.7763 12.0002 19.0002 11.7763 19.0002 11.5002C19.0002 11.2241 18.7763 11.0002 18.5002 11.0002H10.5002ZM10.5002 16.0002C10.2241 16.0002 10.0002 16.2241 10.0002 16.5002C10.0002 16.7763 10.2241 17.0002 10.5002 17.0002H18.5002C18.7763 17.0002 19.0002 16.7763 19.0002 16.5002C19.0002 16.2241 18.7763 16.0002 18.5002 16.0002H10.5002ZM6.17999 9.78097L5.90014 10.9004L4.78072 11.1802C4.44744 11.2636 4.44744 11.7372 4.78073 11.8205L5.90014 12.1004L6.17999 13.2198C6.26331 13.5531 6.73696 13.5531 6.82028 13.2198L7.10014 12.1004L8.21955 11.8205C8.55283 11.7372 8.55283 11.2636 8.21955 11.1802L7.10014 10.9004L6.82028 9.78097C6.73696 9.44768 6.26331 9.44768 6.17999 9.78097ZM5.90014 15.9004L6.17999 14.781C6.26331 14.4477 6.73696 14.4477 6.82028 14.781L7.10014 15.9004L8.21955 16.1802C8.55283 16.2636 8.55283 16.7372 8.21955 16.8205L7.10014 17.1004L6.82028 18.2198C6.73696 18.5531 6.26331 18.5531 6.17999 18.2198L5.90014 17.1004L4.78073 16.8205C4.44744 16.7372 4.44744 16.2636 4.78072 16.1802L5.90014 15.9004Z" fill="currentColor" />
</svg>
