<svg width="24" height="24" viewBox="0 0 24 24" fill="none" xmlns="http://www.w3.org/2000/svg">
<path fill-rule="evenodd" clip-rule="evenodd" d="M5.5 5H9.5C9.77614 5 10 5.22386 10 5.5V9.5C10 9.77614 9.77614 10 9.5 10H5.5C5.22386 10 5 9.77614 5 9.5V5.5C5 5.22386 5.22386 5 5.5 5ZM4 5.5C4 4.67157 4.67157 4 5.5 4H9.5C10.3284 4 11 4.67157 11 5.5V9.5C11 10.3284 10.3284 11 9.5 11H5.5C4.67157 11 4 10.3284 4 9.5V5.5ZM16.0149 13.4403L15.5 15.5L13.4403 16.0149C12.9353 16.1412 12.9353 16.8588 13.4403 16.9851L15.5 17.5L16.0149 19.5597C16.1412 20.0647 16.8588 20.0647 16.9851 19.5597L17.5 17.5L19.5597 16.9851C20.0647 16.8588 20.0647 16.1412 19.5597 16.0149L17.5 15.5L16.9851 13.4403C16.8588 12.9353 16.1412 12.9353 16.0149 13.4403ZM9.5 14H5.5C5.22386 14 5 14.2239 5 14.5V18.5C5 18.7761 5.22386 19 5.5 19H9.5C9.77614 19 10 18.7761 10 18.5V14.5C10 14.2239 9.77614 14 9.5 14ZM5.5 13C4.67157 13 4 13.6716 4 14.5V18.5C4 19.3284 4.67157 20 5.5 20H9.5C10.3284 20 11 19.3284 11 18.5V14.5C11 13.6716 10.3284 13 9.5 13H5.5ZM14.5 5H18.5C18.7761 5 19 5.22386 19 5.5V9.5C19 9.77614 18.7761 10 18.5 10H14.5C14.2239 10 14 9.77614 14 9.5V5.5C14 5.22386 14.2239 5 14.5 5ZM13 5.5C13 4.67157 13.6716 4 14.5 4H18.5C19.3284 4 20 4.67157 20 5.5V9.5C20 10.3284 19.3284 11 18.5 11H14.5C13.6716 11 13 10.3284 13 9.5V5.5Z" fill="currentColor" />
</svg>
