<svg width="24" height="24" viewBox="0 0 24 24" fill="none" xmlns="http://www.w3.org/2000/svg">
<path fill-rule="evenodd" clip-rule="evenodd" d="M6.0149 3.44026L5.69997 4.69997L4.44026 5.0149C3.93528 5.14114 3.93528 5.8588 4.44026 5.98504L5.69997 6.29997L6.0149 7.55969C6.14114 8.06466 6.8588 8.06466 6.98504 7.55969L7.29997 6.29997L8.55969 5.98504C9.06466 5.8588 9.06466 5.14114 8.55969 5.0149L7.29997 4.69997L6.98504 3.44026C6.8588 2.93528 6.14114 2.93528 6.0149 3.44026ZM6.0149 15.4403L5.69997 16.7L4.44026 17.0149C3.93528 17.1411 3.93528 17.8588 4.44026 17.985L5.69997 18.3L6.0149 19.5597C6.14114 20.0647 6.8588 20.0647 6.98504 19.5597L7.29997 18.3L8.55969 17.985C9.06466 17.8588 9.06466 17.1411 8.55969 17.0149L7.29997 16.7L6.98504 15.4403C6.8588 14.9353 6.14114 14.9353 6.0149 15.4403ZM5.69997 10.7L6.0149 9.44026C6.14114 8.93528 6.8588 8.93528 6.98504 9.44026L7.29997 10.7L8.55969 11.0149C9.06466 11.1411 9.06466 11.8588 8.55969 11.985L7.29997 12.3L6.98504 13.5597C6.8588 14.0647 6.14114 14.0647 6.0149 13.5597L5.69997 12.3L4.44026 11.985C3.93528 11.8588 3.93528 11.1411 4.44026 11.0149L5.69997 10.7ZM10.5 5C10.2239 5 10 5.22386 10 5.5C10 5.77614 10.2239 6 10.5 6H19.5C19.7761 6 20 5.77614 20 5.5C20 5.22386 19.7761 5 19.5 5H10.5ZM10.5 11C10.2239 11 10 11.2239 10 11.5C10 11.7761 10.2239 12 10.5 12H19.5C19.7761 12 20 11.7761 20 11.5C20 11.2239 19.7761 11 19.5 11H10.5ZM10.5 17C10.2239 17 10 17.2239 10 17.5C10 17.7761 10.2239 18 10.5 18H19.5C19.7761 18 20 17.7761 20 17.5C20 17.2239 19.7761 17 19.5 17H10.5Z" fill="currentColor" />
</svg>
