<svg width="24" height="24" viewBox="0 0 24 24" fill="none" xmlns="http://www.w3.org/2000/svg">
<path fill-rule="evenodd" clip-rule="evenodd" d="M6 6H10V10H6L6 6ZM5 6C5 5.44772 5.44772 5 6 5H10C10.5523 5 11 5.44772 11 6V10C11 10.5523 10.5523 11 10 11H6C5.44772 11 5 10.5523 5 10V6ZM15.5149 13.4403L15.1 15.1L13.4403 15.5149C12.9353 15.6412 12.9353 16.3588 13.4403 16.4851L15.1 16.9L15.5149 18.5597C15.6412 19.0647 16.3588 19.0647 16.4851 18.5597L16.9 16.9L18.5597 16.4851C19.0647 16.3588 19.0647 15.6412 18.5597 15.5149L16.9 15.1L16.4851 13.4403C16.3588 12.9353 15.6412 12.9353 15.5149 13.4403ZM10 14H6L6 18H10V14ZM6 13C5.44772 13 5 13.4477 5 14V18C5 18.5523 5.44772 19 6 19H10C10.5523 19 11 18.5523 11 18V14C11 13.4477 10.5523 13 10 13H6ZM14 6H18V10H14V6ZM13 6C13 5.44772 13.4477 5 14 5H18C18.5523 5 19 5.44772 19 6V10C19 10.5523 18.5523 11 18 11H14C13.4477 11 13 10.5523 13 10V6Z" fill="currentColor" />
</svg>
