<svg width="24" height="24" viewBox="0 0 24 24" fill="none" xmlns="http://www.w3.org/2000/svg">
<path fill-rule="evenodd" clip-rule="evenodd" d="M4.69997 4.69997L5.0149 3.44026C5.14114 2.93528 5.8588 2.93528 5.98504 3.44026L6.29997 4.69997L7.55969 5.0149C8.06466 5.14114 8.06466 5.8588 7.55969 5.98504L6.29997 6.29997L5.98504 7.55969C5.8588 8.06466 5.14114 8.06466 5.0149 7.55969L4.69997 6.29997L3.44026 5.98504C2.93528 5.8588 2.93528 5.14114 3.44026 5.0149L4.69997 4.69997ZM9.19113 9.1911L10.3078 5.28293C10.794 3.58094 13.206 3.58095 13.6923 5.28294L14.8089 9.1911L18.7171 10.3077C20.4191 10.794 20.4191 13.206 18.7171 13.6923L14.8089 14.8089L13.6923 18.7171C13.206 20.4191 10.794 20.4191 10.3078 18.7171L9.19113 14.8089L5.28296 13.6923C3.58098 13.206 3.58097 10.794 5.28296 10.3077L9.19113 9.1911ZM10 10L11.2693 5.55765C11.4793 4.8227 12.5208 4.82271 12.7308 5.55766L14 10L18.4424 11.2692C19.1773 11.4792 19.1773 12.5208 18.4424 12.7308L14 14L12.7308 18.4423C12.5208 19.1773 11.4793 19.1773 11.2693 18.4423L10 14L5.55769 12.7308C4.82274 12.5208 4.82273 11.4792 5.55768 11.2692L10 10ZM18.0149 16.4402L17.7 17.6999L16.4403 18.0149C15.9353 18.1411 15.9353 18.8587 16.4403 18.985L17.7 19.2999L18.0149 20.5596C18.1412 21.0646 18.8588 21.0646 18.9851 20.5596L19.3 19.2999L20.5597 18.985C21.0647 18.8587 21.0647 18.1411 20.5597 18.0149L19.3 17.6999L18.9851 16.4402C18.8588 15.9352 18.1412 15.9352 18.0149 16.4402Z" fill="currentColor" />
</svg>
