<svg width="24" height="24" viewBox="0 0 24 24" fill="none" xmlns="http://www.w3.org/2000/svg">
<path fill-rule="evenodd" clip-rule="evenodd" d="M6 13.9997C6 13.6484 6.1843 13.3229 6.4855 13.1422L8.38944 11.9998L6.4855 10.8575C6.1843 10.6767 6 10.3512 6 9.99998C6 9.64871 6.1843 9.32321 6.4855 9.14248L10.971 6.45118C11.6044 6.07116 12.3956 6.07116 13.029 6.45118L17.5145 9.14248C17.8157 9.32321 18 9.64871 18 9.99998C18 10.3512 17.8157 10.6767 17.5145 10.8575L15.6106 11.9998L17.5145 13.1422C17.8157 13.3229 18 13.6484 18 13.9997C18 14.3509 17.8157 14.6765 17.5145 14.8572L13.029 17.5485C12.3956 17.9285 11.6044 17.9285 10.971 17.5485L6.4855 14.8572C6.1843 14.6765 6 14.3509 6 13.9997ZM13.6669 11.9998L13.6668 11.9998L14.6386 11.4167L14.6387 11.4167L16.0282 10.5831L17 9.99998L16.0282 9.41688L12.5145 7.30867C12.1978 7.11867 11.8022 7.11866 11.4855 7.30867L7.97183 9.41688L7 9.99998L7.97183 10.5831L9.36127 11.4167L9.36136 11.4167L10.3332 11.9998L10.3331 11.9998L11.4855 12.6913C11.8022 12.8813 12.1978 12.8813 12.5145 12.6913L13.6669 11.9998ZM14.6387 12.5829L16.0282 13.4166L17 13.9997L16.0282 14.5828L12.5145 16.691C12.1978 16.881 11.8022 16.881 11.4855 16.691L7.97183 14.5828L7 13.9997L7.97183 13.4166L9.36127 12.5829L10.971 13.5488C11.6044 13.9288 12.3956 13.9288 13.029 13.5488L14.6387 12.5829Z" fill="currentColor" />
</svg>
