<svg width="24" height="24" viewBox="0 0 24 24" fill="none" xmlns="http://www.w3.org/2000/svg">
<path fill-rule="evenodd" clip-rule="evenodd" d="M18 12C18 13.6569 16.6569 15 15 15C13.3431 15 12 13.6569 12 12C12 10.3431 13.3431 9 15 9C16.6569 9 18 10.3431 18 12ZM19 12C19 14.2091 17.2091 16 15 16C12.7909 16 11 14.2091 11 12C11 9.79086 12.7909 8 15 8C17.2091 8 19 9.79086 19 12ZM7.5 8.5C7.22386 8.5 7 8.72386 7 9C7 9.27614 7.22386 9.5 7.5 9.5H10.5C10.7761 9.5 11 9.27614 11 9C11 8.72386 10.7761 8.5 10.5 8.5H7.5ZM5.5 10.5C5.22386 10.5 5 10.7239 5 11C5 11.2761 5.22386 11.5 5.5 11.5H9.5C9.77614 11.5 10 11.2761 10 11C10 10.7239 9.77614 10.5 9.5 10.5H5.5ZM5.5 12.5C5.22386 12.5 5 12.7239 5 13C5 13.2761 5.22386 13.5 5.5 13.5H9.5C9.77614 13.5 10 13.2761 10 13C10 12.7239 9.77614 12.5 9.5 12.5H5.5ZM7.5 14.5C7.22386 14.5 7 14.7239 7 15C7 15.2761 7.22386 15.5 7.5 15.5H10.5C10.7761 15.5 11 15.2761 11 15C11 14.7239 10.7761 14.5 10.5 14.5H7.5Z" fill="currentColor" />
</svg>
