<svg width="24" height="24" viewBox="0 0 24 24" fill="none" xmlns="http://www.w3.org/2000/svg">
<path fill-rule="evenodd" clip-rule="evenodd" d="M8.29283 15.707C8.05643 15.4705 7.95383 15.1316 8.0194 14.8038L8.5194 12.304C8.55812 12.1104 8.65327 11.9326 8.79286 11.793L16.9393 3.64639C17.5251 3.06056 18.4749 3.06058 19.0607 3.64644L18.3535 4.3535C18.1583 4.15821 17.8417 4.15821 17.6464 4.35348L16.6037 5.39625L18.6038 7.39635L19.6464 6.35367C19.8417 6.15842 19.8417 5.84185 19.6465 5.64659L18.3535 4.3535L19.0607 3.64644L20.3536 4.93952C20.9393 5.52532 20.9393 6.47502 20.3536 7.06078L12.2071 15.2072C12.0675 15.3469 11.8896 15.442 11.696 15.4807L9.196 15.9805C8.86815 16.046 8.52923 15.9434 8.29283 15.707ZM9.49998 12.5001L15.8966 6.10336L17.8967 8.10345L11.5 14.5001L10.0623 14.7875L8.99998 14.9999L9.21245 13.9376L9.49998 12.5001ZM18 12.4495V17.9998C18 18.5521 17.5523 18.9998 17 18.9998H6C5.44772 18.9998 5 18.5521 5 17.9998L5 6.99977C5 6.44748 5.44772 5.99977 6 5.99977L11.5503 5.99977C11.6829 5.99977 11.81 5.94709 11.9038 5.85332C12.2188 5.53834 11.9957 4.99977 11.5503 4.99977L6 4.99977C4.89543 4.99977 4 5.8952 4 6.99977L4 17.9998C4 19.1043 4.89543 19.9998 6 19.9998H17C18.1046 19.9998 19 19.1043 19 17.9998V12.4495C19 12.0041 18.4614 11.781 18.1464 12.096C18.0527 12.1897 18 12.3169 18 12.4495Z" fill="currentColor" />
</svg>
