<svg width="24" height="24" viewBox="0 0 24 24" fill="none" xmlns="http://www.w3.org/2000/svg">
<path fill-rule="evenodd" clip-rule="evenodd" d="M9.29295 14.707C9.04456 14.4587 8.94471 14.0982 9.02989 13.7574L9.52983 11.7574C9.57379 11.5816 9.66471 11.421 9.79288 11.2928L15.4394 5.64637C16.0252 5.06059 16.9749 5.06059 17.5607 5.64637L18.3536 6.43926C18.9394 7.02505 18.9394 7.9748 18.3536 8.56059L12.7071 14.207C12.5789 14.3352 12.4184 14.4261 12.2425 14.4701L10.2426 14.9701C9.90181 15.0553 9.54133 14.9554 9.29295 14.707ZM10.2749 12.9004L10 13.9999L11.0995 13.725L12 13.4999L16.1464 9.35352L14.6464 7.85352L10.5 11.9999L10.2749 12.9004ZM17.6465 7.85348L16.8535 8.64641L15.3535 7.14641L16.1465 6.35348C16.3418 6.15822 16.6583 6.15822 16.8536 6.35348L17.6465 7.14637C17.8417 7.34163 17.8417 7.65822 17.6465 7.85348ZM7.5 7.00003C6.67157 7.00003 6 7.6716 6 8.50003L6 16.5C6 17.3285 6.67157 18 7.5 18L15.5 18C16.3284 18 17 17.3285 17 16.5V13C17 12.7239 16.7761 12.5 16.5 12.5C16.2239 12.5 16 12.7239 16 13V16.5C16 16.7762 15.7761 17 15.5 17L7.5 17C7.22386 17 7 16.7762 7 16.5L7 8.50003C7 8.22389 7.22386 8.00003 7.5 8.00003H11C11.2761 8.00003 11.5 7.77617 11.5 7.50003C11.5 7.22389 11.2761 7.00003 11 7.00003L7.5 7.00003Z" fill="currentColor" />
</svg>
