<svg width="24" height="24" viewBox="0 0 24 24" fill="none" xmlns="http://www.w3.org/2000/svg">
<path fill-rule="evenodd" clip-rule="evenodd" d="M18 12C18 15.3137 15.3137 18 12 18C8.68629 18 6 15.3137 6 12C6 8.68629 8.68629 6 12 6C15.3137 6 18 8.68629 18 12ZM19 12C19 15.866 15.866 19 12 19C8.134 19 5 15.866 5 12C5 8.134 8.134 5 12 5C15.866 5 19 8.134 19 12ZM14.9287 9.75725C15.0708 9.52046 14.994 9.21333 14.7572 9.07126C14.5205 8.92918 14.2133 9.00597 14.0713 9.24275L11.4778 13.5652L9.91603 11.2227C9.76285 10.9929 9.45241 10.9308 9.22266 11.084C8.99289 11.2372 8.9308 11.5476 9.08397 11.7773L11.084 14.7773C11.179 14.92 11.3405 15.0039 11.5119 14.9999C11.6832 14.9958 11.8406 14.9042 11.9287 14.7572L14.9287 9.75725Z" fill="currentColor" />
</svg>
