<svg width="24" height="24" viewBox="0 0 24 24" fill="none" xmlns="http://www.w3.org/2000/svg">
<path fill-rule="evenodd" clip-rule="evenodd" d="M7 12C7 9.23858 9.23858 7 12 7C12.2761 7 12.5 6.77614 12.5 6.5C12.5 6.22386 12.2761 6 12 6C8.68629 6 6 8.68629 6 12C6 15.3137 8.68629 18 12 18C15.3137 18 18 15.3137 18 12C18 11.7239 17.7761 11.5 17.5 11.5C17.2239 11.5 17 11.7239 17 12C17 14.7614 14.7614 17 12 17C9.23858 17 7 14.7614 7 12ZM9.5 12C9.5 10.6193 10.6193 9.5 12 9.5C12.2761 9.5 12.5 9.27614 12.5 9C12.5 8.72386 12.2761 8.5 12 8.5C10.067 8.5 8.5 10.067 8.5 12C8.5 13.933 10.067 15.5 12 15.5C13.933 15.5 15.5 13.933 15.5 12C15.5 11.7239 15.2761 11.5 15 11.5C14.7239 11.5 14.5 11.7239 14.5 12C14.5 13.3807 13.3807 14.5 12 14.5C10.6193 14.5 9.5 13.3807 9.5 12Z" fill="currentColor" />
</svg>
