<svg width="24" height="24" viewBox="0 0 24 24" fill="none" xmlns="http://www.w3.org/2000/svg">
<path fill-rule="evenodd" clip-rule="evenodd" d="M18 12C18 15.3137 15.3137 18 12 18C8.68629 18 6 15.3137 6 12C6 8.68629 8.68629 6 12 6C15.3137 6 18 8.68629 18 12ZM19 12C19 15.866 15.866 19 12 19C8.13401 19 5 15.866 5 12C5 8.13401 8.13401 5 12 5C15.866 5 19 8.13401 19 12ZM12.6499 9.36007C12.6576 9.0208 12.3847 8.74159 12.0453 8.74159C11.7061 8.74159 11.4333 9.02054 11.4408 9.35965L11.518 12.8484C11.5243 13.1345 11.758 13.363 12.0441 13.363C12.3301 13.363 12.5637 13.1347 12.5703 12.8488L12.6499 9.36007ZM11.5454 15.1528C11.6839 15.2892 11.8501 15.3574 12.044 15.3574C12.1718 15.3574 12.2879 15.3265 12.3923 15.2647C12.4989 15.2008 12.5841 15.1155 12.648 15.009C12.7141 14.9025 12.7471 14.7842 12.7471 14.6542C12.7471 14.4625 12.6768 14.2984 12.5361 14.162C12.3976 14.0257 12.2336 13.9575 12.044 13.9575C11.8501 13.9575 11.6839 14.0257 11.5454 14.162C11.409 14.2984 11.3408 14.4625 11.3408 14.6542C11.3408 14.8503 11.409 15.0164 11.5454 15.1528Z" fill="currentColor" />
</svg>
