<svg width="24" height="24" viewBox="0 0 24 24" fill="none" xmlns="http://www.w3.org/2000/svg">
<path fill-rule="evenodd" clip-rule="evenodd" d="M4.94353 11.9316L6.18059 11.7548C7.41888 11.5779 8.56373 12.445 8.72905 13.6849L9.23266 17.462C9.41185 18.8059 8.36637 20 7.01058 20C5.89498 20 4.94914 19.1797 4.79137 18.0753L4.005 12.5707L4.00376 12.562L4.00384 12.562L3.98737 12.4303C3.42782 7.95386 6.91821 4 11.4295 4H12.5705C17.0817 4 20.5721 7.95386 20.0126 12.4303L19.9961 12.562L19.995 12.5707L19.9949 12.5707L19.2086 18.0753C19.0508 19.1797 18.105 20 16.9894 20C15.6336 20 14.5881 18.8059 14.7673 17.462L15.2709 13.6849C15.4362 12.445 16.5811 11.5779 17.8194 11.7548L19.0564 11.9316C19.3088 8.20874 16.3539 5 12.5705 5H11.4295C7.64608 5 4.69118 8.20874 4.94353 11.9316ZM18.9343 12.9243L18.2186 17.9339C18.1312 18.5456 17.6073 19 16.9894 19C16.2384 19 15.6593 18.3385 15.7585 17.5941L16.2621 13.817C16.354 13.1282 16.99 12.6465 17.6779 12.7448L18.9343 12.9243ZM5.06566 12.9243L5.78132 17.9339C5.86871 18.5456 6.39263 19 7.01058 19C7.76158 19 8.34069 18.3385 8.24144 17.5941L7.73782 13.817C7.64597 13.1282 7.00995 12.6465 6.32201 12.7448L5.06566 12.9243Z" fill="currentColor" />
</svg>
