<svg width="24" height="24" viewBox="0 0 24 24" fill="none" xmlns="http://www.w3.org/2000/svg">
<path fill-rule="evenodd" clip-rule="evenodd" d="M6.94238 12H8.59499C9.36562 12 10.0109 12.5839 10.0875 13.3507L10.3334 15.8092C10.4507 16.9822 9.52956 18 8.35072 18C7.32704 18 6.46991 17.2243 6.36805 16.2057L6.00405 12.5657C5.44101 9.12658 8.09519 6 11.5827 6H12.4172C15.9048 6 18.5589 9.12657 17.9959 12.5657L17.6319 16.2057C17.53 17.2243 16.6729 18 15.6492 18C14.4704 18 13.5493 16.9822 13.6666 15.8092L13.9124 13.3507C13.9891 12.5839 14.6343 12 15.405 12H17.0576C17.2619 9.33316 15.1505 7 12.4172 7H11.5827C8.84946 7 6.73806 9.33316 6.94238 12ZM16.9475 13H15.405C15.1481 13 14.933 13.1946 14.9074 13.4502L14.6616 15.9087C14.6032 16.493 15.062 17 15.6492 17C16.1592 17 16.5861 16.6136 16.6369 16.1062L16.9475 13ZM7.05247 13L7.36309 16.1062C7.41383 16.6136 7.84079 17 8.35072 17C8.93794 17 9.39678 16.493 9.33835 15.9087L9.09251 13.4502C9.06695 13.1946 8.85186 13 8.59499 13H7.05247Z" fill="currentColor" />
</svg>
