<svg width="24" height="24" viewBox="0 0 24 24" fill="none" xmlns="http://www.w3.org/2000/svg">
<path fill-rule="evenodd" clip-rule="evenodd" d="M10.0001 10C8.89553 10 8.0001 9.10457 8.0001 8C8.0001 6.89543 8.89553 6 10.0001 6C11.1047 6 12.0001 6.89543 12.0001 8C12.0001 9.10457 11.1047 10 10.0001 10ZM7.0001 8C7.0001 6.34315 8.34324 5 10.0001 5C11.657 5 13.0001 6.34315 13.0001 8C13.0001 9.65685 11.657 11 10.0001 11C8.34324 11 7.0001 9.65685 7.0001 8ZM5.40204 15.4903C5.67127 15.5441 5.93321 15.3708 5.98943 15.1027L5.99138 15.0947C5.99383 15.085 5.99861 15.0672 6.00639 15.0425C6.02197 14.9929 6.04938 14.916 6.09381 14.8208C6.18266 14.6304 6.33872 14.3685 6.60365 14.1036C7.12226 13.5849 8.11372 13 10.0001 13C10.5127 13 10.9592 13.0432 11.348 13.1165L12.1752 12.2893C11.5767 12.1098 10.859 12 10.0001 12C7.88647 12 6.62793 12.6651 5.89654 13.3964C5.53647 13.7565 5.31753 14.1196 5.18763 14.3979C5.12269 14.5371 5.07979 14.6555 5.0524 14.7427C5.03869 14.7863 5.02882 14.8222 5.022 14.8491C5.01859 14.8626 5.01593 14.8738 5.01393 14.8827L5.01141 14.8942L5.0105 14.8985L5.01013 14.9004L5.00996 14.9012C5.00988 14.9016 5.00981 14.9019 5.5001 15L5.00981 14.9019C4.95565 15.1727 5.13126 15.4361 5.40204 15.4903ZM13 19C13.2652 19 13.5196 18.8946 13.7071 18.7071L18.7071 13.7071C19.0976 13.3166 19.0976 12.6834 18.7071 12.2929L17.2071 10.7929C16.8166 10.4024 16.1834 10.4024 15.7929 10.7929L10.7929 15.7929C10.6054 15.9804 10.5 16.2348 10.5 16.5V18C10.5 18.5523 10.9477 19 11.5 19H13ZM13 18L17.2929 13.7071L18 13L17.2929 12.2929L17.2071 12.2071L16.5 11.5L15.7929 12.2071L11.5 16.5V17V18H12.5H13Z" fill="currentColor" />
</svg>
