<svg width="24" height="24" viewBox="0 0 24 24" fill="none" xmlns="http://www.w3.org/2000/svg">
<path fill-rule="evenodd" clip-rule="evenodd" d="M16.5 7H7.5C7.22386 7 7 7.22386 7 7.5V9.5C7 9.77614 7.22386 10 7.5 10H16.5C16.7761 10 17 9.77614 17 9.5V7.5C17 7.22386 16.7761 7 16.5 7ZM7.5 6C6.67157 6 6 6.67157 6 7.5V9.5C6 10.3284 6.67157 11 7.5 11H16.5C17.3284 11 18 10.3284 18 9.5V7.5C18 6.67157 17.3284 6 16.5 6H7.5ZM9.5 14H7.5C7.22386 14 7 14.2239 7 14.5V16.5C7 16.7761 7.22386 17 7.5 17H9.5C9.77614 17 10 16.7761 10 16.5V14.5C10 14.2239 9.77614 14 9.5 14ZM7.5 13C6.67157 13 6 13.6716 6 14.5V16.5C6 17.3284 6.67157 18 7.5 18H9.5C10.3284 18 11 17.3284 11 16.5V14.5C11 13.6716 10.3284 13 9.5 13H7.5ZM17.8841 14.3201C18.0609 14.108 18.0322 13.7927 17.8201 13.6159C17.608 13.4391 17.2927 13.4678 17.1159 13.6799L14.9664 16.2593L13.8535 15.1465C13.6583 14.9512 13.3417 14.9512 13.1465 15.1465C12.9512 15.3417 12.9512 15.6583 13.1465 15.8535L14.6465 17.3535C14.7458 17.4529 14.8823 17.5059 15.0227 17.4995C15.163 17.4931 15.2942 17.428 15.3841 17.3201L17.8841 14.3201Z" fill="currentColor" />
</svg>
