<svg width="24" height="24" viewBox="0 0 24 24" fill="none" xmlns="http://www.w3.org/2000/svg">
<path fill-rule="evenodd" clip-rule="evenodd" d="M11.8536 10.8536L13.8536 8.85355C14.0488 8.65829 14.0488 8.34171 13.8536 8.14645C13.6583 7.95118 13.3417 7.95118 13.1464 8.14645L12 9.29289V5.5C12 5.22386 11.7761 5 11.5 5C11.2239 5 11 5.22386 11 5.5V9.29289L9.85355 8.14645C9.65829 7.95118 9.34171 7.95118 9.14645 8.14645C8.95118 8.34171 8.95118 8.65829 9.14645 8.85355L11.1464 10.8536C11.3417 11.0488 11.6583 11.0488 11.8536 10.8536ZM11.8536 14.1464L13.8536 16.1464C14.0488 16.3417 14.0488 16.6583 13.8536 16.8536C13.6583 17.0488 13.3417 17.0488 13.1464 16.8536L12 15.7071V19.5C12 19.7761 11.7761 20 11.5 20C11.2239 20 11 19.7761 11 19.5V15.7071L9.85355 16.8536C9.65829 17.0488 9.34171 17.0488 9.14645 16.8536C8.95118 16.6583 8.95118 16.3417 9.14645 16.1464L11.1464 14.1464C11.3417 13.9512 11.6583 13.9512 11.8536 14.1464ZM5.5 12C5.22386 12 5 12.2239 5 12.5C5 12.7761 5.22386 13 5.5 13H17.5C17.7761 13 18 12.7761 18 12.5C18 12.2239 17.7761 12 17.5 12H5.5Z" fill="currentColor" />
</svg>
