<svg width="24" height="24" viewBox="0 0 24 24" fill="none" xmlns="http://www.w3.org/2000/svg">
<path fill-rule="evenodd" clip-rule="evenodd" d="M18 5.5C18 5.77614 17.7761 6 17.5 6L6.5 6C6.22386 6 6 5.77614 6 5.5C6 5.22386 6.22386 5 6.5 5H17.5C17.7761 5 18 5.22386 18 5.5ZM18 18.5C18 18.7761 17.7761 19 17.5 19L6.5 19C6.22386 19 6 18.7761 6 18.5C6 18.2239 6.22386 18 6.5 18L17.5 18C17.7761 18 18 18.2239 18 18.5ZM8.84521 8V16H9.93506V12.4687H14.064V16H15.1499V8H14.064V11.5195H9.93506V8H8.84521Z" fill="currentColor" />
</svg>
