<svg width="24" height="24" viewBox="0 0 24 24" fill="none" xmlns="http://www.w3.org/2000/svg">
<path fill-rule="evenodd" clip-rule="evenodd" d="M9.35355 8.14645C9.54882 8.34171 9.54882 8.65829 9.35355 8.85355L7.20713 11L16.7928 10.9998L14.6465 8.85357C14.4512 8.65831 14.4512 8.34173 14.6464 8.14646C14.8417 7.95119 15.1583 7.95118 15.3535 8.14643L18.3535 11.1462C18.4473 11.24 18.5 11.3671 18.5 11.4997C18.5 11.6323 18.4473 11.7595 18.3536 11.8533L15.3536 14.8535C15.1583 15.0488 14.8417 15.0488 14.6465 14.8536C14.4512 14.6583 14.4512 14.3417 14.6464 14.1465L16.7929 11.9998L7.20708 12L9.35355 14.1464C9.54882 14.3417 9.54882 14.6583 9.35355 14.8536C9.15829 15.0488 8.84171 15.0488 8.64645 14.8536L5.64645 11.8536C5.45118 11.6583 5.45118 11.3417 5.64645 11.1464L8.64645 8.14645C8.84171 7.95118 9.15829 7.95118 9.35355 8.14645Z" fill="currentColor" />
</svg>
