<svg width="24" height="24" viewBox="0 0 24 24" fill="none" xmlns="http://www.w3.org/2000/svg">
<path fill-rule="evenodd" clip-rule="evenodd" d="M7.5 7C7.77614 7 8 7.22386 8 7.5V7.75C8 7.88807 8.11193 8 8.25 8H14.75C14.8881 8 15 7.88807 15 7.75V7.5C15 7.22386 15.2239 7 15.5 7C15.7761 7 16 7.22386 16 7.5V7.75C16 8.44036 15.4404 9 14.75 9H8.25C7.55964 9 7 8.44036 7 7.75V7.5C7 7.22386 7.22386 7 7.5 7ZM8.25 15C8.11193 15 8 15.1119 8 15.25V15.5C8 15.7761 7.77614 16 7.5 16C7.22386 16 7 15.7761 7 15.5V15.25C7 14.5596 7.55964 14 8.25 14H14.7501C15.4405 14 16.0001 14.5596 16.0001 15.25V15.5C16.0001 15.7761 15.7763 16 15.5001 16C15.224 16 15.0001 15.7761 15.0001 15.5V15.25C15.0001 15.1119 14.8882 15 14.7501 15H8.25ZM9.5 11C9.22386 11 9 11.2239 9 11.5C9 11.7761 9.22386 12 9.5 12H13.5C13.7761 12 14 11.7761 14 11.5C14 11.2239 13.7761 11 13.5 11H9.5Z" fill="currentColor" />
</svg>
