<svg width="24" height="24" viewBox="0 0 24 24" fill="none" xmlns="http://www.w3.org/2000/svg">
<path fill-rule="evenodd" clip-rule="evenodd" d="M19 6.5C19 6.22386 18.7761 6 18.5 6C18.2239 6 18 6.22386 18 6.5L18 16.5C18 16.7761 18.2239 17 18.5 17C18.7761 17 19 16.7761 19 16.5L19 6.5ZM6 6.5C6 6.22386 5.77614 6 5.5 6C5.22386 6 5 6.22386 5 6.5L5 16.5C5 16.7761 5.22386 17 5.5 17C5.77614 17 6 16.7761 6 16.5L6 6.5ZM16.8536 11.1464C17.0488 11.3417 17.0488 11.6583 16.8536 11.8536L14.3536 14.3536C14.1583 14.5488 13.8417 14.5488 13.6464 14.3536C13.4512 14.1583 13.4512 13.8417 13.6464 13.6464L15.2929 12L8.70711 12L10.3536 13.6464C10.5488 13.8417 10.5488 14.1583 10.3536 14.3536C10.1583 14.5488 9.84171 14.5488 9.64645 14.3536L7.14645 11.8536C7.05268 11.7598 7 11.6326 7 11.5C7 11.3674 7.05268 11.2402 7.14645 11.1464L9.64645 8.64645C9.84171 8.45118 10.1583 8.45118 10.3536 8.64645C10.5488 8.84171 10.5488 9.15829 10.3536 9.35355L8.70711 11L15.2929 11L13.6464 9.35355C13.4512 9.15829 13.4512 8.84171 13.6464 8.64645C13.8417 8.45118 14.1583 8.45118 14.3536 8.64645L16.8536 11.1464Z" fill="currentColor" />
</svg>
