<svg width="24" height="24" viewBox="0 0 24 24" fill="none" xmlns="http://www.w3.org/2000/svg">
<path fill-rule="evenodd" clip-rule="evenodd" d="M12.5 16C12.2238 16 12 15.7761 12 15.5V8.71098L9.61168 11.1101C9.41686 11.3058 9.10028 11.3065 8.90457 11.1117C8.70887 10.9169 8.70815 10.6003 8.90297 10.4046L12.1456 7.14725C12.2394 7.05299 12.367 7 12.5 7C12.633 7 12.7605 7.05299 12.8543 7.14725L16.097 10.4046C16.2918 10.6003 16.2911 10.9169 16.0954 11.1117C15.8997 11.3065 15.5831 11.3058 15.3883 11.1101L13 8.71098V15.5C13 15.7761 12.7761 16 12.5 16Z" fill="currentColor" />
</svg>
