<svg width="24" height="24" viewBox="0 0 24 24" fill="none" xmlns="http://www.w3.org/2000/svg">
<path fill-rule="evenodd" clip-rule="evenodd" d="M7.5 16C7.22386 16 7 16.2239 7 16.5C7 16.7761 7.22386 17 7.5 17H16.5C16.7761 17 17 16.7761 17 16.5C17 16.2239 16.7761 16 16.5 16H7.5ZM7 7.5C7 7.22385 7.22386 7 7.5 7H16.5C16.7761 7 17 7.22385 17 7.5C17 7.77615 16.7761 8 16.5 8H7.5C7.22386 8 7 7.77615 7 7.5ZM13 11H11V13H13V11ZM11 10C10.4477 10 10 10.4477 10 11V13C10 13.5523 10.4477 14 11 14H13C13.5523 14 14 13.5523 14 13V11C14 10.4477 13.5523 10 13 10H11Z" fill="currentColor" />
</svg>
