<svg width="24" height="24" viewBox="0 0 24 24" fill="none" xmlns="http://www.w3.org/2000/svg">
<path fill-rule="evenodd" clip-rule="evenodd" d="M6 7C6 6.44771 6.44771 6 7 6H9.5C9.77614 6 10 6.22386 10 6.5C10 6.77614 9.77614 7 9.5 7H7V9.5C7 9.77614 6.77614 10 6.5 10C6.22386 10 6 9.77614 6 9.5V7ZM18 7C18 6.44771 17.5523 6 17 6H14.5C14.2239 6 14 6.22386 14 6.5C14 6.77614 14.2239 7 14.5 7H17V9.5C17 9.77614 17.2239 10 17.5 10C17.7761 10 18 9.77614 18 9.5V7ZM7 18C6.44771 18 6 17.5523 6 17V14.5C6 14.2239 6.22386 14 6.5 14C6.77614 14 7 14.2239 7 14.5V17H9.5C9.77614 17 10 17.2239 10 17.5C10 17.7761 9.77614 18 9.5 18H7ZM18 17C18 17.5523 17.5523 18 17 18H14.5C14.2239 18 14 17.7761 14 17.5C14 17.2239 14.2239 17 14.5 17H17V14.5C17 14.2239 17.2239 14 17.5 14C17.7761 14 18 14.2239 18 14.5V17ZM9.99994 10H13.9999V14H9.99994V10ZM8.99994 10C8.99994 9.44772 9.44765 9 9.99994 9H13.9999C14.5522 9 14.9999 9.44772 14.9999 10V14C14.9999 14.5523 14.5522 15 13.9999 15H9.99994C9.44765 15 8.99994 14.5523 8.99994 14V10Z" fill="currentColor" />
</svg>
