<svg width="24" height="24" viewBox="0 0 24 24" fill="none" xmlns="http://www.w3.org/2000/svg">
<path fill-rule="evenodd" clip-rule="evenodd" d="M14.1464 11.8536L16.1464 13.8536C16.3417 14.0488 16.6583 14.0488 16.8536 13.8536C17.0488 13.6583 17.0488 13.3417 16.8536 13.1464L15.7071 12L19.5 12C19.7761 12 20 11.7761 20 11.5C20 11.2239 19.7761 11 19.5 11L15.7071 11L16.8536 9.85355C17.0488 9.65829 17.0488 9.34171 16.8536 9.14645C16.6583 8.95118 16.3417 8.95118 16.1464 9.14645L14.1464 11.1464C13.9512 11.3417 13.9512 11.6583 14.1464 11.8536ZM10.8536 11.8536L8.85355 13.8536C8.65829 14.0488 8.34171 14.0488 8.14645 13.8536C7.95118 13.6583 7.95118 13.3417 8.14645 13.1464L9.29289 12L5.5 12C5.22386 12 5 11.7761 5 11.5C5 11.2239 5.22386 11 5.5 11L9.29289 11L8.14645 9.85355C7.95118 9.65829 7.95118 9.34171 8.14645 9.14645C8.34171 8.95118 8.65829 8.95118 8.85355 9.14645L10.8536 11.1464C11.0488 11.3417 11.0488 11.6583 10.8536 11.8536ZM13 5.5C13 5.22386 12.7761 5 12.5 5C12.2239 5 12 5.22386 12 5.5L12 17.5C12 17.7761 12.2239 18 12.5 18C12.7761 18 13 17.7761 13 17.5L13 5.5Z" fill="currentColor" />
</svg>
