<svg width="24" height="24" viewBox="0 0 24 24" fill="none" xmlns="http://www.w3.org/2000/svg">
<path fill-rule="evenodd" clip-rule="evenodd" d="M7.14644 8.14645C7.34171 7.95119 7.65829 7.95118 7.85355 8.14644L10.8536 11.1464C10.9473 11.2402 11 11.3674 11 11.5C11 11.6326 10.9473 11.7598 10.8536 11.8535L7.85355 14.8535C7.65829 15.0488 7.34171 15.0488 7.14645 14.8535C6.95118 14.6583 6.95118 14.3417 7.14645 14.1464L9.79289 11.5L7.14645 8.85356C6.95119 8.65829 6.95118 8.34171 7.14644 8.14645ZM16.8536 8.14645C17.0488 8.34171 17.0488 8.65829 16.8536 8.85356L14.2071 11.5L16.8536 14.1464C17.0488 14.3417 17.0488 14.6583 16.8536 14.8535C16.6583 15.0488 16.3417 15.0488 16.1464 14.8535L13.1464 11.8535C13.0527 11.7598 13 11.6326 13 11.5C13 11.3674 13.0527 11.2402 13.1464 11.1464L16.1464 8.14644C16.3417 7.95118 16.6583 7.95119 16.8536 8.14645Z" fill="currentColor" />
</svg>
