<svg width="24" height="24" viewBox="0 0 24 24" fill="none" xmlns="http://www.w3.org/2000/svg">
<path fill-rule="evenodd" clip-rule="evenodd" d="M8 7.5C8 7.22386 7.77614 7 7.5 7C7.22386 7 7 7.22386 7 7.5V16.5C7 16.7761 7.22386 17 7.5 17C7.77614 17 8 16.7761 8 16.5V7.5ZM16.5 7C16.7761 7 17 7.22386 17 7.5V16.5C17 16.7761 16.7761 17 16.5 17C16.2239 17 16 16.7761 16 16.5V7.5C16 7.22386 16.2239 7 16.5 7ZM13 13V11H11V13H13ZM14 11C14 10.4477 13.5523 10 13 10H11C10.4477 10 10 10.4477 10 11V13C10 13.5523 10.4477 14 11 14H13C13.5523 14 14 13.5523 14 13V11Z" fill="currentColor" />
</svg>
