<svg width="24" height="24" viewBox="0 0 24 24" fill="none" xmlns="http://www.w3.org/2000/svg">
<path fill-rule="evenodd" clip-rule="evenodd" d="M16.5 8.49976C16.7761 8.49976 17 8.72361 17 8.99976V11.4998V13.9998C17 14.2759 16.7761 14.4998 16.5 14.4998C16.2239 14.4998 16 14.2759 16 13.9998V11.9998L7 11.9998L7 13.9998C7 14.2759 6.77614 14.4998 6.5 14.4998C6.22386 14.4998 6 14.2759 6 13.9998L6 11.4998L6 8.99976C6 8.72361 6.22386 8.49976 6.5 8.49976C6.77614 8.49976 7 8.72361 7 8.99976L7 10.9998L16 10.9998V8.99976C16 8.72361 16.2239 8.49976 16.5 8.49976Z" fill="currentColor" />
</svg>
