<svg width="24" height="24" viewBox="0 0 24 24" fill="none" xmlns="http://www.w3.org/2000/svg">
<path fill-rule="evenodd" clip-rule="evenodd" d="M14.8535 7.14645C15.0488 7.34171 15.0488 7.65829 14.8535 7.85355L11.8536 10.8536C11.7598 10.9473 11.6326 11 11.5 11C11.3674 11 11.2402 10.9473 11.1464 10.8536L8.14645 7.85355C7.95118 7.65829 7.95118 7.34171 8.14645 7.14645C8.34171 6.95118 8.65829 6.95118 8.85355 7.14645L11.5 9.79289L14.1464 7.14645C14.3417 6.95119 14.6583 6.95118 14.8535 7.14645ZM14.8535 16.8536C14.6583 17.0488 14.3417 17.0488 14.1464 16.8536L11.5 14.2071L8.85355 16.8536C8.65829 17.0488 8.34171 17.0488 8.14645 16.8536C7.95118 16.6583 7.95118 16.3417 8.14645 16.1464L11.1464 13.1464C11.2402 13.0527 11.3674 13 11.5 13C11.6326 13 11.7598 13.0527 11.8536 13.1464L14.8535 16.1464C15.0488 16.3417 15.0488 16.6583 14.8535 16.8536Z" fill="currentColor" />
</svg>
