<svg width="24" height="24" viewBox="0 0 24 24" fill="none" xmlns="http://www.w3.org/2000/svg">
<path fill-rule="evenodd" clip-rule="evenodd" d="M7 15.5C7 15.2239 7.22386 15 7.5 15H7.75C7.88807 15 8 14.8881 8 14.75V8.25C8 8.11193 7.88807 8 7.75 8H7.5C7.22386 8 7 7.77614 7 7.5C7 7.22386 7.22386 7 7.5 7H7.75C8.44036 7 9 7.55964 9 8.25V14.75C9 15.4404 8.44036 16 7.75 16H7.5C7.22386 16 7 15.7761 7 15.5ZM15 14.7502C15 14.8883 15.1119 15.0002 15.25 15.0002H15.5C15.7761 15.0002 16 15.2241 16 15.5002C16 15.7764 15.7761 16.0002 15.5 16.0002H15.25C14.5596 16.0002 14 15.4406 14 14.7502V8.25012C14 7.55977 14.5596 7.00012 15.25 7.00012H15.5C15.7761 7.00012 16 7.22398 16 7.50012C16 7.77626 15.7761 8.00012 15.5 8.00012H15.25C15.1119 8.00012 15 8.11205 15 8.25012V14.7502ZM11 13.5C11 13.7761 11.2239 14 11.5 14C11.7761 14 12 13.7761 12 13.5V9.5C12 9.22386 11.7761 9 11.5 9C11.2239 9 11 9.22386 11 9.5V13.5Z" fill="currentColor" />
</svg>
