<svg width="24" height="24" viewBox="0 0 24 24" fill="none" xmlns="http://www.w3.org/2000/svg">
<path fill-rule="evenodd" clip-rule="evenodd" d="M12.5 7C12.2238 7 12 7.22386 12 7.5V14.289L9.61168 11.8899C9.41686 11.6942 9.10028 11.6935 8.90457 11.8883C8.70887 12.0831 8.70815 12.3997 8.90297 12.5954L12.1456 15.8528C12.2394 15.947 12.367 16 12.5 16C12.633 16 12.7605 15.947 12.8543 15.8528L16.097 12.5954C16.2918 12.3997 16.2911 12.0831 16.0954 11.8883C15.8997 11.6935 15.5831 11.6942 15.3883 11.8899L13 14.289V7.5C13 7.22386 12.7761 7 12.5 7Z" fill="currentColor" />
</svg>
