<svg width="24" height="24" viewBox="0 0 24 24" fill="none" xmlns="http://www.w3.org/2000/svg">
<path fill-rule="evenodd" clip-rule="evenodd" d="M14.8536 14.1464C15.0488 14.3417 15.0488 14.6583 14.8536 14.8535L11.8536 17.8535C11.6583 18.0488 11.3417 18.0488 11.1464 17.8535L8.14645 14.8535C7.95118 14.6583 7.95118 14.3417 8.14645 14.1464C8.34171 13.9512 8.65829 13.9512 8.85355 14.1464L11 16.2929V7.70711L8.85355 9.85355C8.65829 10.0488 8.34171 10.0488 8.14645 9.85355C7.95118 9.65829 7.95118 9.34171 8.14645 9.14645L11.1464 6.14645C11.2402 6.05268 11.3674 6 11.5 6C11.6326 6 11.7598 6.05268 11.8536 6.14645L14.8536 9.14645C15.0488 9.34171 15.0488 9.65829 14.8536 9.85355C14.6583 10.0488 14.3417 10.0488 14.1464 9.85355L12 7.70711L12 16.2929L14.1464 14.1464C14.3417 13.9512 14.6583 13.9512 14.8536 14.1464Z" fill="currentColor" />
</svg>
