<svg width="24" height="24" viewBox="0 0 24 24" fill="none" xmlns="http://www.w3.org/2000/svg">
<path fill-rule="evenodd" clip-rule="evenodd" d="M11 5.5C11 5.22386 11.2239 5 11.5 5H13.5H15.5C15.7761 5 16 5.22386 16 5.5C16 5.77614 15.7761 6 15.5 6H14V18H15.5C15.7761 18 16 18.2239 16 18.5C16 18.7761 15.7761 19 15.5 19H13.5H11.5C11.2239 19 11 18.7761 11 18.5C11 18.2239 11.2239 18 11.5 18H13V6H11.5C11.2239 6 11 5.77614 11 5.5ZM18 9.5C18 9.22386 17.7761 9 17.5 9H15.5C15.2239 9 15 8.77614 15 8.5C15 8.22386 15.2239 8 15.5 8H17.5C18.3284 8 19 8.67157 19 9.5V14.5C19 15.3284 18.3284 16 17.5 16H15.5C15.2239 16 15 15.7761 15 15.5C15 15.2239 15.2239 15 15.5 15H17.5C17.7761 15 18 14.7761 18 14.5V9.5ZM6 11C6 10.7239 5.77614 10.5 5.5 10.5C5.22386 10.5 5 10.7239 5 11V14.5C5 15.3284 5.67157 16 6.5 16H11.5C11.7761 16 12 15.7761 12 15.5C12 15.2239 11.7761 15 11.5 15H6.5C6.22386 15 6 14.7761 6 14.5V11ZM8.01493 6.44028L7.7 7.7L6.44028 8.01493C5.93531 8.14117 5.93531 8.85883 6.44028 8.98507L7.7 9.3L8.01493 10.5597C8.14117 11.0647 8.85883 11.0647 8.98507 10.5597L9.3 9.3L10.5597 8.98507C11.0647 8.85883 11.0647 8.14117 10.5597 8.01493L9.3 7.7L8.98507 6.44028C8.85883 5.93531 8.14117 5.93531 8.01493 6.44028Z" fill="currentColor" />
</svg>
