<svg width="24" height="24" viewBox="0 0 24 24" fill="none" xmlns="http://www.w3.org/2000/svg">
<path fill-rule="evenodd" clip-rule="evenodd" d="M9.5 7H7.5C7.22386 7 7 7.22386 7 7.5V16.5C7 16.7761 7.22386 17 7.5 17H9.5C9.77614 17 10 16.7761 10 16.5V7.5C10 7.22386 9.77614 7 9.5 7ZM7.5 6C6.67157 6 6 6.67157 6 7.5V16.5C6 17.3284 6.67157 18 7.5 18H9.5C10.3284 18 11 17.3284 11 16.5V7.5C11 6.67157 10.3284 6 9.5 6H7.5ZM16.5 7H14.5C14.2239 7 14 7.22386 14 7.5V9.5C14 9.77614 14.2239 10 14.5 10H16.5C16.7761 10 17 9.77614 17 9.5V7.5C17 7.22386 16.7761 7 16.5 7ZM14.5 6C13.6716 6 13 6.67157 13 7.5V9.5C13 10.3284 13.6716 11 14.5 11H16.5C17.3284 11 18 10.3284 18 9.5V7.5C18 6.67157 17.3284 6 16.5 6H14.5ZM16 13.5C16 13.2239 15.7761 13 15.5 13C15.2239 13 15 13.2239 15 13.5V15H13.5C13.2239 15 13 15.2239 13 15.5C13 15.7761 13.2239 16 13.5 16H15V17.5C15 17.7761 15.2239 18 15.5 18C15.7761 18 16 17.7761 16 17.5V16H17.5C17.7761 16 18 15.7761 18 15.5C18 15.2239 17.7761 15 17.5 15H16V13.5Z" fill="currentColor" />
</svg>
