<svg width="24" height="24" viewBox="0 0 24 24" fill="none" xmlns="http://www.w3.org/2000/svg">
<path fill-rule="evenodd" clip-rule="evenodd" d="M7 9.5L7 7.5C7 7.22386 7.22386 7 7.5 7L16.5 7C16.7761 7 17 7.22386 17 7.5L17 9.5C17 9.77614 16.7761 10 16.5 10L7.5 10C7.22386 10 7 9.77614 7 9.5ZM6 7.5C6 6.67157 6.67157 6 7.5 6L16.5 6C17.3284 6 18 6.67157 18 7.5L18 9.5C18 10.3284 17.3284 11 16.5 11L7.5 11C6.67157 11 6 10.3284 6 9.5L6 7.5ZM7 16.5L7 14.5C7 14.2239 7.22386 14 7.5 14L9.5 14C9.77614 14 10 14.2239 10 14.5L10 16.5C10 16.7761 9.77614 17 9.5 17L7.5 17C7.22386 17 7 16.7761 7 16.5ZM6 14.5C6 13.6716 6.67157 13 7.5 13L9.5 13C10.3284 13 11 13.6716 11 14.5L11 16.5C11 17.3284 10.3284 18 9.5 18L7.5 18C6.67157 18 6 17.3284 6 16.5L6 14.5ZM13.5 16C13.2239 16 13 15.7761 13 15.5C13 15.2239 13.2239 15 13.5 15L15 15L15 13.5C15 13.2239 15.2239 13 15.5 13C15.7761 13 16 13.2239 16 13.5L16 15L17.5 15C17.7761 15 18 15.2239 18 15.5C18 15.7761 17.7761 16 17.5 16L16 16L16 17.5C16 17.7761 15.7761 18 15.5 18C15.2239 18 15 17.7761 15 17.5L15 16L13.5 16Z" fill="currentColor" />
</svg>
