<svg width="24" height="24" viewBox="0 0 24 24" fill="none" xmlns="http://www.w3.org/2000/svg">
<path fill-rule="evenodd" clip-rule="evenodd" d="M6.5 5C6.22386 5 6 5.22386 6 5.5C6 5.77614 6.22386 6 6.5 6H16.5C16.7761 6 17 5.77614 17 5.5C17 5.22386 16.7761 5 16.5 5H6.5ZM6.5 18C6.22386 18 6 18.2239 6 18.5C6 18.7761 6.22386 19 6.5 19H16.5C16.7761 19 17 18.7761 17 18.5C17 18.2239 16.7761 18 16.5 18H6.5ZM11.1464 7.14645C11.3417 6.95118 11.6583 6.95118 11.8536 7.14645L14.3536 9.64645C14.5488 9.84171 14.5488 10.1583 14.3536 10.3536C14.1583 10.5488 13.8417 10.5488 13.6464 10.3536L12 8.70711V15.2929L13.6464 13.6464C13.8417 13.4512 14.1583 13.4512 14.3536 13.6464C14.5488 13.8417 14.5488 14.1583 14.3536 14.3536L11.8536 16.8536C11.7598 16.9473 11.6326 17 11.5 17C11.3674 17 11.2402 16.9473 11.1464 16.8536L8.64645 14.3536C8.45118 14.1583 8.45118 13.8417 8.64645 13.6464C8.84171 13.4512 9.15829 13.4512 9.35355 13.6464L11 15.2929V8.70711L9.35355 10.3536C9.15829 10.5488 8.84171 10.5488 8.64645 10.3536C8.45118 10.1583 8.45118 9.84171 8.64645 9.64645L11.1464 7.14645Z" fill="currentColor" />
</svg>
