<svg width="24" height="24" viewBox="0 0 24 24" fill="none" xmlns="http://www.w3.org/2000/svg">
<path fill-rule="evenodd" clip-rule="evenodd" d="M15 7C16.1046 7 17 7.89543 17 9C17 10.1046 16.1046 11 15 11H13.5H9.71098L12.1101 8.61171C12.3058 8.41689 12.3065 8.10031 12.1117 7.90461C11.9169 7.7089 11.6003 7.70819 11.4046 7.90301L8.14725 11.1456C8.05299 11.2395 8 11.367 8 11.5C8 11.633 8.05299 11.7605 8.14725 11.8544L11.4046 15.097C11.6003 15.2918 11.9169 15.2911 12.1117 15.0954C12.3065 14.8997 12.3058 14.5831 12.1101 14.3883L9.71098 12L13.5 12H15C16.6569 12 18 10.6569 18 9C18 7.34315 16.6569 6 15 6H14.5C14.2239 6 14 6.22386 14 6.5C14 6.77614 14.2239 7 14.5 7H15Z" fill="currentColor" />
</svg>
