<svg width="24" height="24" viewBox="0 0 24 24" fill="none" xmlns="http://www.w3.org/2000/svg">
<path fill-rule="evenodd" clip-rule="evenodd" d="M8 9.5C8 9.22385 7.77614 9 7.5 9C7.22386 9 7 9.22385 7 9.5L7 14.5C7 14.7761 7.22386 15 7.5 15C7.77614 15 8 14.7761 8 14.5V9.5ZM17 9.5C17 9.22385 16.7761 9 16.5 9C16.2239 9 16 9.22385 16 9.5V14.5C16 14.7761 16.2239 15 16.5 15C16.7761 15 17 14.7761 17 14.5V9.5ZM9 7.5C9 7.22385 9.22386 7 9.5 7H14.5C14.7761 7 15 7.22385 15 7.5C15 7.77615 14.7761 8 14.5 8H9.5C9.22386 8 9 7.77615 9 7.5ZM9.5 16C9.22386 16 9 16.2239 9 16.5C9 16.7761 9.22386 17 9.5 17H14.5C14.7761 17 15 16.7761 15 16.5C15 16.2239 14.7761 16 14.5 16H9.5Z" fill="currentColor" />
</svg>
