<svg width="24" height="24" viewBox="0 0 24 24" fill="none" xmlns="http://www.w3.org/2000/svg">
<path fill-rule="evenodd" clip-rule="evenodd" d="M15.2929 7.29292C15.5789 7.00692 16.009 6.92137 16.3827 7.07615C16.7564 7.23093 17 7.59557 17 8.00003V16C17 16.4045 16.7564 16.7691 16.3827 16.9239C16.009 17.0787 15.5789 16.9931 15.2929 16.7071L12 13.4142V16.0001C12 16.4045 11.7564 16.7692 11.3827 16.924C11.009 17.0787 10.5789 16.9932 10.2929 16.7072L6.29289 12.7072C5.90237 12.3167 5.90237 11.6835 6.29289 11.293L10.2929 7.29298C10.5789 7.00698 11.009 6.92143 11.3827 7.07621C11.7564 7.23099 12 7.59562 12 8.00009V10.5858L15.2929 7.29292ZM12 12L12.7071 11.2929L15 9.00003L16 8.00003V9.41424V14.5858V16L15 15L12.7071 12.7071L12 12ZM10 15.0001L11 16.0001V14.5859V9.4143V8.00009L10 9.00009L7.70711 11.293L7 12.0001L7.70711 12.7072L10 15.0001Z" fill="currentColor" />
</svg>
