<svg width="24" height="24" viewBox="0 0 24 24" fill="none" xmlns="http://www.w3.org/2000/svg">
<path d="M16 12.9996C16 15.2088 14.2091 16.9996 12 16.9996C9.79086 16.9996 8 15.2088 8 12.9996C8 10.8293 10.0934 7.61229 11.2514 5.99887C11.625 5.47824 12.375 5.47824 12.7486 5.99887C13.9066 7.61229 16 10.8293 16 12.9996Z" fill="currentColor" fill-opacity="0.3" />
<path fill-rule="evenodd" clip-rule="evenodd" d="M12 15.9996C13.6569 15.9996 15 14.6565 15 12.9996C15 12.1732 14.58 11.0109 13.9224 9.75393C13.3085 8.58027 12.5596 7.45646 12 6.67116C11.4404 7.45646 10.6915 8.58027 10.0776 9.75393C9.42004 11.0109 9 12.1732 9 12.9996C9 14.6565 10.3431 15.9996 12 15.9996ZM12 16.9996C14.2091 16.9996 16 15.2088 16 12.9996C16 10.8293 13.9066 7.61229 12.7486 5.99887C12.375 5.47824 11.625 5.47824 11.2514 5.99887C10.0934 7.61229 8 10.8293 8 12.9996C8 15.2088 9.79086 16.9996 12 16.9996Z" fill="currentColor" />
</svg>
