<svg width="24" height="24" viewBox="0 0 24 24" fill="none" xmlns="http://www.w3.org/2000/svg">
<path fill-rule="evenodd" clip-rule="evenodd" d="M12 15.9999C13.6569 15.9999 15 14.6567 15 12.9999C15 12.1735 14.58 11.0112 13.9224 9.75417C13.3085 8.58051 12.5596 7.45671 12 6.67141C11.4404 7.45671 10.6915 8.58051 10.0776 9.75417C9.42004 11.0112 9 12.1735 9 12.9999C9 14.6567 10.3431 15.9999 12 15.9999ZM12 16.9999C14.2091 16.9999 16 15.209 16 12.9999C16 10.8296 13.9066 7.61254 12.7486 5.99911C12.375 5.47849 11.625 5.47849 11.2514 5.99911C10.0934 7.61254 8 10.8296 8 12.9999C8 15.209 9.79086 16.9999 12 16.9999Z" fill="currentColor" />
</svg>
