<svg width="24" height="24" viewBox="0 0 24 24" fill="none" xmlns="http://www.w3.org/2000/svg">
<path fill-rule="evenodd" clip-rule="evenodd" d="M14.5 9.25C14.5 10.2165 13.7165 11 12.75 11H9.5V8C9.5 7.72386 9.72386 7.5 10 7.5H12.75C13.7165 7.5 14.5 8.28351 14.5 9.25ZM8 11V8C8 6.89543 8.89543 6 10 6H12.75C14.5449 6 16 7.45508 16 9.25C16 10.085 15.6851 10.8464 15.1676 11.4221C16.259 12.0146 17 13.1708 17 14.5C17 16.433 15.433 18 13.5 18H10C8.89543 18 8 17.1046 8 16V12.5V11ZM9.5 12.5V16C9.5 16.2761 9.72386 16.5 10 16.5H13.5C14.6046 16.5 15.5 15.6046 15.5 14.5C15.5 13.3954 14.6046 12.5 13.5 12.5H12.75H9.5Z" fill="currentColor" />
</svg>
