<svg width="24" height="24" viewBox="0 0 24 24" fill="none" xmlns="http://www.w3.org/2000/svg">
<path fill-rule="evenodd" clip-rule="evenodd" d="M10 14V19H19V10H14V14H10Z" fill="currentColor" fill-opacity="0.3" />
<path fill-rule="evenodd" clip-rule="evenodd" d="M10 19V15H10.5H14C14.5523 15 15 14.5523 15 14V10.5V10H19V19H10ZM10 14H10.5H14V10.5V10V9V5H5V14H9H10ZM5 15H8H9V16V19C9 19.5523 9.44771 20 10 20H19C19.5523 20 20 19.5523 20 19V10C20 9.44771 19.5523 9 19 9H16H15V8V5C15 4.44771 14.5523 4 14 4H5C4.44771 4 4 4.44771 4 5V14C4 14.5523 4.44771 15 5 15Z" fill="currentColor" />
</svg>
