<svg width="24" height="24" viewBox="0 0 24 24" fill="none" xmlns="http://www.w3.org/2000/svg">
<path fill-rule="evenodd" clip-rule="evenodd" d="M10 14V17H17V10H14V14H10Z" fill="currentColor" fill-opacity="0.3" />
<path fill-rule="evenodd" clip-rule="evenodd" d="M17 17H10V15H10.5H14C14.5523 15 15 14.5523 15 14V10.5V10H17V17ZM10 14H10.5H14V10.5V10V9V7H7V14H9H10ZM7 15H8H9V16V17C9 17.5523 9.44771 18 10 18H17C17.5523 18 18 17.5523 18 17V10C18 9.44771 17.5523 9 17 9H16H15V8V7C15 6.44771 14.5523 6 14 6H7C6.44771 6 6 6.44771 6 7V14C6 14.5523 6.44771 15 7 15Z" fill="currentColor" />
</svg>
