<svg width="24" height="24" viewBox="0 0 24 24" fill="none" xmlns="http://www.w3.org/2000/svg">
<path fill-rule="evenodd" clip-rule="evenodd" d="M14 10V14H10V10H14Z" fill="currentColor" fill-opacity="0.3" />
<path fill-rule="evenodd" clip-rule="evenodd" d="M10.5 15H10V17H17V10H15V10.5V14C15 14.5523 14.5523 15 14 15H10.5ZM10.5 14H10V13.5V10H13.5H14V10.5V14H10.5ZM9 14H7V7H14V9H13.5H10C9.44771 9 9 9.44771 9 10V13.5V14ZM8 15H7C6.44771 15 6 14.5523 6 14V7C6 6.44771 6.44771 6 7 6H14C14.5523 6 15 6.44771 15 7V8V9H16H17C17.5523 9 18 9.44771 18 10V17C18 17.5523 17.5523 18 17 18H10C9.44771 18 9 17.5523 9 17V16V15H8Z" fill="currentColor" />
</svg>
