<svg width="24" height="24" viewBox="0 0 24 24" fill="none" xmlns="http://www.w3.org/2000/svg">
<path fill-rule="evenodd" clip-rule="evenodd" d="M14 10V14H10V10H14Z" fill="currentColor" fill-opacity="0.3" />
<path fill-rule="evenodd" clip-rule="evenodd" d="M10 15V19H19V10H15V10.5V14C15 14.5523 14.5523 15 14 15H10.5H10ZM10.5 14H10V13.5V10H13.5H14V10.5V14H10.5ZM9 14H5V5H14V9H13.5H10C9.44771 9 9 9.44771 9 10V13.5V14ZM8 15H5C4.44771 15 4 14.5523 4 14V5C4 4.44771 4.44771 4 5 4H14C14.5523 4 15 4.44771 15 5V8V9H16H19C19.5523 9 20 9.44771 20 10V19C20 19.5523 19.5523 20 19 20H10C9.44771 20 9 19.5523 9 19V16V15H8Z" fill="currentColor" />
</svg>
