<svg width="24" height="24" viewBox="0 0 24 24" fill="none" xmlns="http://www.w3.org/2000/svg">
<path fill-rule="evenodd" clip-rule="evenodd" d="M7 6C6.44771 6 6 6.44771 6 7V8C6 8.55229 6.44771 9 7 9H7.5H16.5H17C17.5523 9 18 8.55229 18 8V7C18 6.44771 17.5523 6 17 6H16.5H7.5H7ZM7 15C6.44771 15 6 15.4477 6 16V17C6 17.5523 6.44771 18 7 18H7.5H16.5H17C17.5523 18 18 17.5523 18 17V16C18 15.4477 17.5523 15 17 15H16.5H7.5H7ZM7 7H7.5H8H16H16.5H17V8H16.5H16H8H7.5H7V7ZM7 16H7.5H8H16H16.5H17V17H16.5H16H8H7.5H7V16ZM8 10C8 9.72386 7.77614 9.5 7.5 9.5C7.22386 9.5 7 9.72386 7 10V11C7 11.2761 7.22386 11.5 7.5 11.5C7.77614 11.5 8 11.2761 8 11V10ZM17 10C17 9.72386 16.7761 9.5 16.5 9.5C16.2239 9.5 16 9.72386 16 10V11C16 11.2761 16.2239 11.5 16.5 11.5C16.7761 11.5 17 11.2761 17 11V10ZM8 13C8 12.7239 7.77614 12.5 7.5 12.5C7.22386 12.5 7 12.7239 7 13V14C7 14.2761 7.22386 14.5 7.5 14.5C7.77614 14.5 8 14.2761 8 14V13ZM17 13C17 12.7239 16.7761 12.5 16.5 12.5C16.2239 12.5 16 12.7239 16 13V14C16 14.2761 16.2239 14.5 16.5 14.5C16.7761 14.5 17 14.2761 17 14V13Z" fill="currentColor" />
</svg>
