<svg width="24" height="24" viewBox="0 0 24 24" fill="none" xmlns="http://www.w3.org/2000/svg">
<path fill-rule="evenodd" clip-rule="evenodd" d="M9 7C9 6.44771 8.55229 6 8 6H7C6.44771 6 6 6.44771 6 7V7.5V16.5V17C6 17.5523 6.44771 18 7 18H7.5H16.5H17C17.5523 18 18 17.5523 18 17V16.5V7.5V7C18 6.44771 17.5523 6 17 6H16C15.4477 6 15 6.44771 15 7V7.5V15H9V7.5V7ZM8 7V7.5V8V15V16H9H15H16V15V8V7.5V7H17V7.5V8V16V16.5V17H16.5H16H8H7.5H7V16.5V16V8V7.5V7H8ZM10 7C9.72386 7 9.5 7.22386 9.5 7.5C9.5 7.77614 9.72386 8 10 8H11C11.2761 8 11.5 7.77614 11.5 7.5C11.5 7.22386 11.2761 7 11 7H10ZM13 7C12.7239 7 12.5 7.22386 12.5 7.5C12.5 7.77614 12.7239 8 13 8H14C14.2761 8 14.5 7.77614 14.5 7.5C14.5 7.22386 14.2761 7 14 7H13Z" fill="currentColor" />
</svg>
