<svg width="24" height="24" viewBox="0 0 24 24" fill="none" xmlns="http://www.w3.org/2000/svg">
<path fill-rule="evenodd" clip-rule="evenodd" d="M9 7C9 6.44771 8.55229 6 8 6H7C6.44771 6 6 6.44771 6 7V7.5V16.5V17C6 17.5523 6.44771 18 7 18H7.5H16.5H17C17.5523 18 18 17.5523 18 17V16C18 15.4477 17.5523 15 17 15H16.5H9V7.5V7ZM8 7V7.5V8V15V16H9H16H16.5H17V17H16.5H16H8H7.5H7V16.5V16V8V7.5V7H8ZM10 7C9.72386 7 9.5 7.22386 9.5 7.5C9.5 7.77614 9.72386 8 10 8H11C11.2761 8 11.5 7.77614 11.5 7.5C11.5 7.22386 11.2761 7 11 7H10ZM13 7C12.7239 7 12.5 7.22386 12.5 7.5C12.5 7.77614 12.7239 8 13 8H14C14.2761 8 14.5 7.77614 14.5 7.5C14.5 7.22386 14.2761 7 14 7H13ZM16 7C15.7239 7 15.5 7.22386 15.5 7.5C15.5 7.77614 15.7239 8 16 8C16 8.27614 16.2239 8.5 16.5 8.5C16.7761 8.5 17 8.27614 17 8C17 7.44771 16.5523 7 16 7ZM17 10C17 9.72386 16.7761 9.5 16.5 9.5C16.2239 9.5 16 9.72386 16 10V11C16 11.2761 16.2239 11.5 16.5 11.5C16.7761 11.5 17 11.2761 17 11V10ZM17 13C17 12.7239 16.7761 12.5 16.5 12.5C16.2239 12.5 16 12.7239 16 13V14C16 14.2761 16.2239 14.5 16.5 14.5C16.7761 14.5 17 14.2761 17 14V13Z" fill="currentColor" />
</svg>
