<svg width="24" height="24" viewBox="0 0 24 24" fill="none" xmlns="http://www.w3.org/2000/svg">
<path fill-rule="evenodd" clip-rule="evenodd" d="M7 6C6.44771 6 6 6.44771 6 7V8C6 8.55229 6.44771 9 7 9H7.5H15V15H7.5H7C6.44771 15 6 15.4477 6 16V17C6 17.5523 6.44771 18 7 18H7.5H16.5H17C17.5523 18 18 17.5523 18 17V16.5V7.5V7C18 6.44771 17.5523 6 17 6H16.5H7.5H7ZM7 7H7.5H8H16H16.5H17V7.5V8V16V16.5V17H16.5H16H8H7.5H7V16H7.5H8H15H16V15V9V8H15H8H7.5H7V7ZM8 10C8 9.72386 7.77614 9.5 7.5 9.5C7.22386 9.5 7 9.72386 7 10V11C7 11.2761 7.22386 11.5 7.5 11.5C7.77614 11.5 8 11.2761 8 11V10ZM8 13C8 12.7239 7.77614 12.5 7.5 12.5C7.22386 12.5 7 12.7239 7 13V14C7 14.2761 7.22386 14.5 7.5 14.5C7.77614 14.5 8 14.2761 8 14V13Z" fill="currentColor" />
</svg>
