<svg width="24" height="24" viewBox="0 0 24 24" fill="none" xmlns="http://www.w3.org/2000/svg">
<path fill-rule="evenodd" clip-rule="evenodd" d="M7 6C6.44771 6 6 6.44771 6 7V8C6 8.55229 6.44771 9 7 9H7.5H16.5H17C17.5523 9 18 8.55229 18 8V7C18 6.44771 17.5523 6 17 6H16.5H7.5H7ZM7 7H7.5H8H16H16.5H17V8H16.5H16H8H7.5H7V7ZM8 10C8 9.72386 7.77614 9.5 7.5 9.5C7.22386 9.5 7 9.72386 7 10V11C7 11.2761 7.22386 11.5 7.5 11.5C7.77614 11.5 8 11.2761 8 11V10ZM17 10C17 9.72386 16.7761 9.5 16.5 9.5C16.2239 9.5 16 9.72386 16 10V11C16 11.2761 16.2239 11.5 16.5 11.5C16.7761 11.5 17 11.2761 17 11V10ZM8 13C8 12.7239 7.77614 12.5 7.5 12.5C7.22386 12.5 7 12.7239 7 13V14C7 14.2761 7.22386 14.5 7.5 14.5C7.77614 14.5 8 14.2761 8 14V13ZM17 13C17 12.7239 16.7761 12.5 16.5 12.5C16.2239 12.5 16 12.7239 16 13V14C16 14.2761 16.2239 14.5 16.5 14.5C16.7761 14.5 17 14.2761 17 14V13ZM8 16C8 15.7239 7.77614 15.5 7.5 15.5C7.22386 15.5 7 15.7239 7 16C7 16.5523 7.44771 17 8 17C8.27614 17 8.5 16.7761 8.5 16.5C8.5 16.2239 8.27614 16 8 16ZM17 16C17 15.7239 16.7761 15.5 16.5 15.5C16.2239 15.5 16 15.7239 16 16C15.7239 16 15.5 16.2239 15.5 16.5C15.5 16.7761 15.7239 17 16 17C16.5523 17 17 16.5523 17 16ZM10 16C9.72386 16 9.5 16.2239 9.5 16.5C9.5 16.7761 9.72386 17 10 17H11C11.2761 17 11.5 16.7761 11.5 16.5C11.5 16.2239 11.2761 16 11 16H10ZM13 16C12.7239 16 12.5 16.2239 12.5 16.5C12.5 16.7761 12.7239 17 13 17H14C14.2761 17 14.5 16.7761 14.5 16.5C14.5 16.2239 14.2761 16 14 16H13Z" fill="currentColor" />
</svg>
