<svg width="24" height="24" viewBox="0 0 24 24" fill="none" xmlns="http://www.w3.org/2000/svg">
<path fill-rule="evenodd" clip-rule="evenodd" d="M7 6C6.44771 6 6 6.44771 6 7V7.5V16.5V17C6 17.5523 6.44771 18 7 18H8C8.55229 18 9 17.5523 9 17V16.5V9H15V16.5V17C15 17.5523 15.4477 18 16 18H17C17.5523 18 18 17.5523 18 17V16.5V7.5V7C18 6.44771 17.5523 6 17 6H16.5H7.5H7ZM7 7H7.5H8H16H16.5H17V7.5V8V16V16.5V17H16V16.5V16V9V8H15H9H8V9V16V16.5V17H7V16.5V16V8V7.5V7ZM10 16C9.72386 16 9.5 16.2239 9.5 16.5C9.5 16.7761 9.72386 17 10 17H11C11.2761 17 11.5 16.7761 11.5 16.5C11.5 16.2239 11.2761 16 11 16H10ZM13 16C12.7239 16 12.5 16.2239 12.5 16.5C12.5 16.7761 12.7239 17 13 17H14C14.2761 17 14.5 16.7761 14.5 16.5C14.5 16.2239 14.2761 16 14 16H13Z" fill="currentColor" />
</svg>
