<svg width="24" height="24" viewBox="0 0 24 24" fill="none" xmlns="http://www.w3.org/2000/svg">
<path fill-rule="evenodd" clip-rule="evenodd" d="M5 7.5C5 7.22386 5.22386 7 5.5 7H7.5C9.433 7 11 8.567 11 10.5V12.5C11 13.8807 12.1193 15 13.5 15H17.2929L16.1464 13.8536C15.9512 13.6583 15.9512 13.3417 16.1464 13.1464C16.3417 12.9512 16.6583 12.9512 16.8536 13.1464L18.8536 15.1464C19.0488 15.3417 19.0488 15.6583 18.8536 15.8536L16.8536 17.8536C16.6583 18.0488 16.3417 18.0488 16.1464 17.8536C15.9512 17.6583 15.9512 17.3417 16.1464 17.1464L17.2929 16H13.5C11.567 16 10 14.433 10 12.5V10.5C10 9.11929 8.88071 8 7.5 8H5.5C5.22386 8 5 7.77614 5 7.5ZM13 7.5C13 7.22386 13.2239 7 13.5 7H18.5C18.7761 7 19 7.22386 19 7.5C19 7.77614 18.7761 8 18.5 8H13.5C13.2239 8 13 7.77614 13 7.5Z" fill="currentColor" />
</svg>
