<svg width="24" height="24" viewBox="0 0 24 24" fill="none" xmlns="http://www.w3.org/2000/svg">
<path fill-rule="evenodd" clip-rule="evenodd" d="M10.9076 15.5H10.75C10.6119 15.5 10.5 15.6119 10.5 15.75V16.75C10.5 17.1642 10.8358 17.5 11.25 17.5H12.75C13.1642 17.5 13.5 17.1642 13.5 16.75V15.75C13.5 15.6119 13.3881 15.5 13.25 15.5H13.0924H10.9076ZM14.2333 14.9782C14.4031 14.7841 14.5237 14.5518 14.5833 14.3096C14.6985 13.8421 14.9117 13.37 15.1762 12.7935L15.191 12.7614C15.4213 12.2595 15.6908 11.6723 15.8593 11.0543C15.9512 10.7173 16 10.3635 16 10C16 7.79086 14.2091 6 12 6C9.79086 6 8 7.79086 8 10C8 10.3635 8.04876 10.7173 8.14066 11.0543C8.30918 11.6723 8.57867 12.2594 8.80903 12.7614L8.80903 12.7614L8.80903 12.7614L8.80903 12.7614L8.82377 12.7935C9.0883 13.37 9.30149 13.8421 9.41667 14.3096C9.47634 14.5518 9.59689 14.7841 9.76667 14.9782C9.59963 15.1907 9.5 15.4587 9.5 15.75V16.75C9.5 17.6317 10.1521 18.3611 11.0003 18.4823C11.0001 18.4882 11 18.4941 11 18.5C11 18.7761 11.2239 19 11.5 19H12.5C12.7761 19 13 18.7761 13 18.5C13 18.4941 12.9999 18.4882 12.9997 18.4823C13.8479 18.3611 14.5 17.6317 14.5 16.75V15.75C14.5 15.4587 14.4004 15.1907 14.2333 14.9782ZM13.0924 14.5C13.343 14.5 13.5524 14.3137 13.6124 14.0704C13.7542 13.4949 14.0106 12.9359 14.2673 12.3765L14.2673 12.3765C14.5075 11.853 14.7478 11.3293 14.8946 10.7912C14.9633 10.5391 15 10.2739 15 10C15 8.34315 13.6569 7 12 7C10.3431 7 9 8.34315 9 10C9 10.2739 9.03669 10.5391 9.10543 10.7912C9.25216 11.3293 9.4925 11.8531 9.73266 12.3765C9.98936 12.9359 10.2458 13.4949 10.3876 14.0704C10.4476 14.3137 10.657 14.5 10.9076 14.5H13.0924ZM11 10C11 9.44772 11.4477 9 12 9C12.2761 9 12.5 8.77614 12.5 8.5C12.5 8.22386 12.2761 8 12 8C10.8954 8 10 8.89543 10 10C10 10.2761 10.2239 10.5 10.5 10.5C10.7761 10.5 11 10.2761 11 10Z" fill="currentColor" />
</svg>
