<svg width="24" height="24" viewBox="0 0 24 24" fill="none" xmlns="http://www.w3.org/2000/svg">
<path fill-rule="evenodd" clip-rule="evenodd" d="M10.75 15.5H10.9076H13.0924H13.25C13.3881 15.5 13.5 15.6119 13.5 15.75V16.75C13.5 17.1642 13.1642 17.5 12.75 17.5H11.25C10.8358 17.5 10.5 17.1642 10.5 16.75V15.75C10.5 15.6119 10.6119 15.5 10.75 15.5ZM14.5833 14.3096C14.5237 14.5518 14.4031 14.7841 14.2333 14.9782C14.4004 15.1907 14.5 15.4587 14.5 15.75V16.75C14.5 17.6317 13.8479 18.3611 12.9997 18.4823C12.9999 18.4882 13 18.4941 13 18.5C13 18.7761 12.7761 19 12.5 19H11.5C11.2239 19 11 18.7761 11 18.5L11.0001 18.4914L11.0003 18.4823C10.1521 18.3611 9.5 17.6317 9.5 16.75V15.75C9.5 15.4587 9.59963 15.1907 9.76667 14.9782C9.59689 14.7841 9.47634 14.5518 9.41667 14.3096C9.30149 13.8421 9.0883 13.37 8.82377 12.7935L8.80903 12.7614L8.80903 12.7614C8.57868 12.2595 8.30918 11.6723 8.14066 11.0543C8.04876 10.7173 8 10.3635 8 10C8 7.79086 9.79086 6 12 6C14.2091 6 16 7.79086 16 10C16 10.3635 15.9512 10.7173 15.8593 11.0543C15.6908 11.6723 15.4213 12.2595 15.191 12.7614L15.1762 12.7935C14.9117 13.37 14.6985 13.8421 14.5833 14.3096ZM13.6124 14.0704C13.5524 14.3137 13.343 14.5 13.0924 14.5H10.9076C10.657 14.5 10.4476 14.3137 10.3876 14.0704C10.2458 13.4949 9.98936 12.9359 9.73266 12.3765C9.4925 11.8531 9.25216 11.3293 9.10543 10.7912C9.03669 10.5391 9 10.2739 9 10C9 8.34315 10.3431 7 12 7C13.6569 7 15 8.34315 15 10C15 10.2739 14.9633 10.5391 14.8946 10.7912C14.7478 11.3293 14.5075 11.853 14.2673 12.3765C14.0106 12.9359 13.7542 13.4949 13.6124 14.0704ZM11 10C11 9.44772 11.4477 9 12 9C12.2761 9 12.5 8.77614 12.5 8.5C12.5 8.22386 12.2761 8 12 8C10.8954 8 10 8.89543 10 10C10 10.2761 10.2239 10.5 10.5 10.5C10.7761 10.5 11 10.2761 11 10ZM5.5 9.5C5.22386 9.5 5 9.72386 5 10C5 10.2761 5.22386 10.5 5.5 10.5H6.5C6.77614 10.5 7 10.2761 7 10C7 9.72386 6.77614 9.5 6.5 9.5H5.5ZM17.5 9.5C17.2239 9.5 17 9.72386 17 10C17 10.2761 17.2239 10.5 17.5 10.5H18.5C18.7761 10.5 19 10.2761 19 10C19 9.72386 18.7761 9.5 18.5 9.5H17.5ZM5.93808 6.5C6.07615 6.26085 6.38195 6.17892 6.62109 6.31699L7.48712 6.81699C7.72627 6.95506 7.8082 7.26085 7.67013 7.5C7.53206 7.73915 7.22627 7.82108 6.98712 7.68301L6.12109 7.18301C5.88195 7.04494 5.80001 6.73915 5.93808 6.5ZM16.3304 12.5C16.4685 12.2609 16.7743 12.1789 17.0134 12.317L17.8794 12.817C18.1186 12.9551 18.2005 13.2609 18.0624 13.5C17.9244 13.7391 17.6186 13.8211 17.3794 13.683L16.5134 13.183C16.2743 13.0449 16.1923 12.7391 16.3304 12.5ZM6.12109 12.817C5.88195 12.9551 5.80001 13.2609 5.93808 13.5C6.07615 13.7391 6.38195 13.8211 6.62109 13.683L7.48712 13.183C7.72627 13.0449 7.8082 12.7391 7.67013 12.5C7.53206 12.2609 7.22627 12.1789 6.98712 12.317L6.12109 12.817ZM16.5134 6.81699C16.2743 6.95506 16.1923 7.26085 16.3304 7.5C16.4685 7.73915 16.7743 7.82108 17.0134 7.68301L17.8794 7.18301C18.1186 7.04494 18.2005 6.73915 18.0624 6.5C17.9244 6.26085 17.6186 6.17892 17.3794 6.31699L16.5134 6.81699Z" fill="currentColor" />
</svg>
