<svg width="24" height="24" viewBox="0 0 24 24" fill="none" xmlns="http://www.w3.org/2000/svg">
<path fill-rule="evenodd" clip-rule="evenodd" d="M7.5 8H13.5C14.3284 8 15 8.67157 15 9.5V11.5V12.5V14.5C15 15.3284 14.3284 16 13.5 16H7.5C6.67157 16 6 15.3284 6 14.5V9.5C6 8.67157 6.67157 8 7.5 8ZM16 13.9142V14.5C16 15.8807 14.8807 17 13.5 17H7.5C6.11929 17 5 15.8807 5 14.5V9.5C5 8.11929 6.11929 7 7.5 7H13.5C14.8807 7 16 8.11929 16 9.5V10.0858L17.2929 8.79289C17.5789 8.5069 18.009 8.42134 18.3827 8.57613C18.7564 8.7309 19 9.09554 19 9.5V14.5C19 14.9045 18.7564 15.2691 18.3827 15.4239C18.009 15.5787 17.5789 15.4931 17.2929 15.2071L16 13.9142ZM16 12.5L17 13.5L18 14.5V13.0858V10.9142V9.5L17 10.5L16 11.5V12.5Z" fill="currentColor" />
</svg>
