<svg width="24" height="24" viewBox="0 0 24 24" fill="none" xmlns="http://www.w3.org/2000/svg">
<path fill-rule="evenodd" clip-rule="evenodd" d="M17.8536 6.85355C18.0488 6.65829 18.0488 6.34171 17.8536 6.14645C17.6583 5.95118 17.3417 5.95118 17.1464 6.14645L6.14645 17.1464C5.95118 17.3417 5.95118 17.6583 6.14645 17.8536C6.34171 18.0488 6.65829 18.0488 6.85355 17.8536L17.8536 6.85355ZM13.5 7C13.9012 7 14.2803 7.09449 14.6163 7.26243L13.84 8.03869C13.7307 8.01338 13.6169 8 13.5 8H7.5C6.67157 8 6 8.67157 6 9.5V14.5C6 14.8833 6.1438 15.2331 6.3804 15.4983L5.67261 16.2061C5.25537 15.7593 5 15.1595 5 14.5V9.5C5 8.11929 6.11929 7 7.5 7H13.5ZM13.5 16H10.1213L9.12132 17H13.5C14.8807 17 16 15.8807 16 14.5V13.9142L17.2929 15.2071C17.5789 15.4931 18.009 15.5787 18.3827 15.4239C18.7564 15.2691 19 14.9045 19 14.5V9.5C19 9.09554 18.7564 8.7309 18.3827 8.57613C18.0793 8.45047 17.7388 8.48321 17.4683 8.65299L15 11.1213V11.5V12.5V14.5C15 15.3284 14.3284 16 13.5 16ZM16 12.5L17 13.5L18 14.5V13.0858V10.9142V9.5L17 10.5L16 11.5V12.5Z" fill="currentColor" />
</svg>
