<svg width="24" height="24" viewBox="0 0 24 24" fill="none" xmlns="http://www.w3.org/2000/svg">
<path fill-rule="evenodd" clip-rule="evenodd" d="M10 6H14V7H10V6ZM9 6C9 5.44772 9.44772 5 10 5H14C14.5523 5 15 5.44772 15 6C16.1046 6 17 6.89543 17 8V16C17 17.1046 16.1046 18 15 18H9C7.89543 18 7 17.1046 7 16V8C7 6.89543 7.89543 6 9 6ZM9 7C8.44772 7 8 7.44772 8 8V16C8 16.5523 8.44772 17 9 17H15C15.5523 17 16 16.5523 16 16V8C16 7.44772 15.5523 7 15 7C15 7.55228 14.5523 8 14 8H10C9.44772 8 9 7.55228 9 7ZM10 10.5C10 10.2239 10.2239 10 10.5 10H13.5C13.7761 10 14 10.2239 14 10.5C14 10.7761 13.7761 11 13.5 11H10.5C10.2239 11 10 10.7761 10 10.5ZM10.5 13C10.2239 13 10 13.2239 10 13.5C10 13.7761 10.2239 14 10.5 14H13.5C13.7761 14 14 13.7761 14 13.5C14 13.2239 13.7761 13 13.5 13H10.5Z" fill="currentColor" />
</svg>
