<svg width="24" height="24" viewBox="0 0 24 24" fill="none" xmlns="http://www.w3.org/2000/svg">
<path fill-rule="evenodd" clip-rule="evenodd" d="M17.3536 6.64645C17.5488 6.84171 17.5488 7.15829 17.3536 7.35355L12.7071 12L17.3536 16.6464C17.5488 16.8417 17.5488 17.1583 17.3536 17.3536C17.1583 17.5488 16.8417 17.5488 16.6464 17.3536L12 12.7071L7.35355 17.3536C7.15829 17.5488 6.84171 17.5488 6.64645 17.3536C6.45118 17.1583 6.45118 16.8417 6.64645 16.6464L11.2929 12L6.64645 7.35365C6.45119 7.15839 6.45118 6.84181 6.64644 6.64654C6.84171 6.45128 7.15829 6.45128 7.35355 6.64654L12 11.2929L16.6464 6.64645C16.8417 6.45118 17.1583 6.45118 17.3536 6.64645Z" fill="currentColor" />
</svg>
