<svg width="24" height="24" viewBox="0 0 24 24" fill="none" xmlns="http://www.w3.org/2000/svg">
<path fill-rule="evenodd" clip-rule="evenodd" d="M12 4.1001C7.63693 4.1001 4.09998 7.63705 4.09998 12.0001C4.09998 16.3631 7.63693 19.9001 12 19.9001C16.363 19.9001 19.9 16.3631 19.9 12.0001C19.9 7.63705 16.363 4.1001 12 4.1001ZM14.8535 9.85355C15.0488 9.65829 15.0488 9.34171 14.8535 9.14645C14.6583 8.95119 14.3417 8.95119 14.1465 9.14645L12 11.2929L9.85355 9.1465C9.65829 8.95123 9.34171 8.95123 9.14644 9.1465C8.95119 9.34177 8.95119 9.65836 9.14645 9.85361L11.2929 12L9.14645 14.1465C8.95119 14.3417 8.95119 14.6583 9.14645 14.8535C9.34171 15.0488 9.65829 15.0488 9.85355 14.8535L12 12.7071L14.1465 14.8536C14.3417 15.0488 14.6583 15.0488 14.8536 14.8535C15.0488 14.6583 15.0488 14.3417 14.8535 14.1464L12.7071 12L14.8535 9.85355Z" fill="currentColor" />
</svg>
