<svg width="24" height="24" viewBox="0 0 24 24" fill="none" xmlns="http://www.w3.org/2000/svg">
<path fill-rule="evenodd" clip-rule="evenodd" d="M7 7H17C17.5523 7 18 7.44772 18 8V16C18 16.5523 17.5523 17 17 17H7C6.44772 17 6 16.5523 6 16V8C6 7.44772 6.44772 7 7 7ZM5 8C5 6.89543 5.89543 6 7 6H17C18.1046 6 19 6.89543 19 8V16C19 17.1046 18.1046 18 17 18H7C5.89543 18 5 17.1046 5 16V8ZM9.5 15C9.22386 15 9 15.2239 9 15.5C9 15.7761 9.22386 16 9.5 16H11.5C11.7761 16 12 15.7761 12 15.5C12 15.2239 11.7761 15 11.5 15H9.5ZM14 13.5C14 13.2239 14.2239 13 14.5 13H16.5C16.7761 13 17 13.2239 17 13.5C17 13.7761 16.7761 14 16.5 14H14.5C14.2239 14 14 13.7761 14 13.5ZM10.5 13C10.2239 13 10 13.2239 10 13.5C10 13.7761 10.2239 14 10.5 14H12.5C12.7761 14 13 13.7761 13 13.5C13 13.2239 12.7761 13 12.5 13H10.5ZM13 15.5C13 15.2239 13.2239 15 13.5 15H14.5C14.7761 15 15 15.2239 15 15.5C15 15.7761 14.7761 16 14.5 16H13.5C13.2239 16 13 15.7761 13 15.5ZM7.5 13C7.22386 13 7 13.2239 7 13.5C7 13.7761 7.22386 14 7.5 14H8.5C8.77614 14 9 13.7761 9 13.5C9 13.2239 8.77614 13 8.5 13H7.5Z" fill="currentColor" />
</svg>
