<svg width="24" height="24" viewBox="0 0 24 24" fill="none" xmlns="http://www.w3.org/2000/svg">
<path fill-rule="evenodd" clip-rule="evenodd" d="M7.79817 17L7.5988 16.9802C5.57854 16.7796 4 15.0735 4 13C4 10.9014 5.61678 9.17946 7.67197 9.0132L8.23007 8.96806L8.48326 8.46863C9.22687 7.0018 10.7473 6 12.5 6C14.8811 6 16.831 7.85001 16.9895 10.1904L17.0385 10.9137L17.7412 11.092C19.0401 11.4218 20 12.6 20 14C20 15.6569 18.6569 17 17 17H8H7.79817ZM3 13C3 15.5927 4.97334 17.7245 7.5 17.9753V18H8H8.5H17C19.2091 18 21 16.2091 21 14C21 12.1316 19.7189 10.5624 17.9873 10.1228C17.7934 7.26115 15.4108 5 12.5 5C10.3561 5 8.49866 6.22668 7.59132 8.01646C5.02106 8.22438 3 10.3762 3 13ZM10.3535 10.1465C10.1583 9.95119 9.84171 9.95119 9.64645 10.1465C9.45119 10.3417 9.45119 10.6583 9.64645 10.8535L11.2929 12.5L9.64645 14.1465C9.45119 14.3417 9.45119 14.6583 9.64645 14.8535C9.84171 15.0488 10.1583 15.0488 10.3535 14.8535L12 13.2071L13.6465 14.8535C13.8417 15.0488 14.1583 15.0488 14.3535 14.8535C14.5488 14.6583 14.5488 14.3417 14.3535 14.1465L12.7071 12.5L14.3535 10.8535C14.5488 10.6583 14.5488 10.3417 14.3535 10.1465C14.1583 9.95119 13.8417 9.95119 13.6465 10.1465L12 11.7929L10.3535 10.1465Z" fill="currentColor" />
</svg>
