<svg width="24" height="24" viewBox="0 0 24 24" fill="none" xmlns="http://www.w3.org/2000/svg">
<path fill-rule="evenodd" clip-rule="evenodd" d="M15.4332 10.3149L15.5539 10.9242L16.1536 11.086C17.218 11.3733 18 12.3466 18 13.5C18 14.8807 16.8807 16 15.5 16H9C7.34314 16 6 14.6569 6 13C6 11.6322 6.91618 10.4758 8.17035 10.1159L8.61604 9.98802L8.80638 9.56522C9.35535 8.34573 10.58 7.5 12 7.5C13.6978 7.5 15.1152 8.70985 15.4332 10.3149ZM5 13C5 15.2091 6.79086 17 9 17H15.5C17.433 17 19 15.433 19 13.5C19 11.8833 17.9038 10.5226 16.4141 10.1206C16.0052 8.05632 14.1843 6.5 12 6.5C10.1723 6.5 8.59908 7.58963 7.89452 9.15472C6.22307 9.63437 5 11.1743 5 13ZM10.8535 10.6465C10.6583 10.4512 10.3417 10.4512 10.1465 10.6465C9.95119 10.8417 9.95119 11.1583 10.1465 11.3535L11.2929 12.5L10.1465 13.6465C9.95119 13.8417 9.95119 14.1583 10.1465 14.3535C10.3417 14.5488 10.6583 14.5488 10.8535 14.3535L12 13.2071L13.1465 14.3535C13.3417 14.5488 13.6583 14.5488 13.8535 14.3535C14.0488 14.1583 14.0488 13.8417 13.8535 13.6465L12.7071 12.5L13.8535 11.3535C14.0488 11.1583 14.0488 10.8417 13.8535 10.6465C13.6583 10.4512 13.3417 10.4512 13.1465 10.6465L12 11.7929L10.8535 10.6465Z" fill="currentColor" />
</svg>
