<svg width="24" height="24" viewBox="0 0 24 24" fill="none" xmlns="http://www.w3.org/2000/svg">
<path fill-rule="evenodd" clip-rule="evenodd" d="M7.35355 4.14645C7.54882 4.34171 7.54882 4.65829 7.35355 4.85355L5.20711 7L7.35355 9.14645C7.54882 9.34171 7.54882 9.65829 7.35355 9.85355C7.15829 10.0488 6.84171 10.0488 6.64645 9.85355L4.14645 7.35355C3.95118 7.15829 3.95118 6.84171 4.14645 6.64645L6.64645 4.14645C6.84171 3.95118 7.15829 3.95118 7.35355 4.14645ZM14 4.5C14 4.22386 14.2239 4 14.5 4H18C19.1046 4 20 4.89543 20 6V18C20 19.1046 19.1046 20 18 20H6C4.89543 20 4 19.1046 4 18V11.5C4 11.2239 4.22386 11 4.5 11C4.77614 11 5 11.2239 5 11.5V18C5 18.5523 5.44772 19 6 19H18C18.5523 19 19 18.5523 19 18V6C19 5.44772 18.5523 5 18 5H14.5C14.2239 5 14 4.77614 14 4.5ZM9.64645 4.85355C9.45118 4.65829 9.45118 4.34171 9.64645 4.14645C9.84171 3.95118 10.1583 3.95118 10.3536 4.14645L12.8536 6.64645C13.0488 6.84171 13.0488 7.15829 12.8536 7.35355L10.3536 9.85355C10.1583 10.0488 9.84171 10.0488 9.64645 9.85355C9.45118 9.65829 9.45118 9.34171 9.64645 9.14645L11.7929 7L9.64645 4.85355Z" fill="currentColor" />
</svg>
