<svg width="24" height="24" viewBox="0 0 24 24" fill="none" xmlns="http://www.w3.org/2000/svg">
<path fill-rule="evenodd" clip-rule="evenodd" d="M8.85355 6.14645C9.04882 6.34171 9.04882 6.65829 8.85355 6.85355L7.20711 8.5L8.85355 10.1464C9.04882 10.3417 9.04882 10.6583 8.85355 10.8536C8.65829 11.0488 8.34171 11.0488 8.14645 10.8536L6.14645 8.85355C5.95118 8.65829 5.95118 8.34171 6.14645 8.14645L8.14645 6.14645C8.34171 5.95118 8.65829 5.95118 8.85355 6.14645ZM15 6.5C15 6.22386 15.2239 6 15.5 6H16.5C17.3284 6 18 6.67157 18 7.5V16.5C18 17.3284 17.3284 18 16.5 18H7.5C6.67157 18 6 17.3284 6 16.5V12.5C6 12.2239 6.22386 12 6.5 12C6.77614 12 7 12.2239 7 12.5V16.5C7 16.7761 7.22386 17 7.5 17H16.5C16.7761 17 17 16.7761 17 16.5V7.5C17 7.22386 16.7761 7 16.5 7H15.5C15.2239 7 15 6.77614 15 6.5ZM11.1464 6.85355C10.9512 6.65829 10.9512 6.34171 11.1464 6.14645C11.3417 5.95118 11.6583 5.95118 11.8536 6.14645L13.8536 8.14645C14.0488 8.34171 14.0488 8.65829 13.8536 8.85355L11.8536 10.8536C11.6583 11.0488 11.3417 11.0488 11.1464 10.8536C10.9512 10.6583 10.9512 10.3417 11.1464 10.1464L12.7929 8.5L11.1464 6.85355Z" fill="currentColor" />
</svg>
