<svg width="24" height="24" viewBox="0 0 24 24" fill="none" xmlns="http://www.w3.org/2000/svg">
<path fill-rule="evenodd" clip-rule="evenodd" d="M8.64645 7.14645C8.84171 6.95118 9.15829 6.95118 9.35355 7.14645C9.54882 7.34171 9.54882 7.65829 9.35355 7.85355L5.20711 12L9.35355 16.1464C9.54882 16.3417 9.54882 16.6583 9.35355 16.8536C9.15829 17.0488 8.84171 17.0488 8.64645 16.8536L4.14645 12.3536C3.95118 12.1583 3.95118 11.8417 4.14645 11.6464L8.64645 7.14645ZM15.3536 7.14645C15.1583 6.95118 14.8417 6.95118 14.6464 7.14645C14.4512 7.34171 14.4512 7.65829 14.6464 7.85355L18.7929 12L14.6464 16.1464C14.4512 16.3417 14.4512 16.6583 14.6464 16.8536C14.8417 17.0488 15.1583 17.0488 15.3536 16.8536L19.8536 12.3536C19.9473 12.2598 20 12.1326 20 12C20 11.8674 19.9473 11.7402 19.8536 11.6464L15.3536 7.14645Z" fill="currentColor" />
</svg>
