<svg width="24" height="24" viewBox="0 0 24 24" fill="none" xmlns="http://www.w3.org/2000/svg">
<path fill-rule="evenodd" clip-rule="evenodd" d="M6.5 7C6.22386 7 6 7.22386 6 7.5C6 7.77614 6.22386 8 6.5 8H11.5C11.7761 8 12 7.77614 12 7.5C12 7.22386 11.7761 7 11.5 7H6.5ZM6.5 10C6.22386 10 6 10.2239 6 10.5C6 10.7761 6.22386 11 6.5 11H11.5C11.7761 11 12 10.7761 12 10.5C12 10.2239 11.7761 10 11.5 10H6.5ZM6 13.5C6 13.2239 6.22386 13 6.5 13H11.5C11.7761 13 12 13.2239 12 13.5C12 13.7761 11.7761 14 11.5 14H6.5C6.22386 14 6 13.7761 6 13.5ZM6.5 16C6.22386 16 6 16.2239 6 16.5C6 16.7761 6.22386 17 6.5 17H11.5C11.7761 17 12 16.7761 12 16.5C12 16.2239 11.7761 16 11.5 16H6.5ZM13.1464 16.1464L15.1464 14.1464C15.3417 13.9512 15.6583 13.9512 15.8536 14.1464L17.8536 16.1464C18.0488 16.3417 18.0488 16.6583 17.8536 16.8536C17.6583 17.0488 17.3417 17.0488 17.1464 16.8536L15.5 15.2071L13.8536 16.8536C13.6583 17.0488 13.3417 17.0488 13.1464 16.8536C12.9512 16.6583 12.9512 16.3417 13.1464 16.1464ZM15.8536 9.85355C15.6583 10.0488 15.3417 10.0488 15.1464 9.85355L13.1464 7.85355C12.9512 7.65829 12.9512 7.34171 13.1464 7.14645C13.3417 6.95118 13.6583 6.95118 13.8536 7.14645L15.5 8.79289L17.1464 7.14645C17.3417 6.95118 17.6583 6.95118 17.8536 7.14645C18.0488 7.34171 18.0488 7.65829 17.8536 7.85355L15.8536 9.85355Z" fill="currentColor" />
</svg>
