<svg width="24" height="24" viewBox="0 0 24 24" fill="none" xmlns="http://www.w3.org/2000/svg">
<path fill-rule="evenodd" clip-rule="evenodd" d="M17.1464 6.14645C17.3417 5.95118 17.6583 5.95118 17.8536 6.14645C18.0488 6.34171 18.0488 6.65829 17.8536 6.85355L14.7071 10L17.5 10C17.7761 10 18 10.2239 18 10.5C18 10.7761 17.7761 11 17.5 11L13.5 11C13.2239 11 13 10.7761 13 10.5L13 6.5C13 6.22386 13.2239 6 13.5 6C13.7761 6 14 6.22386 14 6.5L14 9.29289L17.1464 6.14645ZM6.85355 17.8536C6.65829 18.0488 6.34171 18.0488 6.14645 17.8536C5.95118 17.6583 5.95118 17.3417 6.14645 17.1464L9.29289 14L6.5 14C6.22386 14 6 13.7761 6 13.5C6 13.2239 6.22386 13 6.5 13L10.5 13C10.7761 13 11 13.2239 11 13.5L11 17.5C11 17.7761 10.7761 18 10.5 18C10.2239 18 10 17.7761 10 17.5L10 14.7071L6.85355 17.8536Z" fill="currentColor" />
</svg>
