<svg width="24" height="24" viewBox="0 0 24 24" fill="none" xmlns="http://www.w3.org/2000/svg">
<path fill-rule="evenodd" clip-rule="evenodd" d="M12 17H7.89474C7.70416 17 7.58756 16.9998 7.49899 16.9967C7.42506 16.994 7.4003 16.9899 7.39738 16.9894C7.39738 16.9894 7.39739 16.9894 7.39739 16.9894C7.39739 16.9894 7.39739 16.9894 7.39739 16.9894C7.39719 16.9893 7.39709 16.9893 7.39708 16.9893C7.39708 16.9893 7.39717 16.9893 7.39737 16.9894C7.20313 16.9486 7.05138 16.7969 7.01064 16.6026L7.01064 16.6026L7.01064 16.6026C7.0101 16.5997 7.006 16.5749 7.00334 16.501C7.00015 16.4124 7 16.2958 7 16.1053V12C7 9.23858 9.23858 7 12 7C14.7614 7 17 9.23858 17 12C17 14.7614 14.7614 17 12 17ZM6 12C6 8.68629 8.68629 6 12 6C15.3137 6 18 8.68629 18 12C18 15.3137 15.3137 18 12 18H7.89474C7.52787 18 7.34443 18 7.19218 17.9681C6.60942 17.8459 6.15412 17.3906 6.03192 16.8078C6 16.6556 6 16.4721 6 16.1053V12Z" fill="currentColor" />
<circle cx="16" cy="8" r="2" fill="var(--figma-color-icon-danger)" />
</svg>
