<svg width="24" height="24" viewBox="0 0 24 24" fill="none" xmlns="http://www.w3.org/2000/svg">
<path fill-rule="evenodd" clip-rule="evenodd" d="M7.89474 17H12C14.7614 17 17 14.7614 17 12C17 9.23858 14.7614 7 12 7C9.23858 7 7 9.23858 7 12V16.1053C7 16.2958 7.00015 16.4124 7.00334 16.501C7.006 16.5749 7.0101 16.5997 7.01064 16.6026C7.01064 16.6026 7.01064 16.6026 7.01064 16.6026C7.01064 16.6026 7.01064 16.6026 7.01064 16.6026C7.05138 16.7969 7.20315 16.9486 7.39739 16.9894C7.39423 16.9887 7.41452 16.9936 7.49899 16.9967C7.58756 16.9998 7.70416 17 7.89474 17ZM12 6C8.68629 6 6 8.68629 6 12V16.1053C6 16.4721 6 16.6556 6.03192 16.8078C6.15412 17.3906 6.60942 17.8459 7.19218 17.9681C7.34443 18 7.52787 18 7.89474 18H12C15.3137 18 18 15.3137 18 12C18 8.68629 15.3137 6 12 6Z" fill="currentColor" />
</svg>
