<svg width="24" height="24" viewBox="0 0 24 24" fill="none" xmlns="http://www.w3.org/2000/svg">
<path fill-rule="evenodd" clip-rule="evenodd" d="M11.9184 16.759C11.6814 16.9806 11.5388 17 11.5 17C11.4612 17 11.3186 16.9806 11.0816 16.759C10.8472 16.5396 10.5852 16.1782 10.3397 15.6648C9.89972 14.7448 9.57232 13.4608 9.51054 12H13.4895C13.4277 13.4608 13.1003 14.7448 12.6603 15.6648C12.4148 16.1782 12.1528 16.5396 11.9184 16.759ZM13.4895 11H9.51054C9.57232 9.53921 9.89972 8.25518 10.3397 7.33522C10.5852 6.82185 10.8472 6.46038 11.0816 6.24104C11.3186 6.01935 11.4612 6 11.5 6C11.5388 6 11.6814 6.01935 11.9184 6.24104C12.1528 6.46038 12.4148 6.82185 12.6603 7.33522C13.1003 8.25518 13.4277 9.53921 13.4895 11ZM14.4903 12C14.4148 13.9365 13.9068 15.6359 13.216 16.727C15.2614 16.0559 16.7777 14.2178 16.9776 12H14.4903ZM16.9776 11H14.4903C14.4148 9.06347 13.9068 7.36412 13.216 6.27298C15.2614 6.94406 16.7777 8.78222 16.9776 11ZM17.9811 11C17.7257 7.64378 14.9216 5 11.5 5C7.91015 5 5 7.91015 5 11.5C5 15.0899 7.91015 18 11.5 18C14.9216 18 17.7257 15.3562 17.9811 12H18V11.5V11H17.9811ZM8.50973 11C8.58524 9.06347 9.09316 7.36413 9.784 6.27298C7.73863 6.94406 6.22228 8.78222 6.02242 11H8.50973ZM6.02242 12C6.22228 14.2178 7.73863 16.0559 9.78401 16.727C9.09317 15.6359 8.58524 13.9365 8.50973 12H6.02242Z" fill="currentColor" />
</svg>
