<svg width="24" height="24" viewBox="0 0 24 24" fill="none" xmlns="http://www.w3.org/2000/svg">
<path fill-rule="evenodd" clip-rule="evenodd" d="M12 19H7.2C6.62345 19 6.25117 18.9992 5.96784 18.9761C5.69617 18.9539 5.59545 18.9162 5.54601 18.891C5.35785 18.7951 5.20487 18.6422 5.10899 18.454C5.0838 18.4045 5.04612 18.3038 5.02393 18.0322C5.00078 17.7488 5 17.3766 5 16.8V12C5 8.13401 8.13401 5 12 5C15.866 5 19 8.13401 19 12C19 15.866 15.866 19 12 19ZM4 12C4 7.58172 7.58172 4 12 4C16.4183 4 20 7.58172 20 12C20 16.4183 16.4183 20 12 20H7.2C6.0799 20 5.51984 20 5.09202 19.782C4.71569 19.5903 4.40973 19.2843 4.21799 18.908C4 18.4802 4 17.9201 4 16.8V12Z" fill="currentColor" />
<circle cx="17.5" cy="6.5" r="2.5" fill="var(--figma-color-icon-danger)" />
</svg>
