<svg width="24" height="24" viewBox="0 0 24 24" fill="none" xmlns="http://www.w3.org/2000/svg">
<path fill-rule="evenodd" clip-rule="evenodd" d="M7.5 6C7.77614 6 8 6.22386 8 6.5C8 6.77614 7.77614 7 7.5 7C7.22386 7 7 7.22386 7 7.5C7 7.77614 6.77614 8 6.5 8C6.22386 8 6 7.77614 6 7.5C6 6.67157 6.67157 6 7.5 6ZM9 6.5C9 6.77614 9.22386 7 9.5 7H11C11.2761 7 11.5 6.77614 11.5 6.5C11.5 6.22386 11.2761 6 11 6H9.5C9.22386 6 9 6.22386 9 6.5ZM14.5 7C14.7761 7 15 6.77614 15 6.5C15 6.22386 14.7761 6 14.5 6H13C12.7239 6 12.5 6.22386 12.5 6.5C12.5 6.77614 12.7239 7 13 7H14.5ZM17 7.5C17 7.77614 17.2239 8 17.5 8C17.7761 8 18 7.77614 18 7.5C18 6.67157 17.3284 6 16.5 6C16.2239 6 16 6.22386 16 6.5C16 6.77614 16.2239 7 16.5 7C16.7761 7 17 7.22386 17 7.5ZM17 11C17 11.2761 17.2239 11.5 17.5 11.5C17.7761 11.5 18 11.2761 18 11V9.5C18 9.22386 17.7761 9 17.5 9C17.2239 9 17 9.22386 17 9.5V11ZM17 14.5C17 14.7761 17.2239 15 17.5 15C17.7761 15 18 14.7761 18 14.5V13C18 12.7239 17.7761 12.5 17.5 12.5C17.2239 12.5 17 12.7239 17 13V14.5ZM16.5 17C16.2239 17 16 17.2239 16 17.5C16 17.7761 16.2239 18 16.5 18C17.3284 18 18 17.3284 18 16.5C18 16.2239 17.7761 16 17.5 16C17.2239 16 17 16.2239 17 16.5C17 16.7761 16.7761 17 16.5 17ZM13 17C12.7239 17 12.5 17.2239 12.5 17.5C12.5 17.7761 12.7239 18 13 18H14.5C14.7761 18 15 17.7761 15 17.5C15 17.2239 14.7761 17 14.5 17H13ZM9.5 17C9.22386 17 9 17.2239 9 17.5C9 17.7761 9.22386 18 9.5 18H11C11.2761 18 11.5 17.7761 11.5 17.5C11.5 17.2239 11.2761 17 11 17H9.5ZM7 16.5C7 16.2239 6.77614 16 6.5 16C6.22386 16 6 16.2239 6 16.5C6 17.3284 6.67157 18 7.5 18C7.77614 18 8 17.7761 8 17.5C8 17.2239 7.77614 17 7.5 17C7.22386 17 7 16.7761 7 16.5ZM7 13C7 12.7239 6.77614 12.5 6.5 12.5C6.22386 12.5 6 12.7239 6 13V14.5C6 14.7761 6.22386 15 6.5 15C6.77614 15 7 14.7761 7 14.5V13ZM7 9.5C7 9.22386 6.77614 9 6.5 9C6.22386 9 6 9.22386 6 9.5V11C6 11.2761 6.22386 11.5 6.5 11.5C6.77614 11.5 7 11.2761 7 11V9.5ZM9.66789 11.0821C9.86316 10.8868 10.1797 10.8868 10.375 11.0821L10.9393 11.6464C11.1346 11.8417 11.1346 12.1583 10.9393 12.3536L10.375 12.9179C10.1797 13.1132 9.86316 13.1132 9.66789 12.9179L9.10355 12.3536C8.90829 12.1583 8.90829 11.8417 9.10355 11.6464L9.66789 11.0821ZM11.0821 10.375C10.8868 10.1797 10.8868 9.86316 11.0821 9.66789L11.6464 9.10355C11.8417 8.90829 12.1583 8.90829 12.3536 9.10355L12.9179 9.66789C13.1132 9.86315 13.1132 10.1797 12.9179 10.375L12.3536 10.9393C12.1583 11.1346 11.8417 11.1346 11.6464 10.9393L11.0821 10.375ZM13.625 11.0821C13.8203 10.8868 14.1368 10.8868 14.3321 11.0821L14.8964 11.6464C15.0917 11.8417 15.0917 12.1583 14.8964 12.3536L14.3321 12.9179C14.1368 13.1132 13.8203 13.1132 13.625 12.9179L13.0607 12.3536C12.8654 12.1583 12.8654 11.8417 13.0607 11.6464L13.625 11.0821ZM12.9179 13.625C13.1132 13.8203 13.1132 14.1368 12.9179 14.3321L12.3536 14.8964C12.1583 15.0917 11.8417 15.0917 11.6464 14.8964L11.0821 14.3321C10.8868 14.1368 10.8868 13.8203 11.0821 13.625L11.6464 13.0607C11.8417 12.8654 12.1583 12.8654 12.3536 13.0607L12.9179 13.625Z" fill="currentColor" />
</svg>
