<svg width="24" height="24" viewBox="0 0 24 24" fill="none" xmlns="http://www.w3.org/2000/svg">
<path fill-rule="evenodd" clip-rule="evenodd" d="M7 4.5C7 4.77614 6.77614 5 6.5 5H6C5.44772 5 5 5.44772 5 6V6.5C5 6.77614 4.77614 7 4.5 7C4.22386 7 4 6.77614 4 6.5V6C4 4.89543 4.89543 4 6 4H6.5C6.77614 4 7 4.22386 7 4.5ZM10.75 5C11.0261 5 11.25 4.77614 11.25 4.5C11.25 4.22386 11.0261 4 10.75 4H9C8.72386 4 8.5 4.22386 8.5 4.5C8.5 4.77614 8.72386 5 9 5H10.75ZM15 5C15.2761 5 15.5 4.77614 15.5 4.5C15.5 4.22386 15.2761 4 15 4H13.25C12.9739 4 12.75 4.22386 12.75 4.5C12.75 4.77614 12.9739 5 13.25 5H15ZM19 6.5C19 6.77614 19.2239 7 19.5 7C19.7761 7 20 6.77614 20 6.5V6C20 4.89543 19.1046 4 18 4H17.5C17.2239 4 17 4.22386 17 4.5C17 4.77614 17.2239 5 17.5 5H18C18.5523 5 19 5.44772 19 6V6.5ZM19 10.75C19 11.0261 19.2239 11.25 19.5 11.25C19.7761 11.25 20 11.0261 20 10.75V9C20 8.72386 19.7761 8.5 19.5 8.5C19.2239 8.5 19 8.72386 19 9V10.75ZM19 15C19 15.2761 19.2239 15.5 19.5 15.5C19.7761 15.5 20 15.2761 20 15V13.25C20 12.9739 19.7761 12.75 19.5 12.75C19.2239 12.75 19 12.9739 19 13.25V15ZM17.5 19C17.2239 19 17 19.2239 17 19.5C17 19.7761 17.2239 20 17.5 20H18C19.1046 20 20 19.1046 20 18V17.5C20 17.2239 19.7761 17 19.5 17C19.2239 17 19 17.2239 19 17.5V18C19 18.5523 18.5523 19 18 19H17.5ZM13.25 19C12.9739 19 12.75 19.2239 12.75 19.5C12.75 19.7761 12.9739 20 13.25 20H15C15.2761 20 15.5 19.7761 15.5 19.5C15.5 19.2239 15.2761 19 15 19H13.25ZM9 19C8.72386 19 8.5 19.2239 8.5 19.5C8.5 19.7761 8.72386 20 9 20H10.75C11.0261 20 11.25 19.7761 11.25 19.5C11.25 19.2239 11.0261 19 10.75 19H9ZM5 17.5C5 17.2239 4.77614 17 4.5 17C4.22386 17 4 17.2239 4 17.5V18C4 19.1046 4.89543 20 6 20H6.5C6.77614 20 7 19.7761 7 19.5C7 19.2239 6.77614 19 6.5 19H6C5.44772 19 5 18.5523 5 18V17.5ZM5 13.25C5 12.9739 4.77614 12.75 4.5 12.75C4.22386 12.75 4 12.9739 4 13.25V15C4 15.2761 4.22386 15.5 4.5 15.5C4.77614 15.5 5 15.2761 5 15V13.25ZM5 9C5 8.72386 4.77614 8.5 4.5 8.5C4.22386 8.5 4 8.72386 4 9V10.75C4 11.0261 4.22386 11.25 4.5 11.25C4.77614 11.25 5 11.0261 5 10.75V9ZM9.14645 12.7322L8.41421 12L9.14645 11.2678L9.87868 12L9.14645 12.7322ZM11.6464 10.9393L10.2071 9.5C10.0118 9.30474 10.0118 8.98816 10.2071 8.79289L11.6464 7.35355C11.8417 7.15829 12.1583 7.15829 12.3536 7.35355L13.7929 8.79289C13.9882 8.98816 13.9882 9.30474 13.7929 9.5L12.3536 10.9393C12.1583 11.1346 11.8417 11.1346 11.6464 10.9393ZM10.2071 14.5L11.6464 13.0607C11.8417 12.8654 12.1583 12.8654 12.3536 13.0607L13.7929 14.5C13.9882 14.6953 13.9882 15.0118 13.7929 15.2071L12.3536 16.6464C12.1583 16.8417 11.8417 16.8417 11.6464 16.6464L10.2071 15.2071C10.0118 15.0118 10.0118 14.6953 10.2071 14.5ZM9.5 10.2071L10.9393 11.6464C11.1346 11.8417 11.1346 12.1583 10.9393 12.3536L9.5 13.7929C9.30474 13.9882 8.98816 13.9882 8.79289 13.7929L7.35355 12.3536C7.15829 12.1583 7.15829 11.8417 7.35355 11.6464L8.79289 10.2071C8.98816 10.0118 9.30474 10.0118 9.5 10.2071ZM12.7322 9.14645L12 9.87868L11.2678 9.14645L12 8.41421L12.7322 9.14645ZM13.0607 11.6464L14.5 10.2071C14.6953 10.0118 15.0118 10.0118 15.2071 10.2071L16.6464 11.6464C16.8417 11.8417 16.8417 12.1583 16.6464 12.3536L15.2071 13.7929C15.0118 13.9882 14.6953 13.9882 14.5 13.7929L13.0607 12.3536C12.8654 12.1583 12.8654 11.8417 13.0607 11.6464ZM14.8536 12.7322L14.1213 12L14.8536 11.2678L15.5858 12L14.8536 12.7322ZM11.2678 14.8536L12 14.1213L12.7322 14.8536L12 15.5858L11.2678 14.8536Z" fill="currentColor" />
</svg>
