<svg width="24" height="24" viewBox="0 0 24 24" fill="none" xmlns="http://www.w3.org/2000/svg">
<path fill-rule="evenodd" clip-rule="evenodd" d="M7 6H12V11V17H11V15C11 14.4477 10.5523 14 10 14H9C8.44771 14 8 14.4477 8 15V17H7V6ZM12 18H10H9H7C6.44771 18 6 17.5523 6 17V6C6 5.44771 6.44771 5 7 5H12C12.5523 5 13 5.44771 13 6V10H15V8.5C15 8.22386 15.2239 8 15.5 8C15.7761 8 16 8.22386 16 8.5V10H18C18.5523 10 19 10.4477 19 11V17C19 17.5523 18.5523 18 18 18H13H12ZM13 11V17H18V11H13ZM9 17H10V15H9V17Z" fill="currentColor" />
</svg>
