<svg width="24" height="24" viewBox="0 0 24 24" fill="none" xmlns="http://www.w3.org/2000/svg">
<path fill-rule="evenodd" clip-rule="evenodd" d="M7.47861 8.43572L4.09105 11.8233C3.99341 11.9209 3.99341 12.0792 4.09105 12.1768L7.47861 15.5644C7.65674 15.7425 7.76583 15.9636 7.80586 16.1942C8.03654 16.2343 8.25758 16.3434 8.43572 16.5215L11.8233 19.9091C11.9209 20.0067 12.0792 20.0067 12.1768 19.9091L15.5644 16.5215C15.7425 16.3434 15.9636 16.2343 16.1942 16.1942C16.2343 15.9636 16.3434 15.7425 16.5215 15.5644L19.9091 12.1768C20.0067 12.0792 20.0067 11.9209 19.9091 11.8233L16.5215 8.43572C16.3434 8.25758 16.2343 8.03655 16.1942 7.80587C15.9636 7.76583 15.7425 7.65674 15.5644 7.47861L12.1768 4.09105C12.0792 3.99341 11.9209 3.99341 11.8233 4.09105L8.43572 7.47861C8.25758 7.65674 8.03654 7.76583 7.80587 7.80587C7.76583 8.03655 7.65674 8.25758 7.47861 8.43572ZM6.7715 7.47861C6.84054 7.54764 6.84054 7.65957 6.7715 7.72861L3.38394 11.1162C2.89578 11.6043 2.89578 12.3958 3.38394 12.8839L6.7715 16.2715C6.84054 16.3405 6.84054 16.4525 6.7715 16.5215C6.70247 16.5905 6.70247 16.7025 6.7715 16.7715L7.22861 17.2286C7.29764 17.2976 7.40957 17.2976 7.47861 17.2286C7.54764 17.1596 7.65957 17.1596 7.72861 17.2286L11.1162 20.6162C11.6043 21.1043 12.3958 21.1043 12.8839 20.6162L16.2715 17.2286C16.3405 17.1596 16.4525 17.1596 16.5215 17.2286C16.5905 17.2976 16.7025 17.2976 16.7715 17.2286L17.2286 16.7715C17.2976 16.7025 17.2976 16.5905 17.2286 16.5215C17.1596 16.4525 17.1596 16.3405 17.2286 16.2715L20.6162 12.8839C21.1043 12.3958 21.1043 11.6043 20.6162 11.1162L17.2286 7.72861C17.1596 7.65957 17.1596 7.54764 17.2286 7.47861C17.2976 7.40957 17.2976 7.29764 17.2286 7.22861L16.7715 6.7715C16.7025 6.70247 16.5905 6.70247 16.5215 6.7715C16.4525 6.84054 16.3405 6.84054 16.2715 6.7715L12.8839 3.38394C12.3958 2.89578 11.6043 2.89578 11.1162 3.38394L7.72861 6.7715C7.65957 6.84054 7.54764 6.84054 7.47861 6.7715C7.40957 6.70247 7.29764 6.70247 7.22861 6.7715L6.7715 7.22861C6.70247 7.29764 6.70247 7.40957 6.7715 7.47861Z" fill="currentColor" />
</svg>
