<svg width="24" height="24" viewBox="0 0 24 24" fill="none" xmlns="http://www.w3.org/2000/svg">
<path fill-rule="evenodd" clip-rule="evenodd" d="M6 9C6 8.72386 5.77614 8.5 5.5 8.5C5.22386 8.5 5 8.72386 5 9V12V15C5 15.2761 5.22386 15.5 5.5 15.5C5.77614 15.5 6 15.2761 6 15V12V9ZM18.5 15.5C18.2239 15.5 18 15.2761 18 15L18 12L18 9C18 8.72386 18.2239 8.5 18.5 8.5C18.7761 8.5 19 8.72386 19 9L19 12L19 15C19 15.2761 18.7761 15.5 18.5 15.5ZM10 11.5C10.2761 11.5 10.5 11.7239 10.5 12C10.5 12.2761 10.2761 12.5 10 12.5H9C8.72386 12.5 8.5 12.2761 8.5 12C8.5 11.7239 8.72386 11.5 9 11.5H10ZM14 12.5C13.7239 12.5 13.5 12.2761 13.5 12C13.5 11.7239 13.7239 11.5 14 11.5H15C15.2761 11.5 15.5 11.7239 15.5 12C15.5 12.2761 15.2761 12.5 15 12.5H14Z" fill="currentColor" fill-opacity="0.3" />
<path fill-rule="evenodd" clip-rule="evenodd" d="M15.5 5.5C15.5 5.77614 15.2761 6 15 6H12H9C8.72386 6 8.5 5.77614 8.5 5.5C8.5 5.22386 8.72386 5 9 5H12H15C15.2761 5 15.5 5.22386 15.5 5.5ZM15.5 18.5C15.5 18.7761 15.2761 19 15 19H12H9C8.72386 19 8.5 18.7761 8.5 18.5C8.5 18.2239 8.72386 18 9 18H12H15C15.2761 18 15.5 18.2239 15.5 18.5ZM12.5 9C12.5 8.72386 12.2761 8.5 12 8.5C11.7239 8.5 11.5 8.72386 11.5 9V15C11.5 15.2761 11.7239 15.5 12 15.5C12.2761 15.5 12.5 15.2761 12.5 15V9Z" fill="currentColor" />
</svg>
