<svg width="24" height="24" viewBox="0 0 24 24" fill="none" xmlns="http://www.w3.org/2000/svg">
<path fill-rule="evenodd" clip-rule="evenodd" d="M12 8.5C12.2761 8.5 12.5 8.72386 12.5 9V11.5H15C15.2761 11.5 15.5 11.7239 15.5 12C15.5 12.2761 15.2761 12.5 15 12.5H12.5V15C12.5 15.2761 12.2761 15.5 12 15.5C11.7239 15.5 11.5 15.2761 11.5 15V12.5H9C8.72386 12.5 8.5 12.2761 8.5 12C8.5 11.7239 8.72386 11.5 9 11.5H11.5V9C11.5 8.72386 11.7239 8.5 12 8.5ZM12 18L15 18C15.2761 18 15.5 18.2239 15.5 18.5C15.5 18.7761 15.2761 19 15 19L12 19H9C8.72386 19 8.5 18.7761 8.5 18.5C8.5 18.2239 8.72386 18 9 18H12Z" fill="currentColor" fill-opacity="0.3" />
<path fill-rule="evenodd" clip-rule="evenodd" d="M15 6C15.2761 6 15.5 5.77614 15.5 5.5C15.5 5.22386 15.2761 5 15 5H12H9C8.72386 5 8.5 5.22386 8.5 5.5C8.5 5.77614 8.72386 6 9 6H12H15ZM19.8536 12.3536C19.9473 12.2598 20 12.1326 20 12C20 11.8674 19.9473 11.7402 19.8536 11.6464L17.8536 9.64645C17.6583 9.45118 17.3417 9.45118 17.1464 9.64645C16.9512 9.84171 16.9512 10.1583 17.1464 10.3536L18.7929 12L17.1464 13.6464C16.9512 13.8417 16.9512 14.1583 17.1464 14.3536C17.3417 14.5488 17.6583 14.5488 17.8536 14.3536L19.8536 12.3536ZM6.85355 10.3536C7.04882 10.1583 7.04882 9.84171 6.85355 9.64645C6.65829 9.45118 6.34171 9.45118 6.14645 9.64645L4.14645 11.6464C4.05268 11.7402 4 11.8674 4 12C4 12.1326 4.05268 12.2598 4.14645 12.3536L6.14645 14.3536C6.34171 14.5488 6.65829 14.5488 6.85355 14.3536C7.04882 14.1583 7.04882 13.8417 6.85355 13.6464L5.20711 12L6.85355 10.3536Z" fill="currentColor" />
</svg>
