<svg width="24" height="24" viewBox="0 0 24 24" fill="none" xmlns="http://www.w3.org/2000/svg">
<path fill-rule="evenodd" clip-rule="evenodd" d="M5.5 8.5C5.77614 8.5 6 8.72386 6 9L6 12L6 15C6 15.2761 5.77614 15.5 5.5 15.5C5.22386 15.5 5 15.2761 5 15V12V9C5 8.72386 5.22386 8.5 5.5 8.5ZM12 8.5C12.2761 8.5 12.5 8.72386 12.5 9V11.5H15C15.2761 11.5 15.5 11.7239 15.5 12C15.5 12.2761 15.2761 12.5 15 12.5H12.5V15C12.5 15.2761 12.2761 15.5 12 15.5C11.7239 15.5 11.5 15.2761 11.5 15V12.5H9C8.72386 12.5 8.5 12.2761 8.5 12C8.5 11.7239 8.72386 11.5 9 11.5H11.5V9C11.5 8.72386 11.7239 8.5 12 8.5Z" fill="currentColor" fill-opacity="0.3" />
<path fill-rule="evenodd" clip-rule="evenodd" d="M12.3536 4.14645C12.1583 3.95118 11.8417 3.95118 11.6464 4.14645L9.64645 6.14645C9.45118 6.34171 9.45118 6.65829 9.64645 6.85355C9.84171 7.04882 10.1583 7.04882 10.3536 6.85355L12 5.20711L13.6464 6.85355C13.8417 7.04882 14.1583 7.04882 14.3536 6.85355C14.5488 6.65829 14.5488 6.34171 14.3536 6.14645L12.3536 4.14645ZM10.3536 17.1464C10.1583 16.9512 9.84171 16.9512 9.64645 17.1464C9.45118 17.3417 9.45118 17.6583 9.64645 17.8536L11.6464 19.8536C11.8417 20.0488 12.1583 20.0488 12.3536 19.8536L14.3536 17.8536C14.5488 17.6583 14.5488 17.3417 14.3536 17.1464C14.1583 16.9512 13.8417 16.9512 13.6464 17.1464L12 18.7929L10.3536 17.1464ZM18 15C18 15.2761 18.2239 15.5 18.5 15.5C18.7761 15.5 19 15.2761 19 15L19 12L19 9C19 8.72386 18.7761 8.5 18.5 8.5C18.2239 8.5 18 8.72386 18 9L18 12L18 15Z" fill="currentColor" />
</svg>
