<svg width="24" height="24" viewBox="0 0 24 24" fill="none" xmlns="http://www.w3.org/2000/svg">
<path fill-rule="evenodd" clip-rule="evenodd" d="M9 5C8.72386 5 8.5 5.22386 8.5 5.5C8.5 5.77614 8.72386 6 9 6H15C15.2761 6 15.5 5.77614 15.5 5.5C15.5 5.22386 15.2761 5 15 5H9ZM12.5 9C12.5 8.72386 12.2761 8.5 12 8.5C11.7239 8.5 11.5 8.72386 11.5 9V11.5H9C8.72386 11.5 8.5 11.7239 8.5 12C8.5 12.2761 8.72386 12.5 9 12.5H11.5V15C11.5 15.2761 11.7239 15.5 12 15.5C12.2761 15.5 12.5 15.2761 12.5 15V12.5H15C15.2761 12.5 15.5 12.2761 15.5 12C15.5 11.7239 15.2761 11.5 15 11.5H12.5V9ZM18 15C18 15.2761 18.2239 15.5 18.5 15.5C18.7761 15.5 19 15.2761 19 15L19 12L19 9C19 8.72386 18.7761 8.5 18.5 8.5C18.2239 8.5 18 8.72386 18 9L18 12L18 15Z" fill="currentColor" fill-opacity="0.3" />
<path fill-rule="evenodd" clip-rule="evenodd" d="M6 9C6 8.72386 5.77614 8.5 5.5 8.5C5.22386 8.5 5 8.72386 5 9V12V15C5 15.2761 5.22386 15.5 5.5 15.5C5.77614 15.5 6 15.2761 6 15L6 12L6 9ZM9 18C8.72386 18 8.5 18.2239 8.5 18.5C8.5 18.7761 8.72386 19 9 19H15C15.2761 19 15.5 18.7761 15.5 18.5C15.5 18.2239 15.2761 18 15 18H9Z" fill="currentColor" />
</svg>
