<svg width="24" height="24" viewBox="0 0 24 24" fill="none" xmlns="http://www.w3.org/2000/svg">
<path fill-rule="evenodd" clip-rule="evenodd" d="M12 18.9999C13.753 18.9999 15.3556 18.3555 16.5836 17.2906L6.70926 7.41626C5.64441 8.64432 5 10.2469 5 11.9999C5 15.8659 8.13401 18.9999 12 18.9999ZM8 13.9999C7.72386 13.9999 7.5 14.2237 7.5 14.4999C7.5 14.776 7.72386 14.9999 8 14.9999H11C11.2761 14.9999 11.5 14.776 11.5 14.4999C11.5 14.2237 11.2761 13.9999 11 13.9999H8Z" fill="currentColor" fill-opacity="0.3" />
<path fill-rule="evenodd" clip-rule="evenodd" d="M16.5836 17.2907C15.3556 18.3556 13.753 19 12 19C8.13401 19 5 15.866 5 12C5 10.247 5.64441 8.64443 6.70926 7.41637L16.5836 17.2907ZM17.2907 16.5836L7.41637 6.70926C8.64443 5.64441 10.247 5 12 5C15.866 5 19 8.13401 19 12C19 13.753 18.3556 15.3556 17.2907 16.5836ZM20 12C20 16.4183 16.4183 20 12 20C7.58172 20 4 16.4183 4 12C4 7.58172 7.58172 4 12 4C16.4183 4 20 7.58172 20 12ZM15 8C15 7.72386 14.7761 7.5 14.5 7.5C14.2239 7.5 14 7.72386 14 8V9H13C12.7239 9 12.5 9.22386 12.5 9.5C12.5 9.77614 12.7239 10 13 10H14V11C14 11.2761 14.2239 11.5 14.5 11.5C14.7761 11.5 15 11.2761 15 11V10H16C16.2761 10 16.5 9.77614 16.5 9.5C16.5 9.22386 16.2761 9 16 9H15V8ZM7.5 14.5C7.5 14.2239 7.72386 14 8 14H11C11.2761 14 11.5 14.2239 11.5 14.5C11.5 14.7761 11.2761 15 11 15H8C7.72386 15 7.5 14.7761 7.5 14.5Z" fill="currentColor" />
</svg>
