<svg width="24" height="24" viewBox="0 0 24 24" fill="none" xmlns="http://www.w3.org/2000/svg">
<path fill-rule="evenodd" clip-rule="evenodd" d="M11 5.5C11 5.22386 11.2239 5 11.5 5C11.7761 5 12 5.22386 12 5.5V17.5C12 17.7761 11.7761 18 11.5 18C11.2239 18 11 17.7761 11 17.5V5.5ZM10 17.18C10 17.5099 9.69127 17.754 9.37934 17.6464C6.83076 16.7672 5 14.3475 5 11.5002C5 8.65287 6.83075 6.23316 9.37934 5.35397C9.69127 5.24637 10 5.49042 10 5.82039C10 6.04922 9.84694 6.2479 9.63171 6.32562C7.5138 7.09044 6 9.11852 6 11.5002C6 13.8818 7.5138 15.9099 9.63171 16.6747C9.84694 16.7524 10 16.9511 10 17.18ZM13 6.5C13 6.22386 13.2239 6 13.5 6H15.5C15.7761 6 16 6.22386 16 6.5V8H17.5C17.7761 8 18 8.22386 18 8.5V14.5C18 14.7761 17.7761 15 17.5 15H16V16.5C16 16.7761 15.7761 17 15.5 17H13.5C13.2239 17 13 16.7761 13 16.5C13 16.2239 13.2239 16 13.5 16H15V14.5C15 14.2239 15.2239 14 15.5 14H17V9H15.5C15.2239 9 15 8.77614 15 8.5V7H13.5C13.2239 7 13 6.77614 13 6.5Z" fill="currentColor" />
</svg>
