<svg width="24" height="24" viewBox="0 0 24 24" fill="none" xmlns="http://www.w3.org/2000/svg">
<path fill-rule="evenodd" clip-rule="evenodd" d="M8.90012 6H8.87947H8.87865C8.47653 6 8.14462 6 7.87421 6.02209C7.59315 6.04506 7.33481 6.09435 7.09215 6.21799C6.71582 6.40973 6.40985 6.7157 6.21811 7.09203C6.09447 7.33469 6.04518 7.59303 6.02222 7.87408C6.00012 8.1445 6.00012 8.47641 6.00012 8.87852V8.87935V8.89999V9.5C6.00012 9.77614 6.22398 10 6.50012 10C6.77626 10 7.00012 9.77614 7.00012 9.5V8.89999C7.00012 8.47171 7.0005 8.18056 7.01889 7.95552C7.0368 7.73631 7.06927 7.62421 7.10912 7.54601C7.20499 7.35785 7.35797 7.20486 7.54613 7.10899C7.62433 7.06915 7.73643 7.03668 7.95564 7.01877C8.18068 7.00038 8.47183 7 8.90012 7H9.50012C9.77626 7 10.0001 6.77614 10.0001 6.5C10.0001 6.22386 9.77626 6 9.50012 6H8.90012ZM15.1 6H15.1207H15.1215C15.5236 6 15.8555 6 16.1259 6.02209C16.407 6.04506 16.6653 6.09435 16.908 6.21799C17.2843 6.40973 17.5903 6.7157 17.782 7.09203C17.9057 7.33469 17.9549 7.59303 17.9779 7.87408C18 8.1445 18 8.47641 18 8.87852V8.87935V8.89999V9.5C18 9.77614 17.7761 10 17.5 10C17.2239 10 17 9.77614 17 9.5V8.89999C17 8.47171 16.9996 8.18056 16.9812 7.95552C16.9633 7.73631 16.9308 7.62421 16.891 7.54601C16.7951 7.35785 16.6422 7.20486 16.454 7.10899C16.3758 7.06915 16.2637 7.03668 16.0445 7.01877C15.8194 7.00038 15.5283 7 15.1 7H14.5C14.2239 7 14 6.77614 14 6.5C14 6.22386 14.2239 6 14.5 6H15.1ZM15.1207 18H15.1H14.5C14.2239 18 14 17.7761 14 17.5C14 17.2239 14.2239 17 14.5 17H15.1C15.5283 17 15.8194 16.9996 16.0445 16.9812C16.2637 16.9633 16.3758 16.9308 16.454 16.891C16.6422 16.7951 16.7951 16.6422 16.891 16.454C16.9308 16.3758 16.9633 16.2637 16.9812 16.0445C16.9996 15.8194 17 15.5283 17 15.1V14.5C17 14.2239 17.2239 14 17.5 14C17.7761 14 18 14.2239 18 14.5V15.1V15.1207V15.1215C18 15.5236 18 15.8555 17.9779 16.1259C17.9549 16.407 17.9057 16.6653 17.782 16.908C17.5903 17.2843 17.2843 17.5903 16.908 17.782C16.6653 17.9057 16.407 17.9549 16.1259 17.9779C15.8555 18 15.5236 18 15.1215 18H15.1207ZM8.89999 18H8.87935H8.87852C8.47641 18 8.1445 18 7.87408 17.9779C7.59303 17.9549 7.33469 17.9057 7.09203 17.782C6.7157 17.5903 6.40973 17.2843 6.21799 16.908C6.09435 16.6653 6.04506 16.407 6.02209 16.1259C6 15.8555 6 15.5236 6 15.1215V15.1207V15.1V14.5C6 14.2239 6.22386 14 6.5 14C6.77614 14 7 14.2239 7 14.5V15.1C7 15.5283 7.00038 15.8194 7.01877 16.0445C7.03668 16.2637 7.06915 16.3758 7.10899 16.454C7.20486 16.6422 7.35785 16.7951 7.54601 16.891C7.62421 16.9308 7.73631 16.9633 7.95552 16.9812C8.18056 16.9996 8.47171 17 8.89999 17H9.5C9.77614 17 10 17.2239 10 17.5C10 17.7761 9.77614 18 9.5 18H8.89999Z" fill="currentColor" />
</svg>
