<svg width="24" height="24" viewBox="0 0 24 24" fill="none" xmlns="http://www.w3.org/2000/svg">
<path fill-rule="evenodd" clip-rule="evenodd" d="M12.5 6C12.5 5.72386 12.2761 5.5 12 5.5C11.7239 5.5 11.5 5.72386 11.5 6V10.7929L8.11095 7.40381C7.91569 7.20855 7.5991 7.20855 7.40384 7.40381C7.20858 7.59907 7.20858 7.91566 7.40384 8.11092L10.7929 11.5H6C5.72386 11.5 5.5 11.7239 5.5 12C5.5 12.2761 5.72386 12.5 6 12.5H10.7929L7.4038 15.8891C7.20854 16.0844 7.20854 16.4009 7.4038 16.5962C7.59906 16.7915 7.91565 16.7915 8.11091 16.5962L11.5 13.2071V18C11.5 18.2761 11.7239 18.5 12 18.5C12.2761 18.5 12.5 18.2761 12.5 18V13.2071L15.8891 16.5962C16.0844 16.7915 16.401 16.7915 16.5962 16.5962C16.7915 16.4009 16.7915 16.0844 16.5962 15.8891L13.2071 12.5H18C18.2761 12.5 18.5 12.2761 18.5 12C18.5 11.7239 18.2761 11.5 18 11.5H13.2071L16.5962 8.11092C16.7915 7.91565 16.7915 7.59907 16.5962 7.40381C16.4009 7.20855 16.0843 7.20855 15.8891 7.40381L12.5 10.7929V6Z" fill="currentColor" />
</svg>
