<svg width="24" height="24" viewBox="0 0 24 24" fill="none" xmlns="http://www.w3.org/2000/svg">
<path fill-rule="evenodd" clip-rule="evenodd" d="M11.8233 4.09105L4.09105 11.8233C3.99341 11.9209 3.99341 12.0792 4.09105 12.1768L11.8233 19.9091C11.9209 20.0067 12.0792 20.0067 12.1768 19.9091L19.9091 12.1768C20.0067 12.0792 20.0067 11.9209 19.9091 11.8233L12.1768 4.09105C12.0792 3.99341 11.9209 3.99341 11.8233 4.09105ZM11.1162 3.38394L3.38394 11.1162C2.89578 11.6043 2.89578 12.3958 3.38394 12.8839L11.1162 20.6162C11.6043 21.1043 12.3958 21.1043 12.8839 20.6162L20.6162 12.8839C21.1043 12.3958 21.1043 11.6043 20.6162 11.1162L12.8839 3.38394C12.3958 2.89578 11.6043 2.89578 11.1162 3.38394ZM11.5001 8.99995C11.5001 8.72381 11.7239 8.49995 12.0001 8.49995C12.2762 8.49995 12.5001 8.72381 12.5001 8.99995V11.5H15.0001C15.2762 11.5 15.5001 11.7238 15.5001 12C15.5001 12.2761 15.2762 12.5 15.0001 12.5H12.5001V15C12.5001 15.2761 12.2762 15.5 12.0001 15.5C11.7239 15.5 11.5001 15.2761 11.5001 15V12.5H9.00006C8.72392 12.5 8.50006 12.2761 8.50006 12C8.50006 11.7238 8.72392 11.5 9.00006 11.5H11.5001V8.99995Z" fill="currentColor" />
</svg>
