<svg width="24" height="24" viewBox="0 0 24 24" fill="none" xmlns="http://www.w3.org/2000/svg">
<path fill-rule="evenodd" clip-rule="evenodd" d="M9 5.5C9 5.22386 8.77614 5 8.5 5C8.22386 5 8 5.22386 8 5.5V8H5.5C5.22386 8 5 8.22386 5 8.5C5 8.77614 5.22386 9 5.5 9H8V15.5C8 15.7761 8.22386 16 8.5 16H15V18.5C15 18.7761 15.2239 19 15.5 19C15.7761 19 16 18.7761 16 18.5V16H18.5C18.7761 16 19 15.7761 19 15.5C19 15.2239 18.7761 15 18.5 15H16V8.5C16 8.22386 15.7761 8 15.5 8H9V5.5ZM9 9V15H15V9H9Z" fill="currentColor" />
</svg>
