<svg width="24" height="24" viewBox="0 0 24 24" fill="none" xmlns="http://www.w3.org/2000/svg">
<path fill-rule="evenodd" clip-rule="evenodd" d="M6.22359 15.4477C5.9766 15.5712 5.67627 15.4711 5.55277 15.2241C5.42928 14.9772 5.52939 14.6768 5.77638 14.5533L9.77632 12.5534C10.0233 12.4299 10.3236 12.53 10.4471 12.777C10.5706 13.0239 10.4705 13.3243 10.2235 13.4478L6.22359 15.4477ZM12 11.4415L6.22359 8.55332C5.9766 8.42983 5.67627 8.52994 5.55277 8.77693C5.42928 9.02392 5.52939 9.32425 5.77638 9.44775L11.7711 12.4451C11.7744 12.4468 11.7777 12.4484 11.781 12.45L13.454 13.2866L13.2037 15.039C13.0546 16.0826 13.59 17.1046 14.5329 17.5761L14.7763 17.6978C15.8517 18.2355 17.1594 17.7996 17.6972 16.7242C18.2349 15.6487 17.799 14.341 16.7236 13.8033L14.234 12.5585C14.2272 12.5549 14.2203 12.5515 14.2133 12.5482L13.118 12.0005L14.2132 11.4529C14.2202 11.4496 14.2272 11.4462 14.234 11.4426L16.7238 10.1977C17.7991 9.66001 18.2348 8.35237 17.697 7.27713C17.1593 6.20211 15.852 5.76645 14.7769 6.304L14.533 6.42594C13.59 6.89744 13.0546 7.91947 13.2037 8.96317L13.454 10.7145L12 11.4415ZM14.1937 8.82171L14.3968 10.2431L16.2765 9.30324C16.8578 9.0126 17.0934 8.30572 16.8027 7.72448C16.512 7.14335 15.8053 6.90784 15.2241 7.19843L14.9803 7.32037C14.4223 7.59936 14.1054 8.20413 14.1937 8.82171ZM14.1936 15.1804L14.3968 13.758L16.2763 14.6977C16.8578 14.9885 17.0935 15.6955 16.8027 16.2769C16.512 16.8584 15.805 17.094 15.2235 16.8033L14.9801 16.6816C14.4222 16.4027 14.1054 15.798 14.1936 15.1804Z" fill="currentColor" />
</svg>
