<svg width="24" height="24" viewBox="0 0 24 24" fill="none" xmlns="http://www.w3.org/2000/svg">
<path fill-rule="evenodd" clip-rule="evenodd" d="M15 17H9C8.44772 17 8 16.5523 8 16V8C8 7.44772 8.44772 7 9 7H15C15.5523 7 16 7.44772 16 8V16C16 16.5523 15.5523 17 15 17ZM9 18H15C16.1046 18 17 17.1046 17 16V8C17 6.89543 16.1046 6 15 6H9C7.89543 6 7 6.89543 7 8V16C7 17.1046 7.89543 18 9 18ZM10.5 9C10.2239 9 10 9.22386 10 9.5C10 9.77614 10.2239 10 10.5 10H13.5C13.7761 10 14 9.77614 14 9.5C14 9.22386 13.7761 9 13.5 9H10.5ZM10 11.5C10 11.2239 10.2239 11 10.5 11H13.5C13.7761 11 14 11.2239 14 11.5C14 11.7761 13.7761 12 13.5 12H10.5C10.2239 12 10 11.7761 10 11.5ZM10.5 13C10.2239 13 10 13.2239 10 13.5C10 13.7761 10.2239 14 10.5 14H12.5C12.7761 14 13 13.7761 13 13.5C13 13.2239 12.7761 13 12.5 13H10.5Z" fill="currentColor" />
</svg>
