<svg width="24" height="24" viewBox="0 0 24 24" fill="none" xmlns="http://www.w3.org/2000/svg">
<path fill-rule="evenodd" clip-rule="evenodd" d="M16.3715 13.595L16.4531 13.09C16.6407 11.9284 16.2735 10.6877 15.2933 9.70746C15.0513 9.46545 14.6016 9.18542 13.9353 8.89753C13.2872 8.61747 12.5105 8.36192 11.6848 8.13437C10.4289 7.78827 9.10645 7.51957 8.03724 7.32958L11.8538 11.1461C12.4113 10.8798 13.0993 10.9775 13.5611 11.4393C14.1469 12.0251 14.1469 12.9749 13.5611 13.5607C12.9753 14.1464 12.0256 14.1464 11.4398 13.5607C10.9779 13.0988 10.8802 12.4107 11.1466 11.8532L7.32935 8.0359C7.51935 9.10536 7.78813 10.4284 8.13437 11.6848C8.36192 12.5105 8.61747 13.2872 8.89752 13.9354C9.18541 14.6016 9.46543 15.0513 9.70743 15.2933C10.7099 16.2958 11.9475 16.672 13.1031 16.4752L13.6126 16.3885L13.978 16.754L15.2092 17.9851L17.9854 15.2089L16.7332 13.9566L16.3715 13.595ZM17.4403 13.2495C17.6807 11.7612 17.2007 10.2007 16.0004 9.00036C14.4983 7.49826 9.61209 6.56032 7.2721 6.18638C6.62817 6.08348 6.08348 6.62817 6.18638 7.2721C6.56032 9.61211 7.49827 14.4984 9.00033 16.0004C10.2143 17.2144 11.7718 17.7163 13.2709 17.4611L14.5021 18.6922C14.8926 19.0827 15.5258 19.0827 15.9163 18.6922L18.6925 15.916C19.0831 15.5255 19.0831 14.8923 18.6925 14.5018L17.4403 13.2495ZM12.854 12.1464C13.0492 12.3417 13.0492 12.6583 12.854 12.8536C12.6587 13.0488 12.3421 13.0488 12.1469 12.8536C11.9516 12.6583 11.9516 12.3417 12.1469 12.1464C12.3421 11.9512 12.6587 11.9512 12.854 12.1464Z" fill="currentColor" />
</svg>
