<svg width="24" height="24" viewBox="0 0 24 24" fill="none" xmlns="http://www.w3.org/2000/svg">
<path fill-rule="evenodd" clip-rule="evenodd" d="M6.35986 5.69366L10.851 10.1441L10.8526 10.1457C11.0484 10.0521 11.2676 9.99972 11.499 9.99972C12.3274 9.99972 12.999 10.6713 12.999 11.4997C12.999 12.3281 12.3274 12.9997 11.499 12.9997C10.6706 12.9997 9.999 12.3281 9.999 11.4997C9.999 11.268 10.0515 11.0486 10.1453 10.8527L5.72664 6.474L7.61052 13.0614L7.61559 13.0791L7.61934 13.0971C8.05545 15.1959 9.91152 16.7711 12.1321 16.7711C12.5159 16.7711 12.8881 16.7241 13.2436 16.6359C13.6226 16.5419 14.0555 16.6279 14.361 16.9341L15.5777 18.1537C15.8699 18.4466 16.3431 18.4466 16.6353 18.1537L18.1544 16.631C18.4472 16.3375 18.4472 15.861 18.1544 15.5674L16.9162 14.3262C16.6149 14.0242 16.5279 13.5982 16.6169 13.2232C16.6985 12.879 16.7419 12.5194 16.7419 12.1491C16.7419 9.99433 15.2711 8.18388 13.2821 7.67193L13.2693 7.66863L13.2694 7.66846L6.35986 5.69366ZM6.45953 4.68211C5.37497 4.37213 4.37225 5.37501 4.68241 6.45952L6.64412 13.319C7.18137 15.8616 9.43304 17.7711 12.1321 17.7711C12.5978 17.7711 13.0508 17.7141 13.4844 17.6065C13.5645 17.5866 13.6245 17.6118 13.653 17.6404L14.8697 18.86C15.5526 19.5445 16.6604 19.5445 17.3433 18.86L18.8623 17.3373C19.5446 16.6534 19.5446 15.5451 18.8623 14.8612L17.6241 13.62C17.5959 13.5917 17.5711 13.5328 17.5898 13.454C17.6893 13.0347 17.7419 12.5977 17.7419 12.1491C17.7419 9.53085 15.9562 7.33075 13.5379 6.70518L6.45953 4.68211ZM11.499 11.9997C11.7751 11.9997 11.999 11.7759 11.999 11.4997C11.999 11.2236 11.7751 10.9997 11.499 10.9997C11.2229 10.9997 10.999 11.2236 10.999 11.4997C10.999 11.7759 11.2229 11.9997 11.499 11.9997Z" fill="currentColor" />
</svg>
