<svg width="24" height="24" viewBox="0 0 24 24" fill="none" xmlns="http://www.w3.org/2000/svg">
<path fill-rule="evenodd" clip-rule="evenodd" d="M17.3538 6.64664C18.3775 7.67033 18.3775 9.33006 17.3538 10.3537L15.8538 11.8537C15.6585 12.049 15.3419 12.049 15.1467 11.8537C14.9514 11.6585 14.9514 11.3419 15.1467 11.1466L16.6467 9.64664C17.2798 9.01348 17.2798 7.98691 16.6467 7.35375C16.0135 6.72058 14.9869 6.72058 14.3538 7.35375L12.8538 8.85375C12.6585 9.04901 12.3419 9.04901 12.1467 8.85375C11.9514 8.65849 11.9514 8.3419 12.1467 8.14664L13.6467 6.64664C14.6704 5.62295 16.3301 5.62295 17.3538 6.64664ZM6.64716 17.3539C5.62347 16.3302 5.62347 14.6705 6.64716 13.6468L8.14716 12.1468C8.34242 11.9515 8.65901 11.9515 8.85427 12.1468C9.04953 12.342 9.04953 12.6586 8.85427 12.8539L7.35427 14.3539C6.7211 14.987 6.7211 16.0136 7.35427 16.6468C7.98743 17.2799 9.014 17.2799 9.64716 16.6468L11.1472 15.1468C11.3424 14.9515 11.659 14.9515 11.8543 15.1468C12.0495 15.342 12.0495 15.6586 11.8543 15.8539L10.3543 17.3539C9.33058 18.3776 7.67085 18.3776 6.64716 17.3539ZM9.50023 6.00014C9.77637 6.00014 10.0002 6.22399 10.0002 6.50014V8.00013C10.0002 8.27628 9.77637 8.50013 9.50023 8.50013C9.22408 8.50013 9.00023 8.27628 9.00023 8.00013V6.50014C9.00023 6.22399 9.22408 6.00014 9.50023 6.00014ZM6.50023 9.00013C6.22408 9.00013 6.00023 9.22399 6.00023 9.50013C6.00023 9.77628 6.22408 10.0001 6.50023 10.0001H8.00023C8.27637 10.0001 8.50023 9.77628 8.50023 9.50013C8.50023 9.22399 8.27637 9.00013 8.00023 9.00013H6.50023ZM14.5002 18.0001C14.2241 18.0001 14.0002 17.7763 14.0002 17.5001V16.0001C14.0002 15.724 14.2241 15.5001 14.5002 15.5001C14.7764 15.5001 15.0002 15.724 15.0002 16.0001V17.5001C15.0002 17.7763 14.7764 18.0001 14.5002 18.0001ZM17.5002 15.0001C17.7764 15.0001 18.0002 14.7763 18.0002 14.5001C18.0002 14.224 17.7764 14.0001 17.5002 14.0001H16.0002C15.7241 14.0001 15.5002 14.224 15.5002 14.5001C15.5002 14.7763 15.7241 15.0001 16.0002 15.0001H17.5002Z" fill="currentColor" />
</svg>
