<svg width="24" height="24" viewBox="0 0 24 24" fill="none" xmlns="http://www.w3.org/2000/svg">
<path fill-rule="evenodd" clip-rule="evenodd" d="M7 20H17C17.5523 20 18 19.5523 18 19L18 9H15C13.8954 9 13 8.10457 13 7V4.49902V4L6.99999 4.00004C6.44771 4.00005 6 4.44776 6 5.00004V19C6 19.5523 6.44771 20 7 20ZM14 4.44603L17.5805 8H15C14.4477 8 14 7.55228 14 7V4.49902V4.44603ZM17 21H7C5.89543 21 5 20.1046 5 19V5.00004C5 3.89548 5.89542 3.00005 6.99999 3.00004L13.3446 3C13.7405 3 14.1203 3.1565 14.4013 3.4354L18.5567 7.55999C18.8404 7.84161 19 8.22483 19 8.62459L19 19C19 20.1046 18.1046 21 17 21ZM12.0508 10C12.3269 10 12.5508 10.2239 12.5508 10.5V12.5498H14.5C14.7761 12.5498 15 12.7737 15 13.0498C15 13.3259 14.7761 13.5498 14.5 13.5498H12.5508V15.5C12.5508 15.7761 12.3269 16 12.0508 16C11.7746 16 11.5508 15.7761 11.5508 15.5V13.5498H9.5C9.22386 13.5498 9 13.3259 9 13.0498C9 12.7737 9.22386 12.5498 9.5 12.5498H11.5508V10.5C11.5508 10.2239 11.7746 10 12.0508 10Z" fill="currentColor" />
</svg>
