<svg width="24" height="24" viewBox="0 0 24 24" fill="none" xmlns="http://www.w3.org/2000/svg">
<path fill-rule="evenodd" clip-rule="evenodd" d="M13.5 7H7.5C7.22386 7 7 7.22386 7 7.5V13.5C7 13.7761 7.22386 14 7.5 14H13.5C13.7761 14 14 13.7761 14 13.5V7.5C14 7.22386 13.7761 7 13.5 7ZM7.5 6C6.67157 6 6 6.67157 6 7.5V13.5C6 14.3284 6.67157 15 7.5 15H13.5C14.3284 15 15 14.3284 15 13.5V7.5C15 6.67157 14.3284 6 13.5 6H7.5Z" fill="currentColor" />
<path fill-rule="evenodd" clip-rule="evenodd" d="M9 15V16.5C9 17.3284 9.67157 18 10.5 18H16.5C17.3284 18 18 17.3284 18 16.5V10.5C18 9.67157 17.3284 9 16.5 9H15V13.5C15 14.3284 14.3284 15 13.5 15H9Z" fill="currentColor" fill-opacity="0.3" />
</svg>
