<svg width="24" height="24" viewBox="0 0 24 24" fill="none" xmlns="http://www.w3.org/2000/svg">
<path fill-rule="evenodd" clip-rule="evenodd" d="M14.5 8H8.5C8.22386 8 8 8.22386 8 8.5V14.5C8 14.7761 8.22386 15 8.5 15H14.5C14.7761 15 15 14.7761 15 14.5V8.5C15 8.22386 14.7761 8 14.5 8ZM8.5 7C7.67157 7 7 7.67157 7 8.5V14.5C7 15.3284 7.67157 16 8.5 16H14.5C15.3284 16 16 15.3284 16 14.5V8.5C16 7.67157 15.3284 7 14.5 7H8.5Z" fill="currentColor" />
<path fill-rule="evenodd" clip-rule="evenodd" d="M9 16V16.5C9 17.3284 9.67157 18 10.5 18H16.5C17.3284 18 18 17.3284 18 16.5V10.5C18 9.67157 17.3284 9 16.5 9H16V14.5C16 15.3284 15.3284 16 14.5 16H9Z" fill="currentColor" fill-opacity="0.3" />
</svg>
