<svg width="24" height="24" viewBox="0 0 24 24" fill="none" xmlns="http://www.w3.org/2000/svg">
<path fill-rule="evenodd" clip-rule="evenodd" d="M14.5 8H8.5C8.22386 8 8 8.22386 8 8.5V14.5C8 14.7761 8.22386 15 8.5 15H14.5C14.7761 15 15 14.7761 15 14.5V8.5C15 8.22386 14.7761 8 14.5 8ZM8.5 7C7.67157 7 7 7.67157 7 8.5V14.5C7 15.3284 7.67157 16 8.5 16H14.5C15.3284 16 16 15.3284 16 14.5V8.5C16 7.67157 15.3284 7 14.5 7H8.5Z" fill="currentColor" />
<path fill-rule="evenodd" clip-rule="evenodd" d="M8.06445 15.9357C8.25113 16.5516 8.8233 16.9999 9.50019 16.9999H15.5002C16.3286 16.9999 17.0002 16.3284 17.0002 15.4999V9.49994C17.0002 8.82306 16.5518 8.25089 15.9359 8.06421C15.9777 8.2021 16.0002 8.3484 16.0002 8.49994V14.4999C16.0002 15.3284 15.3286 15.9999 14.5002 15.9999H8.50019C8.34864 15.9999 8.20235 15.9775 8.06445 15.9357Z" fill="currentColor" fill-opacity="0.3" />
</svg>
