<svg width="24" height="24" viewBox="0 0 24 24" fill="none" xmlns="http://www.w3.org/2000/svg">
<path fill-rule="evenodd" clip-rule="evenodd" d="M7.5 7H13.5C13.7761 7 14 7.22386 14 7.5V9H10.5C9.67157 9 9 9.67157 9 10.5V14H7.5C7.22386 14 7 13.7761 7 13.5V7.5C7 7.22386 7.22386 7 7.5 7ZM16.5 9H15V7.5C15 6.67157 14.3284 6 13.5 6H7.5C6.67157 6 6 6.67157 6 7.5V13.5C6 14.3284 6.67157 15 7.5 15H9V16.5C9 17.3284 9.67157 18 10.5 18H16.5C17.3284 18 18 17.3284 18 16.5V10.5C18 9.67157 17.3284 9 16.5 9ZM10.5 10C10.2239 10 10 10.2239 10 10.5V16.5C10 16.7761 10.2239 17 10.5 17H16.5C16.7761 17 17 16.7761 17 16.5V10.5C17 10.2239 16.7761 10 16.5 10H10.5ZM14 12C14 11.7239 13.7761 11.5 13.5 11.5C13.2239 11.5 13 11.7239 13 12V13H12C11.7239 13 11.5 13.2239 11.5 13.5C11.5 13.7761 11.7239 14 12 14H13V15C13 15.2761 13.2239 15.5 13.5 15.5C13.7761 15.5 14 15.2761 14 15V14H15C15.2761 14 15.5 13.7761 15.5 13.5C15.5 13.2239 15.2761 13 15 13H14V12Z" fill="currentColor" />
</svg>
