<svg width="24" height="24" viewBox="0 0 24 24" fill="none" xmlns="http://www.w3.org/2000/svg">
<path fill-rule="evenodd" clip-rule="evenodd" d="M6.5 8C5.67157 8 5 7.32843 5 6.5C5 5.67157 5.67157 5 6.5 5C7.32843 5 8 5.67157 8 6.5C8 7.32843 7.32843 8 6.5 8ZM7 8.94999C7.97957 8.75115 8.75115 7.97956 8.94999 7H15.05C15.2488 7.97956 16.0204 8.75115 17 8.94999V15.05C16.0204 15.2488 15.2488 16.0204 15.05 17H8.94999C8.75115 16.0204 7.97956 15.2488 7 15.05V8.94999ZM18 15.05C19.1411 15.2816 20 16.2905 20 17.5C20 18.8807 18.8807 20 17.5 20C16.2905 20 15.2816 19.1411 15.05 18H8.94999C8.71836 19.1411 7.70948 20 6.5 20C5.11929 20 4 18.8807 4 17.5C4 16.2905 4.85888 15.2816 6 15.05V8.94999C4.85888 8.71836 4 7.70948 4 6.5C4 5.11929 5.11929 4 6.5 4C7.70948 4 8.71836 4.85888 8.94999 6H15.05C15.2816 4.85888 16.2905 4 17.5 4C18.8807 4 20 5.11929 20 6.5C20 7.70948 19.1411 8.71836 18 8.94999V15.05ZM17.5 16C16.6716 16 16 16.6716 16 17.5C16 18.3284 16.6716 19 17.5 19C18.3284 19 19 18.3284 19 17.5C19 16.6716 18.3284 16 17.5 16ZM17.5 8C18.3284 8 19 7.32843 19 6.5C19 5.67157 18.3284 5 17.5 5C16.6716 5 16 5.67157 16 6.5C16 7.32843 16.6716 8 17.5 8ZM6.5 16C7.32843 16 8 16.6716 8 17.5C8 18.3284 7.32843 19 6.5 19C5.67157 19 5 18.3284 5 17.5C5 16.6716 5.67157 16 6.5 16Z" fill="currentColor" />
</svg>
