<svg width="24" height="24" viewBox="0 0 24 24" fill="none" xmlns="http://www.w3.org/2000/svg">
<path fill-rule="evenodd" clip-rule="evenodd" d="M8 9C7.44772 9 7 8.55228 7 8C7 7.44772 7.44772 7 8 7C8.55228 7 9 7.44772 9 8C9 8.55228 8.55228 9 8 9ZM8.5 9.93699C9.2028 9.7561 9.7561 9.2028 9.93699 8.5H14.063C14.2439 9.2028 14.7972 9.7561 15.5 9.93699V14.063C14.7972 14.2439 14.2439 14.7972 14.063 15.5H9.93699C9.7561 14.7972 9.2028 14.2439 8.5 14.063V9.93699ZM16.5 14.063C17.3626 14.285 18 15.0681 18 16C18 17.1046 17.1046 18 16 18C15.0681 18 14.285 17.3626 14.063 16.5H9.93699C9.71497 17.3626 8.93192 18 8 18C6.89543 18 6 17.1046 6 16C6 15.0681 6.63739 14.285 7.5 14.063V9.93699C6.63739 9.71497 6 8.93192 6 8C6 6.89543 6.89543 6 8 6C8.93192 6 9.71497 6.63739 9.93699 7.5H14.063C14.285 6.63739 15.0681 6 16 6C17.1046 6 18 6.89543 18 8C18 8.93192 17.3626 9.71497 16.5 9.93699V14.063ZM16 15C15.4477 15 15 15.4477 15 16C15 16.5523 15.4477 17 16 17C16.5523 17 17 16.5523 17 16C17 15.4477 16.5523 15 16 15ZM16 9C16.5523 9 17 8.55228 17 8C17 7.44772 16.5523 7 16 7C15.4477 7 15 7.44772 15 8C15 8.55228 15.4477 9 16 9ZM8 15C8.55228 15 9 15.4477 9 16C9 16.5523 8.55228 17 8 17C7.44772 17 7 16.5523 7 16C7 15.4477 7.44772 15 8 15Z" fill="currentColor" />
</svg>
