<svg width="24" height="24" viewBox="0 0 24 24" fill="none" xmlns="http://www.w3.org/2000/svg">
<path fill-rule="evenodd" clip-rule="evenodd" d="M8.5 6C8.22386 6 8 6.22386 8 6.5V17.5C8 17.7761 8.22386 18 8.5 18C8.77614 18 9 17.7761 9 17.5V6.5C9 6.22386 8.77614 6 8.5 6ZM13.9596 8.30304C13.8808 8.1192 13.7 8 13.5 8C13.3 8 13.1192 8.1192 13.0404 8.30304L10.8976 13.303L10.0404 15.303C9.93165 15.5569 10.0492 15.8508 10.303 15.9596C10.5569 16.0683 10.8508 15.9508 10.9596 15.697L11.6868 14H15.3132L16.0404 15.697C16.1492 15.9508 16.4431 16.0683 16.697 15.9596C16.9508 15.8508 17.0684 15.5569 16.9596 15.303L16.1024 13.303L13.9596 8.30304ZM13.5 9.7693L14.8846 13H12.1154L13.5 9.7693Z" fill="currentColor" />
</svg>
