<svg width="24" height="24" viewBox="0 0 24 24" fill="none" xmlns="http://www.w3.org/2000/svg">
<path fill-rule="evenodd" clip-rule="evenodd" d="M16 4H18V6H16V4ZM15 4C15 3.44772 15.4477 3 16 3H18C18.5523 3 19 3.44772 19 4V6C19 6.55228 18.5523 7 18 7H16C15.9104 7 15.8236 6.98822 15.741 6.96613L13.7055 9.00165C14.5754 8.67729 15.517 8.5 16.5 8.5C18.0799 8.5 19.5528 8.95796 20.7932 9.74838C20.9239 9.83165 21 9.9774 21 10.1324C21 10.5305 20.5248 10.7582 20.1865 10.5483C19.1159 9.88373 17.8528 9.5 16.5 9.5C15.3801 9.5 14.3215 9.76301 13.3828 10.2306L13.3799 10.2321C13.4579 10.4741 13.5 10.7321 13.5 11C13.5 12.3807 12.3807 13.5 11 13.5C10.7321 13.5 10.4741 13.4579 10.2321 13.3799L10.2306 13.3828C9.76301 14.3215 9.5 15.3801 9.5 16.5C9.5 17.8528 9.88373 19.1159 10.5483 20.1865C10.7582 20.5248 10.5305 21 10.1324 21C9.9774 21 9.83165 20.9239 9.74838 20.7932C8.95796 19.5528 8.5 18.0799 8.5 16.5C8.5 15.517 8.67729 14.5754 9.00165 13.7055L6.96613 15.741C6.98822 15.8236 7 15.9104 7 16V18C7 18.5523 6.55228 19 6 19H4C3.44772 19 3 18.5523 3 18V16C3 15.4477 3.44772 15 4 15H6C6.08958 15 6.17641 15.0118 6.25902 15.0339L8.9142 12.3787C8.65244 11.9835 8.5 11.5095 8.5 11C8.5 9.61929 9.61929 8.5 11 8.5C11.5095 8.5 11.9835 8.65244 12.3787 8.9142L15.0339 6.25902C15.0118 6.17641 15 6.08958 15 6V4ZM11 12.5C11.8284 12.5 12.5 11.8284 12.5 11C12.5 10.1716 11.8284 9.5 11 9.5C10.1716 9.5 9.5 10.1716 9.5 11C9.5 11.8284 10.1716 12.5 11 12.5ZM6 16H4V18H6V16Z" fill="currentColor" />
</svg>
