<svg width="24" height="24" viewBox="0 0 24 24" fill="none" xmlns="http://www.w3.org/2000/svg">
<path fill-rule="evenodd" clip-rule="evenodd" d="M15 6H16V7H15V6ZM14.741 7.96613C14.8236 7.98822 14.9104 8 15 8H16C16.5523 8 17 7.55228 17 7V6C17 5.44772 16.5523 5 16 5H15C14.4477 5 14 5.44772 14 6V7C14 7.08958 14.0118 7.17641 14.0339 7.25902L12.016 9.27691C11.7182 9.10097 11.3709 9 11 9C9.89543 9 9 9.89543 9 11C9 11.3709 9.10097 11.7182 9.27691 12.016L7.25902 14.0339C7.17641 14.0118 7.08958 14 7 14H6C5.44772 14 5 14.4477 5 15V16C5 16.5523 5.44772 17 6 17H7C7.55228 17 8 16.5523 8 16V15C8 14.9104 7.98822 14.8236 7.96613 14.741L9.18283 13.5243C9.06343 13.9964 9 14.4908 9 15C9 16.468 9.52721 17.8129 10.4026 18.8556C10.4808 18.9487 10.5973 19 10.7189 19C11.1295 19 11.3397 18.4307 11.0841 18.1093C10.4055 17.2557 10 16.1752 10 15C10 14.2592 10.1611 13.5559 10.4502 12.9235C10.6249 12.9733 10.8093 13 11 13C12.1046 13 13 12.1046 13 11C13 10.8093 12.9733 10.6249 12.9235 10.4502C13.5559 10.1611 14.2592 10 15 10C16.1752 10 17.2557 10.4055 18.1093 11.0841C18.4307 11.3397 19 11.1295 19 10.7189C19 10.5973 18.9487 10.4808 18.8556 10.4026C17.8129 9.52721 16.468 9 15 9C14.4908 9 13.9964 9.06343 13.5243 9.18283L14.741 7.96613ZM7 15H6L6 16H7V15ZM11 12C11.5523 12 12 11.5523 12 11C12 10.4477 11.5523 10 11 10C10.4477 10 10 10.4477 10 11C10 11.5523 10.4477 12 11 12Z" fill="currentColor" />
</svg>
