<svg width="24" height="24" viewBox="0 0 24 24" fill="none" xmlns="http://www.w3.org/2000/svg">
<path fill-rule="evenodd" clip-rule="evenodd" d="M10.1056 5.55279C10.275 5.214 10.6212 5 11 5H15C15.3603 5 15.6927 5.19379 15.8702 5.5073C16.0477 5.82081 16.0429 6.20557 15.8575 6.5145L13.7662 10H16C16.4045 10 16.7691 10.2436 16.9239 10.6173C17.0787 10.991 16.9931 11.4211 16.7071 11.7071L9.70711 18.7071C9.37139 19.0428 8.84588 19.0962 8.44951 18.8348C8.05314 18.5735 7.89519 18.0694 8.07152 17.6286L9.52297 14H7.5C7.15342 14 6.83156 13.8205 6.64935 13.5257C6.46714 13.2309 6.45058 12.8628 6.60557 12.5528L10.1056 5.55279ZM9.92297 13H11L10.6 14L9.94281 15.643L9 18L10.7951 16.2049L15 12L16 11H14.5858H13.1662H12L12.6 10L14.4 7L15 6H13.8338H11L8 12L7.5 13H8.61804H9.92297Z" fill="currentColor" />
</svg>
