<svg width="24" height="24" viewBox="0 0 24 24" fill="none" xmlns="http://www.w3.org/2000/svg">
<path fill-rule="evenodd" clip-rule="evenodd" d="M16 7H8C7.44771 7 7 7.44771 7 8V16C7 16.5523 7.44771 17 8 17H16C16.5523 17 17 16.5523 17 16V8C17 7.44771 16.5523 7 16 7ZM8 6C6.89543 6 6 6.89543 6 8V16C6 17.1046 6.89543 18 8 18H16C17.1046 18 18 17.1046 18 16V8C18 6.89543 17.1046 6 16 6H8ZM10.8535 10.1465C11.0488 10.3417 11.0488 10.6583 10.8535 10.8535L9.70711 12L10.8535 13.1465C11.0488 13.3417 11.0488 13.6583 10.8535 13.8535C10.6583 14.0488 10.3417 14.0488 10.1465 13.8535L8.64645 12.3535C8.45119 12.1583 8.45119 11.8417 8.64645 11.6465L10.1465 10.1465C10.3417 9.95119 10.6583 9.95119 10.8535 10.1465ZM13.1465 10.8535C12.9512 10.6583 12.9512 10.3417 13.1465 10.1465C13.3417 9.95119 13.6583 9.95119 13.8535 10.1465L15.3535 11.6465C15.5488 11.8417 15.5488 12.1583 15.3535 12.3535L13.8535 13.8535C13.6583 14.0488 13.3417 14.0488 13.1465 13.8535C12.9512 13.6583 12.9512 13.3417 13.1465 13.1465L14.2929 12L13.1465 10.8535Z" fill="currentColor" />
</svg>
