<svg width="24" height="24" viewBox="0 0 24 24" fill="none" xmlns="http://www.w3.org/2000/svg">
<path fill-rule="evenodd" clip-rule="evenodd" d="M18 12C18 15.3137 15.3137 18 12 18C8.68629 18 6 15.3137 6 12C6 8.68629 8.68629 6 12 6C15.3137 6 18 8.68629 18 12ZM19 12C19 15.866 15.866 19 12 19C8.13401 19 5 15.866 5 12C5 8.13401 8.13401 5 12 5C15.866 5 19 8.13401 19 12ZM8.83684 13C8.66534 13 8.50581 13.0879 8.41418 13.2329C8.32255 13.3778 8.31162 13.5596 8.38521 13.7145C9.02663 15.0648 10.4036 16 12 16C13.5964 16 14.9734 15.0648 15.6148 13.7145C15.6884 13.5596 15.6775 13.3778 15.5859 13.2329C15.4942 13.0879 15.3347 13 15.1632 13H8.83684ZM12 15C11.1119 15 10.3134 14.6141 9.7638 14H14.2362C13.6866 14.6141 12.8881 15 12 15ZM11 10C11 10.5523 10.5523 11 10 11C9.44772 11 9 10.5523 9 10C9 9.44772 9.44772 9 10 9C10.5523 9 11 9.44772 11 10ZM14 11C14.5523 11 15 10.5523 15 10C15 9.44772 14.5523 9 14 9C13.4477 9 13 9.44772 13 10C13 10.5523 13.4477 11 14 11Z" fill="currentColor" />
</svg>
