<svg width="24" height="24" viewBox="0 0 24 24" fill="none" xmlns="http://www.w3.org/2000/svg">
<path fill-rule="evenodd" clip-rule="evenodd" d="M18.0149 5.44026L17.7 6.69997L16.4403 7.0149C15.9353 7.14114 15.9353 7.8588 16.4403 7.98504L17.7 8.29997L18.0149 9.55969C18.1412 10.0647 18.8588 10.0647 18.9851 9.55969L19.3 8.29997L20.5597 7.98504C21.0647 7.8588 21.0647 7.14114 20.5597 7.0149L19.3 6.69997L18.9851 5.44026C18.8588 4.93528 18.1412 4.93528 18.0149 5.44026ZM14.5 6.99991C14.7761 6.99991 15 7.22377 15 7.49991C15 7.77605 14.7761 7.99991 14.5 7.99991H6.5C6.22386 7.99991 6 8.22377 6 8.49991V15.4999C6 15.7761 6.22386 15.9999 6.5 15.9999H17.5C17.7761 15.9999 18 15.7761 18 15.4999V11.4999C18 11.2238 18.2239 10.9999 18.5 10.9999C18.7761 10.9999 19 11.2238 19 11.4999V15.4999C19 16.3283 18.3284 16.9999 17.5 16.9999H6.5C5.67157 16.9999 5 16.3283 5 15.4999V8.49991C5 7.67148 5.67157 6.99991 6.5 6.99991H14.5ZM8.5 9.49988C8.5 9.22374 8.27614 8.99988 8 8.99988C7.72386 8.99988 7.5 9.22374 7.5 9.49988V11.9999V14.4999C7.5 14.776 7.72386 14.9999 8 14.9999C8.27614 14.9999 8.5 14.776 8.5 14.4999V12.4999H10.5V14.4999C10.5 14.776 10.7239 14.9999 11 14.9999C11.2761 14.9999 11.5 14.776 11.5 14.4999V11.9999V9.49988C11.5 9.22374 11.2761 8.99988 11 8.99988C10.7239 8.99988 10.5 9.22374 10.5 9.49988V11.4999H8.5V9.49988ZM12.5 9.49988C12.5 9.22374 12.7239 8.99988 13 8.99988H14.5C15.6046 8.99988 16.5 9.89531 16.5 10.9999V12.9999C16.5 14.1045 15.6046 14.9999 14.5 14.9999H13C12.7239 14.9999 12.5 14.776 12.5 14.4999V9.49988ZM13.5 13.9999H14.5C15.0523 13.9999 15.5 13.5522 15.5 12.9999V10.9999C15.5 10.4476 15.0523 9.99988 14.5 9.99988H13.5V13.9999Z" fill="currentColor" />
</svg>
