<svg width="24" height="24" viewBox="0 0 24 24" fill="none" xmlns="http://www.w3.org/2000/svg">
<path fill-rule="evenodd" clip-rule="evenodd" d="M17 7.70711L13.8536 10.8536C13.6583 11.0488 13.3417 11.0488 13.1464 10.8536C12.9512 10.6583 12.9512 10.3417 13.1464 10.1464L16.2929 7H13.5C13.2239 7 13 6.77614 13 6.5C13 6.22386 13.2239 6 13.5 6H17.5C17.7761 6 18 6.22386 18 6.5V10.5C18 10.7761 17.7761 11 17.5 11C17.2239 11 17 10.7761 17 10.5V7.70711ZM10.1464 13.1464C10.3417 12.9512 10.6583 12.9512 10.8536 13.1464C11.0488 13.3417 11.0488 13.6583 10.8536 13.8536L7.70711 17H10.5C10.7761 17 11 17.2239 11 17.5C11 17.7761 10.7761 18 10.5 18H6.5C6.22386 18 6 17.7761 6 17.5V13.5C6 13.2239 6.22386 13 6.5 13C6.77614 13 7 13.2239 7 13.5V16.2929L10.1464 13.1464Z" fill="currentColor" />
</svg>
