<svg width="24" height="24" viewBox="0 0 24 24" fill="none" xmlns="http://www.w3.org/2000/svg">
<path fill-rule="evenodd" clip-rule="evenodd" d="M11.5 7.02466C8.97334 7.27552 7 9.4073 7 12C7 14.5926 8.97334 16.7244 11.5 16.9753V7.02466Z" fill="currentColor" fill-opacity="0.3" />
<path fill-rule="evenodd" clip-rule="evenodd" d="M12.0001 4C12.2763 4 12.5001 4.22386 12.5001 4.5V6C12.5001 6.00686 12.5 6.0137 12.4997 6.02049C13.7812 6.1261 14.9485 6.63442 15.8748 7.41863C15.8795 7.41362 15.8842 7.40867 15.8891 7.40381L16.9497 6.34315C17.145 6.14788 17.4616 6.14788 17.6569 6.34315C17.8521 6.53841 17.8521 6.85499 17.6569 7.05025L16.5962 8.11091C16.5913 8.11577 16.5864 8.12051 16.5814 8.12513C17.3657 9.05146 17.8741 10.2188 17.9797 11.5004C17.9865 11.5001 17.9932 11.5 18 11.5H19.5C19.7761 11.5 20 11.7239 20 12C20 12.2761 19.7761 12.5 19.5 12.5H18C17.9932 12.5 17.9865 12.4999 17.9797 12.4996C17.8741 13.7812 17.3657 14.9485 16.5814 15.8749C16.5864 15.8795 16.5913 15.8842 16.5962 15.8891L17.6569 16.9497C17.8521 17.145 17.8521 17.4616 17.6569 17.6569C17.4616 17.8521 17.145 17.8521 16.9497 17.6569L15.8891 16.5962C15.8842 16.5913 15.8795 16.5864 15.8748 16.5814C14.9485 17.3656 13.7812 17.8739 12.4997 17.9795C12.5 17.9863 12.5001 17.9931 12.5001 18V19.5C12.5001 19.7761 12.2763 20 12.0001 20C11.724 20 11.5001 19.7761 11.5001 19.5V18C11.5001 17.9931 11.5003 17.9863 11.5005 17.9795C10.219 17.8738 9.05167 17.3654 8.12536 16.5811C8.12067 16.5862 8.11586 16.5913 8.11091 16.5962L7.05025 17.6569C6.85499 17.8521 6.53841 17.8521 6.34315 17.6569C6.14788 17.4616 6.14788 17.145 6.34315 16.9497L7.40381 15.8891C7.40876 15.8841 7.41378 15.8793 7.41888 15.8746C6.63469 14.9483 6.12637 13.781 6.02075 12.4996C6.01387 12.4999 6.00695 12.5 6 12.5L4.5 12.5C4.22386 12.5 4 12.2761 4 12C4 11.7239 4.22386 11.5 4.5 11.5H6C6.00695 11.5 6.01387 11.5001 6.02075 11.5004C6.12637 10.219 6.6347 9.05168 7.41888 8.12538C7.41378 8.12069 7.40876 8.11586 7.40381 8.11091L6.34315 7.05025C6.14788 6.85499 6.14788 6.53841 6.34315 6.34315C6.53841 6.14788 6.85499 6.14788 7.05025 6.34315L8.11091 7.40381C8.11586 7.40875 8.12067 7.41377 8.12536 7.41886C9.05167 6.63458 10.219 6.12618 11.5005 6.02051C11.5003 6.01371 11.5001 6.00687 11.5001 6V4.5C11.5001 4.22386 11.724 4 12.0001 4ZM7.00024 12C7.00024 9.40733 8.97358 7.27555 11.5002 7.02469V16.9753C8.97358 16.7245 7.00024 14.5927 7.00024 12ZM12.5002 16.9753C15.0269 16.7245 17.0002 14.5927 17.0002 12C17.0002 9.40733 15.0269 7.27555 12.5002 7.02469V16.9753Z" fill="currentColor" />
</svg>
