<svg width="24" height="24" viewBox="0 0 24 24" fill="none" xmlns="http://www.w3.org/2000/svg">
<path fill-rule="evenodd" clip-rule="evenodd" d="M12 5C12.2761 5 12.5 5.22386 12.5 5.5V12.2929L14.6464 10.1464C14.8417 9.95118 15.1583 9.95118 15.3536 10.1464C15.5488 10.3417 15.5488 10.6583 15.3536 10.8536L12.3536 13.8536C12.1583 14.0488 11.8417 14.0488 11.6464 13.8536L8.64645 10.8536C8.45118 10.6583 8.45118 10.3417 8.64645 10.1464C8.84171 9.95118 9.15829 9.95118 9.35355 10.1464L11.5 12.2929V5.5C11.5 5.22386 11.7239 5 12 5ZM6.5 15C6.77614 15 7 15.2239 7 15.5V16.5C7 16.7761 7.22386 17 7.5 17H16.5C16.7761 17 17 16.7761 17 16.5V15.5C17 15.2239 17.2239 15 17.5 15C17.7761 15 18 15.2239 18 15.5V16.5C18 17.3284 17.3284 18 16.5 18H7.5C6.67157 18 6 17.3284 6 16.5V15.5C6 15.2239 6.22386 15 6.5 15Z" fill="currentColor" />
</svg>
