<svg width="24" height="24" viewBox="0 0 24 24" fill="none" xmlns="http://www.w3.org/2000/svg">
<path fill-rule="evenodd" clip-rule="evenodd" d="M17.0149 4.44026L16.7 5.69997L15.4403 6.0149C14.9353 6.14114 14.9353 6.8588 15.4403 6.98504L16.7 7.29997L17 8.49997C17 8.77611 17.2239 8.99997 17.5 8.99997C17.7761 8.99997 18 8.77611 18 8.49997L18.3 7.29997L19.5597 6.98504C20.0647 6.8588 20.0647 6.14114 19.5597 6.0149L18.3 5.69997L17.9851 4.44026C17.8588 3.93528 17.1412 3.93528 17.0149 4.44026ZM8 6.49997C8 6.22383 7.77614 5.99997 7.5 5.99997C6.67157 5.99997 6 6.67154 6 7.49997V8.49997V10.5V11.5V13.5V14.5V14.9999V15.0001V16.5C6 17.3284 6.67157 18 7.5 18H9.5H10.5H12.5H13H14.5C14.7761 18 15 17.7761 15 17.5C15 17.2238 14.7761 17 14.5 17H13H12.5H10.5H9.5H7.5C7.22386 17 7 16.7761 7 16.5V15.2071L10 12.2071L11.1464 13.3535C11.3417 13.5488 11.6583 13.5488 11.8536 13.3535C12.0488 13.1583 12.0488 12.8417 11.8536 12.6464L10.3536 11.1464C10.1583 10.9512 9.84171 10.9512 9.64645 11.1464L7 13.7929V13.5V11.5V10.5V8.49997V7.49997C7 7.22383 7.22386 6.99997 7.5 6.99997C7.77614 6.99997 8 6.77611 8 6.49997ZM11 6.49997C11 6.77611 10.7761 6.99997 10.5 6.99997H9.5C9.22386 6.99997 9 6.77611 9 6.49997C9 6.22383 9.22386 5.99997 9.5 5.99997H10.5C10.7761 5.99997 11 6.22383 11 6.49997ZM14 6.49997C14 6.77611 13.7761 6.99997 13.5 6.99997H12.5C12.2239 6.99997 12 6.77611 12 6.49997C12 6.22383 12.2239 5.99997 12.5 5.99997H13.5C13.7761 5.99997 14 6.22383 14 6.49997ZM17.5 12C17.2239 12 17 11.7761 17 11.5V10.5C17 10.2238 17.2239 9.99997 17.5 9.99997C17.7761 9.99997 18 10.2238 18 10.5V11.5C18 11.7761 17.7761 12 17.5 12ZM17.5 15C17.2239 15 17 14.7761 17 14.5V13.5C17 13.2238 17.2239 13 17.5 13C17.7761 13 18 13.2238 18 13.5V14.5C18 14.7761 17.7761 15 17.5 15ZM16 17.5C16 17.2238 16.2239 17 16.5 17C16.7761 17 17 16.7761 17 16.5C17 16.2238 17.2239 16 17.5 16C17.7761 16 18 16.2238 18 16.5C18 17.3284 17.3284 18 16.5 18C16.2239 18 16 17.7761 16 17.5ZM12.6464 14.1464C12.4512 14.3417 12.4512 14.6583 12.6464 14.8535L13.6464 15.8535C13.8417 16.0488 14.1583 16.0488 14.3536 15.8535C14.5488 15.6583 14.5488 15.3417 14.3536 15.1464L13.3536 14.1464C13.1583 13.9512 12.8417 13.9512 12.6464 14.1464ZM14.4439 11.1512C14.3293 11.0367 14.162 11 14 11C13.4477 11 13 10.5523 13 9.99997C13 9.838 12.9633 9.67065 12.8487 9.55612L12.7999 9.50725C12.5349 9.24228 12.0865 9.30578 12.0262 9.67562C12.009 9.78119 12 9.88954 12 9.99997C12 11.1045 12.8954 12 14 12C14.1104 12 14.2188 11.991 14.3243 11.9738C14.6942 11.9135 14.7577 11.4651 14.4927 11.2001L14.4439 11.1512ZM13.5553 8.84849C13.6701 8.96323 13.8377 8.99997 14 8.99997C14.5523 8.99997 15 9.44769 15 9.99997C15 10.1622 15.0367 10.3299 15.1515 10.4446L15.2001 10.4933C15.465 10.7582 15.9133 10.6947 15.9737 10.325C15.991 10.2192 16 10.1107 16 9.99997C16 8.8954 15.1046 7.99997 14 7.99997C13.8893 7.99997 13.7807 8.00896 13.6749 8.02625C13.3052 8.08668 13.2418 8.53497 13.5067 8.79987L13.5553 8.84849Z" fill="currentColor" />
</svg>
