<svg width="24" height="24" viewBox="0 0 24 24" fill="none" xmlns="http://www.w3.org/2000/svg">
<path fill-rule="evenodd" clip-rule="evenodd" d="M6 12C6 11.9345 6.0545 11.642 6.31257 11.1754C6.55343 10.7399 6.92629 10.2367 7.43394 9.76077C8.44172 8.81598 9.95481 8 12 8C14.0452 8 15.5583 8.81599 16.5661 9.76079C17.0737 10.2367 17.4466 10.7399 17.6874 11.1754C17.9455 11.642 18 11.9345 18 12C18 12.0655 17.9455 12.358 17.6874 12.8246C17.4466 13.2601 17.0737 13.7633 16.5661 14.2392C15.5583 15.184 14.0452 16 12 16C9.95482 16 8.44173 15.184 7.43394 14.2392C6.92629 13.7633 6.55343 13.2601 6.31257 12.8246C6.0545 12.358 6 12.0655 6 12ZM5 12C5 10.75 7.33333 7 12 7C16.6667 7 19 10.75 19 12C19 13.25 16.6667 17 12 17C7.33333 17 5 13.25 5 12ZM13 12C13 12.5522 12.5523 13 12 13C11.4477 13 11 12.5522 11 12C11 11.4477 11.4477 11 12 11C12.5523 11 13 11.4477 13 12ZM14 12C14 13.1045 13.1046 14 12 14C10.8954 14 10 13.1045 10 12C10 10.8954 10.8954 9.99996 12 9.99996C13.1046 9.99996 14 10.8954 14 12Z" fill="currentColor" />
</svg>
