<svg width="24" height="24" viewBox="0 0 24 24" fill="none" xmlns="http://www.w3.org/2000/svg">
<path fill-rule="evenodd" clip-rule="evenodd" d="M17.5207 6.46951C16.8864 5.83521 15.8576 5.8365 15.2249 6.47238L13.3544 8.35235L13.0009 8.70765L12.6464 8.35326L12.6362 8.34308C12.2848 7.99165 11.7149 7.99167 11.3635 8.34312L11.3434 8.36324C10.9919 8.71473 10.9919 9.28459 11.3434 9.63606L11.8535 10.1461L11.8535 10.1461L13.8535 12.1461L13.8535 12.1461L14.3636 12.6563C14.7151 13.0078 15.2849 13.0078 15.6364 12.6563L15.6565 12.6362C16.0079 12.2848 16.0079 11.7149 15.6565 11.3634L15.6464 11.3534L15.2938 11.0007L15.6455 10.6472L17.5236 8.75953C18.1541 8.12589 18.1528 7.10155 17.5207 6.46951ZM14.5161 5.76705C15.539 4.73897 17.2023 4.73689 18.2278 5.7624C19.2497 6.78427 19.2518 8.44039 18.2325 9.46484L16.6622 11.0432C17.0867 11.7707 16.9871 12.7198 16.3636 13.3433L16.3435 13.3634C15.6015 14.1054 14.3984 14.1054 13.6565 13.3633L13.4998 13.2067L7.85342 18.8489C7.75967 18.9425 7.63254 18.9952 7.5 18.9952H5.50439C5.22867 18.9952 5.00499 18.772 5.00439 18.4963L5 16.5007C4.99971 16.3677 5.05241 16.2401 5.14645 16.1461L10.7928 10.4997L10.6363 10.3432C9.89426 9.60121 9.89424 8.39816 10.6363 7.65614L10.6564 7.63602C11.2794 7.01301 12.2274 6.9131 12.9547 7.3363L14.5161 5.76705ZM11.4999 11.2068L12.7927 12.4995L7.293 17.9952L6.00329 17.9952L6.00046 16.7063L11.4999 11.2068Z" fill="currentColor" />
</svg>
