<svg width="24" height="24" viewBox="0 0 24 24" fill="none" xmlns="http://www.w3.org/2000/svg">
<path fill-rule="evenodd" clip-rule="evenodd" d="M19.3966 4.60357C18.6253 3.83234 17.3749 3.83234 16.6037 4.60357L13.3536 7.8537L13 8.20727L12.6464 7.85367L12.601 7.80826C12.2691 7.47628 11.7309 7.47627 11.3989 7.80823L11.3083 7.89886C10.9763 8.2308 10.9763 8.76899 11.3083 9.10094L11.8537 9.64635L14.3537 12.1463L14.8991 12.6917C15.231 13.0237 15.7692 13.0237 16.1012 12.6918L16.1918 12.6011C16.5238 12.2692 16.5237 11.7309 16.1918 11.399L16.1465 11.3537L15.7929 11.0002L16.1464 10.6466L19.3966 7.39647C20.1678 6.62523 20.1678 5.37481 19.3966 4.60357ZM15.8966 3.89647C17.0583 2.73471 18.9419 2.73471 20.1037 3.89647C21.2654 5.05823 21.2654 6.94181 20.1037 8.10357L17.1706 11.0367C17.6058 11.749 17.5152 12.6919 16.8989 13.3082L16.8083 13.3989C16.0858 14.1213 14.9144 14.1213 14.192 13.3989L14.0001 13.207L6.64645 20.5607C6.36514 20.842 5.98361 21 5.58579 21H3.5C3.22386 21 3 20.7762 3 20.5V18.4142C3 18.0164 3.15804 17.6349 3.43934 17.3536L10.793 9.9999L10.6012 9.80805C9.87869 9.08558 9.87869 7.91422 10.6012 7.19175L10.6918 7.10112C11.3081 6.48477 12.2512 6.39424 12.9635 6.82952L15.8966 3.89647ZM11.5001 10.707L4.14645 18.0607C4.05268 18.1544 4 18.2816 4 18.4142V20H5.58579C5.71839 20 5.84557 19.9473 5.93934 19.8536L13.293 12.4999L11.5001 10.707Z" fill="currentColor" />
</svg>
