<svg width="24" height="24" viewBox="0 0 24 24" fill="none" xmlns="http://www.w3.org/2000/svg">
<path fill-rule="evenodd" clip-rule="evenodd" d="M20 16C20 17.1046 19.1046 18 18 18L18 18.0001C18 19.1047 17.1046 20.0001 16 20.0001H6C4.89543 20.0001 4 19.1047 4 18.0001V8.00012C4 6.89555 4.89543 6.00012 6 6.00012H16C17.1046 6.00012 18 6.89555 18 8.00012V10.3751V17H18C18.5523 17 19 16.5523 19 16V8.375V6C19 5.44772 18.5523 5 18 5L8.00001 5C7.44772 5 7.00001 5.44772 7.00001 6L6.00001 6C6.00001 4.89543 6.89544 4 8.00001 4H18C19.1046 4 20 4.89543 20 6L20 8.375V16ZM5 18.0001C5 18.5524 5.44772 19.0001 6 19.0001H16C16.5523 19.0001 17 18.5524 17 18.0001V10.3751V8.00012C17 7.44784 16.5523 7.00012 16 7.00012H6C5.44772 7.00012 5 7.44784 5 8.00012V18.0001ZM8 13.9999C8.55228 13.9999 9 13.5522 9 12.9999C9 12.4477 8.55228 11.9999 8 11.9999C7.44772 11.9999 7 12.4477 7 12.9999C7 13.5522 7.44772 13.9999 8 13.9999ZM11 13.9999C11.5523 13.9999 12 13.5522 12 12.9999C12 12.4477 11.5523 11.9999 11 11.9999C10.4477 11.9999 10 12.4477 10 12.9999C10 13.5522 10.4477 13.9999 11 13.9999ZM15 12.9999C15 13.5522 14.5523 13.9999 14 13.9999C13.4477 13.9999 13 13.5522 13 12.9999C13 12.4477 13.4477 11.9999 14 11.9999C14.5523 11.9999 15 12.4477 15 12.9999Z" fill="currentColor" />
</svg>
