<svg width="24" height="24" viewBox="0 0 24 24" fill="none" xmlns="http://www.w3.org/2000/svg">
<path fill-rule="evenodd" clip-rule="evenodd" d="M20 16C20 17.1046 19.1046 18 18 18L18 18.0001C18 19.1047 17.1046 20.0001 16 20.0001H6C4.89543 20.0001 4 19.1047 4 18.0001V8.00012C4 6.89555 4.89543 6.00012 6 6.00012H16C17.1046 6.00012 18 6.89555 18 8.00012V10.3751V17H18C18.5523 17 19 16.5523 19 16V8.375V6C19 5.44772 18.5523 5 18 5L8.00001 5C7.44772 5 7.00001 5.44772 7.00001 6L6.00001 6C6.00001 4.89543 6.89544 4 8.00001 4H18C19.1046 4 20 4.89543 20 6L20 8.375V16ZM6 19.0001H16C16.5523 19.0001 17 18.5524 17 18.0001V10.3751V8.00012C17 7.44784 16.5523 7.00012 16 7.00012H6C5.44772 7.00012 5 7.44784 5 8.00012V18.0001C5 18.5524 5.44772 19.0001 6 19.0001ZM11 9.99995C11.2761 9.99995 11.5 10.2238 11.5 10.4999V12.4999H13.5C13.7761 12.4999 14 12.7238 14 12.9999C14 13.2761 13.7761 13.4999 13.5 13.4999H11.5V15.4999C11.5 15.7761 11.2761 15.9999 11 15.9999C10.7239 15.9999 10.5 15.7761 10.5 15.4999V13.4999H8.5C8.22386 13.4999 8 13.2761 8 12.9999C8 12.7238 8.22386 12.4999 8.5 12.4999H10.5V10.4999C10.5 10.2238 10.7239 9.99995 11 9.99995Z" fill="currentColor" />
</svg>
