<svg width="24" height="24" viewBox="0 0 24 24" fill="none" xmlns="http://www.w3.org/2000/svg">
<path fill-rule="evenodd" clip-rule="evenodd" d="M4.00773 5.12404C3.96945 4.81784 4.07469 4.51111 4.2929 4.2929C4.51111 4.0747 4.81784 3.96945 5.12404 4.00773L9.12404 4.50773C9.3447 4.53531 9.54987 4.63566 9.70711 4.7929L19.5 14.5858C20.2811 15.3668 20.2811 16.6332 19.5 17.4142L17.4142 19.5C16.6332 20.2811 15.3668 20.2811 14.5858 19.5L4.7929 9.70711C4.63566 9.54987 4.53531 9.3447 4.50773 9.12404L4.00773 5.12404ZM16.7071 18.7929L18.7929 16.7071C19.1834 16.3166 19.1834 15.6834 18.7929 15.2929L10.3536 6.85357L6.85358 10.3536C6.85358 10.3536 6.85357 10.3536 6.85357 10.3536L15.2929 18.7929C15.6834 19.1834 16.3166 19.1834 16.7071 18.7929ZM6.14646 9.64646C6.14647 9.64646 6.14647 9.64645 6.14648 9.64645L9.64646 6.14646L9.00001 5.50001L6.02379 5.12798L5.00001 5.00001L5.12798 6.02379L5.50001 9.00001L6.14646 9.64646Z" fill="currentColor" />
</svg>
