<svg width="24" height="24" viewBox="0 0 24 24" fill="none" xmlns="http://www.w3.org/2000/svg">
<path fill-rule="evenodd" clip-rule="evenodd" d="M5.01362 6.16441C4.96053 5.84585 5.06454 5.52127 5.29291 5.29291C5.52127 5.06454 5.84585 4.96053 6.16441 5.01362L9.16441 5.51362C9.37 5.54788 9.55974 5.64553 9.70712 5.79291L18.3536 14.4394C18.9394 15.0251 18.9394 15.9749 18.3536 16.5607L16.5607 18.3536C15.9749 18.9394 15.0251 18.9394 14.4394 18.3536L5.79291 9.70712C5.64553 9.55974 5.54788 9.37 5.51362 9.16441L5.01362 6.16441ZM6.00001 6.00001L6.17381 7.04277L6.50001 9.00001L7.39646 9.89646L9.89646 7.39646L9.00001 6.50001L7.04277 6.17381L6.00001 6.00001ZM10.6036 8.10357L8.10357 10.6036L15.1465 17.6465C15.3417 17.8417 15.6583 17.8417 15.8536 17.6465L17.6465 15.8536C17.8417 15.6583 17.8417 15.3417 17.6465 15.1465L10.6036 8.10357Z" fill="currentColor" />
</svg>
