<svg width="24" height="24" viewBox="0 0 24 24" fill="none" xmlns="http://www.w3.org/2000/svg">
<path fill-rule="evenodd" clip-rule="evenodd" d="M18 18C19.1046 18 20 17.1046 20 16V8.375L20 6C20 4.89543 19.1046 4 18 4H8.00001C6.89544 4 6.00001 4.89543 6.00001 6L7.00001 6C7.00001 5.44772 7.44772 5 8.00001 5L18 5C18.5523 5 19 5.44772 19 6V8.375V16C19 16.5523 18.5523 17 18 17H18V10.3751V8.00012C18 6.89555 17.1046 6.00012 16 6.00012H6C4.89543 6.00012 4 6.89555 4 8.00012V18.0001C4 19.1047 4.89543 20.0001 6 20.0001H16C17.1046 20.0001 18 19.1047 18 18.0001L18 18ZM16 19.0001H6C5.44772 19.0001 5 18.5524 5 18.0001V8.00012C5 7.44784 5.44772 7.00012 6 7.00012H16C16.5523 7.00012 17 7.44784 17 8.00012V10.3751V18.0001C17 18.5524 16.5523 19.0001 16 19.0001Z" fill="currentColor" />
</svg>
