<svg width="24" height="24" viewBox="0 0 24 24" fill="none" xmlns="http://www.w3.org/2000/svg">
<path fill-rule="evenodd" clip-rule="evenodd" d="M11.5 6.5H10C9.17157 6.5 8.5 7.17157 8.5 8C8.5 8.82843 9.17157 9.5 10 9.5H11.5V6.5ZM10 10.5H11.5V12V13.5H10C9.17157 13.5 8.5 12.8284 8.5 12C8.5 11.1716 9.17157 10.5 10 10.5ZM15.5002 10C16.1073 9.54389 16.5 8.8178 16.5 8C16.5 6.61929 15.3807 5.5 14 5.5H12.5H11.5H10C8.61929 5.5 7.5 6.61929 7.5 8C7.5 8.8178 7.89267 9.54389 8.49976 10C7.89267 10.4561 7.5 11.1822 7.5 12C7.5 12.8178 7.89267 13.5439 8.49976 14C7.89267 14.4561 7.5 15.1822 7.5 16C7.5 17.3807 8.61929 18.5 10 18.5C11.3807 18.5 12.5 17.3807 12.5 16V14.5V14.0002C12.9178 14.314 13.4372 14.5 14 14.5C15.3807 14.5 16.5 13.3807 16.5 12C16.5 11.1822 16.1073 10.4561 15.5002 10ZM12.5 12C12.5 12.8284 13.1716 13.5 14 13.5C14.8284 13.5 15.5 12.8284 15.5 12C15.5 11.1716 14.8284 10.5 14 10.5C13.1716 10.5 12.5 11.1716 12.5 12ZM14 9.5H12.5V6.5H14C14.8284 6.5 15.5 7.17157 15.5 8C15.5 8.82843 14.8284 9.5 14 9.5ZM10 14.5C9.17157 14.5 8.5 15.1716 8.5 16C8.5 16.8284 9.17157 17.5 10 17.5C10.8284 17.5 11.5 16.8284 11.5 16V14.5H10Z" fill="currentColor" />
</svg>
