<svg width="24" height="24" viewBox="0 0 24 24" fill="none" xmlns="http://www.w3.org/2000/svg">
<path fill-rule="evenodd" clip-rule="evenodd" d="M6.5 7C6.5 8.04349 7.03275 8.96254 7.8411 9.5C7.03275 10.0375 6.5 10.9565 6.5 12C6.5 13.0435 7.03276 13.9625 7.84111 14.5C7.03276 15.0375 6.5 15.9565 6.5 17C6.5 18.6569 7.84315 20 9.5 20C11.1569 20 12.5 18.6569 12.5 17V15V14.5V14.2361C13.0308 14.7111 13.7316 15 14.5 15C16.1569 15 17.5 13.6569 17.5 12C17.5 10.9565 16.9672 10.0375 16.1589 9.5C16.9672 8.96254 17.5 8.04349 17.5 7C17.5 5.34315 16.1569 4 14.5 4H12.5H12H11.5H9.5C7.84315 4 6.5 5.34315 6.5 7ZM14.5 9C15.6046 9 16.5 8.10457 16.5 7C16.5 5.89543 15.6046 5 14.5 5H12.5V9H14.5ZM12.5 12C12.5 13.1046 13.3954 14 14.5 14C15.6046 14 16.5 13.1046 16.5 12C16.5 10.8954 15.6046 10 14.5 10C13.3954 10 12.5 10.8954 12.5 12ZM11.5 14H9.5C8.39543 14 7.5 13.1046 7.5 12C7.5 10.8954 8.39543 10 9.5 10H11.5V12V14ZM9.5 15H11.5V17C11.5 18.1046 10.6046 19 9.5 19C8.39543 19 7.5 18.1046 7.5 17C7.5 15.8954 8.39543 15 9.5 15ZM11.5 9H9.5C8.39543 9 7.5 8.10457 7.5 7C7.5 5.89543 8.39543 5 9.5 5H11.5V9Z" fill="currentColor" />
</svg>
