<svg width="24" height="24" viewBox="0 0 24 24" fill="none" xmlns="http://www.w3.org/2000/svg">
<path fill-rule="evenodd" clip-rule="evenodd" d="M16 7H8C7.44772 7 7 7.44772 7 8V16C7 16.5523 7.44772 17 8 17H16C16.5523 17 17 16.5523 17 16V8C17 7.44772 16.5523 7 16 7ZM8 6C6.89543 6 6 6.89543 6 8V16C6 17.1046 6.89543 18 8 18H16C17.1046 18 18 17.1046 18 16V8C18 6.89543 17.1046 6 16 6H8ZM12.0833 10.375C12.0833 10.7892 11.7475 11.125 11.3333 11.125C10.919 11.125 10.5833 10.7892 10.5833 10.375C10.5833 9.96079 10.919 9.625 11.3333 9.625C11.7475 9.625 12.0833 9.96079 12.0833 10.375ZM11.3333 14.245C11.7475 14.245 12.0833 13.9092 12.0833 13.495C12.0833 13.0808 11.7475 12.745 11.3333 12.745C10.919 12.745 10.5833 13.0808 10.5833 13.495C10.5833 13.9092 10.919 14.245 11.3333 14.245ZM14.1665 15.115C14.1665 15.4602 13.8867 15.74 13.5415 15.74C13.1963 15.74 12.9165 15.4602 12.9165 15.115C12.9165 14.7698 13.1963 14.49 13.5415 14.49C13.8867 14.49 14.1665 14.7698 14.1665 15.115ZM13.5415 12.5C13.8867 12.5 14.1665 12.2202 14.1665 11.875C14.1665 11.5298 13.8867 11.25 13.5415 11.25C13.1963 11.25 12.9165 11.5298 12.9165 11.875C12.9165 12.2202 13.1963 12.5 13.5415 12.5ZM14.1665 8.875C14.1665 9.22018 13.8867 9.5 13.5415 9.5C13.1963 9.5 12.9165 9.22018 12.9165 8.875C12.9165 8.52982 13.1963 8.25 13.5415 8.25C13.8867 8.25 14.1665 8.52982 14.1665 8.875ZM8.875 9.75C9.35825 9.75 9.75 9.35825 9.75 8.875C9.75 8.39175 9.35825 8 8.875 8C8.39175 8 8 8.39175 8 8.875C8 9.35825 8.39175 9.75 8.875 9.75ZM9.75 15.115C9.75 15.5982 9.35825 15.99 8.875 15.99C8.39175 15.99 8 15.5982 8 15.115C8 14.6317 8.39175 14.24 8.875 14.24C9.35825 14.24 9.75 14.6317 9.75 15.115ZM8.875 12.75C9.35825 12.75 9.75 12.3582 9.75 11.875C9.75 11.3918 9.35825 11 8.875 11C8.39175 11 8 11.3918 8 11.875C8 12.3582 8.39175 12.75 8.875 12.75ZM16 10.375C16 10.6511 15.7761 10.875 15.5 10.875C15.2239 10.875 15 10.6511 15 10.375C15 10.0989 15.2239 9.875 15.5 9.875C15.7761 9.875 16 10.0989 16 10.375ZM15.5 13.9975C15.7761 13.9975 16 13.7736 16 13.4975C16 13.2214 15.7761 12.9975 15.5 12.9975C15.2239 12.9975 15 13.2214 15 13.4975C15 13.7736 15.2239 13.9975 15.5 13.9975Z" fill="currentColor" />
</svg>
