<svg width="24" height="24" viewBox="0 0 24 24" fill="none" xmlns="http://www.w3.org/2000/svg">
<path fill-rule="evenodd" clip-rule="evenodd" d="M16 7H8C7.44771 7 7 7.44771 7 8V13.6679L9.52145 11.1465C9.71671 10.9512 10.0333 10.9512 10.2285 11.1465L16.079 16.9969C16.5943 16.9566 17 16.5257 17 16V8C17 7.44771 16.5523 7 16 7ZM7 16V15.0821L9.875 12.2071L14.6679 17H8C7.44771 17 7 16.5523 7 16ZM8 6C6.89543 6 6 6.89543 6 8V16C6 17.1046 6.89543 18 8 18H16C17.1046 18 18 17.1046 18 16V8C18 6.89543 17.1046 6 16 6H8ZM15 10C15 10.5523 14.5523 11 14 11C13.4477 11 13 10.5523 13 10C13 9.44771 13.4477 9 14 9C14.5523 9 15 9.44771 15 10ZM16 10C16 11.1046 15.1046 12 14 12C12.8954 12 12 11.1046 12 10C12 8.89543 12.8954 8 14 8C15.1046 8 16 8.89543 16 10Z" fill="currentColor" />
</svg>
