<svg width="24" height="24" viewBox="0 0 24 24" fill="none" xmlns="http://www.w3.org/2000/svg">
<path fill-rule="evenodd" clip-rule="evenodd" d="M6.5 7H17.5C17.7761 7 18 7.22386 18 7.5V16.5C18 16.7761 17.7761 17 17.5 17H6.5C6.22386 17 6 16.7761 6 16.5V7.5C6 7.22386 6.22386 7 6.5 7ZM5 7.5C5 6.67157 5.67157 6 6.5 6H17.5C18.3284 6 19 6.67157 19 7.5V16.5C19 17.3284 18.3284 18 17.5 18H6.5C5.67157 18 5 17.3284 5 16.5V7.5ZM7.5 8C7.22386 8 7 8.22386 7 8.5V10.5C7 10.7761 7.22386 11 7.5 11C7.77614 11 8 10.7761 8 10.5V9H9.5C9.77614 9 10 8.77614 10 8.5C10 8.22386 9.77614 8 9.5 8H7.5ZM14.5 8C14.2239 8 14 8.22386 14 8.5C14 8.77614 14.2239 9 14.5 9H16V10.5C16 10.7761 16.2239 11 16.5 11C16.7761 11 17 10.7761 17 10.5V8.5C17 8.22386 16.7761 8 16.5 8H14.5ZM8 13.5C8 13.2239 7.77614 13 7.5 13C7.22386 13 7 13.2239 7 13.5V15.5C7 15.7761 7.22386 16 7.5 16H9.5C9.77614 16 10 15.7761 10 15.5C10 15.2239 9.77614 15 9.5 15H8V13.5ZM17 13.5C17 13.2239 16.7761 13 16.5 13C16.2239 13 16 13.2239 16 13.5V15H14.5C14.2239 15 14 15.2239 14 15.5C14 15.7761 14.2239 16 14.5 16H16.5C16.7761 16 17 15.7761 17 15.5V13.5Z" fill="currentColor" />
</svg>
