<svg width="24" height="24" viewBox="0 0 24 24" fill="none" xmlns="http://www.w3.org/2000/svg">
<path fill-rule="evenodd" clip-rule="evenodd" d="M12 7H8C7.44772 7 7 7.44772 7 8V12C7 12.5523 7.44772 13 8 13H12C12.5523 13 13 12.5523 13 12V8C13 7.44772 12.5523 7 12 7ZM8 6C6.89543 6 6 6.89543 6 8V12C6 13.1046 6.89543 14 8 14C8 15.1046 8.89543 16 10 16C10 17.1046 10.8954 18 12 18H16C17.1046 18 18 17.1046 18 16V12C18 10.8954 17.1046 10 16 10C16 8.89543 15.1046 8 14 8C14 6.89543 13.1046 6 12 6H8ZM16 11V14C16 15.1046 15.1046 16 14 16H11C11 16.5523 11.4477 17 12 17H16C16.5523 17 17 16.5523 17 16V12C17 11.4477 16.5523 11 16 11ZM10 15C9.44772 15 9 14.5523 9 14H12C13.1046 14 14 13.1046 14 12V9C14.5523 9 15 9.44772 15 10V14C15 14.5523 14.5523 15 14 15H10Z" fill="currentColor" />
</svg>
