<svg width="24" height="24" viewBox="0 0 24 24" fill="none" xmlns="http://www.w3.org/2000/svg">
<path fill-rule="evenodd" clip-rule="evenodd" d="M12 18.9001C8.18921 18.9001 5.09998 15.8109 5.09998 12.0001C5.09998 8.18933 8.18921 5.1001 12 5.1001C15.8107 5.1001 18.9 8.18933 18.9 12.0001C18.9 15.8109 15.8107 18.9001 12 18.9001ZM4.09998 12.0001C4.09998 7.63705 7.63693 4.1001 12 4.1001C16.363 4.1001 19.9 7.63705 19.9 12.0001C19.9 16.3631 16.363 19.9001 12 19.9001C7.63693 19.9001 4.09998 16.3631 4.09998 12.0001ZM9.49998 12.0001C9.22383 12.0001 8.99998 12.224 8.99998 12.5001C8.99998 12.7762 9.22383 13.0001 9.49998 13.0001H14.5C14.7761 13.0001 15 12.7762 15 12.5001C15 12.224 14.7761 12.0001 14.5 12.0001H9.49998ZM9.99998 15.5001C9.99998 15.224 10.2238 15.0001 10.5 15.0001H13.5C13.7761 15.0001 14 15.224 14 15.5001C14 15.7762 13.7761 16.0001 13.5 16.0001H10.5C10.2238 16.0001 9.99998 15.7762 9.99998 15.5001ZM8.49998 9.0001C8.22383 9.0001 7.99998 9.22396 7.99998 9.5001C7.99998 9.77624 8.22383 10.0001 8.49998 10.0001H15.5C15.7761 10.0001 16 9.77624 16 9.5001C16 9.22396 15.7761 9.0001 15.5 9.0001H8.49998Z" fill="currentColor" />
</svg>
