<svg width="24" height="24" viewBox="0 0 24 24" fill="none" xmlns="http://www.w3.org/2000/svg">
<path fill-rule="evenodd" clip-rule="evenodd" d="M18 4C19.1046 4 20 4.89543 20 6V14C20 14.2761 19.7761 14.5 19.5 14.5C19.2239 14.5 19 14.2761 19 14V9H10V19H14C14.2761 19 14.5 19.2239 14.5 19.5C14.5 19.7761 14.2761 20 14 20H6C4.89543 20 4 19.1046 4 18V6C4 4.89543 4.89543 4 6 4H18ZM19 6V8H9.5H5V6C5 5.44772 5.44772 5 6 5L18 5C18.5523 5 19 5.44772 19 6ZM5 18L5 9H9V19H6C5.44772 19 5 18.5523 5 18ZM19.0149 16.4403L18.5 18.5L16.4403 19.0149C15.9353 19.1412 15.9353 19.8588 16.4403 19.9851L18.5 20.5L19.0149 22.5597C19.1412 23.0647 19.8588 23.0647 19.9851 22.5597L20.5 20.5L22.5597 19.9851C23.0647 19.8588 23.0647 19.1412 22.5597 19.0149L20.5 18.5L19.9851 16.4403C19.8588 15.9353 19.1412 15.9353 19.0149 16.4403Z" fill="currentColor" />
</svg>
