<svg width="24" height="24" viewBox="0 0 24 24" fill="none" xmlns="http://www.w3.org/2000/svg">
<path fill-rule="evenodd" clip-rule="evenodd" d="M16.5 6C17.3284 6 18 6.67157 18 7.5V13.5C18 13.7761 17.7761 14 17.5 14C17.2239 14 17 13.7761 17 13.5V10H11V17H13.5C13.7761 17 14 17.2239 14 17.5C14 17.7761 13.7761 18 13.5 18H7.5C6.67157 18 6 17.3284 6 16.5V7.5C6 6.67157 6.67157 6 7.5 6H16.5ZM10 17V10H7L7 16.5C7 16.7761 7.22386 17 7.5 17H10ZM7 9H10.5H17V7.5C17 7.22386 16.7761 7 16.5 7L7.5 7C7.22386 7 7 7.22386 7 7.5V9ZM16.7 16.7L17.0149 15.4403C17.1412 14.9353 17.8588 14.9353 17.9851 15.4403L18.3 16.7L19.5597 17.0149C20.0647 17.1412 20.0647 17.8588 19.5597 17.9851L18.3 18.3L17.9851 19.5597C17.8588 20.0647 17.1412 20.0647 17.0149 19.5597L16.7 18.3L15.4403 17.9851C14.9353 17.8588 14.9353 17.1412 15.4403 17.0149L16.7 16.7Z" fill="currentColor" />
</svg>
