<svg width="24" height="24" viewBox="0 0 24 24" fill="none" xmlns="http://www.w3.org/2000/svg">
<path fill-rule="evenodd" clip-rule="evenodd" d="M6.5 7H17.5C17.7761 7 18 7.22386 18 7.5V16.5C18 16.7761 17.7761 17 17.5 17H6.5C6.22386 17 6 16.7761 6 16.5V7.5C6 7.22386 6.22386 7 6.5 7ZM5 7.5C5 6.67157 5.67157 6 6.5 6H17.5C18.3284 6 19 6.67157 19 7.5V16.5C19 17.3284 18.3284 18 17.5 18H6.5C5.67157 18 5 17.3284 5 16.5V7.5ZM12.3535 8.14645C12.1583 7.95119 11.8417 7.95119 11.6465 8.14645L10.6465 9.14645C10.4512 9.34171 10.4512 9.65829 10.6465 9.85355C10.8417 10.0488 11.1583 10.0488 11.3535 9.85355L11.5 9.70711V11.5H8.70711L8.85355 11.3535C9.04881 11.1583 9.04881 10.8417 8.85355 10.6465C8.65829 10.4512 8.34171 10.4512 8.14645 10.6465L7.14645 11.6465C6.95119 11.8417 6.95119 12.1583 7.14645 12.3535L8.14645 13.3535C8.34171 13.5488 8.65829 13.5488 8.85355 13.3535C9.04881 13.1583 9.04881 12.8417 8.85355 12.6465L8.70711 12.5H11.5V14.2929L11.3535 14.1465C11.1583 13.9512 10.8417 13.9512 10.6465 14.1465C10.4512 14.3417 10.4512 14.6583 10.6465 14.8535L11.6465 15.8535C11.8417 16.0488 12.1583 16.0488 12.3535 15.8535L13.3535 14.8535C13.5488 14.6583 13.5488 14.3417 13.3535 14.1465C13.1583 13.9512 12.8417 13.9512 12.6465 14.1465L12.5 14.2929V12.5H15.2929L15.1465 12.6465C14.9512 12.8417 14.9512 13.1583 15.1465 13.3535C15.3417 13.5488 15.6583 13.5488 15.8535 13.3535L16.8535 12.3535C17.0488 12.1583 17.0488 11.8417 16.8535 11.6465L15.8535 10.6465C15.6583 10.4512 15.3417 10.4512 15.1465 10.6465C14.9512 10.8417 14.9512 11.1583 15.1465 11.3535L15.2929 11.5H12.5V9.70711L12.6465 9.85355C12.8417 10.0488 13.1583 10.0488 13.3535 9.85355C13.5488 9.65829 13.5488 9.34171 13.3535 9.14645L12.3535 8.14645Z" fill="currentColor" />
</svg>
