<svg width="24" height="24" viewBox="0 0 24 24" fill="none" xmlns="http://www.w3.org/2000/svg">
<path fill-rule="evenodd" clip-rule="evenodd" d="M6.5 7H17.5C17.7761 7 18 7.22386 18 7.5V16.5C18 16.7761 17.7761 17 17.5 17H6.5C6.22386 17 6 16.7761 6 16.5V7.5C6 7.22386 6.22386 7 6.5 7ZM5 7.5C5 6.67157 5.67157 6 6.5 6H17.5C18.3284 6 19 6.67157 19 7.5V16.5C19 17.3284 18.3284 18 17.5 18H6.5C5.67157 18 5 17.3284 5 16.5V7.5ZM9.35355 10.8535C9.54881 10.6583 9.54881 10.3417 9.35355 10.1465C9.15829 9.95119 8.84171 9.95119 8.64645 10.1465L7.14645 11.6465C6.95119 11.8417 6.95119 12.1583 7.14645 12.3535L8.64645 13.8535C8.84171 14.0488 9.15829 14.0488 9.35355 13.8535C9.54881 13.6583 9.54881 13.3417 9.35355 13.1465L8.70711 12.5H15.2929L14.6465 13.1465C14.4512 13.3417 14.4512 13.6583 14.6465 13.8535C14.8417 14.0488 15.1583 14.0488 15.3535 13.8535L16.8535 12.3535C17.0488 12.1583 17.0488 11.8417 16.8535 11.6465L15.3535 10.1465C15.1583 9.95119 14.8417 9.95119 14.6465 10.1465C14.4512 10.3417 14.4512 10.6583 14.6465 10.8535L15.2929 11.5H8.70711L9.35355 10.8535Z" fill="currentColor" />
</svg>
