<svg width="24" height="24" viewBox="0 0 24 24" fill="none" xmlns="http://www.w3.org/2000/svg">
<path fill-rule="evenodd" clip-rule="evenodd" d="M6.5 7H17.5C17.7761 7 18 7.22386 18 7.5V16.5C18 16.7761 17.7761 17 17.5 17H6.5C6.22386 17 6 16.7761 6 16.5V7.5C6 7.22386 6.22386 7 6.5 7ZM5 7.5C5 6.67157 5.67157 6 6.5 6H17.5C18.3284 6 19 6.67157 19 7.5V16.5C19 17.3284 18.3284 18 17.5 18H6.5C5.67157 18 5 17.3284 5 16.5V7.5ZM13.1465 10.3535C13.3417 10.5488 13.6583 10.5488 13.8535 10.3535C14.0488 10.1583 14.0488 9.84171 13.8535 9.64645L12.3535 8.14645C12.1583 7.95119 11.8417 7.95119 11.6465 8.14645L10.1465 9.64645C9.95119 9.84171 9.95119 10.1583 10.1465 10.3535C10.3417 10.5488 10.6583 10.5488 10.8535 10.3535L11.5 9.70711V14.2929L10.8535 13.6465C10.6583 13.4512 10.3417 13.4512 10.1465 13.6465C9.95119 13.8417 9.95119 14.1583 10.1465 14.3535L11.6465 15.8535C11.8417 16.0488 12.1583 16.0488 12.3535 15.8535L13.8535 14.3535C14.0488 14.1583 14.0488 13.8417 13.8535 13.6465C13.6583 13.4512 13.3417 13.4512 13.1465 13.6465L12.5 14.2929V9.70711L13.1465 10.3535Z" fill="currentColor" />
</svg>
