<svg width="24" height="24" viewBox="0 0 24 24" fill="none" xmlns="http://www.w3.org/2000/svg">
<path fill-rule="evenodd" clip-rule="evenodd" d="M12.5 3.5C12.5 3.22386 12.2761 3 12 3C11.7239 3 11.5 3.22386 11.5 3.5V10.2929L8.85355 7.64645C8.65829 7.45118 8.34171 7.45118 8.14645 7.64645C7.95118 7.84171 7.95118 8.15829 8.14645 8.35355L11.6464 11.8536C11.8417 12.0488 12.1583 12.0488 12.3536 11.8536L15.8536 8.35355C16.0488 8.15829 16.0488 7.84171 15.8536 7.64645C15.6583 7.45118 15.3417 7.45118 15.1464 7.64645L12.5 10.2929V3.5ZM4 15.5C4 15.2239 4.22386 15 4.5 15H19.5C19.7761 15 20 15.2239 20 15.5C20 15.7761 19.7761 16 19.5 16H4.5C4.22386 16 4 15.7761 4 15.5ZM5 18.5C5 18.2239 5.22386 18 5.5 18H18.5C18.7761 18 19 18.2239 19 18.5C19 18.7761 18.7761 19 18.5 19H5.5C5.22386 19 5 18.7761 5 18.5Z" fill="currentColor" />
</svg>
