<svg width="24" height="24" viewBox="0 0 24 24" fill="none" xmlns="http://www.w3.org/2000/svg">
<path fill-rule="evenodd" clip-rule="evenodd" d="M12.5 5.5C12.5 5.22386 12.2761 5 12 5C11.7239 5 11.5 5.22386 11.5 5.5V10.2929L9.85355 8.64645C9.65829 8.45118 9.34171 8.45118 9.14645 8.64645C8.95118 8.84171 8.95118 9.15829 9.14645 9.35355L11.6464 11.8536C11.8417 12.0488 12.1583 12.0488 12.3536 11.8536L14.8536 9.35355C15.0488 9.15829 15.0488 8.84171 14.8536 8.64645C14.6583 8.45118 14.3417 8.45118 14.1464 8.64645L12.5 10.2929V5.5ZM5 14.5C5 14.2239 5.22386 14 5.5 14H18.5C18.7761 14 19 14.2239 19 14.5C19 14.7761 18.7761 15 18.5 15H5.5C5.22386 15 5 14.7761 5 14.5ZM6 17.5C6 17.2239 6.22386 17 6.5 17H17.5C17.7761 17 18 17.2239 18 17.5C18 17.7761 17.7761 18 17.5 18H6.5C6.22386 18 6 17.7761 6 17.5Z" fill="currentColor" />
</svg>
