<svg width="24" height="24" viewBox="0 0 24 24" fill="none" xmlns="http://www.w3.org/2000/svg">
<path fill-rule="evenodd" clip-rule="evenodd" d="M17.5 12.5C17.7761 12.5 18 12.2761 18 12C18 11.7239 17.7761 11.5 17.5 11.5L6.5 11.5C6.22386 11.5 6 11.7239 6 12C6 12.2761 6.22386 12.5 6.5 12.5L17.5 12.5ZM14.8964 18C15.5646 18 15.8992 17.1921 15.4268 16.7197L12.7071 14C12.3166 13.6095 11.6834 13.6095 11.2929 14L8.57322 16.7197C8.10075 17.1921 8.43538 18 9.10355 18L14.8964 18ZM14.2929 17L9.70711 17L12 14.7071L14.2929 17ZM14.8964 6C15.5646 6 15.8992 6.80786 15.4268 7.28033L12.7071 10C12.3166 10.3905 11.6834 10.3905 11.2929 10L8.57322 7.28033C8.10075 6.80785 8.43538 6 9.10355 6L14.8964 6ZM14.2929 7L9.70711 7L12 9.29289L14.2929 7Z" fill="currentColor" />
</svg>
