<svg width="24" height="24" viewBox="0 0 24 24" fill="none" xmlns="http://www.w3.org/2000/svg">
<path fill-rule="evenodd" clip-rule="evenodd" d="M12.5 6.5C12.5 6.22386 12.2761 6 12 6C11.7239 6 11.5 6.22386 11.5 6.5V17.5C11.5 17.7761 11.7239 18 12 18C12.2761 18 12.5 17.7761 12.5 17.5V6.5ZM6 9.10355C6 8.43538 6.80786 8.10075 7.28033 8.57323L10 11.2929C10.3905 11.6834 10.3905 12.3166 10 12.7071L7.28033 15.4268C6.80785 15.8993 6 15.5646 6 14.8965V9.10355ZM7 14.2929L9.29289 12L7 9.70711V14.2929ZM18 9.10355C18 8.43538 17.1921 8.10075 16.7197 8.57323L14 11.2929C13.6095 11.6834 13.6095 12.3166 14 12.7071L16.7197 15.4268C17.1922 15.8993 18 15.5646 18 14.8965V9.10355ZM17 14.2929L14.7071 12L17 9.70711V14.2929Z" fill="currentColor" />
</svg>
