<svg width="24" height="24" viewBox="0 0 24 24" fill="none" xmlns="http://www.w3.org/2000/svg">
<path fill-rule="evenodd" clip-rule="evenodd" d="M8.70711 7.29292C8.42111 7.00692 7.99099 6.92137 7.61732 7.07615C7.24364 7.23093 7 7.59557 7 8.00003V16C7 16.4045 7.24364 16.7691 7.61732 16.9239C7.99099 17.0787 8.42111 16.9931 8.70711 16.7071L12 13.4142V16.0001C12 16.4045 12.2436 16.7692 12.6173 16.924C12.991 17.0787 13.4211 16.9932 13.7071 16.7072L17.7071 12.7072C18.0976 12.3167 18.0976 11.6835 17.7071 11.293L13.7071 7.29298C13.4211 7.00698 12.991 6.92143 12.6173 7.07621C12.2436 7.23099 12 7.59562 12 8.00009V10.5858L8.70711 7.29292ZM12 12L11.2929 11.2929L9 9.00003L8 8.00003V9.41424V14.5858V16L9 15L11.2929 12.7071L12 12ZM14 15.0001L13 16.0001V14.5859V9.4143V8.00009L14 9.00009L16.2929 11.293L17 12.0001L16.2929 12.7072L14 15.0001Z" fill="currentColor" />
</svg>
