<svg width="24" height="24" viewBox="0 0 24 24" fill="none" xmlns="http://www.w3.org/2000/svg">
<path fill-rule="evenodd" clip-rule="evenodd" d="M8.5 6C8.22386 6 8 6.22386 8 6.5V8H6.5C6.22386 8 6 8.22386 6 8.5C6 8.77614 6.22386 9 6.5 9H8V15H6.5C6.22386 15 6 15.2239 6 15.5C6 15.7761 6.22386 16 6.5 16H8V17.5C8 17.7761 8.22386 18 8.5 18C8.77614 18 9 17.7761 9 17.5V16H15V17.5C15 17.7761 15.2239 18 15.5 18C15.7761 18 16 17.7761 16 17.5V16H17.5C17.7761 16 18 15.7761 18 15.5C18 15.2239 17.7761 15 17.5 15H16V9H17.5C17.7761 9 18 8.77614 18 8.5C18 8.22386 17.7761 8 17.5 8H16V6.5C16 6.22386 15.7761 6 15.5 6C15.2239 6 15 6.22386 15 6.5V8H9V6.5C9 6.22386 8.77614 6 8.5 6ZM15 9H9V15H15V9Z" fill="currentColor" />
</svg>
