<svg width="24" height="24" viewBox="0 0 24 24" fill="none" xmlns="http://www.w3.org/2000/svg">
<path fill-rule="evenodd" clip-rule="evenodd" d="M7.5 4C7.22386 4 7 4.22386 7 4.5V7H4.5C4.22386 7 4 7.22386 4 7.5C4 7.77614 4.22386 8 4.5 8H7V16H4.5C4.22386 16 4 16.2239 4 16.5C4 16.7761 4.22386 17 4.5 17H7V19.5C7 19.7761 7.22386 20 7.5 20C7.77614 20 8 19.7761 8 19.5V17H16V19.5C16 19.7761 16.2239 20 16.5 20C16.7761 20 17 19.7761 17 19.5V17H19.5C19.7761 17 20 16.7761 20 16.5C20 16.2239 19.7761 16 19.5 16H17V8H19.5C19.7761 8 20 7.77614 20 7.5C20 7.22386 19.7761 7 19.5 7H17V4.5C17 4.22386 16.7761 4 16.5 4C16.2239 4 16 4.22386 16 4.5V7H8V4.5C8 4.22386 7.77614 4 7.5 4ZM16 8H8V16H16V8Z" fill="currentColor" />
</svg>
