<svg width="24" height="24" viewBox="0 0 24 24" fill="none" xmlns="http://www.w3.org/2000/svg">
<path fill-rule="evenodd" clip-rule="evenodd" d="M17.0149 4.43977L16.7 5.69948L15.4403 6.01441C14.9353 6.14066 14.9353 6.85831 15.4403 6.98455L16.7 7.29948L17.0149 8.5592C17.1412 9.06417 17.8588 9.06417 17.9851 8.5592L18.3 7.29948L19.5597 6.98455C20.0647 6.85831 20.0647 6.14066 19.5597 6.01441L18.3 5.69948L17.9851 4.43977C17.8588 3.93479 17.1412 3.93479 17.0149 4.43977ZM6 7.49948C6 6.67106 6.67157 5.99948 7.5 5.99948H13.5C13.7761 5.99948 14 6.22334 14 6.49948C14 6.77562 13.7761 6.99948 13.5 6.99948H7.5C7.22386 6.99948 7 7.22334 7 7.49948V13.7927L9.64645 11.1462C9.84171 10.9509 10.1583 10.9509 10.3536 11.1462L16.2068 16.9995H16.5C16.7761 16.9995 17 16.7756 17 16.4995V10.4995C17 10.2233 17.2239 9.99948 17.5 9.99948C17.7761 9.99948 18 10.2233 18 10.4995V16.4995C18 17.3279 17.3284 17.9995 16.5 17.9995H16.0168C16.0056 17.9999 15.9944 17.9999 15.9832 17.9995H7.5C6.67157 17.9995 6 17.3279 6 16.4995V14.9998V14.9997V7.49948ZM7 16.4995V15.2069L10 12.2069L14.7926 16.9995H7.5C7.22386 16.9995 7 16.7756 7 16.4995Z" fill="currentColor" />
</svg>
