<svg width="24" height="24" viewBox="0 0 24 24" fill="none" xmlns="http://www.w3.org/2000/svg">
<path fill-rule="evenodd" clip-rule="evenodd" d="M12.2846 5.0889C12.1134 4.97037 11.8866 4.97037 11.7154 5.0889L5.2154 9.5889C5.07575 9.68558 4.99474 9.84653 5.00027 10.0163C5.0058 10.186 5.09712 10.3414 5.24275 10.4287L7.74275 11.9287C7.97954 12.0708 8.28667 11.994 8.42875 11.7572C8.57082 11.5205 8.49404 11.2133 8.25725 11.0713L6.42178 9.96997L12 6.10813L17.5782 9.96997L15.7428 11.0713C15.506 11.2133 15.4292 11.5205 15.5713 11.7572C15.7133 11.994 16.0205 12.0708 16.2572 11.9287L18.7572 10.4287C18.9029 10.3414 18.9942 10.186 18.9997 10.0163C19.0053 9.84653 18.9242 9.68558 18.7846 9.5889L12.2846 5.0889ZM15.3536 14.1464L12.3536 11.1464C12.1583 10.9512 11.8417 10.9512 11.6464 11.1464L8.64645 14.1464C8.45119 14.3417 8.45119 14.6583 8.64645 14.8536C8.84171 15.0488 9.15829 15.0488 9.35355 14.8536L11.5 12.7071V18.5C11.5 18.7761 11.7239 19 12 19C12.2761 19 12.5 18.7761 12.5 18.5V12.7071L14.6464 14.8536C14.8417 15.0488 15.1583 15.0488 15.3536 14.8536C15.5488 14.6583 15.5488 14.3417 15.3536 14.1464Z" fill="currentColor" />
</svg>
