<svg width="24" height="24" viewBox="0 0 24 24" fill="none" xmlns="http://www.w3.org/2000/svg">
<path fill-rule="evenodd" clip-rule="evenodd" d="M13.4999 6C13.2238 6 12.9999 6.22386 12.9999 6.5C12.9999 6.77614 13.2238 7 13.4999 7H16.2928L11.6464 11.6464C11.4511 11.8417 11.4511 12.1583 11.6464 12.3536C11.8416 12.5488 12.1582 12.5488 12.3535 12.3536L16.9999 7.70711V10.5C16.9999 10.7761 17.2238 11 17.4999 11C17.7761 11 17.9999 10.7761 17.9999 10.5V7C17.9999 6.44772 17.5522 6 16.9999 6H13.4999ZM10.8535 7.14645C11.0487 7.34171 11.0487 7.65829 10.8535 7.85355L6.70703 12L11.9999 17.2929L16.1464 13.1464C16.3416 12.9512 16.6582 12.9512 16.8535 13.1464C17.0487 13.3417 17.0487 13.6583 16.8535 13.8536L12.707 18C12.3165 18.3905 11.6833 18.3905 11.2928 18L5.99992 12.7071C5.6094 12.3166 5.6094 11.6834 5.99992 11.2929L10.1464 7.14645C10.3416 6.95118 10.6582 6.95118 10.8535 7.14645Z" fill="currentColor" />
</svg>
