<svg width="24" height="24" viewBox="0 0 24 24" fill="none" xmlns="http://www.w3.org/2000/svg">
<path fill-rule="evenodd" clip-rule="evenodd" d="M8 6C6.89543 6 6 6.89543 6 8V16C6 17.1046 6.89543 18 8 18H16C17.1046 18 18 17.1046 18 16V8C18 6.89543 17.1046 6 16 6H8ZM8.46449 11.2929C8.07397 11.6834 8.07397 12.3166 8.46449 12.7071L11.2929 15.5355C11.6834 15.9261 12.3166 15.9261 12.7071 15.5355L15.5356 12.7071C15.9261 12.3166 15.9261 11.6834 15.5356 11.2929L12.7071 8.46447C12.3166 8.07394 11.6834 8.07394 11.2929 8.46447L8.46449 11.2929Z" fill="currentColor" fill-opacity="0.3" />
<path fill-rule="evenodd" clip-rule="evenodd" d="M8 7H16C16.5523 7 17 7.44772 17 8V16C17 16.5523 16.5523 17 16 17H8C7.44772 17 7 16.5523 7 16V8C7 7.44772 7.44772 7 8 7ZM6 8C6 6.89543 6.89543 6 8 6H16C17.1046 6 18 6.89543 18 8V16C18 17.1046 17.1046 18 16 18H8C6.89543 18 6 17.1046 6 16V8ZM9.17157 12L12 9.17157L14.8284 12L12 14.8284L9.17157 12ZM8.46447 12.7071C8.07394 12.3166 8.07394 11.6834 8.46447 11.2929L11.2929 8.46447C11.6834 8.07394 12.3166 8.07394 12.7071 8.46447L15.5355 11.2929C15.9261 11.6834 15.9261 12.3166 15.5355 12.7071L12.7071 15.5355C12.3166 15.9261 11.6834 15.9261 11.2929 15.5355L8.46447 12.7071Z" fill="currentColor" />
</svg>
