<svg width="24" height="24" viewBox="0 0 24 24" fill="none" xmlns="http://www.w3.org/2000/svg">
<path fill-rule="evenodd" clip-rule="evenodd" d="M7.5 6C7.77614 6 8 6.22386 8 6.5V7H11.5V6.5C11.5 6.22386 11.7239 6 12 6C12.2761 6 12.5 6.22386 12.5 6.5V7H16V6.5C16 6.22386 16.2239 6 16.5 6C16.7761 6 17 6.22386 17 6.5V7H17.5C17.7761 7 18 7.22386 18 7.5C18 7.77614 17.7761 8 17.5 8H17V16H17.5C17.7761 16 18 16.2239 18 16.5C18 16.7761 17.7761 17 17.5 17H17V17.5C17 17.7761 16.7761 18 16.5 18C16.2239 18 16 17.7761 16 17.5V17H12.5V17.5C12.5 17.7761 12.2761 18 12 18C11.7239 18 11.5 17.7761 11.5 17.5V17H8V17.5C8 17.7761 7.77614 18 7.5 18C7.22386 18 7 17.7761 7 17.5V17H6.5C6.22386 17 6 16.7761 6 16.5C6 16.2239 6.22386 16 6.5 16H7V8H6.5C6.22386 8 6 7.77614 6 7.5C6 7.22386 6.22386 7 6.5 7H7V6.5C7 6.22386 7.22386 6 7.5 6ZM8 16H11.5V8H8V16ZM12.5 16H16V8H12.5V16Z" fill="currentColor" />
</svg>
