<svg width="24" height="24" viewBox="0 0 24 24" fill="none" xmlns="http://www.w3.org/2000/svg">
<path fill-rule="evenodd" clip-rule="evenodd" d="M8 6.5C8 6.22386 7.77614 6 7.5 6C7.22386 6 7 6.22386 7 6.5V7H6.5C6.22386 7 6 7.22386 6 7.5C6 7.77614 6.22386 8 6.5 8H7V11.5H6.5C6.22386 11.5 6 11.7239 6 12C6 12.2761 6.22386 12.5 6.5 12.5H7V16H6.5C6.22386 16 6 16.2239 6 16.5C6 16.7761 6.22386 17 6.5 17H7V17.5C7 17.7761 7.22386 18 7.5 18C7.77614 18 8 17.7761 8 17.5V17H11.5V17.5C11.5 17.7761 11.7239 18 12 18C12.2761 18 12.5 17.7761 12.5 17.5V17H16V17.5C16 17.7761 16.2239 18 16.5 18C16.7761 18 17 17.7761 17 17.5V17H17.5C17.7761 17 18 16.7761 18 16.5C18 16.2239 17.7761 16 17.5 16H17V12.5H17.5C17.7761 12.5 18 12.2761 18 12C18 11.7239 17.7761 11.5 17.5 11.5H17V8H17.5C17.7761 8 18 7.77614 18 7.5C18 7.22386 17.7761 7 17.5 7H17V6.5C17 6.22386 16.7761 6 16.5 6C16.2239 6 16 6.22386 16 6.5V7H12.5V6.5C12.5 6.22386 12.2761 6 12 6C11.7239 6 11.5 6.22386 11.5 6.5V7H8V6.5ZM16 16V12.5H12.5V16H16ZM11.5 16V12.5H8V16H11.5ZM8 11.5V8H11.5V11.5H8ZM12.5 11.5V8H16V11.5H12.5Z" fill="currentColor" />
</svg>
