<svg width="24" height="24" viewBox="0 0 24 24" fill="none" xmlns="http://www.w3.org/2000/svg">
<path fill-rule="evenodd" clip-rule="evenodd" d="M7 7H10V10H7V7ZM6 7C6 6.44771 6.44771 6 7 6H10C10.5523 6 11 6.44771 11 7V10C11 10.5523 10.5523 11 10 11H7C6.44771 11 6 10.5523 6 10V7ZM7 14H10V17H7V14ZM6 14C6 13.4477 6.44771 13 7 13H10C10.5523 13 11 13.4477 11 14V17C11 17.5523 10.5523 18 10 18H7C6.44771 18 6 17.5523 6 17V14ZM17 7H14V10H17V7ZM14 6C13.4477 6 13 6.44771 13 7V10C13 10.5523 13.4477 11 14 11H17C17.5523 11 18 10.5523 18 10V7C18 6.44771 17.5523 6 17 6H14ZM14 14H17V17H14V14ZM13 14C13 13.4477 13.4477 13 14 13H17C17.5523 13 18 13.4477 18 14V17C18 17.5523 17.5523 18 17 18H14C13.4477 18 13 17.5523 13 17V14Z" fill="currentColor" />
</svg>
