<svg width="24" height="24" viewBox="0 0 24 24" fill="none" xmlns="http://www.w3.org/2000/svg">
<path fill-rule="evenodd" clip-rule="evenodd" d="M6 7.5C6 6.67157 6.67157 6 7.5 6C7.77614 6 8 6.22386 8 6.5C8 6.77614 7.77614 7 7.5 7C7.22386 7 7 7.22386 7 7.5C7 7.77614 6.77614 8 6.5 8C6.22386 8 6 7.77614 6 7.5ZM9 6.5C9 6.22386 9.22386 6 9.5 6H11C11.2761 6 11.5 6.22386 11.5 6.5C11.5 6.77614 11.2761 7 11 7H9.5C9.22386 7 9 6.77614 9 6.5ZM12.5 6.5C12.5 6.22386 12.7239 6 13 6H14.5C14.7761 6 15 6.22386 15 6.5C15 6.77614 14.7761 7 14.5 7H13C12.7239 7 12.5 6.77614 12.5 6.5ZM16 6.5C16 6.22386 16.2239 6 16.5 6C17.3284 6 18 6.67157 18 7.5C18 7.77614 17.7761 8 17.5 8C17.2239 8 17 7.77614 17 7.5C17 7.22386 16.7761 7 16.5 7C16.2239 7 16 6.77614 16 6.5ZM6.5 9C6.77614 9 7 9.22386 7 9.5V11C7 11.2761 6.77614 11.5 6.5 11.5C6.22386 11.5 6 11.2761 6 11V9.5C6 9.22386 6.22386 9 6.5 9ZM17.5 9C17.7761 9 18 9.22386 18 9.5V11C18 11.2761 17.7761 11.5 17.5 11.5C17.2239 11.5 17 11.2761 17 11V9.5C17 9.22386 17.2239 9 17.5 9ZM6.5 12.5C6.77614 12.5 7 12.7239 7 13V14.5C7 14.7761 6.77614 15 6.5 15C6.22386 15 6 14.7761 6 14.5V13C6 12.7239 6.22386 12.5 6.5 12.5ZM17.5 12.5C17.7761 12.5 18 12.7239 18 13V14.5C18 14.7761 17.7761 15 17.5 15C17.2239 15 17 14.7761 17 14.5V13C17 12.7239 17.2239 12.5 17.5 12.5ZM6.5 16C6.77614 16 7 16.2239 7 16.5C7 16.7761 7.22386 17 7.5 17C7.77614 17 8 17.2239 8 17.5C8 17.7761 7.77614 18 7.5 18C6.67157 18 6 17.3284 6 16.5C6 16.2239 6.22386 16 6.5 16ZM17.5 16C17.7761 16 18 16.2239 18 16.5C18 17.3284 17.3284 18 16.5 18C16.2239 18 16 17.7761 16 17.5C16 17.2239 16.2239 17 16.5 17C16.7761 17 17 16.7761 17 16.5C17 16.2239 17.2239 16 17.5 16ZM9 17.5C9 17.2239 9.22386 17 9.5 17H11C11.2761 17 11.5 17.2239 11.5 17.5C11.5 17.7761 11.2761 18 11 18H9.5C9.22386 18 9 17.7761 9 17.5ZM12.5 17.5C12.5 17.2239 12.7239 17 13 17H14.5C14.7761 17 15 17.2239 15 17.5C15 17.7761 14.7761 18 14.5 18H13C12.7239 18 12.5 17.7761 12.5 17.5Z" fill="currentColor" />
</svg>
