<svg width="24" height="24" viewBox="0 0 24 24" fill="none" xmlns="http://www.w3.org/2000/svg">
<path fill-rule="evenodd" clip-rule="evenodd" d="M7 6.5C7 6.22386 6.77614 6 6.5 6C6.22386 6 6 6.22386 6 6.5V11.5V17.5C6 17.7761 6.22386 18 6.5 18C6.77614 18 7 17.7761 7 17.5V12H13V17.5C13 17.7761 13.2239 18 13.5 18C13.7761 18 14 17.7761 14 17.5V11.5V6.5C14 6.22386 13.7761 6 13.5 6C13.2239 6 13 6.22386 13 6.5V11H7V6.5ZM16.0339 17.452C16.0339 17.7546 16.2793 18 16.5819 18H19.552C19.7994 18 20 17.7994 20 17.552C20 17.3046 19.7994 17.104 19.552 17.104H17.4802V17.0636L18.4774 16.026C18.8522 15.6561 19.1431 15.341 19.3503 15.0809C19.5593 14.8208 19.7053 14.5838 19.7881 14.3699C19.871 14.1561 19.9124 13.9383 19.9124 13.7168C19.9124 13.3854 19.8305 13.0906 19.6667 12.8324C19.5047 12.5742 19.2768 12.3709 18.983 12.2225C18.6893 12.0742 18.3484 12 17.9605 12C17.5782 12 17.2392 12.0761 16.9435 12.2283C16.6497 12.3805 16.419 12.5954 16.2514 12.8728C16.1621 13.0207 16.0966 13.1824 16.0549 13.3582C15.9913 13.6261 16.2232 13.8526 16.4986 13.8526C16.774 13.8526 16.9775 13.6171 17.0941 13.3676C17.1001 13.3547 17.1064 13.342 17.113 13.3295C17.1921 13.183 17.3032 13.0703 17.4463 12.9913C17.5895 12.9104 17.7561 12.8699 17.9463 12.8699C18.1309 12.8699 18.2957 12.9066 18.4407 12.9798C18.5857 13.053 18.6996 13.157 18.7825 13.2919C18.8653 13.4249 18.9068 13.5848 18.9068 13.7717C18.9068 13.9354 18.8748 14.0896 18.8107 14.2341C18.7467 14.3786 18.6507 14.5279 18.5226 14.6821C18.3945 14.8362 18.2345 15.0125 18.0424 15.211L16.1938 17.065C16.0914 17.1677 16.0339 17.3069 16.0339 17.452Z" fill="currentColor" />
</svg>
