<svg width="24" height="24" viewBox="0 0 24 24" fill="none" xmlns="http://www.w3.org/2000/svg">
<path fill-rule="evenodd" clip-rule="evenodd" d="M12.9971 8.62H13V10C13 10.2761 13.2239 10.5 13.5 10.5C13.7761 10.5 14 10.2761 14 10V8.62V7V5.92288C14.0394 5.40663 14.4707 5 14.9971 5C15.5494 5 15.9971 5.44772 15.9971 6V8.62H16V10C16 10.2761 16.2239 10.5 16.5 10.5C16.7761 10.5 17 10.2761 17 10V8.62V8C17 7.44772 17.4477 7 18 7C18.5523 7 19 7.44772 19 8V8.62H19.0098L19.0103 13.3627V13.3628C19.0103 13.412 19.0068 13.4598 19.0002 13.5061C18.9969 13.5294 18.9944 13.5528 18.9928 13.5763C18.7441 17.0893 15.8141 19.8627 12.2372 19.8627C12.075 19.8627 11.9182 19.8591 11.7666 19.8522C10.2323 19.7825 8.88247 19.0667 7.66013 17.9328C6.42994 16.7916 5.38053 15.2729 4.47158 13.7143C4.183 13.2195 3.98601 12.8341 3.9167 12.5209C3.8854 12.3795 3.89191 12.2992 3.90135 12.2583C3.90809 12.229 3.92254 12.1868 3.98806 12.1232C4.1503 11.9658 4.31288 11.924 4.50515 11.95C4.72941 11.9803 5.02285 12.1146 5.3117 12.3843L5.31337 12.3859L6.31299 13.331C6.60319 13.6053 7.0288 13.6807 7.39559 13.5227C7.76237 13.3647 7.99998 13.0037 7.99998 12.6043V8.62H8V6C8 5.44772 8.44772 5 9 5C9.55228 5 10 5.44772 10 6V7V8.62V10C10 10.2761 10.2239 10.5 10.5 10.5C10.7761 10.5 11 10.2761 11 10V8.62V7V6V5C11 4.44772 11.4477 4 12 4C12.5523 4 13 4.44772 13 5V5.89082C12.9981 5.92696 12.9971 5.96337 12.9971 6V8.62ZM7 8.5V6C7 4.89543 7.89543 4 9 4C9.41166 4 9.79427 4.12437 10.1123 4.33759C10.3857 3.55857 11.1276 3 12 3C12.8718 3 13.6133 3.55781 13.8871 4.336C14.2047 4.12376 14.5864 4 14.9971 4C16.1016 4 16.9971 4.89543 16.9971 6V6.26926C17.2919 6.09804 17.6345 6 18 6C19.1046 6 20 6.89543 20 8V8.5H20.0098L20.0103 13.3627C20.0103 13.4592 20.0035 13.5541 19.9903 13.6469C19.7048 17.6797 16.3427 20.8627 12.2372 20.8627C12.0601 20.8627 11.8882 20.8587 11.7213 20.8512C8.03906 20.6839 5.4647 17.4022 3.60775 14.2181C3.04261 13.2491 2.49843 12.1751 3.29174 11.4055C4.08485 10.636 5.19013 10.901 5.99664 11.6557L5.99998 11.6589L6.99998 12.6043V11.2281V8.5H7Z" fill="currentColor" />
</svg>
