<svg width="24" height="24" viewBox="0 0 24 24" fill="none" xmlns="http://www.w3.org/2000/svg">
<path fill-rule="evenodd" clip-rule="evenodd" d="M13 8.5V7.5V6.5C13 6.22386 12.7761 6 12.5 6C12.2239 6 12 6.22386 12 6.5V7.5V8.5V10V10.5C12 10.7761 11.7761 11 11.5 11C11.2239 11 11 10.7761 11 10.5V10V8.5V7.5C11 7.22386 10.7761 7 10.5 7C10.2239 7 10 7.22386 10 7.5V9.75V10V12C10 12.3794 9.78529 12.7261 9.44564 12.8952C9.106 13.0643 8.69992 13.0266 8.3972 12.7979L7.72451 12.2897C7.69652 12.2685 7.66966 12.2459 7.64404 12.222C7.45546 12.0455 7.28082 11.9745 7.1752 11.9603C7.12751 11.9538 7.09853 11.959 7.08129 11.9644C7.06654 11.969 7.03936 11.9802 7.00049 12.0166C7.00147 12.0313 7.00425 12.0541 7.01145 12.0867C7.05388 12.2784 7.18154 12.5361 7.39948 12.9098C7.43098 12.9638 7.48137 13.0443 7.55168 13.1516C8.93754 15.265 10.5159 16.8911 12.5154 16.9883C12.6716 16.9959 12.8356 17 13.0077 17C14.3192 17 15.2364 16.5838 15.8551 15.9361C16.4882 15.2733 16.9069 14.2642 17.0025 12.9145L17.0037 12.8994L17.0036 12.8984L17.0023 12.8692C17.0013 12.8466 17 12.8117 17 12.772V10V9.75V8.5C17 8.22386 16.7761 8 16.5 8C16.2239 8 16 8.22386 16 8.5V10V10.5C16 10.7761 15.7761 11 15.5 11C15.2239 11 15 10.7761 15 10.5V10V8.5V7.5C15 7.22386 14.7761 7 14.5 7C14.2239 7 14 7.22386 14 7.5V8.5V10V10.5C14 10.7761 13.7761 11 13.5 11C13.2239 11 13 10.7761 13 10.5V10V8.5ZM9 7.5V9.75V10V10.7467V10.7518V10.7729V12L8.32732 11.4918C8.22399 11.3951 8.11412 11.3091 8 11.2359C7.44605 10.8805 6.79186 10.8256 6.29864 11.3041C5.70365 11.8813 6.11179 12.6868 6.53565 13.4136C6.57999 13.4896 6.64127 13.5868 6.71544 13.6999C8.10763 15.823 9.93106 17.8639 12.4669 17.9871C12.6396 17.9955 12.8198 18 13.0077 18C16.0868 18 17.7859 16.0098 18 12.9852C18.0066 12.9389 18.0044 12.8919 18.0022 12.8444C18.0011 12.8204 18 12.7963 18 12.772V10V9.75V8.5C18 7.67157 17.3284 7 16.5 7C16.3049 7 16.1185 7.03726 15.9475 7.10506C15.7741 6.46825 15.1917 6 14.5 6C14.3049 6 14.1185 6.03726 13.9475 6.10506C13.7741 5.46825 13.1917 5 12.5 5C11.8083 5 11.2259 5.46825 11.0525 6.10506C10.8815 6.03726 10.6951 6 10.5 6C9.67157 6 9 6.67157 9 7.5Z" fill="currentColor" />
</svg>
