<svg width="24" height="24" viewBox="0 0 24 24" fill="none" xmlns="http://www.w3.org/2000/svg">
<path fill-rule="evenodd" clip-rule="evenodd" d="M12 18C15.3137 18 18 15.3137 18 12C18 8.68629 15.3137 6 12 6C8.68629 6 6 8.68629 6 12C6 15.3137 8.68629 18 12 18ZM12 19C15.866 19 19 15.866 19 12C19 8.13401 15.866 5 12 5C8.13401 5 5 8.13401 5 12C5 15.866 8.13401 19 12 19ZM12 9C11.4477 9 11 9.44772 11 10C11 10.2761 10.7761 10.5 10.5 10.5C10.2239 10.5 10 10.2761 10 10C10 8.89543 10.8954 8 12 8C13.1046 8 14 8.89543 14 10C14 10.8747 13.4388 11.617 12.6584 11.889C12.5957 11.9108 12.5469 11.945 12.5196 11.9751C12.507 11.9891 12.5021 11.9987 12.5006 12.0023L12.5 12.0038V12.503C12.5 12.7792 12.2761 13.003 12 13.003C11.7239 13.003 11.5 12.7792 11.5 12.503V12.003C11.5 11.4251 11.9634 11.0722 12.3293 10.9447C12.7205 10.8083 13 10.4362 13 10C13 9.44772 12.5523 9 12 9ZM12 15.5C12.4142 15.5 12.75 15.1642 12.75 14.75C12.75 14.3358 12.4142 14 12 14C11.5858 14 11.25 14.3358 11.25 14.75C11.25 15.1642 11.5858 15.5 12 15.5Z" fill="currentColor" />
</svg>
