<svg width="24" height="24" viewBox="0 0 24 24" fill="none" xmlns="http://www.w3.org/2000/svg">
<path fill-rule="evenodd" clip-rule="evenodd" d="M5.5001 9C5.77622 9 6.03289 9.22343 6.1415 9.47729C6.18496 9.57887 6.24092 9.69501 6.31258 9.82457C6.55344 10.2601 6.9263 10.7633 7.43395 11.2392C8.44173 12.184 9.95483 13 12 13C14.0452 13 15.5583 12.184 16.5661 11.2392C17.0737 10.7633 17.4466 10.2601 17.6874 9.8246C17.7591 9.69506 17.815 9.57895 17.8585 9.47738C17.9671 9.2235 18.2239 9 18.5 9C18.7761 9 18.9951 9.22492 18.9168 9.48974C18.7152 10.1719 18.1468 11.14 17.2116 12.0045L18.3536 13.1464C18.5488 13.3417 18.5488 13.6583 18.3536 13.8536C18.1583 14.0488 17.8417 14.0488 17.6464 13.8536L16.429 12.6361C15.8852 13.0177 15.2551 13.3517 14.5388 13.5937L14.9851 15.3787C15.052 15.6466 14.8892 15.9181 14.6213 15.9851C14.3534 16.052 14.0819 15.8892 14.0149 15.6213L13.5722 13.8502C13.0814 13.9465 12.5573 14 12 14C11.4427 14 10.9186 13.9465 10.4278 13.8502L9.98508 15.6213C9.9181 15.8892 9.64664 16.052 9.37874 15.9851C9.11084 15.9181 8.94796 15.6466 9.01494 15.3787L9.4612 13.5937C8.74487 13.3517 8.11481 13.0177 7.57101 12.6361L6.35355 13.8536C6.15829 14.0488 5.84171 14.0488 5.64645 13.8536C5.45118 13.6583 5.45118 13.3417 5.64645 13.1464L6.78841 12.0045C5.8533 11.14 5.28489 10.172 5.0832 9.48982C5.0049 9.22497 5.22391 9 5.5001 9Z" fill="currentColor" />
</svg>
