<svg width="24" height="24" viewBox="0 0 24 24" fill="none" xmlns="http://www.w3.org/2000/svg">
<path fill-rule="evenodd" clip-rule="evenodd" d="M10 19C10 19.5523 9.55228 20 9 20H5C4.44772 20 4 19.5523 4 19V10C4 9.70808 4.12756 9.43073 4.34921 9.24074L11.3492 3.24074C11.7237 2.91975 12.2763 2.91975 12.6508 3.24074L19.6508 9.24074C19.8724 9.43073 20 9.70808 20 10V19C20 19.5523 19.5523 20 19 20H15C14.4477 20 14 19.5523 14 19V13H10V19ZM6 19H5V18V10L12 4L19 10V18V19H18H16H15V18V13C15 12.4477 14.5523 12 14 12H10C9.44772 12 9 12.4477 9 13V18V19H8H6Z" fill="currentColor" />
</svg>
