<svg width="24" height="24" viewBox="0 0 24 24" fill="none" xmlns="http://www.w3.org/2000/svg">
<path fill-rule="evenodd" clip-rule="evenodd" d="M18 5H6C5.44771 5 5 5.44771 5 6V14.2929L8.64645 10.6465C8.84171 10.4512 9.15829 10.4512 9.35355 10.6465L17.7071 19H18C18.5523 19 19 18.5523 19 18V6C19 5.44771 18.5523 5 18 5ZM5 18V15.7071L9 11.7071L16.2929 19H6C5.44771 19 5 18.5523 5 18ZM6 4C4.89543 4 4 4.89543 4 6V18C4 19.1046 4.89543 20 6 20H18C19.1046 20 20 19.1046 20 18V6C20 4.89543 19.1046 4 18 4H6ZM16 9.5C16 10.3284 15.3284 11 14.5 11C13.6716 11 13 10.3284 13 9.5C13 8.67157 13.6716 8 14.5 8C15.3284 8 16 8.67157 16 9.5ZM17 9.5C17 10.8807 15.8807 12 14.5 12C13.1193 12 12 10.8807 12 9.5C12 8.11929 13.1193 7 14.5 7C15.8807 7 17 8.11929 17 9.5Z" fill="currentColor" />
</svg>
