<svg width="24" height="24" viewBox="0 0 24 24" fill="none" xmlns="http://www.w3.org/2000/svg">
<path fill-rule="evenodd" clip-rule="evenodd" d="M14.5 7H7.5C7.22386 7 7 7.22386 7 7.5V14.5C7 14.7761 7.22386 15 7.5 15H8V9.5C8 8.67157 8.67157 8 9.5 8H15V7.5C15 7.22386 14.7761 7 14.5 7ZM9 16.5V15.2071L11 13.2071L14.7929 17H9.5C9.22386 17 9 16.7761 9 16.5ZM11.3536 12.1464L16.2071 17H16.5C16.7761 17 17 16.7761 17 16.5V9.5C17 9.22386 16.7761 9 16.5 9H9.5C9.22386 9 9 9.22386 9 9.5V13.7929L10.6464 12.1464C10.8417 11.9512 11.1583 11.9512 11.3536 12.1464ZM16.5 18H16.0005H15.9995H9.5C8.67157 18 8 17.3284 8 16.5V16H7.5C6.67157 16 6 15.3284 6 14.5V7.5C6 6.67157 6.67157 6 7.5 6H14.5C15.3284 6 16 6.67157 16 7.5V8H16.5C17.3284 8 18 8.67157 18 9.5V16.5C18 17.3284 17.3284 18 16.5 18ZM15 11.5C15 11.7761 14.7761 12 14.5 12C14.2239 12 14 11.7761 14 11.5C14 11.2239 14.2239 11 14.5 11C14.7761 11 15 11.2239 15 11.5ZM16 11.5C16 12.3284 15.3284 13 14.5 13C13.6716 13 13 12.3284 13 11.5C13 10.6716 13.6716 10 14.5 10C15.3284 10 16 10.6716 16 11.5Z" fill="currentColor" />
</svg>
