<svg width="24" height="24" viewBox="0 0 24 24" fill="none" xmlns="http://www.w3.org/2000/svg">
<path fill-rule="evenodd" clip-rule="evenodd" d="M8 6C6.89543 6 6 6.89543 6 8V16C6 17.1046 6.89543 18 8 18H16C17.1046 18 18 17.1046 18 16V9.5C18 9.22386 17.7761 9 17.5 9C17.2239 9 17 9.22386 17 9.5V16C17 16.5523 16.5523 17 16 17H8C7.44771 17 7 16.5523 7 16V8C7 7.44771 7.44771 7 8 7H11C11.2761 7 11.5 6.77614 11.5 6.5C11.5 6.22386 11.2761 6 11 6H8ZM17 6C13.9624 6 11.5 8.46243 11.5 11.5V13.2929L9.85355 11.6465C9.65829 11.4512 9.34171 11.4512 9.14645 11.6465C8.95119 11.8417 8.95119 12.1583 9.14645 12.3535L11.6465 14.8535C11.8417 15.0488 12.1583 15.0488 12.3535 14.8535L14.8535 12.3535C15.0488 12.1583 15.0488 11.8417 14.8535 11.6465C14.6583 11.4512 14.3417 11.4512 14.1465 11.6465L12.5 13.2929V11.5C12.5 9.01472 14.5147 7 17 7H17.5C17.7761 7 18 6.77614 18 6.5C18 6.22386 17.7761 6 17.5 6H17Z" fill="currentColor" />
</svg>
