<svg width="24" height="24" viewBox="0 0 24 24" fill="none" xmlns="http://www.w3.org/2000/svg">
<path fill-rule="evenodd" clip-rule="evenodd" d="M5.14646 4.14646C5.31499 3.97792 5.57905 3.95178 5.77736 4.08398L8.77736 6.08398C8.902 6.16708 8.98281 6.30167 8.99758 6.45074C9.01234 6.59981 8.95948 6.74764 8.85356 6.85356L8.20712 7.50001L10.9393 10.2322L12.1357 9.03589C12.0471 8.7049 12 8.35748 12 8.00001C12 5.79087 13.7909 4.00001 16 4.00001C16.2095 4.00001 16.4159 4.0162 16.6178 4.04757C16.9899 4.10538 17.298 4.36733 17.4149 4.7253C17.5318 5.08327 17.4377 5.47655 17.1714 5.74283L16 6.91422V8.00001H17.0858L18.2572 6.82861C18.5235 6.56234 18.9167 6.46822 19.2747 6.58512C19.6327 6.70201 19.8946 7.01009 19.9524 7.38219C19.9838 7.58413 20 7.79051 20 8.00001C20 10.2091 18.2091 12 16 12C15.6425 12 15.2951 11.9529 14.9641 11.8643L14.8286 11.9998L19.4143 16.5856C20.1954 17.3667 20.1954 18.633 19.4143 19.4141C18.6333 20.1951 17.367 20.1951 16.5859 19.414L12.0002 14.8283L7.41422 19.4142C6.63317 20.1953 5.36684 20.1953 4.5858 19.4142C3.80475 18.6332 3.80475 17.3668 4.58579 16.5858L10.2322 10.9393L7.50001 8.20712L6.85356 8.85356C6.74764 8.95948 6.59981 9.01234 6.45074 8.99758C6.30167 8.98281 6.16708 8.902 6.08398 8.77736L4.08398 5.77736C3.95178 5.57905 3.97792 5.31499 4.14646 5.14646L5.14646 4.14646ZM12.7073 14.1212L13.0002 14.414L17.293 18.7069C17.6835 19.0975 18.3167 19.0975 18.7072 18.7069C19.0978 18.3164 19.0978 17.6833 18.7072 17.2927L14.4144 12.9998L14.1215 12.7069L12.7073 14.1212ZM5.56372 5.14341L5.14341 5.56372L6.57772 7.71519L7.14646 7.14646L7.71519 6.57772L5.56372 5.14341ZM13 8.00001C13 6.74569 13.7698 5.67116 14.8627 5.22308C15.2135 5.07929 15.5975 5.00001 16 5.00001C16.1579 5.00001 16.313 5.01221 16.4643 5.03572L16 5.50001L15.4122 6.08777L15 6.50001V8.00001V9.00001H16H17.5L17.9122 8.58777L18.5 8.00001L18.9643 7.53572C18.9878 7.68704 19 7.8421 19 8.00001C19 8.40254 18.9207 8.78656 18.7769 9.1373C18.3289 10.2302 17.2543 11 16 11C15.5369 11 15.0982 10.8951 14.7066 10.7076L6.70712 18.7071C6.31659 19.0976 5.68343 19.0976 5.2929 18.7071C4.90238 18.3166 4.90238 17.6834 5.2929 17.2929L13.2924 9.29342C13.105 8.90179 13 8.46315 13 8.00001Z" fill="currentColor" />
</svg>
