<svg width="24" height="24" viewBox="0 0 24 24" fill="none" xmlns="http://www.w3.org/2000/svg">
<path fill-rule="evenodd" clip-rule="evenodd" d="M7.14646 6.14646C7.29864 5.99428 7.53113 5.95655 7.72362 6.0528L9.72362 7.0528C9.86737 7.12468 9.96781 7.26128 9.99356 7.41992C10.0193 7.57857 9.96721 7.73992 9.85357 7.85357L9.20712 8.50001L10.9394 10.2323L11.0544 10.1172C11.0187 9.91644 11 9.71014 11 9.50001C11 7.56702 12.567 6.00001 14.5 6.00001C14.7178 6.00001 14.9319 6.02003 15.1401 6.05859C15.5053 6.1262 15.8029 6.3906 15.913 6.74525C16.0232 7.0999 15.9277 7.48639 15.6651 7.74898L14.5 8.91411V9.49989H15.0858L16.251 8.33469C16.5136 8.0721 16.9001 7.97665 17.2547 8.08679C17.6094 8.19693 17.8738 8.49452 17.9414 8.85966C17.98 9.06799 18 9.28211 18 9.50001C18 11.0343 17.0128 12.338 15.6389 12.8105L17.4144 14.5861C18.1955 15.3671 18.1955 16.6334 17.4144 17.4145C16.6334 18.1955 15.367 18.1955 14.586 17.4145L12 14.8285L9.41424 17.4142L8.70713 16.7071L13.5864 11.8278C13.7641 11.8976 13.9517 11.9476 14.1465 11.9752L14.1465 11.9752C14.2621 11.9915 14.3802 12 14.5002 12C14.5163 12 14.5325 11.9999 14.5485 11.9995C14.6106 11.9984 14.6722 11.9949 14.7331 11.9893C15.5613 11.9127 16.2724 11.4322 16.6676 10.7466C16.879 10.3796 17 9.95396 17 9.50001C17 9.3435 16.9856 9.19034 16.9581 9.04179L16.4999 9.50001L15.8544 10.1455L15.5 10.4999H14.5H13.5V9.49989V8.49989L13.8541 8.14583L14.5 7.49989L14.958 7.04188C14.8096 7.01438 14.6565 7.00001 14.5 7.00001C14.0458 7.00001 13.62 7.12112 13.2529 7.33281C12.5041 7.76467 12 8.57348 12 9.50001C12 9.82244 12.0611 10.1306 12.1722 10.4136L7.29292 15.2929C6.90239 15.6834 6.90239 16.3166 7.29292 16.7071C7.68344 17.0976 8.31661 17.0976 8.70713 16.7071L9.41424 17.4142C8.63319 18.1953 7.36686 18.1953 6.58581 17.4142C5.80476 16.6332 5.80476 15.3668 6.58581 14.5858L10.2323 10.9394L8.50001 9.20712L7.85357 9.85357C7.73992 9.96721 7.57857 10.0193 7.41992 9.99356C7.26128 9.96781 7.12468 9.86737 7.0528 9.72362L6.0528 7.72362C5.95655 7.53113 5.99428 7.29864 6.14646 7.14646L7.14646 6.14646ZM14.4131 12.999C14.233 12.9945 14.0559 12.9764 13.8829 12.9456L12.7071 14.1214L15.2931 16.7074C15.6836 17.0979 16.3168 17.0979 16.7073 16.7074C17.0978 16.3169 17.0979 15.6837 16.7073 15.2932L14.4131 12.999ZM7.59874 7.10839L7.10839 7.59874L7.63699 8.65593L8.14646 8.14646L8.65593 7.63699L7.59874 7.10839Z" fill="currentColor" />
</svg>
