<svg width="24" height="24" viewBox="0 0 24 24" fill="none" xmlns="http://www.w3.org/2000/svg">
<path fill-rule="evenodd" clip-rule="evenodd" d="M5 6.5C5 5.67157 5.67157 5 6.5 5H16.5C17.3284 5 18 5.67157 18 6.5V11.5C18 11.7761 18.2239 12 18.5 12C18.7761 12 19 11.7761 19 11.5V6.5C19 5.11929 17.8807 4 16.5 4H6.5C5.11929 4 4 5.11929 4 6.5V16.5C4 17.8807 5.11929 19 6.5 19H11.5C11.7761 19 12 18.7761 12 18.5C12 18.2239 11.7761 18 11.5 18H6.5C5.67157 18 5 17.3284 5 16.5V6.5ZM20.2941 16.0986C20.7003 15.9736 20.9832 15.6055 20.9993 15.1808C21.0154 14.756 20.7613 14.3675 20.3656 14.2121L12.3656 11.0692C11.9954 10.9238 11.5742 11.0116 11.2929 11.2929C11.0116 11.5742 10.9238 11.9954 11.0692 12.3656L14.2121 20.3656C14.3675 20.7613 14.756 21.0154 15.1808 20.9993C15.6055 20.9832 15.9736 20.7003 16.0986 20.2941L17.0858 17.0858L20.2941 16.0986ZM18.4663 15.6147L16.2857 16.2857L15.6147 18.4663L15.1429 20L14.5561 18.5065L12.4991 13.2705L12 12L13.2705 12.4991L18.5065 14.5561L20 15.1429L18.4663 15.6147Z" fill="currentColor" />
</svg>
