<svg width="24" height="24" viewBox="0 0 24 24" fill="none" xmlns="http://www.w3.org/2000/svg">
<path fill-rule="evenodd" clip-rule="evenodd" d="M7 8C7 7.44771 7.44771 7 8 7H15C15.5523 7 16 7.44771 16 8V11C16 11.2761 16.2239 11.5 16.5 11.5C16.7761 11.5 17 11.2761 17 11V8C17 6.89543 16.1046 6 15 6H8C6.89543 6 6 6.89543 6 8V15C6 16.1046 6.89543 17 8 17H11C11.2761 17 11.5 16.7761 11.5 16.5C11.5 16.2239 11.2761 16 11 16H8C7.44771 16 7 15.5523 7 15V8ZM18.2941 15.3129C18.7003 15.1879 18.9832 14.8198 18.9993 14.3951C19.0154 13.9703 18.7613 13.5818 18.3656 13.4264L12.3656 11.0692C11.9954 10.9238 11.5742 11.0116 11.2929 11.2929C11.0116 11.5742 10.9238 11.9954 11.0692 12.3656L13.4264 18.3656C13.5818 18.7613 13.9703 19.0154 14.3951 18.9993C14.8198 18.9832 15.1879 18.7003 15.3129 18.2941L16.0144 16.0144L18.2941 15.3129ZM16.4663 14.829L15.2143 15.2143L14.829 16.4663L14.3571 18L13.7704 16.5065L12.4991 13.2705L12 12L13.2705 12.4991L16.5065 13.7704L18 14.3571L16.4663 14.829Z" fill="currentColor" />
</svg>
