<svg width="24" height="24" viewBox="0 0 24 24" fill="none" xmlns="http://www.w3.org/2000/svg">
<path fill-rule="evenodd" clip-rule="evenodd" d="M11.8233 6.59105L6.59105 11.8233C6.49342 11.9209 6.49341 12.0792 6.59105 12.1768L11.8233 17.4091C11.9209 17.5067 12.0792 17.5067 12.1768 17.4091L17.4091 12.1768C17.5067 12.0792 17.5067 11.9209 17.4091 11.8233L12.1768 6.59105C12.0792 6.49342 11.9209 6.49341 11.8233 6.59105ZM11.1162 5.88394L5.88394 11.1162C5.39578 11.6043 5.39578 12.3958 5.88394 12.8839L11.1162 18.1162C11.6043 18.6043 12.3958 18.6043 12.8839 18.1162L18.1162 12.8839C18.6043 12.3958 18.6043 11.6043 18.1162 11.1162L12.8839 5.88394C12.3958 5.39578 11.6043 5.39578 11.1162 5.88394Z" fill="currentColor" />
</svg>
