<svg width="24" height="24" viewBox="0 0 24 24" fill="none" xmlns="http://www.w3.org/2000/svg">
<path fill-rule="evenodd" clip-rule="evenodd" d="M6.5 6C6.22386 6 6 6.22386 6 6.5V9.5C6 9.77614 6.22386 10 6.5 10C6.77614 10 7 9.77614 7 9.5V7H9.5C9.77614 7 10 6.77614 10 6.5C10 6.22386 9.77614 6 9.5 6H6.5ZM14.5 6C14.2239 6 14 6.22386 14 6.5C14 6.77614 14.2239 7 14.5 7H17V9.5C17 9.77614 17.2239 10 17.5 10C17.7761 10 18 9.77614 18 9.5V6.5C18 6.22386 17.7761 6 17.5 6H14.5ZM7 14.5C7 14.2239 6.77614 14 6.5 14C6.22386 14 6 14.2239 6 14.5V17.5C6 17.7761 6.22386 18 6.5 18H9.5C9.77614 18 10 17.7761 10 17.5C10 17.2239 9.77614 17 9.5 17H7V14.5ZM18 14.5C18 14.2239 17.7761 14 17.5 14C17.2239 14 17 14.2239 17 14.5V17H14.5C14.2239 17 14 17.2239 14 17.5C14 17.7761 14.2239 18 14.5 18H17.5C17.7761 18 18 17.7761 18 17.5V14.5ZM12.3535 8.64645C12.1583 8.45119 11.8417 8.45119 11.6465 8.64645L8.64645 11.6465C8.45119 11.8417 8.45119 12.1583 8.64645 12.3535L11.6465 15.3535C11.8417 15.5488 12.1583 15.5488 12.3535 15.3535L15.3535 12.3535C15.5488 12.1583 15.5488 11.8417 15.3535 11.6465L12.3535 8.64645ZM12 14.2929L9.70711 12L12 9.70711L14.2929 12L12 14.2929Z" fill="currentColor" />
</svg>
