<svg width="24" height="24" viewBox="0 0 24 24" fill="none" xmlns="http://www.w3.org/2000/svg">
<path fill-rule="evenodd" clip-rule="evenodd" d="M10.5 10.5C10.5 9.67157 11.1716 9 12 9C12.8284 9 13.5 9.67157 13.5 10.5C13.5 11.3284 12.8284 12 12 12C11.1716 12 10.5 11.3284 10.5 10.5ZM12 8C10.6193 8 9.5 9.11929 9.5 10.5C9.5 11.8807 10.6193 13 12 13C13.3807 13 14.5 11.8807 14.5 10.5C14.5 9.11929 13.3807 8 12 8ZM15.9554 11.0991C15.9992 10.8076 16.2819 10.588 16.5599 10.6861C16.6332 10.7119 16.7051 10.7385 16.7757 10.7656C17.3974 11.0047 17.9349 11.3017 18.3256 11.657C18.7164 12.0124 19 12.4655 19 13C19 13.5345 18.7164 13.9877 18.3256 14.3431C17.9349 14.6983 17.3974 14.9953 16.7757 15.2345C15.5289 15.714 13.8403 16 12 16C10.1597 16 8.47114 15.714 7.22432 15.2345C6.60257 14.9953 6.06511 14.6983 5.67442 14.3431C5.28358 13.9877 5 13.5345 5 13C5 12.4655 5.28358 12.0124 5.67442 11.657C6.06511 11.3017 6.60257 11.0047 7.22432 10.7656C7.29485 10.7385 7.3668 10.7119 7.44012 10.6861C7.7181 10.588 8.00078 10.8076 8.04457 11.0991C8.08004 11.3353 7.94789 11.5657 7.72323 11.6468C7.67581 11.6639 7.62916 11.6813 7.5833 11.6989C7.02877 11.9122 6.61433 12.1539 6.34719 12.3968C6.08019 12.6396 6 12.8442 6 13C6 13.1559 6.08019 13.3604 6.34719 13.6032C6.61433 13.8461 7.02877 14.0878 7.5833 14.3011C8.68901 14.7264 10.2504 15 12 15C13.7496 15 15.311 14.7264 16.4167 14.3011C16.9712 14.0878 17.3857 13.8461 17.6528 13.6032C17.9198 13.3604 18 13.1559 18 13C18 12.8442 17.9198 12.6396 17.6528 12.3968C17.3857 12.1539 16.9712 11.9122 16.4167 11.6989C16.3708 11.6813 16.3242 11.6639 16.2768 11.6468C16.0521 11.5657 15.92 11.3353 15.9554 11.0991Z" fill="currentColor" />
</svg>
