<svg width="24" height="24" viewBox="0 0 24 24" fill="none" xmlns="http://www.w3.org/2000/svg">
<path fill-rule="evenodd" clip-rule="evenodd" d="M16.5 6C17.3284 6 18 6.67157 18 7.5L18 8.5C18 8.77614 17.7761 9 17.5 9C17.2239 9 17 8.77614 17 8.5L17 7.5C17 7.22386 16.7761 7 16.5 7L7.5 7C7.22386 7 7 7.22386 7 7.5L7 16.5C7 16.7761 7.22386 17 7.5 17L16.5 17C16.7761 17 17 16.7761 17 16.5L17 15.5C17 15.2239 17.2239 15 17.5 15C17.7761 15 18 15.2239 18 15.5L18 16.5C18 17.3284 17.3284 18 16.5 18L7.5 18C6.67157 18 6 17.3284 6 16.5L6 7.5C6 6.67157 6.67157 6 7.5 6L16.5 6ZM11.6464 9.14645C11.8417 8.95118 12.1583 8.95118 12.3536 9.14645L14.8536 11.6464C15.0488 11.8417 15.0488 12.1583 14.8536 12.3536L12.3536 14.8536C12.1583 15.0488 11.8417 15.0488 11.6464 14.8536C11.4512 14.6583 11.4512 14.3417 11.6464 14.1464L13.2929 12.5L9.5 12.5C9.22386 12.5 9 12.2761 9 12C9 11.7239 9.22386 11.5 9.5 11.5L13.2929 11.5L11.6464 9.85355C11.4512 9.65829 11.4512 9.34171 11.6464 9.14645Z" fill="currentColor" />
</svg>
