<svg width="24" height="24" viewBox="0 0 24 24" fill="none" xmlns="http://www.w3.org/2000/svg">
<path fill-rule="evenodd" clip-rule="evenodd" d="M12.5 6C9.73858 6 7.5 8.23858 7.5 11C7.5 11.6194 7.61239 12.2114 7.81744 12.7574C7.91452 13.0159 7.78364 13.3042 7.52513 13.4013C7.26661 13.4984 6.97834 13.3675 6.88127 13.109C6.63465 12.4522 6.5 11.7413 6.5 11C6.5 7.68629 9.18629 5 12.5 5C15.8137 5 18.5 7.68629 18.5 11C18.5 11.2761 18.2761 11.5 18 11.5C17.7239 11.5 17.5 11.2761 17.5 11C17.5 8.23858 15.2614 6 12.5 6ZM12.5 8C10.8431 8 9.5 9.34315 9.5 11C9.5 11.093 9.50422 11.185 9.51246 11.2756C9.53746 11.5506 9.33478 11.7938 9.05977 11.8188C8.78476 11.8438 8.54156 11.6412 8.51657 11.3661C8.50559 11.2454 8.5 11.1233 8.5 11C8.5 8.79086 10.2909 7 12.5 7C14.2187 7 15.683 8.08368 16.2493 9.60334C16.3457 9.8621 16.2141 10.15 15.9553 10.2465C15.6966 10.3429 15.4086 10.2113 15.3122 9.95253C14.887 8.81144 13.7876 8 12.5 8ZM8.59127 14.8389C8.04646 15.4258 8.0806 16.3432 8.66752 16.8881L9.31383 16.1918L8.66752 16.8881C9.17352 17.3577 10.5267 18.6091 10.9816 18.9965C11.917 19.7931 13.0223 19.9926 13.9394 19.9625C14.8476 19.9327 15.6537 19.6778 16.1231 19.4565C17.0267 19.0305 17.5175 18.3694 17.7544 17.6893C17.9692 17.0727 17.962 16.4701 17.9582 16.1464L17.9578 16.1185C17.9573 16.0748 17.957 16.0393 17.9569 16.007C17.9568 15.9688 17.9545 15.9309 17.95 15.8934V14.5C17.95 13.6992 17.3008 13.05 16.5 13.05C16.2911 13.05 16.0925 13.0942 15.9131 13.1737C15.7651 12.53 15.1886 12.05 14.5 12.05C14.2911 12.05 14.0926 12.0942 13.9132 12.1737C13.7651 11.53 13.1886 11.05 12.5 11.05C11.6992 11.05 11.05 11.6992 11.05 12.5V15.1324L10.6345 14.7571C10.0473 14.218 9.13424 14.2539 8.59127 14.8389ZM9.31383 16.1918C9.11144 16.0039 9.09967 15.6876 9.28754 15.4852C9.4754 15.2828 9.79177 15.271 9.99416 15.4589L11.0909 16.4493C11.3922 16.7507 12 16.3229 12 15.8984V12.5C12 12.2239 12.2239 12 12.5 12C12.7762 12 13 12.2239 13 12.5V15.5002C13 15.7763 13.2239 16.0002 13.5 16.0002C13.7761 16.0002 14 15.7763 14 15.5002V13.5C14 13.2239 14.2238 13 14.5 13C14.7761 13 15 13.2239 15 13.5V15.5002C15 15.7763 15.2238 16.0002 15.5 16.0002C15.7761 16.0002 16 15.7763 16 15.5002V14.5C16 14.2239 16.2238 14 16.5 14C16.7761 14 17 14.2239 17 14.5V15.9918C17 15.995 17.0012 15.998 17.0034 16.0002C17.0057 16.0024 17.0069 16.0054 17.0069 16.0085C17.007 16.0462 17.0074 16.0866 17.0079 16.1292V16.1293C17.0153 16.7833 17.0288 17.9793 15.718 18.5972C14.9835 18.9435 13 19.4677 11.5976 18.2732C11.1623 17.9026 9.8285 16.6695 9.31383 16.1918Z" fill="currentColor" />
</svg>
