<svg width="24" height="24" viewBox="0 0 24 24" fill="none" xmlns="http://www.w3.org/2000/svg">
<path fill-rule="evenodd" clip-rule="evenodd" d="M10.5 5C9.67157 5 9 5.67157 9 6.5V9H6.5C5.67157 9 5 9.67157 5 10.5V13.5C5 14.3284 5.67157 15 6.5 15H9V17.5C9 18.3284 9.67157 19 10.5 19H13.5C14.3284 19 15 18.3284 15 17.5V15H17.5C18.3284 15 19 14.3284 19 13.5V10.5C19 9.67157 18.3284 9 17.5 9H15V6.5C15 5.67157 14.3284 5 13.5 5H10.5ZM10 6.5V9V10H9H6.5C6.22386 10 6 10.2239 6 10.5V13.5C6 13.7761 6.22386 14 6.5 14H9H10V15V17.5C10 17.7761 10.2239 18 10.5 18H13.5C13.7761 18 14 17.7761 14 17.5V15V14H15H17.5C17.7761 14 18 13.7761 18 13.5V10.5C18 10.2239 17.7761 10 17.5 10H15H14V9V6.5C14 6.22386 13.7761 6 13.5 6H10.5C10.2239 6 10 6.22386 10 6.5ZM13 12C13 12.5523 12.5523 13 12 13C11.4477 13 11 12.5523 11 12C11 11.4477 11.4477 11 12 11C12.5523 11 13 11.4477 13 12ZM14 12C14 13.1046 13.1046 14 12 14C10.8954 14 10 13.1046 10 12C10 10.8954 10.8954 10 12 10C13.1046 10 14 10.8954 14 12Z" fill="currentColor" />
</svg>
