<svg width="24" height="24" viewBox="0 0 24 24" fill="none" xmlns="http://www.w3.org/2000/svg">
<path fill-rule="evenodd" clip-rule="evenodd" d="M12 3C11.7239 3 11.5 3.22386 11.5 3.5C11.5 3.77614 11.7239 4 12 4C16.4183 4 20 7.58172 20 12C20 16.4183 16.4183 20 12 20C7.58172 20 4 16.4183 4 12C4 11.7239 3.77614 11.5 3.5 11.5C3.22386 11.5 3 11.7239 3 12C3 16.9706 7.02944 21 12 21C16.9706 21 21 16.9706 21 12C21 7.02944 16.9706 3 12 3ZM7.0665 5.67615C6.66925 5.40308 6.13374 5.45228 5.79289 5.79315C5.45205 6.13402 5.40289 6.66954 5.67599 7.06677L10.1742 13.6096C11.0494 14.8826 12.8652 15.0491 13.9574 13.9566C15.0494 12.8642 14.8826 11.0489 13.6097 10.1739L7.0665 5.67615ZM13.0432 10.998L8.80096 8.08188L6.50003 6.50023L8.08186 8.80104L10.9983 13.043C11.5192 13.8008 12.6 13.8999 13.2502 13.2496C13.9002 12.5994 13.8009 11.5188 13.0432 10.998Z" fill="currentColor" />
</svg>
