<svg width="24" height="24" viewBox="0 0 24 24" fill="none" xmlns="http://www.w3.org/2000/svg">
<path fill-rule="evenodd" clip-rule="evenodd" d="M17 9.5C17 9.77614 17.2239 10 17.5 10C17.7761 10 18 9.77614 18 9.5V6.5C18 6.22386 17.7761 6 17.5 6H14.5C14.2239 6 14 6.22386 14 6.5C14 6.77614 14.2239 7 14.5 7L16.2929 7L14.1464 9.14645C13.9512 9.34171 13.9512 9.65829 14.1464 9.85355C14.3417 10.0488 14.6583 10.0488 14.8536 9.85355L17 7.70711V9.5ZM7 14.5C7 14.2239 6.77614 14 6.5 14C6.22386 14 6 14.2239 6 14.5V17.5C6 17.7761 6.22386 18 6.5 18H9.5C9.77614 18 10 17.7761 10 17.5C10 17.2239 9.77614 17 9.5 17H7.70711L9.85355 14.8536C10.0488 14.6583 10.0488 14.3417 9.85355 14.1464C9.65829 13.9512 9.34171 13.9512 9.14645 14.1464L7 16.2929V14.5ZM10 6.5C10 6.77614 9.77614 7 9.5 7L7.70711 7L9.85355 9.14645C10.0488 9.34171 10.0488 9.65829 9.85355 9.85355C9.65829 10.0488 9.34171 10.0488 9.14645 9.85355L7 7.70711L7 9.5C7 9.77614 6.77614 10 6.5 10C6.22386 10 6 9.77614 6 9.5V6.5C6 6.22386 6.22386 6 6.5 6H9.5C9.77614 6 10 6.22386 10 6.5ZM12.3511 11.0637C11.9839 10.926 11.5702 11.0156 11.2929 11.2929C11.0156 11.5702 10.926 11.9839 11.0637 12.3511L13.3137 18.3511C13.4674 18.761 13.8698 19.0233 14.3069 18.9984C14.7439 18.9735 15.114 18.6672 15.2201 18.2425L15.8246 15.8246L18.2425 15.2201C18.6672 15.114 18.9735 14.7439 18.9984 14.3069C19.0233 13.8698 18.761 13.4674 18.3511 13.3137L12.3511 11.0637ZM16.2912 14.6772L15 15L14.6772 16.2912L14.25 18L13.6315 16.3508L12.466 13.2428L12 12L13.2428 12.466L16.3508 13.6315L18 14.25L16.2912 14.6772Z" fill="currentColor" />
</svg>
