<svg width="24" height="24" viewBox="0 0 24 24" fill="none" xmlns="http://www.w3.org/2000/svg">
<path fill-rule="evenodd" clip-rule="evenodd" d="M9.32133 5.53282C9.57645 5.42714 9.86894 5.5483 9.97461 5.80342L10.7511 7.67814C10.8529 7.9239 10.7122 8.2025 10.4665 8.30457C10.2208 8.40665 9.92914 8.30677 9.82732 8.06095L9.05073 6.1861C8.94506 5.93098 9.06621 5.6385 9.32133 5.53282ZM8.06105 9.82721L6.18618 9.05062C5.93106 8.94494 5.63857 9.06609 5.5329 9.32122C5.42722 9.57634 5.54837 9.86882 5.8035 9.9745L7.67823 10.751C7.924 10.8528 8.2026 10.7121 8.30466 10.4664C8.40675 10.2207 8.30687 9.92904 8.06105 9.82721ZM7.67821 13.249L5.80342 14.0255C5.5483 14.1312 5.42714 14.4237 5.53282 14.6788C5.6385 14.9339 5.93098 15.0551 6.1861 14.9494L8.06103 14.1728C8.30685 14.071 8.40672 13.7793 8.30464 13.5336C8.20258 13.2879 7.92398 13.1472 7.67821 13.249ZM9.82719 15.9391L9.05061 17.8139C8.94493 18.069 9.06608 18.3615 9.32121 18.4672C9.57633 18.5729 9.86881 18.4517 9.97449 18.1966L10.751 16.3219C10.8528 16.0761 10.7121 15.7975 10.4664 15.6955C10.2207 15.5934 9.92902 15.6932 9.82719 15.9391ZM16.322 10.751L18.1965 9.97453C18.4517 9.86886 18.5728 9.57637 18.4671 9.32125C18.3615 9.06613 18.069 8.94498 17.8139 9.05065L15.9392 9.82717C15.6934 9.92899 15.5935 10.2207 15.6956 10.4664C15.7976 10.712 16.0762 10.8528 16.322 10.751ZM14.1728 8.06091L14.9494 6.18615C15.055 5.93103 14.9339 5.63855 14.6788 5.53287C14.4236 5.4272 14.1312 5.54835 14.0255 5.80347L13.249 7.67809C13.1472 7.92386 13.2879 8.20247 13.5336 8.30453C13.7793 8.4066 14.071 8.30672 14.1728 8.06091ZM12.3513 11.0637C11.9841 10.926 11.5704 11.0157 11.2931 11.293C11.0158 11.5702 10.9262 11.984 11.0639 12.3512L13.3139 18.3512C13.4676 18.7611 13.87 19.0233 14.3071 18.9984C14.7441 18.9736 15.1142 18.6673 15.2203 18.2426L15.8248 15.8247L18.2427 15.2202C18.6674 15.114 18.9737 14.744 18.9986 14.3069C19.0235 13.8699 18.7612 13.4674 18.3513 13.3137L12.3513 11.0637ZM16.2914 14.6773L15.0002 15.0001L14.6774 16.2913L14.2502 18.0001L13.6317 16.3508L12.4662 13.2428L12.0002 12.0001L13.243 12.4661L16.3509 13.6316L18.0002 14.2501L16.2914 14.6773Z" fill="currentColor" />
</svg>
