<svg width="24" height="24" viewBox="0 0 24 24" fill="none" xmlns="http://www.w3.org/2000/svg">
<path fill-rule="evenodd" clip-rule="evenodd" d="M12 6C11.1716 6 10.5 6.67157 10.5 7.5C10.5 8.32843 11.1716 9 12 9C12.8284 9 13.5 8.32843 13.5 7.5C13.5 6.67157 12.8284 6 12 6ZM9.5 7.5C9.5 6.11929 10.6193 5 12 5C13.3807 5 14.5 6.11929 14.5 7.5C14.5 8.88071 13.3807 10 12 10C10.6193 10 9.5 8.88071 9.5 7.5ZM6 15.6028V16C6 16.1558 6.0802 16.3604 6.34718 16.6032C6.61432 16.8461 7.02878 17.0878 7.5833 17.3011C8.68901 17.7264 10.2504 18 12 18C13.7496 18 15.311 17.7264 16.4167 17.3011C16.9712 17.0878 17.3857 16.8461 17.6528 16.6032C17.9198 16.3604 18 16.1558 18 16V15.6028C17.656 15.8457 17.2393 16.0561 16.7757 16.2344C15.5289 16.714 13.8403 17 12 17C10.1597 17 8.47115 16.714 7.22432 16.2344C6.76071 16.0561 6.34398 15.8457 6 15.6028ZM6 14C6 14.1558 6.0802 14.3604 6.34718 14.6032C6.61432 14.8461 7.02878 15.0878 7.5833 15.3011C8.68901 15.7264 10.2504 16 12 16C13.7496 16 15.311 15.7264 16.4167 15.3011C16.9712 15.0878 17.3857 14.8461 17.6528 14.6032C17.9198 14.3604 18 14.1558 18 14C18 13.8442 17.9198 13.6396 17.6528 13.3968C17.3857 13.1539 16.9712 12.9122 16.4167 12.6989C15.311 12.2736 13.7496 12 12 12C10.2504 12 8.68901 12.2736 7.5833 12.6989C7.02878 12.9122 6.61432 13.1539 6.34718 13.3968C6.0802 13.6396 6 13.8442 6 14ZM19 14C19 13.4655 18.7164 13.0124 18.3256 12.657C17.9349 12.3017 17.3974 12.0047 16.7757 11.7656C15.5289 11.286 13.8403 11 12 11C10.1597 11 8.47115 11.286 7.22432 11.7656C6.60257 12.0047 6.06511 12.3017 5.67442 12.657C5.28357 13.0124 5 13.4655 5 14V16C5 16.5345 5.28357 16.9876 5.67442 17.343C6.06511 17.6983 6.60257 17.9953 7.22432 18.2344C8.47115 18.714 10.1597 19 12 19C13.8403 19 15.5289 18.714 16.7757 18.2344C17.3974 17.9953 17.9349 17.6983 18.3256 17.343C18.7164 16.9876 19 16.5345 19 16V14Z" fill="currentColor" />
</svg>
