<svg width="24" height="24" viewBox="0 0 24 24" fill="none" xmlns="http://www.w3.org/2000/svg">
<path fill-rule="evenodd" clip-rule="evenodd" d="M12 5C11.7239 5 11.5 5.22386 11.5 5.5C11.5 5.77614 11.7239 6 12 6C15.3137 6 18 8.68629 18 12C18 15.3137 15.3137 18 12 18C8.68629 18 6 15.3137 6 12C6 11.7239 5.77614 11.5 5.5 11.5C5.22386 11.5 5 11.7239 5 12C5 15.866 8.13401 19 12 19C15.866 19 19 15.866 19 12C19 8.13401 15.866 5 12 5ZM8.3005 6.91783C7.9046 6.66167 7.38356 6.71688 7.05014 7.05031C6.71672 7.38374 6.66153 7.90479 6.9177 8.30067L9.99202 13.0517C10.7573 14.2343 12.4182 14.4103 13.4142 13.4142C14.4103 12.4181 14.2343 10.7572 13.0516 9.99199L8.3005 6.91783ZM12.5084 10.8316L9.80624 9.08317L7.75726 7.75741L9.08309 9.80634L10.8316 12.5084C11.251 13.1566 12.1612 13.253 12.7071 12.7071C13.253 12.1612 13.1566 11.251 12.5084 10.8316Z" fill="currentColor" />
</svg>
