<svg width="24" height="24" viewBox="0 0 24 24" fill="none" xmlns="http://www.w3.org/2000/svg">
<path fill-rule="evenodd" clip-rule="evenodd" d="M9.32101 5.53233C9.57613 5.42666 9.86861 5.54781 9.97429 5.80293L10.7508 7.67765C10.8526 7.92341 10.7119 8.20202 10.4662 8.30408C10.2205 8.40616 9.92882 8.30629 9.827 8.06046L9.05041 6.18561C8.94473 5.93049 9.06588 5.63801 9.32101 5.53233ZM8.06073 9.82673L6.18586 9.05013C5.93073 8.94446 5.63825 9.06561 5.53258 9.32073C5.4269 9.57585 5.54805 9.86833 5.80317 9.97401L7.67791 10.7506C7.92367 10.8523 8.20228 10.7116 8.30434 10.4659C8.40642 10.2202 8.30655 9.92855 8.06073 9.82673ZM16.3217 10.7505L18.1962 9.97405C18.4513 9.86837 18.5725 9.57589 18.4668 9.32076C18.3611 9.06564 18.0687 8.94449 17.8135 9.05017L15.9389 9.82668C15.693 9.9285 15.5932 10.2202 15.6952 10.4659C15.7973 10.7116 16.0759 10.8523 16.3217 10.7505ZM14.1725 8.06042L14.949 6.18567C15.0547 5.93054 14.9336 5.63806 14.6784 5.53238C14.4233 5.42671 14.1308 5.54786 14.0252 5.80298L13.2487 7.6776C13.1469 7.92337 13.2876 8.20198 13.5333 8.30404C13.779 8.40611 14.0707 8.30624 14.1725 8.06042ZM14.8536 13.3536C15.0488 13.1583 15.0488 12.8417 14.8536 12.6464C14.6583 12.4512 14.3417 12.4512 14.1464 12.6464L12.5 14.2929L12.5 10.5C12.5 10.2239 12.2761 10 12 10C11.7239 10 11.5 10.2239 11.5 10.5L11.5 14.2929L9.85355 12.6464C9.65829 12.4512 9.34171 12.4512 9.14645 12.6464C8.95118 12.8417 8.95118 13.1583 9.14645 13.3536L11.6464 15.8536C11.8417 16.0488 12.1583 16.0488 12.3536 15.8536L14.8536 13.3536ZM16.5599 13.6858C16.2819 13.5877 15.9992 13.8074 15.9554 14.0989C15.92 14.3351 16.0521 14.5655 16.2768 14.6466C16.3242 14.6637 16.3708 14.681 16.4167 14.6987C16.9712 14.912 17.3857 15.1537 17.6528 15.3966C17.9198 15.6394 18 15.8439 18 15.9998C18 16.1556 17.9198 16.3602 17.6528 16.603C17.3857 16.8459 16.9712 17.0876 16.4167 17.3009C15.311 17.7261 13.7496 17.9998 12 17.9998C10.2504 17.9998 8.68901 17.7261 7.5833 17.3009C7.02877 17.0876 6.61433 16.8459 6.34719 16.603C6.08019 16.3602 6 16.1556 6 15.9998C6 15.8439 6.08019 15.6394 6.34719 15.3966C6.61433 15.1537 7.02877 14.912 7.5833 14.6987C7.62916 14.681 7.67581 14.6637 7.72323 14.6466C7.94789 14.5655 8.08004 14.3351 8.04457 14.0989C8.00078 13.8074 7.7181 13.5877 7.44012 13.6858C7.3668 13.7117 7.29485 13.7382 7.22432 13.7653C6.60257 14.0045 6.06511 14.3015 5.67442 14.6567C5.28358 15.0121 5 15.4653 5 15.9998C5 16.5343 5.28358 16.9874 5.67442 17.3428C6.06511 17.6981 6.60257 17.9951 7.22432 18.2342C8.47114 18.7138 10.1597 18.9998 12 18.9998C13.8403 18.9998 15.5289 18.7138 16.7757 18.2342C17.3974 17.9951 17.9349 17.6981 18.3256 17.3428C18.7164 16.9874 19 16.5343 19 15.9998C19 15.4653 18.7164 15.0121 18.3256 14.6567C17.9349 14.3015 17.3974 14.0045 16.7757 13.7653C16.7051 13.7382 16.6332 13.7117 16.5599 13.6858Z" fill="currentColor" />
</svg>
