<svg width="24" height="24" viewBox="0 0 24 24" fill="none" xmlns="http://www.w3.org/2000/svg">
<path fill-rule="evenodd" clip-rule="evenodd" d="M7.5 6C6.67157 6 6 6.67157 6 7.5L6 8.5C6 8.77614 6.22386 9 6.5 9C6.77614 9 7 8.77614 7 8.5L7 7.5C7 7.22386 7.22386 7 7.5 7L16.5 7C16.7761 7 17 7.22386 17 7.5L17 16.5C17 16.7761 16.7761 17 16.5 17L7.5 17C7.22386 17 7 16.7761 7 16.5L7 15.5C7 15.2239 6.77614 15 6.5 15C6.22386 15 6 15.2239 6 15.5L6 16.5C6 17.3284 6.67157 18 7.5 18L16.5 18C17.3284 18 18 17.3284 18 16.5L18 7.5C18 6.67157 17.3284 6 16.5 6L7.5 6ZM11.6464 9.14645C11.8417 8.95118 12.1583 8.95118 12.3536 9.14645L14.8536 11.6464C15.0488 11.8417 15.0488 12.1583 14.8536 12.3536L12.3536 14.8536C12.1583 15.0488 11.8417 15.0488 11.6464 14.8536C11.4512 14.6583 11.4512 14.3417 11.6464 14.1464L13.2929 12.5L9.5 12.5C9.22386 12.5 9 12.2761 9 12C9 11.7239 9.22386 11.5 9.5 11.5L13.2929 11.5L11.6464 9.85355C11.4512 9.65829 11.4512 9.34171 11.6464 9.14645Z" fill="currentColor" />
</svg>
