<svg width="24" height="24" viewBox="0 0 24 24" fill="none" xmlns="http://www.w3.org/2000/svg">
<path fill-rule="evenodd" clip-rule="evenodd" d="M12 4C8.13401 4 5 7.13401 5 11C5 11.6343 5.08423 12.2481 5.24182 12.8312C5.31387 13.0978 5.15617 13.3723 4.88959 13.4443C4.62301 13.5164 4.3485 13.3587 4.27646 13.0921C4.09608 12.4247 4 11.7232 4 11C4 6.58172 7.58172 3 12 3C16.0294 3 19.3622 5.97844 19.9185 9.85394C19.9577 10.1273 19.7679 10.3807 19.4946 10.4199C19.2212 10.4591 18.9678 10.2694 18.9286 9.99602C18.442 6.60583 15.5249 4 12 4ZM12 7C9.79086 7 8 8.79086 8 11C8 11.2761 7.77614 11.5 7.5 11.5C7.22386 11.5 7 11.2761 7 11C7 8.23858 9.23858 6 12 6C14.0119 6 15.7451 7.18821 16.5383 8.89899C16.6545 9.14951 16.5456 9.44676 16.295 9.56292C16.0445 9.67907 15.7473 9.57015 15.6311 9.31962C14.9956 7.94897 13.6081 7 12 7ZM12 9C10.8954 9 10 9.89543 10 11V13.9744L9.90171 13.8777C9.12645 13.1156 7.8876 13.1141 7.11043 13.8652C7.09796 13.8772 7.08561 13.8895 7.07339 13.9019C6.29904 14.6896 6.30986 15.9559 7.09756 16.7302C7.32317 16.952 7.5745 17.1985 7.83626 17.4551L7.83682 17.4557L7.83694 17.4558C8.53348 18.1387 9.30372 18.894 9.8595 19.4497C10.5602 20.1505 11.7249 20.7066 13.0338 20.913C14.369 21.1235 15.94 20.9851 17.4642 20.1862C18.7207 19.5276 19.3896 18.5975 19.7152 17.6406C20.0183 16.7501 20.0074 15.8741 20.0007 15.3312L20.0003 15.295L19.9993 15.2191C19.9986 15.1724 19.9981 15.1318 19.9979 15.0925C19.9993 15.0617 20 15.0309 20 15V14C20 12.8954 19.1046 12 18 12C17.5884 12 17.2058 12.1244 16.8877 12.3376C16.6144 11.5586 15.8724 11 15 11C14.6357 11 14.2942 11.0974 14 11.2676V11C14 9.89543 13.1046 9 12 9ZM19 15C19 15.0224 18.9993 15.0446 18.9978 15.0666L17 14.3521V14L17 13.9961C17.0022 13.4456 17.4491 13 18 13C18.5523 13 19 13.4477 19 14V15ZM17 14.4769V14.3521L16 13.9944V13C16 12.4477 15.5523 12 15 12C14.4477 12 14 12.4477 14 13V14.3755C14 14.6584 13.7654 14.885 13.4826 14.8752C13.2134 14.8658 13 14.6448 13 14.3755V11C13 10.4477 12.5523 10 12 10C11.4477 10 11 10.4477 11 11V15L11 15.0077C10.9422 15.5014 10.342 15.7129 9.98754 15.3644L9.20067 14.5909C8.80682 14.2037 8.17368 14.2091 7.78651 14.6029C7.39934 14.9968 7.40475 15.6299 7.7986 16.0171C8.02206 16.2368 8.27197 16.4818 8.53289 16.7377L8.53303 16.7378C9.23072 17.4219 10.0071 18.1831 10.5666 18.7426C11.6032 19.7792 14.3802 20.6736 17 19.3005C19.0357 18.2335 19.0137 16.4132 19.0004 15.307L18.9995 15.2395L18.9995 15.2392C18.9986 15.1793 18.9978 15.1215 18.9978 15.0666L17 14.4769Z" fill="currentColor" />
</svg>
