<svg width="24" height="24" viewBox="0 0 24 24" fill="none" xmlns="http://www.w3.org/2000/svg">
<path fill-rule="evenodd" clip-rule="evenodd" d="M8 8H10V10H8V8ZM13 10H11V8H13V10ZM17 10H18V9C18 8.44772 17.5523 8 17 8V10ZM16 10V8H14V10H16ZM6 9C6 8.44772 6.44772 8 7 8V10H6V9ZM12 13V11H14V13H12ZM15 13V11H18V13H15ZM8 11H6V13H8V11ZM9 11V13H11V11H9ZM6 14V15C6 15.5523 6.44772 16 7 16H8V14H6ZM16 16H17C17.5523 16 18 15.5523 18 15V14H16V16ZM5 9C5 7.89543 5.89543 7 7 7H17C18.1046 7 19 7.89543 19 9V15C19 16.1046 18.1046 17 17 17H7C5.89543 17 5 16.1046 5 15V9ZM9 14H15V16H9V14Z" fill="currentColor" />
</svg>
