<svg width="24" height="24" viewBox="0 0 24 24" fill="none" xmlns="http://www.w3.org/2000/svg">
<path fill-rule="evenodd" clip-rule="evenodd" d="M9 5.5C9 5.22386 9.22386 5 9.5 5C9.77614 5 10 5.22386 10 5.5V7H13.5C13.7761 7 14 7.22386 14 7.5C14 7.77614 13.7761 8 13.5 8H12.2183L12.164 8.16031C11.6605 9.64783 11.0783 10.6995 10.1344 11.8676L11.6607 13.7755C11.7722 13.9148 11.8009 14.103 11.7362 14.2693C11.5964 14.6282 11.1204 14.7009 10.8798 14.4002L9.47317 12.6419C8.78439 13.4119 7.93359 14.272 6.85357 15.3533C6.65843 15.5487 6.34185 15.5489 6.14647 15.3538C5.95108 15.1586 5.95089 14.842 6.14603 14.6467C7.2922 13.4991 8.15945 12.6193 8.83909 11.8493L7.20952 9.81235C6.94761 9.48497 7.1807 9 7.59996 9C7.75185 9 7.8955 9.06904 7.99039 9.18765L9.49365 11.0667C10.2666 10.0809 10.7418 9.19839 11.1616 8H5.5C5.22386 8 5 7.77614 5 7.5C5 7.22386 5.22386 7 5.5 7H9V5.5ZM14.0385 11.3077C14.1161 11.1214 14.2981 11 14.5 11H15C15.2019 11 15.3839 11.1214 15.4615 11.3077L17.1282 15.3077L17.9615 17.3077C18.0677 17.5626 17.9472 17.8553 17.6923 17.9615C17.4374 18.0677 17.1447 17.9472 17.0385 17.6923L16.3333 16H13.1667L12.4615 17.6923C12.3553 17.9472 12.0626 18.0677 11.8077 17.9615C11.5528 17.8553 11.4323 17.5626 11.5385 17.3077L12.3718 15.3077L14.0385 11.3077ZM15.9167 15L14.75 12.2L13.5833 15H15.9167Z" fill="currentColor" />
</svg>
