<svg width="24" height="24" viewBox="0 0 24 24" fill="none" xmlns="http://www.w3.org/2000/svg">
<path fill-rule="evenodd" clip-rule="evenodd" d="M11.25 7.5C11.25 7.91421 10.9142 8.25 10.5 8.25C10.0858 8.25 9.75 7.91421 9.75 7.5C9.75 7.08579 10.0858 6.75 10.5 6.75C10.9142 6.75 11.25 7.08579 11.25 7.5ZM7.5 8C7.77614 8 8 7.77614 8 7.5C8 7.22386 7.77614 7 7.5 7C7.22386 7 7 7.22386 7 7.5C7 7.77614 7.22386 8 7.5 8ZM7.5 11.25C7.91421 11.25 8.25 10.9142 8.25 10.5C8.25 10.0858 7.91421 9.75 7.5 9.75C7.08579 9.75 6.75 10.0858 6.75 10.5C6.75 10.9142 7.08579 11.25 7.5 11.25ZM8.25 13.5C8.25 13.9142 7.91421 14.25 7.5 14.25C7.08579 14.25 6.75 13.9142 6.75 13.5C6.75 13.0858 7.08579 12.75 7.5 12.75C7.91421 12.75 8.25 13.0858 8.25 13.5ZM7.5 17C7.77614 17 8 16.7761 8 16.5C8 16.2239 7.77614 16 7.5 16C7.22386 16 7 16.2239 7 16.5C7 16.7761 7.22386 17 7.5 17ZM10.5 11.5C11.0523 11.5 11.5 11.0523 11.5 10.5C11.5 9.94772 11.0523 9.5 10.5 9.5C9.94772 9.5 9.5 9.94772 9.5 10.5C9.5 11.0523 9.94772 11.5 10.5 11.5ZM11.5 13.5C11.5 14.0523 11.0523 14.5 10.5 14.5C9.94772 14.5 9.5 14.0523 9.5 13.5C9.5 12.9477 9.94772 12.5 10.5 12.5C11.0523 12.5 11.5 12.9477 11.5 13.5ZM10.5 17.25C10.9142 17.25 11.25 16.9142 11.25 16.5C11.25 16.0858 10.9142 15.75 10.5 15.75C10.0858 15.75 9.75 16.0858 9.75 16.5C9.75 16.9142 10.0858 17.25 10.5 17.25ZM14.25 7.5C14.25 7.91421 13.9142 8.25 13.5 8.25C13.0858 8.25 12.75 7.91421 12.75 7.5C12.75 7.08579 13.0858 6.75 13.5 6.75C13.9142 6.75 14.25 7.08579 14.25 7.5ZM13.5 11.5C14.0523 11.5 14.5 11.0523 14.5 10.5C14.5 9.94772 14.0523 9.5 13.5 9.5C12.9477 9.5 12.5 9.94772 12.5 10.5C12.5 11.0523 12.9477 11.5 13.5 11.5ZM14.5 13.5C14.5 14.0523 14.0523 14.5 13.5 14.5C12.9477 14.5 12.5 14.0523 12.5 13.5C12.5 12.9477 12.9477 12.5 13.5 12.5C14.0523 12.5 14.5 12.9477 14.5 13.5ZM13.5 17.25C13.9142 17.25 14.25 16.9142 14.25 16.5C14.25 16.0858 13.9142 15.75 13.5 15.75C13.0858 15.75 12.75 16.0858 12.75 16.5C12.75 16.9142 13.0858 17.25 13.5 17.25ZM17.25 10.5C17.25 10.9142 16.9142 11.25 16.5 11.25C16.0858 11.25 15.75 10.9142 15.75 10.5C15.75 10.0858 16.0858 9.75 16.5 9.75C16.9142 9.75 17.25 10.0858 17.25 10.5ZM16.5 8C16.7761 8 17 7.77614 17 7.5C17 7.22386 16.7761 7 16.5 7C16.2239 7 16 7.22386 16 7.5C16 7.77614 16.2239 8 16.5 8ZM17.25 13.5C17.25 13.9142 16.9142 14.25 16.5 14.25C16.0858 14.25 15.75 13.9142 15.75 13.5C15.75 13.0858 16.0858 12.75 16.5 12.75C16.9142 12.75 17.25 13.0858 17.25 13.5ZM16.5 17C16.7761 17 17 16.7761 17 16.5C17 16.2239 16.7761 16 16.5 16C16.2239 16 16 16.2239 16 16.5C16 16.7761 16.2239 17 16.5 17Z" fill="currentColor" />
</svg>
