<svg width="24" height="24" viewBox="0 0 24 24" fill="none" xmlns="http://www.w3.org/2000/svg">
<path fill-rule="evenodd" clip-rule="evenodd" d="M12.5 6C12.5 6.27614 12.2761 6.5 12 6.5C11.7239 6.5 11.5 6.27614 11.5 6C11.5 5.72386 11.7239 5.5 12 5.5C12.2761 5.5 12.5 5.72386 12.5 6ZM15.5 6C15.5 6.27614 15.2761 6.5 15 6.5C14.7239 6.5 14.5 6.27614 14.5 6C14.5 5.72386 14.7239 5.5 15 5.5C15.2761 5.5 15.5 5.72386 15.5 6ZM9 9.75C9.41421 9.75 9.75 9.41421 9.75 9C9.75 8.58579 9.41421 8.25 9 8.25C8.58579 8.25 8.25 8.58579 8.25 9C8.25 9.41421 8.58579 9.75 9 9.75ZM12.75 9C12.75 9.41421 12.4142 9.75 12 9.75C11.5858 9.75 11.25 9.41421 11.25 9C11.25 8.58579 11.5858 8.25 12 8.25C12.4142 8.25 12.75 8.58579 12.75 9ZM15 9.75C15.4142 9.75 15.75 9.41421 15.75 9C15.75 8.58579 15.4142 8.25 15 8.25C14.5858 8.25 14.25 8.58579 14.25 9C14.25 9.41421 14.5858 9.75 15 9.75ZM6.5 12C6.5 12.2761 6.27614 12.5 6 12.5C5.72386 12.5 5.5 12.2761 5.5 12C5.5 11.7239 5.72386 11.5 6 11.5C6.27614 11.5 6.5 11.7239 6.5 12ZM6 15.5C6.27614 15.5 6.5 15.2761 6.5 15C6.5 14.7239 6.27614 14.5 6 14.5C5.72386 14.5 5.5 14.7239 5.5 15C5.5 15.2761 5.72386 15.5 6 15.5ZM6.5 18C6.5 18.2761 6.27614 18.5 6 18.5C5.72386 18.5 5.5 18.2761 5.5 18C5.5 17.7239 5.72386 17.5 6 17.5C6.27614 17.5 6.5 17.7239 6.5 18ZM9 18.5C9.27614 18.5 9.5 18.2761 9.5 18C9.5 17.7239 9.27614 17.5 9 17.5C8.72386 17.5 8.5 17.7239 8.5 18C8.5 18.2761 8.72386 18.5 9 18.5ZM6.5 9C6.5 9.27614 6.27614 9.5 6 9.5C5.72386 9.5 5.5 9.27614 5.5 9C5.5 8.72386 5.72386 8.5 6 8.5C6.27614 8.5 6.5 8.72386 6.5 9ZM6 6.5C6.27614 6.5 6.5 6.27614 6.5 6C6.5 5.72386 6.27614 5.5 6 5.5C5.72386 5.5 5.5 5.72386 5.5 6C5.5 6.27614 5.72386 6.5 6 6.5ZM9.5 6C9.5 6.27614 9.27614 6.5 9 6.5C8.72386 6.5 8.5 6.27614 8.5 6C8.5 5.72386 8.72386 5.5 9 5.5C9.27614 5.5 9.5 5.72386 9.5 6ZM9 12.75C9.41421 12.75 9.75 12.4142 9.75 12C9.75 11.5858 9.41421 11.25 9 11.25C8.58579 11.25 8.25 11.5858 8.25 12C8.25 12.4142 8.58579 12.75 9 12.75ZM13 12C13 12.5523 12.5523 13 12 13C11.4477 13 11 12.5523 11 12C11 11.4477 11.4477 11 12 11C12.5523 11 13 11.4477 13 12ZM15 12.75C15.4142 12.75 15.75 12.4142 15.75 12C15.75 11.5858 15.4142 11.25 15 11.25C14.5858 11.25 14.25 11.5858 14.25 12C14.25 12.4142 14.5858 12.75 15 12.75ZM18.5 12C18.5 12.2761 18.2761 12.5 18 12.5C17.7239 12.5 17.5 12.2761 17.5 12C17.5 11.7239 17.7239 11.5 18 11.5C18.2761 11.5 18.5 11.7239 18.5 12ZM18 15.5C18.2761 15.5 18.5 15.2761 18.5 15C18.5 14.7239 18.2761 14.5 18 14.5C17.7239 14.5 17.5 14.7239 17.5 15C17.5 15.2761 17.7239 15.5 18 15.5ZM18.5 18C18.5 18.2761 18.2761 18.5 18 18.5C17.7239 18.5 17.5 18.2761 17.5 18C17.5 17.7239 17.7239 17.5 18 17.5C18.2761 17.5 18.5 17.7239 18.5 18ZM18 9.5C18.2761 9.5 18.5 9.27614 18.5 9C18.5 8.72386 18.2761 8.5 18 8.5C17.7239 8.5 17.5 8.72386 17.5 9C17.5 9.27614 17.7239 9.5 18 9.5ZM18.5 6C18.5 6.27614 18.2761 6.5 18 6.5C17.7239 6.5 17.5 6.27614 17.5 6C17.5 5.72386 17.7239 5.5 18 5.5C18.2761 5.5 18.5 5.72386 18.5 6ZM9 15.75C9.41421 15.75 9.75 15.4142 9.75 15C9.75 14.5858 9.41421 14.25 9 14.25C8.58579 14.25 8.25 14.5858 8.25 15C8.25 15.4142 8.58579 15.75 9 15.75ZM12.75 15C12.75 15.4142 12.4142 15.75 12 15.75C11.5858 15.75 11.25 15.4142 11.25 15C11.25 14.5858 11.5858 14.25 12 14.25C12.4142 14.25 12.75 14.5858 12.75 15ZM15 15.75C15.4142 15.75 15.75 15.4142 15.75 15C15.75 14.5858 15.4142 14.25 15 14.25C14.5858 14.25 14.25 14.5858 14.25 15C14.25 15.4142 14.5858 15.75 15 15.75ZM12.5 18C12.5 18.2761 12.2761 18.5 12 18.5C11.7239 18.5 11.5 18.2761 11.5 18C11.5 17.7239 11.7239 17.5 12 17.5C12.2761 17.5 12.5 17.7239 12.5 18ZM15 18.5C15.2761 18.5 15.5 18.2761 15.5 18C15.5 17.7239 15.2761 17.5 15 17.5C14.7239 17.5 14.5 17.7239 14.5 18C14.5 18.2761 14.7239 18.5 15 18.5Z" fill="currentColor" />
</svg>
