<svg width="24" height="24" viewBox="0 0 24 24" fill="none" xmlns="http://www.w3.org/2000/svg">
<path fill-rule="evenodd" clip-rule="evenodd" d="M17.25 10C17.6642 10 18 9.66421 18 9.25V8.75C18 8.33579 17.6642 8 17.25 8H8.75C8.33579 8 8 8.33579 8 8.75V9.25C8 9.66421 8.33579 10 8.75 10H17.25ZM13.25 15C13.6642 15 14 14.6642 14 14.25V13.75C14 13.3358 13.6642 13 13.25 13H8.75C8.33579 13 8 13.3358 8 13.75V14.25C8 14.6642 8.33579 15 8.75 15H13.25Z" fill="currentColor" />
<path d="M6 17.5C6 17.7761 5.77614 18 5.5 18C5.22386 18 5 17.7761 5 17.5V5.5C5 5.22386 5.22386 5 5.5 5C5.77614 5 6 5.22386 6 5.5V17.5Z" fill="currentColor" fill-opacity="0.3" />
</svg>
