<svg width="24" height="24" viewBox="0 0 24 24" fill="none" xmlns="http://www.w3.org/2000/svg">
<path fill-rule="evenodd" clip-rule="evenodd" d="M10 6.75C10 6.33579 9.66421 6 9.25 6H8.75C8.33579 6 8 6.33579 8 6.75V16.25C8 16.6642 8.33579 17 8.75 17H9.25C9.66421 17 10 16.6642 10 16.25V6.75ZM15 8.75C15 8.33579 14.6642 8 14.25 8H13.75C13.3358 8 13 8.33579 13 8.75V14.25C13 14.6642 13.3358 15 13.75 15H14.25C14.6642 15 15 14.6642 15 14.25V8.75Z" fill="currentColor" />
<path fill-rule="evenodd" clip-rule="evenodd" d="M17.5 11C17.7761 11 18 11.2239 18 11.5C18 11.7761 17.7761 12 17.5 12H15V11H17.5ZM13 11H10V12H13V11ZM5.5 11H8V12H5.5C5.22386 12 5 11.7761 5 11.5C5 11.2239 5.22386 11 5.5 11Z" fill="currentColor" fill-opacity="0.3" />
</svg>
