<svg width="24" height="24" viewBox="0 0 24 24" fill="none" xmlns="http://www.w3.org/2000/svg">
<path fill-rule="evenodd" clip-rule="evenodd" d="M6.75 10C6.33579 10 6 9.66421 6 9.25V8.75C6 8.33579 6.33579 8 6.75 8H15.25C15.6642 8 16 8.33579 16 8.75V9.25C16 9.66421 15.6642 10 15.25 10H6.75ZM10.75 15C10.3358 15 10 14.6642 10 14.25V13.75C10 13.3358 10.3358 13 10.75 13H15.25C15.6642 13 16 13.3358 16 13.75V14.25C16 14.6642 15.6642 15 15.25 15H10.75Z" fill="currentColor" />
<path d="M18 17.5C18 17.7761 18.2239 18 18.5 18C18.7761 18 19 17.7761 19 17.5V5.5C19 5.22386 18.7761 5 18.5 5C18.2239 5 18 5.22386 18 5.5V17.5Z" fill="currentColor" fill-opacity="0.3" />
</svg>
