<svg width="24" height="24" viewBox="0 0 24 24" fill="none" xmlns="http://www.w3.org/2000/svg">
<path fill-rule="evenodd" clip-rule="evenodd" d="M18 5.5C18 5.77614 17.7761 6 17.5 6H5.5C5.22386 6 5 5.77614 5 5.5C5 5.22386 5.22386 5 5.5 5H17.5C17.7761 5 18 5.22386 18 5.5ZM9.25 16C9.66421 16 10 15.6642 10 15.25V8.75C10 8.33579 9.66421 8 9.25 8H8.75C8.33579 8 8 8.33579 8 8.75V15.25C8 15.6642 8.33579 16 8.75 16H9.25ZM14.25 12C14.6642 12 15 11.6642 15 11.25V8.75C15 8.33579 14.6642 8 14.25 8H13.75C13.3358 8 13 8.33579 13 8.75V11.25C13 11.6642 13.3358 12 13.75 12H14.25Z" fill="currentColor" />
<path d="M5.5 8.5L5.5 16.75C5.5 17.1642 5.83579 17.5 6.25 17.5H16.75C17.1642 17.5 17.5 17.1642 17.5 16.75L17.5 8.5" stroke="black" stroke-opacity="0.3" stroke-linecap="round" />
</svg>
