<svg width="24" height="24" viewBox="0 0 24 24" fill="none" xmlns="http://www.w3.org/2000/svg">
<path fill-rule="evenodd" clip-rule="evenodd" d="M12.5 18C12.7761 18 13 17.7761 13 17.5V15H15.25C15.6642 15 16 14.6642 16 14.25V13.75C16 13.3358 15.6642 13 15.25 13H13V10H17.25C17.6642 10 18 9.66421 18 9.25V8.75C18 8.33579 17.6642 8 17.25 8H13V5.5C13 5.22386 12.7761 5 12.5 5C12.2239 5 12 5.22386 12 5.5V8H7.75C7.33579 8 7 8.33579 7 8.75V9.25C7 9.66421 7.33579 10 7.75 10H12V13H9.75C9.33579 13 9 13.3358 9 13.75V14.25C9 14.6642 9.33579 15 9.75 15H12V17.5C12 17.7761 12.2239 18 12.5 18Z" fill="currentColor" />
<path fill-rule="evenodd" clip-rule="evenodd" d="M9.5 18C9.77614 18 10 17.7761 10 17.5C10 17.2239 9.77614 17 9.5 17H6.25C6.11193 17 6 16.8881 6 16.75V6.25C6 6.11193 6.11193 6 6.25 6H9.5C9.77614 6 10 5.77614 10 5.5C10 5.22386 9.77614 5 9.5 5H6.25C5.55964 5 5 5.55964 5 6.25V16.75C5 17.4404 5.55964 18 6.25 18H9.5ZM15.5 5C15.2239 5 15 5.22386 15 5.5C15 5.77614 15.2239 6 15.5 6H18.75C18.8881 6 19 6.11193 19 6.25V16.75C19 16.8881 18.8881 17 18.75 17H15.5C15.2239 17 15 17.2239 15 17.5C15 17.7761 15.2239 18 15.5 18H18.75C19.4404 18 20 17.4404 20 16.75V6.25C20 5.55964 19.4404 5 18.75 5H15.5Z" fill="currentColor" fill-opacity="0.3" />
</svg>
