<svg width="24" height="24" viewBox="0 0 24 24" fill="none" xmlns="http://www.w3.org/2000/svg">
<path fill-rule="evenodd" clip-rule="evenodd" d="M6 6.5C6 6.22386 6.22386 6 6.5 6H7.5C7.77614 6 8 6.22386 8 6.5V7.5C8 7.77614 7.77614 8 7.5 8H6.5C6.22386 8 6 7.77614 6 7.5V6.5ZM16 6.5C16 6.22386 16.2239 6 16.5 6H17.5C17.7761 6 18 6.22386 18 6.5V7.5C18 7.77614 17.7761 8 17.5 8H16.5C16.2239 8 16 7.77614 16 7.5V6.5ZM6.5 11C6.22386 11 6 11.2239 6 11.5V12.5C6 12.7761 6.22386 13 6.5 13H7.5C7.77614 13 8 12.7761 8 12.5V11.5C8 11.2239 7.77614 11 7.5 11H6.5ZM16 11.5C16 11.2239 16.2239 11 16.5 11H17.5C17.7761 11 18 11.2239 18 11.5V12.5C18 12.7761 17.7761 13 17.5 13H16.5C16.2239 13 16 12.7761 16 12.5V11.5ZM6.5 16C6.22386 16 6 16.2239 6 16.5V17.5C6 17.7761 6.22386 18 6.5 18H7.5C7.77614 18 8 17.7761 8 17.5V16.5C8 16.2239 7.77614 16 7.5 16H6.5ZM16 16.5C16 16.2239 16.2239 16 16.5 16H17.5C17.7761 16 18 16.2239 18 16.5V17.5C18 17.7761 17.7761 18 17.5 18H16.5C16.2239 18 16 17.7761 16 17.5V16.5ZM11.5 6C11.2239 6 11 6.22386 11 6.5V7.5C11 7.77614 11.2239 8 11.5 8H12.5C12.7761 8 13 7.77614 13 7.5V6.5C13 6.22386 12.7761 6 12.5 6H11.5ZM11 11.5C11 11.2239 11.2239 11 11.5 11H12.5C12.7761 11 13 11.2239 13 11.5V12.5C13 12.7761 12.7761 13 12.5 13H11.5C11.2239 13 11 12.7761 11 12.5V11.5ZM11.5 16C11.2239 16 11 16.2239 11 16.5V17.5C11 17.7761 11.2239 18 11.5 18H12.5C12.7761 18 13 17.7761 13 17.5V16.5C13 16.2239 12.7761 16 12.5 16H11.5Z" fill="currentColor" />
</svg>
