<svg width="24" height="24" viewBox="0 0 24 24" fill="none" xmlns="http://www.w3.org/2000/svg">
<path fill-rule="evenodd" clip-rule="evenodd" d="M17.25 10C17.6642 10 18 9.66421 18 9.25V8.75C18 8.33579 17.6642 8 17.25 8H7.75C7.33579 8 7 8.33579 7 8.75V9.25C7 9.66421 7.33579 10 7.75 10H17.25ZM15.25 15C15.6642 15 16 14.6642 16 14.25V13.75C16 13.3358 15.6642 13 15.25 13H9.75C9.33579 13 9 13.3358 9 13.75V14.25C9 14.6642 9.33579 15 9.75 15H15.25Z" fill="currentColor" />
<path fill-rule="evenodd" clip-rule="evenodd" d="M13 17.5C13 17.7761 12.7761 18 12.5 18C12.2239 18 12 17.7761 12 17.5V15H13V17.5ZM13 13V10H12V13H13ZM13 5.5V8H12V5.5C12 5.22386 12.2239 5 12.5 5C12.7761 5 13 5.22386 13 5.5Z" fill="currentColor" fill-opacity="0.3" />
</svg>
