<svg width="24" height="24" viewBox="0 0 24 24" fill="none" xmlns="http://www.w3.org/2000/svg">
<path fill-rule="evenodd" clip-rule="evenodd" d="M18.5 18C18.2239 18 18 17.7761 18 17.5V5.5C18 5.22386 18.2239 5 18.5 5C18.7761 5 19 5.22386 19 5.5V17.5C19 17.7761 18.7761 18 18.5 18ZM6 9.25C6 9.66421 6.33579 10 6.75 10H15.25C15.6642 10 16 9.66421 16 9.25V8.75C16 8.33579 15.6642 8 15.25 8H6.75C6.33579 8 6 8.33579 6 8.75V9.25ZM10 14.25C10 14.6642 10.3358 15 10.75 15H15.25C15.6642 15 16 14.6642 16 14.25V13.75C16 13.3358 15.6642 13 15.25 13H10.75C10.3358 13 10 13.3358 10 13.75V14.25Z" fill="currentColor" />
<path d="M15.5 17.5H5.25C4.83579 17.5 4.5 17.1642 4.5 16.75L4.5 6.25C4.5 5.83579 4.83579 5.5 5.25 5.5L15.5 5.5" stroke="black" stroke-opacity="0.3" stroke-linecap="round" />
</svg>
