<svg width="24" height="24" viewBox="0 0 24 24" fill="none" xmlns="http://www.w3.org/2000/svg">
<path fill-rule="evenodd" clip-rule="evenodd" d="M10 17.25C10 17.6642 9.66421 18 9.25 18H8.75C8.33579 18 8 17.6642 8 17.25L8 8.75C8 8.33579 8.33579 8 8.75 8H9.25C9.66421 8 10 8.33579 10 8.75V17.25ZM15 13.25C15 13.6642 14.6642 14 14.25 14H13.75C13.3358 14 13 13.6642 13 13.25V8.75C13 8.33579 13.3358 8 13.75 8H14.25C14.6642 8 15 8.33579 15 8.75V13.25Z" fill="currentColor" />
<path d="M17.5 6C17.7761 6 18 5.77614 18 5.5C18 5.22386 17.7761 5 17.5 5L5.5 5C5.22386 5 5 5.22386 5 5.5C5 5.77614 5.22386 6 5.5 6L17.5 6Z" fill="currentColor" fill-opacity="0.3" />
</svg>
