<svg width="24" height="24" viewBox="0 0 24 24" fill="none" xmlns="http://www.w3.org/2000/svg">
<path fill-rule="evenodd" clip-rule="evenodd" d="M6.75 18C6.33579 18 6 17.6642 6 17.25V5.75C6 5.33579 6.33579 5 6.75 5H7.25C7.66421 5 8 5.33579 8 5.75L8 17.25C8 17.6642 7.66421 18 7.25 18H6.75ZM11.75 18C11.3358 18 11 17.6642 11 17.25L11 5.75C11 5.33579 11.3358 5 11.75 5H12.25C12.6642 5 13 5.33579 13 5.75L13 17.25C13 17.6642 12.6642 18 12.25 18H11.75ZM16 17.25C16 17.6642 16.3358 18 16.75 18H17.25C17.6642 18 18 17.6642 18 17.25V5.75C18 5.33579 17.6642 5 17.25 5H16.75C16.3358 5 16 5.33579 16 5.75L16 17.25Z" fill="currentColor" />
</svg>
