<svg width="24" height="24" viewBox="0 0 24 24" fill="none" xmlns="http://www.w3.org/2000/svg">
<path fill-rule="evenodd" clip-rule="evenodd" d="M10 6.75C10 6.33579 9.66421 6 9.25 6H8.75C8.33579 6 8 6.33579 8 6.75L8 15.25C8 15.6642 8.33579 16 8.75 16H9.25C9.66421 16 10 15.6642 10 15.25V6.75ZM15 10.75C15 10.3358 14.6642 10 14.25 10H13.75C13.3358 10 13 10.3358 13 10.75V15.25C13 15.6642 13.3358 16 13.75 16H14.25C14.6642 16 15 15.6642 15 15.25V10.75Z" fill="currentColor" />
<path d="M17.5 18C17.7761 18 18 18.2239 18 18.5C18 18.7761 17.7761 19 17.5 19H5.5C5.22386 19 5 18.7761 5 18.5C5 18.2239 5.22386 18 5.5 18H17.5Z" fill="currentColor" fill-opacity="0.3" />
</svg>
