<svg width="24" height="24" viewBox="0 0 24 24" fill="none" xmlns="http://www.w3.org/2000/svg">
<path fill-rule="evenodd" clip-rule="evenodd" d="M18 11.5C18 11.2239 17.7761 11 17.5 11H15V9.75C15 9.33579 14.6642 9 14.25 9H13.75C13.3358 9 13 9.33579 13 9.75V11H10V7.75C10 7.33579 9.66421 7 9.25 7H8.75C8.33579 7 8 7.33579 8 7.75V11H5.5C5.22386 11 5 11.2239 5 11.5C5 11.7761 5.22386 12 5.5 12H8V15.25C8 15.6642 8.33579 16 8.75 16H9.25C9.66421 16 10 15.6642 10 15.25V12H13V13.25C13 13.6642 13.3358 14 13.75 14H14.25C14.6642 14 15 13.6642 15 13.25V12H17.5C17.7761 12 18 11.7761 18 11.5Z" fill="currentColor" />
<path fill-rule="evenodd" clip-rule="evenodd" d="M6.25 5C5.55964 5 5 5.55964 5 6.25V8.5C5 8.77614 5.22386 9 5.5 9C5.77614 9 6 8.77614 6 8.5V6.25C6 6.11193 6.11193 6 6.25 6H16.75C16.8881 6 17 6.11193 17 6.25V8.5C17 8.77614 17.2239 9 17.5 9C17.7761 9 18 8.77614 18 8.5V6.25C18 5.55964 17.4404 5 16.75 5H6.25ZM16.75 18C17.4404 18 18 17.4404 18 16.75V14.5C18 14.2239 17.7761 14 17.5 14C17.2239 14 17 14.2239 17 14.5V16.75C17 16.8881 16.8881 17 16.75 17H6.25C6.11193 17 6 16.8881 6 16.75V14.5C6 14.2239 5.77614 14 5.5 14C5.22386 14 5 14.2239 5 14.5V16.75C5 17.4404 5.55964 18 6.25 18H16.75Z" fill="currentColor" fill-opacity="0.3" />
</svg>
