<svg width="24" height="24" viewBox="0 0 24 24" fill="none" xmlns="http://www.w3.org/2000/svg">
<path fill-rule="evenodd" clip-rule="evenodd" d="M5.5 18C5.77614 18 6 17.7761 6 17.5V5.5C6 5.22386 5.77614 5 5.5 5C5.22386 5 5 5.22386 5 5.5V17.5C5 17.7761 5.22386 18 5.5 18ZM18 9.25C18 9.66421 17.6642 10 17.25 10H8.75C8.33579 10 8 9.66421 8 9.25V8.75C8 8.33579 8.33579 8 8.75 8H17.25C17.6642 8 18 8.33579 18 8.75V9.25ZM14 14.25C14 14.6642 13.6642 15 13.25 15H8.75C8.33579 15 8 14.6642 8 14.25V13.75C8 13.3358 8.33579 13 8.75 13H13.25C13.6642 13 14 13.3358 14 13.75V14.25Z" fill="currentColor" />
<path d="M8.5 5.5H18.75C19.1642 5.5 19.5 5.83579 19.5 6.25V16.75C19.5 17.1642 19.1642 17.5 18.75 17.5H8.5" stroke="black" stroke-opacity="0.3" stroke-linecap="round" />
</svg>
