<svg width="24" height="24" viewBox="0 0 24 24" fill="none" xmlns="http://www.w3.org/2000/svg">
<path fill-rule="evenodd" clip-rule="evenodd" d="M9.25 7C9.66421 7 10 7.33579 10 7.75V14.25C10 14.6642 9.66421 15 9.25 15H8.75C8.33579 15 8 14.6642 8 14.25V7.75C8 7.33579 8.33579 7 8.75 7H9.25ZM14.25 11C14.6642 11 15 11.3358 15 11.75V14.25C15 14.6642 14.6642 15 14.25 15H13.75C13.3358 15 13 14.6642 13 14.25V11.75C13 11.3358 13.3358 11 13.75 11H14.25ZM18 17.5C18 17.2239 17.7761 17 17.5 17H5.5C5.22386 17 5 17.2239 5 17.5C5 17.7761 5.22386 18 5.5 18H17.5C17.7761 18 18 17.7761 18 17.5Z" fill="currentColor" />
<path d="M17.5 14.5V6.25C17.5 5.83579 17.1642 5.5 16.75 5.5H6.25C5.83579 5.5 5.5 5.83579 5.5 6.25L5.5 14.5" stroke="black" stroke-opacity="0.3" stroke-linecap="round" />
</svg>
