<svg width="24" height="24" viewBox="0 0 24 24" fill="none" xmlns="http://www.w3.org/2000/svg">
<path fill-rule="evenodd" clip-rule="evenodd" d="M6 8C5.72386 8 5.5 8.22386 5.5 8.5C5.5 8.77614 5.72386 9 6 9H18C18.2761 9 18.5 8.77614 18.5 8.5C18.5 8.22386 18.2761 8 18 8H6ZM6 16C5.72386 16 5.5 16.2239 5.5 16.5C5.5 16.7761 5.72386 17 6 17H12C12.2761 17 12.5 16.7761 12.5 16.5C12.5 16.2239 12.2761 16 12 16H6ZM16 16.5C16 16.2239 16.2239 16 16.5 16H18C18.2761 16 18.5 16.2239 18.5 16.5C18.5 16.7761 18.2761 17 18 17H16.5C16.2239 17 16 16.7761 16 16.5ZM8.13306 14.4222C8.34571 14.4222 8.53445 14.286 8.60143 14.0842L8.89348 13.2042H10.7779L11.0693 14.0839C11.1362 14.2859 11.325 14.4222 11.5378 14.4222C11.8776 14.4222 12.1157 14.0868 12.0037 13.766L10.6596 9.91584C10.5374 9.5658 10.2072 9.33133 9.8364 9.33133C9.46578 9.33133 9.13566 9.56563 9.01335 9.91548L7.66721 13.7659C7.55505 14.0867 7.79319 14.4222 8.13306 14.4222ZM10.5193 12.4237L9.86268 10.4415C9.85895 10.4302 9.84841 10.4226 9.83653 10.4226C9.82466 10.4226 9.81413 10.4302 9.81039 10.4415L9.15253 12.4237H10.5193ZM13.6066 15.7994C13.8436 15.8889 14.1278 15.9336 14.4593 15.9336C14.8106 15.9336 15.1238 15.8797 15.3989 15.772C15.674 15.6643 15.8894 15.5027 16.0452 15.2873C16.2026 15.0719 16.2814 14.8009 16.2814 14.4744V11.0801C16.2814 10.8172 16.0682 10.6041 15.8053 10.6041H15.6475C15.4718 10.6041 15.3293 10.7465 15.3293 10.9222V11.2117C15.3293 11.2275 15.3164 11.2404 15.3005 11.2404C15.2893 11.2404 15.2791 11.2339 15.2742 11.2237C15.2297 11.131 15.166 11.0347 15.0832 10.9347C14.9954 10.8286 14.8794 10.7391 14.7352 10.6662C14.591 10.5916 14.4087 10.5543 14.1883 10.5543C13.9 10.5543 13.6373 10.6281 13.4003 10.7756C13.1633 10.9231 12.9744 11.1418 12.8336 11.4318C12.6944 11.7218 12.6248 12.079 12.6248 12.5032C12.6248 12.9208 12.6944 13.268 12.8336 13.5448C12.9728 13.8198 13.1609 14.0262 13.3978 14.1637C13.6348 14.2996 13.8983 14.3676 14.1883 14.3676C14.4004 14.3676 14.5786 14.3361 14.7228 14.2731C14.8686 14.2085 14.9863 14.1281 15.0758 14.032C15.1621 13.941 15.2283 13.8492 15.2745 13.7567C15.2792 13.7472 15.2888 13.7411 15.2994 13.7411C15.3145 13.7411 15.3268 13.7534 15.3268 13.7685V14.4546C15.3268 14.728 15.2464 14.9235 15.0857 15.0412C14.9266 15.1605 14.7244 15.2202 14.4792 15.2202C14.3085 15.2202 14.1659 15.197 14.0516 15.1506C13.9389 15.1058 13.8486 15.0478 13.7807 14.9766C13.6715 14.8647 13.5198 14.7792 13.3663 14.8092L13.2524 14.8314C12.9814 14.8844 12.8093 15.1658 12.986 15.3781C13.0024 15.3979 13.0195 15.4173 13.0374 15.4364C13.1799 15.5889 13.3697 15.7099 13.6066 15.7994ZM14.939 13.4926C14.8114 13.582 14.6565 13.6268 14.4742 13.6268C14.2853 13.6268 14.1262 13.5804 13.9969 13.4876C13.8693 13.3931 13.7724 13.2622 13.7061 13.0948C13.6398 12.9258 13.6066 12.7269 13.6066 12.4982C13.6066 12.2729 13.639 12.0732 13.7036 11.8992C13.7699 11.7235 13.8668 11.5859 13.9944 11.4865C14.1237 11.3854 14.2836 11.3349 14.4742 11.3349C14.6581 11.3349 14.8139 11.3829 14.9415 11.4791C15.0691 11.5752 15.1661 11.7111 15.2324 11.8867C15.2986 12.0607 15.3318 12.2646 15.3318 12.4982C15.3318 12.7336 15.2978 12.9357 15.2299 13.1048C15.1636 13.2721 15.0666 13.4014 14.939 13.4926Z" fill="currentColor" />
</svg>
