<svg width="24" height="24" viewBox="0 0 24 24" fill="none" xmlns="http://www.w3.org/2000/svg">
<path fill-rule="evenodd" clip-rule="evenodd" d="M18.8535 10.8535C20.4295 9.27748 20.4295 6.72232 18.8535 5.14634C17.2776 3.57037 14.7224 3.57036 13.1464 5.14633L10.6464 7.64632C10.4512 7.84158 10.4512 8.15816 10.6464 8.35343C10.8417 8.54869 11.1583 8.54869 11.3535 8.35343L13.8535 5.85344C15.039 4.66799 16.961 4.668 18.1464 5.85344C19.3319 7.0389 19.3319 8.9609 18.1464 10.1464L15.6464 12.6463C15.4512 12.8416 15.4512 13.1582 15.6464 13.3535C15.8417 13.5487 16.1583 13.5487 16.3536 13.3535L18.8535 10.8535ZM5.14646 13.1464C3.57049 14.7224 3.57048 17.2776 5.14646 18.8535C6.72243 20.4295 9.27759 20.4295 10.8536 18.8535L13.3536 16.3536C13.5488 16.1583 13.5488 15.8417 13.3536 15.6464C13.1583 15.4512 12.8417 15.4512 12.6465 15.6464L10.1465 18.1464C8.96101 19.3319 7.03902 19.3319 5.85357 18.1464C4.66811 16.961 4.66812 15.039 5.85357 13.8535L8.35356 11.3535C8.54882 11.1583 8.54882 10.8417 8.35356 10.6464C8.1583 10.4512 7.84172 10.4512 7.64645 10.6464L5.14646 13.1464ZM14.8536 9.85357C15.0488 9.65831 15.0488 9.34172 14.8536 9.14646C14.6583 8.9512 14.3417 8.9512 14.1465 9.14646L9.14648 14.1465C8.95121 14.3417 8.95122 14.6583 9.14648 14.8536C9.34174 15.0488 9.65832 15.0488 9.85358 14.8536L14.8536 9.85357Z" fill="currentColor" />
</svg>
