<svg width="24" height="24" viewBox="0 0 24 24" fill="none" xmlns="http://www.w3.org/2000/svg">
<path fill-rule="evenodd" clip-rule="evenodd" d="M16 7H8C7.44772 7 7 7.44772 7 8V16C7 16.5523 7.44772 17 8 17H9.5C9.77614 17 10 17.2239 10 17.5C10 17.7761 9.77614 18 9.5 18H8C6.89543 18 6 17.1046 6 16V8C6 6.89543 6.89543 6 8 6H16C17.1046 6 18 6.89543 18 8V9.5C18 9.77614 17.7761 10 17.5 10C17.2239 10 17 9.77614 17 9.5V8C17 7.44772 16.5523 7 16 7ZM15.0858 12.5858C15.8669 11.8047 17.1332 11.8047 17.9142 12.5858C18.6953 13.3668 18.6953 14.6332 17.9142 15.4142C17.719 15.6095 17.719 15.9261 17.9142 16.1213C18.1095 16.3166 18.4261 16.3166 18.6214 16.1213C19.7929 14.9497 19.7929 13.0503 18.6214 11.8787C17.4498 10.7071 15.5503 10.7071 14.3787 11.8787C14.1835 12.0739 14.1835 12.3905 14.3787 12.5858C14.574 12.781 14.8906 12.781 15.0858 12.5858ZM12.5858 15.0858C12.781 14.8906 12.781 14.574 12.5858 14.3787C12.3905 14.1835 12.0739 14.1835 11.8787 14.3787C10.7071 15.5503 10.7071 17.4498 11.8787 18.6214C13.0503 19.7929 14.9497 19.7929 16.1213 18.6214C16.3166 18.4261 16.3166 18.1095 16.1213 17.9142C15.9261 17.719 15.6095 17.719 15.4142 17.9142C14.6332 18.6953 13.3668 18.6953 12.5858 17.9142C11.8047 17.1332 11.8047 15.8669 12.5858 15.0858ZM16.8536 13.6464C17.0488 13.8417 17.0488 14.1583 16.8536 14.3536L14.3536 16.8536C14.1583 17.0488 13.8417 17.0488 13.6464 16.8536C13.4512 16.6583 13.4512 16.3417 13.6464 16.1464L16.1464 13.6464C16.3417 13.4512 16.6583 13.4512 16.8536 13.6464Z" fill="currentColor" />
</svg>
