<svg width="24" height="24" viewBox="0 0 24 24" fill="none" xmlns="http://www.w3.org/2000/svg">
<path fill-rule="evenodd" clip-rule="evenodd" d="M15.1478 12.855C14.9518 12.6605 14.9506 12.3439 15.145 12.1479L16.3168 10.9668C17.2199 10.0565 17.217 8.58727 16.3102 7.68051C15.3984 6.76867 13.9191 6.7716 13.0109 7.68705L11.855 8.85217C11.6605 9.0482 11.3439 9.04946 11.1479 8.85497C10.9518 8.66048 10.9506 8.3439 11.145 8.14787L12.301 6.98275C13.5993 5.67413 15.7139 5.66994 17.0174 6.97341C18.3135 8.26959 18.3177 10.3698 17.0267 11.6711L15.855 12.8522C15.6605 13.0482 15.3439 13.0495 15.1478 12.855ZM8.85312 11.1461C9.04861 11.3411 9.04896 11.6577 8.85392 11.8532L7.67417 13.0356C6.76663 13.9452 6.76747 15.418 7.67604 16.3266C8.58608 17.2367 10.0618 17.2358 10.9708 16.3248L12.146 15.1469C12.3411 14.9514 12.6576 14.951 12.8531 15.1461C13.0486 15.3411 13.049 15.6577 12.8539 15.8532L11.6787 17.0311C10.3793 18.3334 8.26981 18.3346 6.96894 17.0337C5.67015 15.7349 5.66895 13.6296 6.96626 12.3293L8.14601 11.1469C8.34105 10.9514 8.65764 10.951 8.85312 11.1461ZM14.3535 10.3536C14.5488 10.1583 14.5488 9.84172 14.3535 9.64646C14.1583 9.4512 13.8417 9.4512 13.6464 9.64646L9.64642 13.6465C9.45116 13.8417 9.45116 14.1583 9.64642 14.3536C9.84168 14.5488 10.1583 14.5488 10.3535 14.3536L14.3535 10.3536Z" fill="currentColor" />
</svg>
