<svg width="24" height="24" viewBox="0 0 24 24" fill="none" xmlns="http://www.w3.org/2000/svg">
<path fill-rule="evenodd" clip-rule="evenodd" d="M10 8C10 6.89543 10.8954 6 12 6C13.1046 6 14 6.89543 14 8V9.5C14 9.77614 14.2239 10 14.5 10C14.7761 10 15 9.77614 15 9.5V8C15 6.34314 13.6569 5 12 5C10.3431 5 9 6.34314 9 8V9.5C9 9.77614 9.22386 10 9.5 10C9.77614 10 10 9.77614 10 9.5V8ZM10 16C10 17.1046 10.8954 18 12 18C13.1046 18 14 17.1046 14 16V14.5C14 14.2239 14.2239 14 14.5 14C14.7761 14 15 14.2239 15 14.5V16C15 17.6569 13.6569 19 12 19C10.3431 19 9 17.6569 9 16V14.5C9 14.2239 9.22386 14 9.5 14C9.77614 14 10 14.2239 10 14.5V16ZM12.5 10C12.5 9.72386 12.2761 9.5 12 9.5C11.7239 9.5 11.5 9.72386 11.5 10V14C11.5 14.2761 11.7239 14.5 12 14.5C12.2761 14.5 12.5 14.2761 12.5 14V10Z" fill="currentColor" />
</svg>
