<svg width="24" height="24" viewBox="0 0 24 24" fill="none" xmlns="http://www.w3.org/2000/svg">
<path fill-rule="evenodd" clip-rule="evenodd" d="M6 7C6 6.44772 6.44772 6 7 6C7.55228 6 8 6.44772 8 7C8 7.55228 7.55228 8 7 8C6.44772 8 6 7.55228 6 7ZM10.5 6.5C10.2239 6.5 10 6.72386 10 7C10 7.27614 10.2239 7.5 10.5 7.5H17.5C17.7761 7.5 18 7.27614 18 7C18 6.72386 17.7761 6.5 17.5 6.5H10.5ZM10.5 16.5C10.2239 16.5 10 16.7239 10 17C10 17.2761 10.2239 17.5 10.5 17.5H17.5C17.7761 17.5 18 17.2761 18 17C18 16.7239 17.7761 16.5 17.5 16.5H10.5ZM10.5 11.5C10.2239 11.5 10 11.7239 10 12C10 12.2761 10.2239 12.5 10.5 12.5H17.5C17.7761 12.5 18 12.2761 18 12C18 11.7239 17.7761 11.5 17.5 11.5H10.5ZM6 12C6 11.4477 6.44772 11 7 11C7.55228 11 8 11.4477 8 12C8 12.5523 7.55228 13 7 13C6.44772 13 6 12.5523 6 12ZM7 16C6.44772 16 6 16.4477 6 17C6 17.5523 6.44772 18 7 18C7.55228 18 8 17.5523 8 17C8 16.4477 7.55228 16 7 16Z" fill="currentColor" />
</svg>
