<svg width="24" height="24" viewBox="0 0 24 24" fill="none" xmlns="http://www.w3.org/2000/svg">
<path fill-rule="evenodd" clip-rule="evenodd" d="M15.3334 7.01114C14.4857 6.44471 13.51 6.10518 12.4994 6.02077C12.2242 5.99779 12 5.7761 12 5.49995C12 5.22381 12.2241 4.9981 12.4995 5.0178C13.7081 5.10427 14.8767 5.50332 15.8889 6.17967C17.0401 6.94884 17.9373 8.04209 18.4671 9.32117C18.9969 10.6003 19.1355 12.0077 18.8655 13.3656C18.5954 14.7235 17.9287 15.9707 16.9497 16.9497C15.9707 17.9287 14.7235 18.5954 13.3656 18.8655C12.0077 19.1355 10.6003 18.9969 9.32117 18.4671C8.04209 17.9373 6.94884 17.0401 6.17967 15.8889C5.50332 14.8767 5.10427 13.7081 5.0178 12.4995C4.9981 12.2241 5.22381 12 5.49995 12C5.7761 12 5.99779 12.2242 6.02077 12.4994C6.10518 13.51 6.44471 14.4857 7.01114 15.3334C7.67042 16.3201 8.6075 17.0891 9.70385 17.5432C10.8002 17.9974 12.0066 18.1162 13.1705 17.8847C14.3344 17.6532 15.4035 17.0817 16.2426 16.2426C17.0817 15.4035 17.6532 14.3344 17.8847 13.1705C18.1162 12.0066 17.9974 10.8002 17.5432 9.70385C17.0891 8.6075 16.3201 7.67043 15.3334 7.01114Z" fill="currentColor" />
</svg>
