<svg width="24" height="24" viewBox="0 0 24 24" fill="none" xmlns="http://www.w3.org/2000/svg">
<path fill-rule="evenodd" clip-rule="evenodd" d="M9 8C9 6.34314 10.3431 5 12 5C13.6569 5 15 6.34314 15 8V10H9V8ZM8 10V8C8 5.79086 9.79086 4 12 4C14.2091 4 16 5.79086 16 8V10H16.125C17.1605 10 18 10.8395 18 11.875V17.125C18 18.1605 17.1605 19 16.125 19H7.875C6.83946 19 6 18.1605 6 17.125V11.875C6 10.8395 6.83946 10 7.875 10H8ZM7 11.875C7 11.3918 7.39175 11 7.875 11H16.125C16.6082 11 17 11.3918 17 11.875V17.125C17 17.6082 16.6082 18 16.125 18H7.875C7.39175 18 7 17.6082 7 17.125V11.875Z" fill="currentColor" />
</svg>
