<svg width="24" height="24" viewBox="0 0 24 24" fill="none" xmlns="http://www.w3.org/2000/svg">
<path fill-rule="evenodd" clip-rule="evenodd" d="M8.5 12C8.22386 12 8 12.2239 8 12.5V16.5C8 16.7761 8.22386 17 8.5 17H15.5C15.7761 17 16 16.7761 16 16.5V12.5C16 12.2239 15.7761 12 15.5 12H8.5ZM10 11V9C10 7.89543 10.8954 7 12 7C13.1046 7 14 7.89543 14 9V11H10ZM12 6C13.6569 6 15 7.34315 15 9V11H15.5C16.3284 11 17 11.6716 17 12.5V16.5C17 17.3284 16.3284 18 15.5 18H8.5C7.67157 18 7 17.3284 7 16.5V12.5C7 11.6716 7.67157 11 8.5 11H9V9C9 7.34315 10.3431 6 12 6Z" fill="currentColor" />
</svg>
