<svg width="24" height="24" viewBox="0 0 24 24" fill="none" xmlns="http://www.w3.org/2000/svg">
<path fill-rule="evenodd" clip-rule="evenodd" d="M9 7C9 5.34314 10.3431 4 12 4C13.6569 4 15 5.34314 15 7V7.5C15 7.77614 15.2239 8 15.5 8C15.7761 8 16 7.77614 16 7.5V7C16 4.79086 14.2091 3 12 3C9.79086 3 8 4.79086 8 7V10H7.875C6.83946 10 6 10.8395 6 11.875V17.125C6 18.1605 6.83946 19 7.875 19H16.125C17.1605 19 18 18.1605 18 17.125V11.875C18 10.8395 17.1605 10 16.125 10H9V7ZM7 11.875C7 11.3918 7.39175 11 7.875 11H16.125C16.6082 11 17 11.3918 17 11.875V17.125C17 17.6082 16.6082 18 16.125 18H7.875C7.39175 18 7 17.6082 7 17.125V11.875Z" fill="currentColor" />
</svg>
