<svg width="24" height="24" viewBox="0 0 24 24" fill="none" xmlns="http://www.w3.org/2000/svg">
<path fill-rule="evenodd" clip-rule="evenodd" d="M17.8536 6.85355C18.0488 6.65829 18.0488 6.34171 17.8536 6.14645C17.6583 5.95118 17.3417 5.95118 17.1464 6.14645L6.14645 17.1464C5.95118 17.3417 5.95118 17.6583 6.14645 17.8536C6.34171 18.0488 6.65829 18.0488 6.85355 17.8536L17.8536 6.85355ZM9.14645 6.14645C9.34171 5.95118 9.65829 5.95118 9.85355 6.14645L11.8536 8.14645C12.0488 8.34171 12.0488 8.65829 11.8536 8.85355L9.85355 10.8536C9.65829 11.0488 9.34171 11.0488 9.14645 10.8536C8.95118 10.6583 8.95118 10.3417 9.14645 10.1464L10.2929 9H9C7.34315 9 6 10.3431 6 12C6 12.8176 6.3264 13.5579 6.85712 14.0995C7.05039 14.2968 7.04718 14.6133 6.84995 14.8066C6.65272 14.9999 6.33615 14.9967 6.14288 14.7994C5.43642 14.0785 5 13.0897 5 12C5 9.79086 6.79086 8 9 8H10.2929L9.14645 6.85355C8.95118 6.65829 8.95118 6.34171 9.14645 6.14645ZM17.1501 9.19339C17.3473 9.00012 17.6638 9.00333 17.8571 9.20056C18.5636 9.9215 19 10.9103 19 12C19 14.2091 17.2091 16 15 16H13.7071L14.8536 17.1464C15.0488 17.3417 15.0488 17.6583 14.8536 17.8536C14.6583 18.0488 14.3417 18.0488 14.1464 17.8536L12.1464 15.8536C11.9512 15.6583 11.9512 15.3417 12.1464 15.1464L14.1464 13.1464C14.3417 12.9512 14.6583 12.9512 14.8536 13.1464C15.0488 13.3417 15.0488 13.6583 14.8536 13.8536L13.7071 15H15C16.6569 15 18 13.6569 18 12C18 11.1824 17.6736 10.4421 17.1429 9.90046C16.9496 9.70323 16.9528 9.38666 17.1501 9.19339Z" fill="currentColor" />
</svg>
