<svg width="24" height="24" viewBox="0 0 24 24" fill="none" xmlns="http://www.w3.org/2000/svg">
<path fill-rule="evenodd" clip-rule="evenodd" d="M9.85355 6.14645C9.65829 5.95118 9.34171 5.95118 9.14645 6.14645C8.95118 6.34171 8.95118 6.65829 9.14645 6.85355L10.2929 8H9C6.79086 8 5 9.79086 5 12C5 14.2091 6.79086 16 9 16H9.5C9.77614 16 10 15.7761 10 15.5C10 15.2239 9.77614 15 9.5 15H9C7.34315 15 6 13.6569 6 12C6 10.3431 7.34315 9 9 9H10.2929L9.14645 10.1464C8.95118 10.3417 8.95118 10.6583 9.14645 10.8536C9.34171 11.0488 9.65829 11.0488 9.85355 10.8536L11.8536 8.85355C12.0488 8.65829 12.0488 8.34171 11.8536 8.14645L9.85355 6.14645ZM14.5 8C14.2239 8 14 8.22386 14 8.5C14 8.77614 14.2239 9 14.5 9H15C16.6569 9 18 10.3431 18 12C18 13.6569 16.6569 15 15 15H13.7071L14.8536 13.8536C15.0488 13.6583 15.0488 13.3417 14.8536 13.1464C14.6583 12.9512 14.3417 12.9512 14.1464 13.1464L12.1464 15.1464C11.9512 15.3417 11.9512 15.6583 12.1464 15.8536L14.1464 17.8536C14.3417 18.0488 14.6583 18.0488 14.8536 17.8536C15.0488 17.6583 15.0488 17.3417 14.8536 17.1464L13.7071 16H15C17.2091 16 19 14.2091 19 12C19 9.79086 17.2091 8 15 8H14.5Z" fill="currentColor" />
</svg>
