<svg width="24" height="24" viewBox="0 0 24 24" fill="none" xmlns="http://www.w3.org/2000/svg">
<path d="M8.37896 16.2153C8.00912 16.2153 7.67348 16.1456 7.37203 16.0063C7.07312 15.867 6.83501 15.6656 6.65769 15.4021C6.4829 15.1362 6.39551 14.8119 6.39551 14.4294C6.39551 14.0976 6.4601 13.8265 6.58929 13.6163C6.72102 13.4035 6.8958 13.2363 7.11365 13.1147C7.3315 12.9931 7.57342 12.9019 7.8394 12.8411C8.10538 12.7803 8.37516 12.7335 8.64874 12.7005C9.00085 12.6549 9.28583 12.6195 9.50368 12.5941C9.72406 12.5688 9.88491 12.527 9.98624 12.4687C10.0876 12.4105 10.1382 12.3104 10.1382 12.1686V12.1382C10.1382 11.7861 10.0407 11.5125 9.84565 11.3174C9.6506 11.1224 9.35802 11.0249 8.96792 11.0249C8.56261 11.0249 8.2447 11.1135 8.01419 11.2908C7.92269 11.3612 7.84198 11.4342 7.77203 11.5098C7.60095 11.6946 7.34786 11.8208 7.10569 11.7516C6.81869 11.6696 6.65853 11.3518 6.83002 11.1075C6.92452 10.9729 7.03173 10.8554 7.15165 10.7551C7.40243 10.5448 7.68234 10.3954 7.99139 10.3067C8.30297 10.2155 8.62087 10.1699 8.94512 10.1699C9.15537 10.1699 9.38715 10.1953 9.64047 10.2459C9.89378 10.294 10.1344 10.389 10.3624 10.5309C10.5929 10.6702 10.7829 10.8767 10.9324 11.1502C11.0818 11.4213 11.1566 11.7785 11.1566 12.2218V15.5807C11.1566 15.8577 10.932 16.0823 10.655 16.0823H10.5505C10.3312 16.0823 10.1534 15.9045 10.1534 15.6852V15.3161C10.1534 15.3007 10.1409 15.2881 10.1254 15.2881C10.1147 15.2881 10.1049 15.2943 10.1001 15.3039C10.0338 15.4357 9.9313 15.5711 9.79245 15.7099C9.64806 15.8518 9.45935 15.9721 9.2263 16.0709C8.99325 16.1671 8.7108 16.2153 8.37896 16.2153ZM8.56895 15.3565C8.90585 15.3565 9.19083 15.2907 9.42388 15.1589C9.65693 15.0272 9.83425 14.8562 9.95584 14.646C10.08 14.4357 10.142 14.2116 10.142 13.9734V13.4598C10.142 13.3618 9.99293 13.2772 9.89885 13.3047C9.77725 13.3402 9.63793 13.3705 9.48088 13.3959C9.32636 13.4212 9.17437 13.444 9.02491 13.4643C8.87799 13.482 8.7564 13.4972 8.66014 13.5099C8.43469 13.5403 8.2257 13.5884 8.03319 13.6543C7.8432 13.7201 7.68994 13.8176 7.57342 13.9468C7.45943 14.0735 7.40243 14.2445 7.40243 14.4598C7.40243 14.7562 7.51262 14.9804 7.73301 15.1324C7.95339 15.2818 8.23204 15.3565 8.56895 15.3565Z" fill="currentColor" />
<path d="M15.0241 18.3925C14.5757 18.3925 14.1907 18.3342 13.8689 18.2177C13.5472 18.1037 13.2813 17.9517 13.071 17.7618C12.9993 17.6961 12.9333 17.6287 12.873 17.5595C12.6901 17.3493 12.7882 17.0412 13.0337 16.9096C13.263 16.7867 13.5483 16.8552 13.7225 17.0485C13.7244 17.0507 13.7264 17.0528 13.7284 17.055C13.8499 17.1867 14.0146 17.3007 14.2223 17.397C14.43 17.4932 14.6998 17.5414 15.0317 17.5414C15.4826 17.5414 15.8549 17.4312 16.1488 17.2108C16.4426 16.9929 16.5895 16.6484 16.5895 16.1773V15.0588C16.5895 15.0322 16.5681 15.0108 16.5415 15.0108C16.5242 15.0108 16.5083 15.0201 16.4996 15.035C16.4345 15.146 16.3442 15.2734 16.2286 15.4173C16.1044 15.5693 15.9297 15.7036 15.7042 15.8201C15.4813 15.9341 15.1862 15.9911 14.8189 15.9911C14.3528 15.9911 13.9335 15.8822 13.5612 15.6643C13.1913 15.4439 12.8987 15.121 12.6834 14.6954C12.4681 14.2698 12.3605 13.7505 12.3605 13.1375C12.3605 12.5295 12.4656 12.0039 12.6758 11.5606C12.8861 11.1148 13.1774 10.7715 13.5498 10.5309C13.9221 10.2902 14.349 10.1699 14.8303 10.1699C15.2026 10.1699 15.5003 10.232 15.7232 10.3561C15.9461 10.4777 16.1184 10.6183 16.24 10.7779C16.3547 10.9254 16.4457 11.0513 16.5128 11.1556C16.5228 11.1711 16.54 11.1806 16.5585 11.1806C16.5882 11.1806 16.6123 11.1565 16.6123 11.1268V10.7133C16.6123 10.4552 16.8216 10.2459 17.0797 10.2459H17.1082C17.3821 10.2459 17.6041 10.4679 17.6041 10.7418V16.2305C17.6041 16.732 17.4888 17.1411 17.2583 17.4578C17.0303 17.777 16.7213 18.0125 16.3312 18.1645C15.9411 18.3165 15.5054 18.3925 15.0241 18.3925ZM15.0051 15.1172C15.3496 15.1172 15.6396 15.0386 15.8752 14.8816C16.1133 14.722 16.2944 14.4927 16.4186 14.1938C16.5427 13.8949 16.6047 13.5377 16.6047 13.1223C16.6047 12.7145 16.5439 12.356 16.4223 12.047C16.3008 11.7379 16.1209 11.496 15.8828 11.3212C15.6447 11.1439 15.3521 11.0553 15.0051 11.0553C14.6453 11.0553 14.3452 11.1477 14.1045 11.3326C13.8639 11.5176 13.6828 11.7658 13.5612 12.0774C13.4421 12.389 13.3826 12.7373 13.3826 13.1223C13.3826 13.5175 13.4434 13.8645 13.565 14.1634C13.6891 14.4623 13.8702 14.6967 14.1083 14.8664C14.349 15.0336 14.6479 15.1172 15.0051 15.1172Z" fill="currentColor" />
</svg>
