<svg width="24" height="24" viewBox="0 0 24 24" fill="none" xmlns="http://www.w3.org/2000/svg">
<path fill-rule="evenodd" clip-rule="evenodd" d="M7.0149 5.44026L6.69997 6.69997L5.44026 7.0149C4.93528 7.14114 4.93528 7.8588 5.44026 7.98504L6.69997 8.29997L7.0149 9.55969C7.14114 10.0647 7.8588 10.0647 7.98504 9.55969L8.29997 8.29997L9.55969 7.98504C10.0647 7.8588 10.0647 7.14114 9.55969 7.0149L8.29997 6.69997L7.98504 5.44026C7.8588 4.93528 7.14114 4.93528 7.0149 5.44026ZM17.8535 8.35349L15.8535 10.3535C15.6583 10.5488 15.3417 10.5488 15.1464 10.3535C14.9512 10.1582 14.9512 9.84165 15.1464 9.64639L16.2929 8.49994H14.5C13.6715 8.49994 13 9.17151 13 9.99994V13.9999C13 15.3807 11.8807 16.4999 10.5 16.4999H9.99997C9.97897 16.4999 9.95826 16.4986 9.93794 16.4961C9.71725 17.3607 8.93326 17.9999 7.99997 17.9999C6.8954 17.9999 5.99997 17.1045 5.99997 15.9999C5.99997 14.8954 6.8954 13.9999 7.99997 13.9999C8.93326 13.9999 9.71725 14.6392 9.93794 15.5038C9.95826 15.5012 9.97897 15.4999 9.99997 15.4999H10.5C11.3284 15.4999 12 14.8284 12 13.9999V9.99994C12 8.61923 13.1193 7.49994 14.5 7.49994H16.2929L15.1464 6.35349C14.9512 6.15823 14.9512 5.84165 15.1464 5.64639C15.3417 5.45113 15.6583 5.45113 15.8535 5.64639L17.8535 7.64639C18.0488 7.84165 18.0488 8.15823 17.8535 8.35349ZM8.99997 15.9999C8.99997 16.5522 8.55226 16.9999 7.99997 16.9999C7.44769 16.9999 6.99997 16.5522 6.99997 15.9999C6.99997 15.4477 7.44769 14.9999 7.99997 14.9999C8.55226 14.9999 8.99997 15.4477 8.99997 15.9999ZM15.9 15.9L16.1798 14.7806C16.2631 14.4473 16.7368 14.4473 16.8201 14.7806L17.1 15.9L18.2194 16.1799C18.5527 16.2632 18.5527 16.7368 18.2194 16.8201L17.1 17.1L16.8201 18.2194C16.7368 18.5527 16.2631 18.5527 16.1798 18.2194L15.9 17.1L14.7806 16.8201C14.4473 16.7368 14.4473 16.2632 14.7806 16.1799L15.9 15.9Z" fill="currentColor" />
</svg>
