<svg width="24" height="24" viewBox="0 0 24 24" fill="none" xmlns="http://www.w3.org/2000/svg">
<path fill-rule="evenodd" clip-rule="evenodd" d="M20.8535 6.85355L17.8535 9.85355C17.6583 10.0488 17.3417 10.0488 17.1464 9.85355C16.9512 9.65829 16.9512 9.34171 17.1464 9.14645L19.2929 7H15.5C14.1193 7 13 8.11929 13 9.5V14.5C13 16.433 11.433 18 9.49997 18H8.94996C8.71833 19.1411 7.70945 20 6.49997 20C5.11926 20 3.99997 18.8807 3.99997 17.5C3.99997 16.1193 5.11926 15 6.49997 15C7.70945 15 8.71833 15.8589 8.94996 17H9.49997C10.8807 17 12 15.8807 12 14.5V9.5C12 7.567 13.567 6 15.5 6H19.2929L17.1464 3.85355C16.9512 3.65829 16.9512 3.34171 17.1464 3.14645C17.3417 2.95118 17.6583 2.95118 17.8535 3.14645L20.8535 6.14645C21.0488 6.34171 21.0488 6.65829 20.8535 6.85355ZM7.99997 17.5C7.99997 16.6716 7.3284 16 6.49997 16C5.67154 16 4.99997 16.6716 4.99997 17.5C4.99997 18.3284 5.67154 19 6.49997 19C7.3284 19 7.99997 18.3284 7.99997 17.5ZM16.7 16.7L17.0149 15.4403C17.1411 14.9353 17.8588 14.9353 17.985 15.4403L18.3 16.7L19.5597 17.0149C20.0647 17.1412 20.0647 17.8588 19.5597 17.9851L18.3 18.3L17.985 19.5597C17.8588 20.0647 17.1411 20.0647 17.0149 19.5597L16.7 18.3L15.4403 17.9851C14.9353 17.8588 14.9353 17.1412 15.4403 17.0149L16.7 16.7ZM6.0149 3.44029L5.49997 5.5L3.44026 6.01493C2.93528 6.14117 2.93528 6.85883 3.44026 6.98507L5.49997 7.5L6.0149 9.55971C6.14114 10.0647 6.8588 10.0647 6.98504 9.55972L7.49997 7.5L9.55969 6.98507C10.0647 6.85883 10.0647 6.14117 9.55969 6.01493L7.49997 5.5L6.98504 3.44029C6.8588 2.93531 6.14114 2.93531 6.0149 3.44029Z" fill="currentColor" />
</svg>
