<svg width="24" height="24" viewBox="0 0 24 24" fill="none" xmlns="http://www.w3.org/2000/svg">
<path fill-rule="evenodd" clip-rule="evenodd" d="M19.0001 8.7V7.88C19.0001 7.39399 18.6061 7 18.1201 7H5.8801C5.39409 7 5.0001 7.39399 5.0001 7.88V8.7L5.47069 8.95098L12.0001 12.4333L18.5295 8.95098L19.0001 8.7ZM19.0001 9.83333L18.0001 10.3667L12.4707 13.3157L12.2354 13.4412L12.0001 13.5667L11.7648 13.4412L11.5295 13.3157L6.0001 10.3667L5.0001 9.83333V10.9667V16.12C5.0001 16.606 5.39409 17 5.8801 17H18.1201C18.6061 17 19.0001 16.606 19.0001 16.12V10.9667V9.83333ZM18.1201 6C19.1584 6 20.0001 6.8417 20.0001 7.88V8.16667V8.7V8.98966C20.0002 8.99627 20.0002 9.00288 20.0001 9.00948V9.3V9.83333V16.12C20.0001 17.1583 19.1584 18 18.1201 18H5.8801C4.8418 18 4.0001 17.1583 4.0001 16.12V9.83333V9.3V9.00949C3.99997 9.00288 3.99997 8.99627 4.0001 8.98965V8.7V8.16667V7.88C4.0001 6.8417 4.8418 6 5.8801 6H18.1201Z" fill="currentColor" />
</svg>
