<svg width="24" height="24" viewBox="0 0 24 24" fill="none" xmlns="http://www.w3.org/2000/svg">
<path fill-rule="evenodd" clip-rule="evenodd" d="M13 13.9646V12C13 11.4477 12.5523 11 12 11H10.0354C10.2547 12.5329 11.4671 13.7453 13 13.9646ZM10.0354 10C10.2781 8.30385 11.7368 7 13.5 7C15.433 7 17 8.567 17 10.5C17 12.2632 15.6962 13.7219 14 13.9646V12C14 10.8954 13.1046 10 12 10H10.0354ZM18 10.5C18 12.9853 15.9853 15 13.5 15C11.0147 15 9 12.9853 9 10.5C9 8.01472 11.0147 6 13.5 6C15.9853 6 18 8.01472 18 10.5ZM7 11.5C7 11.2239 7.22386 11 7.5 11C7.77614 11 8 10.7761 8 10.5C8 10.2239 7.77614 10 7.5 10C6.67157 10 6 10.6716 6 11.5C6 11.7761 6.22386 12 6.5 12C6.77614 12 7 11.7761 7 11.5ZM7 13.5C7 13.2239 6.77614 13 6.5 13C6.22386 13 6 13.2239 6 13.5V14.5C6 14.7761 6.22386 15 6.5 15C6.77614 15 7 14.7761 7 14.5V13.5ZM7 16.5C7 16.2239 6.77614 16 6.5 16C6.22386 16 6 16.2239 6 16.5C6 17.3284 6.67157 18 7.5 18C7.77614 18 8 17.7761 8 17.5C8 17.2239 7.77614 17 7.5 17C7.22386 17 7 16.7761 7 16.5ZM14 16.5C14 16.2239 13.7761 16 13.5 16C13.2239 16 13 16.2239 13 16.5C13 16.7761 12.7761 17 12.5 17C12.2239 17 12 17.2239 12 17.5C12 17.7761 12.2239 18 12.5 18C13.3284 18 14 17.3284 14 16.5ZM9.5 17C9.22386 17 9 17.2239 9 17.5C9 17.7761 9.22386 18 9.5 18H10.5C10.7761 18 11 17.7761 11 17.5C11 17.2239 10.7761 17 10.5 17H9.5Z" fill="currentColor" />
</svg>
