<svg width="24" height="24" viewBox="0 0 24 24" fill="none" xmlns="http://www.w3.org/2000/svg">
<path fill-rule="evenodd" clip-rule="evenodd" d="M14 11V15C11.2386 15 9 12.7614 9 10H13C13.5523 10 14 10.4477 14 11ZM14 16C10.6863 16 8 13.3137 8 10H7.5C7.22386 10 7 9.77614 7 9.5C7 9.22386 7.22386 9 7.5 9H8.08296C8.55904 6.16229 11.027 4 14 4C17.3137 4 20 6.68629 20 10C20 12.973 17.8377 15.441 15 15.917V16.5C15 16.7761 14.7761 17 14.5 17C14.2239 17 14 16.7761 14 16.5V16ZM14 5C11.581 5 9.56329 6.71776 9.10002 9H13C14.1046 9 15 9.89543 15 11V14.9C17.2822 14.4367 19 12.419 19 10C19 7.23857 16.7614 5 14 5ZM5.5 10C5.22386 10 5 10.2239 5 10.5C5 10.7761 4.77614 11 4.5 11C4.22386 11 4 10.7761 4 10.5C4 9.67157 4.67157 9 5.5 9C5.77614 9 6 9.22386 6 9.5C6 9.77614 5.77614 10 5.5 10ZM4.5 18C4.77614 18 5 18.2239 5 18.5C5 18.7761 5.22386 19 5.5 19C5.77614 19 6 19.2239 6 19.5C6 19.7761 5.77614 20 5.5 20C4.67157 20 4 19.3284 4 18.5C4 18.2239 4.22386 18 4.5 18ZM14.5 18C14.7761 18 15 18.2239 15 18.5C15 19.3284 14.3284 20 13.5 20C13.2239 20 13 19.7761 13 19.5C13 19.2239 13.2239 19 13.5 19C13.7761 19 14 18.7761 14 18.5C14 18.2239 14.2239 18 14.5 18ZM5 12.5C5 12.2239 4.77614 12 4.5 12C4.22386 12 4 12.2239 4 12.5V13.5C4 13.7761 4.22386 14 4.5 14C4.77614 14 5 13.7761 5 13.5V12.5ZM5 15.5C5 15.2239 4.77614 15 4.5 15C4.22386 15 4 15.2239 4 15.5V16.5C4 16.7761 4.22386 17 4.5 17C4.77614 17 5 16.7761 5 16.5V15.5ZM7.5 19C7.22386 19 7 19.2239 7 19.5C7 19.7761 7.22386 20 7.5 20H8.5C8.77614 20 9 19.7761 9 19.5C9 19.2239 8.77614 19 8.5 19H7.5ZM10.5 19C10.2239 19 10 19.2239 10 19.5C10 19.7761 10.2239 20 10.5 20H11.5C11.7761 20 12 19.7761 12 19.5C12 19.2239 11.7761 19 11.5 19H10.5Z" fill="currentColor" />
</svg>
