<svg width="24" height="24" viewBox="0 0 24 24" fill="none" xmlns="http://www.w3.org/2000/svg">
<path fill-rule="evenodd" clip-rule="evenodd" d="M3.29289 7.79289C2.90237 8.18342 2.90237 8.81658 3.29289 9.20711L14.7929 20.7071C15.1834 21.0976 15.8166 21.0976 16.2071 20.7071L20.7071 16.2071C21.0976 15.8166 21.0976 15.1834 20.7071 14.7929L9.20711 3.29289C8.81658 2.90237 8.18342 2.90237 7.79289 3.29289L3.29289 7.79289ZM4 8.5L4.70711 9.20711L5.39645 9.89645L6.14645 9.14645C6.34171 8.95118 6.65829 8.95118 6.85355 9.14645C7.04882 9.34171 7.04882 9.65829 6.85355 9.85355L6.10355 10.6036L7.39645 11.8964L9.64645 9.64645C9.84171 9.45118 10.1583 9.45118 10.3536 9.64645C10.5488 9.84171 10.5488 10.1583 10.3536 10.3536L8.10355 12.6036L9.39645 13.8964L10.1464 13.1464C10.3417 12.9512 10.6583 12.9512 10.8536 13.1464C11.0488 13.3417 11.0488 13.6583 10.8536 13.8536L10.1036 14.6036L11.3964 15.8964L13.6464 13.6464C13.8417 13.4512 14.1583 13.4512 14.3536 13.6464C14.5488 13.8417 14.5488 14.1583 14.3536 14.3536L12.1036 16.6036L14.7929 19.2929L15.5 20L16.2071 19.2929L19.2929 16.2071L20 15.5L19.2929 14.7929L9.20711 4.70711L8.5 4L7.79289 4.70711L4.70711 7.79289L4 8.5ZM16 17C16.5523 17 17 16.5523 17 16C17 15.4477 16.5523 15 16 15C15.4477 15 15 15.4477 15 16C15 16.5523 15.4477 17 16 17Z" fill="currentColor" />
</svg>
