<svg width="24" height="24" viewBox="0 0 24 24" fill="none" xmlns="http://www.w3.org/2000/svg">
<path fill-rule="evenodd" clip-rule="evenodd" d="M5.29289 10.2071C4.90237 9.81658 4.90237 9.18342 5.29289 8.79289L8.79289 5.29289C9.18342 4.90237 9.81658 4.90237 10.2071 5.29289L18.7071 13.7929C19.0976 14.1834 19.0976 14.8166 18.7071 15.2071L15.2071 18.7071C14.8166 19.0976 14.1834 19.0976 13.7929 18.7071L5.29289 10.2071ZM6.70711 10.2071L6 9.5L6.70711 8.79289L8.79289 6.70711L9.5 6L10.2071 6.70711L17.2929 13.7929L18 14.5L17.2929 15.2071L15.2071 17.2929L14.5 18L13.7929 17.2929L10.1036 13.6036L11.8536 11.8536C12.0488 11.6583 12.0488 11.3417 11.8536 11.1464C11.6583 10.9512 11.3417 10.9512 11.1464 11.1464L9.39645 12.8964L8.10355 11.6036L8.85355 10.8536C9.04882 10.6583 9.04882 10.3417 8.85355 10.1464C8.65829 9.95118 8.34171 9.95118 8.14645 10.1464L7.39645 10.8964L6.70711 10.2071ZM13.5 14.5C13.5 15.0523 13.9477 15.5 14.5 15.5C15.0523 15.5 15.5 15.0523 15.5 14.5C15.5 13.9477 15.0523 13.5 14.5 13.5C13.9477 13.5 13.5 13.9477 13.5 14.5Z" fill="currentColor" />
</svg>
