<svg width="24" height="24" viewBox="0 0 24 24" fill="none" xmlns="http://www.w3.org/2000/svg">
<path fill-rule="evenodd" clip-rule="evenodd" d="M13 7V8.87868L14 7.87868V7C14 5.89543 13.1046 5 12 5C10.8954 5 10 5.89543 10 7V11.8787L11 10.8787V7C11 6.44772 11.4477 6 12 6C12.5523 6 13 6.44772 13 7ZM13.9961 12.1252L12.1252 13.9961C13.13 13.9341 13.9341 13.13 13.9961 12.1252ZM8.5 12C8.5 12.4126 8.5714 12.8086 8.70253 13.1762L7.93856 13.9401C7.65743 13.3527 7.5 12.6947 7.5 12V11.5C7.5 11.2239 7.72386 11 8 11C8.27614 11 8.5 11.2239 8.5 11.5V12ZM10.8238 15.2975L10.0599 16.0614C10.5044 16.2742 10.9893 16.4161 11.5 16.4725V18H9.5C9.22386 18 9 18.2239 9 18.5C9 18.7761 9.22386 19 9.5 19H12H14.5C14.7761 19 15 18.7761 15 18.5C15 18.2239 14.7761 18 14.5 18H12.5V16.4725C14.75 16.2238 16.5 14.3163 16.5 12V11.5C16.5 11.2239 16.2761 11 16 11C15.7239 11 15.5 11.2239 15.5 11.5V12C15.5 13.933 13.933 15.5 12 15.5C11.5874 15.5 11.1914 15.4286 10.8238 15.2975ZM17.8536 6.85355C18.0488 6.65829 18.0488 6.34171 17.8536 6.14645C17.6583 5.95118 17.3417 5.95118 17.1464 6.14645L6.14645 17.1464C5.95118 17.3417 5.95118 17.6583 6.14645 17.8536C6.34171 18.0488 6.65829 18.0488 6.85355 17.8536L17.8536 6.85355Z" fill="currentColor" />
</svg>
