<svg width="24" height="24" viewBox="0 0 24 24" fill="none" xmlns="http://www.w3.org/2000/svg">
<path fill-rule="evenodd" clip-rule="evenodd" d="M14 6V7.87868L15 6.87868V6C15 4.34315 13.6569 3 12 3C10.3431 3 9 4.34315 9 6V11C9 11.5405 9.14294 12.0476 9.39307 12.4856L10.1406 11.7381C10.0499 11.5097 10 11.2607 10 11V6C10 4.89543 10.8954 4 12 4C13.1046 4 14 4.89543 14 6ZM14.9975 11.1238L12.1238 13.9975C13.6822 13.9342 14.9342 12.6822 14.9975 11.1238ZM7 11.1667C7 12.2151 7.33384 13.1856 7.90102 13.9777L7.18594 14.6927C6.44172 13.7134 6 12.4916 6 11.1667V11C6 10.7239 6.22386 10.5 6.5 10.5C6.77614 10.5 7 10.7239 7 11V11.1667ZM10.3524 15.7689L9.57469 16.5466C10.1723 16.7978 10.8206 16.9524 11.5 16.9906V20H8.5C8.22386 20 8 20.2239 8 20.5C8 20.7761 8.22386 21 8.5 21H12H15.5C15.7761 21 16 20.7761 16 20.5C16 20.2239 15.7761 20 15.5 20H12.5V16.9906C15.5666 16.8179 18 14.2765 18 11.1667V11C18 10.7239 17.7761 10.5 17.5 10.5C17.2239 10.5 17 10.7239 17 11V11.1667C17 13.836 14.836 16 12.1667 16H12H11.8333C11.3168 16 10.8191 15.919 10.3524 15.7689ZM19.8536 4.85355C20.0488 4.65829 20.0488 4.34171 19.8536 4.14645C19.6583 3.95118 19.3417 3.95118 19.1464 4.14645L4.14645 19.1464C3.95118 19.3417 3.95118 19.6583 4.14645 19.8536C4.34171 20.0488 4.65829 20.0488 4.85355 19.8536L19.8536 4.85355Z" fill="currentColor" />
</svg>
