<svg width="24" height="24" viewBox="0 0 24 24" fill="none" xmlns="http://www.w3.org/2000/svg">
<path fill-rule="evenodd" clip-rule="evenodd" d="M14 6V11C14 12.1046 13.1046 13 12 13C10.8954 13 10 12.1046 10 11V6C10 4.89543 10.8954 4 12 4C13.1046 4 14 4.89543 14 6ZM9 6C9 4.34315 10.3431 3 12 3C13.6569 3 15 4.34315 15 6V11C15 12.6569 13.6569 14 12 14C10.3431 14 9 12.6569 9 11V6ZM7 11C7 10.7239 6.77614 10.5 6.5 10.5C6.22386 10.5 6 10.7239 6 11V11.1667C6 14.2765 8.43344 16.8179 11.5 16.9906V20H8.5C8.22386 20 8 20.2239 8 20.5C8 20.7761 8.22386 21 8.5 21H12H15.5C15.7761 21 16 20.7761 16 20.5C16 20.2239 15.7761 20 15.5 20H12.5V16.9906C15.5666 16.8179 18 14.2765 18 11.1667V11C18 10.7239 17.7761 10.5 17.5 10.5C17.2239 10.5 17 10.7239 17 11V11.1667C17 13.836 14.836 16 12.1667 16H12H11.8333C9.16396 16 7 13.836 7 11.1667V11Z" fill="currentColor" />
</svg>
