<svg width="24" height="24" viewBox="0 0 24 24" fill="none" xmlns="http://www.w3.org/2000/svg">
<path fill-rule="evenodd" clip-rule="evenodd" d="M13 7V12C13 12.5523 12.5523 13 12 13C11.4477 13 11 12.5523 11 12V7C11 6.44772 11.4477 6 12 6C12.5523 6 13 6.44772 13 7ZM10 7C10 5.89543 10.8954 5 12 5C13.1046 5 14 5.89543 14 7V12C14 13.1046 13.1046 14 12 14C10.8954 14 10 13.1046 10 12V7ZM8.5 11.5C8.5 11.2239 8.27614 11 8 11C7.72386 11 7.5 11.2239 7.5 11.5V12C7.5 14.3163 9.25002 16.2238 11.5 16.4725V18H9.5C9.22386 18 9 18.2239 9 18.5C9 18.7761 9.22386 19 9.5 19H12H14.5C14.7761 19 15 18.7761 15 18.5C15 18.2239 14.7761 18 14.5 18H12.5V16.4725C14.75 16.2238 16.5 14.3163 16.5 12V11.5C16.5 11.2239 16.2761 11 16 11C15.7239 11 15.5 11.2239 15.5 11.5V12C15.5 13.933 13.933 15.5 12 15.5C10.067 15.5 8.5 13.933 8.5 12V11.5Z" fill="currentColor" />
</svg>
