<svg width="24" height="24" viewBox="0 0 24 24" fill="none" xmlns="http://www.w3.org/2000/svg">
<path fill-rule="evenodd" clip-rule="evenodd" d="M5 6H19C19.5523 6 20 6.44772 20 7V17C20 17.5523 19.5523 18 19 18H5C4.44772 18 4 17.5523 4 17V7C4 6.44772 4.44772 6 5 6ZM3 7C3 5.89543 3.89543 5 5 5H19C20.1046 5 21 5.89543 21 7V17C21 18.1046 20.1046 19 19 19H5C3.89543 19 3 18.1046 3 17V7ZM6.61767 15.2821H7.8833L8.4246 13.6681H10.8854L11.4277 15.2821H12.6933L10.3858 8.73668H8.92201L6.61767 15.2821ZM10.5654 12.7157L9.67946 10.079H9.62833L8.74402 12.7157H10.5654ZM14.4076 13.275V13.3581H15.4719V13.275C15.474 13.0492 15.5007 12.8596 15.5518 12.7061C15.6051 12.5506 15.686 12.4153 15.7947 12.3002C15.9055 12.1852 16.0472 12.0744 16.2198 11.9679C16.4158 11.8507 16.5852 11.7175 16.7279 11.5684C16.8707 11.4192 16.9804 11.2488 17.0571 11.057C17.136 10.8652 17.1754 10.6479 17.1754 10.405C17.1754 10.0449 17.088 9.73384 16.9133 9.47177C16.7407 9.20756 16.4989 9.00408 16.1878 8.86133C15.8789 8.71857 15.5209 8.64719 15.1139 8.64719C14.7411 8.64719 14.4002 8.71538 14.0912 8.85174C13.7844 8.9881 13.5372 9.19265 13.3497 9.46538C13.1644 9.7381 13.0664 10.0769 13.0557 10.4817H14.1935C14.2041 10.2814 14.2532 10.1163 14.3405 9.98633C14.43 9.85423 14.5419 9.75621 14.6761 9.69229C14.8125 9.62624 14.9563 9.59322 15.1076 9.59322C15.2716 9.59322 15.4197 9.62731 15.5518 9.69549C15.686 9.76367 15.7926 9.85955 15.8714 9.98313C15.9502 10.1067 15.9897 10.2527 15.9897 10.421C15.9897 10.5701 15.9598 10.7054 15.9002 10.8269C15.8405 10.9462 15.7585 11.0549 15.6541 11.1529C15.5518 11.2488 15.4357 11.3372 15.3057 11.4181C15.1161 11.5353 14.9552 11.6642 14.8231 11.8049C14.691 11.9434 14.5887 12.1266 14.5163 12.3546C14.446 12.5826 14.4098 12.8894 14.4076 13.275ZM14.4684 15.1479C14.6068 15.2843 14.772 15.3525 14.9637 15.3525C15.0916 15.3525 15.2077 15.3216 15.3121 15.2598C15.4186 15.1958 15.5039 15.1106 15.5678 15.0041C15.6338 14.8975 15.6669 14.7793 15.6669 14.6493C15.6669 14.4576 15.5965 14.2935 15.4559 14.1571C15.3174 14.0208 15.1534 13.9526 14.9637 13.9526C14.772 13.9526 14.6068 14.0208 14.4684 14.1571C14.3299 14.2935 14.2606 14.4576 14.2606 14.6493C14.2606 14.8453 14.3299 15.0115 14.4684 15.1479Z" fill="currentColor" />
</svg>
