<svg width="24" height="24" viewBox="0 0 24 24" fill="none" xmlns="http://www.w3.org/2000/svg">
<path fill-rule="evenodd" clip-rule="evenodd" d="M18 7H6C5.44772 7 5 7.44772 5 8V16C5 16.5523 5.44772 17 6 17H18C18.5523 17 19 16.5523 19 16V8C19 7.44772 18.5523 7 18 7ZM6 6C4.89543 6 4 6.89543 4 8V16C4 17.1046 4.89543 18 6 18H18C19.1046 18 20 17.1046 20 16V8C20 6.89543 19.1046 6 18 6H6ZM14.1204 13.2898V13.2159C14.1223 12.8731 14.1545 12.6004 14.217 12.3977C14.2814 12.1951 14.3723 12.0322 14.4897 11.9091C14.6072 11.7841 14.7502 11.6695 14.9187 11.5653C15.0343 11.4934 15.1375 11.4148 15.2284 11.3295C15.3212 11.2424 15.3941 11.1458 15.4471 11.0398C15.5002 10.9318 15.5267 10.8116 15.5267 10.679C15.5267 10.5294 15.4916 10.3996 15.4216 10.2898C15.3515 10.1799 15.2568 10.0947 15.1375 10.0341C15.02 9.97348 14.8884 9.94318 14.7426 9.94318C14.6081 9.94318 14.4803 9.97254 14.3591 10.0312C14.2397 10.0881 14.1403 10.1752 14.0608 10.2926C13.9831 10.4081 13.9396 10.5549 13.9301 10.733H12.9187C12.9282 10.3731 13.0153 10.072 13.1801 9.82955C13.3468 9.58712 13.5664 9.4053 13.8392 9.28409C14.1138 9.16288 14.4168 9.10227 14.7483 9.10227C15.11 9.10227 15.4282 9.16572 15.7028 9.29261C15.9793 9.41951 16.1943 9.60038 16.3477 9.83523C16.503 10.0682 16.5807 10.3447 16.5807 10.6648C16.5807 10.8807 16.5456 11.0739 16.4755 11.2443C16.4074 11.4148 16.3098 11.5663 16.1829 11.6989C16.056 11.8314 15.9055 11.9498 15.7312 12.054C15.5778 12.1487 15.4519 12.2472 15.3534 12.3494C15.2568 12.4517 15.1848 12.572 15.1375 12.7102C15.092 12.8466 15.0683 13.0152 15.0664 13.2159V13.2898H14.1204ZM14.6147 15.0625C14.4443 15.0625 14.2975 15.0019 14.1744 14.8807C14.0513 14.7595 13.9897 14.6117 13.9897 14.4375C13.9897 14.267 14.0513 14.1212 14.1744 14C14.2975 13.8788 14.4443 13.8182 14.6147 13.8182C14.7833 13.8182 14.9291 13.8788 15.0522 14C15.1772 14.1212 15.2397 14.267 15.2397 14.4375C15.2397 14.553 15.2104 14.6581 15.1517 14.7528C15.0949 14.8475 15.0191 14.9233 14.9244 14.9801C14.8316 15.035 14.7284 15.0625 14.6147 15.0625ZM7.19602 15H8.32102L8.80218 13.5653H10.9896L11.4716 15H12.5966L10.5455 9.18182H9.24432L7.19602 15ZM9.91761 10.375L10.7051 12.7188H9.08611L9.87216 10.375H9.91761Z" fill="currentColor" />
</svg>
