<svg width="24" height="24" viewBox="0 0 24 24" fill="none" xmlns="http://www.w3.org/2000/svg">
<path fill-rule="evenodd" clip-rule="evenodd" d="M14 6H10C9.44772 6 9 6.44772 9 7V17C9 17.5523 9.44772 18 10 18H14C14.5523 18 15 17.5523 15 17V7C15 6.44772 14.5523 6 14 6ZM10 5C8.89543 5 8 5.89543 8 7V17C8 18.1046 8.89543 19 10 19H14C15.1046 19 16 18.1046 16 17V7C16 5.89543 15.1046 5 14 5H10ZM12.5 16.5C12.5 16.7761 12.2761 17 12 17C11.7239 17 11.5 16.7761 11.5 16.5C11.5 16.2239 11.7239 16 12 16C12.2761 16 12.5 16.2239 12.5 16.5ZM11.5 7C11.2239 7 11 7.22386 11 7.5C11 7.77614 11.2239 8 11.5 8H12.5C12.7761 8 13 7.77614 13 7.5C13 7.22386 12.7761 7 12.5 7H11.5Z" fill="currentColor" />
</svg>
