<svg width="24" height="24" viewBox="0 0 24 24" fill="none" xmlns="http://www.w3.org/2000/svg">
<path fill-rule="evenodd" clip-rule="evenodd" d="M9.35767 8.86625C9.35767 8.42235 8.99782 8.0625 8.55392 8.0625C8.3966 8.0625 8.24275 8.10867 8.11142 8.19528L6.56653 9.21412C6.44452 9.29458 6.37109 9.43096 6.37109 9.57711C6.37109 9.92329 6.75596 10.1307 7.04508 9.94025L8.24317 9.1512C8.2489 9.14743 8.25561 9.14542 8.26247 9.14542C8.28184 9.14542 8.29755 9.16113 8.29755 9.1805V14.8443H7.02668C6.75053 14.8443 6.52668 15.0682 6.52668 15.3443C6.52668 15.6204 6.75053 15.8443 7.02668 15.8443H8.82307C8.82458 15.8443 8.82609 15.8443 8.82761 15.8443C8.82913 15.8443 8.83064 15.8443 8.83215 15.8443H10.5267C10.8028 15.8443 11.0267 15.6204 11.0267 15.3443C11.0267 15.0682 10.8028 14.8443 10.5267 14.8443H9.35767V8.86625ZM13.4378 15.1289C13.272 15.4568 13.5103 15.8443 13.8777 15.8443C14.0641 15.8443 14.2346 15.7392 14.3183 15.5727L17.5264 9.18847C17.5808 9.08021 17.6091 8.96073 17.6091 8.83957C17.6091 8.4104 17.2612 8.0625 16.832 8.0625H13.0038C12.7499 8.0625 12.5441 8.26834 12.5441 8.52227C12.5441 8.77619 12.7499 8.98203 13.0038 8.98203H16.4657C16.4928 8.98203 16.5148 9.00401 16.5148 9.03112C16.5148 9.03882 16.513 9.0464 16.5095 9.05327L13.4378 15.1289Z" fill="currentColor" />
</svg>
