<svg width="24" height="24" viewBox="0 0 24 24" fill="none" xmlns="http://www.w3.org/2000/svg">
<path d="M10.1179 10.8663C10.1179 10.4224 9.75807 10.0625 9.31417 10.0625C9.15686 10.0625 9.003 10.1087 8.87167 10.1953L7.32678 11.2141C7.20477 11.2946 7.13135 11.431 7.13135 11.5771C7.13135 11.9233 7.51621 12.1307 7.80533 11.9403L9.00343 11.1512C9.00915 11.1474 9.01586 11.1454 9.02272 11.1454C9.0421 11.1454 9.0578 11.1611 9.0578 11.1805V14.8443H7.78693C7.51079 14.8443 7.28693 15.0682 7.28693 15.3443C7.28693 15.6204 7.51079 15.8443 7.78693 15.8443H9.58332L9.58786 15.8443L9.59241 15.8443H11.2869C11.5631 15.8443 11.7869 15.6204 11.7869 15.3443C11.7869 15.0682 11.5631 14.8443 11.2869 14.8443H10.1179V10.8663Z" fill="currentColor" />
<path d="M12.698 17.1289C12.5322 17.4568 12.7705 17.8443 13.138 17.8443C13.3244 17.8443 13.4948 17.7392 13.5785 17.5727L16.7866 11.1885C16.841 11.0802 16.8693 10.9607 16.8693 10.8396C16.8693 10.4104 16.5214 10.0625 16.0923 10.0625H12.2641C12.0102 10.0625 11.8043 10.2683 11.8043 10.5223C11.8043 10.7762 12.0102 10.982 12.2641 10.982H15.7259C15.7531 10.982 15.775 11.004 15.775 11.0311C15.775 11.0388 15.7732 11.0464 15.7698 11.0533L12.698 17.1289Z" fill="currentColor" />
</svg>
