<svg width="24" height="24" viewBox="0 0 24 24" fill="none" xmlns="http://www.w3.org/2000/svg">
<path fill-rule="evenodd" clip-rule="evenodd" d="M15 14.9999C15.3647 14.9999 15.7224 14.9672 16.0703 14.9045C15.1624 16.1743 13.677 16.9997 12 16.9997C9.23858 16.9997 7 14.7611 7 11.9997C7 10.3226 7.82546 8.8371 9.09542 7.92923C9.03267 8.27722 9 8.63509 9 8.99986C9 12.3136 11.6863 14.9999 15 14.9999ZM17.3039 14.8075C17.6193 14.2129 16.8933 13.678 16.2412 13.8446C15.8443 13.946 15.4285 13.9999 15 13.9999C12.2386 13.9999 10 11.7613 10 8.99986C10 8.57132 10.0539 8.15537 10.1553 7.75842C10.3219 7.10631 9.78711 6.38032 9.19252 6.6957C7.29348 7.70298 6 9.70029 6 11.9997C6 15.3134 8.68629 17.9997 12 17.9997C14.2993 17.9997 16.2965 16.7064 17.3039 14.8075ZM16 7.49993C16 7.22379 15.7761 6.99993 15.5 6.99993C15.2239 6.99993 15 7.22379 15 7.49993V7.99993H14.5C14.2239 7.99993 14 8.22379 14 8.49993C14 8.77607 14.2239 8.99993 14.5 8.99993H15V9.49993C15 9.77607 15.2239 9.99993 15.5 9.99993C15.7761 9.99993 16 9.77607 16 9.49993V8.99993H16.5C16.7761 8.99993 17 8.77607 17 8.49993C17 8.22379 16.7761 7.99993 16.5 7.99993H16V7.49993Z" fill="currentColor" />
</svg>
