<svg width="24" height="24" viewBox="0 0 24 24" fill="none" xmlns="http://www.w3.org/2000/svg">
<path fill-rule="evenodd" clip-rule="evenodd" d="M18.9986 11.6115C18.9664 12.461 18.4007 13.1972 17.5882 13.4472L14.4217 14.4216L13.4473 17.5881C13.1973 18.4006 12.4611 18.9663 11.6116 18.9985C10.7621 19.0308 9.9851 18.5225 9.67427 17.7313L6.13856 8.73127C5.84765 7.99079 6.02329 7.14831 6.58584 6.58575C7.1484 6.0232 7.99088 5.84756 8.73136 6.13846L17.7314 9.67418C18.5226 9.98501 19.0308 10.762 18.9986 11.6115ZM13.6216 13.6215L12.4916 17.2941C12.3666 17.7003 11.9984 17.9831 11.5737 17.9992C11.1489 18.0154 10.7604 17.7612 10.605 17.3656L7.06931 8.36562C6.92386 7.99538 7.01167 7.57414 7.29295 7.29286C7.57423 7.01158 7.99547 6.92376 8.36571 7.06922L17.3657 10.6049C17.7613 10.7603 18.0155 11.1489 17.9993 11.5736C17.9832 11.9983 17.7004 12.3665 17.2941 12.4915L13.6216 13.6215Z" fill="currentColor" />
</svg>
