<svg width="24" height="24" viewBox="0 0 24 24" fill="none" xmlns="http://www.w3.org/2000/svg">
<path fill-rule="evenodd" clip-rule="evenodd" d="M20.9986 11.183C20.9664 12.0324 20.4007 12.7687 19.5882 13.0187L14.5645 14.5645L13.0188 19.5882C12.7688 20.4007 12.0325 20.9663 11.183 20.9986C10.3336 21.0308 9.55653 20.5225 9.2457 19.7313L4.13856 6.7313C3.84765 5.99082 4.02329 5.14834 4.58584 4.58578C5.1484 4.02323 5.99088 3.84759 6.73136 4.13849L19.7314 9.24564C20.5226 9.55647 21.0308 10.3335 20.9986 11.183ZM13.7644 13.7644L12.063 19.2941C11.938 19.7003 11.5698 19.9832 11.1451 19.9993C10.7204 20.0154 10.3319 19.7613 10.1764 19.3656L5.06931 6.36565C4.92386 5.99541 5.01167 5.57417 5.29295 5.29289C5.57423 5.01161 5.99547 4.92379 6.36571 5.06925L19.3657 10.1764C19.7613 10.3318 20.0155 10.7203 19.9993 11.145C19.9832 11.5698 19.7004 11.9379 19.2941 12.0629L13.7644 13.7644Z" fill="currentColor" />
</svg>
