<svg width="24" height="24" viewBox="0 0 24 24" fill="none" xmlns="http://www.w3.org/2000/svg">
<path fill-rule="evenodd" clip-rule="evenodd" d="M6.5 6C6.22386 6 6 6.22386 6 6.5V17.5C6 17.7761 6.22386 18 6.5 18C6.77614 18 7 17.7761 7 17.5V6.5C7 6.22386 6.77614 6 6.5 6ZM11.5 8C11.7 8 11.8808 8.1192 11.9596 8.30304L14.1024 13.303L14.9596 15.303C15.0684 15.5569 14.9508 15.8508 14.697 15.9596C14.4431 16.0683 14.1492 15.9508 14.0404 15.697L13.3132 14H9.68684L8.95957 15.697C8.85079 15.9508 8.55686 16.0683 8.30304 15.9596C8.04923 15.8508 7.93165 15.5569 8.04043 15.303L8.89757 13.303L11.0404 8.30304C11.1192 8.1192 11.3 8 11.5 8ZM12.8846 13L11.5 9.7693L10.1154 13H12.8846ZM17.3131 14H15.4891L15.0605 13H16.8845L15.5 9.7693L14.5879 11.8973L14.044 10.628L15.0404 8.30304C15.1192 8.1192 15.2999 8 15.5 8C15.7 8 15.8807 8.1192 15.9595 8.30304L18.1024 13.303L18.9595 15.303C19.0683 15.5569 18.9507 15.8508 18.6969 15.9596C18.4431 16.0683 18.1492 15.9508 18.0404 15.697L17.3131 14Z" fill="currentColor" />
</svg>
