<svg width="24" height="24" viewBox="0 0 24 24" fill="none" xmlns="http://www.w3.org/2000/svg">
<path fill-rule="evenodd" clip-rule="evenodd" d="M6 5H12C12.5523 5 13 5.44772 13 6V8H10C8.89543 8 8 8.89543 8 10V13H6C5.44772 13 5 12.5523 5 12V6C5 5.44772 5.44772 5 6 5ZM14 6V8H16C17.1046 8 18 8.89543 18 10V14.432L20.3511 15.3137C20.761 15.4674 21.0233 15.8698 20.9984 16.3069C20.9735 16.7439 20.6672 17.114 20.2425 17.2201L17.8246 17.8246L17.2201 20.2425C17.114 20.6672 16.7439 20.9735 16.3069 20.9984C15.8698 21.0233 15.4674 20.761 15.3137 20.3511L14.432 18H10C8.89543 18 8 17.1046 8 16V14H6C4.89543 14 4 13.1046 4 12V6C4 4.89543 4.89543 4 6 4H12C13.1046 4 14 4.89543 14 6ZM14.057 17L13.0637 14.3511C12.926 13.9839 13.0156 13.5702 13.2929 13.2929C13.5702 13.0156 13.9839 12.926 14.3511 13.0637L17 14.057V10C17 9.44772 16.5523 9 16 9H14H13H10C9.44772 9 9 9.44772 9 10V13V14V16C9 16.5523 9.44772 17 10 17H14.057ZM18.2912 16.6772L17 17L16.6772 18.2912L16.25 20L15.6315 18.3508L14.466 15.2428L14 14L15.2428 14.466L18.3508 15.6315L20 16.25L18.2912 16.6772Z" fill="currentColor" />
</svg>
