<svg width="24" height="24" viewBox="0 0 24 24" fill="none" xmlns="http://www.w3.org/2000/svg">
<path fill-rule="evenodd" clip-rule="evenodd" d="M10.1464 6.14645C10.3417 5.95118 10.6583 5.95118 10.8536 6.14645L12.8536 8.14645C13.0488 8.34171 13.0488 8.65829 12.8536 8.85355L10.8536 10.8536C10.6583 11.0488 10.3417 11.0488 10.1464 10.8536L8.14645 8.85355C7.95118 8.65829 7.95118 8.34171 8.14645 8.14645L10.1464 6.14645ZM13.1464 6.14645C13.3417 5.95118 13.6583 5.95118 13.8536 6.14645L15.8536 8.14645C16.0488 8.34171 16.0488 8.65829 15.8536 8.85355C15.6583 9.04882 15.3417 9.04882 15.1464 8.85355L13.1464 6.85355C12.9512 6.65829 12.9512 6.34171 13.1464 6.14645ZM9.20711 8.5L10.5 9.79289L11.7929 8.5L10.5 7.20711L9.20711 8.5ZM6.64645 9.64645C6.84171 9.45118 7.15829 9.45118 7.35355 9.64645L9.35355 11.6464C9.54882 11.8417 9.54882 12.1583 9.35355 12.3536L7.35355 14.3536C7.15829 14.5488 6.84171 14.5488 6.64645 14.3536L4.64645 12.3536C4.45118 12.1583 4.45118 11.8417 4.64645 11.6464L6.64645 9.64645ZM13.6464 9.64645C13.8417 9.45118 14.1583 9.45118 14.3536 9.64645L16.3536 11.6464C16.5488 11.8417 16.5488 12.1583 16.3536 12.3536L14.3536 14.3536C14.1583 14.5488 13.8417 14.5488 13.6464 14.3536L11.6464 12.3536C11.4512 12.1583 11.4512 11.8417 11.6464 11.6464L13.6464 9.64645ZM16.6464 9.64645C16.8417 9.45118 17.1583 9.45118 17.3536 9.64645L19.3536 11.6464C19.5488 11.8417 19.5488 12.1583 19.3536 12.3536L17.3536 14.3536C17.1583 14.5488 16.8417 14.5488 16.6464 14.3536C16.4512 14.1583 16.4512 13.8417 16.6464 13.6464L18.2929 12L16.6464 10.3536C16.4512 10.1583 16.4512 9.84171 16.6464 9.64645ZM5.70711 12L7 13.2929L8.29289 12L7 10.7071L5.70711 12ZM12.7071 12L14 13.2929L15.2929 12L14 10.7071L12.7071 12ZM9.20711 15.5L10.5 16.7929L11.7929 15.5L10.5 14.2071L9.20711 15.5ZM10.1464 13.1464C10.3417 12.9512 10.6583 12.9512 10.8536 13.1464L12.8536 15.1464C13.0488 15.3417 13.0488 15.6583 12.8536 15.8536L10.8536 17.8536C10.6583 18.0488 10.3417 18.0488 10.1464 17.8536L8.14645 15.8536C7.95118 15.6583 7.95118 15.3417 8.14645 15.1464L10.1464 13.1464ZM15.1464 15.1464C15.3417 14.9512 15.6583 14.9512 15.8536 15.1464C16.0488 15.3417 16.0488 15.6583 15.8536 15.8536L13.8536 17.8536C13.6583 18.0488 13.3417 18.0488 13.1464 17.8536C12.9512 17.6583 12.9512 17.3417 13.1464 17.1464L15.1464 15.1464Z" fill="currentColor" />
</svg>
