<svg width="24" height="24" viewBox="0 0 24 24" fill="none" xmlns="http://www.w3.org/2000/svg">
<path fill-rule="evenodd" clip-rule="evenodd" d="M7.5 7H12.5C12.7761 7 13 7.22386 13 7.5V9H10.5C9.67157 9 9 9.67157 9 10.5V13H7.5C7.22386 13 7 12.7761 7 12.5V7.5C7 7.22386 7.22386 7 7.5 7ZM15.5 9H14V7.5C14 6.67157 13.3284 6 12.5 6H7.5C6.67157 6 6 6.67157 6 7.5V12.5C6 13.3284 6.67157 14 7.5 14H9V15.5C9 16.3284 9.67157 17 10.5 17H13.432L13.9387 18.3511C14.0924 18.761 14.4948 19.0233 14.9319 18.9984C15.3689 18.9735 15.739 18.6672 15.8451 18.2425L16.3246 16.3246L18.2425 15.8451C18.6672 15.739 18.9735 15.3689 18.9984 14.9319C19.0233 14.4948 18.761 14.0924 18.3511 13.9387L17 13.432V10.5C17 9.67157 16.3284 9 15.5 9ZM17 14.5L16.3508 14.2565L16 14.125L14.2428 13.466L13 13L13.466 14.2428L14.125 16L14.2565 16.3508L14.5 17L14.875 18L15.3022 16.2912L15.5 15.5L16.2912 15.3022L18 14.875L17 14.5ZM13.057 16L12.0637 13.3511C11.926 12.9839 12.0156 12.5702 12.2929 12.2929C12.5702 12.0156 12.9839 11.926 13.3511 12.0637L16 13.057V10.5C16 10.2239 15.7761 10 15.5 10H10.5C10.2239 10 10 10.2239 10 10.5V15.5C10 15.7761 10.2239 16 10.5 16H13.057Z" fill="currentColor" />
</svg>
