<svg width="24" height="24" viewBox="0 0 24 24" fill="none" xmlns="http://www.w3.org/2000/svg">
<path fill-rule="evenodd" clip-rule="evenodd" d="M17 16.5C17 16.7761 16.7761 17 16.5 17H7.5C7.22386 17 7 16.7761 7 16.5V7.5C7 7.22386 7.22386 7 7.5 7H9.5C9.77614 7 10 6.77614 10 6.5C10 6.22386 9.77614 6 9.5 6H7.5C6.67157 6 6 6.67157 6 7.5V16.5C6 17.3284 6.67157 18 7.5 18H16.5C17.3284 18 18 17.3284 18 16.5V14.5C18 14.2239 17.7761 14 17.5 14C17.2239 14 17 14.2239 17 14.5V16.5ZM12 6.5C12 6.77614 12.2239 7 12.5 7H16.2929L12.1465 11.1465C11.9512 11.3417 11.9512 11.6583 12.1465 11.8535C12.3417 12.0488 12.6583 12.0488 12.8535 11.8535L17 7.70711V11.5C17 11.7761 17.2239 12 17.5 12C17.7761 12 18 11.7761 18 11.5V6.5C18 6.22386 17.7761 6 17.5 6H12.5C12.2239 6 12 6.22386 12 6.5Z" fill="currentColor" />
</svg>
