<svg width="24" height="24" viewBox="0 0 24 24" fill="none" xmlns="http://www.w3.org/2000/svg">
<path fill-rule="evenodd" clip-rule="evenodd" d="M20.8536 6.85355L17.8536 9.85355C17.6583 10.0488 17.3417 10.0488 17.1464 9.85355C16.9512 9.65829 16.9512 9.34171 17.1464 9.14645L19.2929 7H15.5C14.1193 7 13 8.11929 13 9.5V14.5C13 16.433 11.433 18 9.5 18H8.94999C8.71836 19.1411 7.70948 20 6.5 20C5.11929 20 4 18.8807 4 17.5C4 16.1193 5.11929 15 6.5 15C7.70948 15 8.71836 15.8589 8.94999 17H9.5C10.8807 17 12 15.8807 12 14.5V9.5C12 7.567 13.567 6 15.5 6H19.2929L17.1464 3.85355C16.9512 3.65829 16.9512 3.34171 17.1464 3.14645C17.3417 2.95118 17.6583 2.95118 17.8536 3.14645L20.8536 6.14645C21.0488 6.34171 21.0488 6.65829 20.8536 6.85355ZM8 17.5C8 16.6716 7.32843 16 6.5 16C5.67157 16 5 16.6716 5 17.5C5 18.3284 5.67157 19 6.5 19C7.32843 19 8 18.3284 8 17.5Z" fill="currentColor" />
</svg>
