<svg width="24" height="24" viewBox="0 0 24 24" fill="none" xmlns="http://www.w3.org/2000/svg">
<path d="M6.5097 15.6502C6.43623 15.8598 6.23842 16 6.01638 16C5.65357 16 5.40109 15.6395 5.52511 15.2986L7.90204 8.76441C8.02133 8.43649 8.333 8.21821 8.68195 8.21821C9.03103 8.21821 9.3428 8.43665 9.46199 8.76475L11.8356 15.2987C11.9595 15.6396 11.707 16 11.3442 16C11.1221 16 10.9242 15.8596 10.8508 15.6499L8.72253 9.56921C8.71651 9.55202 8.70029 9.54051 8.68208 9.54051C8.66387 9.54051 8.64766 9.55201 8.64163 9.56919L6.5097 15.6502ZM6.67204 13.4124C6.67204 13.1606 6.87618 12.9565 7.128 12.9565H10.2286C10.4804 12.9565 10.6845 13.1606 10.6845 13.4124C10.6845 13.6642 10.4804 13.8684 10.2286 13.8684H7.128C6.87618 13.8684 6.67204 13.6642 6.67204 13.4124Z" fill="currentColor" />
<path d="M13.6918 16C13.3881 16 13.142 15.7539 13.142 15.4503C13.142 15.3104 13.1953 15.1757 13.2911 15.0738L15.7448 12.4625C16.0361 12.1484 16.2755 11.8748 16.463 11.6418C16.6529 11.4087 16.7948 11.1871 16.8885 10.9768C16.9822 10.7666 17.0291 10.5449 17.0291 10.3119C17.0291 10.0459 16.9658 9.81662 16.8391 9.6241C16.7125 9.42905 16.5402 9.27833 16.3224 9.17194C16.1045 9.06555 15.8601 9.01235 15.589 9.01235C15.3002 9.01235 15.0482 9.07188 14.8329 9.19094C14.6201 9.30999 14.4554 9.47591 14.3389 9.6887C14.2952 9.76848 14.2597 9.85359 14.2324 9.94405C14.1521 10.2102 13.9387 10.441 13.6607 10.441C13.3826 10.441 13.1505 10.2135 13.2027 9.94038C13.2527 9.67861 13.3439 9.43893 13.4764 9.22133C13.6892 8.87176 13.9817 8.59945 14.3541 8.40439C14.7265 8.20934 15.147 8.11182 15.6156 8.11182C16.0893 8.11182 16.5073 8.20934 16.8695 8.40439C17.2318 8.59691 17.5155 8.85783 17.7207 9.18714C17.9258 9.51644 18.0284 9.88502 18.0284 10.2929C18.0284 10.5816 17.9752 10.8641 17.8688 11.1402C17.765 11.4138 17.5839 11.719 17.3255 12.0559C17.0671 12.3903 16.7074 12.7969 16.2464 13.2756L14.613 15.0071C14.6053 15.0152 14.6011 15.0259 14.6011 15.037C14.6011 15.061 14.6206 15.0805 14.6446 15.0805H17.6979C17.9518 15.0805 18.1576 15.2863 18.1576 15.5403C18.1576 15.7942 17.9518 16 17.6979 16H13.6918Z" fill="currentColor" />
</svg>
