<svg width="24" height="24" viewBox="0 0 24 24" fill="none" xmlns="http://www.w3.org/2000/svg">
<path fill-rule="evenodd" clip-rule="evenodd" d="M7 7H15C15.5523 7 16 7.44772 16 8H9C7.89543 8 7 8.89543 7 10L7 15C6.44772 15 6 14.5523 6 14V8C6 7.44772 6.44772 7 7 7ZM7 16C5.89543 16 5 15.1046 5 14V8C5 6.89543 5.89543 6 7 6H15C16.1046 6 17 6.89543 17 8C18.1046 8 19 8.89543 19 10V16C19 17.1046 18.1046 18 17 18H9C7.89543 18 7 17.1046 7 16ZM10.5 11C10.2239 11 10 11.2239 10 11.5C10 11.7761 10.2239 12 10.5 12H15.5C15.7761 12 16 11.7761 16 11.5C16 11.2239 15.7761 11 15.5 11H10.5ZM10.5 13C10.2239 13 10 13.2239 10 13.5C10 13.7761 10.2239 14 10.5 14H13.5C13.7761 14 14 13.7761 14 13.5C14 13.2239 13.7761 13 13.5 13H10.5ZM9 9H17C17.5523 9 18 9.44772 18 10V16C18 16.5523 17.5523 17 17 17H9C8.44772 17 8 16.5523 8 16V10C8 9.44772 8.44772 9 9 9Z" fill="currentColor" />
</svg>
