<svg width="24" height="24" viewBox="0 0 24 24" fill="none" xmlns="http://www.w3.org/2000/svg">
<path fill-rule="evenodd" clip-rule="evenodd" d="M5 6H15C15.5523 6 16 6.44772 16 7V8H9C7.89543 8 7 8.89543 7 10V15H5C4.44772 15 4 14.5523 4 14V7C4 6.44772 4.44772 6 5 6ZM7 16H5C3.89543 16 3 15.1046 3 14V7C3 5.89543 3.89543 5 5 5H15C16.1046 5 17 5.89543 17 7V8H19C20.1046 8 21 8.89543 21 10V17C21 18.1046 20.1046 19 19 19H9C7.89543 19 7 18.1046 7 17V16ZM10.5 11C10.2239 11 10 11.2239 10 11.5C10 11.7761 10.2239 12 10.5 12H17.5C17.7761 12 18 11.7761 18 11.5C18 11.2239 17.7761 11 17.5 11H10.5ZM10.5 13C10.2239 13 10 13.2239 10 13.5C10 13.7761 10.2239 14 10.5 14H15.5C15.7761 14 16 13.7761 16 13.5C16 13.2239 15.7761 13 15.5 13H10.5ZM9 9H19C19.5523 9 20 9.44772 20 10V17C20 17.5523 19.5523 18 19 18H9C8.44772 18 8 17.5523 8 17V10C8 9.44772 8.44772 9 9 9Z" fill="currentColor" />
</svg>
