<svg width="24" height="24" viewBox="0 0 24 24" fill="none" xmlns="http://www.w3.org/2000/svg">
<path fill-rule="evenodd" clip-rule="evenodd" d="M12.9924 6.12406C12.9974 6.08341 13 6.04201 13 6C13 5.44772 12.5523 5 12 5C11.4477 5 11 5.44772 11 6C11 6.04201 11.0026 6.08342 11.0076 6.12407C9.27854 6.56547 8.00003 8.13343 8.00003 10V11.1716C8.00003 12.7174 7.38596 14.1999 6.29292 15.2929C6.00692 15.5789 5.92137 16.009 6.07615 16.3827C6.23093 16.7564 6.59557 17 7.00003 17H17C17.4045 17 17.7691 16.7564 17.9239 16.3827C18.0787 16.009 17.9931 15.5789 17.7071 15.2929C16.6141 14.1999 16 12.7174 16 11.1716V10C16 8.13341 14.7215 6.56543 12.9924 6.12406ZM16.1742 15C16.4154 15.3563 16.6914 15.6914 17 16H17C15.7194 14.7194 15 12.9826 15 11.1716V10C15 8.61582 14.0626 7.45059 12.788 7.10454C14.0626 7.45058 15 8.61581 15 10V11.1716C15 12.5461 15.4145 13.878 16.1742 15ZM13.7325 18C13.3867 18.5978 12.7403 19 12 19C11.2597 19 10.6134 18.5978 10.2676 18H12H13.7325Z" fill="currentColor" />
</svg>
