<svg width="24" height="24" viewBox="0 0 24 24" fill="none" xmlns="http://www.w3.org/2000/svg">
<path fill-rule="evenodd" clip-rule="evenodd" d="M8 6C6.89543 6 6 6.89543 6 8V16C6 17.1046 6.89543 18 8 18H16C17.1046 18 18 17.1046 18 16V8C18 6.89543 17.1046 6 16 6H8ZM7 8C7 7.44772 7.44771 7 8 7H16C16.5523 7 17 7.44772 17 8V16C17 16.5523 16.5523 17 16 17H8C7.44771 17 7 16.5523 7 16V8ZM11.4975 9.54975C11.525 9.27498 11.3245 9.02996 11.0498 9.00248C10.775 8.97501 10.53 9.17548 10.5025 9.45025L10.4475 10H9.5C9.22386 10 9 10.2239 9 10.5C9 10.7761 9.22386 11 9.5 11H10.3475L10.1475 13H9.5C9.22386 13 9 13.2239 9 13.5C9 13.7761 9.22386 14 9.5 14H10.0475L10.0025 14.4502C9.97501 14.725 10.1755 14.97 10.4502 14.9975C10.725 15.025 10.97 14.8245 10.9975 14.5498L11.0525 14H12.5475L12.5025 14.4502C12.475 14.725 12.6755 14.97 12.9502 14.9975C13.225 15.025 13.47 14.8245 13.4975 14.5498L13.5525 14H14.5C14.7761 14 15 13.7761 15 13.5C15 13.2239 14.7761 13 14.5 13H13.6525L13.8525 11H14.5C14.7761 11 15 10.7761 15 10.5C15 10.2239 14.7761 10 14.5 10H13.9525L13.9975 9.54975C14.025 9.27498 13.8245 9.02996 13.5498 9.00248C13.275 8.97501 13.03 9.17548 13.0025 9.45025L12.9475 10H11.4525L11.4975 9.54975ZM11.1525 13L11.3525 11H12.8475L12.6475 13H11.1525Z" fill="currentColor" />
</svg>
