<svg width="24" height="24" viewBox="0 0 24 24" fill="none" xmlns="http://www.w3.org/2000/svg">
<path fill-rule="evenodd" clip-rule="evenodd" d="M11 7C11 6.72386 11.2238 6.5 11.5 6.5H17.5C17.7761 6.5 18 6.72386 18 7C18 7.27614 17.7761 7.5 17.5 7.5H11.5C11.2238 7.5 11 7.27614 11 7ZM6 7.00001C6 6.72387 6.22386 6.50001 6.5 6.50001H7.5C7.77614 6.50001 8 6.72387 8 7.00001V10.5C8 10.7762 7.77614 11 7.5 11C7.22386 11 7 10.7762 7 10.5V7.50001H6.5C6.22386 7.50001 6 7.27616 6 7.00001ZM6 13.5C6 13.2239 6.22386 13 6.5 13H8.5C8.77614 13 9 13.2239 9 13.5V15C9 15.1894 8.893 15.3625 8.72361 15.4472L7 16.309V16.5H8.5C8.77614 16.5 9 16.7239 9 17C9 17.2762 8.77614 17.5 8.5 17.5H6.5C6.22386 17.5 6 17.2762 6 17V16C6 15.8106 6.107 15.6375 6.27639 15.5528L8 14.691V14H6.5C6.22386 14 6 13.7762 6 13.5ZM11.5 16.5C11.2238 16.5 11 16.7239 11 17C11 17.2761 11.2238 17.5 11.5 17.5H17.5C17.7761 17.5 18 17.2761 18 17C18 16.7239 17.7761 16.5 17.5 16.5H11.5ZM11.5 11.5C11.2238 11.5 11 11.7239 11 12C11 12.2761 11.2238 12.5 11.5 12.5H17.5C17.7761 12.5 18 12.2761 18 12C18 11.7239 17.7761 11.5 17.5 11.5H11.5Z" fill="currentColor" />
</svg>
