<svg width="24" height="24" viewBox="0 0 24 24" fill="none" xmlns="http://www.w3.org/2000/svg">
<path fill-rule="evenodd" clip-rule="evenodd" d="M8 7H16C16.5523 7 17 7.44772 17 8V16C17 16.5523 16.5523 17 16 17H8C7.44772 17 7 16.5523 7 16V8C7 7.44772 7.44772 7 8 7ZM6 8C6 6.89543 6.89543 6 8 6H16C17.1046 6 18 6.89543 18 8V16C18 17.1046 17.1046 18 16 18H8C6.89543 18 6 17.1046 6 16V8ZM15 9.5C15.2761 9.5 15.5 9.27614 15.5 9C15.5 8.72386 15.2761 8.5 15 8.5C14.7239 8.5 14.5 8.72386 14.5 9C14.5 9.27614 14.7239 9.5 15 9.5ZM13.5 11C13.5 11.2761 13.2761 11.5 13 11.5C12.7239 11.5 12.5 11.2761 12.5 11C12.5 10.7239 12.7239 10.5 13 10.5C13.2761 10.5 13.5 10.7239 13.5 11ZM11.5 13C11.5 13.2761 11.2761 13.5 11 13.5C10.7239 13.5 10.5 13.2761 10.5 13C10.5 12.7239 10.7239 12.5 11 12.5C11.2761 12.5 11.5 12.7239 11.5 13ZM9.5 15C9.5 15.2761 9.27614 15.5 9 15.5C8.72386 15.5 8.5 15.2761 8.5 15C8.5 14.7239 8.72386 14.5 9 14.5C9.27614 14.5 9.5 14.7239 9.5 15ZM11 15.5C11.2761 15.5 11.5 15.2761 11.5 15C11.5 14.7239 11.2761 14.5 11 14.5C10.7239 14.5 10.5 14.7239 10.5 15C10.5 15.2761 10.7239 15.5 11 15.5ZM13 13.5C13.2761 13.5 13.5 13.2761 13.5 13C13.5 12.7239 13.2761 12.5 13 12.5C12.7239 12.5 12.5 12.7239 12.5 13C12.5 13.2761 12.7239 13.5 13 13.5ZM13.5 15C13.5 15.2761 13.2761 15.5 13 15.5C12.7239 15.5 12.5 15.2761 12.5 15C12.5 14.7239 12.7239 14.5 13 14.5C13.2761 14.5 13.5 14.7239 13.5 15ZM15.5 11C15.5 11.2761 15.2761 11.5 15 11.5C14.7239 11.5 14.5 11.2761 14.5 11C14.5 10.7239 14.7239 10.5 15 10.5C15.2761 10.5 15.5 10.7239 15.5 11ZM15 13.5C15.2761 13.5 15.5 13.2761 15.5 13C15.5 12.7239 15.2761 12.5 15 12.5C14.7239 12.5 14.5 12.7239 14.5 13C14.5 13.2761 14.7239 13.5 15 13.5ZM15.5 15C15.5 15.2761 15.2761 15.5 15 15.5C14.7239 15.5 14.5 15.2761 14.5 15C14.5 14.7239 14.7239 14.5 15 14.5C15.2761 14.5 15.5 14.7239 15.5 15Z" fill="currentColor" />
</svg>
