<svg width="24" height="24" viewBox="0 0 24 24" fill="none" xmlns="http://www.w3.org/2000/svg">
<path fill-rule="evenodd" clip-rule="evenodd" d="M9.5 6H7C6.44771 6 6 6.44771 6 7V18C6 18.5523 6.44771 19 7 19H17C17.5523 19 18 18.5523 18 18V7C18 6.44771 17.5523 6 17 6H14.5H13.5H10.5H9.5ZM14.5 5H17C18.1046 5 19 5.89543 19 7V18C19 19.1046 18.1046 20 17 20H7C5.89543 20 5 19.1046 5 18V7C5 5.89543 5.89543 5 7 5H9.5V4.5C9.5 3.67157 10.1716 3 11 3H13C13.8284 3 14.5 3.67157 14.5 4.5V5ZM13.5 5V4.5C13.5 4.22386 13.2761 4 13 4H11C10.7239 4 10.5 4.22386 10.5 4.5V5H11H11.5H12.5H13H13.5ZM12 12C12.8284 12 13.5 11.3284 13.5 10.5C13.5 9.67157 12.8284 9 12 9C11.1716 9 10.5 9.67157 10.5 10.5C10.5 11.3284 11.1716 12 12 12ZM13.2122 12.687C13.9802 12.2604 14.5 11.4409 14.5 10.5C14.5 9.11929 13.3807 8 12 8C10.6193 8 9.5 9.11929 9.5 10.5C9.5 11.4409 10.0198 12.2604 10.7878 12.687C9.17126 13.2004 8 14.7134 8 16.5C8 16.7761 8.22386 17 8.5 17C8.77614 17 9 16.7761 9 16.5C9 14.8431 10.3431 13.5 12 13.5C13.6569 13.5 15 14.8431 15 16.5C15 16.7761 15.2239 17 15.5 17C15.7761 17 16 16.7761 16 16.5C16 14.7134 14.8287 13.2004 13.2122 12.687Z" fill="currentColor" />
</svg>
