<svg width="24" height="24" viewBox="0 0 24 24" fill="none" xmlns="http://www.w3.org/2000/svg">
<path fill-rule="evenodd" clip-rule="evenodd" d="M10 8H8.5C8.22386 8 8 8.22386 8 8.5V16.5C8 16.7761 8.22386 17 8.5 17H15.5C15.7761 17 16 16.7761 16 16.5V8.5C16 8.22386 15.7761 8 15.5 8H14H13H11H10ZM14 7H15.5C16.3284 7 17 7.67157 17 8.5V16.5C17 17.3284 16.3284 18 15.5 18H8.5C7.67157 18 7 17.3284 7 16.5V8.5C7 7.67157 7.67157 7 8.5 7H10V6.5C10 5.67157 10.6716 5 11.5 5H12.5C13.3284 5 14 5.67157 14 6.5V7ZM13 7V6.5C13 6.22386 12.7761 6 12.5 6H11.5C11.2239 6 11 6.22386 11 6.5V7H11.5H12H12.5H13ZM12 12C12.5523 12 13 11.5523 13 11C13 10.4477 12.5523 10 12 10C11.4477 10 11 10.4477 11 11C11 11.5523 11.4477 12 12 12ZM13.0636 12.694C13.6262 12.3401 14 11.7137 14 11C14 9.89543 13.1046 9 12 9C10.8954 9 10 9.89543 10 11C10 11.7137 10.3738 12.3401 10.9364 12.694C9.80453 13.1233 9 14.2177 9 15.5C9 15.7761 9.22385 16 9.5 16C9.77614 16 10 15.7761 10 15.5C10 14.3954 10.8954 13.5 12 13.5C13.1046 13.5 14 14.3954 14 15.5C14 15.7761 14.2239 16 14.5 16C14.7761 16 15 15.7761 15 15.5C15 14.2177 14.1955 13.1233 13.0636 12.694Z" fill="currentColor" />
</svg>
