<svg width="24" height="24" viewBox="0 0 24 24" fill="none" xmlns="http://www.w3.org/2000/svg">
<path fill-rule="evenodd" clip-rule="evenodd" d="M16.5 6C16.7761 6 17 6.22386 17 6.5V7H17.5C17.7761 7 18 7.22386 18 7.5C18 7.77614 17.7761 8 17.5 8H17V13H17.5C17.7761 13 18 13.2239 18 13.5C18 13.7761 17.7761 14 17.5 14H17V14.5C17 14.7761 16.7761 15 16.5 15C16.2239 15 16 14.7761 16 14.5V14H14V13H16V8H11V10H10V8H9.5C9.22386 8 9 7.77614 9 7.5C9 7.22386 9.22386 7 9.5 7H10V6.5C10 6.22386 10.2239 6 10.5 6C10.7761 6 11 6.22386 11 6.5V7H16V6.5C16 6.22386 16.2239 6 16.5 6ZM13 13H11V11H10V13H9.5C9.22386 13 9 13.2239 9 13.5C9 13.7761 9.22386 14 9.5 14H10V14.5C10 14.7761 10.2239 15 10.5 15C10.7761 15 11 14.7761 11 14.5V14H13V13Z" fill="currentColor" fill-opacity="0.3" />
<path fill-rule="evenodd" clip-rule="evenodd" d="M6 11C6 10.4477 6.44772 10 7 10H10H13C13.5523 10 14 10.4477 14 11V17C14 17.5523 13.5523 18 13 18H7C6.44772 18 6 17.5523 6 17V11ZM10 11L7 11V17H13V11H10Z" fill="currentColor" />
</svg>
