<svg width="24" height="24" viewBox="0 0 24 24" fill="none" xmlns="http://www.w3.org/2000/svg">
<path d="M14 16.5C14 16.2239 13.7761 16 13.5 16C13.2239 16 13 16.2239 13 16.5H14ZM12.5 17C12.2239 17 12 17.2239 12 17.5C12 17.7761 12.2239 18 12.5 18V17ZM7.5 11C7.77614 11 8 10.7761 8 10.5C8 10.2239 7.77614 10 7.5 10V11ZM6 11.5C6 11.7761 6.22386 12 6.5 12C6.77614 12 7 11.7761 7 11.5H6ZM7 16.5C7 16.2239 6.77614 16 6.5 16C6.22386 16 6 16.2239 6 16.5H7ZM7.5 18C7.77614 18 8 17.7761 8 17.5C8 17.2239 7.77614 17 7.5 17V18ZM6 14.5C6 14.7761 6.22386 15 6.5 15C6.77614 15 7 14.7761 7 14.5H6ZM7 13.5C7 13.2239 6.77614 13 6.5 13C6.22386 13 6 13.2239 6 13.5H7ZM9.5 17C9.22386 17 9 17.2239 9 17.5C9 17.7761 9.22386 18 9.5 18V17ZM10.5 18C10.7761 18 11 17.7761 11 17.5C11 17.2239 10.7761 17 10.5 17V18ZM9.5 10C9.22386 10 9 10.2239 9 10.5C9 10.7761 9.22386 11 9.5 11V10ZM13 14.5C13 14.7761 13.2239 15 13.5 15C13.7761 15 14 14.7761 14 14.5H13ZM13 16.5V17H14V16.5H13ZM13 17H12.5V18H13V17ZM7.5 10H7V11H7.5V10ZM6 11V11.5H7V11H6ZM6 16.5V17H7V16.5H6ZM7 18H7.5V17H7V18ZM7 14.5V13.5H6V14.5H7ZM9.5 18H10.5V17H9.5V18ZM9.5 11H10V10H9.5V11ZM13 14V14.5H14V14H13ZM6 17C6 17.5523 6.44772 18 7 18V17H6ZM7 10C6.44772 10 6 10.4477 6 11H7V10ZM13 17V18C13.5523 18 14 17.5523 14 17H13Z" fill="currentColor" fill-opacity="0.3" />
<path fill-rule="evenodd" clip-rule="evenodd" d="M16.5 6C16.7761 6 17 6.22386 17 6.5V7H17.5C17.7761 7 18 7.22386 18 7.5C18 7.77614 17.7761 8 17.5 8H17V13H17.5C17.7761 13 18 13.2239 18 13.5C18 13.7761 17.7761 14 17.5 14H17V14.5C17 14.7761 16.7761 15 16.5 15C16.2239 15 16 14.7761 16 14.5V14H11V14.5C11 14.7761 10.7761 15 10.5 15C10.2239 15 10 14.7761 10 14.5V14H9.5C9.22386 14 9 13.7761 9 13.5C9 13.2239 9.22386 13 9.5 13H10V8H9.5C9.22386 8 9 7.77614 9 7.5C9 7.22386 9.22386 7 9.5 7H10V6.5C10 6.22386 10.2239 6 10.5 6C10.7761 6 11 6.22386 11 6.5V7H16V6.5C16 6.22386 16.2239 6 16.5 6ZM11 8V10H13C13.5523 10 14 10.4477 14 11V13H16V8H11ZM11 11V13H13V11H11Z" fill="currentColor" />
</svg>
