<svg width="24" height="24" viewBox="0 0 24 24" fill="none" xmlns="http://www.w3.org/2000/svg">
<path fill-rule="evenodd" clip-rule="evenodd" d="M17 18C17 18.5523 16.5523 19 16 19H8C7.44771 19 7 18.5523 7 18V6C7 5.44771 7.44771 5 8 5H12V8.5C12 9.32843 12.6716 10 13.5 10H17V18ZM16.5858 9L13 5.41422V8.5C13 8.77614 13.2239 9 13.5 9H16.5858ZM8 20H16C17.1046 20 18 19.1046 18 18V9.41422C18 9.149 17.8946 8.89464 17.7071 8.70711L13.2929 4.29289C13.1054 4.10536 12.851 4 12.5858 4H8C6.89543 4 6 4.89543 6 6V18C6 19.1046 6.89543 20 8 20Z" fill="currentColor" />
</svg>
