<svg width="24" height="24" viewBox="0 0 24 24" fill="none" xmlns="http://www.w3.org/2000/svg">
<path fill-rule="evenodd" clip-rule="evenodd" d="M7 9H17C17.5523 9 18 9.44772 18 10V14C18 14.5523 17.5523 15 17 15H7C6.44772 15 6 14.5523 6 14V10C6 9.44772 6.44772 9 7 9ZM5 10C5 8.89543 5.89543 8 7 8H17C18.1046 8 19 8.89543 19 10V14C19 15.1046 18.1046 16 17 16H7C5.89543 16 5 15.1046 5 14V10ZM12 13C12.5523 13 13 12.5523 13 12C13 11.4477 12.5523 11 12 11C11.4477 11 11 11.4477 11 12C11 12.5523 11.4477 13 12 13ZM16 12C16 12.5523 15.5523 13 15 13C14.4477 13 14 12.5523 14 12C14 11.4477 14.4477 11 15 11C15.5523 11 16 11.4477 16 12ZM9 13C9.55228 13 10 12.5523 10 12C10 11.4477 9.55228 11 9 11C8.44772 11 8 11.4477 8 12C8 12.5523 8.44772 13 9 13Z" fill="currentColor" />
</svg>
