<svg width="24" height="24" viewBox="0 0 24 24" fill="none" xmlns="http://www.w3.org/2000/svg">
<path fill-rule="evenodd" clip-rule="evenodd" d="M7.5 7H9.5C9.77614 7 10 7.22386 10 7.5V16.5C10 16.7761 9.77614 17 9.5 17H7.5C7.22386 17 7 16.7761 7 16.5V7.5C7 7.22386 7.22386 7 7.5 7ZM6 7.5C6 6.67157 6.67157 6 7.5 6H9.5C10.3284 6 11 6.67157 11 7.5V16.5C11 17.3284 10.3284 18 9.5 18H7.5C6.67157 18 6 17.3284 6 16.5V7.5ZM14.5 7H16.5C16.7761 7 17 7.22386 17 7.5V16.5C17 16.7761 16.7761 17 16.5 17H14.5C14.2239 17 14 16.7761 14 16.5V7.5C14 7.22386 14.2239 7 14.5 7ZM13 7.5C13 6.67157 13.6716 6 14.5 6H16.5C17.3284 6 18 6.67157 18 7.5V16.5C18 17.3284 17.3284 18 16.5 18H14.5C13.6716 18 13 17.3284 13 16.5V7.5Z" fill="currentColor" />
</svg>
