<svg width="24" height="24" viewBox="0 0 24 24" fill="none" xmlns="http://www.w3.org/2000/svg">
<path fill-rule="evenodd" clip-rule="evenodd" d="M6 5H8.5C9.05229 5 9.5 5.44771 9.5 6V18C9.5 18.5523 9.05229 19 8.5 19H6C5.44771 19 5 18.5523 5 18V6C5 5.44771 5.44771 5 6 5ZM4 6C4 4.89543 4.89543 4 6 4H8.5C9.60457 4 10.5 4.89543 10.5 6V18C10.5 19.1046 9.60457 20 8.5 20H6C4.89543 20 4 19.1046 4 18V6ZM15.5 5H18C18.5523 5 19 5.44771 19 6V18C19 18.5523 18.5523 19 18 19H15.5C14.9477 19 14.5 18.5523 14.5 18V6C14.5 5.44771 14.9477 5 15.5 5ZM13.5 6C13.5 4.89543 14.3954 4 15.5 4H18C19.1046 4 20 4.89543 20 6V18C20 19.1046 19.1046 20 18 20H15.5C14.3954 20 13.5 19.1046 13.5 18V6Z" fill="currentColor" />
</svg>
