<svg width="24" height="24" viewBox="0 0 24 24" fill="none" xmlns="http://www.w3.org/2000/svg">
<path fill-rule="evenodd" clip-rule="evenodd" d="M16.371 13.5946L16.4526 13.0897C16.6402 11.928 16.273 10.6873 15.2928 9.7071C15.0508 9.46509 14.6011 9.18505 13.9348 8.89716C13.2867 8.61711 12.51 8.36156 11.6843 8.134C10.4284 7.7879 9.10597 7.5192 8.03675 7.32921L11.354 10.6465C11.9115 10.3804 12.5993 10.4782 13.061 10.9399C13.6468 11.5257 13.6468 12.4754 13.061 13.0612C12.4752 13.647 11.5254 13.647 10.9397 13.0612C10.4777 12.5993 10.38 11.911 10.6467 11.3534L7.32886 8.03553C7.51886 9.105 7.78764 10.428 8.13388 11.6844C8.36143 12.5102 8.61698 13.2869 8.89703 13.935C9.18492 14.6013 9.46495 15.0509 9.70694 15.2929C10.7094 16.2954 11.947 16.6716 13.1026 16.4749L13.6121 16.3881L13.9775 16.7536L15.2087 17.9847L17.9849 15.2085L16.7327 13.9563L16.371 13.5946ZM17.4398 13.2491C17.6802 11.7608 17.2002 10.2003 15.9999 8.99999C14.4978 7.49789 9.6116 6.55995 7.27161 6.18602C6.62768 6.08311 6.08299 6.6278 6.18589 7.27173C6.55983 9.61174 7.49778 14.498 8.99984 16.0001C10.2138 17.214 11.7713 17.716 13.2704 17.4607L14.5016 18.6919C14.8921 19.0824 15.5253 19.0824 15.9158 18.6919L18.692 15.9156C19.0826 15.5251 19.0826 14.8919 18.692 14.5014L17.4398 13.2491ZM12.3539 12.3541C12.5491 12.1589 12.5491 11.8423 12.3539 11.647C12.1586 11.4518 11.842 11.4518 11.6468 11.647C11.4515 11.8423 11.4515 12.1589 11.6468 12.3541C11.842 12.5494 12.1586 12.5494 12.3539 12.3541Z" fill="currentColor" />
</svg>
