<svg width="24" height="24" viewBox="0 0 24 24" fill="none" xmlns="http://www.w3.org/2000/svg">
<path fill-rule="evenodd" clip-rule="evenodd" d="M18.1743 14.9018L18.3557 14.3237C18.8517 12.743 18.5262 10.94 16.7931 9.20679C16.3622 8.77596 15.683 8.33793 14.7943 7.91311C13.9166 7.49357 12.89 7.11284 11.8117 6.77415C9.78482 6.13759 7.63776 5.66895 6.07806 5.37103L10.9839 10.2767C11.7509 9.82356 12.7554 9.9265 13.4145 10.5856C14.1955 11.3666 14.1955 12.6329 13.4145 13.414C12.6335 14.195 11.3671 14.195 10.5861 13.414C9.92719 12.7551 9.82413 11.7509 10.2769 10.984L5.37155 6.07873C5.66943 7.63831 6.13797 9.78482 6.7744 11.8112C7.46948 14.0243 8.30573 15.8913 9.20727 16.7928C10.941 18.5266 12.744 18.8518 14.3245 18.3556L14.9026 18.174L15.3311 18.6025L16.7282 19.9996L20.0001 16.7277L18.6027 15.3302L18.1743 14.9018ZM19.3098 14.6231L20.7072 16.0206C21.0978 16.4111 21.0977 17.0443 20.7072 17.4348L17.4353 20.7067C17.0448 21.0972 16.4116 21.0972 16.0211 20.7067L14.624 19.3096C12.6498 19.9295 10.4675 19.4673 8.50017 17.4999C6.3161 15.3159 4.92709 9.15704 4.33305 5.96813C4.14991 4.98503 4.9854 4.14957 5.96849 4.33272C9.15745 4.92685 15.3164 6.31596 17.5002 8.49968C19.467 10.4665 19.9293 12.6488 19.3098 14.6231ZM12.7074 12.7069C13.0979 12.3164 13.0979 11.6832 12.7074 11.2927C12.3169 10.9021 11.6837 10.9021 11.2932 11.2927C10.9027 11.6832 10.9027 12.3164 11.2932 12.7069C11.6837 13.0974 12.3169 13.0974 12.7074 12.7069Z" fill="currentColor" />
</svg>
