<svg width="24" height="24" viewBox="0 0 24 24" fill="none" xmlns="http://www.w3.org/2000/svg">
<path fill-rule="evenodd" clip-rule="evenodd" d="M5.01362 6.16453C4.96053 5.84598 5.06454 5.52139 5.29291 5.29303C5.52127 5.06467 5.84585 4.96065 6.16441 5.01374L9.16441 5.51374C9.37 5.54801 9.55974 5.64565 9.70712 5.79303L18.3536 14.4395C18.9394 15.0253 18.9394 15.975 18.3536 16.5608L16.5607 18.3537C15.9749 18.9395 15.0251 18.9395 14.4394 18.3537L5.79291 9.70724C5.64553 9.55986 5.54788 9.37012 5.51362 9.16453L5.01362 6.16453ZM6.00001 6.00013L6.17381 7.04289L6.50001 9.00013L12.8965 15.3966L15.3965 12.8966L9.00001 6.50013L7.04277 6.17393L6.00001 6.00013ZM16.1036 13.6037L13.6036 16.1037L15.1465 17.6466C15.3417 17.8418 15.6583 17.8418 15.8536 17.6466L17.6465 15.8537C17.8417 15.6584 17.8417 15.3418 17.6465 15.1466L16.1036 13.6037Z" fill="currentColor" />
</svg>
