<svg width="24" height="24" viewBox="0 0 24 24" fill="none" xmlns="http://www.w3.org/2000/svg">
<path fill-rule="evenodd" clip-rule="evenodd" d="M3.00773 4.12392C2.96945 3.81771 3.07469 3.51098 3.2929 3.29278C3.51111 3.07457 3.81784 2.96933 4.12404 3.00761L8.12404 3.50761C8.3447 3.53519 8.54987 3.63554 8.70711 3.79278L20.5 15.5857C21.2811 16.3667 21.2811 17.633 20.5 18.4141L18.4142 20.4999C17.6332 21.2809 16.3668 21.2809 15.5858 20.4999L3.7929 8.70699C3.63566 8.54975 3.53531 8.34458 3.50773 8.12392L3.00773 4.12392ZM4.00001 3.99989L4.12798 5.02366L4.50001 7.99989L13.6465 17.1463L17.1465 13.6463L8.00001 4.49989L5.02379 4.12786L4.00001 3.99989ZM17.8536 14.3534L14.3536 17.8534L16.2929 19.7928C16.6834 20.1833 17.3166 20.1833 17.7071 19.7928L19.7929 17.707C20.1834 17.3165 20.1834 16.6833 19.7929 16.2928L17.8536 14.3534Z" fill="currentColor" />
</svg>
