<svg width="24" height="24" viewBox="0 0 24 24" fill="none" xmlns="http://www.w3.org/2000/svg">
<path fill-rule="evenodd" clip-rule="evenodd" d="M11.4764 0.0112261C11.65 0.00376663 11.8246 0 12 0C12.1754 0 12.35 0.00376666 12.5236 0.0112261C12.7995 0.0230788 13.0135 0.256339 13.0017 0.532227C12.9898 0.808114 12.7566 1.02216 12.4807 1.0103C12.3213 1.00346 12.1611 1 12 1C11.8389 1 11.6787 1.00346 11.5193 1.0103C11.2434 1.02216 11.0102 0.808114 10.9983 0.532227C10.9865 0.256339 11.2005 0.0230788 11.4764 0.0112261ZM14.0019 0.662541C14.0614 0.392891 14.3283 0.222551 14.5979 0.282077C14.9408 0.357769 15.2782 0.448126 15.6094 0.552458C15.8728 0.635426 16.019 0.916199 15.9361 1.17958C15.8531 1.44297 15.5723 1.58922 15.3089 1.50625C15.0056 1.41069 14.6965 1.32791 14.3824 1.25857C14.1127 1.19904 13.9424 0.932191 14.0019 0.662541ZM9.99811 0.662542C10.0576 0.932192 9.8873 1.19904 9.61765 1.25857C9.30351 1.32791 8.99444 1.41069 8.69106 1.50626C8.42767 1.58922 8.1469 1.44297 8.06393 1.17958C7.98096 0.9162 8.12722 0.635427 8.3906 0.552459C8.72181 0.448127 9.0592 0.357769 9.40208 0.282077C9.67173 0.222552 9.93858 0.392891 9.99811 0.662542ZM16.8679 1.56603C16.9956 1.3212 17.2976 1.22625 17.5424 1.35397C17.8528 1.51584 18.1551 1.69086 18.4487 1.87829C18.6814 2.02688 18.7497 2.33602 18.6011 2.56878C18.4525 2.80154 18.1434 2.86977 17.9106 2.72118C17.6414 2.54935 17.3643 2.38893 17.08 2.24059C16.8351 2.11288 16.7402 1.81087 16.8679 1.56603ZM7.13211 1.56603C7.25982 1.81087 7.16488 2.11288 6.92004 2.24059C6.63566 2.38893 6.35856 2.54935 6.0894 2.72118C5.85664 2.86977 5.5475 2.80154 5.39891 2.56878C5.25032 2.33603 5.31855 2.02688 5.55131 1.87829C5.84491 1.69086 6.14724 1.51584 6.45755 1.35397C6.70239 1.22625 7.0044 1.3212 7.13211 1.56603ZM19.4007 3.18333C19.5873 2.97978 19.9036 2.96606 20.1072 3.15267C20.3645 3.38856 20.6114 3.63553 20.8473 3.89282C21.0339 4.09636 21.0202 4.41265 20.8167 4.59926C20.6131 4.78587 20.2968 4.77215 20.1102 4.5686C19.8939 4.33263 19.6674 4.10612 19.4314 3.88977C19.2278 3.70316 19.2141 3.38687 19.4007 3.18333ZM4.59926 3.18333C4.78587 3.38687 4.77215 3.70316 4.5686 3.88977C4.33263 4.10612 4.10612 4.33263 3.88977 4.56861C3.70316 4.77215 3.38687 4.78588 3.18333 4.59926C2.97978 4.41265 2.96606 4.09637 3.15267 3.89282C3.38856 3.63553 3.63553 3.38856 3.89282 3.15267C4.09636 2.96606 4.41265 2.97978 4.59926 3.18333ZM21.4312 5.39891C21.664 5.25032 21.9731 5.31855 22.1217 5.55131C22.3091 5.84491 22.4842 6.14724 22.646 6.45755C22.7737 6.70239 22.6788 7.0044 22.434 7.13211C22.1891 7.25982 21.8871 7.16488 21.7594 6.92004C21.6111 6.63566 21.4506 6.35856 21.2788 6.0894C21.1302 5.85664 21.1985 5.5475 21.4312 5.39891ZM2.56878 5.39891C2.80154 5.5475 2.86977 5.85664 2.72118 6.0894C2.54935 6.35856 2.38893 6.63567 2.24059 6.92005C2.11288 7.16488 1.81087 7.25983 1.56603 7.13211C1.3212 7.0044 1.22625 6.70239 1.35397 6.45755C1.51584 6.14724 1.69086 5.84491 1.87829 5.55131C2.02688 5.31855 2.33602 5.25032 2.56878 5.39891ZM22.8204 8.06393C23.0838 7.98096 23.3646 8.12722 23.4475 8.3906C23.5519 8.72181 23.6422 9.0592 23.7179 9.40208C23.7774 9.67173 23.6071 9.93858 23.3375 9.99811C23.0678 10.0576 22.801 9.8873 22.7414 9.61765C22.6721 9.30351 22.5893 8.99444 22.4937 8.69106C22.4108 8.42767 22.557 8.1469 22.8204 8.06393ZM1.17958 8.06393C1.44297 8.1469 1.58922 8.42768 1.50625 8.69106C1.41069 8.99445 1.32791 9.30352 1.25857 9.61765C1.19904 9.8873 0.932191 10.0576 0.662541 9.99811C0.392891 9.93859 0.222551 9.67174 0.282077 9.40209C0.357769 9.0592 0.448126 8.72181 0.552458 8.39061C0.635426 8.12722 0.916199 7.98097 1.17958 8.06393ZM0.532227 10.9983C0.808114 11.0102 1.02216 11.2434 1.0103 11.5193C1.00346 11.6787 1 11.8389 1 12C1 12.1611 1.00346 12.3213 1.0103 12.4807C1.02216 12.7566 0.808114 12.9898 0.532227 13.0017C0.256339 13.0135 0.0230788 12.7995 0.0112261 12.5236C0.00376663 12.35 0 12.1754 0 12C0 11.8246 0.00376666 11.65 0.0112261 11.4764C0.0230788 11.2005 0.256339 10.9865 0.532227 10.9983ZM23.4678 10.9983C23.7437 10.9865 23.9769 11.2005 23.9888 11.4764C23.9962 11.65 24 11.8246 24 12C24 12.1754 23.9962 12.35 23.9888 12.5236C23.9769 12.7995 23.7437 13.0135 23.4678 13.0017C23.1919 12.9898 22.9778 12.7566 22.9897 12.4807C22.9965 12.3213 23 12.1611 23 12C23 11.8389 22.9965 11.6787 22.9897 11.5193C22.9778 11.2434 23.1919 11.0102 23.4678 10.9983ZM23.3375 14.0019C23.6071 14.0614 23.7774 14.3283 23.7179 14.5979C23.6422 14.9408 23.5519 15.2782 23.4475 15.6094C23.3646 15.8728 23.0838 16.019 22.8204 15.9361C22.557 15.8531 22.4108 15.5723 22.4937 15.3089C22.5893 15.0056 22.6721 14.6965 22.7414 14.3824C22.801 14.1127 23.0678 13.9424 23.3375 14.0019ZM0.662542 14.0019C0.932192 13.9424 1.19904 14.1127 1.25857 14.3824C1.32791 14.6965 1.41069 15.0056 1.50626 15.3089C1.58922 15.5723 1.44297 15.8531 1.17958 15.9361C0.9162 16.019 0.635427 15.8728 0.552459 15.6094C0.448127 15.2782 0.357769 14.9408 0.282077 14.5979C0.222552 14.3283 0.392891 14.0614 0.662542 14.0019ZM22.434 16.8679C22.6788 16.9956 22.7737 17.2976 22.646 17.5424C22.4842 17.8528 22.3091 18.1551 22.1217 18.4487C21.9731 18.6814 21.664 18.7497 21.4312 18.6011C21.1985 18.4525 21.1302 18.1434 21.2788 17.9106C21.4506 17.6414 21.6111 17.3643 21.7594 17.08C21.8871 16.8351 22.1891 16.7402 22.434 16.8679ZM1.56603 16.8679C1.81087 16.7402 2.11288 16.8351 2.24059 17.08C2.38893 17.3643 2.54935 17.6414 2.72118 17.9106C2.86977 18.1434 2.80154 18.4525 2.56878 18.6011C2.33603 18.7497 2.02688 18.6814 1.87829 18.4487C1.69086 18.1551 1.51584 17.8528 1.35397 17.5424C1.22625 17.2976 1.3212 16.9956 1.56603 16.8679ZM20.8167 19.4007C21.0202 19.5873 21.0339 19.9036 20.8473 20.1072C20.6114 20.3645 20.3645 20.6114 20.1072 20.8473C19.9036 21.0339 19.5874 21.0202 19.4007 20.8167C19.2141 20.6131 19.2279 20.2968 19.4314 20.1102C19.6674 19.8939 19.8939 19.6674 20.1102 19.4314C20.2968 19.2278 20.6131 19.2141 20.8167 19.4007ZM3.18333 19.4007C3.38687 19.2141 3.70316 19.2279 3.88977 19.4314C4.10612 19.6674 4.33263 19.8939 4.56861 20.1102C4.77215 20.2968 4.78588 20.6131 4.59926 20.8167C4.41265 21.0202 4.09637 21.0339 3.89282 20.8473C3.63553 20.6114 3.38856 20.3645 3.15267 20.1072C2.96606 19.9036 2.97978 19.5874 3.18333 19.4007ZM18.6011 21.4312C18.7497 21.664 18.6814 21.9731 18.4487 22.1217C18.1551 22.3091 17.8528 22.4842 17.5424 22.646C17.2976 22.7737 16.9956 22.6788 16.8679 22.434C16.7402 22.1891 16.8351 21.8871 17.08 21.7594C17.3643 21.6111 17.6414 21.4506 17.9106 21.2788C18.1434 21.1302 18.4525 21.1985 18.6011 21.4312ZM5.39891 21.4312C5.5475 21.1985 5.85664 21.1302 6.0894 21.2788C6.35856 21.4506 6.63567 21.6111 6.92005 21.7594C7.16488 21.8871 7.25983 22.1891 7.13211 22.434C7.0044 22.6788 6.70239 22.7737 6.45755 22.646C6.14724 22.4842 5.84491 22.3091 5.55131 22.1217C5.31855 21.9731 5.25032 21.664 5.39891 21.4312ZM15.9361 22.8204C16.019 23.0838 15.8728 23.3646 15.6094 23.4475C15.2782 23.5519 14.9408 23.6422 14.5979 23.7179C14.3283 23.7774 14.0614 23.6071 14.0019 23.3375C13.9424 23.0678 14.1127 22.801 14.3824 22.7414C14.6965 22.6721 15.0056 22.5893 15.3089 22.4937C15.5723 22.4108 15.8531 22.557 15.9361 22.8204ZM8.06393 22.8204C8.1469 22.557 8.42768 22.4108 8.69106 22.4937C8.99445 22.5893 9.30352 22.6721 9.61765 22.7414C9.8873 22.801 10.0576 23.0678 9.99811 23.3375C9.93859 23.6071 9.67174 23.7774 9.40209 23.7179C9.0592 23.6422 8.72181 23.5519 8.39061 23.4475C8.12722 23.3646 7.98097 23.0838 8.06393 22.8204ZM10.9983 23.4678C11.0102 23.1919 11.2434 22.9778 11.5193 22.9897C11.6787 22.9965 11.8389 23 12 23C12.1611 23 12.3213 22.9965 12.4807 22.9897C12.7566 22.9778 12.9898 23.1919 13.0017 23.4678C13.0135 23.7437 12.7995 23.9769 12.5236 23.9888C12.35 23.9962 12.1754 24 12 24C11.8246 24 11.65 23.9962 11.4764 23.9888C11.2005 23.9769 10.9865 23.7437 10.9983 23.4678ZM12 4.99973C11.8234 4.99973 11.6492 5.01121 11.4782 5.03351C11.473 5.03419 11.4679 5.03494 11.4628 5.03576C10.7596 5.13016 10.1142 5.40727 9.57613 5.81778C9.57226 5.82058 9.56842 5.82344 9.56461 5.82637C9.28769 6.03917 9.03947 6.2874 8.82666 6.56432C8.82423 6.56749 8.82184 6.57067 8.81949 6.57388C8.30538 7.24683 8 8.08775 8 9C8 11.2091 9.79086 13 12 13C14.143 13 15.8923 11.3148 15.9952 9.19736C15.9963 9.17481 15.9972 9.15221 15.9979 9.12957C15.9993 9.08644 16 9.04316 16 8.99973C16 8.84519 15.9912 8.69251 15.9741 8.5422C15.9716 8.52072 15.969 8.4993 15.9662 8.47792M15.9662 8.4774C15.8736 7.76806 15.5952 7.11714 15.1814 6.57509C15.1788 6.57148 15.1761 6.56789 15.1734 6.56432C14.9606 6.2874 14.7124 6.03917 14.4354 5.82637C14.4314 5.82324 14.4272 5.82018 14.4231 5.81719C13.8852 5.40706 13.2402 5.13018 12.5375 5.0358C12.5323 5.03496 12.5271 5.0342 12.5218 5.03351C12.3508 5.01121 12.1766 4.99973 12 4.99973M9.0254 9.39219C9.09474 9.92322 9.30295 10.4106 9.61238 10.8167C9.61481 10.8197 9.61721 10.8227 9.61958 10.8258C9.77943 11.0338 9.96593 11.2203 10.1739 11.3802C10.1775 11.3829 10.1809 11.3856 10.1844 11.3884C10.5867 11.6947 11.0688 11.9017 11.594 11.9728C11.5985 11.9732 11.603 11.9738 11.6076 11.9743C11.7358 11.9911 11.8668 11.9997 12 11.9997C12.1333 11.9997 12.2643 11.9911 12.3925 11.9743C12.3969 11.9738 12.4014 11.9732 12.4058 11.9728C12.9314 11.9017 13.4138 11.6945 13.8164 11.3878C13.8196 11.3853 13.8228 11.3827 13.8261 11.3802C14.0341 11.2203 14.2206 11.0338 14.3805 10.8258C14.3826 10.8231 14.3847 10.8204 14.3868 10.8177C14.7715 10.3133 15 9.68333 15 9C15 7.34315 13.6569 6 12 6C10.3868 6 9.07105 7.27325 9.00278 8.86961C9.00095 8.91273 9.00002 8.95611 9.00002 8.99973C9.00002 9.11273 9.00625 9.22409 9.01834 9.33352C9.02051 9.35314 9.02286 9.3727 9.0254 9.39219ZM14.0901 15.374C15.2228 15.7949 16.1939 16.5482 16.885 17.5152C17.0775 17.7845 17.4636 17.8531 17.696 17.6175C17.8588 17.4523 17.8818 17.1959 17.7493 17.0055C17.6263 16.8287 17.4953 16.6579 17.3569 16.4936C17.0981 16.1854 16.8119 15.8985 16.5007 15.6371C16.4924 15.6301 16.4838 15.6233 16.4751 15.6169C15.2619 14.6073 13.702 14 12.0002 14C11.5886 14 11.1852 14.0355 10.7931 14.1037C10.79 14.1042 10.7869 14.1047 10.7838 14.1052C10.7718 14.1074 10.7598 14.1095 10.7479 14.1117C9.53109 14.3315 8.42367 14.8657 7.51284 15.6273C7.50865 15.6306 7.50449 15.6339 7.50038 15.6374C7.18947 15.8978 6.90016 16.186 6.63669 16.4996C6.62844 16.5094 6.62062 16.5195 6.61325 16.5297C6.4859 16.683 6.36497 16.8418 6.25088 17.0057C6.11837 17.1961 6.14137 17.4526 6.30425 17.6177C6.53667 17.8533 6.92275 17.7847 7.11517 17.5154C7.80706 16.5472 8.77963 15.7933 9.91401 15.3726C9.92542 15.3693 9.9368 15.3657 9.94812 15.3615C10.236 15.2565 10.5325 15.1732 10.8353 15.113C11.2121 15.0389 11.6016 15 12.0002 15C12.345 15 12.6831 15.0291 13.012 15.085C13.0215 15.0872 13.0312 15.0892 13.041 15.091C13.2115 15.1212 13.3823 15.1591 13.5529 15.2048C13.7235 15.2505 13.8903 15.3031 14.0531 15.3622C14.0654 15.3666 14.0777 15.3706 14.0901 15.374Z" fill="currentColor" />
</svg>
