<svg width="24" height="24" viewBox="0 0 24 24" fill="none" xmlns="http://www.w3.org/2000/svg">
<path fill-rule="evenodd" clip-rule="evenodd" d="M9.99988 8.5C9.99988 9.32843 9.32831 10 8.49988 10C7.67145 10 6.99988 9.32843 6.99988 8.5C6.99988 7.67157 7.67145 7 8.49988 7C9.32831 7 9.99988 7.67157 9.99988 8.5ZM10.9999 8.5C10.9999 9.88071 9.88059 11 8.49988 11C7.11917 11 5.99988 9.88071 5.99988 8.5C5.99988 7.11929 7.11917 6 8.49988 6C9.88059 6 10.9999 7.11929 10.9999 8.5ZM15.5 13C14.1193 13 13 14.1193 13 15.5C13 14.814 12.8465 14.1638 12.5719 13.5819C13.1973 12.6292 14.2752 12 15.5 12C17.433 12 19 13.567 19 15.5V17.5C19 17.7761 18.7761 18 18.5 18C18.2239 18 18 17.7761 18 17.5V15.5C18 14.1193 16.8807 13 15.5 13ZM8.5 13C7.11929 13 6 14.1193 6 15.5V17.5C6 17.7761 5.77614 18 5.5 18C5.22386 18 5 17.7761 5 17.5V15.5C5 13.567 6.567 12 8.5 12C10.433 12 12 13.567 12 15.5V17.5C12 17.7761 11.7761 18 11.5 18C11.2239 18 11 17.7761 11 17.5V15.5C11 14.1193 9.88071 13 8.5 13ZM16.9999 8.5C16.9999 9.32843 16.3283 10 15.4999 10C14.6715 10 13.9999 9.32843 13.9999 8.5C13.9999 7.67157 14.6715 7 15.4999 7C16.3283 7 16.9999 7.67157 16.9999 8.5ZM17.9999 8.5C17.9999 9.88071 16.8806 11 15.4999 11C14.1192 11 12.9999 9.88071 12.9999 8.5C12.9999 7.11929 14.1192 6 15.4999 6C16.8806 6 17.9999 7.11929 17.9999 8.5Z" fill="currentColor" />
</svg>
