<svg width="24" height="24" viewBox="0 0 24 24" fill="none" xmlns="http://www.w3.org/2000/svg">
<path fill-rule="evenodd" clip-rule="evenodd" d="M15.0001 9C15.0001 10.6569 13.6569 12 12.0001 12C10.3432 12 9.00009 10.6569 9.00009 9C9.00009 7.34315 10.3432 6 12.0001 6C13.6569 6 15.0001 7.34315 15.0001 9ZM16.0001 9C16.0001 11.2091 14.2092 13 12.0001 13C9.79096 13 8.00009 11.2091 8.00009 9C8.00009 6.79086 9.79096 5 12.0001 5C14.2092 5 16.0001 6.79086 16.0001 9ZM6.25097 17.0057C6.11846 17.1961 6.14146 17.4526 6.30435 17.6177C6.53677 17.8533 6.92284 17.7847 7.11527 17.5154C8.20345 15.9926 9.98594 15 12.0003 15C14.0145 15 15.7969 15.9925 16.8851 17.5152C17.0776 17.7845 17.4637 17.8531 17.6961 17.6175C17.8589 17.4523 17.8819 17.1958 17.7494 17.0055C16.4849 15.1889 14.3814 14 12.0003 14C9.61903 14 7.51548 15.189 6.25097 17.0057Z" fill="currentColor" />
</svg>
