<svg width="24" height="24" viewBox="0 0 24 24" fill="none" xmlns="http://www.w3.org/2000/svg">
<path fill-rule="evenodd" clip-rule="evenodd" d="M12.75 4.58718C12.75 4.29075 13.0053 4.05712 13.2978 4.10485C13.8256 4.19095 14.3361 4.3287 14.8238 4.51274C15.1013 4.61745 15.2057 4.9476 15.0574 5.20447C14.9288 5.42731 14.6534 5.51536 14.4118 5.4267C14.0224 5.28376 13.6166 5.17444 13.1982 5.10226C12.9446 5.05851 12.75 4.84457 12.75 4.58718ZM5.9561 16.3556C6.17867 16.2271 6.46081 16.2882 6.62559 16.4854C6.89479 16.8077 7.19244 17.1053 7.51466 17.3745C7.71188 17.5393 7.77301 17.8214 7.64451 18.044C7.49609 18.3011 7.1576 18.3755 6.92814 18.1872C6.52085 17.8529 6.14716 17.4792 5.8129 17.072C5.62458 16.8425 5.69904 16.504 5.9561 16.3556ZM9.58812 18.5735C9.34656 18.4848 9.0712 18.5729 8.94254 18.7957C8.79424 19.0526 8.89864 19.3828 9.17614 19.4875C9.66389 19.6715 10.1743 19.8093 10.7022 19.8954C10.9947 19.9431 11.25 19.7095 11.25 19.413C11.25 19.1556 11.0554 18.9417 10.8017 18.898C10.3833 18.8258 9.97761 18.7165 9.58812 18.5735ZM17.0718 5.813C16.8424 5.62469 16.5039 5.69914 16.3554 5.95621C16.227 6.17877 16.2881 6.46092 16.4853 6.62569C16.8075 6.89491 17.1052 7.19256 17.3744 7.51479C17.5392 7.71202 17.8213 7.77315 18.0439 7.64465C18.301 7.49623 18.3754 7.15773 18.1871 6.92828C17.8528 6.52098 17.4791 6.14727 17.0718 5.813ZM14.8239 19.4875C15.1014 19.3827 15.2058 19.0526 15.0575 18.7957C14.9288 18.5729 14.6534 18.4848 14.4119 18.5735C14.0224 18.7165 13.6167 18.8258 13.1982 18.898C12.9446 18.9417 12.75 19.1556 12.75 19.413C12.75 19.7095 13.0053 19.9431 13.2978 19.8954C13.8256 19.8093 14.3361 19.6715 14.8239 19.4875ZM18.7956 15.0575C18.5728 14.9288 18.4848 14.6534 18.5734 14.4119C18.7164 14.0224 18.8257 13.6167 18.8978 13.1983C18.9416 12.9447 19.1555 12.7501 19.4129 12.7501C19.7093 12.7501 19.943 13.0054 19.8953 13.2979C19.8092 13.8257 19.6714 14.3361 19.4874 14.8239C19.3827 15.1014 19.0525 15.2058 18.7956 15.0575ZM5.95615 7.64457C6.17871 7.77307 6.46086 7.71194 6.62563 7.51472C6.89484 7.19251 7.19248 6.89487 7.51469 6.62567C7.71192 6.4609 7.77305 6.17875 7.64455 5.95619C7.49613 5.69912 7.15764 5.62467 6.92818 5.81298C6.5209 6.14724 6.14721 6.52092 5.81295 6.9282C5.62463 7.15765 5.69908 7.49615 5.95615 7.64457ZM4.51266 9.17619C4.61737 8.89868 4.94752 8.79429 5.20439 8.94259C5.42723 9.07125 5.51528 9.34661 5.42661 9.58818C5.28365 9.97767 5.17433 10.3834 5.10215 10.8019C5.0584 11.0555 4.84445 11.2501 4.58707 11.2501C4.29064 11.2501 4.057 10.9948 4.10473 10.7023C4.19084 10.1744 4.3286 9.66395 4.51266 9.17619ZM18.0439 16.3555C17.8214 16.227 17.5392 16.2881 17.3744 16.4854C17.1052 16.8076 16.8076 17.1053 16.4853 17.3745C16.2881 17.5393 16.227 17.8214 16.3555 18.044C16.5039 18.301 16.8424 18.3755 17.0719 18.1872C17.4792 17.8529 17.8529 17.4792 18.1871 17.0719C18.3755 16.8424 18.301 16.5039 18.0439 16.3555ZM9.58817 5.42669C9.34661 5.51535 9.07125 5.4273 8.94259 5.20446C8.79429 4.94759 8.89868 4.61744 9.17619 4.51273C9.66392 4.32869 10.1744 4.19095 10.7022 4.10485C10.9947 4.05712 11.25 4.29075 11.25 4.58718C11.25 4.84457 11.0554 5.05851 10.8017 5.10226C10.3833 5.17444 9.97764 5.28375 9.58817 5.42669ZM4.58706 12.7501C4.29063 12.7501 4.057 13.0054 4.10472 13.2979C4.19083 13.8257 4.32858 14.3362 4.51263 14.824C4.61734 15.1015 4.94749 15.2059 5.20436 15.0576C5.4272 14.9289 5.51525 14.6535 5.42659 14.412C5.28364 14.0225 5.17432 13.6168 5.10214 13.1983C5.05839 12.9447 4.84444 12.7501 4.58706 12.7501ZM19.4129 11.2501C19.1555 11.2501 18.9416 11.0555 18.8978 10.8019C18.8257 10.3834 18.7163 9.97774 18.5734 9.58826C18.4847 9.3467 18.5728 9.07134 18.7956 8.94269C19.0525 8.79438 19.3826 8.89878 19.4874 9.17629C19.6714 9.66402 19.8091 10.1745 19.8952 10.7023C19.943 10.9948 19.7093 11.2501 19.4129 11.2501Z" fill="currentColor" fill-opacity="0.3" />
</svg>
