<svg width="24" height="24" viewBox="0 0 24 24" fill="none" xmlns="http://www.w3.org/2000/svg">
<path fill-rule="evenodd" clip-rule="evenodd" d="M8.67408 4.23943C8.80104 4.45933 9.07129 4.54864 9.31043 4.4633C9.71319 4.31956 10.1308 4.20719 10.5605 4.12912C10.8104 4.08371 11 3.8712 11 3.61719C11 3.31717 10.7389 3.08255 10.4433 3.13408C9.91674 3.2259 9.40587 3.36349 8.91497 3.5426C8.63293 3.64551 8.52397 3.97943 8.67408 4.23943ZM6.8193 5.90379C7.01248 5.73946 7.07 5.46108 6.94319 5.24144C6.79298 4.98127 6.44899 4.90887 6.21884 5.10195C5.81479 5.44095 5.44095 5.81478 5.10196 6.21884C4.90888 6.44898 4.98128 6.79298 5.24144 6.94319C5.46108 7.06999 5.73946 7.01248 5.90379 6.8193C6.18384 6.49008 6.49009 6.18384 6.8193 5.90379ZM4.4633 9.31043C4.54865 9.07129 4.45933 8.80104 4.23943 8.67408C3.97944 8.52397 3.64551 8.63293 3.54261 8.91496C3.36349 9.40586 3.2259 9.91674 3.13408 10.4433C3.08255 10.7389 3.31717 11 3.61719 11C3.8712 11 4.08371 10.8104 4.12912 10.5605C4.20719 10.1308 4.31956 9.71318 4.4633 9.31043ZM4.12112 7.64638L4.28185 7.368C4.22667 7.45974 4.17308 7.55254 4.12112 7.64638ZM18.0962 17.1806C18.2605 16.9874 18.5389 16.9299 18.7585 17.0567C19.0187 17.2069 19.0911 17.5509 18.898 17.781C18.559 18.1851 18.1851 18.559 17.781 18.898C17.5509 19.0911 17.2069 19.0187 17.0567 18.7585C16.9299 18.5389 16.9874 18.2605 17.1806 18.0962C17.5098 17.8161 17.8161 17.5098 18.0962 17.1806ZM19.7144 16.6381C19.7721 16.5423 19.8281 16.4453 19.8823 16.3473L19.7144 16.6381ZM20.4573 15.0849C20.3544 15.3669 20.0205 15.4759 19.7605 15.3258C19.5406 15.1988 19.4513 14.9286 19.5366 14.6894C19.6804 14.2867 19.7927 13.8691 19.8708 13.4395C19.9162 13.1895 20.1287 13 20.3827 13C20.6828 13 20.9174 13.261 20.8658 13.5566C20.774 14.0832 20.6364 14.594 20.4573 15.0849ZM7.36785 4.28194L7.64653 4.12104C7.5526 4.17305 7.45969 4.2267 7.36785 4.28194ZM14.6894 19.5366C14.9286 19.4513 15.1988 19.5406 15.3258 19.7605C15.4759 20.0205 15.3669 20.3544 15.0849 20.4573C14.594 20.6364 14.0832 20.774 13.5566 20.8658C13.261 20.9174 13 20.6828 13 20.3827C13 20.1287 13.1895 19.9162 13.4395 19.8708C13.8691 19.7927 14.2867 19.6804 14.6894 19.5366ZM16.3474 19.8822C16.4454 19.828 16.5422 19.7721 16.6379 19.7145L16.3474 19.8822ZM4.12912 13.4395C4.08371 13.1895 3.8712 13 3.61719 13C3.31717 13 3.08255 13.261 3.13408 13.5566C3.2259 14.0832 3.3635 14.5941 3.54261 15.085C3.64552 15.367 3.97944 15.476 4.23944 15.3259C4.45934 15.1989 4.54865 14.9287 4.46331 14.6895C4.31956 14.2868 4.20719 13.8691 4.12912 13.4395ZM4.11965 16.3509C4.17256 16.4465 4.22716 16.5411 4.28342 16.6345L4.11965 16.3509ZM11 20.3827C11 20.6828 10.7389 20.9174 10.4433 20.8658C9.91676 20.774 9.4059 20.6364 8.91502 20.4573C8.63298 20.3544 8.52402 20.0205 8.67413 19.7605C8.80109 19.5406 9.07133 19.4513 9.31048 19.5366C9.71322 19.6804 10.1309 19.7927 10.5605 19.8708C10.8104 19.9162 11 20.1287 11 20.3827ZM7.64786 19.8796C7.55303 19.8271 7.45924 19.773 7.36654 19.7172L7.64786 19.8796ZM5.24146 17.0568C4.98129 17.207 4.90889 17.551 5.10198 17.7811C5.44097 18.1852 5.81482 18.559 6.21888 18.898C6.44903 19.0911 6.79302 19.0187 6.94323 18.7585C7.07004 18.5389 7.01252 18.2605 6.81934 18.0962C6.49011 17.8161 6.18386 17.5099 5.90381 17.1806C5.73948 16.9875 5.4611 16.9299 5.24146 17.0568ZM18.7585 6.94326C18.5389 7.07007 18.2605 7.01255 18.0962 6.81937C17.8161 6.49012 17.5099 6.18385 17.1806 5.90378C16.9874 5.73945 16.9299 5.46107 17.0567 5.24143C17.2069 4.98127 17.5509 4.90886 17.7811 5.10195C18.1852 5.44096 18.559 5.81483 18.898 6.21892C19.0911 6.44906 19.0187 6.79306 18.7585 6.94326ZM16.3487 4.11843L16.6367 4.28471C16.5418 4.22757 16.4458 4.17213 16.3487 4.11843ZM13 3.61719C13 3.31717 13.261 3.08255 13.5566 3.13408C14.0832 3.2259 14.594 3.36349 15.0849 3.5426C15.367 3.6455 15.4759 3.97943 15.3258 4.23943C15.1989 4.45932 14.9286 4.54864 14.6895 4.46329C14.2867 4.31955 13.8691 4.20718 13.4395 4.12912C13.1895 4.08371 13 3.8712 13 3.61719ZM20.3827 11C20.1287 11 19.9162 10.8104 19.8708 10.5605C19.7927 10.1309 19.6804 9.71325 19.5367 9.31052C19.4513 9.07137 19.5406 8.80113 19.7605 8.67417C20.0205 8.52406 20.3545 8.63302 20.4574 8.91506C20.6364 9.40593 20.774 9.91678 20.8658 10.4433C20.9174 10.7389 20.6828 11 20.3827 11ZM19.8809 7.65009C19.8276 7.55375 19.7726 7.4585 19.7159 7.36437L19.8809 7.65009Z" fill="currentColor" fill-opacity="0.3" />
</svg>
