<svg width="24" height="24" viewBox="0 0 24 24" fill="none" xmlns="http://www.w3.org/2000/svg">
<path fill-rule="evenodd" clip-rule="evenodd" d="M16 7.5C16 7.22386 15.7761 7 15.5 7C15.2239 7 15 7.22386 15 7.5V16.5C15 16.7761 15.2239 17 15.5 17C15.7761 17 16 16.7761 16 16.5V7.5ZM19 7.5C19 7.22386 18.7761 7 18.5 7C18.2239 7 18 7.22386 18 7.5V16.5C18 16.7761 18.2239 17 18.5 17C18.7761 17 19 16.7761 19 16.5V7.5ZM6 8.70578C6 8.15102 6.61452 7.81671 7.08028 8.11807L12.1714 11.4123C12.5977 11.6881 12.5977 12.3119 12.1714 12.5877L7.08028 15.8819C6.61452 16.1833 6 15.849 6 15.2942V8.70578ZM7.62352 7.2785C6.4924 6.5466 5 7.35852 5 8.70578V15.2942C5 16.6415 6.49242 17.4534 7.62352 16.7215L12.7146 13.4273C13.7499 12.7574 13.7499 11.2426 12.7146 10.5727L7.62352 7.2785Z" fill="currentColor" />
</svg>
