<svg width="24" height="24" viewBox="0 0 24 24" fill="none" xmlns="http://www.w3.org/2000/svg">
<path fill-rule="evenodd" clip-rule="evenodd" d="M5 6H15C15.5523 6 16 6.44772 16 7V8H9C7.89543 8 7 8.89543 7 10V15H5C4.44772 15 4 14.5523 4 14V7C4 6.44772 4.44772 6 5 6ZM19 8H17V7C17 5.89543 16.1046 5 15 5H5C3.89543 5 3 5.89543 3 7V14C3 15.1046 3.89543 16 5 16H7V17C7 18.1046 7.89543 19 9 19H19C20.1046 19 21 18.1046 21 17V10C21 8.89543 20.1046 8 19 8ZM19 9H9C8.44772 9 8 9.44772 8 10V17C8 17.5523 8.44772 18 9 18H19C19.5523 18 20 17.5523 20 17V10C20 9.44772 19.5523 9 19 9ZM13.53 11.0541C12.8639 10.6378 12 11.1167 12 11.9021V15.0979C12 15.8833 12.864 16.3622 13.53 15.9459L16.0866 14.348C16.7133 13.9563 16.7133 13.0437 16.0866 12.652L13.53 11.0541ZM13 11.9021L15.5566 13.5L13 15.0979V11.9021Z" fill="currentColor" />
</svg>
