<svg width="24" height="24" viewBox="0 0 24 24" fill="none" xmlns="http://www.w3.org/2000/svg">
<path fill-rule="evenodd" clip-rule="evenodd" d="M8 9.76372C7.91791 9.75465 7.83449 9.74999 7.74998 9.74999C7.48701 9.74999 7.23458 9.7951 7 9.87801V9V8.83718V8H8H10H11V7.06507C11 7.04325 10.9992 7.02156 10.9976 7C10.9789 6.74054 10.8516 6.49998 10.7156 6.27527C10.5788 6.04903 10.5 5.78371 10.5 5.5C10.5 4.67157 11.1716 4 12 4C12.8284 4 13.5 4.67157 13.5 5.5C13.5 5.78371 13.4212 6.04903 13.2844 6.27527C13.1484 6.49998 13.0211 6.74054 13.0024 7C13.0008 7.02156 13 7.04325 13 7.06507V8H14H16H17V8.8372V9V9.87803C16.7654 9.79511 16.513 9.75 16.25 9.75C16.1655 9.75 16.0821 9.75466 16 9.76373C14.875 9.8881 14 10.8419 14 12C14 13.1581 14.875 14.1119 16 14.2363C16.0821 14.2453 16.1655 14.25 16.25 14.25C16.513 14.25 16.7654 14.2049 17 14.122V15V15.1628V16H16H14H13V16.9349C13 16.9568 13.0008 16.9784 13.0024 17C13.0211 17.2595 13.1484 17.5 13.2844 17.7247C13.4212 17.951 13.5 18.2163 13.5 18.5C13.5 19.3284 12.8284 20 12 20C11.1716 20 10.5 19.3284 10.5 18.5C10.5 18.2163 10.5788 17.951 10.7156 17.7247C10.8516 17.5 10.9789 17.2595 10.9976 17C10.9992 16.9784 11 16.9568 11 16.9349V16H10H8H7V15.1628V15V14.122C7.23458 14.2049 7.48701 14.25 7.74998 14.25C7.83449 14.25 7.91791 14.2453 8 14.2363C9.12498 14.1119 9.99999 13.1581 9.99999 12C9.99999 10.8419 9.12498 9.88809 8 9.76372ZM9.9734 17H7C6.44772 17 6 16.5523 6 16V14.122C6 13.7973 6.15757 13.4929 6.42261 13.3055C6.68765 13.1181 7.02718 13.0709 7.33324 13.1791C7.46228 13.2247 7.6021 13.25 7.74998 13.25C8.44034 13.25 8.99999 12.6903 8.99999 12C8.99999 11.3096 8.44034 10.75 7.74998 10.75C7.6021 10.75 7.46228 10.7752 7.33324 10.8209C7.02717 10.929 6.68765 10.8819 6.42261 10.6945C6.15757 10.507 6 10.2026 6 9.87801V8C6 7.44772 6.44772 7 7 7H9.9734C9.95066 6.94932 9.91551 6.88464 9.85999 6.79286C9.63135 6.41489 9.5 5.97126 9.5 5.5C9.5 4.11929 10.6193 3 12 3C13.3807 3 14.5 4.11929 14.5 5.5C14.5 5.97126 14.3686 6.41489 14.14 6.79286L13.3462 6.31267L14.14 6.79286C14.0845 6.88464 14.0493 6.94932 14.0266 7H17C17.5523 7 18 7.44772 18 8V9.87803C18 10.2026 17.8424 10.5071 17.5774 10.6945C17.3123 10.8819 16.9728 10.929 16.6668 10.8209C16.5377 10.7753 16.3979 10.75 16.25 10.75C15.5596 10.75 15 11.3096 15 12C15 12.6904 15.5596 13.25 16.25 13.25C16.3979 13.25 16.5377 13.2247 16.6668 13.1791C16.9728 13.071 17.3123 13.1181 17.5774 13.3055C17.8424 13.4929 18 13.7974 18 14.122V16C18 16.5523 17.5523 17 17 17H14.0266C14.0493 17.0507 14.0845 17.1154 14.14 17.2071C14.3686 17.5851 14.5 18.0287 14.5 18.5C14.5 19.8807 13.3807 21 12 21C10.6193 21 9.5 19.8807 9.5 18.5C9.5 18.0287 9.63135 17.5851 9.85999 17.2071C9.91551 17.1154 9.95066 17.0507 9.9734 17Z" fill="currentColor" />
</svg>
