<svg width="24" height="24" viewBox="0 0 24 24" fill="none" xmlns="http://www.w3.org/2000/svg">
<path fill-rule="evenodd" clip-rule="evenodd" d="M8.00005 13.9998C9.10462 13.9998 10 13.1044 10 11.9998C10 10.8952 9.10462 9.9998 8.00005 9.9998V9.9498V9.0498V8.9998H8.95005H10.3H11.25V8.0498V8.03945C11.25 7.84221 11.1786 7.65483 11.1077 7.46895C11.091 7.42516 11.0743 7.38146 11.0586 7.33773C11.0207 7.23217 11 7.1184 11 6.9998C11 6.44752 11.4478 5.9998 12 5.9998C12.5523 5.9998 13 6.44752 13 6.9998C13 7.1184 12.9794 7.23217 12.9415 7.33773C12.9258 7.38146 12.9091 7.42516 12.8924 7.46895C12.8215 7.65483 12.75 7.84221 12.75 8.03945V8.0498V8.9998H13.7H15.05H16V9.0498V9.9498V9.9998C14.8955 9.9998 14 10.8952 14 11.9998C14 13.1044 14.8955 13.9998 16 13.9998V14.0498V14.9498V14.9998H15.05H13.7H12.75V15.9498V15.9602C12.75 16.1574 12.8215 16.3448 12.8924 16.5307C12.9091 16.5744 12.9258 16.6182 12.9415 16.6619C12.9794 16.7674 13 16.8812 13 16.9998C13 17.5521 12.5523 17.9998 12 17.9998C11.4478 17.9998 11 17.5521 11 16.9998C11 16.8812 11.0207 16.7674 11.0586 16.6619C11.0743 16.6182 11.091 16.5744 11.1077 16.5307C11.1786 16.3448 11.25 16.1574 11.25 15.9602V15.9498V14.9998H10.3H8.95005H8.00005V14.9498V14.0498V13.9998ZM10.3 15.9498H8.00005C7.47538 15.9498 7.05005 15.5245 7.05005 14.9998V13.9998C7.05005 13.4751 7.47538 13.0498 8.00005 13.0498C8.57995 13.0498 9.05005 12.5797 9.05005 11.9998C9.05005 11.4199 8.57995 10.9498 8.00005 10.9498C7.47538 10.9498 7.05005 10.5245 7.05005 9.9998V8.9998C7.05005 8.47513 7.47538 8.0498 8.00005 8.0498H10.3V8.04547C10.2993 8.04107 10.2972 8.02922 10.2912 8.00795C10.2779 7.96106 10.2582 7.90754 10.2201 7.80755M10.3 15.9498V15.9541C10.2993 15.9585 10.2972 15.9704 10.2912 15.9917C10.2779 16.0385 10.2582 16.0921 10.2201 16.1921L11.1077 16.5307L10.2201 16.1921L10.2188 16.1954C10.2029 16.2371 10.1834 16.2883 10.1645 16.3409L11.0586 16.6619L10.1645 16.3409C10.0901 16.548 10.05 16.7703 10.05 16.9998C10.05 18.0768 10.9231 18.9498 12 18.9498C13.077 18.9498 13.95 18.0768 13.95 16.9998C13.95 16.7703 13.91 16.548 13.8356 16.3409C13.8167 16.2882 13.7972 16.237 13.7813 16.1953L13.78 16.1921C13.7419 16.0921 13.7222 16.0385 13.7089 15.9917C13.7029 15.9704 13.7008 15.9585 13.7 15.9541V15.9498H16C16.5247 15.9498 16.95 15.5245 16.95 14.9998V13.9998C16.95 13.4751 16.5247 13.0498 16 13.0498C15.4201 13.0498 14.95 12.5797 14.95 11.9998C14.95 11.4199 15.4201 10.9498 16 10.9498C16.5247 10.9498 16.95 10.5245 16.95 9.9998V8.9998C16.95 8.47513 16.5247 8.0498 16 8.0498H13.7V8.04547C13.7008 8.04107 13.7029 8.02922 13.7089 8.00795C13.7222 7.96106 13.7419 7.90754 13.78 7.80755L13.7813 7.8042C13.7972 7.76251 13.8167 7.71134 13.8356 7.6587C13.91 7.45164 13.95 7.22936 13.95 6.9998C13.95 5.92285 13.077 5.0498 12 5.0498C10.9231 5.0498 10.05 5.92285 10.05 6.9998C10.05 7.22936 10.0901 7.45164 10.1645 7.6587C10.1834 7.71137 10.2029 7.76256 10.2188 7.80425L10.2201 7.80755" fill="currentColor" />
</svg>
