<svg width="24" height="24" viewBox="0 0 24 24" fill="none" xmlns="http://www.w3.org/2000/svg">
<path fill-rule="evenodd" clip-rule="evenodd" d="M4.5 4C4.22386 4 4 4.22386 4 4.5V6V9V10V13V14V17V18.5C4 18.7761 4.22386 19 4.5 19C4.77614 19 5 18.7761 5 18.5L5 18H16C16.5523 18 17 17.5523 17 17V14H20C20.5523 14 21 13.5523 21 13V10C21 9.44772 20.5523 9 20 9H14V6C14 5.44772 13.5523 5 13 5H5V4.5C5 4.22386 4.77614 4 4.5 4ZM5 6V9H13V6H5ZM5 10V13H16H20V10H13H5ZM5 14L5 17H16V14H5Z" fill="currentColor" />
</svg>
