<svg width="24" height="24" viewBox="0 0 24 24" fill="none" xmlns="http://www.w3.org/2000/svg">
<path fill-rule="evenodd" clip-rule="evenodd" d="M15 7H9V8H15V7ZM16 7V8H17V7H16ZM7 7H8V8H7V7ZM17 9H7L7 17H17V9ZM7 6C6.44772 6 6 6.44772 6 7V17C6 17.5523 6.44772 18 7 18H17C17.5523 18 18 17.5523 18 17V7C18 6.44772 17.5523 6 17 6H7ZM12.5361 13.5784L12.7408 13.4555L13.1427 13.2144C13.3045 13.1173 13.3045 12.8827 13.1427 12.7856L12.7408 12.5445L12.5361 12.4216L12.5282 12.4169L12 12.1L11.9855 12.0913L11.7359 11.9415L11.3786 11.7272C11.212 11.6272 11 11.7472 11 11.9415V12.3582V12.6493V12.6662V13.3338V13.3507V13.6418V14.0585C11 14.2528 11.212 14.3728 11.3786 14.2728L11.7359 14.0585L11.9855 13.9087L12 13.9L12.5282 13.5831L12.5361 13.5784ZM13.6572 11.9281L11.8931 10.8697C11.06 10.3698 10 10.9699 10 11.9415V14.0585C10 15.0301 11.06 15.6302 11.8931 15.1303L13.6572 14.0719C14.4664 13.5864 14.4664 12.4136 13.6572 11.9281Z" fill="currentColor" />
</svg>
