<svg width="24" height="24" viewBox="0 0 24 24" fill="none" xmlns="http://www.w3.org/2000/svg">
<path fill-rule="evenodd" clip-rule="evenodd" d="M16 5H8V7H16V5ZM17 5V7H19V5.5C19 5.22386 18.7761 5 18.5 5H17ZM5.5 5H7V7H5V5.5C5 5.22386 5.22386 5 5.5 5ZM19 8H5V18.5C5 18.7761 5.22386 19 5.5 19H18.5C18.7761 19 19 18.7761 19 18.5V8ZM5.5 4C4.67157 4 4 4.67157 4 5.5V18.5C4 19.3284 4.67157 20 5.5 20H18.5C19.3284 20 20 19.3284 20 18.5V5.5C20 4.67157 19.3284 4 18.5 4H5.5ZM13.561 14.0869L13.7259 13.9838L14.1608 13.712C14.3175 13.6141 14.3175 13.3859 14.1608 13.288L13.7259 13.0162L13.561 12.9131L13.5566 12.9104L11.5 11.625L11.4827 11.6142L11.2217 11.4511L10.8825 11.2391C10.716 11.135 10.5 11.2547 10.5 11.4511V11.8511V12.1589V12.1792V14.8208V14.8411V15.1489V15.5489C10.5 15.7453 10.716 15.865 10.8825 15.7609L11.2217 15.5489L11.4827 15.3858L11.5 15.375L13.5566 14.0896L13.561 14.0869ZM14.6908 12.44L11.4125 10.3911C10.5799 9.87071 9.5 10.4693 9.5 11.4511V15.5489C9.5 16.5307 10.5799 17.1293 11.4125 16.6089L14.6908 14.56C15.4741 14.0704 15.4741 12.9296 14.6908 12.44Z" fill="currentColor" />
</svg>
