<svg width="24" height="24" viewBox="0 0 24 24" fill="none" xmlns="http://www.w3.org/2000/svg">
<path fill-rule="evenodd" clip-rule="evenodd" d="M8.20692 10C8.33953 10 8.4667 9.94732 8.56047 9.85355L11.8232 6.5908C11.9209 6.49317 12.0791 6.49317 12.1768 6.5908L17.409 11.823C17.5066 11.9207 17.5066 12.079 17.409 12.1766L12.1768 17.4088C12.0791 17.5065 11.9209 17.5065 11.8232 17.4088L8.56085 14.1464C8.46708 14.0527 8.3399 14 8.20729 14C7.76184 14 7.53876 14.5386 7.85374 14.8536L11.1161 18.1159C11.6043 18.6041 12.3957 18.6041 12.8839 18.1159L18.1161 12.8837C18.6043 12.3955 18.6043 11.6041 18.1161 11.1159L12.8839 5.88369C12.3957 5.39554 11.6043 5.39554 11.1161 5.8837L7.85337 9.14645C7.53838 9.46143 7.76147 10 8.20692 10ZM14 12C14 13.1046 13.1046 14 12 14C11.0681 14 10.285 13.3626 10.063 12.5H6C5.72386 12.5 5.5 12.2761 5.5 12C5.5 11.7239 5.72386 11.5 6 11.5H10.063C10.285 10.6374 11.0681 10 12 10C13.1046 10 14 10.8954 14 12ZM11 12C11 12.5523 11.4477 13 12 13C12.5523 13 13 12.5523 13 12C13 11.4477 12.5523 11 12 11C11.4477 11 11 11.4477 11 12Z" fill="currentColor" />
</svg>
