<svg width="24" height="24" viewBox="0 0 24 24" fill="none" xmlns="http://www.w3.org/2000/svg">
<path d="M12.698 17.1289C12.5322 17.4568 12.7705 17.8443 13.138 17.8443C13.3244 17.8443 13.4948 17.7392 13.5785 17.5727L16.7866 11.1885C16.841 11.0802 16.8693 10.9607 16.8693 10.8396C16.8693 10.4104 16.5214 10.0625 16.0923 10.0625H12.2641C12.0102 10.0625 11.8043 10.2683 11.8043 10.5223C11.8043 10.7762 12.0102 10.982 12.2641 10.982H15.7259C15.7531 10.982 15.775 11.004 15.775 11.0311C15.775 11.0388 15.7732 11.0464 15.7698 11.0533L12.698 17.1289Z" fill="currentColor" />
<path d="M9.31417 10.0625C9.75807 10.0625 10.1179 10.4224 10.1179 10.8663V15.3142C10.1179 15.607 9.88061 15.8443 9.58786 15.8443C9.29512 15.8443 9.0578 15.607 9.0578 15.3142V11.1805C9.0578 11.1611 9.0421 11.1454 9.02272 11.1454C9.01586 11.1454 9.00915 11.1474 9.00343 11.1512L7.80533 11.9403C7.51621 12.1307 7.13135 11.9233 7.13135 11.5771C7.13135 11.431 7.20477 11.2946 7.32678 11.2141L8.87167 10.1953C9.003 10.1087 9.15686 10.0625 9.31417 10.0625Z" fill="currentColor" />
</svg>
