<svg width="24" height="24" viewBox="0 0 24 24" fill="none" xmlns="http://www.w3.org/2000/svg">
<path d="M9.13986 8.21826C9.58376 8.21826 9.94361 8.57811 9.94361 9.02201V15.47C9.94361 15.7628 9.70629 16.0001 9.41355 16.0001C9.1208 16.0001 8.88349 15.7628 8.88349 15.47V9.33626C8.88349 9.31689 8.86778 9.30118 8.84841 9.30118C8.84155 9.30118 8.83484 9.30319 8.82911 9.30696L7.63101 10.096C7.3419 10.2864 6.95703 10.0791 6.95703 9.73287C6.95703 9.58672 7.03045 9.45034 7.15246 9.36988L8.69736 8.35104C8.82868 8.26443 8.98254 8.21826 9.13986 8.21826Z" fill="currentColor" />
<path d="M13.3125 16.0001C12.9451 16.0001 12.7068 15.6126 12.8726 15.2846L15.9443 9.20903C15.9478 9.20217 15.9496 9.19458 15.9496 9.18688C15.9496 9.15977 15.9276 9.13779 15.9005 9.13779H12.4386C12.1847 9.13779 11.9789 8.93195 11.9789 8.67803C11.9789 8.42411 12.1847 8.21826 12.4386 8.21826H16.2668C16.696 8.21826 17.0439 8.56617 17.0439 8.99533C17.0439 9.11649 17.0156 9.23597 16.9612 9.34423L13.753 15.7284C13.6694 15.895 13.4989 16.0001 13.3125 16.0001Z" fill="currentColor" />
</svg>
