<svg width="24" height="24" viewBox="0 0 24 24" fill="none" xmlns="http://www.w3.org/2000/svg">
<path fill-rule="evenodd" clip-rule="evenodd" d="M13.4176 18.6282C12.6548 18.8697 11.8426 19 11 19C6.58173 19 3 15.4183 3 11C3 6.58173 6.58173 3 11 3C15.4183 3 19 6.58173 19 11C19 11.8426 18.8697 12.6548 18.6282 13.4176L20.3511 14.0637C20.761 14.2174 21.0233 14.6198 20.9984 15.0569C20.9735 15.4939 20.6672 15.864 20.2425 15.9701L16.8246 16.8246L15.9701 20.2425C15.864 20.6672 15.4939 20.9735 15.0569 20.9984C14.6198 21.0233 14.2174 20.761 14.0637 20.3511L13.4176 18.6282ZM13.0658 17.6902C12.4128 17.8916 11.7191 18 11 18C7.134 18 4 14.866 4 11C4 7.134 7.134 4 11 4C14.866 4 18 7.134 18 11C18 11.7191 17.8916 12.4128 17.6902 13.0658L15.8124 12.3616C15.9346 11.9287 16 11.472 16 11C16 8.23857 13.7614 6 11 6C8.23857 6 6 8.23857 6 11C6 13.7614 8.23857 16 11 16C11.472 16 11.9287 15.9346 12.3616 15.8124L13.0658 17.6902ZM12.0089 14.8717C11.6866 14.9554 11.3485 15 11 15C8.79086 15 7 13.2091 7 11C7 8.79086 8.79086 7 11 7C13.2091 7 15 8.79086 15 11C15 11.3485 14.9554 11.6866 14.8717 12.0089L12.9778 11.2987C12.9924 11.2012 13 11.1015 13 11C13 9.89543 12.1046 9 11 9C9.89543 9 9 9.89543 9 11C9 12.1046 9.89543 13 11 13C11.1015 13 11.2012 12.9924 11.2987 12.9778L12.0089 14.8717ZM12 11C11.7394 11 11.4838 11.102 11.2929 11.2929C11.102 11.4838 11 11.7394 11 12C10.4477 12 10 11.5523 10 11C10 10.4477 10.4477 10 11 10C11.5523 10 12 10.4477 12 11ZM18.2912 15.4272L16 16L15.4272 18.2912L15 20L14.3815 18.3508L12.466 13.2428L12 12L13.2428 12.466L18.3508 14.3815L20 15L18.2912 15.4272Z" fill="currentColor" />
</svg>
