<svg width="24" height="24" viewBox="0 0 24 24" fill="none" xmlns="http://www.w3.org/2000/svg">
<path fill-rule="evenodd" clip-rule="evenodd" d="M12.4653 17.7382C12.2321 17.9683 12.076 18 12 18C11.924 18 11.7679 17.9683 11.5347 17.7382C11.2972 17.5038 11.0375 17.1151 10.7978 16.5558C10.364 15.5435 10.0603 14.1232 10.008 12.5H13.992C13.9397 14.1232 13.636 15.5435 13.2022 16.5558C12.9625 17.1151 12.7028 17.5038 12.4653 17.7382ZM13.992 11.5H10.008C10.0603 9.87683 10.364 8.45646 10.7978 7.44417C11.0375 6.8849 11.2972 6.4962 11.5347 6.26184C11.7679 6.03173 11.924 6 12 6C12.076 6 12.2321 6.03173 12.4653 6.26184C12.7028 6.4962 12.9625 6.8849 13.2022 7.44417C13.636 8.45646 13.9397 9.87683 13.992 11.5ZM14.9925 12.5C14.9266 14.6763 14.4344 16.578 13.7096 17.7529C16.0368 17.0624 17.7734 14.9982 17.9795 12.5H14.9925ZM17.9795 11.5C17.7734 9.00183 16.0368 6.93761 13.7096 6.24707C14.4344 7.42203 14.9266 9.32368 14.9925 11.5H17.9795ZM9.00753 11.5C9.07336 9.32368 9.56556 7.42203 10.2904 6.24707C7.96316 6.93761 6.22663 9.00183 6.02054 11.5H9.00753ZM6.02054 12.5C6.22663 14.9982 7.96316 17.0624 10.2904 17.7529C9.56556 16.578 9.07336 14.6763 9.00753 12.5H6.02054ZM19 12C19 8.13401 15.866 5 12 5C8.13401 5 5 8.13401 5 12C5 15.866 8.13401 19 12 19C15.866 19 19 15.866 19 12Z" fill="currentColor" />
</svg>
