<svg width="24" height="24" viewBox="0 0 24 24" fill="none" xmlns="http://www.w3.org/2000/svg">
<path fill-rule="evenodd" clip-rule="evenodd" d="M11.0003 15.4438C10.7348 14.6529 10.5512 13.6387 10.5092 12.5H12.1458C12.51 12.0932 12.947 11.753 13.4364 11.5H10.5092C10.559 10.1513 10.8073 8.97708 11.1553 8.14197C11.3514 7.67141 11.5594 7.35589 11.7393 7.17329C11.8264 7.08484 11.8942 7.0405 11.937 7.01949C11.9761 7.00026 11.9947 7 12 7C12.0053 7 12.0239 7.00026 12.063 7.01949C12.1058 7.0405 12.1736 7.08484 12.2607 7.17329C12.4406 7.35589 12.6486 7.67141 12.8447 8.14197C13.1903 8.97147 13.4377 10.1355 13.4898 11.4729C13.799 11.3182 14.1285 11.1981 14.4732 11.1177C14.3763 9.54014 14.0236 8.16241 13.5195 7.23507C15.303 7.80333 16.6521 9.34522 16.942 11.236C17.3177 11.363 17.6712 11.5383 17.9951 11.7545C17.8663 8.55461 15.2315 6 12 6C8.68629 6 6 8.68629 6 12C6 15.2315 8.55461 17.8663 11.7545 17.9951C11.2779 17.281 11 16.4229 11 15.5C11 15.4812 11.0001 15.4625 11.0003 15.4438ZM10.4805 7.23507C9.93607 8.2366 9.56825 9.76346 9.50856 11.5H7.02469C7.22429 9.48963 8.61466 7.82956 10.4805 7.23507ZM10.4805 16.7649C8.61466 16.1704 7.22429 14.5104 7.02469 12.5H9.50856C9.56825 14.2365 9.93607 15.7634 10.4805 16.7649ZM15.5 18C16.8807 18 18 16.8807 18 15.5C18 14.1193 16.8807 13 15.5 13C14.1193 13 13 14.1193 13 15.5C13 16.8807 14.1193 18 15.5 18ZM15.5 19C17.433 19 19 17.433 19 15.5C19 13.567 17.433 12 15.5 12C13.567 12 12 13.567 12 15.5C12 17.433 13.567 19 15.5 19ZM16.9472 14.7236C17.0707 14.4766 16.9706 14.1763 16.7236 14.0528C16.4766 13.9293 16.1763 14.0294 16.0528 14.2764L15.363 15.6559L14.8536 15.1464C14.6583 14.9512 14.3417 14.9512 14.1464 15.1464C13.9512 15.3417 13.9512 15.6583 14.1464 15.8536L15.1464 16.8536C15.2601 16.9672 15.4214 17.0193 15.5801 16.9935C15.7387 16.9678 15.8753 16.8674 15.9472 16.7236L16.9472 14.7236Z" fill="currentColor" />
</svg>
