<svg width="24" height="24" viewBox="0 0 24 24" fill="none" xmlns="http://www.w3.org/2000/svg">
<path fill-rule="evenodd" clip-rule="evenodd" d="M6.59105 11.8233L11.8233 6.59105C11.9209 6.49341 12.0792 6.49342 12.1768 6.59105L17.4091 11.8233C17.5067 11.9209 17.5067 12.0792 17.4091 12.1768L14.6465 14.9394C14.5527 15.0332 14.5001 15.1603 14.5001 15.2929C14.5001 15.7384 15.0386 15.9615 15.3536 15.6465L18.1162 12.8839C18.6043 12.3958 18.6043 11.6043 18.1162 11.1162L12.8839 5.88394C12.3958 5.39578 11.6043 5.39578 11.1162 5.88394L5.88394 11.1162C5.39578 11.6043 5.39578 12.3958 5.88394 12.8839L8.6465 15.6465C8.96149 15.9615 9.50006 15.7384 9.50006 15.2929C9.50006 15.1603 9.44738 15.0332 9.35361 14.9394L6.59105 12.1768C6.49341 12.0792 6.49342 11.9209 6.59105 11.8233ZM12.4962 13.938C12.4988 13.9583 12.5001 13.9791 12.5001 14.0001V18.0001C12.5001 18.2762 12.2762 18.5001 12.0001 18.5001C11.7239 18.5001 11.5001 18.2762 11.5001 18.0001V14.0001C11.5001 13.9791 11.5014 13.9583 11.5039 13.938C10.6393 13.7173 10.0001 12.9333 10.0001 12.0001C10.0001 10.8955 10.8955 10.0001 12.0001 10.0001C13.1046 10.0001 14.0001 10.8955 14.0001 12.0001C14.0001 12.9333 13.3608 13.7173 12.4962 13.938ZM13.0001 12.0001C13.0001 12.5523 12.5523 13.0001 12.0001 13.0001C11.4478 13.0001 11.0001 12.5523 11.0001 12.0001C11.0001 11.4478 11.4478 11.0001 12.0001 11.0001C12.5523 11.0001 13.0001 11.4478 13.0001 12.0001Z" fill="currentColor" />
</svg>
