<svg width="24" height="24" viewBox="0 0 24 24" fill="none" xmlns="http://www.w3.org/2000/svg">
<path fill-rule="evenodd" clip-rule="evenodd" d="M17.9999 7C17.9999 8.10457 17.1045 9 15.9999 9C14.8954 9 13.9999 8.10457 13.9999 7C13.9999 5.89543 14.8954 5 15.9999 5C17.1045 5 17.9999 5.89543 17.9999 7ZM15.9999 8C16.5522 8 16.9999 7.55229 16.9999 7C16.9999 6.44771 16.5522 6 15.9999 6C15.4476 6 14.9999 6.44771 14.9999 7C14.9999 7.55229 15.4476 8 15.9999 8ZM15.9999 15C16.2761 15 16.4999 15.2239 16.4999 15.5V16.5H17.4999C17.7761 16.5 17.9999 16.7239 17.9999 17C17.9999 17.2761 17.7761 17.5 17.4999 17.5H16.4999V18.5C16.4999 18.7761 16.2761 19 15.9999 19C15.7238 19 15.4999 18.7761 15.4999 18.5V17.5H14.4999C14.2238 17.5 13.9999 17.2761 13.9999 17C13.9999 16.7239 14.2238 16.5 14.4999 16.5H15.4999V15.5C15.4999 15.2239 15.7238 15 15.9999 15ZM8.56412 7.61991L7.97531 9.97515L5.62007 10.564C4.12533 10.9376 4.12535 13.0619 5.62007 13.4356L7.97531 14.0244L8.56412 16.3796C8.93781 17.8744 11.0621 17.8744 11.4357 16.3796L12.0246 14.0244L14.3798 13.4356C15.8745 13.0619 15.8745 10.9376 14.3798 10.564L12.0246 9.97515L11.4357 7.61991C11.0621 6.12518 8.9378 6.12518 8.56412 7.61991ZM9.53426 7.86245L8.79993 10.7998L5.86261 11.5341C5.37783 11.6553 5.37783 12.3442 5.86261 12.4654L8.79993 13.1998L9.53426 16.1371C9.65546 16.6219 10.3444 16.6219 10.4656 16.1371L11.1999 13.1998L14.1373 12.4654C14.622 12.3442 14.622 11.6553 14.1373 11.5341L11.1999 10.7998L10.4656 7.86245C10.3444 7.37767 9.65546 7.37767 9.53426 7.86245Z" fill="currentColor" />
</svg>
