<svg width="24" height="24" viewBox="0 0 24 24" fill="none" xmlns="http://www.w3.org/2000/svg">
<path fill-rule="evenodd" clip-rule="evenodd" d="M19.9999 5.5C19.9999 6.88071 18.8806 8 17.4999 8C16.1192 8 14.9999 6.88071 14.9999 5.5C14.9999 4.11929 16.1192 3 17.4999 3C18.8806 3 19.9999 4.11929 19.9999 5.5ZM17.4999 7C18.3283 7 18.9999 6.32843 18.9999 5.5C18.9999 4.67157 18.3283 4 17.4999 4C16.6715 4 15.9999 4.67157 15.9999 5.5C15.9999 6.32843 16.6715 7 17.4999 7ZM17.4999 16C17.776 16 17.9999 16.2239 17.9999 16.5V18H19.4999C19.776 18 19.9999 18.2239 19.9999 18.5C19.9999 18.7761 19.776 19 19.4999 19H17.9999V20.5C17.9999 20.7761 17.776 21 17.4999 21C17.2237 21 16.9999 20.7761 16.9999 20.5V19H15.4999C15.2237 19 14.9999 18.7761 14.9999 18.5C14.9999 18.2239 15.2237 18 15.4999 18H16.9999V16.5C16.9999 16.2239 17.2237 16 17.4999 16ZM8.82966 5.26071L7.71265 9.17021L3.7873 10.3008L4.06406 11.2617L3.7873 10.3008C2.08488 10.7911 2.09201 13.2059 3.79731 13.6861L7.71372 14.7891L8.82966 18.6948C9.31595 20.3968 11.7279 20.3968 12.2142 18.6948L13.3308 14.7867L17.239 13.6701C18.941 13.1838 18.941 10.7718 17.239 10.2855L13.3308 9.16888L12.2142 5.26071C11.7279 3.55872 9.31595 3.55872 8.82966 5.26071ZM4.06839 12.7236C3.33201 12.5162 3.32893 11.4734 4.06406 11.2617L8.52193 9.97778L9.79119 5.53543C10.0012 4.80048 11.0427 4.80048 11.2527 5.53543L12.5219 9.97778L16.9643 11.247C17.6992 11.457 17.6992 12.4985 16.9643 12.7085L12.5219 13.9778L11.2527 18.4201C11.0427 19.1551 10.0012 19.1551 9.79119 18.4201L8.52193 13.9778L4.06839 12.7236Z" fill="currentColor" />
</svg>
