<svg width="24" height="24" viewBox="0 0 24 24" fill="none" xmlns="http://www.w3.org/2000/svg">
<path fill-rule="evenodd" clip-rule="evenodd" d="M12.4781 8L12.5 8H15.5C15.7761 8 16 8.22386 16 8.5C16 8.77614 15.7761 9 15.5 9H12.5C11.7917 9 11.2905 9.00039 10.8987 9.0324C10.5128 9.06393 10.2772 9.12365 10.092 9.21799C9.71569 9.40973 9.40973 9.71569 9.21799 10.092C9.12365 10.2772 9.06393 10.5128 9.0324 10.8987C9.00039 11.2905 9 11.7917 9 12.5V15.5C9 15.7761 8.77614 16 8.5 16C8.22386 16 8 15.7761 8 15.5V12.5L8 12.4781C8 11.7966 7.99999 11.2546 8.03572 10.8173C8.07231 10.3695 8.14884 9.98765 8.32698 9.63803C8.6146 9.07354 9.07354 8.6146 9.63803 8.32698C9.98765 8.14884 10.3695 8.07231 10.8173 8.03572C11.2546 7.99999 11.7966 8 12.4781 8Z" fill="currentColor" />
</svg>
