<svg width="24" height="24" viewBox="0 0 24 24" fill="none" xmlns="http://www.w3.org/2000/svg">
<path fill-rule="evenodd" clip-rule="evenodd" d="M11.5219 8L11.5 8H8.5C8.22386 8 8 8.22386 8 8.5C8 8.77614 8.22386 9 8.5 9H11.5C12.2083 9 12.7095 9.00039 13.1013 9.0324C13.4872 9.06393 13.7228 9.12365 13.908 9.21799C14.2843 9.40973 14.5903 9.71569 14.782 10.092C14.8764 10.2772 14.9361 10.5128 14.9676 10.8987C14.9996 11.2905 15 11.7917 15 12.5V15.5C15 15.7761 15.2239 16 15.5 16C15.7761 16 16 15.7761 16 15.5V12.5V12.4781C16 11.7966 16 11.2546 15.9643 10.8173C15.9277 10.3695 15.8512 9.98765 15.673 9.63803C15.3854 9.07354 14.9265 8.6146 14.362 8.32698C14.0123 8.14884 13.6305 8.07231 13.1827 8.03572C12.7454 7.99999 12.2034 8 11.5219 8Z" fill="currentColor" />
</svg>
