<svg width="24" height="24" viewBox="0 0 24 24" fill="none" xmlns="http://www.w3.org/2000/svg">
<path fill-rule="evenodd" clip-rule="evenodd" d="M12.4781 16H12.5H15.5C15.7761 16 16 15.7761 16 15.5C16 15.2239 15.7761 15 15.5 15H12.5C11.7917 15 11.2905 14.9996 10.8987 14.9676C10.5128 14.9361 10.2772 14.8764 10.092 14.782C9.71569 14.5903 9.40973 14.2843 9.21799 13.908C9.12365 13.7228 9.06393 13.4872 9.0324 13.1013C9.00039 12.7095 9 12.2083 9 11.5V8.5C9 8.22386 8.77614 8 8.5 8C8.22386 8 8 8.22386 8 8.5V11.5L8 11.5219C8 12.2034 7.99999 12.7454 8.03572 13.1827C8.07231 13.6305 8.14884 14.0123 8.32698 14.362C8.6146 14.9265 9.07354 15.3854 9.63803 15.673C9.98765 15.8512 10.3695 15.9277 10.8173 15.9643C11.2546 16 11.7966 16 12.4781 16Z" fill="currentColor" />
</svg>
