<svg width="24" height="24" viewBox="0 0 24 24" fill="none" xmlns="http://www.w3.org/2000/svg">
<path fill-rule="evenodd" clip-rule="evenodd" d="M11.5219 16H11.5H8.5C8.22386 16 8 15.7761 8 15.5C8 15.2239 8.22386 15 8.5 15H11.5C12.2083 15 12.7095 14.9996 13.1013 14.9676C13.4872 14.9361 13.7228 14.8764 13.908 14.782C14.2843 14.5903 14.5903 14.2843 14.782 13.908C14.8764 13.7228 14.9361 13.4872 14.9676 13.1013C14.9996 12.7095 15 12.2083 15 11.5V8.5C15 8.22386 15.2239 8 15.5 8C15.7761 8 16 8.22386 16 8.5V11.5V11.5219C16 12.2034 16 12.7454 15.9643 13.1827C15.9277 13.6305 15.8512 14.0123 15.673 14.362C15.3854 14.9265 14.9265 15.3854 14.362 15.673C14.0123 15.8512 13.6305 15.9277 13.1827 15.9643C12.7454 16 12.2034 16 11.5219 16Z" fill="currentColor" />
</svg>
