<svg width="24" height="24" viewBox="0 0 24 24" fill="none" xmlns="http://www.w3.org/2000/svg">
<path fill-rule="evenodd" clip-rule="evenodd" d="M15.5 6H8.5C8.22386 6 8 6.22386 8 6.5V17.5C8 17.7761 8.22386 18 8.5 18H15.5C15.7761 18 16 17.7761 16 17.5V6.5C16 6.22386 15.7761 6 15.5 6ZM8.5 5C7.67157 5 7 5.67157 7 6.5V17.5C7 18.3284 7.67157 19 8.5 19H15.5C16.3284 19 17 18.3284 17 17.5V6.5C17 5.67157 16.3284 5 15.5 5H8.5ZM13.8535 8.14645C14.0488 8.34171 14.0488 8.65829 13.8535 8.85355L11.8535 10.8535C11.6583 11.0488 11.3417 11.0488 11.1465 10.8535L10.1465 9.85355C9.95119 9.65829 9.95119 9.34171 10.1465 9.14645C10.3417 8.95119 10.6583 8.95119 10.8535 9.14645L11.5 9.79289L13.1465 8.14645C13.3417 7.95119 13.6583 7.95119 13.8535 8.14645ZM13.8535 13.8535C14.0488 13.6583 14.0488 13.3417 13.8535 13.1465C13.6583 12.9512 13.3417 12.9512 13.1465 13.1465L11.5 14.7929L10.8535 14.1465C10.6583 13.9512 10.3417 13.9512 10.1465 14.1465C9.95119 14.3417 9.95119 14.6583 10.1465 14.8535L11.1465 15.8535C11.3417 16.0488 11.6583 16.0488 11.8535 15.8535L13.8535 13.8535Z" fill="currentColor" />
</svg>
