<svg width="24" height="24" viewBox="0 0 24 24" fill="none" xmlns="http://www.w3.org/2000/svg">
<path fill-rule="evenodd" clip-rule="evenodd" d="M17.0149 4.44026L16.7 5.69997L15.4403 6.0149C14.9353 6.14114 14.9353 6.8588 15.4403 6.98504L16.7 7.29997L17.0149 8.55969C17.1412 9.06466 17.8588 9.06466 17.9851 8.55969L18.3 7.29997L19.5597 6.98504C20.0647 6.8588 20.0647 6.14114 19.5597 6.0149L18.3 5.69997L17.9851 4.44026C17.8588 3.93528 17.1412 3.93528 17.0149 4.44026ZM10.3536 11.1464C10.1583 10.9512 9.84171 10.9512 9.64645 11.1464L7 13.7929V12.5C7 12.2239 6.77614 12 6.5 12C6.22386 12 6 12.2239 6 12.5V15V16.5C6 17.3284 6.67157 18 7.5 18H15.5H16H16.5C17.3284 18 18 17.3284 18 16.5C18 16.2239 17.7761 16 17.5 16C17.2239 16 17 16.2239 17 16.5C17 16.7761 16.7761 17 16.5 17H16.2071L10.3536 11.1464ZM7 16.5V15.2071L10 12.2071L14.7929 17H7.5C7.22386 17 7 16.7761 7 16.5ZM7.5 7C7.22386 7 7 7.22386 7 7.5C7 7.77614 6.77614 8 6.5 8C6.22386 8 6 7.77614 6 7.5C6 6.67157 6.67157 6 7.5 6C7.77614 6 8 6.22386 8 6.5C8 6.77614 7.77614 7 7.5 7ZM9 6.5C9 6.22386 9.22386 6 9.5 6H10.5C10.7761 6 11 6.22386 11 6.5C11 6.77614 10.7761 7 10.5 7H9.5C9.22386 7 9 6.77614 9 6.5ZM12 6.5C12 6.22386 12.2239 6 12.5 6H13.5C13.7761 6 14 6.22386 14 6.5C14 6.77614 13.7761 7 13.5 7H12.5C12.2239 7 12 6.77614 12 6.5ZM6.5 9C6.77614 9 7 9.22386 7 9.5V10.5C7 10.7761 6.77614 11 6.5 11C6.22386 11 6 10.7761 6 10.5V9.5C6 9.22386 6.22386 9 6.5 9ZM17.5 10C17.7761 10 18 10.2239 18 10.5V11.5C18 11.7761 17.7761 12 17.5 12C17.2239 12 17 11.7761 17 11.5V10.5C17 10.2239 17.2239 10 17.5 10ZM17.5 13C17.7761 13 18 13.2239 18 13.5V14.5C18 14.7761 17.7761 15 17.5 15C17.2239 15 17 14.7761 17 14.5V13.5C17 13.2239 17.2239 13 17.5 13ZM13.3536 8.64645C13.1583 8.45118 12.8417 8.45118 12.6464 8.64645C12.4512 8.84171 12.4512 9.15829 12.6464 9.35355L13.2929 10L12.6464 10.6464C12.4512 10.8417 12.4512 11.1583 12.6464 11.3536C12.8417 11.5488 13.1583 11.5488 13.3536 11.3536L14 10.7071L14.6464 11.3536C14.8417 11.5488 15.1583 11.5488 15.3536 11.3536C15.5488 11.1583 15.5488 10.8417 15.3536 10.6464L14.7071 10L15.3536 9.35355C15.5488 9.15829 15.5488 8.84171 15.3536 8.64645C15.1583 8.45118 14.8417 8.45118 14.6464 8.64645L14 9.29289L13.3536 8.64645Z" fill="currentColor" />
</svg>
