<svg width="24" height="24" viewBox="0 0 24 24" fill="none" xmlns="http://www.w3.org/2000/svg">
<path fill-rule="evenodd" clip-rule="evenodd" d="M11.5 5C11.2239 5 11 5.22386 11 5.5C11 5.77614 11.2239 6 11.5 6H13V18H11.5C11.2239 18 11 18.2239 11 18.5C11 18.7761 11.2239 19 11.5 19H13.5H15.5C15.7761 19 16 18.7761 16 18.5C16 18.2239 15.7761 18 15.5 18H14V6H15.5C15.7761 6 16 5.77614 16 5.5C16 5.22386 15.7761 5 15.5 5H13.5H11.5ZM6.5 9C6.22386 9 6 9.22386 6 9.5V14.5C6 14.7761 6.22386 15 6.5 15H11.5C11.7761 15 12 15.2239 12 15.5C12 15.7761 11.7761 16 11.5 16H6.5C5.67157 16 5 15.3284 5 14.5V9.5C5 8.67157 5.67157 8 6.5 8H11.5C11.7761 8 12 8.22386 12 8.5C12 8.77614 11.7761 9 11.5 9H6.5ZM17.5 9C17.7761 9 18 9.22386 18 9.5V14.5C18 14.7761 17.7761 15 17.5 15H15.5C15.2239 15 15 15.2239 15 15.5C15 15.7761 15.2239 16 15.5 16H17.5C18.3284 16 19 15.3284 19 14.5V9.5C19 8.67157 18.3284 8 17.5 8H15.5C15.2239 8 15 8.22386 15 8.5C15 8.77614 15.2239 9 15.5 9H17.5Z" fill="currentColor" />
</svg>
