<svg width="24" height="24" viewBox="0 0 24 24" fill="none" xmlns="http://www.w3.org/2000/svg">
<path fill-rule="evenodd" clip-rule="evenodd" d="M3.5 5C3.22386 5 3 5.22386 3 5.5V6.5C3 6.77614 3.22386 7 3.5 7C3.77614 7 4 6.77614 4 6.5V6H7V13H6.5C6.22386 13 6 13.2239 6 13.5C6 13.7761 6.22386 14 6.5 14H7.5H8.5C8.77614 14 9 13.7761 9 13.5C9 13.2239 8.77614 13 8.5 13H8V6H11V6.5C11 6.77614 11.2239 7 11.5 7C11.7761 7 12 6.77614 12 6.5V5.5C12 5.22386 11.7761 5 11.5 5H7.5H3.5ZM13 10C12.4477 10 12 10.4477 12 11V12C12 12.5523 12.4477 13 13 13H15V18C15 18.5523 15.4477 19 16 19H17C17.5523 19 18 18.5523 18 18V13H20C20.5523 13 21 12.5523 21 12V11C21 10.4477 20.5523 10 20 10H13ZM13 11H20V12H17.5H17V12.5V18H16V12.5V12H15.5H13V11Z" fill="currentColor" />
</svg>
