<svg width="24" height="24" viewBox="0 0 24 24" fill="none" xmlns="http://www.w3.org/2000/svg">
<path fill-rule="evenodd" clip-rule="evenodd" d="M5.5 7C5.22386 7 5 7.22386 5 7.5V8.35715C5 8.63329 5.22386 8.85715 5.5 8.85715C5.77614 8.85715 6 8.63329 6 8.35715V8H8V13H7.64285C7.36671 13 7.14285 13.2239 7.14285 13.5C7.14285 13.7761 7.36671 14 7.64285 14H8.5H9.35715C9.63329 14 9.85715 13.7761 9.85715 13.5C9.85715 13.2239 9.63329 13 9.35715 13H9V8H11V8.35715C11 8.63329 11.2239 8.85715 11.5 8.85715C11.7761 8.85715 12 8.63329 12 8.35715V7.5C12 7.22386 11.7761 7 11.5 7H8.5H5.5ZM13 10C12.4477 10 12 10.4477 12 11V12C12 12.5523 12.4477 13 13 13H14V16C14 16.5523 14.4477 17 15 17H16C16.5523 17 17 16.5523 17 16V13H18C18.5523 13 19 12.5523 19 12V11C19 10.4477 18.5523 10 18 10H13ZM13 11H18V12H16.5H16V12.5V16H15V12.5V12H14.5H13V11Z" fill="currentColor" />
</svg>
