<svg width="24" height="24" viewBox="0 0 24 24" fill="none" xmlns="http://www.w3.org/2000/svg">
<path fill-rule="evenodd" clip-rule="evenodd" d="M5.49992 11.5432C5.1094 11.9337 5.1094 12.5669 5.49992 12.9574L8.70962 16.1671C8.71506 16.1726 8.72059 16.1779 8.72622 16.183L10.4331 17.8898C11.9157 19.3725 14.3678 19.1982 15.6259 17.5208C15.7913 17.3002 15.9294 17.0598 16.0366 16.806C16.9981 14.5303 15.3318 11.9998 12.8572 11.9998H11.2079L12.6043 10.6034C12.7996 10.4081 12.7996 10.0915 12.6043 9.89627C12.4091 9.70101 12.0925 9.70101 11.8972 9.89627L9.64722 12.1463C9.45196 12.3415 9.45196 12.6581 9.64722 12.8534L11.8972 15.1034C12.0925 15.2986 12.4091 15.2986 12.6043 15.1034C12.7996 14.9081 12.7996 14.5915 12.6043 14.3963L11.2079 12.9998H12.8572C14.612 12.9998 15.8 14.7966 15.1155 16.4169C15.0398 16.5959 14.9424 16.7655 14.8259 16.9208C13.933 18.1114 12.1925 18.2351 11.1402 17.1827L7.91671 13.9593C7.91126 13.9538 7.90573 13.9485 7.9001 13.9434L6.20703 12.2503L12.2503 6.20703L18.2936 12.2503L17.4781 13.0658C17.2828 13.261 17.2828 13.5776 17.4781 13.7729C17.6734 13.9682 17.9899 13.9682 18.1852 13.7729L19.0007 12.9574C19.3912 12.5669 19.3912 11.9337 19.0007 11.5432L12.9574 5.49992C12.5669 5.1094 11.9337 5.1094 11.5432 5.49992L5.49992 11.5432Z" fill="currentColor" />
</svg>
