<svg width="24" height="24" viewBox="0 0 24 24" fill="none" xmlns="http://www.w3.org/2000/svg">
<path fill-rule="evenodd" clip-rule="evenodd" d="M3.10267 10.1897C2.51688 10.7755 2.51688 11.7252 3.10267 12.311L7.14656 16.3549C7.15285 16.3612 7.15927 16.3673 7.1658 16.3732L9.45068 18.658C11.3526 20.5599 14.4981 20.3364 16.1119 18.1846C16.3283 17.8961 16.5084 17.5805 16.647 17.2479C17.8806 14.2871 15.7148 11.0003 12.5001 11.0003H10.2072L12.3536 8.8539C12.5489 8.65864 12.5489 8.34206 12.3536 8.1468C12.1584 7.95153 11.8418 7.95153 11.6465 8.1468L8.64654 11.1468C8.45128 11.3421 8.45128 11.6586 8.64654 11.8539L11.6465 14.8539C11.8418 15.0492 12.1584 15.0492 12.3536 14.8539C12.5489 14.6586 12.5489 14.3421 12.3536 14.1468L10.2072 12.0003H12.5001C14.994 12.0003 16.6858 14.5546 15.7239 16.8633C15.6171 17.1196 15.4783 17.3628 15.3119 17.5846C14.0632 19.2496 11.6294 19.4225 10.1578 17.9509L5.85365 13.6468C5.84736 13.6405 5.84095 13.6344 5.83442 13.6285L3.80978 11.6039C3.61451 11.4086 3.61451 11.0921 3.80978 10.8968L11.3961 3.31051C11.5913 3.11525 11.9079 3.11525 12.1032 3.31051L19.6895 10.8968C19.8847 11.0921 19.8847 11.4086 19.6895 11.6039L18.8379 12.4555C18.6426 12.6507 18.6426 12.9673 18.8379 13.1626C19.0331 13.3579 19.3497 13.3579 19.545 13.1626L20.3966 12.311C20.9823 11.7252 20.9823 10.7755 20.3966 10.1897L12.8103 2.6034C12.2245 2.01762 11.2747 2.01761 10.689 2.6034L3.10267 10.1897Z" fill="currentColor" />
</svg>
