<svg width="24" height="24" viewBox="0 0 24 24" fill="none" xmlns="http://www.w3.org/2000/svg">
<path fill-rule="evenodd" clip-rule="evenodd" d="M6.85355 6.14645C6.65829 5.95118 6.34171 5.95118 6.14645 6.14645C5.95118 6.34171 5.95118 6.65829 6.14645 6.85355L8.29289 9H6.5C6.22386 9 6 9.22386 6 9.5C6 9.77614 6.22386 10 6.5 10H9.5C9.77614 10 10 9.77614 10 9.5V6.5C10 6.22386 9.77614 6 9.5 6C9.22386 6 9 6.22386 9 6.5V8.29289L6.85355 6.14645ZM9 15.7071L6.85355 17.8536C6.65829 18.0488 6.34171 18.0488 6.14645 17.8536C5.95118 17.6583 5.95118 17.3417 6.14645 17.1464L8.29289 15H6.5C6.22386 15 6 14.7761 6 14.5C6 14.2239 6.22386 14 6.5 14H9.5C9.77614 14 10 14.2239 10 14.5V17.5C10 17.7761 9.77614 18 9.5 18C9.22386 18 9 17.7761 9 17.5V15.7071ZM17.8536 6.14645C17.6583 5.95118 17.3417 5.95118 17.1464 6.14645L15 8.29289V6.5C15 6.22386 14.7761 6 14.5 6C14.2239 6 14 6.22386 14 6.5V9.5C14 9.77614 14.2239 10 14.5 10H17.5C17.7761 10 18 9.77614 18 9.5C18 9.22386 17.7761 9 17.5 9H15.7071L17.8536 6.85355C18.0488 6.65829 18.0488 6.34171 17.8536 6.14645ZM15 15.7071L17.1464 17.8536C17.3417 18.0488 17.6583 18.0488 17.8536 17.8536C18.0488 17.6583 18.0488 17.3417 17.8536 17.1464L15.7071 15H17.5C17.7761 15 18 14.7761 18 14.5C18 14.2239 17.7761 14 17.5 14H14.5C14.2239 14 14 14.2239 14 14.5V17.5C14 17.7761 14.2239 18 14.5 18C14.7761 18 15 17.7761 15 17.5V15.7071Z" fill="currentColor" />
</svg>
