<svg width="24" height="24" viewBox="0 0 24 24" fill="none" xmlns="http://www.w3.org/2000/svg">
<path fill-rule="evenodd" clip-rule="evenodd" d="M12 19.9001C16.363 19.9001 19.9 16.3631 19.9 12.0001C19.9 7.63705 16.363 4.1001 12 4.1001C7.63693 4.1001 4.09998 7.63705 4.09998 12.0001C4.09998 16.3631 7.63693 19.9001 12 19.9001ZM15.4319 9.25206C15.571 9.01353 15.4904 8.70737 15.2519 8.56823C15.0134 8.42909 14.7072 8.50966 14.5681 8.74819L11.4275 14.1321L9.38408 11.68C9.2073 11.4679 8.89202 11.4392 8.67988 11.616C8.46774 11.7928 8.43908 12.1081 8.61586 12.3202L11.1159 15.3202C11.2202 15.4455 11.3791 15.512 11.5416 15.4984C11.7041 15.4848 11.8497 15.3929 11.9319 15.2521L15.4319 9.25206Z" fill="currentColor" />
</svg>
