<svg width="24" height="24" viewBox="0 0 24 24" fill="none" xmlns="http://www.w3.org/2000/svg">
<path fill-rule="evenodd" clip-rule="evenodd" d="M18.9 12.0001C18.9 15.8109 15.8107 18.9001 12 18.9001C8.18921 18.9001 5.09998 15.8109 5.09998 12.0001C5.09998 8.18933 8.18921 5.1001 12 5.1001C15.8107 5.1001 18.9 8.18933 18.9 12.0001ZM19.9 12.0001C19.9 16.3631 16.363 19.9001 12 19.9001C7.63693 19.9001 4.09998 16.3631 4.09998 12.0001C4.09998 7.63705 7.63693 4.1001 12 4.1001C16.363 4.1001 19.9 7.63705 19.9 12.0001ZM15.4319 9.25211C15.5711 9.01359 15.4905 8.70743 15.252 8.56829C15.0135 8.42915 14.7073 8.50971 14.5682 8.74824L11.4276 14.1321L9.38417 11.6801C9.20738 11.4679 8.8921 11.4393 8.67996 11.6161C8.46782 11.7928 8.43916 12.1081 8.61595 12.3203L11.1159 15.3203C11.2203 15.4455 11.3792 15.512 11.5417 15.4984C11.7041 15.4849 11.8498 15.3929 11.9319 15.2521L15.4319 9.25211Z" fill="currentColor" />
</svg>
