<svg width="24" height="24" viewBox="0 0 24 24" fill="none" xmlns="http://www.w3.org/2000/svg">
<path fill-rule="evenodd" clip-rule="evenodd" d="M14 7H17.5C17.7761 7 18 7.22386 18 7.5V16.5C18 16.7761 17.7761 17 17.5 17H14V7ZM13 7H11V17H13V7ZM10 7H6.5C6.22386 7 6 7.22386 6 7.5V16.5C6 16.7761 6.22386 17 6.5 17H10V7ZM10 6H11H13H14H17.5C18.3284 6 19 6.67157 19 7.5V16.5C19 17.3284 18.3284 18 17.5 18H14H13H11H10H6.5C5.67157 18 5 17.3284 5 16.5V7.5C5 6.67157 5.67157 6 6.5 6H10ZM8.85355 10.6465C9.04881 10.8417 9.04881 11.1583 8.85355 11.3535L8.20711 12L8.85355 12.6465C9.04881 12.8417 9.04881 13.1583 8.85355 13.3535C8.65829 13.5488 8.34171 13.5488 8.14645 13.3535L7.14645 12.3535C6.95119 12.1583 6.95119 11.8417 7.14645 11.6465L8.14645 10.6465C8.34171 10.4512 8.65829 10.4512 8.85355 10.6465ZM15.1465 11.3535C14.9512 11.1583 14.9512 10.8417 15.1465 10.6465C15.3417 10.4512 15.6583 10.4512 15.8535 10.6465L16.8535 11.6465C17.0488 11.8417 17.0488 12.1583 16.8535 12.3535L15.8535 13.3535C15.6583 13.5488 15.3417 13.5488 15.1465 13.3535C14.9512 13.1583 14.9512 12.8417 15.1465 12.6465L15.7929 12L15.1465 11.3535Z" fill="currentColor" />
</svg>
