<svg width="24" height="24" viewBox="0 0 24 24" fill="none" xmlns="http://www.w3.org/2000/svg">
<path fill-rule="evenodd" clip-rule="evenodd" d="M8.85355 5.85355C9.04882 5.65829 9.04882 5.34171 8.85355 5.14645C8.65829 4.95118 8.34171 4.95118 8.14645 5.14645L5.14645 8.14645C4.95118 8.34171 4.95118 8.65829 5.14645 8.85355L8.14645 11.8536C8.34171 12.0488 8.65829 12.0488 8.85355 11.8536C9.04882 11.6583 9.04882 11.3417 8.85355 11.1464L6.70711 9H13.9999C16.2091 9 17.9999 10.7909 17.9999 13C17.9999 15.2091 16.2091 17 13.9999 17C12.2832 17 10.8191 15.9186 10.2517 14.3998C10.17 14.1812 9.96929 14.0226 9.73602 14.0226C9.41028 14.0226 9.1658 14.3231 9.27201 14.6311C9.94825 16.5916 11.8096 18 13.9999 18C16.7614 18 18.9999 15.7614 18.9999 13C18.9999 10.2391 16.7623 8.00091 14.0016 8C14.0011 8 14.0005 8 14 8H13.9999H6.70711L8.85355 5.85355Z" fill="currentColor" />
</svg>
