<svg width="24" height="24" viewBox="0 0 24 24" fill="none" xmlns="http://www.w3.org/2000/svg">
<path fill-rule="evenodd" clip-rule="evenodd" d="M6.95338 5.90949L6.63845 7.16921L5.37873 7.48414C4.87376 7.61038 4.87376 8.32804 5.37873 8.45428L6.63845 8.76921L6.95338 10.0289C7.07962 10.5339 7.79727 10.5339 7.92352 10.0289L8.23845 8.76921L9.49816 8.45428C10.0031 8.32804 10.0031 7.61038 9.49816 7.48414L8.23845 7.16921L7.92352 5.90949C7.79727 5.40452 7.07962 5.40452 6.95338 5.90949ZM14.793 5.99948C15.1835 5.60896 15.8166 5.60896 16.2072 5.99948L18.0001 7.79238C18.3906 8.1829 18.3906 8.81607 18.0001 9.20659L16.3536 10.853L9.50006 17.7066C9.31252 17.8941 9.05817 17.9995 8.79295 17.9995H7.00006C6.44777 17.9995 6.00006 17.5518 6.00006 16.9995V15.2066C6.00006 14.9414 6.10542 14.687 6.29295 14.4995L13.1465 7.64593L14.793 5.99948ZM14.2072 7.99948L16.0001 9.79238L17.293 8.49948L15.5001 6.70659L14.2072 7.99948ZM15.293 10.4995L13.5001 8.70659L7.00006 15.2066V16.9995H8.79295L15.293 10.4995ZM15.8385 15.8693L16.1184 14.7498C16.2017 14.4166 16.6754 14.4166 16.7587 14.7498L17.0385 15.8693L18.1579 16.1491C18.4912 16.2324 18.4912 16.7061 18.1579 16.7894L17.0385 17.0693L16.7587 18.1887C16.6754 18.522 16.2017 18.522 16.1184 18.1887L15.8385 17.0693L14.7191 16.7894C14.3858 16.7061 14.3858 16.2324 14.7191 16.1491L15.8385 15.8693Z" fill="currentColor" />
</svg>
