<svg width="24" height="24" viewBox="0 0 24 24" fill="none" xmlns="http://www.w3.org/2000/svg">
<path fill-rule="evenodd" clip-rule="evenodd" d="M7.99998 11C7.99998 8.79086 9.79084 7 12 7C14.2091 7 16 8.79086 16 11V12.5C16 12.7761 16.2238 13 16.5 13C16.7761 13 17 12.7761 17 12.5V11C17 8.23858 14.7614 6 12 6C9.23855 6 6.99998 8.23858 6.99998 11V11.2929L5.85353 10.1464C5.65827 9.95118 5.34169 9.95118 5.14642 10.1464C4.95116 10.3417 4.95116 10.6583 5.14642 10.8536L7.14642 12.8536C7.34169 13.0488 7.65827 13.0488 7.85353 12.8536L9.85353 10.8536C10.0488 10.6583 10.0488 10.3417 9.85353 10.1464C9.65827 9.95118 9.34169 9.95118 9.14642 10.1464L7.99998 11.2929V11ZM17.1464 17.8536L12 12.7071L6.85355 17.8536C6.65829 18.0488 6.34171 18.0488 6.14645 17.8536C5.95118 17.6583 5.95118 17.3417 6.14645 17.1464L11.4697 11.8232C11.7626 11.5303 12.2374 11.5303 12.5303 11.8232L17.8536 17.1464C18.0488 17.3417 18.0488 17.6583 17.8536 17.8536C17.6583 18.0488 17.3417 18.0488 17.1464 17.8536Z" fill="currentColor" />
</svg>
