<svg width="24" height="24" viewBox="0 0 24 24" fill="none" xmlns="http://www.w3.org/2000/svg">
<path fill-rule="evenodd" clip-rule="evenodd" d="M13.7678 6.47491C12.7915 5.4986 11.2085 5.4986 10.2322 6.47491L8.70711 8.00003H10C10.2761 8.00003 10.5 8.22389 10.5 8.50003C10.5 8.77618 10.2761 9.00003 10 9.00003H7.5C7.22386 9.00003 7 8.77618 7 8.50003V6.00003C7 5.72389 7.22386 5.50003 7.5 5.50003C7.77614 5.50003 8 5.72389 8 6.00003V7.29293L9.52513 5.7678C10.892 4.40097 13.108 4.40097 14.4749 5.7678L16.8536 8.14648C17.0488 8.34174 17.0488 8.65833 16.8536 8.85359C16.6583 9.04885 16.3417 9.04885 16.1464 8.85359L13.7678 6.47491ZM10.9393 9.64648C11.5251 9.0607 12.4749 9.06069 13.0607 9.64648L16.3536 12.9394C16.9393 13.5252 16.9393 14.4749 16.3536 15.0607L13.0607 18.3536C12.4749 18.9394 11.5251 18.9394 10.9393 18.3536L7.64645 15.0607C7.06066 14.4749 7.06066 13.5252 7.64645 12.9394L10.9393 9.64648ZM12.3536 10.3536C12.1583 10.1583 11.8417 10.1583 11.6464 10.3536L8.35355 13.6465C8.15829 13.8417 8.15829 14.1583 8.35355 14.3536L11.6464 17.6465C11.8417 17.8417 12.1583 17.8417 12.3536 17.6465L15.6464 14.3536C15.8417 14.1583 15.8417 13.8417 15.6464 13.6465L12.3536 10.3536Z" fill="currentColor" />
</svg>
