<svg width="24" height="24" viewBox="0 0 24 24" fill="none" xmlns="http://www.w3.org/2000/svg">
<path fill-rule="evenodd" clip-rule="evenodd" d="M10.2322 6.47491C11.2085 5.4986 12.7915 5.4986 13.7678 6.47491L15.2929 8.00003H14C13.7239 8.00003 13.5 8.22389 13.5 8.50003C13.5 8.77618 13.7239 9.00003 14 9.00003H16.5C16.7761 9.00003 17 8.77618 17 8.50003V6.00003C17 5.72389 16.7761 5.50003 16.5 5.50003C16.2239 5.50003 16 5.72389 16 6.00003V7.29293L14.4749 5.7678C13.108 4.40097 10.892 4.40097 9.52513 5.7678L7.14645 8.14648C6.95118 8.34174 6.95118 8.65833 7.14645 8.85359C7.34171 9.04885 7.65829 9.04885 7.85355 8.85359L10.2322 6.47491ZM13.0607 9.64648C12.4749 9.0607 11.5251 9.06069 10.9393 9.64648L7.64645 12.9394C7.06066 13.5252 7.06066 14.4749 7.64645 15.0607L10.9393 18.3536C11.5251 18.9394 12.4749 18.9394 13.0607 18.3536L16.3536 15.0607C16.9393 14.4749 16.9393 13.5252 16.3536 12.9394L13.0607 9.64648ZM11.6464 10.3536C11.8417 10.1583 12.1583 10.1583 12.3536 10.3536L15.6464 13.6465C15.8417 13.8417 15.8417 14.1583 15.6464 14.3536L12.3536 17.6465C12.1583 17.8417 11.8417 17.8417 11.6464 17.6465L8.35355 14.3536C8.15829 14.1583 8.15829 13.8417 8.35355 13.6465L11.6464 10.3536Z" fill="currentColor" />
</svg>
