<svg width="24" height="24" viewBox="0 0 24 24" fill="none" xmlns="http://www.w3.org/2000/svg">
<path d="M13.9772 13.5436C13.8392 12.1738 13.087 10.9853 12.0001 10.2578C10.9132 10.9853 10.1609 12.1738 10.0229 13.5436C10.6197 13.8359 11.2907 14 12.0001 14C12.7094 14 13.3804 13.8359 13.9772 13.5436Z" fill="currentColor" fill-opacity="0.3" />
<path fill-rule="evenodd" clip-rule="evenodd" d="M7.54553 8.85739C8.15285 8.62645 8.81166 8.5 9.5 8.5C10.4002 8.5 11.2499 8.71628 12 9.09972C12.7501 8.71628 13.5998 8.5 14.5 8.5C15.1883 8.5 15.8472 8.62645 16.4545 8.85739C16.1426 6.67651 14.2671 5 12 5C9.73289 5 7.85736 6.67651 7.54553 8.85739ZM11.0009 9.75639C10.0377 10.5516 9.34975 11.6684 9.10159 12.9424C8.23148 12.209 7.6433 11.1518 7.52287 9.95648C8.11964 9.66412 8.79065 9.5 9.5 9.5C10.0263 9.5 10.5315 9.59035 11.0009 9.75639ZM12 10.2578C13.0869 10.9853 13.8391 12.1738 13.9771 13.5435C13.3804 13.8359 12.7094 14 12 14C11.2906 14 10.6196 13.8359 10.0229 13.5435C10.1609 12.1738 10.9131 10.9853 12 10.2578ZM14.8984 12.9424C14.6503 11.6684 13.9623 10.5516 12.9991 9.75639C13.4685 9.59035 13.9737 9.5 14.5 9.5C15.2094 9.5 15.8804 9.66414 16.4771 9.95648C16.3567 11.1518 15.7685 12.209 14.8984 12.9424ZM13.9545 14.6426C13.3472 14.8736 12.6883 15 12 15C11.3117 15 10.6528 14.8736 10.0455 14.6426C10.2301 15.9336 10.9627 17.0478 12 17.7422C13.0373 17.0478 13.7699 15.9336 13.9545 14.6426ZM12.9991 18.2436C14.1945 17.2568 14.9659 15.7746 14.9989 14.1113C16.2226 13.3138 17.1092 12.0425 17.3984 10.5576C18.3778 11.3831 19 12.6189 19 14C19 16.4853 16.9853 18.5 14.5 18.5C13.9737 18.5 13.4685 18.4096 12.9991 18.2436ZM12 18.9003C12.7501 19.2837 13.5998 19.5 14.5 19.5C17.5376 19.5 20 17.0376 20 14C20 12.0688 19.0046 10.37 17.4989 9.38875C17.4397 6.40254 15.0004 4 12 4C8.9996 4 6.56035 6.40254 6.5011 9.38875C4.99538 10.37 4 12.0688 4 14C4 17.0376 6.46243 19.5 9.5 19.5C10.4002 19.5 11.2499 19.2837 12 18.9003ZM11.0009 18.2436C10.5315 18.4097 10.0263 18.5 9.5 18.5C7.01472 18.5 5 16.4853 5 14C5 12.6189 5.62221 11.3831 6.60159 10.5576C6.89081 12.0425 7.77742 13.3138 9.0011 14.1113C9.0341 15.7746 9.80548 17.2568 11.0009 18.2436Z" fill="currentColor" />
</svg>
