<svg width="24" height="24" viewBox="0 0 24 24" fill="none" xmlns="http://www.w3.org/2000/svg">
<path d="M7 5C7 3.89543 7.89543 3 9 3H15C16.1046 3 17 3.89543 17 5V20.0858C17 20.9767 15.9229 21.4229 15.2929 20.7929L12 17.5L8.70711 20.7929C8.07714 21.4229 7 20.9767 7 20.0858V5Z" fill="currentColor" fill-opacity="0.3" />
<path d="M12.3536 17.1464C12.1583 16.9512 11.8417 16.9512 11.6464 17.1464L8.35355 20.4393C8.03857 20.7543 7.5 20.5312 7.5 20.0858V5C7.5 4.17157 8.17157 3.5 9 3.5H15C15.8284 3.5 16.5 4.17157 16.5 5V20.0858C16.5 20.5312 15.9614 20.7543 15.6464 20.4393L12.3536 17.1464Z" stroke="black" stroke-opacity="0.9" />
</svg>
