<svg width="24" height="24" viewBox="0 0 24 24" fill="none" xmlns="http://www.w3.org/2000/svg">
<path fill-rule="evenodd" clip-rule="evenodd" d="M7.5 7C7.22386 7 7 7.22386 7 7.5V9.5C7 9.77614 6.77614 10 6.5 10C6.22386 10 6 9.77614 6 9.5V7.5C6 6.67157 6.67157 6 7.5 6H16.5C17.3284 6 18 6.67157 18 7.5V16.5C18 17.3284 17.3284 18 16.5 18H14.5C14.2239 18 14 17.7761 14 17.5C14 17.2239 14.2239 17 14.5 17H16.5C16.7761 17 17 16.7761 17 16.5V7.5C17 7.22386 16.7761 7 16.5 7H7.5ZM6 12C6 11.4477 6.44771 11 7 11H9.5C9.77614 11 10 11.2239 10 11.5C10 11.7761 9.77614 12 9.5 12H7V17H12V14.5C12 14.2239 12.2239 14 12.5 14C12.7761 14 13 14.2239 13 14.5V17C13 17.5523 12.5523 18 12 18H7C6.44771 18 6 17.5523 6 17V12ZM11.5 9C11.2239 9 11 9.22386 11 9.5C11 9.77614 11.2239 10 11.5 10H13.2929L9.14645 14.1465C8.95119 14.3417 8.95119 14.6583 9.14645 14.8535C9.34171 15.0488 9.65829 15.0488 9.85355 14.8535L14 10.7071V12.5C14 12.7761 14.2239 13 14.5 13C14.7761 13 15 12.7761 15 12.5V9.5C15 9.22386 14.7761 9 14.5 9H11.5Z" fill="currentColor" />
</svg>
