<svg width="24" height="24" viewBox="0 0 24 24" fill="none" xmlns="http://www.w3.org/2000/svg">
<path fill-rule="evenodd" clip-rule="evenodd" d="M5 6.5C5 5.67157 5.67157 5 6.5 5H17.5C18.3284 5 19 5.67157 19 6.5V17.5C19 18.3284 18.3284 19 17.5 19H15.5C15.2239 19 15 19.2239 15 19.5C15 19.7761 15.2239 20 15.5 20H17.5C18.8807 20 20 18.8807 20 17.5V6.5C20 5.11929 18.8807 4 17.5 4H6.5C5.11929 4 4 5.11929 4 6.5V8.5C4 8.77614 4.22386 9 4.5 9C4.77614 9 5 8.77614 5 8.5V6.5ZM11 8.5C11 8.22386 11.2239 8 11.5 8H15.5C15.7761 8 16 8.22386 16 8.5V12.5C16 12.7761 15.7761 13 15.5 13C15.2239 13 15 12.7761 15 12.5V9.70711L8.85355 15.8535C8.65829 16.0488 8.34171 16.0488 8.14645 15.8535C7.95119 15.6583 7.95119 15.3417 8.14645 15.1465L14.2929 9H11.5C11.2239 9 11 8.77614 11 8.5ZM4 11.5C4 10.6716 4.67157 10 5.5 10H10.5C10.7761 10 11 10.2239 11 10.5C11 10.7761 10.7761 11 10.5 11H5.5C5.22386 11 5 11.2239 5 11.5V18.5C5 18.7761 5.22386 19 5.5 19H12.5C12.7761 19 13 18.7761 13 18.5V13.5C13 13.2239 13.2239 13 13.5 13C13.7761 13 14 13.2239 14 13.5V18.5C14 19.3284 13.3284 20 12.5 20H5.5C4.67157 20 4 19.3284 4 18.5V11.5Z" fill="currentColor" />
</svg>
