<svg width="24" height="24" viewBox="0 0 24 24" fill="none" xmlns="http://www.w3.org/2000/svg">
<path fill-rule="evenodd" clip-rule="evenodd" d="M15 10.5C15 12.9853 12.9853 15 10.5 15C8.01472 15 6 12.9853 6 10.5C6 8.01472 8.01472 6 10.5 6C12.9853 6 15 8.01472 15 10.5ZM14.0444 14.7058C13.0872 15.5133 11.8504 16 10.5 16C7.46243 16 5 13.5376 5 10.5C5 7.46243 7.46243 5 10.5 5C13.5376 5 16 7.46243 16 10.5C16 11.8503 15.5134 13.0869 14.706 14.0441C14.7596 14.0683 14.8098 14.1024 14.8538 14.1464L17.8538 17.1464C18.0491 17.3417 18.0491 17.6583 17.8538 17.8535C17.6585 18.0488 17.342 18.0488 17.1467 17.8535L14.1467 14.8535C14.1027 14.8095 14.0686 14.7593 14.0444 14.7058Z" fill="currentColor" />
</svg>
