<svg width="24" height="24" viewBox="0 0 24 24" fill="none" xmlns="http://www.w3.org/2000/svg">
<path fill-rule="evenodd" clip-rule="evenodd" d="M16 10.5C16 13.5376 13.5376 16 10.5 16C7.46243 16 5 13.5376 5 10.5C5 7.46243 7.46243 5 10.5 5C13.5376 5 16 7.46243 16 10.5ZM14.7291 15.4362C13.5923 16.411 12.1149 17 10.5 17C6.91016 17 4 14.0898 4 10.5C4 6.91016 6.91016 4 10.5 4C14.0898 4 17 6.91016 17 10.5C17 12.1149 16.411 13.5923 15.4362 14.7291L19.8535 19.1465C20.0488 19.3417 20.0488 19.6583 19.8535 19.8535C19.6583 20.0488 19.3417 20.0488 19.1465 19.8535L14.7291 15.4362Z" fill="currentColor" />
</svg>
