<svg width="24" height="24" viewBox="0 0 24 24" fill="none" xmlns="http://www.w3.org/2000/svg">
<path fill-rule="evenodd" clip-rule="evenodd" d="M7 6C6.44771 6 6 6.44771 6 7V10C6 10.5523 6.44771 11 7 11H10C10.5523 11 11 10.5523 11 10V7C11 6.44771 10.5523 6 10 6H7ZM7 7H10V10H7V7ZM7 13C6.44771 13 6 13.4477 6 14V14.5C6 14.7761 6.22386 15 6.5 15C6.77614 15 7 14.7761 7 14.5V14H7.5C7.77614 14 8 13.7761 8 13.5C8 13.2239 7.77614 13 7.5 13H7ZM9.5 13C9.22386 13 9 13.2239 9 13.5C9 13.7761 9.22386 14 9.5 14H10V14.5C10 14.7761 10.2239 15 10.5 15C10.7761 15 11 14.7761 11 14.5V14C11 13.4477 10.5523 13 10 13H9.5ZM7 16.5C7 16.2239 6.77614 16 6.5 16C6.22386 16 6 16.2239 6 16.5V17C6 17.5523 6.44771 18 7 18H7.5C7.77614 18 8 17.7761 8 17.5C8 17.2239 7.77614 17 7.5 17H7V16.5ZM11 16.5C11 16.2239 10.7761 16 10.5 16C10.2239 16 10 16.2239 10 16.5V17H9.5C9.22386 17 9 17.2239 9 17.5C9 17.7761 9.22386 18 9.5 18H10C10.5523 18 11 17.5523 11 17V16.5ZM13 14C13 13.4477 13.4477 13 14 13H14.5C14.7761 13 15 13.2239 15 13.5C15 13.7761 14.7761 14 14.5 14H14V14.5C14 14.7761 13.7761 15 13.5 15C13.2239 15 13 14.7761 13 14.5V14ZM16 13.5C16 13.2239 16.2239 13 16.5 13H17C17.5523 13 18 13.4477 18 14V14.5C18 14.7761 17.7761 15 17.5 15C17.2239 15 17 14.7761 17 14.5V14H16.5C16.2239 14 16 13.7761 16 13.5ZM13.5 16C13.7761 16 14 16.2239 14 16.5V17H14.5C14.7761 17 15 17.2239 15 17.5C15 17.7761 14.7761 18 14.5 18H14C13.4477 18 13 17.5523 13 17V16.5C13 16.2239 13.2239 16 13.5 16ZM17.5 16C17.7761 16 18 16.2239 18 16.5V17C18 17.5523 17.5523 18 17 18H16.5C16.2239 18 16 17.7761 16 17.5C16 17.2239 16.2239 17 16.5 17H17V16.5C17 16.2239 17.2239 16 17.5 16ZM14 6C13.4477 6 13 6.44771 13 7V7.5C13 7.77614 13.2239 8 13.5 8C13.7761 8 14 7.77614 14 7.5V7H14.5C14.7761 7 15 6.77614 15 6.5C15 6.22386 14.7761 6 14.5 6H14ZM16.5 6C16.2239 6 16 6.22386 16 6.5C16 6.77614 16.2239 7 16.5 7H17V7.5C17 7.77614 17.2239 8 17.5 8C17.7761 8 18 7.77614 18 7.5V7C18 6.44771 17.5523 6 17 6H16.5ZM14 9.5C14 9.22386 13.7761 9 13.5 9C13.2239 9 13 9.22386 13 9.5V10C13 10.5523 13.4477 11 14 11H14.5C14.7761 11 15 10.7761 15 10.5C15 10.2239 14.7761 10 14.5 10H14V9.5ZM18 9.5C18 9.22386 17.7761 9 17.5 9C17.2239 9 17 9.22386 17 9.5V10H16.5C16.2239 10 16 10.2239 16 10.5C16 10.7761 16.2239 11 16.5 11H17C17.5523 11 18 10.5523 18 10V9.5Z" fill="currentColor" />
</svg>
