<svg width="24" height="24" viewBox="0 0 24 24" fill="none" xmlns="http://www.w3.org/2000/svg">
<path fill-rule="evenodd" clip-rule="evenodd" d="M11.8536 17.8536C11.6583 18.0488 11.3417 18.0488 11.1464 17.8536L9.14645 15.8536C8.95118 15.6583 8.95118 15.3417 9.14645 15.1464C9.34171 14.9512 9.65829 14.9512 9.85355 15.1464L11 16.2929L11 9L7.5 9C6.67157 9 6 8.32843 6 7.5C6 6.67157 6.67157 6 7.5 6L15.5 6C16.3284 6 17 6.67157 17 7.5C17 8.32843 16.3284 9 15.5 9L12 9L12 16.2929L13.1464 15.1464C13.3417 14.9512 13.6583 14.9512 13.8536 15.1464C14.0488 15.3417 14.0488 15.6583 13.8536 15.8536L11.8536 17.8536ZM15.5 8C15.7761 8 16 7.77614 16 7.5C16 7.22386 15.7761 7 15.5 7L7.5 7C7.22386 7 7 7.22386 7 7.5C7 7.77614 7.22386 8 7.5 8L15.5 8ZM16 11.5C16 11.7761 15.7761 12 15.5 12L13.5 12C13.2239 12 13 12.2239 13 12.5C13 12.7761 13.2239 13 13.5 13L15.5 13C16.3284 13 17 12.3284 17 11.5C17 10.6716 16.3284 10 15.5 10L13.5 10C13.2239 10 13 10.2239 13 10.5C13 10.7761 13.2239 11 13.5 11L15.5 11C15.7761 11 16 11.2239 16 11.5ZM7.5 13L9.5 13C9.77614 13 10 12.7761 10 12.5C10 12.2239 9.77614 12 9.5 12L7.5 12C7.22386 12 7 11.7761 7 11.5C7 11.2239 7.22386 11 7.5 11L9.5 11C9.77614 11 10 10.7761 10 10.5C10 10.2239 9.77614 10 9.5 10L7.5 10C6.67157 10 6 10.6716 6 11.5C6 12.3284 6.67157 13 7.5 13Z" fill="currentColor" />
</svg>
