<svg width="24" height="24" viewBox="0 0 24 24" fill="none" xmlns="http://www.w3.org/2000/svg">
<path fill-rule="evenodd" clip-rule="evenodd" d="M11.1464 6.14645C11.3417 5.95118 11.6583 5.95118 11.8536 6.14645L13.8536 8.14645C14.0488 8.34171 14.0488 8.65829 13.8536 8.85355C13.6583 9.04882 13.3417 9.04882 13.1464 8.85355L12 7.70711V15H15.5C16.3284 15 17 15.6716 17 16.5C17 17.3284 16.3284 18 15.5 18H7.5C6.67157 18 6 17.3284 6 16.5C6 15.6716 6.67157 15 7.5 15H11V7.70711L9.85355 8.85355C9.65829 9.04882 9.34171 9.04882 9.14645 8.85355C8.95118 8.65829 8.95118 8.34171 9.14645 8.14645L11.1464 6.14645ZM7.5 16C7.22386 16 7 16.2239 7 16.5C7 16.7761 7.22386 17 7.5 17H15.5C15.7761 17 16 16.7761 16 16.5C16 16.2239 15.7761 16 15.5 16H7.5ZM7 12.5C7 12.2239 7.22386 12 7.5 12H9.5C9.77614 12 10 11.7761 10 11.5C10 11.2239 9.77614 11 9.5 11H7.5C6.67157 11 6 11.6716 6 12.5C6 13.3284 6.67157 14 7.5 14H9.5C9.77614 14 10 13.7761 10 13.5C10 13.2239 9.77614 13 9.5 13H7.5C7.22386 13 7 12.7761 7 12.5ZM15.5 11H13.5C13.2239 11 13 11.2239 13 11.5C13 11.7761 13.2239 12 13.5 12H15.5C15.7761 12 16 12.2239 16 12.5C16 12.7761 15.7761 13 15.5 13H13.5C13.2239 13 13 13.2239 13 13.5C13 13.7761 13.2239 14 13.5 14H15.5C16.3284 14 17 13.3284 17 12.5C17 11.6716 16.3284 11 15.5 11Z" fill="currentColor" />
</svg>
