<svg width="24" height="24" viewBox="0 0 24 24" fill="none" xmlns="http://www.w3.org/2000/svg">
<path fill-rule="evenodd" clip-rule="evenodd" d="M15.5 17C15.7761 17 16 16.7761 16 16.5C16 16.2239 15.7761 16 15.5 16L7.5 16C7.22386 16 7 16.2239 7 16.5C7 16.7761 7.22386 17 7.5 17L15.5 17ZM17 16.5C17 17.3284 16.3284 18 15.5 18L7.5 18C6.67157 18 6 17.3284 6 16.5C6 15.6716 6.67157 15 7.5 15L15.5 15C16.3284 15 17 15.6716 17 16.5ZM11.8536 13.8536C11.6583 14.0488 11.3417 14.0488 11.1464 13.8536L9.14645 11.8536C8.95118 11.6583 8.95118 11.3417 9.14645 11.1464C9.34171 10.9512 9.65829 10.9512 9.85355 11.1464L11 12.2929L11 9L9.5 9L7.5 9C6.67157 9 6 8.32843 6 7.5C6 6.67157 6.67157 6 7.5 6L9.5 6L15.5 6C16.3284 6 17 6.67157 17 7.5C17 8.32843 16.3284 9 15.5 9L12 9L12 12.2929L13.1464 11.1464C13.3417 10.9512 13.6583 10.9512 13.8536 11.1464C14.0488 11.3417 14.0488 11.6583 13.8536 11.8536L11.8536 13.8536ZM16 7.5C16 7.77614 15.7761 8 15.5 8L9.5 8L7.5 8C7.22386 8 7 7.77614 7 7.5C7 7.22386 7.22386 7 7.5 7L9.5 7L15.5 7C15.7761 7 16 7.22386 16 7.5Z" fill="currentColor" />
</svg>
