<svg width="24" height="24" viewBox="0 0 24 24" fill="none" xmlns="http://www.w3.org/2000/svg">
<path fill-rule="evenodd" clip-rule="evenodd" d="M7.5 7C7.22386 7 7 7.22386 7 7.5C7 7.77614 7.22386 8 7.5 8H15.5C15.7761 8 16 7.77614 16 7.5C16 7.22386 15.7761 7 15.5 7H7.5ZM6 7.5C6 6.67157 6.67157 6 7.5 6H15.5C16.3284 6 17 6.67157 17 7.5C17 8.32843 16.3284 9 15.5 9H7.5C6.67157 9 6 8.32843 6 7.5ZM11.1465 10.1465C11.3417 9.95119 11.6583 9.95119 11.8535 10.1465L13.8535 12.1465C14.0488 12.3417 14.0488 12.6583 13.8535 12.8535C13.6583 13.0488 13.3417 13.0488 13.1465 12.8535L12 11.7071V15H13.5H15.5C16.3284 15 17 15.6716 17 16.5C17 17.3284 16.3284 18 15.5 18H13.5H7.5C6.67157 18 6 17.3284 6 16.5C6 15.6716 6.67157 15 7.5 15H11V11.7071L9.85355 12.8535C9.65829 13.0488 9.34171 13.0488 9.14645 12.8535C8.95119 12.6583 8.95119 12.3417 9.14645 12.1465L11.1465 10.1465ZM7 16.5C7 16.2239 7.22386 16 7.5 16H13.5H15.5C15.7761 16 16 16.2239 16 16.5C16 16.7761 15.7761 17 15.5 17H13.5H7.5C7.22386 17 7 16.7761 7 16.5Z" fill="currentColor" />
</svg>
