<svg width="24" height="24" viewBox="0 0 24 24" fill="none" xmlns="http://www.w3.org/2000/svg">
<path fill-rule="evenodd" clip-rule="evenodd" d="M17.2874 6.04442C16.7257 6.28419 16.0664 6.26482 15.5 5.9378C14.9335 5.61073 14.587 5.04928 14.5139 4.44284C14.4446 3.8674 14.0187 3.19018 13.2168 3.08168C12.8184 3.02778 12.4122 3 12 3C11.5878 3 11.1816 3.02778 10.7832 3.08168C9.98124 3.19018 9.55542 3.8674 9.48605 4.44285C9.41295 5.04929 9.06649 5.61075 8.49998 5.93782C7.93356 6.26485 7.27423 6.28421 6.71254 6.04443C6.18009 5.81713 5.38248 5.84708 4.88726 6.48493C4.39057 7.12468 3.978 7.83369 3.66653 8.59536C3.36037 9.34404 3.73424 10.0507 4.19772 10.3981C4.6867 10.7646 4.99995 11.3456 4.99995 12C4.99995 12.6544 4.6867 13.2354 4.19773 13.6019C3.73425 13.9493 3.36039 14.656 3.66654 15.4047C3.97801 16.1663 4.39058 16.8753 4.88726 17.5151C5.38247 18.1529 6.18008 18.1829 6.71254 17.9556C7.27422 17.7158 7.93355 17.7352 8.49996 18.0622C9.06647 18.3893 9.41293 18.9507 9.48603 19.5571C9.5554 20.1326 9.98122 20.8098 10.7831 20.9183C11.1815 20.9722 11.5878 21 12 21C12.4122 21 12.8184 20.9722 13.2168 20.9183C14.0187 20.8098 14.4445 20.1326 14.5139 19.5572C14.587 18.9507 14.9335 18.3893 15.5 18.0622C16.0664 17.7352 16.7257 17.7158 17.2874 17.9556C17.8199 18.1829 18.6175 18.1529 19.1127 17.5151C19.6094 16.8753 20.0219 16.1663 20.3334 15.4047C20.6396 14.656 20.2657 13.9493 19.8022 13.6019C19.3132 13.2354 19 12.6544 19 12C19 11.3456 19.3132 10.7646 19.8022 10.3981C20.2657 10.0507 20.6396 9.34401 20.3334 8.59534C20.0219 7.83367 19.6094 7.12466 19.1127 6.48492C18.6175 5.84707 17.8199 5.81712 17.2874 6.04442ZM15 6.80383C15.8505 7.29484 16.8414 7.32212 17.68 6.96412C17.9042 6.86842 18.1733 6.90563 18.3228 7.09817C18.7645 7.66714 19.1312 8.29732 19.4078 8.97384C19.5002 9.19967 19.3977 9.4516 19.2025 9.59792C18.4724 10.1451 18 11.0174 18 12C18 12.9826 18.4724 13.8549 19.2025 14.4021C19.3977 14.5484 19.5002 14.8003 19.4078 15.0262C19.1312 15.7027 18.7645 16.3329 18.3228 16.9018C18.1733 17.0944 17.9042 17.1316 17.68 17.0359C16.8414 16.6779 15.8504 16.7051 15 17.1962C14.1494 17.6873 13.6302 18.532 13.5211 19.4375C13.4919 19.6799 13.3246 19.8946 13.0827 19.9274C12.7286 19.9753 12.3672 20 12 20C11.6328 20 11.2713 19.9753 10.9172 19.9273C10.6753 19.8946 10.5081 19.6799 10.4788 19.4375C10.3697 18.532 9.85057 17.6873 8.99996 17.1962C8.14949 16.7051 7.15855 16.6779 6.31992 17.0359C6.09573 17.1316 5.82663 17.0944 5.67715 16.9018C5.23542 16.3329 4.86879 15.7027 4.59214 15.0262C4.49979 14.8003 4.60226 14.5484 4.79748 14.4021C5.52756 13.8549 5.99995 12.9826 5.99995 12C5.99995 11.0174 5.52755 10.1452 4.79747 9.59795C4.60225 9.45162 4.49978 9.19969 4.59213 8.97387C4.86878 8.29734 5.23541 7.66715 5.67715 7.09818C5.82663 6.90564 6.09574 6.86843 6.31992 6.96413C7.15855 7.32214 8.14951 7.29487 8.99998 6.80385C9.85059 6.31274 10.3697 5.46798 10.4789 4.56252C10.5081 4.32013 10.6753 4.10538 10.9172 4.07265C11.2713 4.02474 11.6328 4 12 4C12.3672 4 12.7286 4.02474 13.0827 4.07265C13.3247 4.10539 13.4919 4.32013 13.5211 4.56252C13.6303 5.46797 14.1494 6.31273 15 6.80383ZM9.49996 12C9.49996 10.6193 10.6192 9.5 12 9.5C13.3807 9.5 14.5 10.6193 14.5 12C14.5 13.3807 13.3807 14.5 12 14.5C10.6192 14.5 9.49996 13.3807 9.49996 12ZM12 8.5C10.067 8.5 8.49996 10.067 8.49996 12C8.49996 13.933 10.067 15.5 12 15.5C13.933 15.5 15.5 13.933 15.5 12C15.5 10.067 13.933 8.5 12 8.5Z" fill="currentColor" />
</svg>
