<svg width="24" height="24" viewBox="0 0 24 24" fill="none" xmlns="http://www.w3.org/2000/svg">
<path d="M12 18.9293C8.6081 18.4447 6 15.5262 6 12C6 8.47389 8.6081 5.5554 12 5.0708V18.9293Z" fill="currentColor" fill-opacity="0.3" />
<path fill-rule="evenodd" clip-rule="evenodd" d="M6 12.0001C6 15.5262 8.6081 18.4447 12 18.9293V5.07085C8.6081 5.55545 6 8.47393 6 12.0001ZM12.002 19.9384C8.05471 19.4472 5 16.0804 5 12.0001C5 7.91978 8.05471 4.55295 12.002 4.06173C12.55 3.99353 13 4.4478 13 5.00009V6.083C13.0001 6.08302 13.0002 6.08303 13.0002 6.08304C15.838 6.55912 18.0002 9.02709 18.0002 12.0001C18.0002 14.9731 15.838 17.441 13.0002 17.9171C13.0002 17.9171 13.0001 17.9172 13 17.9172V19.0001C13 19.5524 12.55 20.0066 12.002 19.9384ZM13.0002 16.9001C15.2825 16.4368 17.0002 14.419 17.0002 12.0001C17.0002 9.58113 15.2825 7.56337 13.0002 7.1001V16.9001Z" fill="currentColor" />
</svg>
