<svg width="24" height="24" viewBox="0 0 24 24" fill="none" xmlns="http://www.w3.org/2000/svg">
<path fill-rule="evenodd" clip-rule="evenodd" d="M8 7H16C16.5523 7 17 7.44771 17 8V16C17 16.5523 16.5523 17 16 17H8C7.44771 17 7 16.5523 7 16V8C7 7.44771 7.44771 7 8 7ZM6 8C6 6.89543 6.89543 6 8 6H16C17.1046 6 18 6.89543 18 8V16C18 17.1046 17.1046 18 16 18H8C6.89543 18 6 17.1046 6 16V8ZM9.5 9C9.22386 9 9 9.22386 9 9.5V10.5C9 10.7761 9.22386 11 9.5 11C9.77614 11 10 10.7761 10 10.5V10H11.5V14H11C10.7239 14 10.5 14.2239 10.5 14.5C10.5 14.7761 10.7239 15 11 15H12H13C13.2761 15 13.5 14.7761 13.5 14.5C13.5 14.2239 13.2761 14 13 14H12.5V10H14V10.5C14 10.7761 14.2239 11 14.5 11C14.7761 11 15 10.7761 15 10.5V9.5C15 9.22386 14.7761 9 14.5 9H12H9.5Z" fill="currentColor" />
</svg>
