<svg width="24" height="24" viewBox="0 0 24 24" fill="none" xmlns="http://www.w3.org/2000/svg">
<path fill-rule="evenodd" clip-rule="evenodd" d="M3 9C3 10.5215 3.56629 11.9106 4.4996 12.9683C5.49577 14.0972 6.91006 14.8483 8.50015 14.9795C8.77536 15.0022 9 14.7761 9 14.5C9 14.2516 8.81833 14.0476 8.58181 13.9893C8.56841 13.986 8.55483 13.9832 8.5411 13.9808C8.53056 13.979 8.51993 13.9775 8.50922 13.9763L8.5007 13.9754C7.22663 13.8491 6.09321 13.2445 5.28248 12.3437C4.4852 11.4579 4 10.2856 4 9C4 6.23858 6.23858 4 9 4C11.5929 4 13.7248 5.9737 13.9754 8.5007L13.9763 8.50922C13.9775 8.51993 13.979 8.53056 13.9808 8.5411C13.9832 8.55483 13.986 8.56841 13.9893 8.58181C14.0476 8.81833 14.2516 9 14.5 9C14.7761 9 15.0022 8.77536 14.9795 8.50015C14.8483 6.91006 14.0972 5.49577 12.9683 4.4996C11.9106 3.56629 10.5215 3 9 3C5.68629 3 3 5.68629 3 9ZM12 11H19C19.5523 11 20 11.4477 20 12V19C20 19.5523 19.5523 20 19 20H12C11.4477 20 11 19.5523 11 19V12C11 11.4477 11.4477 11 12 11ZM10 12C10 10.8954 10.8954 10 12 10H19C20.1046 10 21 10.8954 21 12V19C21 20.1046 20.1046 21 19 21H12C10.8954 21 10 20.1046 10 19V12Z" fill="currentColor" />
</svg>
