<svg width="24" height="24" viewBox="0 0 24 24" fill="none" xmlns="http://www.w3.org/2000/svg">
<path fill-rule="evenodd" clip-rule="evenodd" d="M13.7617 8.63606C13.7662 8.64726 13.771 8.65831 13.7761 8.66916C13.7829 8.68378 13.7903 8.69806 13.7983 8.71198C13.8957 8.88315 14.0718 9 14.2719 9C14.5965 9 14.8407 8.70134 14.7365 8.39395C14.2809 7.05002 13.2694 5.96262 11.9758 5.40556C11.3698 5.14458 10.7018 5 10 5C7.23857 5 5 7.23857 5 10C5 10.7018 5.14458 11.3698 5.40556 11.9758C5.96262 13.2694 7.05002 14.2809 8.39395 14.7365C8.70134 14.8407 9 14.5965 9 14.2719C9 14.0718 8.88315 13.8957 8.71198 13.7983C8.69806 13.7903 8.68378 13.7829 8.66916 13.7761C8.66104 13.7723 8.65283 13.7686 8.64452 13.7652L8.63606 13.7617L8.62012 13.7556C7.66556 13.4048 6.88179 12.7004 6.42752 11.8012C6.15405 11.2599 6 10.6479 6 10C6 7.79086 7.79086 6 10 6C11.7242 6 13.1936 7.09088 13.7556 8.62012L13.7617 8.63606ZM11.5 11H17.5C17.7761 11 18 11.2239 18 11.5V17.5C18 17.7761 17.7761 18 17.5 18H11.5C11.2239 18 11 17.7761 11 17.5V11.5C11 11.2239 11.2239 11 11.5 11ZM10 11.5C10 10.6716 10.6716 10 11.5 10H17.5C18.3284 10 19 10.6716 19 11.5V17.5C19 18.3284 18.3284 19 17.5 19H11.5C10.6716 19 10 18.3284 10 17.5V11.5Z" fill="currentColor" />
</svg>
