<svg width="24" height="24" viewBox="0 0 24 24" fill="none" xmlns="http://www.w3.org/2000/svg">
<path fill-rule="evenodd" clip-rule="evenodd" d="M5.5529 15.2241C5.67639 15.4711 5.97673 15.5712 6.22372 15.4477L10.2237 13.4478C10.4706 13.3243 10.5708 13.0239 10.4473 12.777C10.3238 12.53 10.0234 12.4299 9.77644 12.5534L5.7765 14.5533C5.52951 14.6768 5.4294 14.9772 5.5529 15.2241ZM6.22372 8.55332L12.0001 11.4415L13.4541 10.7145L13.2038 8.96317C13.0547 7.91947 13.5902 6.89744 14.5332 6.42594L14.777 6.304C15.8521 5.76645 17.1594 6.20211 17.6972 7.27713C18.235 8.35237 17.7992 9.66001 16.7239 10.1977L14.2341 11.4426C14.2273 11.4462 14.2204 11.4496 14.2133 11.4529L13.1181 12.0005L14.2134 12.5482C14.2204 12.5515 14.2273 12.5549 14.2342 12.5585L16.7237 13.8033C17.7991 14.341 18.235 15.6487 17.6973 16.7242C17.1596 17.7996 15.8519 18.2355 14.7765 17.6978L14.5331 17.5761C13.5901 17.1046 13.0547 16.0826 13.2038 15.039L13.4542 13.2866L11.7811 12.45L11.7712 12.4451L5.7765 9.44775C5.52951 9.32425 5.4294 9.02392 5.5529 8.77693C5.67639 8.52994 5.97673 8.42983 6.22372 8.55332ZM14.3969 10.2431L14.1938 8.82171C14.1055 8.20413 14.4224 7.59936 14.9804 7.32037L15.2243 7.19843C15.8054 6.90784 16.5121 7.14335 16.8028 7.72448C17.0935 8.30572 16.858 9.0126 16.2767 9.30324L14.3969 10.2431ZM14.397 13.758L14.1937 15.1804C14.1055 15.798 14.4223 16.4027 14.9803 16.6816L15.2237 16.8033C15.8051 17.094 16.5121 16.8584 16.8029 16.2769C17.0936 15.6955 16.8579 14.9885 16.2765 14.6977L14.397 13.758ZM9.68006 15.3801L9.40021 16.4995L8.2808 16.7793C7.94751 16.8627 7.94751 17.3363 8.2808 17.4196L9.40021 17.6995L9.68006 18.8189C9.76338 19.1522 10.237 19.1522 10.3204 18.8189L10.6002 17.6995L11.7196 17.4196C12.0529 17.3363 12.0529 16.8627 11.7196 16.7793L10.6002 16.4995L10.3204 15.3801C10.237 15.0468 9.76338 15.0468 9.68006 15.3801Z" fill="currentColor" />
</svg>
