<svg width="24" height="24" viewBox="0 0 24 24" fill="none" xmlns="http://www.w3.org/2000/svg">
<path fill-rule="evenodd" clip-rule="evenodd" d="M17.2914 16.0003L17.1461 16.1456L16.1461 17.1456C15.9507 17.341 15.9507 17.6579 16.1461 17.8533C16.3416 18.0488 16.6584 18.0488 16.8539 17.8533L17.8539 16.8533L18.8539 15.8533C19.0493 15.6579 19.0493 15.341 18.8539 15.1456L16.8539 13.1456C16.6584 12.9502 16.3416 12.9502 16.1461 13.1456C15.9507 13.341 15.9507 13.6579 16.1461 13.8533L17.2923 14.9995L15.9442 14.9995C14.8704 14.9995 13.856 14.5064 13.1925 13.6621L13.1571 13.617L12.5249 14.4261C13.3778 15.4228 14.6262 16.0003 15.9442 16.0003L17.2914 16.0003ZM9.9753 9.57393C9.12245 8.57709 7.87397 7.99946 6.55584 7.99946L5.49995 7.99946C5.22357 7.99946 4.99951 8.22352 4.99951 8.4999C4.99951 8.77629 5.22357 9.00034 5.49995 9.00034L6.55584 9.00034C7.6297 9.00034 8.64411 9.49337 9.30758 10.3378L9.34316 10.383L9.9753 9.57393ZM17.2918 7.99902L17.1461 7.85333L16.1461 6.85333C15.9507 6.65789 15.9507 6.34103 16.1461 6.1456C16.3416 5.95016 16.6584 5.95016 16.8539 6.1456L17.8539 7.1456L18.8539 8.1456C19.0493 8.34103 19.0493 8.65789 18.8539 8.85333L16.8539 10.8533C16.6584 11.0488 16.3416 11.0488 16.1461 10.8533C15.9507 10.6579 15.9507 10.341 16.1461 10.1456L17.2918 8.9999L15.9441 8.9999C14.8703 8.9999 13.8558 9.49295 13.1924 10.3374L10.0946 14.2799C9.24142 15.3658 7.93687 15.9999 6.55586 15.9999L5.5 15.9999C5.22361 15.9999 4.99956 15.7758 4.99956 15.4995C4.99956 15.2231 5.22361 14.999 5.5 14.999L6.55586 14.999C7.62974 14.999 8.64416 14.506 9.30763 13.6616L12.4054 9.71899C13.2586 8.63308 14.5631 7.99902 15.9441 7.99902L17.2918 7.99902Z" fill="currentColor" />
</svg>
