<svg width="24" height="24" viewBox="0 0 24 24" fill="none" xmlns="http://www.w3.org/2000/svg">
<path fill-rule="evenodd" clip-rule="evenodd" d="M5 6H19C19.5523 6 20 6.44771 20 7V17C20 17.5523 19.5523 18 19 18H5C4.44771 18 4 17.5523 4 17V7C4 6.44771 4.44771 6 5 6ZM3 7C3 5.89543 3.89543 5 5 5H19C20.1046 5 21 5.89543 21 7V17C21 18.1046 20.1046 19 19 19H5C3.89543 19 3 18.1046 3 17V7ZM6.14645 10.1465C5.95119 10.3417 5.95119 10.6583 6.14645 10.8535L7.29289 12L6.14645 13.1465C5.95119 13.3417 5.95119 13.6583 6.14645 13.8535C6.34171 14.0488 6.65829 14.0488 6.85355 13.8535L8.35355 12.3535C8.54881 12.1583 8.54881 11.8417 8.35355 11.6465L6.85355 10.1465C6.65829 9.95119 6.34171 9.95119 6.14645 10.1465ZM17.8535 10.1465C18.0488 10.3417 18.0488 10.6583 17.8535 10.8535L16.7071 12L17.8535 13.1465C18.0488 13.3417 18.0488 13.6583 17.8535 13.8535C17.6583 14.0488 17.3417 14.0488 17.1465 13.8535L15.6465 12.3535C15.4512 12.1583 15.4512 11.8417 15.6465 11.6465L17.1465 10.1465C17.3417 9.95119 17.6583 9.95119 17.8535 10.1465Z" fill="currentColor" />
</svg>
