<svg width="24" height="24" viewBox="0 0 24 24" fill="none" xmlns="http://www.w3.org/2000/svg">
<path fill-rule="evenodd" clip-rule="evenodd" d="M6.74643 15.0819C6.96847 15.0819 7.16629 14.9416 7.23975 14.7321L7.86444 12.9502H10.9573L11.5808 14.7318C11.6542 14.9415 11.8521 15.0819 12.0743 15.0819C12.4371 15.0819 12.6896 14.7215 12.5657 14.3805L10.192 7.84659C10.0729 7.51849 9.76109 7.30005 9.41201 7.30005C9.06306 7.30005 8.75138 7.51833 8.63209 7.84626L6.25517 14.3804C6.13114 14.7213 6.38363 15.0819 6.74643 15.0819ZM10.6381 12.0383L9.45258 8.65105C9.44657 8.63386 9.43035 8.62235 9.41213 8.62235C9.39393 8.62235 9.37771 8.63385 9.37169 8.65103L8.18415 12.0383H10.6381ZM14.5085 17.2173C14.8302 17.3338 15.2152 17.3921 15.6636 17.3921C16.1449 17.3921 16.5806 17.3161 16.9707 17.1641C17.0907 17.1173 17.2031 17.0627 17.3078 17.0001H17.5C17.7761 17.0001 18 16.7762 18 16.5001C18 16.4447 17.991 16.3915 17.9744 16.3417C18.1539 16.0432 18.2436 15.6726 18.2436 15.2301V9.74137C18.2436 9.46751 18.0216 9.2455 17.7477 9.2455H17.7192C17.4611 9.2455 17.2519 9.45475 17.2519 9.71287V10.1264C17.2519 10.1561 17.2278 10.1802 17.198 10.1802C17.1795 10.1802 17.1624 10.1707 17.1523 10.1551C17.0852 10.0509 16.9943 9.92501 16.8795 9.77746C16.7579 9.61788 16.5857 9.47729 16.3627 9.3557C16.1398 9.23157 15.8422 9.16951 15.4698 9.16951C14.9885 9.16951 14.5617 9.28983 14.1893 9.53048C13.8169 9.77113 13.5256 10.1144 13.3154 10.5602C13.1051 11.0035 13 11.5291 13 12.1371C13 12.7501 13.1077 13.2694 13.323 13.695C13.5383 14.1205 13.8309 14.4435 14.2007 14.6639C14.5731 14.8817 14.9923 14.9907 15.4584 14.9907C15.8257 14.9907 16.1208 14.9337 16.3437 14.8197C16.5692 14.7032 16.744 14.5689 16.8681 14.4169C16.9837 14.273 17.0741 14.1456 17.1391 14.0346C17.1479 14.0197 17.1638 14.0103 17.1811 14.0103C17.2076 14.0103 17.2291 14.0318 17.2291 14.0583V15.1769C17.2291 15.5174 17.1523 15.7918 16.9988 16.0001H14.3136C14.1382 15.8442 13.8824 15.797 13.6733 15.9091C13.6272 15.9338 13.5863 15.9647 13.5515 16.0001H6.5C6.22386 16.0001 6 16.2239 6 16.5001C6 16.7762 6.22386 17.0001 6.5 17.0001H14.0372C14.1781 17.0835 14.3352 17.1559 14.5085 17.2173ZM16.5147 13.8812C16.2792 14.0382 15.9891 14.1167 15.6446 14.1167C15.2874 14.1167 14.9885 14.0331 14.7479 13.866C14.5098 13.6962 14.3286 13.4619 14.2045 13.163C14.0829 12.8641 14.0221 12.5171 14.0221 12.1219C14.0221 11.7369 14.0816 11.3885 14.2007 11.077C14.3223 10.7654 14.5034 10.5171 14.7441 10.3322C14.9847 10.1473 15.2849 10.0548 15.6446 10.0548C15.9916 10.0548 16.2842 10.1435 16.5223 10.3208C16.7604 10.4956 16.9403 10.7375 17.0619 11.0466C17.1835 11.3556 17.2443 11.7141 17.2443 12.1219C17.2443 12.5373 17.1822 12.8945 17.0581 13.1934C16.934 13.4923 16.7528 13.7216 16.5147 13.8812Z" fill="currentColor" />
</svg>
