<svg width="24" height="24" viewBox="0 0 24 24" fill="none" xmlns="http://www.w3.org/2000/svg">
<path fill-rule="evenodd" clip-rule="evenodd" d="M19.4046 5.86162C18.905 5.36204 18.095 5.36204 17.5955 5.86162L12 11.4571V15.2703L19.4163 7.65893C19.9048 7.15754 19.8996 6.35662 19.4046 5.86162ZM11.9938 16.7096L20.1325 8.35679C21.0029 7.46347 20.9936 6.03645 20.1117 5.15451C19.2216 4.26441 17.7784 4.26441 16.8883 5.15451L11.1491 10.8938L2.65178 19.1412C2.50569 19.283 2.46016 19.4992 2.53666 19.6878C2.61317 19.8765 2.79643 20 3.00002 20H8.50002C10.3626 20 11.8854 18.545 11.9938 16.7096ZM11 12.432L4.23307 19H8.50002C9.88073 19 11 17.8807 11 16.5V12.432Z" fill="currentColor" />
</svg>
