<svg width="24" height="24" viewBox="0 0 24 24" fill="none" xmlns="http://www.w3.org/2000/svg">
<path fill-rule="evenodd" clip-rule="evenodd" d="M17.1661 7.78095C16.7956 7.38733 16.173 7.37791 15.7908 7.76016L12 11.5507L12 14.2614L17.146 9.11541C17.5123 8.74914 17.5212 8.15811 17.1661 7.78095ZM11.9909 15.6848L17.8531 9.82252C18.6016 9.07404 18.6198 7.86627 17.8943 7.09552C17.1371 6.29115 15.8648 6.27191 15.0837 7.05304L11.1465 10.9901L11.1464 10.9901L4.99021 17.1463C4.84721 17.2893 4.80443 17.5044 4.88182 17.6912C4.95922 17.878 5.14153 17.9999 5.34376 17.9999H9.4687C10.7939 17.9999 11.8812 16.9816 11.9909 15.6848ZM11 12.5507L6.55087 16.9999H9.4687C10.3144 16.9999 11 16.3143 11 15.4686L11 12.5507Z" fill="currentColor" />
</svg>
