<svg width="24" height="24" viewBox="0 0 24 24" fill="none" xmlns="http://www.w3.org/2000/svg">
<path fill-rule="evenodd" clip-rule="evenodd" d="M17 7H7C6.44772 7 6 7.44772 6 8V14C6 14.5523 6.44772 15 7 15H17C17.5523 15 18 14.5523 18 14V8C18 7.44772 17.5523 7 17 7ZM7 6C5.89543 6 5 6.89543 5 8V14C5 15.1046 5.89543 16 7 16H8.28877L7.56707 17.25C7.429 17.4892 7.51094 17.795 7.75008 17.933C7.98923 18.0711 8.29502 17.9892 8.4331 17.75L9.44347 16H14.5567L15.5671 17.75C15.7051 17.9892 16.0109 18.0711 16.2501 17.933C16.4892 17.795 16.5712 17.4892 16.4331 17.25L15.7114 16H17C18.1046 16 19 15.1046 19 14V8C19 6.89543 18.1046 6 17 6H7ZM11.5145 8.7756C10.848 8.37569 10 8.8558 10 9.6331V12.3669C10 13.1442 10.848 13.6243 11.5145 13.2244L13.7927 11.8575C14.44 11.4691 14.44 10.5309 13.7927 10.1425L11.5145 8.7756ZM11 9.6331L13.2782 11L11 12.3669V9.6331Z" fill="currentColor" />
</svg>
