<svg width="24" height="24" viewBox="0 0 24 24" fill="none" xmlns="http://www.w3.org/2000/svg">
<path fill-rule="evenodd" clip-rule="evenodd" d="M7 7H17C17.5523 7 18 7.44772 18 8V14C18 14.5523 17.5523 15 17 15H15.0392H14.0008H9.99924H8.96078H7C6.44772 15 6 14.5523 6 14V8C6 7.44772 6.44772 7 7 7ZM8.68078 16H7C5.89543 16 5 15.1046 5 14V8C5 6.89543 5.89543 6 7 6H17C18.1046 6 19 6.89543 19 8V14C19 15.1046 18.1046 16 17 16H15.3192L15.9815 18.3652C16.0559 18.6311 15.9007 18.907 15.6348 18.9815C15.3689 19.0559 15.093 18.9007 15.0185 18.6348L14.2808 16H9.71924L8.98149 18.6348C8.90703 18.9007 8.63111 19.0559 8.36519 18.9815C8.09928 18.907 7.94407 18.6311 8.01852 18.3652L8.68078 16ZM8.5 8.5C7.94772 8.5 7.5 8.94772 7.5 9.5C7.5 10.0523 7.94772 10.5 8.5 10.5C9.05228 10.5 9.5 10.0523 9.5 9.5C9.5 8.94772 9.05228 8.5 8.5 8.5ZM8.5 11.5C7.94772 11.5 7.5 11.9477 7.5 12.5C7.5 13.0523 7.94772 13.5 8.5 13.5C9.05228 13.5 9.5 13.0523 9.5 12.5C9.5 11.9477 9.05228 11.5 8.5 11.5Z" fill="currentColor" />
</svg>
