<svg width="24" height="24" viewBox="0 0 24 24" fill="none" xmlns="http://www.w3.org/2000/svg">
<path fill-rule="evenodd" clip-rule="evenodd" d="M5 6H19C19.5523 6 20 6.44772 20 7V15C20 15.5523 19.5523 16 19 16H5C4.44772 16 4 15.5523 4 15V7C4 6.44772 4.44772 6 5 6ZM3 7C3 5.89543 3.89543 5 5 5H19C20.1046 5 21 5.89543 21 7V15C21 16.1046 20.1046 17 19 17H17.0177L17.9628 19.3107C18.0673 19.5663 17.9449 19.8582 17.6893 19.9628C17.4337 20.0673 17.1418 19.9449 17.0372 19.6893L15.9373 17H8.06281L6.9628 19.6895C6.85826 19.9451 6.56632 20.0676 6.31073 19.963C6.05514 19.8585 5.93268 19.5666 6.03722 19.311L6.9824 17H5C3.89543 17 3 16.1046 3 15V7ZM6 9C6 8.44772 6.44772 8 7 8C7.55228 8 8 8.44772 8 9C8 9.55228 7.55228 10 7 10C6.44772 10 6 9.55228 6 9ZM7 12C6.44772 12 6 12.4477 6 13C6 13.5523 6.44772 14 7 14C7.55228 14 8 13.5523 8 13C8 12.4477 7.55228 12 7 12Z" fill="currentColor" />
</svg>
