<svg width="24" height="24" viewBox="0 0 24 24" fill="none" xmlns="http://www.w3.org/2000/svg">
<path fill-rule="evenodd" clip-rule="evenodd" d="M19 5H5C4.44772 5 4 5.44772 4 6V15C4 15.5523 4.44772 16 5 16H19C19.5523 16 20 15.5523 20 15V6C20 5.44772 19.5523 5 19 5ZM5 4C3.89543 4 3 4.89543 3 6V15C3 16.1046 3.89543 17 5 17H6.86849L5.56701 19.2542C5.42894 19.4934 5.51088 19.7992 5.75002 19.9372C5.98917 20.0753 6.29496 19.9934 6.43304 19.7542L8.02319 17H15.9769L17.567 19.7543C17.7051 19.9934 18.0109 20.0754 18.2501 19.9373C18.4892 19.7992 18.5711 19.4934 18.4331 19.2543L17.1316 17H19C20.1046 17 21 16.1046 21 15V6C21 4.89543 20.1046 4 19 4H5ZM11.53 8.05413C10.864 7.63785 10 8.11669 10 8.90212V12.0979C10 12.8833 10.864 13.3622 11.53 12.9459L14.0866 11.348C14.7133 10.9563 14.7133 10.0437 14.0866 9.652L11.53 8.05413ZM11 8.90212L13.5566 10.5L11 12.0979V8.90212Z" fill="currentColor" />
</svg>
