<svg width="24" height="24" viewBox="0 0 24 24" fill="none" xmlns="http://www.w3.org/2000/svg">
<path fill-rule="evenodd" clip-rule="evenodd" d="M5 6H9C9.55228 6 10 6.44772 10 7V9C10 9.55228 9.55228 10 9 10H5C4.44772 10 4 9.55228 4 9V7C4 6.44772 4.44772 6 5 6ZM3 7C3 5.89543 3.89543 5 5 5H9C10.1046 5 11 5.89543 11 7V9C11 10.1046 10.1046 11 9 11H5C3.89543 11 3 10.1046 3 9V7ZM15 6H19C19.5523 6 20 6.44772 20 7V9C20 9.55228 19.5523 10 19 10H15C14.4477 10 14 9.55228 14 9V7C14 6.44772 14.4477 6 15 6ZM13 7C13 5.89543 13.8954 5 15 5H19C20.1046 5 21 5.89543 21 7V9C21 10.1046 20.1046 11 19 11H15C13.8954 11 13 10.1046 13 9V7ZM19 14H15C14.4477 14 14 14.4477 14 15V17C14 17.5523 14.4477 18 15 18H19C19.5523 18 20 17.5523 20 17V15C20 14.4477 19.5523 14 19 14ZM15 13C13.8954 13 13 13.8954 13 15V17C13 18.1046 13.8954 19 15 19H19C20.1046 19 21 18.1046 21 17V15C21 13.8954 20.1046 13 19 13H15ZM5 14H9C9.55228 14 10 14.4477 10 15V17C10 17.5523 9.55228 18 9 18H5C4.44772 18 4 17.5523 4 17V15C4 14.4477 4.44772 14 5 14ZM3 15C3 13.8954 3.89543 13 5 13H9C10.1046 13 11 13.8954 11 15V17C11 18.1046 10.1046 19 9 19H5C3.89543 19 3 18.1046 3 17V15Z" fill="currentColor" />
</svg>
