<svg width="24" height="24" viewBox="0 0 24 24" fill="none" xmlns="http://www.w3.org/2000/svg">
<path d="M6.8471 15.4945C6.77364 15.704 6.57582 15.8443 6.35378 15.8443C5.99098 15.8443 5.73849 15.4838 5.86251 15.1429L8.23944 8.60871C8.35873 8.28078 8.67041 8.0625 9.01935 8.0625C9.36843 8.0625 9.6802 8.28094 9.79939 8.60904L12.173 15.143C12.2969 15.4839 12.0444 15.8443 11.6816 15.8443C11.4595 15.8443 11.2616 15.7039 11.1882 15.4942L9.05993 9.4135C9.05391 9.39631 9.03769 9.3848 9.01948 9.3848C9.00128 9.3848 8.98506 9.3963 8.97904 9.41348L6.8471 15.4945ZM7.00944 13.2567C7.00944 13.0049 7.21358 12.8007 7.4654 12.8007H10.566C10.8178 12.8007 11.0219 13.0049 11.0219 13.2567C11.0219 13.5085 10.8178 13.7127 10.566 13.7127H7.4654C7.21358 13.7127 7.00944 13.5085 7.00944 13.2567Z" fill="currentColor" />
<path d="M17.4351 11.9803C17.2013 11.9803 17.0042 11.8218 16.8838 11.6214C16.8723 11.6022 16.8604 11.5833 16.8481 11.5648C16.7668 11.443 16.6689 11.3396 16.5544 11.2546C16.44 11.1678 16.3089 11.1023 16.1611 11.058C16.0152 11.0118 15.8555 10.9887 15.6819 10.9887C15.3736 10.9887 15.0984 11.0663 14.8565 11.2214C14.6146 11.3765 14.4244 11.6045 14.2859 11.9055C14.1493 12.2047 14.0809 12.5712 14.0809 13.0052C14.0809 13.4391 14.1493 13.8066 14.2859 14.1076C14.4244 14.4086 14.6155 14.6376 14.8593 14.7945C15.103 14.9496 15.3856 15.0272 15.7069 15.0272C15.9986 15.0272 16.2516 14.9709 16.4658 14.8582C16.6819 14.7438 16.8481 14.5822 16.9644 14.3735C17.0797 14.17 17.1387 13.9305 17.1416 13.655C17.1417 13.644 17.1515 13.6356 17.1624 13.6374C17.1839 13.6411 17.1812 13.6727 17.1594 13.6727H15.9326C15.8661 13.6727 15.8121 13.6188 15.8121 13.5522V13.2808C15.8121 13.0643 15.9876 12.8888 16.2041 12.8888H17.4297C17.8015 12.8888 18.1028 13.1902 18.1028 13.5619C18.1028 14.0476 17.9994 14.4668 17.7926 14.8195C17.5876 15.1722 17.3042 15.4445 16.9422 15.6366C16.5821 15.8268 16.1685 15.9219 15.7013 15.9219C15.1824 15.9219 14.7263 15.8046 14.333 15.5701C13.9397 15.3337 13.6331 14.9977 13.4134 14.5619C13.1937 14.1261 13.0838 13.609 13.0838 13.0107C13.0838 12.5546 13.1484 12.1465 13.2777 11.7864C13.4069 11.4263 13.5879 11.1207 13.8206 10.8696C14.0551 10.6166 14.3293 10.4246 14.6432 10.2935C14.9571 10.1605 15.2997 10.094 15.6709 10.094C15.9829 10.094 16.2738 10.1402 16.5434 10.2325C16.813 10.323 17.053 10.4523 17.2635 10.6203C17.4759 10.7865 17.6504 10.985 17.787 11.2158C17.8202 11.2718 17.8505 11.3291 17.8781 11.3879C18.0169 11.6835 17.7616 11.9803 17.4351 11.9803Z" fill="currentColor" />
</svg>
