<svg width="24" height="24" viewBox="0 0 24 24" fill="none" xmlns="http://www.w3.org/2000/svg">
<path fill-rule="evenodd" clip-rule="evenodd" d="M10 15L12 17L13 18V16.5858V7.41424V6.00003L12 7.00003L10 9.00003H6.5C6.22386 9.00003 6 9.22389 6 9.50003V14.5C6 14.7762 6.22386 15 6.5 15H10ZM12.2929 5.29292L9.58579 8.00003H6.5C5.67157 8.00003 5 8.6716 5 9.50003V14.5C5 15.3285 5.67157 16 6.5 16H9.58579L12.2929 18.7071C12.5789 18.9931 13.009 19.0787 13.3827 18.9239C13.7564 18.7691 14 18.4045 14 18V6.00003C14 5.59557 13.7564 5.23093 13.3827 5.07615C13.009 4.92137 12.5789 5.00692 12.2929 5.29292ZM19 12.0001C19 14.2389 17.5286 16.1341 15.5 16.7712V15.7094C16.9659 15.116 18 13.6788 18 12.0001C18 10.3214 16.9659 8.88427 15.5 8.29088V7.22902C17.5286 7.86615 19 9.7613 19 12.0001ZM17 12.0001C17 13.1105 16.3967 14.0801 15.5 14.5988V13.323C15.8112 12.9705 16 12.5073 16 12.0001C16 11.4929 15.8112 11.0298 15.5 10.6772V9.40146C16.3967 9.92018 17 10.8897 17 12.0001Z" fill="currentColor" />
</svg>
