<svg width="24" height="24" viewBox="0 0 24 24" fill="none" xmlns="http://www.w3.org/2000/svg">
<path fill-rule="evenodd" clip-rule="evenodd" d="M14 7.87871V6.00003C14 5.59557 13.7564 5.23093 13.3827 5.07615C13.009 4.92137 12.5789 5.00692 12.2929 5.29292L9.58579 8.00003H6.5C5.67157 8.00003 5 8.6716 5 9.50003V14.5C5 15.1432 5.40485 15.6919 5.97363 15.9051L6.87868 15H6.5C6.22386 15 6 14.7762 6 14.5V9.50003C6 9.22389 6.22386 9.00003 6.5 9.00003H10L12 7.00003L13 6.00003V7.41424V8.87871L14 7.87871ZM14 12.1213L13 13.1214V16.5858V18L12 17L10.5607 15.5607L9.85355 16.2678L12.2929 18.7071C12.5789 18.9931 13.009 19.0787 13.3827 18.9239C13.7564 18.7691 14 18.4045 14 18V12.1213ZM17.8536 6.14648C18.0488 6.34174 18.0488 6.65832 17.8536 6.85358L6.85355 17.8536C6.65829 18.0488 6.34171 18.0488 6.14645 17.8536C5.95118 17.6583 5.95118 17.3417 6.14645 17.1465L17.1464 6.14648C17.3417 5.95121 17.6583 5.95121 17.8536 6.14648ZM15.5 10.6773V10.6213L16.181 9.94031C16.6887 10.4777 17 11.2026 17 12.0002C17 13.1107 16.3967 14.0802 15.5 14.5989V13.3231C15.8112 12.9706 16 12.5075 16 12.0002C16 11.493 15.8112 11.0299 15.5 10.6773ZM18 12.0002C18 10.9265 17.5769 9.9515 16.8883 9.23299L17.5956 8.52575C18.465 9.42534 19 10.6503 19 12.0002C19 14.2391 17.5286 16.1342 15.5 16.7713V15.7095C16.9659 15.1161 18 13.6789 18 12.0002Z" fill="currentColor" />
</svg>
