<svg width="24" height="24" viewBox="0 0 24 24" fill="none" xmlns="http://www.w3.org/2000/svg">
<path fill-rule="evenodd" clip-rule="evenodd" d="M15 6.00003V6.87892L14 7.87892V7.41424V6.00003L13 7.00003L10.9998 9.00027H7.5C7.22386 9.00027 7 9.22413 7 9.50027V14.5003C7 14.6074 7.03366 14.7066 7.09099 14.7879L6.38039 15.4985C6.1438 15.2334 6 14.8836 6 14.5003V9.50027C6 8.67185 6.67157 8.00027 7.5 8.00027H10.5855L13.2929 5.29292C13.5789 5.00692 14.009 4.92137 14.3827 5.07615C14.7564 5.23093 15 5.59557 15 6.00003ZM14 12.1216L15 11.1216V18C15 18.4045 14.7564 18.7691 14.3827 18.9239C14.009 19.0787 13.5789 18.9931 13.2929 18.7071L10.586 16.0003H10.1213L11.0608 15.0608L13 17L14 18V16.5858V12.1216ZM17.8536 6.85379C18.0488 6.65853 18.0488 6.34194 17.8536 6.14668C17.6583 5.95142 17.3417 5.95142 17.1464 6.14668L6.14645 17.1467C5.95118 17.3419 5.95118 17.6585 6.14645 17.8538C6.34171 18.0491 6.65829 18.0491 6.85355 17.8538L17.8536 6.85379Z" fill="currentColor" />
</svg>
