<svg width="24" height="24" viewBox="0 0 24 24" fill="none" xmlns="http://www.w3.org/2000/svg">
<path fill-rule="evenodd" clip-rule="evenodd" d="M16 9C16 9.55229 15.5523 10 15 10L9 10C8.44772 10 8 9.55228 8 9L8 7C8 6.44772 8.44772 6 9 6H15C15.5523 6 16 6.44772 16 7V9ZM14 9H15V8V7L14 7L10 7H9L9 8V9H10L14 9ZM18 11.5C18 11.7761 17.7761 12 17.5 12H6.5C6.22386 12 6 11.7761 6 11.5C6 11.2239 6.22386 11 6.5 11H17.5C17.7761 11 18 11.2239 18 11.5ZM15 17C15.5523 17 16 16.5523 16 16V14C16 13.4477 15.5523 13 15 13L9 13C8.44772 13 8 13.4477 8 14L8 16C8 16.5523 8.44772 17 9 17L15 17ZM15 16H14H10L9 16V15L9 14L10 14H14H15V15V16Z" fill="currentColor" />
</svg>
