<svg width="24" height="24" viewBox="0 0 24 24" fill="none" xmlns="http://www.w3.org/2000/svg">
<path fill-rule="evenodd" clip-rule="evenodd" d="M12 6C12.2761 6 12.5 6.22386 12.5 6.5V17.5C12.5 17.7761 12.2761 18 12 18C11.7239 18 11.5 17.7761 11.5 17.5V6.5C11.5 6.22386 11.7239 6 12 6ZM9 8C9.55229 8 10 8.44771 10 9V15C10 15.5523 9.55229 16 9 16H7C6.44771 16 6 15.5523 6 15V9C6 8.44771 6.44771 8 7 8H9ZM9 10V9H8H7V10V14V15H8H9V14V10ZM18 9C18 8.44771 17.5523 8 17 8H15C14.4477 8 14 8.44771 14 9V15C14 15.5523 14.4477 16 15 16H17C17.5523 16 18 15.5523 18 15V9ZM17 9V10V14V15H16H15V14V10V9H16H17Z" fill="currentColor" />
</svg>
