<svg width="24" height="24" viewBox="0 0 24 24" fill="none" xmlns="http://www.w3.org/2000/svg">
<path fill-rule="evenodd" clip-rule="evenodd" d="M14.7236 5.0529C14.9706 5.17639 15.0707 5.47673 14.9472 5.72372L14.4472 6.72372C14.3237 6.97071 14.0234 7.07082 13.7764 6.94732C13.5294 6.82383 13.4293 6.52349 13.5528 6.2765L14.0528 5.2765C14.1763 5.02951 14.4766 4.9294 14.7236 5.0529ZM17.8535 6.14656C18.0488 6.34182 18.0488 6.6584 17.8535 6.85366L16.3535 8.35366C16.1583 8.54892 15.8417 8.54892 15.6464 8.35366C15.4512 8.1584 15.4512 7.84182 15.6464 7.64656L17.1464 6.14656C17.3417 5.95129 17.6583 5.95129 17.8535 6.14656ZM11.6464 6.64656C11.8417 6.45129 12.1583 6.45129 12.3535 6.64656L17.3535 11.6466C17.5488 11.8418 17.5488 12.1584 17.3535 12.3537L15.3535 14.3537C15.2986 14.4086 15.2317 14.4499 15.1581 14.4745L12.2701 15.4371L9.56063 18.1466C8.97484 18.7323 8.0251 18.7323 7.43931 18.1466L5.85352 16.5608C5.26774 15.975 5.26774 15.0252 5.85352 14.4395L8.56296 11.73L9.52563 8.842C9.55018 8.76836 9.59153 8.70144 9.64642 8.64656L11.6464 6.64656ZM10.2185 9.92572L14.0744 13.7816L11.8419 14.5258C11.7682 14.5503 11.7013 14.5917 11.6464 14.6466L8.85352 17.4394C8.65826 17.6347 8.34168 17.6347 8.14642 17.4394L6.56063 15.8537C6.36537 15.6584 6.36537 15.3418 6.56063 15.1466L9.35352 12.3537C9.40841 12.2988 9.44977 12.2319 9.47431 12.1582L10.2185 9.92572ZM15 13.293L16.2929 12.0001L12 7.70722L10.7071 9.00011L15 13.293ZM18.9472 9.2765C19.0707 9.52349 18.9706 9.82383 18.7236 9.94732L17.7236 10.4473C17.4766 10.5708 17.1763 10.4707 17.0528 10.2237C16.9293 9.97673 17.0294 9.67639 17.2764 9.5529L18.2764 9.0529C18.5234 8.9294 18.8237 9.02951 18.9472 9.2765ZM11.3535 12.6466C11.5488 12.8418 11.5488 13.1584 11.3535 13.3537L10.8535 13.8537C10.6583 14.0489 10.3417 14.0489 10.1464 13.8537C9.95116 13.6584 9.95116 13.3418 10.1464 13.1466L10.6464 12.6466C10.8417 12.4513 11.1583 12.4513 11.3535 12.6466Z" fill="currentColor" />
</svg>
