<svg width="24" height="24" viewBox="0 0 24 24" fill="none" xmlns="http://www.w3.org/2000/svg">
<path fill-rule="evenodd" clip-rule="evenodd" d="M13 6C13 6.55228 12.5523 7 12 7C11.4477 7 11 6.55228 11 6C11 5.44772 11.4477 5 12 5C12.5523 5 13 5.44772 13 6ZM18 13C17.4477 13 17 12.5523 17 12C17 11.4477 17.4477 11 18 11C18.5523 11 19 11.4477 19 12C19 12.5523 18.5523 13 18 13ZM15.5355 8.46409C15.926 8.85462 16.5592 8.85462 16.9497 8.46409C17.3402 8.07357 17.3402 7.4404 16.9497 7.04988C16.5592 6.65936 15.926 6.65936 15.5355 7.04988C15.145 7.4404 15.145 8.07357 15.5355 8.46409ZM15.5359 16.9493C15.1454 16.5588 15.1454 15.9256 15.5359 15.5351C15.9264 15.1446 16.5596 15.1446 16.9501 15.5351C17.3406 15.9256 17.3406 16.5588 16.9501 16.9493C16.5596 17.3398 15.9264 17.3398 15.5359 16.9493ZM12 19C12.5523 19 13 18.5523 13 18C13 17.4477 12.5523 17 12 17C11.4477 17 11 17.4477 11 18C11 18.5523 11.4477 19 12 19ZM6 13C5.44772 13 5 12.5523 5 12C5 11.4477 5.44772 11 6 11C6.55228 11 7 11.4477 7 12C7 12.5523 6.55228 13 6 13ZM7.05028 16.9494C7.4408 17.34 8.07397 17.34 8.46449 16.9494C8.85502 16.5589 8.85502 15.9258 8.46449 15.5352C8.07397 15.1447 7.4408 15.1447 7.05028 15.5352C6.65975 15.9258 6.65975 16.5589 7.05028 16.9494ZM7.05055 8.46492C6.66003 8.07439 6.66003 7.44123 7.05055 7.05071C7.44108 6.66018 8.07424 6.66018 8.46477 7.05071C8.85529 7.44123 8.85529 8.07439 8.46477 8.46492C8.07424 8.85544 7.44108 8.85544 7.05055 8.46492ZM14 12C14 13.1046 13.1046 14 12 14C10.8954 14 10 13.1046 10 12C10 10.8954 10.8954 10 12 10C13.1046 10 14 10.8954 14 12ZM15 12C15 13.6569 13.6569 15 12 15C10.3431 15 9 13.6569 9 12C9 10.3431 10.3431 9 12 9C13.6569 9 15 10.3431 15 12Z" fill="currentColor" />
</svg>
