<svg width="24" height="24" viewBox="0 0 24 24" fill="none" xmlns="http://www.w3.org/2000/svg">
<path fill-rule="evenodd" clip-rule="evenodd" d="M14.2793 9.99995L14.0514 9.31618L12.0001 3.16223L9.94875 9.31618L9.72083 9.99995H9.00007L3.16083 9.99996L7.99166 13.3967L8.59975 13.8243L8.36555 14.5298L6.4369 20.3395L11.4087 16.6936L12.0001 16.2599L12.5914 16.6936L17.5632 20.3395L15.6346 14.5298L15.4004 13.8243L16.0085 13.3967L20.8393 9.99995H15.0001H14.2793ZM9.00007 8.99995H3.16083C2.18419 8.99995 1.78673 10.2562 2.58564 10.818L7.41648 14.2147L5.48783 20.0245C5.18089 20.9491 6.24264 21.7221 7.02826 21.1459L12.0001 17.5L16.9719 21.1459C17.7575 21.7221 18.8192 20.9491 18.5123 20.0245L16.5837 14.2147L21.4145 10.818C22.2134 10.2562 21.8159 8.99995 20.8393 8.99995H15.0001L12.9488 2.846C12.6449 1.93431 11.3553 1.93431 11.0514 2.846L9.00007 8.99995Z" fill="currentColor" />
</svg>
