<svg width="24" height="24" viewBox="0 0 24 24" fill="none" xmlns="http://www.w3.org/2000/svg">
<path fill-rule="evenodd" clip-rule="evenodd" d="M13.6427 9.99999L13.4132 9.31955L12.0001 5.12931L10.587 9.31954L10.3575 9.99999H9.63941H4.94584L8.78922 12.9493L9.35007 13.3797L9.13139 14.052L7.72492 18.3758L11.4115 15.6916L12.0001 15.263L12.5887 15.6916L16.2753 18.3758L14.8688 14.052L14.6501 13.3797L15.211 12.9493L19.0543 9.99999H14.3608H13.6427ZM9.63941 8.99999H4.65127C3.79138 8.99999 3.42118 10.0905 4.10336 10.614L8.18043 13.7426L6.67854 18.3598C6.40866 19.1895 7.35884 19.8794 8.06416 19.3658L12.0001 16.5L15.936 19.3658C16.6413 19.8794 17.5915 19.1895 17.3216 18.3598L15.8198 13.7426L19.8968 10.614C20.579 10.0905 20.2088 8.99999 19.3489 8.99999H14.3608L12.8529 4.52878C12.5775 3.71225 11.4226 3.71225 11.1473 4.52878L9.63941 8.99999Z" fill="currentColor" />
</svg>
