<svg width="24" height="24" viewBox="0 0 24 24" fill="none" xmlns="http://www.w3.org/2000/svg">
<path fill-rule="evenodd" clip-rule="evenodd" d="M5.5 5H18.5C18.7761 5 19 5.22386 19 5.5V13H13.5C13.2239 13 13 13.2239 13 13.5V19H5.5C5.22386 19 5 18.7761 5 18.5V5.5C5 5.22386 5.22386 5 5.5 5ZM14 18.9036C14.1025 18.855 14.1969 18.7888 14.2787 18.7071L18.7071 14.2787C18.7888 14.1969 18.855 14.1025 18.9036 14H14V18.9036ZM18.5 4H5.5C4.67157 4 4 4.67157 4 5.5V18.5C4 19.3284 4.67157 20 5.5 20H13.5716C14.102 20 14.6107 19.7893 14.9858 19.4142L19.4142 14.9858C19.7893 14.6107 20 14.102 20 13.5716V5.5C20 4.67157 19.3284 4 18.5 4Z" fill="currentColor" />
</svg>
