<svg width="24" height="24" viewBox="0 0 24 24" fill="none" xmlns="http://www.w3.org/2000/svg">
<path fill-rule="evenodd" clip-rule="evenodd" d="M15.0197 8.34276C14.8728 7.85082 14.581 7.44285 14.1442 7.11885C13.5689 6.68797 12.8424 6.47254 11.9645 6.47254C11.3509 6.47254 10.8076 6.57718 10.3345 6.78646C9.8658 6.99163 9.49932 7.27478 9.23512 7.63589C8.97091 7.997 8.83881 8.40941 8.83881 8.87311C8.83881 9.20139 8.91125 9.49274 9.05614 9.74716C9.20103 9.99748 9.39705 10.215 9.64421 10.3996C9.89563 10.5843 10.1769 10.7423 10.488 10.8736C10.8033 11.0049 11.1272 11.1177 11.4595 11.2121L12.5107 11.5H18.5C18.7761 11.5 19 11.7239 19 12C19 12.2761 18.7761 12.5 18.5 12.5H14.0078H12.4099H5.5C5.22386 12.5 5 12.2761 5 12C5 11.7239 5.22386 11.5 5.5 11.5H9.43509C9.11403 11.3197 8.83431 11.1191 8.59591 10.8982C8.03341 10.3771 7.75216 9.71638 7.75216 8.91619C7.75216 8.24321 7.93966 7.65025 8.31466 7.13731C8.68966 6.62437 9.19676 6.22427 9.83597 5.93703C10.4752 5.64568 11.1932 5.5 11.9901 5.5C12.7997 5.5 13.5135 5.64568 14.1314 5.93703C14.7536 6.22427 15.2458 6.62027 15.608 7.125C15.8604 7.46982 16.033 7.84772 16.1257 8.25873C16.1956 8.56858 15.9368 8.83617 15.6192 8.83617C15.3334 8.83617 15.1015 8.61663 15.0197 8.34276ZM15.8358 13.5C15.9346 13.5 16.0272 13.5507 16.0746 13.6373C16.2792 14.0066 16.3814 14.4457 16.3814 14.9545C16.3814 15.6275 16.2003 16.2328 15.8381 16.7704C15.4759 17.3038 14.9581 17.7265 14.2848 18.0384C13.6115 18.3461 12.8083 18.5 11.875 18.5C10.9929 18.5 10.228 18.3605 9.58029 18.0814C8.93256 17.7983 8.4212 17.4064 8.0462 16.9058C7.79465 16.5633 7.61667 16.185 7.51226 15.7707C7.43031 15.4456 7.69977 15.1577 8.03507 15.1577C8.3341 15.1577 8.57455 15.3903 8.66071 15.6767C8.74696 15.9634 8.88516 16.2192 9.07532 16.4441C9.37361 16.7929 9.76353 17.0597 10.2451 17.2443C10.7309 17.4249 11.2742 17.5152 11.875 17.5152C12.5398 17.5152 13.1279 17.4085 13.6392 17.1951C14.1549 16.9776 14.5597 16.676 14.8537 16.2902C15.1478 15.9045 15.2948 15.4552 15.2948 14.9422C15.2948 14.5114 15.1797 14.1482 14.9496 13.8527C14.8485 13.7205 14.9339 13.5 15.1003 13.5H15.8358Z" fill="currentColor" />
</svg>
