<svg width="24" height="24" viewBox="0 0 24 24" fill="none" xmlns="http://www.w3.org/2000/svg">
<path fill-rule="evenodd" clip-rule="evenodd" d="M4.5 7.5C4.5 7.22386 4.72386 7 5 7H18.5C18.7761 7 19 7.22386 19 7.5V10.5854C19.5826 10.7913 20 11.3469 20 12C20 12.6531 19.5826 13.2087 19 13.4146V16.5C19 16.7761 18.7761 17 18.5 17H5C4.72386 17 4.5 16.7761 4.5 16.5C4.5 16.2239 4.72386 16 5 16H18V13.4146C17.5738 13.264 17.236 12.9262 17.0854 12.5H5C4.72386 12.5 4.5 12.2761 4.5 12C4.5 11.7239 4.72386 11.5 5 11.5H17.0854C17.236 11.0738 17.5738 10.736 18 10.5854V8H5C4.72386 8 4.5 7.77614 4.5 7.5Z" fill="currentColor" />
</svg>
