<svg width="24" height="24" viewBox="0 0 24 24" fill="none" xmlns="http://www.w3.org/2000/svg">
<path fill-rule="evenodd" clip-rule="evenodd" d="M11 11.5C11 12.8807 9.88071 14 8.5 14C7.11929 14 6 12.8807 6 11.5C6 10.1193 7.11929 9 8.5 9C9.88071 9 11 10.1193 11 11.5ZM11.9646 11C11.7219 9.30385 10.2632 8 8.5 8C6.567 8 5 9.567 5 11.5C5 13.433 6.567 15 8.5 15C10.2632 15 11.7219 13.6962 11.9646 12H18.5C18.7761 12 19 11.7761 19 11.5C19 11.2239 18.7761 11 18.5 11H11.9646Z" fill="currentColor" />
</svg>
