<svg width="24" height="24" viewBox="0 0 24 24" fill="none" xmlns="http://www.w3.org/2000/svg">
<path fill-rule="evenodd" clip-rule="evenodd" d="M6.53 8.15249C6.22173 7.95982 5.83319 7.94962 5.51523 8.12585C5.19728 8.30207 5 8.63696 5 9.00049V14.0005C5 14.364 5.19728 14.6989 5.51523 14.8751C5.83319 15.0514 6.22173 15.0412 6.53 14.8485L10.53 12.3485L11.0868 12.0005H18.5C18.7761 12.0005 19 11.7766 19 11.5005C19 11.2243 18.7761 11.0005 18.5 11.0005H11.0868L10.53 10.6525L6.53 8.15249ZM6 10.1797V9.00049L7 9.62549L9.0566 10.9109L10 11.5005L9.0566 12.0901L7 13.3755L6 14.0005V12.8212V10.1797Z" fill="currentColor" />
</svg>
