<svg width="24" height="24" viewBox="0 0 24 24" fill="none" xmlns="http://www.w3.org/2000/svg">
<path fill-rule="evenodd" clip-rule="evenodd" d="M5 7.5C5 7.22386 5.22386 7 5.5 7H18.5C18.7761 7 19 7.22386 19 7.5V16.5C19 16.7761 18.7761 17 18.5 17H5.5C5.22386 17 5 16.7761 5 16.5C5 16.2239 5.22386 16 5.5 16H18V8H5.5C5.22386 8 5 7.77614 5 7.5ZM15 12C15 12.8284 14.3284 13.5 13.5 13.5C12.8469 13.5 12.2913 13.0826 12.0854 12.5H5.5C5.22386 12.5 5 12.2761 5 12C5 11.7239 5.22386 11.5 5.5 11.5H12.0854C12.2913 10.9174 12.8469 10.5 13.5 10.5C14.3284 10.5 15 11.1716 15 12Z" fill="currentColor" />
</svg>
