<svg width="24" height="24" viewBox="0 0 24 24" fill="none" xmlns="http://www.w3.org/2000/svg">
<path fill-rule="evenodd" clip-rule="evenodd" d="M9.47 8.15176C9.77827 7.95909 10.1668 7.94889 10.4848 8.12511C10.8027 8.30134 11 8.63623 11 8.99976V10.9995C11 10.9995 11 10.9995 11 10.9995H18.5C18.7762 10.9995 19 11.2233 19 11.4995C19 11.7756 18.7762 11.9995 18.5 11.9995H11C11 11.9995 11 11.9995 11 11.9995V13.9998C11 14.3633 10.8027 14.6982 10.4848 14.8744C10.1668 15.0506 9.77827 15.0404 9.47 14.8478L5.47 12.3478C5.17762 12.165 5 11.8445 5 11.4998C5 11.155 5.17762 10.8345 5.47 10.6518L9.47 8.15176ZM10 10.179V8.99976L9 9.62476L6.9434 10.9101L6 11.4998L6.9434 12.0894L9 13.3748L10 13.9998V12.8205V10.179Z" fill="currentColor" />
</svg>
