<svg width="24" height="24" viewBox="0 0 24 24" fill="none" xmlns="http://www.w3.org/2000/svg">
<path fill-rule="evenodd" clip-rule="evenodd" d="M6 6.5C6 6.22386 6.22386 6 6.5 6H17.5C17.7761 6 18 6.22386 18 6.5C18 6.77614 17.7761 7 17.5 7H6.5C6.22386 7 6 6.77614 6 6.5ZM7 10V11H17V10H7ZM6.75 9C6.33579 9 6 9.33579 6 9.75V11.25C6 11.6642 6.33579 12 6.75 12H17.25C17.6642 12 18 11.6642 18 11.25V9.75C18 9.33579 17.6642 9 17.25 9H6.75ZM7 17V15H17V17H7ZM6 14.75C6 14.3358 6.33579 14 6.75 14H17.25C17.6642 14 18 14.3358 18 14.75V17.25C18 17.6642 17.6642 18 17.25 18H6.75C6.33579 18 6 17.6642 6 17.25V14.75Z" fill="currentColor" />
</svg>
