<svg width="24" height="24" viewBox="0 0 24 24" fill="none" xmlns="http://www.w3.org/2000/svg">
<path d="M7.5097 15.6503C7.43623 15.8598 7.23842 16.0001 7.01638 16.0001C6.65357 16.0001 6.40109 15.6396 6.52511 15.2986L8.90204 8.76447C9.02133 8.43654 9.333 8.21826 9.68195 8.21826C10.031 8.21826 10.3428 8.4367 10.462 8.7648L12.8356 15.2987C12.9595 15.6397 12.707 16.0001 12.3442 16.0001C12.1221 16.0001 11.9242 15.8597 11.8508 15.65L9.72253 9.56926C9.71651 9.55207 9.70029 9.54056 9.68208 9.54056C9.66387 9.54056 9.64766 9.55206 9.64163 9.56924L7.5097 15.6503ZM7.67204 13.4125C7.67204 13.1607 7.87618 12.9565 8.128 12.9565H11.2286C11.4804 12.9565 11.6845 13.1607 11.6845 13.4125C11.6845 13.6643 11.4804 13.8684 11.2286 13.8684H8.128C7.87618 13.8684 7.67204 13.6643 7.67204 13.4125Z" fill="currentColor" />
<path d="M14.3237 17.3376C14.0827 17.3376 13.8874 17.1423 13.8874 16.9013C13.8874 16.7753 13.9419 16.6555 14.0368 16.5726L15.6771 15.1413C15.8493 14.9894 15.9937 14.8538 16.1103 14.7348C16.2268 14.6157 16.3154 14.5005 16.3762 14.389C16.437 14.275 16.4674 14.1534 16.4674 14.0242C16.4674 13.8038 16.3813 13.6303 16.209 13.5037C16.0393 13.3745 15.8291 13.3099 15.5783 13.3099C15.3123 13.3099 15.0983 13.3795 14.9361 13.5189C14.883 13.5645 14.8386 13.6151 14.8028 13.6706C14.6762 13.8673 14.5033 14.0736 14.2693 14.0736C14.0353 14.0736 13.8367 13.8798 13.9021 13.6551C13.9753 13.4031 14.1199 13.1892 14.3358 13.0135C14.6651 12.745 15.0843 12.6107 15.5935 12.6107C15.9355 12.6107 16.2344 12.6715 16.4902 12.7931C16.7486 12.9147 16.95 13.0819 17.0944 13.2947C17.2388 13.5049 17.311 13.743 17.311 14.009C17.311 14.2193 17.2679 14.4143 17.1818 14.5942C17.0982 14.774 16.9665 14.959 16.7866 15.1489C16.6068 15.3364 16.375 15.5479 16.0913 15.7835L15.1647 16.582C15.1595 16.5865 15.1565 16.593 15.1565 16.5998C15.1565 16.6127 15.167 16.6232 15.18 16.6232H17.0754C17.2726 16.6232 17.4326 16.7831 17.4326 16.9804C17.4326 17.1777 17.2726 17.3376 17.0754 17.3376H14.3237Z" fill="currentColor" />
</svg>
