<svg width="24" height="24" viewBox="0 0 24 24" fill="none" xmlns="http://www.w3.org/2000/svg">
<path fill-rule="evenodd" clip-rule="evenodd" d="M12 5C12.2761 5 12.5 5.22386 12.5 5.5V6.5C12.5 6.77614 12.2761 7 12 7C11.7239 7 11.5 6.77614 11.5 6.5V5.5C11.5 5.22386 11.7239 5 12 5ZM16 12C16 14.2091 14.2091 16 12 16C9.79086 16 8 14.2091 8 12C8 9.79086 9.79086 8 12 8C14.2091 8 16 9.79086 16 12ZM12 15C13.6569 15 15 13.6569 15 12C15 10.3431 13.6569 9 12 9C10.3431 9 9 10.3431 9 12C9 13.6569 10.3431 15 12 15ZM7.75687 7.05026C7.56161 6.85499 7.24503 6.85499 7.04977 7.05026C6.8545 7.24552 6.8545 7.5621 7.04977 7.75736L7.75687 8.46447C7.95214 8.65973 8.26872 8.65973 8.46398 8.46447C8.65924 8.26921 8.65924 7.95262 8.46398 7.75736L7.75687 7.05026ZM19 12C19 12.2761 18.7761 12.5 18.5 12.5H17.5C17.2239 12.5 17 12.2761 17 12C17 11.7239 17.2239 11.5 17.5 11.5H18.5C18.7761 11.5 19 11.7239 19 12ZM16.9502 7.75736C17.1455 7.5621 17.1455 7.24552 16.9502 7.05026C16.755 6.85499 16.4384 6.85499 16.2431 7.05026L15.536 7.75736C15.3408 7.95262 15.3408 8.26921 15.536 8.46447C15.7313 8.65973 16.0479 8.65973 16.2431 8.46447L16.9502 7.75736ZM12 17C12.2761 17 12.5 17.2239 12.5 17.5V18.5C12.5 18.7761 12.2761 19 12 19C11.7239 19 11.5 18.7761 11.5 18.5V17.5C11.5 17.2239 11.7239 17 12 17ZM16.2422 15.5356C16.047 15.3403 15.7304 15.3403 15.5351 15.5356C15.3399 15.7309 15.3399 16.0475 15.5351 16.2427L16.2422 16.9498C16.4375 17.1451 16.7541 17.1451 16.9493 16.9498C17.1446 16.7546 17.1446 16.438 16.9493 16.2427L16.2422 15.5356ZM7 12C7 12.2761 6.77614 12.5 6.5 12.5H5.5C5.22386 12.5 5 12.2761 5 12C5 11.7239 5.22386 11.5 5.5 11.5H6.5C6.77614 11.5 7 11.7239 7 12ZM8.46488 16.2427C8.66014 16.0475 8.66014 15.7309 8.46488 15.5356C8.26962 15.3403 7.95304 15.3403 7.75777 15.5356L7.05067 16.2427C6.85541 16.438 6.85541 16.7546 7.05067 16.9498C7.24593 17.1451 7.56251 17.1451 7.75777 16.9498L8.46488 16.2427Z" fill="currentColor" />
</svg>
