<svg width="24" height="24" viewBox="0 0 24 24" fill="none" xmlns="http://www.w3.org/2000/svg">
<path d="M7.50945 15.6503C7.43599 15.8598 7.23817 16.0001 7.01613 16.0001C6.65333 16.0001 6.40084 15.6396 6.52487 15.2986L8.90179 8.76447C9.02108 8.43654 9.33276 8.21826 9.68171 8.21826C10.0308 8.21826 10.3426 8.4367 10.4617 8.7648L12.8354 15.2987C12.9593 15.6397 12.7068 16.0001 12.344 16.0001C12.1218 16.0001 11.9239 15.8597 11.8505 15.65L9.72228 9.56926C9.71627 9.55207 9.70004 9.54056 9.68183 9.54056C9.66363 9.54056 9.64741 9.55206 9.64139 9.56924L7.50945 15.6503ZM7.67179 13.4125C7.67179 13.1607 7.87593 12.9565 8.12776 12.9565H11.2283C11.4801 12.9565 11.6843 13.1607 11.6843 13.4125C11.6843 13.6643 11.4801 13.8684 11.2283 13.8684H8.12776C7.87593 13.8684 7.67179 13.6643 7.67179 13.4125Z" fill="currentColor" />
<path d="M14.3234 12.1092C14.0825 12.1092 13.8872 11.9139 13.8872 11.6729C13.8872 11.5469 13.9417 11.4271 14.0366 11.3442L15.6768 9.91294C15.8491 9.76095 15.9935 9.62542 16.11 9.50637C16.2265 9.38731 16.3152 9.27205 16.376 9.16059C16.4368 9.0466 16.4672 8.92501 16.4672 8.79582C16.4672 8.57543 16.3811 8.40191 16.2088 8.27526C16.0391 8.14607 15.8288 8.08147 15.5781 8.08147C15.3121 8.08147 15.098 8.15113 14.9359 8.29046C14.8828 8.33612 14.8383 8.38669 14.8026 8.44216C14.6759 8.63888 14.503 8.84521 14.269 8.84521C14.0351 8.84521 13.8365 8.65141 13.9018 8.42673C13.9751 8.1747 14.1196 7.96082 14.3355 7.78509C14.6649 7.51658 15.0841 7.38232 15.5932 7.38232C15.9352 7.38232 16.2341 7.44312 16.49 7.56471C16.7484 7.6863 16.9497 7.85349 17.0941 8.06627C17.2385 8.27652 17.3107 8.51464 17.3107 8.78062C17.3107 8.99087 17.2677 9.18592 17.1815 9.36578C17.0979 9.54563 16.9662 9.73055 16.7864 9.92053C16.6065 10.108 16.3747 10.3195 16.091 10.5551L15.1644 11.3536C15.1593 11.3581 15.1563 11.3646 15.1563 11.3714C15.1563 11.3843 15.1668 11.3948 15.1797 11.3948H17.0751C17.2724 11.3948 17.4323 11.5547 17.4323 11.752C17.4323 11.9493 17.2724 12.1092 17.0751 12.1092H14.3234Z" fill="currentColor" />
</svg>
