<svg width="24" height="24" viewBox="0 0 24 24" fill="none" xmlns="http://www.w3.org/2000/svg">
<path fill-rule="evenodd" clip-rule="evenodd" d="M8.35355 6.35355C8.54882 6.15829 8.54882 5.84171 8.35355 5.64645C8.15829 5.45118 7.84171 5.45118 7.64645 5.64645L5.14645 8.14645C4.95118 8.34171 4.95118 8.65829 5.14645 8.85355L7.64645 11.3536C7.84171 11.5488 8.15829 11.5488 8.35355 11.3536C8.54882 11.1583 8.54882 10.8417 8.35355 10.6464L6.70711 9H18.5C18.7761 9 19 8.77614 19 8.5C19 8.22386 18.7761 8 18.5 8H6.70711L8.35355 6.35355ZM15.6464 13.3536C15.4512 13.1583 15.4512 12.8417 15.6464 12.6464C15.8417 12.4512 16.1583 12.4512 16.3536 12.6464L18.8536 15.1464C19.0488 15.3417 19.0488 15.6583 18.8536 15.8536L16.3536 18.3536C16.1583 18.5488 15.8417 18.5488 15.6464 18.3536C15.4512 18.1583 15.4512 17.8417 15.6464 17.6464L17.2929 16H5.5C5.22386 16 5 15.7761 5 15.5C5 15.2239 5.22386 15 5.5 15H17.2929L15.6464 13.3536Z" fill="currentColor" />
</svg>
