<svg width="24" height="24" viewBox="0 0 24 24" fill="none" xmlns="http://www.w3.org/2000/svg">
<path d="M15.8619 8.82407C14.1079 6.69123 10.957 6.38409 8.82416 8.13807C7.75763 9.01515 7.14782 10.2405 7.0236 11.5148C6.99681 11.7897 6.75229 11.9908 6.47745 11.964C6.20261 11.9372 6.00153 11.6927 6.02832 11.4178C6.17721 9.89031 6.90939 8.418 8.18899 7.3657C10.7484 5.26093 14.5295 5.62949 16.6342 8.1889C16.7657 8.3488 16.8876 8.51357 17 8.68251V6.50011C17 6.22397 17.2239 6.00011 17.5 6.00011C17.7761 6.00011 18 6.22397 18 6.50011V9.50011C18 9.77625 17.7761 10.0001 17.5 10.0001H14.5C14.2239 10.0001 14 9.77625 14 9.50011C14 9.22397 14.2239 9.00011 14.5 9.00011H16.0003C15.9557 8.94073 15.9095 8.88203 15.8619 8.82407Z" fill="currentColor" />
<path d="M17.5226 12.0359C17.7974 12.0627 17.9985 12.3072 17.9717 12.582C17.8228 14.1095 17.0906 15.5819 15.811 16.6342C13.2516 18.7389 9.47056 18.3704 7.36579 15.811C7.23428 15.651 7.11237 15.4863 7 15.3173V17.5001C7 17.7763 6.77614 18.0001 6.5 18.0001C6.22386 18.0001 6 17.7763 6 17.5001V14.5001C6 14.224 6.22386 14.0001 6.5 14.0001H9.5C9.77614 14.0001 10 14.224 10 14.5001C10 14.7763 9.77614 15.0001 9.5 15.0001H8.00003C8.04455 15.0594 8.09059 15.1179 8.13816 15.1758C9.89214 17.3086 13.043 17.6158 15.1759 15.8618C16.2424 14.9847 16.8522 13.7593 16.9764 12.485C17.0032 12.2102 17.2477 12.0091 17.5226 12.0359Z" fill="currentColor" />
</svg>
