<svg width="24" height="24" viewBox="0 0 24 24" fill="none" xmlns="http://www.w3.org/2000/svg">
<path fill-rule="evenodd" clip-rule="evenodd" d="M11 8V15C11 16.1046 10.1046 17 9 17C7.89543 17 7 16.1046 7 15V8C7 6.89543 7.89543 6 9 6C10.1046 6 11 6.89543 11 8ZM6 8C6 6.34315 7.34315 5 9 5C10.6569 5 12 6.34315 12 8V15C12 15.7683 11.7112 16.4691 11.2363 16.9998H16C17.1046 16.9998 18 16.1044 18 14.9998C18 13.8953 17.1046 12.9998 16 12.9998L15.2431 12.9998L11.6464 16.5965C11.5572 16.6857 11.4638 16.7681 11.3668 16.8437C11.7636 16.335 12 15.6951 12 15V14.8287L15.8891 10.9396C16.6701 10.1586 16.6701 8.89223 15.8891 8.11118C15.108 7.33013 13.8417 7.33013 13.0607 8.11118L12 9.17182V8.00004C12 7.92147 11.997 7.8436 11.9911 7.76655L12.3536 7.40407C13.5251 6.2325 15.4246 6.2325 16.5962 7.40407C17.7678 8.57564 17.7678 10.4751 16.5962 11.6467L16.2341 12.0088C17.7815 12.1283 19 13.4217 19 14.9998C19 16.6567 17.6569 17.9998 16 17.9998H9.03234L9 18C7.34315 18 6 16.6569 6 15V8ZM9 16C9.55228 16 10 15.5523 10 15C10 14.4477 9.55228 14 9 14C8.44772 14 8 14.4477 8 15C8 15.5523 8.44772 16 9 16Z" fill="currentColor" />
</svg>
