<svg width="24" height="24" viewBox="0 0 24 24" fill="none" xmlns="http://www.w3.org/2000/svg">
<path fill-rule="evenodd" clip-rule="evenodd" d="M6 13V10.9583V10H9V13H6ZM6 14V16C6 16.5523 6.44771 17 7 17H9V14H6ZM10 17H17C17.5523 17 18 16.5523 18 16V14H10V17ZM18 13V10H10V13H18ZM18 9V7C18 6.44771 17.5523 6 17 6H12.555H10V9H18ZM9 6H7C6.44771 6 6 6.44771 6 7V9H9V6ZM5 16V10.9583V7C5 5.89543 5.89543 5 7 5H12.555H17C18.1046 5 19 5.89543 19 7V16C19 17.1046 18.1046 18 17 18H7C5.89543 18 5 17.1046 5 16Z" fill="currentColor" />
</svg>
