<svg width="24" height="24" viewBox="0 0 24 24" fill="none" xmlns="http://www.w3.org/2000/svg">
<path fill-rule="evenodd" clip-rule="evenodd" d="M4 14V11.3333V10H9V14H4ZM3 15V14V11.3333V10V9V6C3 4.89543 3.89543 4 5 4H12.7135H19C20.1046 4 21 4.89543 21 6V18C21 19.1046 20.1046 20 19 20H5C3.89543 20 3 19.1046 3 18V15ZM4 9H9V5H5C4.44772 5 4 5.44772 4 6V9ZM10 5V9H20V6C20 5.44771 19.5523 5 19 5H12.7135H10ZM20 10H10V14H20V10ZM20 15H10V19H19C19.5523 19 20 18.5523 20 18V15ZM9 19H5C4.44771 19 4 18.5523 4 18V15H9V19Z" fill="currentColor" />
</svg>
