<svg width="24" height="24" viewBox="0 0 24 24" fill="none" xmlns="http://www.w3.org/2000/svg">
<path fill-rule="evenodd" clip-rule="evenodd" d="M8.5 7H15.5C15.7761 7 16 7.22386 16 7.5V16.5C16 16.7761 15.7761 17 15.5 17H8.5C8.22386 17 8 16.7761 8 16.5V7.5C8 7.22386 8.22386 7 8.5 7ZM7 7.5C7 6.67157 7.67157 6 8.5 6H15.5C16.3284 6 17 6.67157 17 7.5V16.5C17 17.3284 16.3284 18 15.5 18H8.5C7.67157 18 7 17.3284 7 16.5V7.5ZM12 16C12.2761 16 12.5 15.7761 12.5 15.5C12.5 15.2239 12.2761 15 12 15C11.7239 15 11.5 15.2239 11.5 15.5C11.5 15.7761 11.7239 16 12 16Z" fill="currentColor" />
</svg>
