<svg width="24" height="24" viewBox="0 0 24 24" fill="none" xmlns="http://www.w3.org/2000/svg">
<path fill-rule="evenodd" clip-rule="evenodd" d="M13 11H11V14.208C10.117 14.5938 9.5 15.4748 9.5 16.5C9.5 17.8807 10.6193 19 12 19C13.3807 19 14.5 17.8807 14.5 16.5C14.5 15.4748 13.883 14.5938 13 14.208V11Z" fill="currentColor" fill-opacity="0.3" />
<path fill-rule="evenodd" clip-rule="evenodd" d="M12 5C11.4477 5 11 5.44771 11 6V10H13V6C13 5.44771 12.5523 5 12 5ZM11 13.9014V11H13V13.9014V14.1897L13.2496 14.3342C13.9982 14.7672 14.5 15.5753 14.5 16.5C14.5 17.8807 13.3807 19 12 19C10.6193 19 9.5 17.8807 9.5 16.5C9.5 15.5753 10.0018 14.7672 10.7504 14.3342L11 14.1897V13.9014ZM10 6C10 4.89543 10.8954 4 12 4C13.1046 4 14 4.89543 14 6V13.6274C14.9059 14.2593 15.5 15.31 15.5 16.5C15.5 18.433 13.933 20 12 20C10.067 20 8.5 18.433 8.5 16.5C8.5 15.31 9.09409 14.2593 10 13.6274V6ZM16.5 6C16.2239 6 16 6.22386 16 6.5C16 6.77614 16.2239 7 16.5 7H18.5C18.7761 7 19 6.77614 19 6.5C19 6.22386 18.7761 6 18.5 6H16.5ZM16 9.5C16 9.22386 16.2239 9 16.5 9H18.5C18.7761 9 19 9.22386 19 9.5C19 9.77614 18.7761 10 18.5 10H16.5C16.2239 10 16 9.77614 16 9.5ZM16.5 12C16.2239 12 16 12.2239 16 12.5C16 12.7761 16.2239 13 16.5 13H18.5C18.7761 13 19 12.7761 19 12.5C19 12.2239 18.7761 12 18.5 12H16.5Z" fill="currentColor" />
</svg>
