<svg width="24" height="24" viewBox="0 0 24 24" fill="none" xmlns="http://www.w3.org/2000/svg">
<path fill-rule="evenodd" clip-rule="evenodd" d="M14.8536 13.8536L11.8536 16.8536C11.6583 17.0488 11.3417 17.0488 11.1464 16.8536L8.14645 13.8536C7.95118 13.6583 7.95118 13.3417 8.14645 13.1464C8.34171 12.9512 8.65829 12.9512 8.85355 13.1464L11 15.2929V7.5C11 7.22386 11.2239 7 11.5 7C11.7761 7 12 7.22386 12 7.5V15.2929L14.1464 13.1464C14.3417 12.9512 14.6583 12.9512 14.8536 13.1464C15.0488 13.3417 15.0488 13.6583 14.8536 13.8536ZM5.5 19C5.22386 19 5 18.7761 5 18.5C5 18.2239 5.22386 18 5.5 18H17.5C17.7761 18 18 18.2239 18 18.5C18 18.7761 17.7761 19 17.5 19H5.5Z" fill="currentColor" />
</svg>
