<svg width="24" height="24" viewBox="0 0 24 24" fill="none" xmlns="http://www.w3.org/2000/svg">
<path fill-rule="evenodd" clip-rule="evenodd" d="M7.85355 6.14645C7.65829 5.95118 7.34171 5.95118 7.14645 6.14645C6.95118 6.34171 6.95118 6.65829 7.14645 6.85355L8.29289 8H5.5C5.22386 8 5 8.22386 5 8.5C5 8.77614 5.22386 9 5.5 9H8.29289L7.14645 10.1464C6.95118 10.3417 6.95118 10.6583 7.14645 10.8536C7.34171 11.0488 7.65829 11.0488 7.85355 10.8536L9.85355 8.85355C10.0488 8.65829 10.0488 8.34171 9.85355 8.14645L7.85355 6.14645ZM11.5 8C11.2239 8 11 8.22386 11 8.5C11 8.77614 11.2239 9 11.5 9H18.5C18.7761 9 19 8.77614 19 8.5C19 8.22386 18.7761 8 18.5 8H11.5ZM5 12.5C5 12.2239 5.22386 12 5.5 12H18.5C18.7761 12 19 12.2239 19 12.5C19 12.7761 18.7761 13 18.5 13H5.5C5.22386 13 5 12.7761 5 12.5ZM5.5 16C5.22386 16 5 16.2239 5 16.5C5 16.7761 5.22386 17 5.5 17H18.5C18.7761 17 19 16.7761 19 16.5C19 16.2239 18.7761 16 18.5 16H5.5Z" fill="currentColor" />
</svg>
