<svg width="24" height="24" viewBox="0 0 24 24" fill="none" xmlns="http://www.w3.org/2000/svg">
<path fill-rule="evenodd" clip-rule="evenodd" d="M14.1464 8.14645C14.3417 7.95118 14.6583 7.95118 14.8536 8.14645L17.8536 11.1464C17.9473 11.2402 18 11.3674 18 11.5C18 11.6326 17.9473 11.7598 17.8536 11.8536L14.8536 14.8536C14.6583 15.0488 14.3417 15.0488 14.1464 14.8536C13.9512 14.6583 13.9512 14.3417 14.1464 14.1464L16.2929 12L7.70708 12.0002L9.85355 14.1467C10.0488 14.342 10.0488 14.6585 9.85355 14.8538C9.65829 15.0491 9.34171 15.0491 9.14645 14.8538L6.14645 11.8538C5.95118 11.6585 5.95118 11.342 6.14645 11.1467L9.14645 8.14669C9.34171 7.95143 9.65829 7.95143 9.85355 8.14669C10.0488 8.34195 10.0488 8.65854 9.85355 8.8538L7.70713 11.0002L16.2929 11L14.1464 8.85355C13.9512 8.65829 13.9512 8.34171 14.1464 8.14645Z" fill="currentColor" />
</svg>
