<svg width="24" height="24" viewBox="0 0 24 24" fill="none" xmlns="http://www.w3.org/2000/svg">
<path fill-rule="evenodd" clip-rule="evenodd" d="M5 6.5C5 6.22386 5.22386 6 5.5 6H17.5C17.7761 6 18 6.22386 18 6.5C18 6.77614 17.7761 7 17.5 7H5.5C5.22386 7 5 6.77614 5 6.5ZM11.1464 8.14645C11.3417 7.95118 11.6583 7.95118 11.8536 8.14645L13.8536 10.1464C14.0488 10.3417 14.0488 10.6583 13.8536 10.8536C13.6583 11.0488 13.3417 11.0488 13.1464 10.8536L12 9.70711V14.2929L13.1464 13.1464C13.3417 12.9512 13.6583 12.9512 13.8536 13.1464C14.0488 13.3417 14.0488 13.6583 13.8536 13.8536L11.8536 15.8536C11.6583 16.0488 11.3417 16.0488 11.1464 15.8536L9.14645 13.8536C8.95118 13.6583 8.95118 13.3417 9.14645 13.1464C9.34171 12.9512 9.65829 12.9512 9.85355 13.1464L11 14.2929V9.70711L9.85355 10.8536C9.65829 11.0488 9.34171 11.0488 9.14645 10.8536C8.95118 10.6583 8.95118 10.3417 9.14645 10.1464L11.1464 8.14645ZM5 17.5C5 17.2239 5.22386 17 5.5 17H17.5C17.7761 17 18 17.2239 18 17.5C18 17.7761 17.7761 18 17.5 18H5.5C5.22386 18 5 17.7761 5 17.5Z" fill="currentColor" />
</svg>
