<svg width="24" height="24" viewBox="0 0 24 24" fill="none" xmlns="http://www.w3.org/2000/svg">
<path fill-rule="evenodd" clip-rule="evenodd" d="M5.5 5C5.22386 5 5 5.22386 5 5.5C5 5.77614 5.22386 6 5.5 6H17.5C17.7761 6 18 5.77614 18 5.5C18 5.22386 17.7761 5 17.5 5H5.5ZM11.8536 7.14645C11.6583 6.95118 11.3417 6.95118 11.1464 7.14645L8.14645 10.1464C7.95118 10.3417 7.95118 10.6583 8.14645 10.8536C8.34171 11.0488 8.65829 11.0488 8.85355 10.8536L11 8.70711V16.5C11 16.7761 11.2239 17 11.5 17C11.7761 17 12 16.7761 12 16.5V8.70711L14.1464 10.8536C14.3417 11.0488 14.6583 11.0488 14.8536 10.8536C15.0488 10.6583 15.0488 10.3417 14.8536 10.1464L11.8536 7.14645Z" fill="currentColor" />
</svg>
