<svg width="24" height="24" viewBox="0 0 24 24" fill="none" xmlns="http://www.w3.org/2000/svg">
<path fill-rule="evenodd" clip-rule="evenodd" d="M11.8536 9.85355L13.8536 7.85355C14.0488 7.65829 14.0488 7.34171 13.8536 7.14645C13.6583 6.95118 13.3417 6.95118 13.1464 7.14645L12 8.29289V4.5C12 4.22386 11.7761 4 11.5 4C11.2239 4 11 4.22386 11 4.5V8.29289L9.85355 7.14645C9.65829 6.95118 9.34171 6.95118 9.14645 7.14645C8.95118 7.34171 8.95118 7.65829 9.14645 7.85355L11.1464 9.85355C11.3417 10.0488 11.6583 10.0488 11.8536 9.85355ZM11.8536 13.1464L13.8536 15.1464C14.0488 15.3417 14.0488 15.6583 13.8536 15.8536C13.6583 16.0488 13.3417 16.0488 13.1464 15.8536L12 14.7071V18.5C12 18.7761 11.7761 19 11.5 19C11.2239 19 11 18.7761 11 18.5V14.7071L9.85355 15.8536C9.65829 16.0488 9.34171 16.0488 9.14645 15.8536C8.95118 15.6583 8.95118 15.3417 9.14645 15.1464L11.1464 13.1464C11.3417 12.9512 11.6583 12.9512 11.8536 13.1464ZM5.5 11C5.22386 11 5 11.2239 5 11.5C5 11.7761 5.22386 12 5.5 12H17.5C17.7761 12 18 11.7761 18 11.5C18 11.2239 17.7761 11 17.5 11H5.5Z" fill="currentColor" />
</svg>
