<svg width="24" height="24" viewBox="0 0 24 24" fill="none" xmlns="http://www.w3.org/2000/svg">
<path fill-rule="evenodd" clip-rule="evenodd" d="M4 15.7274V7.92358C4.01701 7.90413 4.03661 7.88246 4.05882 7.85893C4.16939 7.74187 4.34409 7.57986 4.58984 7.41603C5.07724 7.09109 5.85683 6.75 7 6.75C8.14317 6.75 8.92276 7.09109 9.41016 7.41603C9.65591 7.57986 9.83061 7.74187 9.94118 7.85893C9.96339 7.88246 9.98299 7.90413 10 7.92358V8V15.7274C9.97725 15.7143 9.95403 15.7011 9.93033 15.6879C9.29584 15.3354 8.33755 15 7 15C5.66245 15 4.70416 15.3354 4.06967 15.6879C4.04599 15.7011 4.02277 15.7143 4 15.7274ZM11 15.7274C11.0228 15.7143 11.046 15.7011 11.0697 15.6879C11.5331 15.4304 12.1694 15.1821 13 15.0669V16.0782C12.3639 16.1827 11.8896 16.3763 11.5553 16.5621C11.3085 16.6992 11.1346 16.8339 11.0261 16.9296C10.9719 16.9775 10.934 17.0156 10.9117 17.0393C10.9005 17.0511 10.8932 17.0594 10.8897 17.0634L10.8876 17.0658C10.7927 17.1823 10.6504 17.25 10.5 17.25C10.3496 17.25 10.2073 17.1823 10.1124 17.0658L10.1103 17.0634C10.1068 17.0594 10.0995 17.0511 10.0883 17.0393C10.066 17.0156 10.0281 16.9775 9.97388 16.9296C9.86539 16.8339 9.69147 16.6992 9.44467 16.5621C8.95416 16.2896 8.16245 16 7 16C5.83755 16 5.04584 16.2896 4.55533 16.5621C4.30853 16.6992 4.13461 16.8339 4.02612 16.9296C3.97186 16.9775 3.93401 17.0156 3.91165 17.0393C3.90047 17.0511 3.89319 17.0594 3.88968 17.0634L3.88762 17.0658C3.75464 17.229 3.53346 17.2916 3.3345 17.2218C3.13412 17.1515 3 16.9623 3 16.75V7.75C3 7.65129 3.02922 7.55478 3.08397 7.47266L3.5 7.75C3.08397 7.47266 3.08414 7.47241 3.0843 7.47217L3.08466 7.47165L3.08542 7.47049L3.08725 7.46779L3.09209 7.46075L3.10651 7.44041C3.11824 7.42416 3.13425 7.40265 3.15469 7.37663C3.19556 7.32463 3.25423 7.25446 3.3318 7.17232C3.48686 7.00813 3.71841 6.79514 4.03516 6.58397C4.67276 6.15891 5.64317 5.75 7 5.75C8.35683 5.75 9.32724 6.15891 9.96484 6.58397C10.1825 6.7291 10.36 6.87508 10.5 7.00549C10.64 6.87508 10.8175 6.7291 11.0352 6.58397C11.6728 6.15891 12.6432 5.75 14 5.75C15.3568 5.75 16.3272 6.15891 16.9648 6.58397C17.2816 6.79514 17.5131 7.00813 17.6682 7.17232C17.7458 7.25446 17.8044 7.32463 17.8453 7.37663C17.8658 7.40265 17.8818 7.42416 17.8935 7.44041L17.9079 7.46075L17.9128 7.46779L17.9146 7.47049L17.9153 7.47165L17.9157 7.47217C17.9159 7.47241 17.916 7.47266 17.5 7.75L17.916 7.47266C17.9708 7.55478 18 7.65129 18 7.75V10H17V7.92358C16.983 7.90413 16.9634 7.88246 16.9412 7.85893C16.8306 7.74187 16.6559 7.57986 16.4102 7.41603C15.9228 7.09109 15.1432 6.75 14 6.75C12.8568 6.75 12.0772 7.09109 11.5898 7.41603C11.3441 7.57986 11.1694 7.74187 11.0588 7.85893C11.0366 7.88246 11.017 7.90413 11 7.92358V8V15.7274ZM14.5 12C14.2239 12 14 12.2239 14 12.5V13.5C14 13.7761 14.2239 14 14.5 14C14.7761 14 15 13.7761 15 13.5V13H17L17 18H16.5C16.2239 18 16 18.2239 16 18.5C16 18.7761 16.2239 19 16.5 19H17.5H18.5C18.7761 19 19 18.7761 19 18.5C19 18.2239 18.7761 18 18.5 18H18L18 13H20L20 13.5C20 13.7761 20.2238 14 20.5 14C20.7761 14 21 13.7762 21 13.5L21 12.5C21 12.3674 20.9474 12.2402 20.8536 12.1465C20.7598 12.0527 20.6327 12 20.5 12H17.5H14.5Z" fill="currentColor" />
</svg>
