<svg width="24" height="24" viewBox="0 0 24 24" fill="none" xmlns="http://www.w3.org/2000/svg">
<path fill-rule="evenodd" clip-rule="evenodd" d="M4.5 6C4.77614 6 5 6.22386 5 6.5L5 17.5C5 17.7761 4.77614 18 4.5 18C4.22386 18 4 17.7761 4 17.5V6.5C4 6.22386 4.22386 6 4.5 6ZM19.5 6C19.7761 6 20 6.22386 20 6.5L20 17.5C20 17.7761 19.7761 18 19.5 18C19.2239 18 19 17.7761 19 17.5L19 6.5C19 6.22386 19.2239 6 19.5 6ZM8.56445 16H9.58008L10.3843 13.7344H13.6196L14.4238 16H15.4395L12.502 8H11.502L8.56445 16ZM13.3145 12.875L12.0332 9.26562H11.9707L10.6894 12.875H13.3145Z" fill="currentColor" />
</svg>
