<svg width="24" height="24" viewBox="0 0 24 24" fill="none" xmlns="http://www.w3.org/2000/svg">
<path fill-rule="evenodd" clip-rule="evenodd" d="M5 5.5C5 5.22386 5.22386 5 5.5 5H18.5C18.7761 5 19 5.22386 19 5.5C19 5.77614 18.7761 6 18.5 6H5.5C5.22386 6 5 5.77614 5 5.5ZM5 18.5C5 18.2239 5.22386 18 5.5 18H18.5C18.7761 18 19 18.2239 19 18.5C19 18.7761 18.7761 19 18.5 19H5.5C5.22386 19 5 18.7761 5 18.5ZM8.56445 16H9.58008L10.3843 13.7344H13.6196L14.4238 16H15.4395L12.502 8H11.502L8.56445 16ZM13.3145 12.875L12.0332 9.26562H11.9707L10.6894 12.875H13.3145Z" fill="currentColor" />
</svg>
