<svg width="24" height="24" viewBox="0 0 24 24" fill="none" xmlns="http://www.w3.org/2000/svg">
<path fill-rule="evenodd" clip-rule="evenodd" d="M6.5 6C6.77614 6 7 6.22386 7 6.5V17.5C7 17.7761 6.77614 18 6.5 18C6.22386 18 6 17.7761 6 17.5V6.5C6 6.22386 6.22386 6 6.5 6ZM9.50002 10.0002L14.5 10C14.7762 9.99999 15 9.77612 15 9.49998C15 9.22383 14.7761 8.99999 14.5 9L9.49998 9.00024C9.22383 9.00026 8.99999 9.22413 9 9.50027C9.00001 9.77641 9.22388 10.0003 9.50002 10.0002ZM14.5 12.5L9.50002 12.5002C9.22388 12.5003 9.00001 12.2764 9 12.0003C8.99999 11.7241 9.22383 11.5003 9.49998 11.5002L14.5 11.5C14.7761 11.5 15 11.7238 15 12C15 12.2761 14.7762 12.5 14.5 12.5ZM9 14.5C9 14.2239 9.22386 14 9.5 14H12.5C12.7761 14 13 14.2239 13 14.5C13 14.7761 12.7761 15 12.5 15H9.5C9.22386 15 9 14.7761 9 14.5ZM18 6.5C18 6.22386 17.7761 6 17.5 6C17.2239 6 17 6.22386 17 6.5V17.5C17 17.7761 17.2239 18 17.5 18C17.7761 18 18 17.7761 18 17.5V6.5Z" fill="currentColor" />
</svg>
