<svg width="24" height="24" viewBox="0 0 24 24" fill="none" xmlns="http://www.w3.org/2000/svg">
<path d="M17.476 10.5249H18.6C18.355 9.10793 17.144 8.12793 15.575 8.12793C13.693 8.12793 12.319 9.54493 12.319 11.8679C12.319 14.1679 13.654 15.5989 15.625 15.5989C17.389 15.5989 18.65 14.4419 18.65 12.6059V11.7779H15.792V12.6839H17.588C17.564 13.8559 16.789 14.5979 15.625 14.5979C14.343 14.5979 13.409 13.6279 13.409 11.8599C13.409 10.0989 14.349 9.12993 15.582 9.12993C16.548 9.12993 17.202 9.66193 17.475 10.5249H17.476ZM6.41205 15.4999L7.08005 13.5749H9.92005L10.585 15.4999H11.75L9.13305 8.22693H7.86505L5.24805 15.4999H6.41205ZM7.40005 12.6519L8.47205 9.54793H8.52905L9.60005 12.6519H7.40005Z" fill="currentColor" />
</svg>
