<svg width="24" height="24" viewBox="0 0 24 24" fill="none" xmlns="http://www.w3.org/2000/svg">
<path fill-rule="evenodd" clip-rule="evenodd" d="M9.80021 14.2485C9.97789 14.3514 10.1602 14.4886 10.3358 14.6642C10.8051 15.1335 11 15.6505 11 16C11 17.1046 11.8954 18 13 18C14.1046 18 15 17.1046 15 16C15 15.6587 14.9656 15.3245 14.9018 15C14.834 14.6547 14.733 14.3203 14.6049 14H15.6695H16.7796C18.1289 14 19.091 12.6913 18.6886 11.4035L17.6344 8.02996C17.2687 6.85973 16.1083 6.12738 14.8946 6.30077L9.9187 7.01161C9.7161 6.42296 9.15744 6 8.5 6H7.5C6.67157 6 6 6.67157 6 7.5V13.5C6 14.3284 6.67157 15 7.5 15H8.5C9.05584 15 9.54107 14.6977 9.80021 14.2485ZM10 13.229V10V8.01015L15.036 7.29072C15.7643 7.18669 16.4605 7.6261 16.6799 8.32823L17.7341 11.7017C17.9353 12.3457 17.4543 13 16.7796 13H14.6049H13.1284L13.6764 14.3711C13.8826 14.8871 14 15.4355 14 16C14 16.5523 13.5523 17 13 17C12.4477 17 12 16.5523 12 16C12 15.3284 11.6553 14.5695 11.0429 13.9571C10.724 13.6382 10.3653 13.3919 10 13.229ZM9 13.5C9 13.7761 8.77614 14 8.5 14H7.5C7.22386 14 7 13.7761 7 13.5V7.5C7 7.22386 7.22386 7 7.5 7H8.5C8.77614 7 9 7.22386 9 7.5V10V13V13.5Z" fill="currentColor" />
</svg>
