<svg width="24" height="24" viewBox="0 0 24 24" fill="none" xmlns="http://www.w3.org/2000/svg">
<path fill-rule="evenodd" clip-rule="evenodd" d="M9.8002 9.75153C9.97789 9.64859 10.1602 9.5114 10.3358 9.33578C10.8051 8.86649 11 8.34953 11 8C11 6.89543 11.8954 6 13 6C14.1046 6 15 6.89543 15 8C15 8.34134 14.9656 8.67551 14.9018 9C14.834 9.34531 14.733 9.67966 14.6049 10H15.6695H16.7796C18.1289 10 19.091 11.3087 18.6886 12.5965L17.6344 15.97C17.2687 17.1403 16.1083 17.8726 14.8946 17.6992L9.9187 16.9884C9.71609 17.577 9.15744 18 8.5 18H7.5C6.67157 18 6 17.3284 6 16.5V10.5C6 9.67157 6.67157 9 7.5 9H8.5C9.05585 9 9.54106 9.30234 9.8002 9.75153ZM10 10.771V14V15.9899L15.036 16.7093C15.7643 16.8133 16.4605 16.3739 16.6799 15.6718L17.7341 12.2983C17.9353 11.6543 17.4543 11 16.7796 11H14.6049H13.1284L13.6764 9.62888C13.8826 9.11288 14 8.56448 14 8C14 7.44771 13.5523 7 13 7C12.4477 7 12 7.44771 12 8C12 8.67162 11.6553 9.4305 11.0429 10.0429C10.724 10.3618 10.3654 10.6081 10 10.771ZM9 10.5C9 10.2239 8.77614 10 8.5 10H7.5C7.22386 10 7 10.2239 7 10.5V16.5C7 16.7761 7.22386 17 7.5 17H8.5C8.77614 17 9 16.7761 9 16.5V14V11V10.5Z" fill="currentColor" />
</svg>
