<svg width="24" height="24" viewBox="0 0 24 24" fill="none" xmlns="http://www.w3.org/2000/svg">
<path fill-rule="evenodd" clip-rule="evenodd" d="M11.2601 4.32733L12 5C11.2601 4.32733 11.2599 4.32747 11.2598 4.32762L11.2594 4.32803L11.2583 4.32925L11.2547 4.33319L11.2423 4.34698L11.1969 4.39771C11.1579 4.44157 11.1016 4.50528 11.0305 4.58699C10.8885 4.75032 10.6871 4.98595 10.4462 5.2791C9.96521 5.8643 9.32204 6.68416 8.67679 7.61977C8.03365 8.55232 7.37537 9.61867 6.87453 10.6954C6.3813 11.7559 6 12.9116 6 14C6 17.3137 8.68629 20 12 20C15.3137 20 18 17.3137 18 14C18 12.9116 17.6187 11.7559 17.1255 10.6954C16.6246 9.61867 15.9664 8.55232 15.3232 7.61977C14.678 6.68416 14.0348 5.8643 13.5538 5.2791C13.3129 4.98595 13.1115 4.75032 12.9695 4.58699C12.8984 4.50528 12.8421 4.44157 12.8031 4.39771L12.7577 4.34698L12.7453 4.33319L12.7417 4.32925L12.7406 4.32803L12.7402 4.32762C12.7401 4.32747 12.7399 4.32733 12 5L12.7399 4.32733C12.5504 4.11885 12.2817 4 12 4C11.7183 4 11.4496 4.11885 11.2601 4.32733ZM16.8832 13C16.3192 10.4085 13.8551 7.20506 12.6578 5.76469C12.2584 5.28427 12 5 12 5C12 5 11.7416 5.28427 11.3422 5.76469C10.1449 7.20506 7.68083 10.4085 7.11678 13H16.8832ZM17 14H7C7 16.7614 9.23857 19 12 19C14.7614 19 17 16.7614 17 14Z" fill="currentColor" />
<path d="M12 19C14.7614 19 17 16.7614 17 14H7C7 16.7614 9.23858 19 12 19Z" fill="currentColor" fill-opacity="0.3" />
</svg>
