<svg width="24" height="24" viewBox="0 0 24 24" fill="none" xmlns="http://www.w3.org/2000/svg">
<path d="M6.61956 15.7318C6.5461 15.9414 6.34828 16.0816 6.12624 16.0816C5.76344 16.0816 5.51095 15.7211 5.63498 15.3802L8.0119 8.84601C8.13119 8.51809 8.44287 8.2998 8.79182 8.2998C9.1409 8.2998 9.45266 8.51825 9.57185 8.84635L11.9455 15.3803C12.0694 15.7212 11.8169 16.0816 11.4541 16.0816C11.2319 16.0816 11.034 15.9412 10.9606 15.7315L8.83239 9.6508C8.82637 9.63362 8.81015 9.62211 8.79194 9.62211C8.77374 9.62211 8.75752 9.63361 8.7515 9.65078L6.61956 15.7318ZM6.7819 13.494C6.7819 13.2422 6.98604 13.0381 7.23786 13.0381H10.3384C10.5903 13.0381 10.7944 13.2422 10.7944 13.494C10.7944 13.7458 10.5903 13.95 10.3384 13.95H7.23787C6.98604 13.95 6.7819 13.7458 6.7819 13.494Z" fill="currentColor" />
<path d="M15.5197 18.3919C15.0713 18.3919 14.6863 18.3336 14.3646 18.2171C14.0429 18.1031 13.7769 17.9511 13.5666 17.7611C13.4949 17.6955 13.4289 17.6281 13.3686 17.5588C13.1858 17.3487 13.2838 17.0405 13.5294 16.9089C13.7586 16.786 14.044 16.8546 14.2181 17.0478C14.2201 17.05 14.222 17.0522 14.224 17.0543C14.3456 17.1861 14.5102 17.3001 14.7179 17.3963C14.9257 17.4926 15.1954 17.5407 15.5273 17.5407C15.9782 17.5407 16.3506 17.4305 16.6444 17.2101C16.9382 16.9923 17.0852 16.6478 17.0852 16.1766V15.0581C17.0852 15.0316 17.0637 15.0101 17.0372 15.0101C17.0199 15.0101 17.004 15.0194 16.9952 15.0344C16.9301 15.1453 16.8398 15.2728 16.7242 15.4167C16.6001 15.5687 16.4253 15.7029 16.1998 15.8194C15.9769 15.9334 15.6818 15.9904 15.3145 15.9904C14.8484 15.9904 14.4292 15.8815 14.0568 15.6637C13.687 15.4433 13.3944 15.1203 13.1791 14.6947C12.9637 14.2692 12.8561 13.7499 12.8561 13.1368C12.8561 12.5289 12.9612 12.0033 13.1715 11.56C13.3817 11.1141 13.673 10.7709 14.0454 10.5302C14.4178 10.2896 14.8446 10.1693 15.3259 10.1693C15.6983 10.1693 15.9959 10.2313 16.2188 10.3555C16.4418 10.477 16.614 10.6176 16.7356 10.7772C16.8504 10.9248 16.9413 11.0507 17.0084 11.1549C17.0184 11.1705 17.0356 11.18 17.0541 11.18C17.0839 11.18 17.108 11.1559 17.108 11.1262V10.7126C17.108 10.4545 17.3172 10.2453 17.5753 10.2453H17.6038C17.8777 10.2453 18.0997 10.4673 18.0997 10.7411V16.2298C18.0997 16.7314 17.9844 17.1405 17.7539 17.4571C17.5259 17.7763 17.2169 18.0119 16.8268 18.1639C16.4367 18.3159 16.001 18.3919 15.5197 18.3919ZM15.5007 15.1165C15.8452 15.1165 16.1352 15.038 16.3708 14.8809C16.6089 14.7213 16.7901 14.4921 16.9142 14.1932C17.0383 13.8943 17.1004 13.5371 17.1004 13.1216C17.1004 12.7138 17.0396 12.3554 16.918 12.0463C16.7964 11.7373 16.6165 11.4954 16.3784 11.3206C16.1403 11.1433 15.8477 11.0546 15.5007 11.0546C15.141 11.0546 14.8408 11.1471 14.6002 11.332C14.3595 11.5169 14.1784 11.7651 14.0568 12.0767C13.9377 12.3883 13.8782 12.7366 13.8782 13.1216C13.8782 13.5168 13.939 13.8639 14.0606 14.1628C14.1847 14.4617 14.3658 14.696 14.604 14.8657C14.8446 15.0329 15.1435 15.1165 15.5007 15.1165Z" fill="currentColor" />
</svg>
