<svg width="24" height="24" viewBox="0 0 24 24" fill="none" xmlns="http://www.w3.org/2000/svg">
<path fill-rule="evenodd" clip-rule="evenodd" d="M9.5 5C9.22386 5 9 5.22386 9 5.5V7H5.5C5.22386 7 5 7.22386 5 7.5C5 7.77614 5.22386 8 5.5 8H11.1616C10.7418 9.19839 10.2666 10.0809 9.49365 11.0667L7.99039 9.18765C7.8955 9.06904 7.75185 9 7.59996 9C7.1807 9 6.94761 9.48497 7.20952 9.81235L8.83909 11.8493C8.15945 12.6193 7.2922 13.4991 6.14603 14.6467C5.95089 14.842 5.95108 15.1586 6.14647 15.3538C6.34185 15.5489 6.65843 15.5487 6.85357 15.3533C7.9336 14.272 8.78439 13.4119 9.47317 12.6419L10.8798 14.4002C11.1204 14.7009 11.5964 14.6282 11.7362 14.2693C11.8009 14.103 11.7722 13.9148 11.6607 13.7755L10.1344 11.8676C11.0783 10.6995 11.6605 9.64783 12.164 8.16031L12.2183 8H13.5C13.7761 8 14 7.77614 14 7.5C14 7.22386 13.7761 7 13.5 7H10V5.5C10 5.22386 9.77614 5 9.5 5ZM14.5 11C14.2981 11 14.1161 11.1214 14.0385 11.3077L12.3718 15.3077L11.5385 17.3077C11.4323 17.5626 11.5528 17.8553 11.8077 17.9615C12.0626 18.0677 12.3553 17.9472 12.4615 17.6923L13.1667 16H16.3333L17.0385 17.6923C17.1447 17.9472 17.4374 18.0677 17.6923 17.9615C17.9472 17.8553 18.0677 17.5626 17.9615 17.3077L17.1282 15.3077L15.4615 11.3077C15.3839 11.1214 15.2019 11 15 11H14.5ZM14.75 12.2L15.9167 15H13.5833L14.75 12.2ZM17.0149 6.44026L16.7 7.69997L15.4403 8.0149C14.9353 8.14114 14.9353 8.8588 15.4403 8.98504L16.7 9.29997L17.0149 10.5597C17.1411 11.0647 17.8588 11.0647 17.985 10.5597L18.3 9.29997L19.5597 8.98504C20.0647 8.8588 20.0647 8.14114 19.5597 8.0149L18.3 7.69997L17.985 6.44026C17.8588 5.93528 17.1411 5.93528 17.0149 6.44026Z" fill="currentColor" />
</svg>
