<svg width="24" height="24" viewBox="0 0 24 24" fill="none" xmlns="http://www.w3.org/2000/svg">
<path fill-rule="evenodd" clip-rule="evenodd" d="M10 6C10 5.44771 10.4477 5 11 5H13C13.5523 5 14 5.44771 14 6H10ZM9 6C9 4.89543 9.89543 4 11 4H13C14.1046 4 15 4.89543 15 6H17.5C18.3284 6 19 6.67157 19 7.5C19 8.16678 18.565 8.73193 17.9632 8.92711L17.122 18.1811C17.0283 19.2112 16.1646 20 15.1302 20H8.86983C7.83542 20 6.97168 19.2112 6.87804 18.1811L6.03677 8.92711C5.43504 8.73193 5 8.16678 5 7.5C5 6.67157 5.67157 6 6.5 6H9ZM17.4942 8H17.5027C17.7776 7.99855 18 7.77524 18 7.5C18 7.22386 17.7761 7 17.5 7H14.5H9.5H6.5C6.22386 7 6 7.22386 6 7.5C6 7.77524 6.22241 7.99855 6.49731 8H6.50578H17.4942ZM16.9525 9H7.04752L7.87393 18.0905C7.92076 18.6056 8.35262 19 8.86983 19H15.1302C15.6474 19 16.0792 18.6056 16.1261 18.0905L16.9525 9ZM11 11.5C11 11.2239 10.7761 11 10.5 11C10.2239 11 10 11.2239 10 11.5V16.5C10 16.7761 10.2239 17 10.5 17C10.7761 17 11 16.7761 11 16.5V11.5ZM14 11.5C14 11.2239 13.7761 11 13.5 11C13.2239 11 13 11.2239 13 11.5V16.5C13 16.7761 13.2239 17 13.5 17C13.7761 17 14 16.7761 14 16.5V11.5Z" fill="currentColor" />
</svg>
