<svg width="24" height="24" viewBox="0 0 24 24" fill="none" xmlns="http://www.w3.org/2000/svg">
<path fill-rule="evenodd" clip-rule="evenodd" d="M5.70236 15.2727C5.90988 15.2727 6.09475 15.1416 6.16341 14.9458L6.74723 13.2805H9.63775L10.2205 14.9455C10.2891 15.1415 10.474 15.2727 10.6817 15.2727C11.0207 15.2727 11.2567 14.9359 11.1409 14.6173L8.92256 8.51079C8.81117 8.20415 8.5198 8 8.19355 8C7.86743 8 7.57615 8.204 7.46466 8.51047L5.24324 14.6172C5.12733 14.9358 5.36329 15.2727 5.70236 15.2727ZM9.33945 12.4283L8.23148 9.26262C8.22585 9.24655 8.21069 9.2358 8.19367 9.2358C8.17666 9.2358 8.1615 9.24654 8.15587 9.2626L7.04603 12.4283H9.33945ZM12.9329 15.3367C12.7482 15.3367 12.5896 15.2704 12.457 15.1379C12.3245 15.0053 12.2582 14.8467 12.2582 14.662C12.2582 14.4774 12.3245 14.3187 12.457 14.1862C12.5896 14.0536 12.7482 13.9873 12.9329 13.9873C13.1176 13.9873 13.2762 14.0536 13.4087 14.1862C13.5413 14.3187 13.6076 14.4774 13.6076 14.662C13.6076 14.7828 13.5768 14.8952 13.5153 14.9994C13.4537 15.1012 13.3721 15.1829 13.2703 15.2444C13.1708 15.306 13.0584 15.3367 12.9329 15.3367ZM15.1499 15.1379C15.2825 15.2704 15.4411 15.3367 15.6258 15.3367C15.7512 15.3367 15.8637 15.306 15.9631 15.2444C16.0649 15.1829 16.1466 15.1012 16.2081 14.9994C16.2697 14.8952 16.3005 14.7828 16.3005 14.662C16.3005 14.4774 16.2342 14.3187 16.1016 14.1862C15.969 14.0536 15.8104 13.9873 15.6258 13.9873C15.4411 13.9873 15.2825 14.0536 15.1499 14.1862C15.0173 14.3187 14.951 14.4774 14.951 14.662C14.951 14.8467 15.0173 15.0053 15.1499 15.1379ZM17.8433 15.1379C17.9758 15.2704 18.1345 15.3367 18.3191 15.3367C18.4446 15.3367 18.557 15.306 18.6565 15.2444C18.7583 15.1829 18.84 15.1012 18.9015 14.9994C18.9631 14.8952 18.9938 14.7828 18.9938 14.662C18.9938 14.4774 18.9276 14.3187 18.795 14.1862C18.6624 14.0536 18.5038 13.9873 18.3191 13.9873C18.1345 13.9873 17.9758 14.0536 17.8433 14.1862C17.7107 14.3187 17.6444 14.4774 17.6444 14.662C17.6444 14.8467 17.7107 15.0053 17.8433 15.1379Z" fill="currentColor" />
</svg>
