<svg width="24" height="24" viewBox="0 0 24 24" fill="none" xmlns="http://www.w3.org/2000/svg">
<path fill-rule="evenodd" clip-rule="evenodd" d="M17.5 6H14.5C14.2239 6 14 6.22386 14 6.5V9.5C14 9.77614 14.2239 10 14.5 10H17.5C17.7761 10 18 9.77614 18 9.5V6.5C18 6.22386 17.7761 6 17.5 6ZM14.5 5C13.6716 5 13 5.67157 13 6.5V9.5C13 10.3284 13.6716 11 14.5 11H17.5C18.3284 11 19 10.3284 19 9.5V6.5C19 5.67157 18.3284 5 17.5 5H14.5ZM7.5 8H10.5C10.7761 8 11 8.22386 11 8.5V11.5C11 11.7761 10.7761 12 10.5 12H7.5C7.22386 12 7 11.7761 7 11.5V8.5C7 8.22386 7.22386 8 7.5 8ZM6.38194 12.5C6.14442 12.2346 6 11.8842 6 11.5V8.5C6 7.67157 6.67157 7 7.5 7H10.5C11.3284 7 12 7.67157 12 8.5V11.5C12 11.7312 11.9477 11.9502 11.8543 12.1457C12.0499 12.0523 12.2688 12 12.5 12H15.5C16.3284 12 17 12.6716 17 13.5V16.5C17 17.3284 16.3284 18 15.5 18H12.5C12.1158 18 11.7654 17.8556 11.5 17.6181C11.2346 17.8556 10.8842 18 10.5 18H7.5C6.67157 18 6 17.3284 6 16.5V13.5C6 13.1158 6.14442 12.7654 6.38194 12.5ZM12 13.5V16.5C12 16.7761 12.2239 17 12.5 17H15.5C15.7761 17 16 16.7761 16 16.5V13.5C16 13.2239 15.7761 13 15.5 13H12.5C12.2239 13 12 13.2239 12 13.5ZM11 13.5C11 13.2239 10.7761 13 10.5 13H7.5C7.22386 13 7 13.2239 7 13.5V16.5C7 16.7761 7.22386 17 7.5 17H10.5C10.7761 17 11 16.7761 11 16.5V13.5Z" fill="currentColor" />
</svg>
