<svg width="24" height="24" viewBox="0 0 24 24" fill="none" xmlns="http://www.w3.org/2000/svg">
<path fill-rule="evenodd" clip-rule="evenodd" d="M9 6.50049C9 6.22435 8.77614 6.00049 8.5 6.00049C8.22386 6.00049 8 6.22435 8 6.50049V11.0005C8 13.2096 9.79086 15.0005 12 15.0005C14.2091 15.0005 16 13.2096 16 11.0005V6.50049C16 6.22435 15.7761 6.00049 15.5 6.00049C15.2239 6.00049 15 6.22435 15 6.50049V11.0005C15 12.6573 13.6569 14.0005 12 14.0005C10.3431 14.0005 9 12.6573 9 11.0005V6.50049ZM16.6986 17.5093C16.8416 17.3694 17 17.2144 17 17.0215V16.9142C17 16.6381 16.7701 16.4063 16.5091 16.4964C16.301 16.5683 16.1055 16.6874 15.9393 16.8536L15.3536 17.4393C15.1583 17.6346 14.8417 17.6346 14.6464 17.4393L14.0607 16.8536C13.4749 16.2678 12.5251 16.2678 11.9393 16.8536L11.3536 17.4393C11.1583 17.6346 10.8417 17.6346 10.6464 17.4393L10.0607 16.8536C9.47487 16.2678 8.52513 16.2678 7.93934 16.8536L7.35355 17.4393C7.33662 17.4563 7.31912 17.4734 7.30139 17.4907C7.15843 17.6306 7 17.7856 7 17.9785V18.0858C7 18.3619 7.22986 18.5937 7.49087 18.5036C7.69901 18.4317 7.89448 18.3126 8.06066 18.1464L8.64645 17.5607C8.84171 17.3654 9.15829 17.3654 9.35355 17.5607L9.93934 18.1464C10.5251 18.7322 11.4749 18.7322 12.0607 18.1464L12.6464 17.5607C12.8417 17.3654 13.1583 17.3654 13.3536 17.5607L13.9393 18.1464C14.5251 18.7322 15.4749 18.7322 16.0607 18.1464L16.6464 17.5607C16.6634 17.5437 16.6809 17.5266 16.6986 17.5093Z" fill="currentColor" />
</svg>
