<svg width="24" height="24" viewBox="0 0 24 24" fill="none" xmlns="http://www.w3.org/2000/svg">
<path fill-rule="evenodd" clip-rule="evenodd" d="M9 6.50049C9 6.22435 8.77614 6.00049 8.5 6.00049C8.22386 6.00049 8 6.22435 8 6.50049V11.0005C8 13.2096 9.79086 15.0005 12 15.0005C14.2091 15.0005 16 13.2096 16 11.0005V6.50049C16 6.22435 15.7761 6.00049 15.5 6.00049C15.2239 6.00049 15 6.22435 15 6.50049V11.0005C15 12.6573 13.6569 14.0005 12 14.0005C10.3431 14.0005 9 12.6573 9 11.0005V6.50049ZM7.5 17.5C7.5 17.7761 7.27614 18 7 18C6.72386 18 6.5 17.7761 6.5 17.5C6.5 17.2239 6.72386 17 7 17C7.27614 17 7.5 17.2239 7.5 17.5ZM9.5 17.5C9.5 17.7761 9.27614 18 9 18C8.72386 18 8.5 17.7761 8.5 17.5C8.5 17.2239 8.72386 17 9 17C9.27614 17 9.5 17.2239 9.5 17.5ZM11 18C11.2761 18 11.5 17.7761 11.5 17.5C11.5 17.2239 11.2761 17 11 17C10.7239 17 10.5 17.2239 10.5 17.5C10.5 17.7761 10.7239 18 11 18ZM13.5 17.5C13.5 17.7761 13.2761 18 13 18C12.7239 18 12.5 17.7761 12.5 17.5C12.5 17.2239 12.7239 17 13 17C13.2761 17 13.5 17.2239 13.5 17.5ZM15 18C15.2761 18 15.5 17.7761 15.5 17.5C15.5 17.2239 15.2761 17 15 17C14.7239 17 14.5 17.2239 14.5 17.5C14.5 17.7761 14.7239 18 15 18ZM17.5 17.5C17.5 17.7761 17.2761 18 17 18C16.7239 18 16.5 17.7761 16.5 17.5C16.5 17.2239 16.7239 17 17 17C17.2761 17 17.5 17.2239 17.5 17.5Z" fill="currentColor" />
</svg>
