<svg width="24" height="24" viewBox="0 0 24 24" fill="none" xmlns="http://www.w3.org/2000/svg">
<path fill-rule="evenodd" clip-rule="evenodd" d="M9 6.50049C9 6.22435 8.77614 6.00049 8.5 6.00049C8.22386 6.00049 8 6.22435 8 6.50049V11.0005C8 13.2096 9.79086 15.0005 12 15.0005C14.2091 15.0005 16 13.2096 16 11.0005V6.50049C16 6.22435 15.7761 6.00049 15.5 6.00049C15.2239 6.00049 15 6.22435 15 6.50049V11.0005C15 12.6573 13.6569 14.0005 12 14.0005C10.3431 14.0005 9 12.6573 9 11.0005V6.50049ZM7 17C6.72386 17 6.5 17.2239 6.5 17.5C6.5 17.7761 6.72386 18 7 18H9C9.27614 18 9.5 17.7761 9.5 17.5C9.5 17.2239 9.27614 17 9 17H7ZM11 17C10.7239 17 10.5 17.2239 10.5 17.5C10.5 17.7761 10.7239 18 11 18H13C13.2761 18 13.5 17.7761 13.5 17.5C13.5 17.2239 13.2761 17 13 17H11ZM14.5 17.5C14.5 17.2239 14.7239 17 15 17H17C17.2761 17 17.5 17.2239 17.5 17.5C17.5 17.7761 17.2761 18 17 18H15C14.7239 18 14.5 17.7761 14.5 17.5Z" fill="currentColor" />
</svg>
