<svg width="24" height="24" viewBox="0 0 24 24" fill="none" xmlns="http://www.w3.org/2000/svg">
<path fill-rule="evenodd" clip-rule="evenodd" d="M9 6.50049C9 6.22435 8.77614 6.00049 8.5 6.00049C8.22386 6.00049 8 6.22435 8 6.50049V11.0005C8 13.2096 9.79086 15.0005 12 15.0005C14.2091 15.0005 16 13.2096 16 11.0005V6.50049C16 6.22435 15.7761 6.00049 15.5 6.00049C15.2239 6.00049 15 6.22435 15 6.50049V11.0005C15 12.6573 13.6569 14.0005 12 14.0005C10.3431 14.0005 9 12.6573 9 11.0005V6.50049ZM17.5 18C17.7761 18 18 17.7762 18 17.5C18 17.2239 17.7761 17 17.5 17L6.5 17C6.22386 17 6 17.2239 6 17.5C6 17.7762 6.22386 18 6.5 18L17.5 18Z" fill="currentColor" />
</svg>
