<svg width="24" height="24" viewBox="0 0 24 24" fill="none" xmlns="http://www.w3.org/2000/svg">
<path fill-rule="evenodd" clip-rule="evenodd" d="M7.5 6C6.67157 6 6 6.67157 6 7.5C6 7.77614 6.22386 8 6.5 8C6.77614 8 7 7.77614 7 7.5C7 7.22386 7.22386 7 7.5 7C7.77614 7 8 6.77614 8 6.5C8 6.22386 7.77614 6 7.5 6ZM9.5 6C9.22386 6 9 6.22386 9 6.5C9 6.77614 9.22386 7 9.5 7H11C11.2761 7 11.5 6.77614 11.5 6.5C11.5 6.22386 11.2761 6 11 6H9.5ZM13 6C12.7239 6 12.5 6.22386 12.5 6.5C12.5 6.77614 12.7239 7 13 7H14.5C14.7761 7 15 6.77614 15 6.5C15 6.22386 14.7761 6 14.5 6H13ZM7 11V9.5C7 9.22386 6.77614 9 6.5 9C6.22386 9 6 9.22386 6 9.5V11C6 11.2761 6.22386 11.5 6.5 11.5C6.77614 11.5 7 11.2761 7 11ZM18 11V9.5C18 9.22386 17.7761 9 17.5 9C17.2239 9 17 9.22386 17 9.5V11C17 11.2761 17.2239 11.5 17.5 11.5C17.7761 11.5 18 11.2761 18 11ZM7 14.5V13C7 12.7239 6.77614 12.5 6.5 12.5C6.22386 12.5 6 12.7239 6 13V14.5C6 14.7761 6.22386 15 6.5 15C6.77614 15 7 14.7761 7 14.5ZM18 14.5V13C18 12.7239 17.7761 12.5 17.5 12.5C17.2239 12.5 17 12.7239 17 13V14.5C17 14.7761 17.2239 15 17.5 15C17.7761 15 18 14.7761 18 14.5ZM16.5 18C17.3284 18 18 17.3284 18 16.5C18 16.2239 17.7761 16 17.5 16C17.2239 16 17 16.2239 17 16.5C17 16.7761 16.7761 17 16.5 17C16.2239 17 16 17.2239 16 17.5C16 17.7761 16.2239 18 16.5 18ZM9.5 17C9.22386 17 9 17.2239 9 17.5C9 17.7761 9.22386 18 9.5 18H11C11.2761 18 11.5 17.7761 11.5 17.5C11.5 17.2239 11.2761 17 11 17H9.5ZM13 17C12.7239 17 12.5 17.2239 12.5 17.5C12.5 17.7761 12.7239 18 13 18H14.5C14.7761 18 15 17.7761 15 17.5C15 17.2239 14.7761 17 14.5 17H13ZM17.8535 6.85355C18.0488 6.65829 18.0488 6.34171 17.8535 6.14645C17.6583 5.95119 17.3417 5.95119 17.1465 6.14645L6.14645 17.1465C5.95119 17.3417 5.95119 17.6583 6.14645 17.8535C6.34171 18.0488 6.65829 18.0488 6.85355 17.8535L17.8535 6.85355Z" fill="currentColor" />
</svg>
