<svg width="24" height="24" viewBox="0 0 24 24" fill="none" xmlns="http://www.w3.org/2000/svg">
<path fill-rule="evenodd" clip-rule="evenodd" d="M17.0385 10.9136L16.9896 10.1903C16.831 7.85 14.8811 6 12.5 6C10.7473 6 9.22687 7.0018 8.48326 8.46863L8.23008 8.96806L7.67196 9.01321C5.61677 9.17946 4 10.9014 4 13C4 15.2091 5.79086 17 8 17H10C10.2761 17 10.5 17.2239 10.5 17.5C10.5 17.7761 10.2761 18 10 18H8C5.23858 18 3 15.7614 3 13C3 10.3762 5.02105 8.22438 7.59133 8.01646C8.49866 6.22668 10.3561 5 12.5 5C15.4108 5 17.7934 7.26115 17.9873 10.1228C19.719 10.5624 21 12.1316 21 14C21 16.2091 19.2091 18 17 18H14C13.7239 18 13.5 17.7761 13.5 17.5C13.5 17.2239 13.7239 17 14 17H17C18.6569 17 20 15.6569 20 14C20 12.6 19.0401 11.4218 17.7412 11.092L17.0385 10.9136ZM12.3536 11.1464C12.1583 10.9512 11.8417 10.9512 11.6464 11.1464L9.14645 13.6464C8.95118 13.8417 8.95118 14.1583 9.14645 14.3536C9.34171 14.5488 9.65829 14.5488 9.85355 14.3536L11.5 12.7071V19C11.5 19.2761 11.7239 19.5 12 19.5C12.2761 19.5 12.5 19.2761 12.5 19V12.7071L14.1464 14.3536C14.3417 14.5488 14.6583 14.5488 14.8536 14.3536C15.0488 14.1583 15.0488 13.8417 14.8536 13.6464L12.3536 11.1464Z" fill="currentColor" />
</svg>
