<svg width="24" height="24" viewBox="0 0 24 24" fill="none" xmlns="http://www.w3.org/2000/svg">
<path fill-rule="evenodd" clip-rule="evenodd" d="M15.5539 10.9242L15.4332 10.3149C15.1152 8.70985 13.6978 7.5 12 7.5C10.58 7.5 9.35535 8.34574 8.80639 9.56521L8.61605 9.98803L8.17035 10.1159C6.91618 10.4758 6 11.6322 6 13C6 14.6569 7.34315 16 9 16H10C10.2761 16 10.5 16.2239 10.5 16.5C10.5 16.7761 10.2761 17 10 17H9C6.79086 17 5 15.2091 5 13C5 11.1744 6.22307 9.63437 7.89452 9.15472C8.59907 7.58963 10.1723 6.5 12 6.5C14.1843 6.5 16.0052 8.05632 16.4141 10.1206C17.9038 10.5225 19 11.8833 19 13.5C19 15.433 17.433 17 15.5 17H14C13.7239 17 13.5 16.7761 13.5 16.5C13.5 16.2239 13.7239 16 14 16H15.5C16.8807 16 18 14.8807 18 13.5C18 12.3466 17.218 11.3733 16.1536 11.086L15.5539 10.9242ZM14.3536 13.1464L12.3536 11.1464C12.1583 10.9512 11.8417 10.9512 11.6464 11.1464L9.64645 13.1464C9.45118 13.3417 9.45118 13.6583 9.64645 13.8536C9.84171 14.0488 10.1583 14.0488 10.3536 13.8536L11.5 12.7071V17.5C11.5 17.7761 11.7239 18 12 18C12.2761 18 12.5 17.7761 12.5 17.5V12.7071L13.6464 13.8536C13.8417 14.0488 14.1583 14.0488 14.3536 13.8536C14.5488 13.6583 14.5488 13.3417 14.3536 13.1464Z" fill="currentColor" />
</svg>
