<svg width="24" height="24" viewBox="0 0 24 24" fill="none" xmlns="http://www.w3.org/2000/svg">
<path fill-rule="evenodd" clip-rule="evenodd" d="M12 4.5C8.02592 4.5 4.77376 7.59093 4.51642 11.4999C4.49828 11.7754 4.27615 12 4.00001 12C3.72387 12 3.49848 11.7756 3.51447 11.5C3.77331 7.03829 7.47345 3.5 12 3.5C14.9033 3.5 17.4666 4.95558 19 7.17678V5.5C19 5.22386 19.2239 5 19.5 5C19.7761 5 20 5.22386 20 5.5V8.5C20 8.77614 19.7761 9 19.5 9H16.5C16.2239 9 16 8.77614 16 8.5C16 8.22386 16.2239 8 16.5 8H18.3454C17.0169 5.89683 14.6716 4.5 12 4.5ZM7.5 16H5.65457C6.98314 18.1032 9.32845 19.5 12 19.5C15.9741 19.5 19.2263 16.4091 19.4836 12.5001C19.5017 12.2246 19.7239 12 20 12C20.2762 12 20.5015 12.2244 20.4855 12.5C20.2267 16.9617 16.5266 20.5 12 20.5C9.09671 20.5 6.53339 19.0444 5 16.8232V18.5C5 18.7761 4.77614 19 4.5 19C4.22386 19 4 18.7761 4 18.5V15.5C4 15.2239 4.22386 15 4.5 15H7.5C7.77614 15 8 15.2239 8 15.5C8 15.7761 7.77614 16 7.5 16ZM9.5 9C9.22386 9 9 9.22386 9 9.5V10.5C9 10.7761 9.22386 11 9.5 11C9.77614 11 10 10.7761 10 10.5V10H11.5V14H11C10.7239 14 10.5 14.2239 10.5 14.5C10.5 14.7761 10.7239 15 11 15H12H13C13.2761 15 13.5 14.7761 13.5 14.5C13.5 14.2239 13.2761 14 13 14H12.5V10H14V10.5C14 10.7761 14.2239 11 14.5 11C14.7761 11 15 10.7761 15 10.5V9.5C15 9.22386 14.7761 9 14.5 9H12H9.5Z" fill="currentColor" />
</svg>
