<svg width="24" height="24" viewBox="0 0 24 24" fill="none" xmlns="http://www.w3.org/2000/svg">
<path fill-rule="evenodd" clip-rule="evenodd" d="M7.02257 11.5254C7.28467 8.7764 9.72561 6.7604 12.4746 7.0225C13.9325 7.16151 15.1846 7.91316 16.0001 8.99993H14C13.7239 8.99993 13.5 9.22379 13.5 9.49993C13.5 9.77608 13.7239 9.99993 14 9.99993H17.5C17.7761 9.99993 18 9.77608 18 9.49993V6.49993C18 6.22379 17.7761 5.99993 17.5 5.99993C17.2239 5.99993 17 6.22379 17 6.49993V8.68301C16.0342 7.22903 14.444 6.20574 12.5695 6.02701C9.27073 5.7125 6.3416 8.1317 6.02709 11.4304C6.00088 11.7053 6.20248 11.9494 6.47737 11.9756C6.75227 12.0019 6.99636 11.8003 7.02257 11.5254ZM17.9729 12.5694C17.9991 12.2945 17.7975 12.0504 17.5226 12.0242C17.2477 11.998 17.0036 12.1996 16.9774 12.4745C16.7153 15.2234 14.2744 17.2395 11.5254 16.9774C10.0676 16.8384 8.81554 16.0868 8.00004 15.0001H10C10.2761 15.0001 10.5 14.7763 10.5 14.5001C10.5 14.224 10.2761 14.0001 10 14.0001H6.5C6.22386 14.0001 6 14.224 6 14.5001V17.5001C6 17.7763 6.22386 18.0001 6.5 18.0001C6.77614 18.0001 7 17.7763 7 17.5001V15.3168C7.96582 16.7708 9.556 17.7941 11.4305 17.9728C14.7293 18.2874 17.6584 15.8682 17.9729 12.5694Z" fill="currentColor" />
</svg>
