<svg width="24" height="24" viewBox="0 0 24 24" fill="none" xmlns="http://www.w3.org/2000/svg">
<path fill-rule="evenodd" clip-rule="evenodd" d="M12.4603 6.51918C9.43344 6.26492 6.77353 8.5126 6.51927 11.5395C6.49616 11.8147 6.25435 12.019 5.97917 11.9959C5.704 11.9728 5.49966 11.731 5.52278 11.4558C5.82327 7.87854 8.9668 5.2222 12.544 5.52269C14.3524 5.67459 15.9258 6.5536 17 7.84661V6.50027C17 6.22413 17.2239 6.00027 17.5 6.00027C17.7761 6.00027 18 6.22413 18 6.50027V9.00027C18 9.27641 17.7761 9.50027 17.5 9.50027H15C14.7239 9.50027 14.5 9.27641 14.5 9.00027C14.5 8.72413 14.7239 8.50027 15 8.50027H16.2429C15.3328 7.39695 13.9972 6.64828 12.4603 6.51918ZM18.0208 12.0039C18.2959 12.027 18.5003 12.2688 18.4772 12.544C18.1767 16.1212 15.0331 18.7776 11.4559 18.4771C9.64756 18.3252 8.07419 17.4462 7 16.1532V17.4995C7 17.7756 6.77614 17.9995 6.5 17.9995C6.22386 17.9995 6 17.7756 6 17.4995V15.0004C6 14.7244 6.22374 14.5006 6.4998 14.5004L8.9998 14.4995C9.27595 14.4994 9.49989 14.7231 9.5 14.9993C9.50011 15.2754 9.27634 15.4994 9.00019 15.4995L7.75738 15.5C8.66749 16.603 10.0029 17.3515 11.5396 17.4806C14.5665 17.7348 17.2264 15.4872 17.4807 12.4603C17.5038 12.1851 17.7456 11.9807 18.0208 12.0039ZM10.5 9.99983C10.2238 9.99983 9.99997 10.2237 9.99997 10.4998V10.9998C9.99997 11.276 10.2238 11.4998 10.5 11.4998C10.7761 11.4998 11 11.276 11 10.9998H11.5V12.9998H11C10.7238 12.9998 10.5 13.2237 10.5 13.4998C10.5 13.776 10.7238 13.9998 11 13.9998H12H13C13.2761 13.9998 13.5 13.776 13.5 13.4998C13.5 13.2237 13.2761 12.9998 13 12.9998H12.5V10.9998H13C13 11.276 13.2238 11.4998 13.5 11.4998C13.7761 11.4998 14 11.276 14 10.9998V10.4998C14 10.2237 13.7761 9.99983 13.5 9.99983H12H10.5Z" fill="currentColor" />
</svg>
