<svg width="24" height="24" viewBox="0 0 24 24" fill="none" xmlns="http://www.w3.org/2000/svg">
<path fill-rule="evenodd" clip-rule="evenodd" d="M15.4999 8C13.7993 8 12.4999 9.50099 12.4999 11.25V12.75C12.4999 14.499 13.7993 16 15.4999 16C17.2006 16 18.4999 14.499 18.4999 12.75V12C18.4999 11.7239 18.2761 11.5 17.9999 11.5H15.9999C15.7238 11.5 15.4999 11.7239 15.4999 12C15.4999 12.2761 15.7238 12.5 15.9999 12.5H17.4999V12.75C17.4999 14.0386 16.5607 15 15.4999 15C14.4391 15 13.4999 14.0386 13.4999 12.75V11.25C13.4999 9.96145 14.4391 9 15.4999 9C16.1545 9 16.7521 9.35673 17.1243 9.93804C17.2732 10.1706 17.5824 10.2384 17.815 10.0896C18.0475 9.94068 18.1154 9.63145 17.9665 9.39888C17.4337 8.56672 16.5364 8 15.4999 8ZM5.74636 16.0006C5.9684 16.0006 6.16621 15.8603 6.23968 15.6508L6.86437 13.8689H9.95722L10.5808 15.6505C10.6542 15.8602 10.8521 16.0006 11.0742 16.0006C11.437 16.0006 11.6895 15.6402 11.5656 15.2992L9.19197 8.76529C9.07278 8.43719 8.76101 8.21875 8.41193 8.21875C8.06298 8.21875 7.75131 8.43703 7.63202 8.76496L5.25509 15.2991C5.13107 15.64 5.38355 16.0006 5.74636 16.0006ZM9.63804 12.957L8.45251 9.56975C8.44649 9.55256 8.43027 9.54105 8.41206 9.54105C8.39385 9.54105 8.37764 9.55255 8.37161 9.56973L7.18408 12.957H9.63804Z" fill="currentColor" />
</svg>
