<svg width="24" height="24" viewBox="0 0 24 24" fill="none" xmlns="http://www.w3.org/2000/svg">
<path fill-rule="evenodd" clip-rule="evenodd" d="M18.364 5.63604C19.7763 7.04835 20.6221 8.81597 20.8989 10.6515C21.206 12.6876 19.4006 14 17.7313 14H15.5C14.6716 14 14 14.6716 14 15.5V17.7313C14 19.4006 12.6877 21.206 10.6516 20.8989C8.81603 20.6221 7.04837 19.7763 5.63604 18.364C2.12132 14.8492 2.12132 9.15076 5.63604 5.63604C9.15076 2.12132 14.8492 2.12132 18.364 5.63604ZM19.9101 10.8006C20.0981 12.0471 18.9918 13 17.7313 13H15.5C14.1193 13 13 14.1193 13 15.5V17.7313C13 18.9918 12.0472 20.0981 10.8007 19.9101C9.16928 19.6641 7.59931 18.913 6.34315 17.6569C3.21895 14.5327 3.21895 9.46734 6.34315 6.34315C9.46734 3.21895 14.5327 3.21895 17.6569 6.34315C18.913 7.59929 19.6641 9.16923 19.9101 10.8006ZM13 6.99998C13 7.55226 12.5523 7.99998 12 7.99998C11.4478 7.99998 11 7.55226 11 6.99998C11 6.44769 11.4478 5.99998 12 5.99998C12.5523 5.99998 13 6.44769 13 6.99998ZM8.86623 10.5001C9.14237 10.0219 8.9785 9.41026 8.5002 9.13412C8.02191 8.85798 7.41032 9.02185 7.13418 9.50015C6.85804 9.97844 7.02191 10.59 7.5002 10.8662C7.9785 11.1423 8.59009 10.9784 8.86623 10.5001ZM16.5002 10.8662C16.0219 11.1423 15.4103 10.9784 15.1342 10.5001C14.858 10.0219 15.0219 9.41026 15.5002 9.13412C15.9785 8.85798 16.5901 9.02185 16.8662 9.50015C17.1424 9.97844 16.9785 10.59 16.5002 10.8662ZM7.13418 15.5001C7.41032 15.9784 8.02191 16.1423 8.5002 15.8662C8.9785 15.59 9.14237 14.9784 8.86623 14.5001C8.59009 14.0219 7.9785 13.858 7.5002 14.1341C7.02191 14.4103 6.85804 15.0219 7.13418 15.5001Z" fill="currentColor" />
</svg>
