<svg width="24" height="24" viewBox="0 0 24 24" fill="none" xmlns="http://www.w3.org/2000/svg">
<path fill-rule="evenodd" clip-rule="evenodd" d="M16.9497 7.05025C18.1121 8.21259 18.7811 9.68463 18.9545 11.2008C19.1546 12.9505 17.5942 14.0001 16.2248 14.0001H15C14.4477 14.0001 14 14.4478 14 15.0001V16.2248C14 17.5942 12.9505 19.1546 11.2007 18.9544C9.68457 18.781 8.21257 18.1121 7.05025 16.9497C4.31658 14.2161 4.31658 9.78392 7.05025 7.05025C9.78392 4.31658 14.2161 4.31658 16.9497 7.05025ZM17.9609 11.3144C18.0719 12.2846 17.2014 13.0001 16.2248 13.0001H15C13.8954 13.0001 13 13.8955 13 15.0001V16.2248C13 17.2014 12.2846 18.0719 11.3143 17.9609C10.0146 17.8123 8.75423 17.2395 7.75736 16.2426C5.41421 13.8995 5.41421 10.1005 7.75736 7.75736C10.1005 5.41421 13.8995 5.41421 16.2426 7.75736C17.2395 8.75425 17.8123 10.0147 17.9609 11.3144ZM13 8.00007C13 8.55236 12.5523 9.00007 12 9.00007C11.4477 9.00007 11 8.55236 11 8.00007C11 7.44779 11.4477 7.00007 12 7.00007C12.5523 7.00007 13 7.44779 13 8.00007ZM9.86621 10.5002C10.1423 10.0219 9.97847 9.41036 9.50018 9.13421C9.02189 8.85807 8.4103 9.02195 8.13415 9.50024C7.85801 9.97853 8.02189 10.5901 8.50018 10.8663C8.97847 11.1424 9.59006 10.9785 9.86621 10.5002ZM15.5002 10.8663C15.0219 11.1424 14.4103 10.9785 14.1342 10.5002C13.858 10.0219 14.0219 9.41036 14.5002 9.13421C14.9785 8.85807 15.5901 9.02195 15.8662 9.50024C16.1423 9.97853 15.9785 10.5901 15.5002 10.8663ZM8.13415 14.5002C8.4103 14.9785 9.02189 15.1424 9.50018 14.8663C9.97847 14.5901 10.1423 13.9785 9.86621 13.5002C9.59006 13.0219 8.97847 12.8581 8.50018 13.1342C8.02189 13.4104 7.85801 14.0219 8.13415 14.5002Z" fill="currentColor" />
</svg>
