<svg width="24" height="24" viewBox="0 0 24 24" fill="none" xmlns="http://www.w3.org/2000/svg">
<path fill-rule="evenodd" clip-rule="evenodd" d="M11.8233 6.5908L6.59105 11.823C6.49341 11.9207 6.49341 12.079 6.59105 12.1766L11.8233 17.4088C11.9209 17.5065 12.0792 17.5065 12.1768 17.4088L17.4091 12.1766C17.5067 12.079 17.5067 11.9207 17.4091 11.823L12.1768 6.5908C12.0792 6.49317 11.9209 6.49317 11.8233 6.5908ZM11.1162 5.8837L5.88394 11.1159C5.39578 11.6041 5.39578 12.3955 5.88394 12.8837L11.1162 18.1159C11.6043 18.6041 12.3958 18.6041 12.8839 18.1159L18.1162 12.8837C18.6043 12.3955 18.6043 11.6041 18.1162 11.1159L12.8839 5.88369C12.3958 5.39554 11.6043 5.39554 11.1162 5.8837Z" fill="currentColor" />
</svg>
