<svg width="24" height="24" viewBox="0 0 24 24" fill="none" xmlns="http://www.w3.org/2000/svg">
<path fill-rule="evenodd" clip-rule="evenodd" d="M10.5145 7.47491L13.5144 9.27489C13.8156 9.45562 13.9999 9.78112 13.9999 10.1324V13.8676C13.9999 14.2189 13.8156 14.5444 13.5144 14.7251L10.5145 16.5251C10.1978 16.7151 9.80218 16.7151 9.4855 16.5251L6.4855 14.7251C6.1843 14.5444 6 14.2189 6 13.8676V10.1324C6 9.78113 6.1843 9.45562 6.4855 9.2749L9.48549 7.4749C9.80218 7.28489 10.1978 7.2849 10.5145 7.47491ZM8.971 6.61741C9.60437 6.23739 10.3956 6.23739 11.029 6.61742L14.0289 8.4174C14.6313 8.77885 14.9999 9.42986 14.9999 10.1324V13.8676C14.9999 14.5702 14.6313 15.2212 14.0289 15.5826L11.029 17.3826C10.3956 17.7626 9.60437 17.7626 8.971 17.3826L5.97101 15.5826C5.3686 15.2212 5 14.5702 5 13.8676V10.1324C5 9.42987 5.3686 8.77885 5.97101 8.41741L8.971 6.61741ZM12.9714 17.3829C13.6047 17.7626 14.3957 17.7625 15.029 17.3826L18.0289 15.5826C18.6313 15.2212 18.9999 14.5702 18.9999 13.8676V10.1324C18.9999 9.42986 18.6313 8.77885 18.0289 8.4174L15.029 6.61742C14.396 6.23763 13.6053 6.23739 12.9722 6.6167L14.1979 7.35217C14.308 7.37438 14.4151 7.41529 14.5145 7.47491L17.5144 9.27489C17.8156 9.45562 17.9999 9.78112 17.9999 10.1324V13.8676C17.9999 14.2189 17.8156 14.5444 17.5144 14.7251L14.5145 16.5251C14.4144 16.5852 14.3064 16.6262 14.1956 16.6483L12.9714 17.3829ZM9 12C9 11.4477 9.44772 11 10 11C10.5523 11 11 11.4477 11 12C11 12.5523 10.5523 13 10 13C9.44772 13 9 12.5523 9 12Z" fill="currentColor" />
</svg>
