<svg width="24" height="24" viewBox="0 0 24 24" fill="none" xmlns="http://www.w3.org/2000/svg">
<path fill-rule="evenodd" clip-rule="evenodd" d="M12.5039 6.45165L16.5039 8.78498C16.8111 8.96419 17 9.29309 17 9.64876V14.3513C17 14.7069 16.8111 15.0359 16.5039 15.2151L12.5039 17.5484C12.1925 17.73 11.8075 17.73 11.4961 17.5484L7.49613 15.2151C7.18891 15.0358 7 14.7069 7 14.3513V9.64876C7 9.2931 7.18891 8.96419 7.49613 8.78498L11.4961 6.45165C11.8075 6.27002 12.1925 6.27002 12.5039 6.45165ZM10.9923 5.58787C11.615 5.22462 12.385 5.22462 13.0078 5.58787L17.0077 7.9212C17.6222 8.27963 18 8.93743 18 9.64876V14.3513C18 15.0626 17.6222 15.7204 17.0077 16.0788L13.0078 18.4122C12.385 18.7754 11.615 18.7754 10.9923 18.4122L6.99226 16.0788C6.37782 15.7204 6 15.0626 6 14.3513V9.64876C6 8.93743 6.37782 8.27963 6.99226 7.92121L10.9923 5.58787ZM12 11C11.4477 11 11 11.4477 11 12C11 12.5523 11.4477 13 12 13C12.5523 13 13 12.5523 13 12C13 11.4477 12.5523 11 12 11Z" fill="currentColor" />
</svg>
