<svg width="24" height="24" viewBox="0 0 24 24" fill="none" xmlns="http://www.w3.org/2000/svg">
<path fill-rule="evenodd" clip-rule="evenodd" d="M13.207 3.29289C12.8165 2.90237 12.1834 2.90237 11.7928 3.29289L9.39643 5.68929L7.35349 3.64635C7.15823 3.45109 6.84165 3.45109 6.64639 3.64635C6.45112 3.84162 6.45112 4.1582 6.64639 4.35346L8.68933 6.3964L4.20705 10.8787C3.03548 12.0503 3.03548 13.9497 4.20705 15.1213L8.87862 19.7929C10.0502 20.9645 11.9497 20.9645 13.1213 19.7929L20.707 12.2071C21.0976 11.8166 21.0976 11.1834 20.707 10.7929L13.207 3.29289ZM9.39643 7.10351L4.91416 11.5858C4.13311 12.3668 4.13311 13.6332 4.91416 14.4142L9.58573 19.0858C10.3668 19.8668 11.6331 19.8668 12.4142 19.0858L19.2928 12.2071L19.9999 11.5L19.2928 10.7929L13.207 4.70711L12.4999 4L11.7928 4.70711L10.1035 6.3964L12.8532 9.14609C13.0491 9.05238 13.2684 8.99991 13.4999 8.99991C14.3284 8.99991 14.9999 9.67148 14.9999 10.4999C14.9999 11.3283 14.3284 11.9999 13.4999 11.9999C12.6715 11.9999 11.9999 11.3283 11.9999 10.4999C11.9999 10.2683 12.0524 10.049 12.1461 9.8532L9.39643 7.10351ZM18.9999 19.9999C19.5522 19.9999 19.9999 19.5522 19.9999 18.9999C19.9999 18.7308 19.8496 18.3055 19.5295 17.7803C19.3647 17.51 19.1784 17.2506 18.9999 17.0219C18.8215 17.2506 18.6351 17.51 18.4704 17.7803C18.1503 18.3055 17.9999 18.7308 17.9999 18.9999C17.9999 19.5522 18.4477 19.9999 18.9999 19.9999ZM18.9999 20.9999C20.1045 20.9999 20.9999 20.1045 20.9999 18.9999C20.9999 17.8923 19.9095 16.5122 19.339 15.8658C19.1562 15.6588 18.8436 15.6588 18.6609 15.8658C18.0904 16.5122 16.9999 17.8923 16.9999 18.9999C16.9999 20.1045 17.8954 20.9999 18.9999 20.9999ZM13.9999 10.4999C13.9999 10.776 13.7761 10.9999 13.4999 10.9999C13.2238 10.9999 12.9999 10.776 12.9999 10.4999C12.9999 10.2238 13.2238 9.99991 13.4999 9.99991C13.7761 9.99991 13.9999 10.2238 13.9999 10.4999Z" fill="currentColor" />
</svg>
