<svg width="24" height="24" viewBox="0 0 24 24" fill="none" xmlns="http://www.w3.org/2000/svg">
<path fill-rule="evenodd" clip-rule="evenodd" d="M8.85357 5.14645C8.6583 4.95118 8.34172 4.95118 8.14646 5.14645C7.9512 5.34171 7.9512 5.65829 8.14646 5.85355L9.68935 7.39645L5.85357 11.2322C4.87726 12.2085 4.87726 13.7915 5.85357 14.7678L9.23225 18.1464C10.2086 19.1228 11.7915 19.1228 12.7678 18.1465L18.7071 12.2071C19.0976 11.8166 19.0976 11.1834 18.7071 10.7929L13.2071 5.29289C12.8166 4.90237 12.1834 4.90237 11.7929 5.29289L10.3965 6.68934L8.85357 5.14645ZM10.3965 8.10356L6.56068 11.9393C5.97489 12.5251 5.97489 13.4749 6.56068 14.0607L9.93936 17.4393C10.5251 18.0251 11.4749 18.0251 12.0607 17.4393L17.2929 12.2071L18 11.5L17.2929 10.7929L13.2071 6.70711L12.5 6L11.7929 6.70711L11.1036 7.39645L13.241 9.53387C13.3236 9.51178 13.4104 9.5 13.5 9.5C14.0523 9.5 14.5 9.94772 14.5 10.5C14.5 11.0523 14.0523 11.5 13.5 11.5C12.9477 11.5 12.5 11.0523 12.5 10.5C12.5 10.4104 12.5118 10.3236 12.5339 10.241L10.3965 8.10356ZM18 17.5C18 17.7761 17.7762 18 17.5 18C17.2239 18 17 17.7761 17 17.5C17 17.0666 17.234 16.6597 17.5079 16.3396C17.7727 16.6484 18 17.0497 18 17.5ZM19 17.5C19 18.3284 18.3284 19 17.5 19C16.6716 19 16 18.3284 16 17.5C16 16.3944 16.8149 15.5604 17.2434 15.1983C17.3945 15.0707 17.6072 15.0683 17.76 15.1937C18.1895 15.546 19 16.3617 19 17.5Z" fill="currentColor" />
</svg>
