<svg width="24" height="24" viewBox="0 0 24 24" fill="none" xmlns="http://www.w3.org/2000/svg">
<path fill-rule="evenodd" clip-rule="evenodd" d="M16 9C16.5523 9 17 8.55228 17 8C17 7.44772 16.5523 7 16 7C15.4477 7 15 7.44772 15 8C15 8.55228 15.4477 9 16 9ZM16 10C17.1046 10 18 9.10457 18 8C18 6.89543 17.1046 6 16 6C15.0681 6 14.285 6.63739 14.063 7.5H14C10.4101 7.5 7.5 10.4101 7.5 14V14.063C6.63739 14.285 6 15.0681 6 16C6 17.1046 6.89543 18 8 18C9.10457 18 10 17.1046 10 16C10 15.0681 9.36261 14.285 8.5 14.063V14C8.5 10.9624 10.9624 8.5 14 8.5H14.063C14.285 9.36261 15.0681 10 16 10ZM8 17C8.55228 17 9 16.5523 9 16C9 15.4477 8.55228 15 8 15C7.44772 15 7 15.4477 7 16C7 16.5523 7.44772 17 8 17Z" fill="currentColor" />
</svg>
