<svg width="24" height="24" viewBox="0 0 24 24" fill="none" xmlns="http://www.w3.org/2000/svg">
<path fill-rule="evenodd" clip-rule="evenodd" d="M11.6464 6.14645C11.8417 5.95118 12.1583 5.95118 12.3536 6.14645L14.3536 8.14645C14.5488 8.34171 14.5488 8.65829 14.3536 8.85355C14.1583 9.04882 13.8417 9.04882 13.6464 8.85355L12.5 7.70711V11.5309C14.4732 11.777 16 13.4602 16 15.5V17.5C16 17.7761 15.7761 18 15.5 18C15.2239 18 15 17.7761 15 17.5V15.5C15 13.8431 13.6569 12.5 12 12.5C10.3431 12.5 9 13.8431 9 15.5V17.5C9 17.7761 8.77614 18 8.5 18C8.22386 18 8 17.7761 8 17.5V15.5C8 13.4602 9.52684 11.777 11.5 11.5309V7.70711L10.3536 8.85355C10.1583 9.04882 9.84171 9.04882 9.64645 8.85355C9.45118 8.65829 9.45118 8.34171 9.64645 8.14645L11.6464 6.14645Z" fill="currentColor" />
</svg>
