<svg width="24" height="24" viewBox="0 0 24 24" fill="none" xmlns="http://www.w3.org/2000/svg">
<path fill-rule="evenodd" clip-rule="evenodd" d="M7.99937 8.99987C8.91156 7.78522 10.364 6.99951 12 6.99951C14.7614 6.99951 17 9.23809 17 11.9995C17 14.7609 14.7614 16.9995 12 16.9995C9.40709 16.9995 7.27516 15.0258 7.02462 12.4988C6.99737 12.224 6.77614 11.9995 6.5 11.9995C6.22386 11.9995 5.99783 12.2242 6.02052 12.4994C6.27453 15.5792 8.85462 17.9995 12 17.9995C15.3137 17.9995 18 15.3132 18 11.9995C18 8.6858 15.3137 5.99951 12 5.99951C9.91303 5.99951 8.07492 7.06502 7 8.68172V6.49987C7 6.22372 6.77614 5.99987 6.5 5.99987C6.22386 5.99987 6 6.22372 6 6.49987V9.49987C6 9.77601 6.22386 9.99987 6.5 9.99987H9.5C9.77614 9.99987 10 9.77601 10 9.49987C10 9.22372 9.77614 8.99987 9.5 8.99987H7.99937ZM12 8.99934C12.2761 8.99934 12.5 9.2232 12.5 9.49934V11.7927L13.8535 13.1457C14.0488 13.341 14.0488 13.6575 13.8536 13.8528C13.6584 14.0481 13.3418 14.0482 13.1465 13.853L11.6465 12.3535C11.5527 12.2597 11.5 12.1325 11.5 11.9999V9.49934C11.5 9.2232 11.7239 8.99934 12 8.99934Z" fill="currentColor" />
</svg>
