<svg width="24" height="24" viewBox="0 0 24 24" fill="none" xmlns="http://www.w3.org/2000/svg">
<path fill-rule="evenodd" clip-rule="evenodd" d="M8.14645 6.14645C8.34171 5.95118 8.65829 5.95118 8.85355 6.14645L10.8536 8.14645C11.0488 8.34171 11.0488 8.65829 10.8536 8.85355C10.6583 9.04882 10.3417 9.04882 10.1464 8.85355L9 7.70711L9 17C12.3137 17 15 14.3137 15 11V7.70711L13.8536 8.85355C13.6583 9.04882 13.3417 9.04882 13.1464 8.85355C12.9512 8.65829 12.9512 8.34171 13.1464 8.14645L15.1464 6.14645C15.3417 5.95118 15.6583 5.95118 15.8536 6.14645L17.8536 8.14645C18.0488 8.34171 18.0488 8.65829 17.8536 8.85355C17.6583 9.04882 17.3417 9.04882 17.1464 8.85355L16 7.70711V11C16 14.866 12.866 18 9 18H8.5C8.22386 18 8 17.7761 8 17.5V7.70711L6.85355 8.85355C6.65829 9.04882 6.34171 9.04882 6.14645 8.85355C5.95118 8.65829 5.95118 8.34171 6.14645 8.14645L8.14645 6.14645Z" fill="currentColor" />
</svg>
