<svg width="24" height="24" viewBox="0 0 24 24" fill="none" xmlns="http://www.w3.org/2000/svg">
<path fill-rule="evenodd" clip-rule="evenodd" d="M5 14.5C5 14.2239 4.77614 14 4.5 14C4.22386 14 4 14.2239 4 14.5V17C4 18.6569 5.34315 20 7 20H9.5C9.77614 20 10 19.7761 10 19.5C10 19.2239 9.77614 19 9.5 19H7C5.89543 19 5 18.1046 5 17V14.5ZM14.5 4C14.2239 4 14 4.22386 14 4.5C14 4.77614 14.2239 5 14.5 5H17C18.1046 5 19 5.89543 19 7V9.5C19 9.77614 19.2239 10 19.5 10C19.7761 10 20 9.77614 20 9.5V7C20 5.34315 18.6569 4 17 4H14.5ZM10 7.5C10 8.88071 8.88071 10 7.5 10C6.11929 10 5 8.88071 5 7.5C5 6.11929 6.11929 5 7.5 5C8.88071 5 10 6.11929 10 7.5ZM9.5961 10.3032C9.01181 10.7408 8.28618 11 7.5 11C5.567 11 4 9.433 4 7.5C4 5.567 5.567 4 7.5 4C9.433 4 11 5.567 11 7.5C11 8.28618 10.7408 9.01181 10.3032 9.5961L11.8535 11.1465C12.0488 11.3417 12.0488 11.6583 11.8535 11.8535C11.6583 12.0488 11.3417 12.0488 11.1465 11.8535L9.5961 10.3032ZM16.0149 13.4403L15.5 15.5L13.4403 16.0149C12.9353 16.1412 12.9353 16.8588 13.4403 16.9851L15.5 17.5L16.0149 19.5597C16.1412 20.0647 16.8588 20.0647 16.9851 19.5597L17.5 17.5L19.5597 16.9851C20.0647 16.8588 20.0647 16.1412 19.5597 16.0149L17.5 15.5L16.9851 13.4403C16.8588 12.9353 16.1412 12.9353 16.0149 13.4403Z" fill="currentColor" />
</svg>
