<svg width="24" height="24" viewBox="0 0 24 24" fill="none" xmlns="http://www.w3.org/2000/svg">
<path fill-rule="evenodd" clip-rule="evenodd" d="M10 8.5C10 9.32843 9.32843 10 8.5 10C7.67157 10 7 9.32843 7 8.5C7 7.67157 7.67157 7 8.5 7C9.32843 7 10 7.67157 10 8.5ZM9.87871 10.5858C9.48349 10.8476 9.00954 11 8.5 11C7.11929 11 6 9.88071 6 8.5C6 7.11929 7.11929 6 8.5 6C9.88071 6 11 7.11929 11 8.5C11 9.00954 10.8476 9.48349 10.5858 9.87871L11.8535 11.1465C12.0488 11.3417 12.0488 11.6583 11.8535 11.8535C11.6583 12.0488 11.3417 12.0488 11.1465 11.8535L9.87871 10.5858ZM14 6.5C14 6.22386 14.2239 6 14.5 6H15.5C16.8807 6 18 7.11929 18 8.5V9.5C18 9.77614 17.7761 10 17.5 10C17.2239 10 17 9.77614 17 9.5V8.5C17 7.67157 16.3284 7 15.5 7H14.5C14.2239 7 14 6.77614 14 6.5ZM6.5 14C6.77614 14 7 14.2239 7 14.5V15.5C7 16.3284 7.67157 17 8.5 17H9.5C9.77614 17 10 17.2239 10 17.5C10 17.7761 9.77614 18 9.5 18H8.5C7.11929 18 6 16.8807 6 15.5V14.5C6 14.2239 6.22386 14 6.5 14ZM15.0149 13.4403L14.7 14.7L13.4403 15.0149C12.9353 15.1412 12.9353 15.8588 13.4403 15.9851L14.7 16.3L15.0149 17.5597C15.1412 18.0647 15.8588 18.0647 15.9851 17.5597L16.3 16.3L17.5597 15.9851C18.0647 15.8588 18.0647 15.1412 17.5597 15.0149L16.3 14.7L15.9851 13.4403C15.8588 12.9353 15.1412 12.9353 15.0149 13.4403Z" fill="currentColor" />
</svg>
