<svg width="24" height="24" viewBox="0 0 24 24" fill="none" xmlns="http://www.w3.org/2000/svg">
<path fill-rule="evenodd" clip-rule="evenodd" d="M9.5 5C9.22386 5 9 5.22386 9 5.5V9H5.5C5.22386 9 5 9.22386 5 9.5C5 9.77614 5.22386 10 5.5 10H9V13.5C9 13.7761 9.22386 14 9.5 14C9.77614 14 10 13.7761 10 13.5V10H13.5C13.7761 10 14 9.77614 14 9.5C14 9.22386 13.7761 9 13.5 9H10V5.5C10 5.22386 9.77614 5 9.5 5ZM14 6C14 6.55228 13.5523 7 13 7C12.4477 7 12 6.55228 12 6C12 5.44772 12.4477 5 13 5C13.5523 5 14 5.44772 14 6ZM6 7C6.55228 7 7 6.55228 7 6C7 5.44772 6.55228 5 6 5C5.44772 5 5 5.44772 5 6C5 6.55228 5.44772 7 6 7ZM7 13C7 13.5523 6.55228 14 6 14C5.44772 14 5 13.5523 5 13C5 12.4477 5.44772 12 6 12C6.55228 12 7 12.4477 7 13ZM18.8536 18.1464L12.3536 11.6464C12.1583 11.4512 11.8417 11.4512 11.6464 11.6464C11.4512 11.8417 11.4512 12.1583 11.6464 12.3536L18.1464 18.8536C18.3417 19.0488 18.6583 19.0488 18.8536 18.8536C19.0488 18.6583 19.0488 18.3417 18.8536 18.1464Z" fill="currentColor" />
</svg>
