<svg width="24" height="24" viewBox="0 0 24 24" fill="none" xmlns="http://www.w3.org/2000/svg">
<path fill-rule="evenodd" clip-rule="evenodd" d="M10.2568 6.05903L5.21667 15.0193C4.46674 16.3525 5.43016 17.9998 6.95982 17.9998H17.0401C18.5697 17.9998 19.5331 16.3525 18.7832 15.0193L13.7431 6.05904C12.9785 4.69973 11.0214 4.69972 10.2568 6.05903ZM11.1284 6.54929L6.08824 15.5096C5.71328 16.1762 6.19499 16.9998 6.95982 16.9998H17.0401C17.8049 16.9998 18.2866 16.1762 17.9116 15.5096L12.8715 6.54929C12.4892 5.86964 11.5107 5.86964 11.1284 6.54929ZM11.9999 8.49976C12.2761 8.49976 12.4999 8.72361 12.4999 8.99976V12.4998C12.4999 12.7759 12.2761 12.9998 11.9999 12.9998C11.7238 12.9998 11.4999 12.7759 11.4999 12.4998V8.99976C11.4999 8.72361 11.7238 8.49976 11.9999 8.49976ZM12.7499 14.7532C12.7499 15.1674 12.4142 15.5032 11.9999 15.5032C11.5857 15.5032 11.2499 15.1674 11.2499 14.7532C11.2499 14.339 11.5857 14.0032 11.9999 14.0032C12.4142 14.0032 12.7499 14.339 12.7499 14.7532Z" fill="currentColor" />
</svg>
