<svg width="24" height="24" viewBox="0 0 24 24" fill="none" xmlns="http://www.w3.org/2000/svg">
<path fill-rule="evenodd" clip-rule="evenodd" d="M17.586 8.50121L15.5002 6.41528L13.4145 8.5009L15.5003 10.5868L17.586 8.50121ZM16.2073 5.7082C15.8168 5.31766 15.1837 5.31764 14.7931 5.70815L12.7074 7.79377C12.3168 8.18428 12.3168 8.81745 12.7073 9.20799L14.7932 11.2939C15.1837 11.6845 15.8169 11.6845 16.2074 11.294L18.2931 9.20833C18.6836 8.81781 18.6836 8.18466 18.2931 7.79412L16.2073 5.7082ZM7.00012 13.9997H10.0001V16.9997H7.00012V13.9997ZM6.00012 13.9997C6.00012 13.4474 6.44784 12.9997 7.00012 12.9997H10.0001C10.5524 12.9997 11.0001 13.4474 11.0001 13.9997V16.9997C11.0001 17.552 10.5524 17.9997 10.0001 17.9997H7.00012C6.44784 17.9997 6.00012 17.552 6.00012 16.9997V13.9997ZM17 15.4998C17 16.3283 16.3285 16.9998 15.5 16.9998C14.6716 16.9998 14 16.3283 14 15.4998C14 14.6714 14.6716 13.9998 15.5 13.9998C16.3285 13.9998 17 14.6714 17 15.4998ZM18 15.4998C18 16.8805 16.8807 17.9998 15.5 17.9998C14.1193 17.9998 13 16.8805 13 15.4998C13 14.1191 14.1193 12.9998 15.5 12.9998C16.8807 12.9998 18 14.1191 18 15.4998ZM6.08579 6.33588C6.74015 5.68152 7.73514 5.57538 8.5 6.01747C9.26486 5.57538 10.2598 5.68152 10.9142 6.33588C11.6953 7.11693 11.6953 8.38326 10.9142 9.16431L9.91421 10.1643L9.20711 10.8714C9.01957 11.059 8.76522 11.1643 8.5 11.1643C8.23478 11.1643 7.98043 11.059 7.79289 10.8714L7.08579 10.1643L6.08579 9.16431C5.30474 8.38326 5.30474 7.11693 6.08579 6.33588ZM8.5 7.33588L8.79289 7.04299L8.79315 7.04273C9.1837 6.65246 9.81667 6.65255 10.2071 7.04299C10.5976 7.43351 10.5976 8.06668 10.2071 8.4572L9.20711 9.4572L8.5 10.1643L7.79289 9.4572L6.79289 8.4572C6.40237 8.06668 6.40237 7.43351 6.79289 7.04299C7.18342 6.65246 7.81658 6.65246 8.20711 7.04299L8.5 7.33588Z" fill="currentColor" />
</svg>
