<svg width="24" height="24" viewBox="0 0 24 24" fill="none" xmlns="http://www.w3.org/2000/svg">
<path fill-rule="evenodd" clip-rule="evenodd" d="M16.4999 4.41455L19.5858 7.5007L16.4999 10.5861L13.4142 7.5007L16.4999 4.41455ZM15.7928 3.70749C16.1833 3.31691 16.8166 3.3169 17.2071 3.70748L20.2929 6.79363C20.6834 7.18418 20.6834 7.81735 20.2928 8.20785L17.207 11.2933C16.8165 11.6837 16.1834 11.6837 15.7929 11.2933L12.7071 8.20784C12.3166 7.81734 12.3166 7.18418 12.7071 6.79364L15.7928 3.70749ZM7.93934 5.43936L7.93948 5.43921C8.52528 4.85357 9.47492 4.85362 10.0607 5.43936C10.6464 6.02515 10.6464 6.97489 10.0607 7.56068L8.56066 9.06068L8.20711 9.41423L7.5 10.1213L6.79289 9.41423L6.43934 9.06068L4.93934 7.56068C4.35355 6.97489 4.35355 6.02515 4.93934 5.43936C5.52513 4.85357 6.47487 4.85357 7.06066 5.43936L7.5 5.8787L7.93934 5.43936ZM4.23223 4.73225C5.12361 3.84087 6.52064 3.76333 7.5 4.49962C8.47935 3.76333 9.87639 3.84087 10.7678 4.73225C11.7441 5.70856 11.7441 7.29148 10.7678 8.26779L9.26777 9.76779L8.20711 10.8284C7.81658 11.219 7.18342 11.219 6.79289 10.8284L5.73223 9.76779L4.23223 8.26779C3.25592 7.29148 3.25592 5.70856 4.23223 4.73225ZM19 16.5C19 17.8807 17.8807 19 16.5 19C15.1193 19 14 17.8807 14 16.5C14 15.1193 15.1193 14 16.5 14C17.8807 14 19 15.1193 19 16.5ZM20 16.5C20 18.433 18.433 20 16.5 20C14.567 20 13 18.433 13 16.5C13 14.567 14.567 13 16.5 13C18.433 13 20 14.567 20 16.5ZM10 14H5L5 19H10V14ZM5 13C4.44772 13 4 13.4477 4 14V19C4 19.5523 4.44771 20 5 20H10C10.5523 20 11 19.5523 11 19V14C11 13.4477 10.5523 13 10 13H5Z" fill="currentColor" />
</svg>
