<svg width="24" height="24" viewBox="0 0 24 24" fill="none" xmlns="http://www.w3.org/2000/svg">
<path fill-rule="evenodd" clip-rule="evenodd" d="M9.28063 13.0164C8.88642 14.0325 9.89063 15.0312 10.9045 14.6314L12.5931 13.9656C12.7844 13.8902 12.9582 13.7762 13.1036 13.6308L16.8457 9.88869L17.5528 9.18158C18.1386 8.5958 18.1386 7.64605 17.5528 7.06026L16.8457 6.35316C16.2599 5.76737 15.3102 5.76737 14.7244 6.35316L14.0173 7.06026L10.2772 10.8004C10.1298 10.9477 10.0148 11.1242 9.93939 11.3185L9.28063 13.0164ZM10.5377 13.7011C10.3349 13.7811 10.1341 13.5814 10.2129 13.3781L10.8717 11.6802C10.8968 11.6154 10.9352 11.5566 10.9843 11.5075L14.3708 8.12092L15.785 9.53514L12.3965 12.9237C12.348 12.9722 12.2901 13.0102 12.2263 13.0353L10.5377 13.7011ZM16.4922 8.82803L15.0779 7.41382L15.4315 7.06027C15.6268 6.865 15.9433 6.865 16.1386 7.06026L16.8457 7.76737C17.041 7.96263 17.041 8.27922 16.8457 8.47448L16.4922 8.82803ZM11.5 5.9999C11.7761 5.9999 12 6.22376 12 6.4999C12 6.77604 11.7761 6.9999 11.5 6.9999H7.5C7.22386 6.9999 7 7.22376 7 7.4999V16.4999C7 16.776 7.22386 16.9999 7.5 16.9999H16.5C16.7761 16.9999 17 16.776 17 16.4999V12.4999C17 12.2238 17.2239 11.9999 17.5 11.9999C17.7761 11.9999 18 12.2238 18 12.4999V16.4999C18 17.3283 17.3284 17.9999 16.5 17.9999H7.5C6.67157 17.9999 6 17.3283 6 16.4999V7.4999C6 6.67147 6.67157 5.9999 7.5 5.9999H11.5Z" fill="currentColor" />
</svg>
