<svg width="24" height="24" viewBox="0 0 24 24" fill="none" xmlns="http://www.w3.org/2000/svg">
<path fill-rule="evenodd" clip-rule="evenodd" d="M10.5 15C12.9853 15 15 12.9853 15 10.5C15 8.01472 12.9853 6 10.5 6C8.01472 6 6 8.01472 6 10.5C6 12.9853 8.01472 15 10.5 15ZM10.5 16C11.8504 16 13.0872 15.5133 14.0444 14.7058C14.0686 14.7593 14.1027 14.8095 14.1467 14.8535L17.1467 17.8535C17.342 18.0488 17.6585 18.0488 17.8538 17.8535C18.0491 17.6583 18.0491 17.3417 17.8538 17.1464L14.8538 14.1464C14.8098 14.1024 14.7596 14.0683 14.706 14.0441C15.5134 13.0869 16 11.8503 16 10.5C16 7.46243 13.5376 5 10.5 5C7.46243 5 5 7.46243 5 10.5C5 13.5376 7.46243 16 10.5 16ZM8.5 9C8.22386 9 8 9.22386 8 9.5C8 9.77614 8.22386 10 8.5 10H12.5C12.7761 10 13 9.77614 13 9.5C13 9.22386 12.7761 9 12.5 9H8.5ZM8.5 11C8.22386 11 8 11.2239 8 11.5C8 11.7761 8.22386 12 8.5 12H12.5C12.7761 12 13 11.7761 13 11.5C13 11.2239 12.7761 11 12.5 11H8.5Z" fill="currentColor" />
</svg>
